/* XPM */
static char *result[] = {
/* columns rows colors chars-per-pixel */
"64 64 177 2 ",
"   c #030302",
".  c #090604",
"X  c #0A0906",
"o  c #0F0B0A",
"O  c #120E0C",
"+  c #15100D",
"@  c #19130F",
"#  c #161514",
"$  c #1B1411",
"%  c #1D1913",
"&  c #171919",
"*  c #1B1C1C",
"=  c #211916",
"-  c #261C18",
";  c #2A1E1B",
":  c #23241B",
">  c #2B221D",
",  c #32231F",
"<  c #2D2625",
"1  c #2B2B27",
"2  c #222729",
"3  c #282B2A",
"4  c #322522",
"5  c #362924",
"6  c #3C2A25",
"7  c #3C2D29",
"8  c #332C2B",
"9  c #393226",
"0  c #3D332C",
"q  c #363025",
"w  c #2B3235",
"e  c #3A3332",
"r  c #32363A",
"t  c #373C3F",
"y  c #422E2A",
"u  c #44312D",
"i  c #4A332E",
"p  c #453D2F",
"a  c #443632",
"s  c #4B3531",
"d  c #453A34",
"f  c #4C3A35",
"g  c #453B39",
"h  c #4A3D3B",
"j  c #523A35",
"k  c #553E39",
"l  c #583F3A",
"z  c #4C4435",
"x  c #4D443C",
"c  c #474F3D",
"v  c #484E3E",
"b  c #54423B",
"n  c #5B423D",
"m  c #48513E",
"M  c #343F45",
"N  c #393F43",
"B  c #374147",
"V  c #3A454C",
"C  c #3E4245",
"Z  c #4F4940",
"A  c #40474E",
"S  c #40494F",
"D  c #474748",
"F  c #5E4641",
"G  c #524C44",
"H  c #5B4B44",
"J  c #5C4D49",
"K  c #535344",
"L  c #5B5D4C",
"P  c #525D47",
"I  c #454D53",
"U  c #4A4F55",
"Y  c #44535D",
"T  c #4A555C",
"R  c #4A5257",
"E  c #545B5F",
"W  c #5C5E5F",
"Q  c #624641",
"!  c #634A45",
"~  c #664E48",
"^  c #6B4E48",
"/  c #6A4E47",
"(  c #714F4A",
")  c #62534D",
"_  c #71534D",
"`  c #675A54",
"'  c #755952",
"]  c #765D56",
"[  c #56614B",
"{  c #5A624C",
"}  c #616351",
"|  c #666F58",
" . c #636C56",
".. c #7C6057",
"X. c #7E6258",
"o. c #69745C",
"O. c #6C7B5F",
"+. c #4C5A63",
"@. c #525E66",
"#. c #525F68",
"$. c #55626A",
"%. c #59656D",
"&. c #5B6770",
"*. c #62676B",
"=. c #62676A",
"-. c #7F6D65",
";. c #6F7E62",
":. c #706E71",
">. c #747273",
",. c #797678",
"<. c #8F5856",
"1. c #875F59",
"2. c #935C59",
"3. c #87665D",
"4. c #8F6760",
"5. c #8C6A61",
"6. c #957269",
"7. c #9B766B",
"8. c #9D796E",
"9. c #9F7F72",
"0. c #AE716C",
"q. c #B1746E",
"w. c #A17C72",
"e. c #6F8062",
"r. c #718063",
"t. c #9F857A",
"y. c #9F8A7B",
"u. c #95877B",
"i. c #A48074",
"p. c #A98377",
"a. c #AE877A",
"s. c #AE897C",
"d. c #A08D7D",
"f. c #B28A7E",
"g. c #9A8D84",
"h. c #AB8E84",
"j. c #BB8F83",
"k. c #B68D80",
"l. c #A59283",
"z. c #A89687",
"x. c #A7908B",
"c. c #BD9285",
"v. c #AC9E91",
"b. c #B09F92",
"n. c #B6A599",
"m. c #B7A89C",
"M. c #BAAA9D",
"N. c #B9ADA2",
"B. c #C19689",
"V. c #C99589",
"C. c #C3998B",
"Z. c #CB9E8F",
"A. c #C09486",
"S. c #C79E90",
"D. c #CB9F91",
"F. c #C7AC99",
"G. c #CAA397",
"H. c #D3A596",
"J. c #D1A897",
"K. c #D7A798",
"L. c #D6A899",
"P. c #DAAB9B",
"I. c #C4B19C",
"U. c #C4B3A1",
"Y. c #C9B7A4",
"T. c #CFBCAA",
"R. c #E4B4A4",
"E. c #E7B8A7",
"W. c #E8B8A7",
"Q. c #EABAA9",
"!. c #D3C1AE",
"~. c #D5C5B6",
"^. c #D8C8B7",
"/. c #DCCBBB",
"(. c #DFCFC0",
"). c #E1D1C2",
"_. c None",
/* pixels */
"_._._._._._._._._._._._._._._._._._._._._._._._._._._._._._._._._._._._._._._._._._._._._._._._._._._._._._._._._._._._._._._._.",
"_._._._._._._._._._._._._._._._._._._._._._._._._._._._._._._._._._._._._._._._._._._._._._._._._._._._._._._._._._._._._._._._.",
"_._._._._._._._._._._._._._._._._._._._._._._._._._._._._._._._._._._._._._._._._._._._._._._._._._._._._._._._._._._._._._._._.",
"_._._._._._._._._._._._._._._._._._._._._._._._._._._._._._._._._._._._._._._._._._._._._._._._._._._._._._._._._._._._._._._._.",
"_._._._._._._._._._._._._._._._._._._._._._._._._._._._._._._._._._._._._._._._._._._._._._._._._._._._._._._._._._._._._._._._.",
"_._._._._._._._._._._._._._._._._._._._._._._._._._._._._._._._._._._._._._._._._._._._._._._._._._._._._._._._._._._._._._._._.",
"_._._._._._._._._._._._._._._._._._._._._._._._._._._._._._._._._._._._._._._._._._._._._._._._._._._._._._._._._._._._._._._._.",
"_._._._._._._._._._._._._._._._._._._._._._._._._._._._._._._._._._._._._._._._._._._._._._._._._._._._._._._._._._._._._._._._.",
"_._._._._._._._._._._._._._._._._._._._._._._._._._._._._._._._._._._._._._._._._._._._._._._._._._._._._._._._._._._._._._._._.",
"_._._._._._._._._._._._._._._._._._._._._._._._._._._._._._._._._._._._._._._._._._._._._._._._._._._._._._._._._._._._._._._._.",
"_._._._._._._._._._._._._._._._._._._._._._._._._._._._.X X X X X X _._.X X _._._._._._._._._._._._._._._._._._._._._._._._._._.",
"_._._._._._._._._._._._._._._._._._._._._._._._._._._._.$ $ $ $ $ @ _._.@ $ _._._._._._._._._._._._._._._._._._._._._._._._._._.",
"_._._._._._._._._._._._._._._._._._._._.X X X . X X . @ 4 6 6 6 6 , + @ , , $ X _._._._._._._._._._._._._._._._._._._._._._._._.",
"_._._._._._._._._._._._._._._._._._._._.@ $ $ @ $ $ $ ; u k j j k y - ; u y $ X _._._._._._._._._._._._._._._._._._._._._._._._.",
"_._._._._._._._._._._._._._._._._._.X @ , y y 6 6 6 y s l F Q F Q l y y l s % . _._._._._._._._._._._._._._._._._._._._._._._._.",
"_._._._._._._._._._._._._._._._._._.X @ , y i s j l l n ! ! ! ! ! Q l k Q l 4 $ _._._._._._._._._._._._._._._._._._._._._._._._.",
"_._._._._._._._._._._._._._._._._._._._.@ - u l n F ! ! ! ! ! ! ! ! F ! ! F b u $ X _._._._._._._._._._._._._._._._._._._._._._.",
"_._._._._._._._._._._._._._._._._._._._.$ ; s n ! ! ! ! ! ! ! ! ! ! ! ! ! ! ~ j = X _._._._._._._._._._._._._._._._._._._._._._.",
"_._._._._._._._._._._._._._._._._._.X $ 5 s n ! ! ! ! ! ! ! ! ! ! ! ! ! ! ~ ~ f = X _._._._._._._._._._._._._._._._._._._._._._.",
"_._._._._._._._._._._._._._._._._._.X $ y n ! ! ! ! ! ! ! Q F n F F ! ! ! ! ! f % . _._._._._._._._._._._._._._._._._._._._._._.",
"_._._._._._._._._._._._._._._._._._.. $ u F F ! ! ! ! ! ! Q j s j j Q ! ! ! ~ f $   _._._._._._._._._._._._._._._._._._._._._._.",
"_._._._._._._._._._._._._._._._._._.@ ; u l F ! ! ! ! ! ! ! ^ Q j s n ! F F ! j - O _._._._._._._._._._._._._._._._._._._._._._.",
"_._._._._._._._._._._._._._._._.X $ , y s j k n ! ! ! ! Q ' 9.6.Q i n Q j j F F s 4 O   _._._._._._._._._._._._._._._._._._._._.",
"_._._._._._._._._._._._._._._._.X $ , y i s j F F ! ! / ' 6.V.A.3./ ! ! / / ! F s 4 O   _._._._._._._._._._._._._._._._._._._._.",
"_._._._._._._._._._._._._._._._._._.$ - y j l ! ! ! F ' w.A.K.H.A.7._ _ w.w.' f = O _._._._._._._._._._._._._._._._._._._._._._.",
"_._._._._._._._._._._._._._._._._._.. @ 6 k Q ! ! ! ' 6.A.D.p.f.D.V.6.5.8.9.5.! < o _._._._._._._._._._._._._._._._._._._._._._.",
"_._._._._._._._._._._._._._._._._._.. $ 7 l Q ! Q ' w.B.H.p.F ! j.P.Z.6.b F 8.7.Q 4 o   _._._._._._._._._._._._._._._._._._._._.",
"_._._._._._._._._._._._._._._._._._.@ ; i l ! ! ( 4.A.K.K.9.5 7 h.W.R.w.5 7 w.k./ 4 o   _._._._._._._._._._._._._._._._._._._._.",
"_._._._._._._._._._._._._._._._.X $ , u j l F ( 2.q.V.K.K.w.u a k.Q.Q.f.a u p.p.a o _._._._._._._._._._._._._._._._._._._._._._.",
"_._._._._._._._._._._._._._._._.X @ 4 y f n F ^ <.0.V.K.K.k._ ' c.Q.Q.c.' ' c.w.4   _._._._._._._._._._._._._._._._._._._._._._.",
"_._._._._._._._._._._._._._._._._._.@ ; i l l F Q 1.j.K.H.Z.A.B.P.E.E.P.C.B.H.w.4   _._._._._._._._._._._._._._._._._._._._._._.",
"_._._._._._._._._._._._._._._._._._.. $ 5 s j j j ^ 7.A.D.P.R.Q.E.E.R.E.W.P.f.] >   _._._._._._._._._._._._._._._._._._._._._._.",
"_._._._._._._._._._._._._._._._._._._._.$ ; i l k n ^ 3.A.P.R.R.E.R.E.R.R.f.n > _._._._._._._._._._._._._._._._._._._._._._._._.",
"_._._._._._._._._._._._._._._._._._._._.. $ 5 a j b j ! 5.f.H.R.P.R.R.H.f.] >   _._._._._._._._._._._._._._._._._._._._._._._._.",
"_._._._._._._._._._._._._._._._._._._._._._.$ > i l b s 7 ! f.P.P.P.P.a.! 4 _._._._._._._._._._._._._._._._._._._._._._._._._._.",
"_._._._._._._._._._._._._._._._._._._._._._.. $ 7 b n f = 0 t.J.J.J.G.t.0 X _._._._._._._._._._._._._._._._._._._._._._._._._._.",
"_._._._._._._._._._._._._._._._._._._._._._.. + < z } L 8 b t.F.F.F.F.d.b = O X _._._._._._._._._._._._._._._._._._._._._._._._.",
"_._._._._._._._._._._._._._._._._._._._._._.: : 4 d { L a J l.Y.Y.I.I.d.H > + X _._._._._._._._._._._._._._._._._._._._._._._._.",
"_._._._._._._._._._._._._._._._._._._._.X : m K a e b x 7 J v.^.~.!.U.d.H > + X _._._._._._._._._._._._._._._._._._._._._._._._.",
"_._._._._._._._._._._._._._._._._._._._.. : [ | x 0 h g u ) N.).(.^.T.l.! > + X _._._._._._._._._._._._._._._._._._._._._._._._.",
"_._._._._._._._._._._._._._._._._._._._.. : { o.G f h g g ` N.).(./.^.b.~ > O X _._._._._._._._._._._._._._._._._._._._._._._._.",
"_._._._._._._._._._._._._._._._._._._._.. : [ o.L G Z h h ` g.U.~.(.).n.) > O o _._._._._._._._._._._._._._._._._._._._._._._._.",
"_._._._._._._._._._._._._._._._._._._._.. : [ ;.o.} G x h Z H -.U.).).n.) ; O X _._._._._._._._._._._._._._._._._._._._._._._._.",
"_._._._._._._._._._._._._._._._._._._._.. : [ e.;. .Z d h g 8 ! v./.).n.) ; + X _._._._._._._._._._._._._._._._._._._._._._._._.",
"_._._._._._._._._._._._._._._._._._._._.. : [ O.O.{ d 0 d t e ) z.T./.m.) ; O o _._._._._._._._._._._._._._._._._._._._._._._._.",
"_._._._._._._._._._._._._._._._._._._._.. 2 [ r.O.[ 0 0 ) ....X.g.v.N.g.J ; + X _._._._._._._._._._._._._._._._._._._._._._._._.",
"_._._._._._._._._._._._._._._._._._._._.. : [ r.e.[ 0 k w.S.G.h.>.=.*.W g ; @ . _._._._._._._._._._._._._._._._._._._._._._._._.",
"_._._._._._._._._._._._._._._._._._._._.. : m [ P D e J t.G.G.x.=.Y Y I C 8 $ . _._._._._._._._._._._._._._._._._._._._._._._._.",
"_._._._._._._._._._._._._._._._._._._._._._.: : : 1 t I %.:.,.>.%.+.@.@.E C & . _._._._._._._._._._._._._._._._._._._._._._._._.",
"_._._._._._._._._._._._._._._._._._._._._._.. . . & M Y Y Y @.$.@.$.$.%.%.R w * _._._._._._._._._._._._._._._._._._._._._._._._.",
"_._._._._._._._._._._._._._._._._._._._._._._._.. & M Y +.$.$.$.+.+.$.%.%.@.T N * X _._._._._._._._._._._._._._._._._._._._._._.",
"_._._._._._._._._._._._._._._._._._._._._._._._.. * B +.$.%.$.T V V T $.$.%.%.I * . _._._._._._._._._._._._._._._._._._._._._._.",
"_._._._._._._._._._._._._._._._._._._._._._._._.. * A $.%.$.+.V 2 2 V +.$.%.&.I 2 . _._._._._._._._._._._._._._._._._._._._._._.",
"_._._._._._._._._._._._._._._._._._._._._._._._.% 1 U E R S B w $ # r V T $.$.I * . _._._._._._._._._._._._._._._._._._._._._._.",
"_._._._._._._._._._._._._._._._._._._._._._.. % 9 z K v 1 * * & _._.& 2 V +.+.V * . _._._._._._._._._._._._._._._._._._._._._._.",
"_._._._._._._._._._._._._._._._._._._._._._.X % q z p 5 % . . . _._.. & r A V r # X _._._._._._._._._._._._._._._._._._._._._._.",
"_._._._._._._._._._._._._._._._._._._._._._.X o % % % % _._._._._._.X + < e e < + . _._._._._._._._._._._._._._._._._._._._._._.",
"_._._._._._._._._._._._._._._._._._._._._._.o X X X X X _._._._._._.X + ; 6 6 5 : % _._._._._._._._._._._._._._._._._._._._._._.",
"_._._._._._._._._._._._._._._._._._._._._._._._._._._._._._._._._._.X @ ; 0 f z z q % X _._._._._._._._._._._._._._._._._._._._.",
"_._._._._._._._._._._._._._._._._._._._._._._._._._._._._._._._._._.X O - 5 p z z 0 % X _._._._._._._._._._._._._._._._._._._._.",
"_._._._._._._._._._._._._._._._._._._._._._._._._._._._._._._._._._._.O @ = - > > : + _._._._._._._._._._._._._._._._._._._._._.",
"_._._._._._._._._._._._._._._._._._._._._._._._._._._._._._._._._._._._._._._._._._._._._._._._._._._._._._._._._._._._._._._._.",
"_._._._._._._._._._._._._._._._._._._._._._._._._._._._._._._._._._._._._._._._._._._._._._._._._._._._._._._._._._._._._._._._.",
"_._._._._._._._._._._._._._._._._._._._._._._._._._._._._._._._._._._._._._._._._._._._._._._._._._._._._._._._._._._._._._._._."
};
