/* XPM */
static char *result[] = {
/* columns rows colors chars-per-pixel */
"64 64 176 2 ",
"   c #040302",
".  c #090704",
"X  c #0A0906",
"o  c #0E0B0A",
"O  c #130E0C",
"+  c #15100D",
"@  c #19130F",
"#  c #161514",
"$  c #1B1411",
"%  c #171817",
"&  c #1D1913",
"*  c #171818",
"=  c #1C1D1D",
"-  c #211916",
";  c #261C18",
":  c #2A1E1B",
">  c #23241C",
",  c #2B221D",
"<  c #32231F",
"1  c #2D2626",
"2  c #292823",
"3  c #232729",
"4  c #322522",
"5  c #362924",
"6  c #3C2A25",
"7  c #302928",
"8  c #3C2D2A",
"9  c #383126",
"0  c #373129",
"q  c #3D322B",
"w  c #293034",
"e  c #3A3131",
"r  c #32373A",
"t  c #3B393C",
"y  c #422E2A",
"u  c #44312D",
"i  c #4A332E",
"p  c #453D2F",
"a  c #453632",
"s  c #4B3531",
"d  c #453A35",
"f  c #4C3A35",
"g  c #473A39",
"h  c #4B3E3A",
"j  c #523A35",
"k  c #553E39",
"l  c #583F3A",
"z  c #4A4236",
"x  c #444038",
"c  c #4C443D",
"v  c #444E3B",
"b  c #54423B",
"n  c #5B423D",
"m  c #48513E",
"M  c #333E44",
"N  c #384147",
"B  c #3B454C",
"V  c #3F484F",
"C  c #3F4E56",
"Z  c #3F4E58",
"A  c #40474E",
"S  c #41494E",
"D  c #5E4641",
"F  c #544A44",
"G  c #5B4B44",
"H  c #5E4F49",
"J  c #5A564B",
"K  c #555847",
"L  c #434D53",
"P  c #404E58",
"I  c #45535C",
"U  c #49565E",
"Y  c #4B5056",
"T  c #50575A",
"R  c #5A5C5E",
"E  c #624641",
"W  c #634A45",
"Q  c #674D48",
"!  c #6B4E48",
"~  c #6A4E47",
"^  c #714F4A",
"/  c #62524C",
"(  c #6A524C",
")  c #71534D",
"_  c #6A5C53",
"`  c #665B58",
"'  c #755952",
"]  c #785B54",
"[  c #56624C",
"{  c #5B614E",
"}  c #616250",
"|  c #646C55",
" . c #6D6C58",
".. c #7C6057",
"X. c #7E6258",
"o. c #6F765E",
"O. c #495760",
"+. c #4D5A63",
"@. c #525F67",
"#. c #515F68",
"$. c #5D5E60",
"%. c #5A6163",
"&. c #55616A",
"*. c #59656E",
"=. c #62696B",
"-. c #626367",
";. c #676E71",
":. c #8F5856",
">. c #875F59",
",. c #935C59",
"<. c #87665D",
"1. c #8F6760",
"2. c #8C6A61",
"3. c #957269",
"4. c #9B766B",
"5. c #9D796E",
"6. c #9F7F72",
"7. c #AE716C",
"8. c #B1746E",
"9. c #A27D72",
"0. c #86886F",
"q. c #9E8778",
"w. c #9F8A7B",
"e. c #9D8474",
"r. c #A48074",
"t. c #A98377",
"y. c #AE877A",
"u. c #AE897C",
"i. c #A1897E",
"p. c #B28A7E",
"a. c #998F87",
"s. c #BB8F83",
"d. c #B68D80",
"f. c #A59283",
"g. c #AE9482",
"h. c #BD9285",
"j. c #BB9689",
"k. c #A79C90",
"l. c #AB9D91",
"z. c #B09F92",
"x. c #B2A295",
"c. c #B6A69A",
"v. c #B8A99C",
"b. c #B4ABA0",
"n. c #C19689",
"m. c #C99589",
"M. c #C3998C",
"N. c #CB9E8F",
"B. c #C09486",
"V. c #C59E92",
"C. c #CE9F91",
"Z. c #C7AC99",
"A. c #CDA092",
"S. c #D3A596",
"D. c #D1A897",
"F. c #D7A798",
"G. c #D6A899",
"H. c #DAAB9B",
"J. c #C4B19C",
"K. c #C7B4A1",
"L. c #C9B7A4",
"P. c #CFBCA9",
"I. c #D1BEAB",
"U. c #E4B4A4",
"Y. c #E7B8A7",
"T. c #E8B8A7",
"R. c #EABAA9",
"E. c #D1C0AE",
"W. c #D6C5B4",
"Q. c #D8C6B5",
"!. c #DBCBBB",
"~. c #E0CFBF",
"^. c #DECFC0",
"/. c #DFD0C0",
"(. c #E0D0C1",
"). c None",
/* pixels */
").).).).).).).).).).).).).).).).).).).).).).).).).).).).).).).).).).).).).).).).).).).).).).).).).).).).).).).).).).).).).).).).",
").).).).).).).).).).).).).).).).).).).).).).).).).).).).).).).).).).).).).).).).).).).).).).).).).).).).).).).).).).).).).).).).",
").).).).).).).).).).).).).).).).).).).).).).).).).).).).).).).).).).).).).).).).).).).).).).).).).).).).).).).).).).).).).).).).",
").).).).).).).).).).).).).).).).).).).).).).).).).).).).).).).).).).).).).).).).).).).).).).).).).).).).).).).).).).).).).).).).",
").).).).).).).).).).).).).).).).).).).).).).).).).).).).).).).).).).).).).).).).).).).).).).).).).).).).).).).).).).).).).).).).",
").).).).).).).).).).).).).).).).).).).).).).).).).).).).).).).).).).).).).).).).).).).).).).).).).).).).).).).).).).).).).).).).",
").).).).).).).).).).).).).).).).).).).).).).).).).).).).).).).).).).).).).).).).).).).).).).).).).).).).).).).).).).).).).).).).",
").).).).).).).).).).).).).).).).).).).).).).).).).).).).).).).).).).).).).).).).).).).).).).).).).).).).).).).).).).).).).).).).",
").).).).).).).).).).).).).).).).).).).).).).).).).).).).X X X . X X ).).X X ).).).).).).).).).).).).).).).).).).).).).).).).).).",
").).).).).).).).).).).).).).).).).).).).).).).).).).).).$ $ $ $ $ @ ).).@ @ ).).).).).).).).).).).).).).).).).).).).).).).).).).",
").).).).).).).).).).).).).).).).).).).).X X X X X X X $ < 6 6 6 6 < @ @ 4 4 $ X ).).).).).).).).).).).).).).).).).).).).).).).).",
").).).).).).).).).).).).).).).).).).).).$ $ $ $ $ $ $ : y j j k j u ; ; y y & . ).).).).).).).).).).).).).).).).).).).).).).).).",
").).).).).).).).).).).).).).).).).).X $ < 6 6 6 6 6 y s l D D D E k y u l s & . ).).).).).).).).).).).).).).).).).).).).).).).).",
").).).).).).).).).).).).).).).).).).X $ < y i j j j n n E Q Q W W D l l E k 4 & ).).).).).).).).).).).).).).).).).).).).).).).).",
").).).).).).).).).).).).).).).).).).).).@ : u k D E E E W W W W W W D E E G b u - X ).).).).).).).).).).).).).).).).).).).).).).",
").).).).).).).).).).).).).).).).).).).).@ : s n W W W W W W W W W W W W W W ~ f - . ).).).).).).).).).).).).).).).).).).).).).).",
").).).).).).).).).).).).).).).).).).X $ 5 s n W W W W W W Q W W W W W W W W Q f & . ).).).).).).).).).).).).).).).).).).).).).).",
").).).).).).).).).).).).).).).).).).X $ u n W W W W W W W D D D D D W W W W Q f & . ).).).).).).).).).).).).).).).).).).).).).).",
").).).).).).).).).).).).).).).).).).. $ y n E W W W E Q W D j s j k D W Q W Q s $   ).).).).).).).).).).).).).).).).).).).).).).",
").).).).).).).).).).).).).).).).).).@ : a k D W E W W W W Q Q E j s D E D E W h ; O ).).).).).).).).).).).).).).).).).).).).).).",
").).).).).).).).).).).).).).).).. $ < y i j k n W W W G E ' 9.4.E s l E k j D D s 4 O   ).).).).).).).).).).).).).).).).).).).).",
").).).).).).).).).).).).).).).).. @ < y i s k n E W W Q ' 3.n.h.>.~ E ~ ! ! Q l s 4 O   ).).).).).).).).).).).).).).).).).).).).",
").).).).).).).).).).).).).).).).).).$ ; y j n E W E D ' 9.n.S.S.h.4.) ' 6.9.] s ; O ).).).).).).).).).).).).).).).).).).).).).).",
").).).).).).).).).).).).).).).).).).. @ 6 j E W W W ' 3.n.N.y.u.C.n.3.<.4.6.2.W , o ).).).).).).).).).).).).).).).).).).).).).).",
").).).).).).).).).).).).).).).).).).. $ y l E W D ' 9.n.C.y.D W h.H.V.4.n F 4.4.E 1 O   ).).).).).).).).).).).).).).).).).).).).",
").).).).).).).).).).).).).).).).).).$ : a n E Q ^ 1.h.H.H.5.5 8 g.R.U.9.5 6 r.d.~ 4 O   ).).).).).).).).).).).).).).).).).).).).",
").).).).).).).).).).).).).).).).X $ < u f l D ^ ,.8.m.F.F.9.y a d.R.R.y.s u t.t.a o ).).).).).).).).).).).).).).).).).).).).).).",
").).).).).).).).).).).).).).).).X @ < y j l D ^ :.7.m.F.F.d.) ' j.Y.R.n.' ' s.9.4   ).).).).).).).).).).).).).).).).).).).).).).",
").).).).).).).).).).).).).).).).).).@ : a l n l E >.s.F.F.N.j.n.H.Y.Y.H.M.n.S.9.4   ).).).).).).).).).).).).).).).).).).).).).).",
").).).).).).).).).).).).).).).).).).. $ 5 s j k j ! 5.h.C.H.U.Y.Y.U.U.U.T.G.d...,   ).).).).).).).).).).).).).).).).).).).).).).",
").).).).).).).).).).).).).).).).).).).).$ : u k k n Q 1.B.H.U.Y.U.U.U.U.U.p.F : ).).).).).).).).).).).).).).).).).).).).).).).).",
").).).).).).).).).).).).).).).).).).).).. $ 5 s j k j E 1.d.S.U.U.I.U.S.p...:   ).).).).).).).).).).).).).).).).).).).).).).).).",
").).).).).).).).).).).).).).).).).).).).).).$ , s k j s q E p.H.F.F.H.p.E 4 ).).).).).).).).).).).).).).).).).).).).).).).).).).",
").).).).).).).).).).).).).).).).).).).).).).. + 6 b G z - q 9.D.S.S.G.9.q X ).).).).).).).).).).).).).).).).).).).).).).).).).).",
").).).).).).).).).).).).).).).).).).).).).).. O 4 z } J 0 z i.Z.Z.Z.Z.i.b - + X ).).).).).).).).).).).).).).).).).).).).).).).).",
").).).).).).).).).).).).).).).).).).).).).).> 2 5 d { { g Q f.L.L.J.J.i.G , + X ).).).).).).).).).).).).).).).).).).).).).).).).",
").).).).).).).).).).).).).).).).).).).).. > m K q q F F h ` c.W.Q.I.K.i.G , + X ).).).).).).).).).).).).).).).).).).).).).).).).",
").).).).).).).).).).).).).).).).).).).).X > [ | c q d g h ` v.(.^.!.P.f.G , + X ).).).).).).).).).).).).).).).).).).).).).).).).",
").).).).).).).).).).).).).).).).).).).).X > [ | g 8 d g q / c.^.!.!.!.z./ : + X ).).).).).).).).).).).).).).).).).).).).).).).).",
").).).).).).).).).).).).).).).).).).).).X > [ | x 8 g d 8 H l.!.!./.(.c./ : + X ).).).).).).).).).).).).).).).).).).).).).).).).",
").).).).).).).).).).).).).).).).).).).).. > [ | x q g g 6 G f.P.!.^.^.c./ : + . ).).).).).).).).).).).).).).).).).).).).).).).).",
").).).).).).).).).).).).).).).).).).).).. > [ | g 8 g g 8 G f.P.W.!.~.c./ , + o ).).).).).).).).).).).).).).).).).).).).).).).).",
").).).).).).).).).).).).).).).).).).).).X > [ | d 6 a g 6 H x.W.P.P.!.v./ : O X ).).).).).).).).).).).).).).).).).).).).).).).).",
").).).).).).).).).).).).).).).).).).).).. > [ o._ ( _ Q a F a.b.k.k.b.a.G : @ X ).).).).).).).).).).).).).).).).).).).).).).).).",
").).).).).).).).).).).).).).).).).).).).. > [ 0.f.M.V.9.n d R =.=.=.;.$.g : + X ).).).).).).).).).).).).).).).).).).).).).).).).",
").).).).).).).).).).).).).).).).).).).).. > v  .e.j.V.i.H t V C P P C V t 7 # X ).).).).).).).).).).).).).).).).).).).).).).).).",
").).).).).).).).).).).).).).).).).).).).).).> > 0 F ` -.L C L C P Z C C L r * X ).).).).).).).).).).).).).).).).).).).).).).).).",
").).).).).).).).).).).).).).).).).).).).).).. .   * M P P I I U U U U U O.N = . ).).).).).).).).).).).).).).).).).).).).).).).).",
").).).).).).).).).).).).).).).).).).).).).).).).. * N Z P U +.&.@.@.@.&.&.S = . ).).).).).).).).).).).).).).).).).).).).).).).).",
").).).).).).).).).).).).).).).).).).).).).).).).. * M I I U &.&.&.&.&.*.*.S = . ).).).).).).).).).).).).).).).).).).).).).).).).",
").).).).).).).).).).).).).).).).).).).).).).).).X = N I @.&.&.&.U @.&.*.*.L 3 . ).).).).).).).).).).).).).).).).).).).).).).).).",
").).).).).).).).).).).).).).).).).).).).).).).).. * N O.&.&.&.U B B U &.*.L = X ).).).).).).).).).).).).).).).).).).).).).).).).",
").).).).).).).).).).).).).).).).).).).).).).).).. = S &.*.&.+.B 3 3 B +.&.L = . ).).).).).).).).).).).).).).).).).).).).).).).).",
").).).).).).).).).).).).).).).).).).).).).).).).X = L *.*.&.U M # % M O.#.L = X ).).).).).).).).).).).).).).).).).).).).).).).).",
").).).).).).).).).).).).).).).).).).).).).).).).. = L *.*.&.U N % % M U O.N = X ).).).).).).).).).).).).).).).).).).).).).).).).",
").).).).).).).).).).).).).).).).).).).).).).).).. > S %.%.U B w # % r S V r # . ).).).).).).).).).).).).).).).).).).).).).).).).",
").).).).).).).).).).).).).).).).).).).).).).).).. & x J J c 3 # o # 1 q e 1 + X ).).).).).).).).).).).).).).).).).).).).).).).).",
").).).).).).).).).).).).).).).).).).).).).).).).X & 9 p p 9 $ . . + : 6 8 5 > & ).).).).).).).).).).).).).).).).).).).).).).).).",
").).).).).).).).).).).).).).).).).).).).).).).).).).& & & & ).).X + : 8 z z d 9 & X ).).).).).).).).).).).).).).).).).).).).).).",
").).).).).).).).).).).).).).).).).).).).).).).).).).X X X X ).).X + ; 5 z z z q & X ).).).).).).).).).).).).).).).).).).).).).).",
").).).).).).).).).).).).).).).).).).).).).).).).).).X X X X ).).).O @ - > , , > + ).).).).).).).).).).).).).).).).).).).).).).).",
").).).).).).).).).).).).).).).).).).).).).).).).).).).).).).).).).).).).).).).).).).).).).).).).).).).).).).).).).).).).).).).).",
").).).).).).).).).).).).).).).).).).).).).).).).).).).).).).).).).).).).).).).).).).).).).).).).).).).).).).).).).).).).).).).).",
").).).).).).).).).).).).).).).).).).).).).).).).).).).).).).).).).).).).).).).).).).).).).).).).).).).).).).).).).).).).).).).)."
};
