/* XPM */
static char *result[] = {
/* columns rows colors chars-per-pixel */
"64 64 181 2 ",
"   c #040402",
".  c #090704",
"X  c #0A0906",
"o  c #0F0C0A",
"O  c #120D0C",
"+  c #16110D",
"@  c #19130F",
"#  c #161413",
"$  c #1B1411",
"%  c #1D1913",
"&  c #171919",
"*  c #1B1B1A",
"=  c #171816",
"-  c #211A16",
";  c #251D1A",
":  c #291E1B",
">  c #1E201F",
",  c #262019",
"<  c #2B211D",
"1  c #32231F",
"2  c #1F2020",
"3  c #2F2220",
"4  c #25292A",
"5  c #2A2D2F",
"6  c #272825",
"7  c #322522",
"8  c #352925",
"9  c #3B2A26",
"0  c #342C2B",
"q  c #3B2D2A",
"w  c #382723",
"e  c #3D322C",
"r  c #373127",
"t  c #2B2F30",
"y  c #2B3134",
"u  c #2C3539",
"i  c #3D3432",
"p  c #363B3E",
"a  c #3E3B3A",
"s  c #422E2A",
"d  c #44322D",
"f  c #4A332E",
"g  c #443532",
"h  c #4B3531",
"j  c #453B34",
"k  c #4B3A34",
"l  c #443C3B",
"z  c #4A3D3A",
"x  c #523A35",
"c  c #553E39",
"v  c #583F3A",
"b  c #4B4336",
"n  c #4A423A",
"m  c #484F3F",
"M  c #54433C",
"N  c #5B423D",
"B  c #353E44",
"V  c #383E41",
"C  c #354046",
"Z  c #3C4145",
"A  c #3D464D",
"S  c #3D484F",
"D  c #4F4940",
"F  c #40474E",
"G  c #5E4641",
"H  c #524C44",
"J  c #5C4A44",
"K  c #5F4F48",
"L  c #564A45",
"P  c #545045",
"I  c #5F5049",
"U  c #5B5B4C",
"Y  c #575249",
"T  c #434C52",
"R  c #45545D",
"E  c #4B545B",
"W  c #485157",
"Q  c #52575C",
"!  c #5C5E5F",
"~  c #624641",
"^  c #634A45",
"/  c #674D48",
"(  c #6B4E48",
")  c #6A4E47",
"_  c #714F4A",
"`  c #61524C",
"'  c #71534D",
"]  c #695B55",
"[  c #685953",
"{  c #755952",
"}  c #755F59",
"|  c #785B54",
" . c #5B624D",
".. c #5E6650",
"X. c #61614F",
"o. c #636C56",
"O. c #6E615B",
"+. c #656753",
"@. c #796258",
"#. c #6A725B",
"$. c #667059",
"%. c #485761",
"&. c #4D5A63",
"*. c #525E66",
"=. c #525F68",
"-. c #5D5F61",
";. c #55626A",
":. c #58656D",
">. c #62686A",
",. c #6E7262",
"<. c #747B67",
"1. c #666D70",
"2. c #8F5856",
"3. c #875F59",
"4. c #935C59",
"5. c #85675D",
"6. c #88655C",
"7. c #8F6760",
"8. c #8C6B62",
"9. c #957369",
"0. c #9B766B",
"q. c #9C796E",
"w. c #9F7F72",
"e. c #AE716C",
"r. c #B1746E",
"t. c #A27C71",
"y. c #7F8168",
"u. c #9E8778",
"i. c #9F8B7B",
"p. c #9A8172",
"a. c #A48074",
"s. c #A98377",
"d. c #AC867A",
"f. c #AE897C",
"g. c #A08D7D",
"h. c #B28B7E",
"j. c #998E87",
"k. c #9C938B",
"l. c #BB8F83",
"z. c #B68D80",
"x. c #A59384",
"c. c #AC9686",
"v. c #AA9889",
"b. c #BD9285",
"n. c #A79C90",
"m. c #AF9E91",
"M. c #B2A295",
"N. c #B6A699",
"B. c #B9A99E",
"V. c #B3AAA0",
"C. c #C19789",
"Z. c #C99589",
"A. c #C3998B",
"S. c #CB9E8F",
"D. c #C09486",
"F. c #CA9E91",
"G. c #C7AC99",
"H. c #CDA092",
"J. c #D3A596",
"K. c #D7A798",
"L. c #D6A899",
"P. c #DAAB9B",
"I. c #D1A897",
"U. c #C4B19C",
"Y. c #C7B4A1",
"T. c #C9B7A4",
"R. c #CEBCA9",
"E. c #D1BEAB",
"W. c #E4B4A4",
"Q. c #E7B8A7",
"!. c #E8B8A7",
"~. c #EABAA9",
"^. c #D1C0AE",
"/. c #D6C4B3",
"(. c #D8C7B7",
"). c #DCCBBB",
"_. c #E0CFBF",
"`. c #DECFC0",
"'. c #DFD0C0",
"]. c #E0D0C1",
"[. c None",
/* pixels */
"[.[.[.[.[.[.[.[.[.[.[.[.[.[.[.[.[.[.[.[.[.[.[.[.[.[.[.[.[.[.[.[.[.[.[.[.[.[.[.[.[.[.[.[.[.[.[.[.[.[.[.[.[.[.[.[.[.[.[.[.[.[.[.[.",
"[.[.[.[.[.[.[.[.[.[.[.[.[.[.[.[.[.[.[.[.[.[.[.[.[.[.[.[.[.[.[.[.[.[.[.[.[.[.[.[.[.[.[.[.[.[.[.[.[.[.[.[.[.[.[.[.[.[.[.[.[.[.[.[.",
"[.[.[.[.[.[.[.[.[.[.[.[.[.[.[.[.[.[.[.[.[.[.[.[.[.[.[.[.[.[.[.[.[.[.[.[.[.[.[.[.[.[.[.[.[.[.[.[.[.[.[.[.[.[.[.[.[.[.[.[.[.[.[.[.",
"[.[.[.[.[.[.[.[.[.[.[.[.[.[.[.[.[.[.[.[.[.[.[.[.[.[.[.[.[.[.[.[.[.[.[.[.[.[.[.[.[.[.[.[.[.[.[.[.[.[.[.[.[.[.[.[.[.[.[.[.[.[.[.[.",
"[.[.[.[.[.[.[.[.[.[.[.[.[.[.[.[.[.[.[.[.[.[.[.[.[.[.[.[.[.[.[.[.[.[.[.[.[.[.[.[.[.[.[.[.[.[.[.[.[.[.[.[.[.[.[.[.[.[.[.[.[.[.[.[.",
"[.[.[.[.[.[.[.[.[.[.[.[.[.[.[.[.[.[.[.[.[.[.[.[.[.[.[.[.[.[.[.[.[.[.[.[.[.[.[.[.[.[.[.[.[.[.[.[.[.[.[.[.[.[.[.[.[.[.[.[.[.[.[.[.",
"[.[.[.[.[.[.[.[.[.[.[.[.[.[.[.[.[.[.[.[.[.[.[.[.[.[.[.[.[.[.[.[.[.[.[.[.[.[.[.[.[.[.[.[.[.[.[.[.[.[.[.[.[.[.[.[.[.[.[.[.[.[.[.[.",
"[.[.[.[.[.[.[.[.[.[.[.[.[.[.[.[.[.[.[.[.[.[.[.[.[.[.[.[.[.[.[.[.[.[.[.[.[.[.[.[.[.[.[.[.[.[.[.[.[.[.[.[.[.[.[.[.[.[.[.[.[.[.[.[.",
"[.[.[.[.[.[.[.[.[.[.[.[.[.[.[.[.[.[.[.[.[.[.[.[.[.[.[.[.[.[.[.[.[.[.[.[.[.[.[.[.[.[.[.[.[.[.[.[.[.[.[.[.[.[.[.[.[.[.[.[.[.[.[.[.",
"[.[.[.[.[.[.[.[.[.[.[.[.[.[.[.[.[.[.[.[.[.[.[.[.[.[.[.[.[.[.[.[.[.[.[.[.[.[.[.[.[.[.[.[.[.[.[.[.[.[.[.[.[.[.[.[.[.[.[.[.[.[.[.[.",
"[.[.[.[.[.[.[.[.[.[.[.[.[.[.[.[.[.[.[.[.[.[.[.[.[.[.[.[.X X . . X X [.[.X X [.[.[.[.[.[.[.[.[.[.[.[.[.[.[.[.[.[.[.[.[.[.[.[.[.[.",
"[.[.[.[.[.[.[.[.[.[.[.[.[.[.[.[.[.[.[.[.[.[.[.[.[.[.[.[.$ $ @ @ - @ [.[.@ $ [.[.[.[.[.[.[.[.[.[.[.[.[.[.[.[.[.[.[.[.[.[.[.[.[.[.",
"[.[.[.[.[.[.[.[.[.[.[.[.[.[.[.[.[.[.[.[.X X X X X X . @ 7 9 9 s 9 1 + + 1 1 $ X [.[.[.[.[.[.[.[.[.[.[.[.[.[.[.[.[.[.[.[.[.[.[.[.",
"[.[.[.[.[.[.[.[.[.[.[.[.[.[.[.[.[.[.[.[.$ $ $ @ $ $ $ : d c x x x s : : d s $ X [.[.[.[.[.[.[.[.[.[.[.[.[.[.[.[.[.[.[.[.[.[.[.[.",
"[.[.[.[.[.[.[.[.[.[.[.[.[.[.[.[.[.[.X @ 1 s s 9 9 9 s h v G G G ~ c s s v h - . [.[.[.[.[.[.[.[.[.[.[.[.[.[.[.[.[.[.[.[.[.[.[.[.",
"[.[.[.[.[.[.[.[.[.[.[.[.[.[.[.[.[.[.X @ 1 s f h x v v N ^ ^ ^ ^ ^ ~ v v ~ c 1 $ [.[.[.[.[.[.[.[.[.[.[.[.[.[.[.[.[.[.[.[.[.[.[.[.",
"[.[.[.[.[.[.[.[.[.[.[.[.[.[.[.[.[.[.[.[.@ ; d v G G G ^ ^ ^ ^ ^ ^ ^ G ^ ^ G c g % X [.[.[.[.[.[.[.[.[.[.[.[.[.[.[.[.[.[.[.[.[.[.",
"[.[.[.[.[.[.[.[.[.[.[.[.[.[.[.[.[.[.[.[.$ : h N ^ ^ ^ ^ ^ ^ ^ ^ ^ ^ ^ ^ ^ ^ / k - X [.[.[.[.[.[.[.[.[.[.[.[.[.[.[.[.[.[.[.[.[.[.",
"[.[.[.[.[.[.[.[.[.[.[.[.[.[.[.[.[.[.X $ 8 h N ~ ^ ^ ^ ^ ^ ^ ^ ^ ^ ^ ^ ^ ^ ^ ^ x - . [.[.[.[.[.[.[.[.[.[.[.[.[.[.[.[.[.[.[.[.[.[.",
"[.[.[.[.[.[.[.[.[.[.[.[.[.[.[.[.[.[.X $ s G ^ ^ ^ ^ ^ ^ ^ ^ G G G ~ ^ ^ ^ ^ / k %   [.[.[.[.[.[.[.[.[.[.[.[.[.[.[.[.[.[.[.[.[.[.",
"[.[.[.[.[.[.[.[.[.[.[.[.[.[.[.[.[.[.. $ s N ~ ^ ^ ^ ^ ^ ^ ~ x h x c ~ ^ ^ ^ ^ h $   [.[.[.[.[.[.[.[.[.[.[.[.[.[.[.[.[.[.[.[.[.[.",
"[.[.[.[.[.[.[.[.[.[.[.[.[.[.[.[.[.[.@ : g v G ~ ^ ^ ^ ^ ~ ^ ( ~ x h G ~ G G ^ c : O [.[.[.[.[.[.[.[.[.[.[.[.[.[.[.[.[.[.[.[.[.[.",
"[.[.[.[.[.[.[.[.[.[.[.[.[.[.[.[.X $ 1 s h x c G ~ ^ ^ ^ ~ { t.9.~ h G G c x G G h 7 O   [.[.[.[.[.[.[.[.[.[.[.[.[.[.[.[.[.[.[.[.",
"[.[.[.[.[.[.[.[.[.[.[.[.[.[.[.[.X $ 1 s f h c N ~ ^ ^ / { 9.Z.D.6.^ ~ ^ ( / ^ G h 7 o   [.[.[.[.[.[.[.[.[.[.[.[.[.[.[.[.[.[.[.[.",
"[.[.[.[.[.[.[.[.[.[.[.[.[.[.[.[.[.[.$ : s h v ^ ^ ~ ~ { t.D.K.J.D.0.' { t.t.| h ; O [.[.[.[.[.[.[.[.[.[.[.[.[.[.[.[.[.[.[.[.[.[.",
"[.[.[.[.[.[.[.[.[.[.[.[.[.[.[.[.[.[.. @ 9 c ~ ^ ^ / { 9.D.S.d.f.F.Z.9.5.q.w.8.^ : o [.[.[.[.[.[.[.[.[.[.[.[.[.[.[.[.[.[.[.[.[.[.",
"[.[.[.[.[.[.[.[.[.[.[.[.[.[.[.[.[.[.. $ s v ~ ^ ~ { t.C.J.d.G J b.P.F.9.M L 0.w.~ 7 o   [.[.[.[.[.[.[.[.[.[.[.[.[.[.[.[.[.[.[.[.",
"[.[.[.[.[.[.[.[.[.[.[.[.[.[.[.[.[.[.@ : g N ~ ^ _ 7.D.K.K.t.8 q f.~.W.t.9 9 t.z./ 7 o   [.[.[.[.[.[.[.[.[.[.[.[.[.[.[.[.[.[.[.[.",
"[.[.[.[.[.[.[.[.[.[.[.[.[.[.[.[.X $ 1 d x v ~ _ 4.r.Z.K.K.t.d h z.~.~.f.d d s.s.g o [.[.[.[.[.[.[.[.[.[.[.[.[.[.[.[.[.[.[.[.[.[.",
"[.[.[.[.[.[.[.[.[.[.[.[.[.[.[.[.X @ 7 s x v G ( 2.e.Z.K.K.z.' { b.~.~.b.{ { b.t.3   [.[.[.[.[.[.[.[.[.[.[.[.[.[.[.[.[.[.[.[.[.[.",
"[.[.[.[.[.[.[.[.[.[.[.[.[.[.[.[.[.[.@ : h v v N ~ 3.l.K.J.S.D.C.R.!.Q.P.A.C.J.t.7   [.[.[.[.[.[.[.[.[.[.[.[.[.[.[.[.[.[.[.[.[.[.",
"[.[.[.[.[.[.[.[.[.[.[.[.[.[.[.[.[.[.. $ w g x c x ( q.b.H.P.W.!.W.W.W.Q.!.P.h.| <   [.[.[.[.[.[.[.[.[.[.[.[.[.[.[.[.[.[.[.[.[.[.",
"[.[.[.[.[.[.[.[.[.[.[.[.[.[.[.[.[.[.[.[.$ : h c c N ( 6.D.P.W.Q.!.W.!.W.W.h.N : [.[.[.[.[.[.[.[.[.[.[.[.[.[.[.[.[.[.[.[.[.[.[.[.",
"[.[.[.[.[.[.[.[.[.[.[.[.[.[.[.[.[.[.[.[.. $ 8 h x c c ^ 8.h.J.W.W.W.R.J.h.3.:   [.[.[.[.[.[.[.[.[.[.[.[.[.[.[.[.[.[.[.[.[.[.[.[.",
"[.[.[.[.[.[.[.[.[.[.[.[.[.[.[.[.[.[.[.[.[.[.$ < f c c f q ^ h.P.K.K.K.h.^ 7 [.[.[.[.[.[.[.[.[.[.[.[.[.[.[.[.[.[.[.[.[.[.[.[.[.[.",
"[.[.[.[.[.[.[.[.[.[.[.[.[.[.[.[.[.[.[.[.[.[.  $ q c J j - e w.J.J.J.L.t.e X [.[.[.[.[.[.[.[.[.[.[.[.[.[.[.[.[.[.[.[.[.[.[.[.[.[.",
"[.[.[.[.[.[.[.[.[.[.[.[.[.[.[.[.[.[.[.[.[.[.X $ 7 z X.U 0 n g.G.G.G.G.i.M - O X [.[.[.[.[.[.[.[.[.[.[.[.[.[.[.[.[.[.[.[.[.[.[.[.",
"[.[.[.[.[.[.[.[.[.[.[.[.[.[.[.[.[.[.[.[.[.[.X O < n o.o.n K x.T.Y.Y.U.g.J < + X [.[.[.[.[.[.[.[.[.[.[.[.[.[.[.[.[.[.[.[.[.[.[.[.",
"[.[.[.[.[.[.[.[.[.[.[.[.[.[.[.[.[.[.[.[.[.[.X O < j o.o.D ] M.(.(.^.T.i.J < O X [.[.[.[.[.[.[.[.[.[.[.[.[.[.[.[.[.[.[.[.[.[.[.[.",
"[.[.[.[.[.[.[.[.[.[.[.[.[.[.[.[.[.[.[.[.[.[.+ % 7 b #.#.L } B.].'.(.R.x.J 3 - $ [.[.[.[.[.[.[.[.[.[.[.[.[.[.[.[.[.[.[.[.[.[.[.[.",
"[.[.[.[.[.[.[.[.[.[.[.[.[.[.[.[.[.[.[.[.X + : 7 8 n <.<.Y O.V.`.).).).m.K q i 0 $ X [.[.[.[.[.[.[.[.[.[.[.[.[.[.[.[.[.[.[.[.[.[.",
"[.[.[.[.[.[.[.[.[.[.[.[.[.[.[.[.[.[.[.[.X + 7 g j P ,.,.Y ] M.(.).'.'.N.` q l e $ X [.[.[.[.[.[.[.[.[.[.[.[.[.[.[.[.[.[.[.[.[.[.",
"[.[.[.[.[.[.[.[.[.[.[.[.[.[.[.[.[.[.[.[.X $ 0 H U +.U L D [ v.R.(.].'.N.I e h i $ . [.[.[.[.[.[.[.[.[.[.[.[.[.[.[.[.[.[.[.[.[.[.",
"[.[.[.[.[.[.[.[.[.[.[.[.[.[.[.[.[.[.[.[.# ; i H $.$.H j l [ v.R./.(.`.N.I q g i ; # [.[.[.[.[.[.[.[.[.[.[.[.[.[.[.[.[.[.[.[.[.[.",
"[.[.[.[.[.[.[.[.[.[.[.[.[.[.[.[.[.[.. @ 7 i j D o...n e l O.N.(.R.E.).N.` 9 q i i 6 $ X [.[.[.[.[.[.[.[.[.[.[.[.[.[.[.[.[.[.[.[.",
"[.[.[.[.[.[.[.[.[.[.[.[.[.[.[.[.[.[.. > L } @.O.#. .j 8 i [ k.V.n.n.V.j.L 8 8 k [ J ; X [.[.[.[.[.[.[.[.[.[.[.[.[.[.[.[.[.[.[.[.",
"[.[.[.[.[.[.[.[.[.[.[.[.[.[.[.[.[.[.. 8 8.b.F.c.y. .g 8 9 l ..1.>.>.1.! l 9 8 J d.w.8   [.[.[.[.[.[.[.[.[.[.[.[.[.[.[.[.[.[.[.[.",
"[.[.[.[.[.[.[.[.[.[.[.[.[.[.[.[.[.[.  0 8.s.z.p.o.D a i i a S R R R R A 0 3 : c 9.9.e   [.[.[.[.[.[.[.[.[.[.[.[.[.[.[.[.[.[.[.[.",
"[.[.[.[.[.[.[.[.[.[.[.[.[.[.[.[.[.[.[.[.r e d r < 6 C A S T E *.;.;.*.T 6 + + - q i [.[.[.[.[.[.[.[.[.[.[.[.[.[.[.[.[.[.[.[.[.[.",
"[.[.[.[.[.[.[.[.[.[.[.[.[.[.[.[.[.[.[.[.. .   . . & C R R &.;.;.W W ;.W * . X X .   [.[.[.[.[.[.[.[.[.[.[.[.[.[.[.[.[.[.[.[.[.[.",
"[.[.[.[.[.[.[.[.[.[.[.[.[.[.[.[.[.[.[.[.[.[.[.[.. * C R *.;.:.W 5 5 E W 2 . [.[.[.[.[.[.[.[.[.[.[.[.[.[.[.[.[.[.[.[.[.[.[.[.[.[.",
"[.[.[.[.[.[.[.[.[.[.[.[.[.[.[.[.[.[.[.[.[.[.[.[.O * u S &.;.:.W 5 4 Z p * X [.[.[.[.[.[.[.[.[.[.[.[.[.[.[.[.[.[.[.[.[.[.[.[.[.[.",
"[.[.[.[.[.[.[.[.[.[.[.[.[.[.[.[.[.[.[.[.[.[.X + ; : > 6 S E ;.;.W Z 4 = o X [.[.[.[.[.[.[.[.[.[.[.[.[.[.[.[.[.[.[.[.[.[.[.[.[.[.",
"[.[.[.[.[.[.[.[.[.[.[.[.[.[.[.[.[.[.[.[.[.[.X $ 1 1 + # y S %.;.:.E y = o X [.[.[.[.[.[.[.[.[.[.[.[.[.[.[.[.[.[.[.[.[.[.[.[.[.[.",
"[.[.[.[.[.[.[.[.[.[.[.[.[.[.[.[.[.[.[.[.[.[.X % j e % o # 2 S *.;.;.E p * X [.[.[.[.[.[.[.[.[.[.[.[.[.[.[.[.[.[.[.[.[.[.[.[.[.[.",
"[.[.[.[.[.[.[.[.[.[.[.[.[.[.[.[.[.[.[.[.[.[.X + r r % X X & C R E Q Q F * X [.[.[.[.[.[.[.[.[.[.[.[.[.[.[.[.[.[.[.[.[.[.[.[.[.[.",
"[.[.[.[.[.[.[.[.[.[.[.[.[.[.[.[.[.[.[.[.[.[.X + $ % [.[.. * C T l g j 0 + X [.[.[.[.[.[.[.[.[.[.[.[.[.[.[.[.[.[.[.[.[.[.[.[.[.[.",
"[.[.[.[.[.[.[.[.[.[.[.[.[.[.[.[.[.[.[.[.[.[.o X X X [.[.. & u p 0 w s 1 , % [.[.[.[.[.[.[.[.[.[.[.[.[.[.[.[.[.[.[.[.[.[.[.[.[.[.",
"[.[.[.[.[.[.[.[.[.[.[.[.[.[.[.[.[.[.[.[.[.[.[.[.[.[.[.[.[.[.= > 3 9 k b b r % X [.[.[.[.[.[.[.[.[.[.[.[.[.[.[.[.[.[.[.[.[.[.[.[.",
"[.[.[.[.[.[.[.[.[.[.[.[.[.[.[.[.[.[.[.[.[.[.[.[.[.[.[.[.[.[.. + ; 8 j b b e % X [.[.[.[.[.[.[.[.[.[.[.[.[.[.[.[.[.[.[.[.[.[.[.[.",
"[.[.[.[.[.[.[.[.[.[.[.[.[.[.[.[.[.[.[.[.[.[.[.[.[.[.[.[.[.[.[.o @ > , < < , # [.[.[.[.[.[.[.[.[.[.[.[.[.[.[.[.[.[.[.[.[.[.[.[.[.",
"[.[.[.[.[.[.[.[.[.[.[.[.[.[.[.[.[.[.[.[.[.[.[.[.[.[.[.[.[.[.[.[.[.[.[.[.[.[.[.[.[.[.[.[.[.[.[.[.[.[.[.[.[.[.[.[.[.[.[.[.[.[.[.[.",
"[.[.[.[.[.[.[.[.[.[.[.[.[.[.[.[.[.[.[.[.[.[.[.[.[.[.[.[.[.[.[.[.[.[.[.[.[.[.[.[.[.[.[.[.[.[.[.[.[.[.[.[.[.[.[.[.[.[.[.[.[.[.[.[.",
"[.[.[.[.[.[.[.[.[.[.[.[.[.[.[.[.[.[.[.[.[.[.[.[.[.[.[.[.[.[.[.[.[.[.[.[.[.[.[.[.[.[.[.[.[.[.[.[.[.[.[.[.[.[.[.[.[.[.[.[.[.[.[.[."
};
