/* XPM */
static char *result[] = {
/* columns rows colors chars-per-pixel */
"48 48 175 2 ",
"   c #19070E",
".  c #1D090F",
"X  c #1E0B12",
"o  c #200D14",
"O  c #231017",
"+  c #25131A",
"@  c #29161D",
"#  c #29181F",
"$  c #2C1C23",
"%  c #351E22",
"&  c #2F222A",
"*  c #33232B",
"=  c #3C2222",
"-  c #3A2D35",
";  c #442928",
":  c #59372F",
">  c #4B3333",
",  c #41373F",
"<  c #4E373C",
"1  c #453036",
"2  c #50373B",
"3  c #533A3D",
"4  c #5B3D3C",
"5  c #5D403F",
"6  c #63423D",
"7  c #69453E",
"8  c #744B3F",
"9  c #784E3F",
"0  c #3F3740",
"q  c #443740",
"w  c #463A44",
"e  c #493C45",
"r  c #493F48",
"t  c #543E43",
"y  c #4C434C",
"u  c #4E4147",
"i  c #564045",
"p  c #584145",
"a  c #5A464C",
"s  c #4D4650",
"d  c #4E4952",
"f  c #514C55",
"g  c #5D4C53",
"h  c #564D58",
"j  c #664946",
"k  c #634644",
"l  c #744D40",
"z  c #794F40",
"x  c #765247",
"c  c #75524A",
"v  c #65565E",
"b  c #67585F",
"n  c #715B59",
"m  c #7F645F",
"M  c #665760",
"N  c #665A62",
"B  c #6A5B63",
"V  c #635F6A",
"C  c #63636E",
"Z  c #6C636C",
"A  c #756163",
"S  c #6C6671",
"D  c #6D6974",
"F  c #746A73",
"G  c #766E78",
"H  c #74717C",
"J  c #7B747C",
"K  c #7D7276",
"L  c #995A3D",
"P  c #845B4A",
"I  c #8B5E4A",
"U  c #9A5C40",
"Y  c #815F56",
"T  c #8E614D",
"R  c #9C6146",
"E  c #816057",
"W  c #8F6858",
"Q  c #976853",
"!  c #AD6443",
"~  c #BE6F4C",
"^  c #AE6F53",
"/  c #B37154",
"(  c #BC7454",
")  c #BD795C",
"_  c #BC7759",
"`  c #8D6D63",
"'  c #836964",
"]  c #8E7067",
"[  c #8A716C",
"{  c #977A6F",
"}  c #927165",
"|  c #8B7C7F",
" . c #887778",
".. c #957D73",
"X. c #A47662",
"o. c #A57A67",
"O. c #B97F65",
"+. c #C07756",
"@. c #C27857",
"#. c #99837B",
"$. c #BC8269",
"%. c #AF8474",
"&. c #A38276",
"*. c #BA8A76",
"=. c #B78A78",
"-. c #BB8C79",
";. c #B88774",
":. c #C2856A",
">. c #7C7681",
",. c #7E7984",
"<. c #797E89",
"1. c #747480",
"2. c #837C85",
"3. c #8C7E81",
"4. c #827E89",
"5. c #7C828D",
"6. c #7F8692",
"7. c #8E8183",
"8. c #86828D",
"9. c #878388",
"0. c #918385",
"q. c #9D8A88",
"w. c #958A8C",
"e. c #868591",
"r. c #898792",
"t. c #828A97",
"y. c #8A8995",
"u. c #838D9A",
"i. c #8D8D9A",
"p. c #908F9A",
"a. c #8F909D",
"s. c #9A9396",
"d. c #90919E",
"f. c #9D9A9C",
"g. c #B19389",
"h. c #BA9587",
"j. c #A39A9B",
"k. c #A39699",
"l. c #B39C95",
"z. c #AB9087",
"x. c #B0A09D",
"c. c #9395A3",
"v. c #9499A6",
"b. c #9F9DA0",
"n. c #9A9DA9",
"m. c #A19FA5",
"M. c #9BA2AF",
"N. c #9CA6B2",
"B. c #9FA9B6",
"V. c #9EAEBB",
"C. c #ADA6A7",
"Z. c #A4A5AA",
"A. c #ABA9AC",
"S. c #B3A6A4",
"D. c #B4A8A7",
"F. c #BCADA9",
"G. c #A3AAB5",
"H. c #A2ADBB",
"J. c #B2AFB3",
"K. c #A4B2BD",
"L. c #ACB1B8",
"P. c #C19E90",
"I. c #A3B3C1",
"U. c #AEBCC7",
"Y. c #AABCCA",
"T. c #A8B6C4",
"R. c #B0BFCB",
"E. c #B7BFC6",
"W. c #B0C1CC",
"Q. c #ADC6D6",
"!. c #AEC8D9",
"~. c #B0C3D1",
"^. c #B2CADA",
"/. c #B7D1E2",
"(. c None",
/* pixels */
"(.(.(.(.(.(.(.(.(.(.(.(.(.(.(.(.(.(.(.(.(.(.(.(.(.(.(.(.(.(.(.(.(.(.(.(.(.(.(.(.(.(.(.(.(.(.(.(.",
"(.(.(.(.(.(.(.(.(.(.(.(.(.(.(.(.(.(.(.(.(.(.(.(.(.(.(.(.(.(.(.(.(.(.(.(.(.(.(.(.(.(.(.(.(.(.(.(.",
"(.(.(.(.(.(.(.(.(.(.(.(.(.(.(.(.(.(.(.(.(.(.(.(.(.(.(.(.(.(.(.(.(.(.(.(.(.(.(.(.(.(.(.(.(.(.(.(.",
"(.(.(.(.(.(.(.(.(.(.+ O o o o o o X o X X X X X X X X X X X X o o X O O + + (.(.(.(.(.(.(.(.(.(.",
"(.(.(.(.(.(.(.(.(.+ + @ @ $ $ $ $ $ $ $ $ $ & & & $ & $ $ $ $ $ $ # $ @ + + + (.(.(.(.(.(.(.(.(.",
"(.(.(.(.(.(.(.(.o o + $ - q w w w r s d f f f f f f d f f y y e w w q - & + O O (.(.(.(.(.(.(.(.",
"(.(.(.(.(.(.(.+ o o O - f C D S S H <.6.u.t.6.6.6.6.t.t.6.<.H S S D C d - O X X + (.(.(.(.(.(.(.",
"(.(.(.(.(.(.+ + + @ * y Z 8.i.y.i.v.N.K.I.I.K.K.I.I.K.I.V.N.v.i.i.p.e.Z u & # # + + (.(.(.(.(.(.",
"(.(.(.(.(.o o + & 0 f Z  .q.k.Z.N.Z.Z.M.Z.Z.Z.Z.Z.Z.Z.Z.Z.Z.G.G.Z.k.q. .Z h 0 * @ o O (.(.(.(.(.",
"(.(.(.(.+ o o @ 0 C 5.w.&.%.g.C.K.M.s.#.{ ....#...#.....#.s.L.W.J.l.%.&.w.8.C - @ X o + (.(.(.(.",
"(.(.(.+ + + + * f 5.G.x.;.) *.x.L.Z.#.T T T T T T T T I Q #.A.W.F.-.) ;.x.M.5.f & + + + + (.(.(.",
"(.(.(.O @ $ - y Z 9.j.g.$.~ :.h.x.z.X.U L L L L L L L L R o.g.F.P.:.( $.g.j.r.Z y - $ @ O (.(.(.",
"(.(.(.O $ - h D J  .{ X./ ~ +.$.$.$.^ ! ! ! ! ! ! ! ! ! ! / $.*.:.@.~ / X.{  . .D h - $ O (.(.(.",
"(.(.(.X $ q V ,.#.] W Q ^ ~ _ ) _ _ ( ( ( _ ( ( ( ( ~ ( _ _ ) ) @._ ( ^ Q W [ | ,.V , $ o (.(.(.",
"(.(.(.O @ - h S H K { &.%.=.-.*.*.-.-.-.-.-.-.-.-.-.-.-.-.*.*.*.*.*.=.%.&.{  .K S h - @ O (.(.(.",
"(.(.(.O @ $ - y C #.f.Z.C.S.S.S.S.S.S.S.D.D.D.D.S.S.D.D.D.S.S.S.S.S.S.C.C.f.9.B r - $ @ O (.(.(.",
"(.(.(.+ + + + * h e.K.W.W.U.U.U.W.U.U.U.U.U.U.U.U.U.U.U.U.U.U.U.U.U.U.U.W.I.t.h * + + + + (.(.(.",
"(.(.(.(.+ X X @ d u.Q././.^.^.!.Q.Q.Q.Q.Q.Q.!.Q.!.Q.Q.Q.!.Q.!.Q.!.^.^././.Q.u.d @ . o + (.(.(.(.",
"(.(.(.(.(.(.(.(.(.(.(.(.(.(.(.(.(.(.(.(.(.(.(.(.(.(.(.(.(.(.(.(.(.(.(.(.(.(.(.(.(.(.(.(.(.(.(.(.",
"(.(.(.(.(.(.(.(.(.(.(.(.(.(.(.(.(.(.(.(.(.(.(.(.(.(.(.(.(.(.(.(.(.(.(.(.(.(.(.(.(.(.(.(.(.(.(.(.",
"(.(.(.(.(.(.(.(.(.(.(.(.(.(.(.(.(.(.(.(.(.(.(.(.(.(.(.(.(.(.(.(.(.(.(.(.(.(.(.(.(.(.(.(.(.(.(.(.",
"(.(.(.(.+ O o X X X X     + q F i.v.v.d.c.d.c.i.i.i.c.c.c.v.v.i.F , +     X X . X o O O (.(.(.(.",
"(.(.(.+ @ @ $ $ $ $ @ + + $ r Z r.d.p.i.i.p.d.a.c.a.i.i.i.p.d.r.Z r $ + + @ $ $ $ $ @ O @ (.(.(.",
"(.(.(.O @ * q y u > ; = % * w b H ,.J ,.4.r.p.c.c.i.r.4.>.J >.J B e * % = ; > u y q * $ O (.(.(.",
"(.(.(.o $ q C <.J n 6 : > 1 e g M M v B F 4.i.c.c.i.4.F M v v v g w 1 > : 7 n K <.C q $ o (.(.(.",
"(.(.(.o $ d 5.N.b...P l 6 3 t t t i t a B ,.i.c.c.i.,.B g i i t t 3 3 6 8 P ..m.N.5.d $ X (.(.(.",
"(.(.(.X & d 5.B.Z.q.] Y c j 5 3 t t g B F 4.i.v.c.i.8.F v g i 3 4 4 k c Y ] q.Z.B.5.d $ o (.(.(.",
"(.(.(.X $ y H v.m.s.3.[ E c 7 4 t g B >.e.i.p.c.c.c.i.8.J Z g t 4 j x Y [ 3.s.n.v.H y $ X (.(.(.",
"(.(.(.X @ w D i.v.c.p.| ` P l 6 p v G e.i.i.y.i.i.i.i.i.8.G v t 6 8 P ` | i.c.v.a.D w $ o (.(.(.",
"(.(.(.o $ w Z r.c.c.p.0.` I 9 6 p g Z J ,.>.>.>.J >.>.,.>.Z g p 6 9 I ` 0.a.c.c.t.Z w $ o (.(.(.",
"(.(.(.o $ w S t.c.c.p.0.` I z 6 t a g M B M v M v v M B v g a t 6 z I ` 0.p.c.c.y.Z w @ o (.(.(.",
"(.(.(.X $ w S i.c.c.p.| ` P 8 k t t t t i p i p p t p p p t t t 6 9 P ` | p.v.c.i.D w $ o (.(.(.",
"(.(.(.X $ y H v.M.v.p.| m c 7 4 2 < < 2 3 4 6 6 6 4 4 3 2 < < t 4 7 l ' 2.i.v.M.c.G y $ X (.(.(.",
"(.(.(.o $ s <.N.V.M.i.J n k 4 3 t 2 < 2 4 7 8 9 9 8 7 4 2 t < 2 3 4 k n  .i.M.H.N.<.d $ X (.(.(.",
"(.(.(.X $ d 6.K.T.B.d.,.B a t t t t t t j x P I I P z j t t t t t t a M ,.d.G.T.I.6.f $ X (.(.(.",
"(.(.(.X & d 6.Y.~.T.N.y.J B v v B B B M A ' ] } ] ] ' A B B B M B M B G y.N.T.~.Y.6.f $ X (.(.(.",
"(.(.(.X $ f t.Y.^.Q.I.M.i.2.>.>.2.,.,.2.4.7.0.0.0.0.9.2.2.2.2.,.2.>.4.y.N.I.~.^.Y.t.f & X (.(.(.",
"(.(.(.X $ s 5.V.U.Y.I.N.c.e.e.e.e.r.e.e.r.r.r.r.r.r.r.r.e.e.e.e.e.e.r.c.N.I.Y.Y.V.5.s $ X (.(.(.",
"(.(.(.o $ , C 5.t.t.6.<.1.D S D D D D D D D D D F D D D D D D D S D D 1.<.6.t.t.5.V - $ o (.(.(.",
"(.(.(.O @ * , y f f f y y e e r e e e r w r w w e w e e e e e e e e e r s d f f d - * $ O (.(.(.",
"(.(.(.+ + @ $ $ $ $ $ $ $ $ $ @ $ $ $ $ $ $ $ $ $ $ $ $ $ $ $ $ $ $ $ $ $ $ & $ & $ @ + + (.(.(.",
"(.(.(.(.+ O o X X X X o o o o o o o X X X X o o X o X o X o X o X X o o X X . X X o O + (.(.(.(.",
"(.(.(.(.(.(.(.(.(.(.(.(.(.(.(.(.(.(.(.(.(.(.(.(.(.(.(.(.(.(.(.(.(.(.(.(.(.(.(.(.(.(.(.(.(.(.(.(.",
"(.(.(.(.(.(.(.(.(.(.(.(.(.(.(.(.(.(.(.(.(.(.(.(.(.(.(.(.(.(.(.(.(.(.(.(.(.(.(.(.(.(.(.(.(.(.(.(.",
"(.(.(.(.(.(.(.(.(.(.(.(.(.(.(.(.(.(.(.(.(.(.(.(.(.(.(.(.(.(.(.(.(.(.(.(.(.(.(.(.(.(.(.(.(.(.(.(.",
"(.(.(.(.(.(.(.(.(.(.(.(.(.(.(.(.(.(.(.(.(.(.(.(.(.(.(.(.(.(.(.(.(.(.(.(.(.(.(.(.(.(.(.(.(.(.(.(.",
"(.(.(.(.(.(.(.(.(.(.(.(.(.(.(.(.(.(.(.(.(.(.(.(.(.(.(.(.(.(.(.(.(.(.(.(.(.(.(.(.(.(.(.(.(.(.(.(.",
"(.(.(.(.(.(.(.(.(.(.(.(.(.(.(.(.(.(.(.(.(.(.(.(.(.(.(.(.(.(.(.(.(.(.(.(.(.(.(.(.(.(.(.(.(.(.(.(."
};
