/* XPM */
static char *result[] = {
/* columns rows colors chars-per-pixel */
"48 48 180 2 ",
"   c #1C070E",
".  c #1E0B12",
"X  c #200D14",
"o  c #231017",
"O  c #25131A",
"+  c #29181F",
"@  c #28161D",
"#  c #351C1E",
"$  c #2C1C23",
"%  c #321F26",
"&  c #2F2129",
"*  c #322127",
"=  c #32232B",
"-  c #392B34",
";  c #3E343C",
":  c #41221F",
">  c #412422",
",  c #4A2E2E",
"<  c #58362F",
"1  c #432D32",
"2  c #42363F",
"3  c #493438",
"4  c #543B3E",
"5  c #5B3D3B",
"6  c #663C2E",
"7  c #633C30",
"8  c #5D403F",
"9  c #60403D",
"0  c #6A463E",
"q  c #674236",
"w  c #714A3E",
"e  c #3F3740",
"r  c #463B44",
"t  c #483C45",
"y  c #493F48",
"u  c #543D42",
"i  c #4C434C",
"p  c #4D4045",
"a  c #554046",
"s  c #5A464C",
"d  c #59444A",
"f  c #4D4750",
"g  c #4E4A54",
"h  c #514B55",
"j  c #5D4B52",
"k  c #55515B",
"l  c #634643",
"z  c #674844",
"x  c #694E4C",
"c  c #744F44",
"v  c #78544A",
"b  c #65555D",
"n  c #67585F",
"m  c #69585F",
"M  c #705853",
"N  c #725D5F",
"B  c #7F645F",
"V  c #675A62",
"C  c #6A5C64",
"Z  c #605E68",
"A  c #625660",
"S  c #62626D",
"D  c #6D636B",
"F  c #6B6672",
"G  c #6D6974",
"H  c #6C6F7A",
"J  c #716670",
"K  c #776F79",
"L  c #746A74",
"P  c #73727D",
"I  c #7B737D",
"U  c #7C7175",
"Y  c #995A3D",
"T  c #835746",
"R  c #855C4D",
"E  c #8D5E4A",
"W  c #855845",
"Q  c #9A5C40",
"!  c #8D614E",
"~  c #9C6146",
"^  c #836259",
"/  c #8B6A5F",
"(  c #906858",
")  c #976853",
"_  c #AD6443",
"`  c #BE6F4C",
"'  c #AE6F52",
"]  c #B37154",
"[  c #BC7454",
"{  c #BD795C",
"}  c #BC7759",
"|  c #816661",
" . c #8C6C61",
".. c #906E62",
"X. c #8C736E",
"o. c #977A6F",
"O. c #907269",
"+. c #8E7E7F",
"@. c #8A7777",
"#. c #957D74",
"$. c #997F76",
"%. c #A57662",
"&. c #A57A67",
"*. c #B97F65",
"=. c #C07756",
"-. c #C27857",
";. c #99837B",
":. c #BC8269",
">. c #A78275",
",. c #B28776",
"<. c #BB8A75",
"1. c #BC8C79",
"2. c #B88774",
"3. c #C2856A",
"4. c #7D7681",
"5. c #7F7883",
"6. c #7A7E8A",
"7. c #777784",
"8. c #827B84",
"9. c #8A7E82",
"0. c #837F8B",
"q. c #7C828D",
"w. c #7E8592",
"e. c #7F8A97",
"r. c #86838D",
"t. c #8E8487",
"y. c #918283",
"u. c #9D8B8A",
"i. c #988A89",
"p. c #868591",
"a. c #898692",
"s. c #818A96",
"d. c #8B8A95",
"f. c #828C99",
"g. c #8D8D9A",
"h. c #908E9A",
"j. c #968F95",
"k. c #8F919E",
"l. c #90919E",
"z. c #9D9494",
"x. c #B19489",
"c. c #BA9587",
"v. c #A2999B",
"b. c #A39699",
"n. c #B39C95",
"m. c #AB9087",
"M. c #B0A09D",
"N. c #8D95A1",
"B. c #8B99A7",
"V. c #9294A2",
"C. c #9499A6",
"Z. c #9D9DA3",
"A. c #969DAA",
"S. c #999EAA",
"D. c #A19FA4",
"F. c #A09FA8",
"G. c #97A0AF",
"H. c #9BA2AF",
"J. c #9BA4B2",
"K. c #9DA8B6",
"L. c #9DABB9",
"P. c #A4A5A9",
"I. c #ABA7A9",
"U. c #B4A6A3",
"Y. c #B5A9A7",
"T. c #B5ABA9",
"R. c #BCADA9",
"E. c #A3AAB5",
"W. c #A6AFB9",
"Q. c #B2AFB3",
"!. c #A4B2BD",
"~. c #ACB1B8",
"^. c #C19E90",
"/. c #A4B5C4",
"(. c #A7B9C7",
"). c #ACB9C5",
"_. c #ABBCC9",
"`. c #A8B5C0",
"'. c #B7BFC6",
"]. c None",
/* pixels */
"].].].].].].].].].].].].].].].].].].].].].].].].].].].].].].].].].].].].].].].].].].].].].].].].",
"].].].].].].].].].].].].].].].].].].].].].].].].].].].].].].].].].].].].].].].].].].].].].].].].",
"].].].].].].].].].].].].].].].].].].].].].].].].].].].].].].].].].].].].].].].].].].].].].].].].",
"].].].].].].].].].].].].].].].].].].].].].].].].].].].].].].].].].].].].].].].].].].].].].].].].",
"].].].].].].].].].].].].].].].].].].].].].].].].].].].].].].].].].].].].].].].].].].].].].].].].",
"].].].].].].].].].].].].].].].].].].].].].].].].].].].].].].].].].].].].].].].].].].].].].].].].",
"].].].].].].].].].].].].].].].].].].].].].].].].].].].].].].].].].].].].].].].].].].].].].].].].",
"].].].].].].].].].].].].].].].].].].].].].].].].].].].].].].].].].].].].].].].].].].].].].].].].",
"].].].].].].].].].].].].].].].].].].].].].].].].].].].].].].].].].].].].].].].].].].].].].].].].",
"].].].].].].].].].].O O X   X X X . . . . . .   . . . . . . . X X   X X O @ ].].].].].].].].].].",
"].].].].].].].].].O O O $ $ $ $ $ $ $ & $ $ * & $ $ $ $ $ $ $ $ $ $ $ $ O O O ].].].].].].].].].",
"].].].].].].].].X X O $ - r r r r p f h h h h h k g k g h f y r r r r - $ O X X ].].].].].].].].",
"].].].].].].].O X X O - h S G G F P 6.w.e.s.e.e.s.s.s.s.w.6.P F F G S h - O . . O ].].].].].].].",
"].].].].].].O @ O @ * i D r.d.d.g.C.J.!.!.W.!.!.!.!.!.!.!.J.C.g.g.g.0.J i & $ @ O O ].].].].].].",
"].].].].].X X O & e k D @.u.b.F.H.E.H.P.P.P.P.P.P.P.P.P.P.E.E.E.P.v.u.@.D h e & O X X ].].].].].",
"].].].].O X X @ e S q.i.>.,.x.I.!.H.z.;.;.o.#.o.;.#.#.#.;.z.!._.Q.x.,.>.i.q.S e @ X X O ].].].].",
"].].].O O O O = h w.J.n.2.{ <.U.~.D.;.! E E ! ! ! ! E E ! ;.I.'.R.1.*.2.n.H.q.h = O o O O ].].].",
"].].].O @ $ - p C r.v.x.*.=.*.c.M.m.%.~ Y Y Y Y Q Q Y Y ~ &.n.R.^.3.=.*.x.v.t.S p - & O O ].].].",
"].].].X @ - h D U @.o.%.] =.=.*.:.:.] _ _ _ _ _ _ _ _ _ _ ] :.<.3.-.` ] %.$.@.U D h - + o ].].].",
"].].].. $ r S r.t.X.) ) ' ` =.{ { } [ [ [ [ [ [ [ [ [ [ [ } { { { { [ ' ) ) X.y.r.S r + X ].].].",
"].].].. $ i 7.A.D.u.$.>.,.1.1.<.<.<.<.<.1.<.<.<.<.1.1.1.1.1.<.<.<.1.1.,.&.$.u.P.H.7.i $ . ].].].",
"].].].. & f q.!.).W.P.I.Y.T.T.Y.U.U.T.T.T.T.T.T.T.Y.Y.Y.Y.Y.U.U.Y.T.T.T.I.P.W.`.!.q.f $ . ].].].",
"].].].X $ f q.L.)./.!.!./.!.`.(.).).).).).).).).).).).).).).).).).`.!.!.!./.(.).L.6.i $ X ].].].",
"].].].. + ; Z q.f.f.s.w.s.f.B.K./.(.(././././././././././.(.(./.K.B.f.e.e.e.f.f.q.S ; + . ].].].",
"].].].. O & ; f h h h g g k G f.G.E.K.J.J.J.J.G.J.G.J.J.J.K.K.G.s.G k g g g h h f ; & o . ].].].",
"].].].$ $ $ * * % % % % $ = y G d.k.k.g.k.k.k.V.V.V.N.k.g.V.V.d.L y = $ $ & * * * & $ * $ ].].].",
"].].2 f h p 1 > : : : # % % r A K 4.4.I 8.a.g.k.k.g.a.5.I K 4.K A r % # % > : : > , p f f ; ].].",
". $ i H q.I M q 6 6 6 < , 1 3 s b A b A J 8.g.V.V.g.8.J b b b b s 3 1 , < 6 6 6 q M I q.H f $ . ",
". * g q.J.z.;.^ E W W c l u 4 u u u u j C 4.g.C.V.g.4.C j u u u u u 4 d c T T T ! #.z.K.w.f $ . ",
". $ f q.E.P.i....... .^ M z 7 4 u u j V L 0.k.V.C.g.r.L n j u u 5 8 z v ^ / .. .X.i.P.L.q.i $ . ",
". $ p P l.H.j.y.9.9.9.X.^ v z 5 u j C 4.0.g.k.V.V.k.g.0.4.C j u 5 z c ^ X.;.;.y.y.j.S.C.P i $ . ",
". $ t G l.C.l.h.h.h.a.9. .T c 9 u A K p.g.h.g.h.h.g.g.g.p.K b d 5 c T / +.f.h.k.h.l.C.k.G t $ X ",
". $ i P C.J.C.V.N.V.g.9.| c 0 5 u j C I 8.9.9.+.9.+.9.8.4.C j u u z v | 9.g.N.V.V.A.H.C.K y $ X ",
". $ i q.L.!.G.V.g.V.g.8.N l 5 4 u s j V N |  . ./ / ^ N V j u u 4 7 l N 8.g.k.k.V.G./.K.6.f $ . ",
". $ f q.L.!.H.N.V.V.g.5.C s u u u u u s x v ! ! ! ! v x d u u u u u d C 5.g.V.V.V.H.!.K.6.g $ . ",
". $ i G w.N.G.J.E.K.J.d.K C n m V V V V N |  ... . .| N V V C V C V C K d.J.K.E.J.A.N.s.H y $ . ",
"].].; p k H k.!._._.`.G.g.5.4.5.4.4.4.4.9.9.y.9.t.y.9.8.8.4.8.5.8.8.8.g.G./._._./.N.H k y ; ].].",
"].].].O = h q.L._.(./.J.V.d.p.p.d.p.d.p.d.a.a.d.d.d.a.a.p.p.p.a.0.0.d.V.J./.(.(.K.q.h = @ ].].].",
"].].].  + ; Z q.f.f.w.6.7.G G G G J G G G G G G G G G G J G J G J G G 7.6.p.s.s.q.Z ; @   ].].].",
"].].].X O & 2 f h h h i y t t t t t t r r r r r r r r r t t t t t t t y f f h k f 2 * O X ].].].",
"].].].O O @ $ $ $ $ $ $ $ $ + $ $ $ $ $ $ $ $ $ $ $ $ $ $ $ $ $ $ $ $ $ $ $ & $ $ $ @ O O ].].].",
"].].].].O o X . . X . X X X X . X X . . . . X X . . . X . . . X . X . X .   . . . . o O ].].].].",
"].].].].].].].].].].].].].].].].].].].].].].].].].].].].].].].].].].].].].].].].].].].].].].].].",
"].].].].].].].].].].].].].].].].].].].].].].].].].].].].].].].].].].].].].].].].].].].].].].].].",
"].].].].].].].].].].].].].].].].].].].].].].].].].].].].].].].].].].].].].].].].].].].].].].].].",
"].].].].].].].].].].].].].].].].].].].].].].].].].].].].].].].].].].].].].].].].].].].].].].].].",
"].].].].].].].].].].].].].].].].].].].].].].].].].].].].].].].].].].].].].].].].].].].].].].].].",
"].].].].].].].].].].].].].].].].].].].].].].].].].].].].].].].].].].].].].].].].].].].].].].].]."
};
