/* XPM */
static char *result[] = {
/* columns rows colors chars-per-pixel */
"48 48 173 2 ",
"   c #1F0B12",
".  c #210D14",
"X  c #231017",
"o  c #25141A",
"O  c #28161D",
"+  c #29181F",
"@  c #351B1C",
"#  c #2C1C23",
"$  c #331F25",
"%  c #2F2129",
"&  c #33242B",
"*  c #322127",
"=  c #392B34",
"-  c #452928",
";  c #57332C",
":  c #432D32",
">  c #463031",
",  c #42363F",
"<  c #4D373C",
"1  c #50373B",
"2  c #533A3D",
"3  c #5B3D3C",
"4  c #5D403F",
"5  c #62423E",
"6  c #69453E",
"7  c #654035",
"8  c #744B3F",
"9  c #784E3F",
"0  c #3F3740",
"q  c #463B44",
"w  c #493C45",
"e  c #493F48",
"r  c #543E43",
"t  c #4C434C",
"y  c #564045",
"u  c #584145",
"i  c #5A474D",
"p  c #5A474D",
"a  c #4D4650",
"s  c #4E4953",
"d  c #514B55",
"f  c #5E4C54",
"g  c #53515B",
"h  c #664946",
"j  c #634644",
"k  c #744D40",
"l  c #794F40",
"z  c #765247",
"x  c #75524A",
"c  c #64555D",
"v  c #67585F",
"b  c #715A57",
"n  c #7F645F",
"m  c #645760",
"M  c #675B63",
"N  c #6A5B63",
"B  c #615F69",
"V  c #62626E",
"C  c #6D646D",
"Z  c #756163",
"A  c #6B6672",
"S  c #6D6974",
"D  c #716670",
"F  c #776F79",
"G  c #746B74",
"H  c #7C7276",
"J  c #74717C",
"K  c #7B747F",
"L  c #995A3D",
"P  c #845B4A",
"I  c #8B5E4A",
"U  c #9A5C40",
"Y  c #815F56",
"T  c #8E614D",
"R  c #9C6146",
"E  c #816057",
"W  c #906858",
"Q  c #976853",
"!  c #AD6443",
"~  c #BE6F4C",
"^  c #AE6F52",
"/  c #B37154",
"(  c #BC7454",
")  c #BD795C",
"_  c #BC7759",
"`  c #8D6D63",
"'  c #836964",
"]  c #8E7067",
"[  c #8B736E",
"{  c #977A6F",
"}  c #927165",
"|  c #8B7C7F",
" . c #867779",
".. c #957D74",
"X. c #997F76",
"o. c #A57662",
"O. c #A57A67",
"+. c #B97F65",
"@. c #C07756",
"#. c #C27857",
"$. c #99837B",
"%. c #BC8269",
"&. c #A78275",
"*. c #B28776",
"=. c #BB8A75",
"-. c #BC8C79",
";. c #B88774",
":. c #C2856A",
">. c #767682",
",. c #7D7681",
"<. c #7E7984",
"1. c #797E89",
"2. c #827C86",
"3. c #8E7F81",
"4. c #7C828D",
"5. c #7F8692",
"6. c #7F8A97",
"7. c #8E8284",
"8. c #86838D",
"9. c #918385",
"0. c #9C8B89",
"q. c #958A8C",
"w. c #878591",
"e. c #898692",
"r. c #828A97",
"t. c #8A8995",
"y. c #818C99",
"u. c #8D8D99",
"i. c #908F9A",
"p. c #8F909D",
"a. c #9A9396",
"s. c #90919E",
"d. c #B19489",
"f. c #BA9587",
"g. c #A2999B",
"h. c #A39699",
"j. c #B39C95",
"k. c #AB9087",
"l. c #B0A09D",
"z. c #8B99A7",
"x. c #9395A3",
"c. c #9499A6",
"v. c #9F9DA0",
"b. c #9B9FAA",
"n. c #969BA9",
"m. c #A19FA4",
"M. c #A09FA8",
"N. c #97A0AF",
"B. c #9BA2AF",
"V. c #9BA5B3",
"C. c #9DA9B7",
"Z. c #9EADBA",
"A. c #A4A5AA",
"S. c #ABA7A9",
"D. c #B4A6A3",
"F. c #B5A9A7",
"G. c #B5ABA9",
"H. c #BCADA9",
"J. c #A3AAB5",
"K. c #A6AEB8",
"L. c #B2AFB3",
"P. c #A4B2BD",
"I. c #ACB1B8",
"U. c #C19E90",
"Y. c #A4B5C3",
"T. c #A8B6C2",
"R. c #A6B8C7",
"E. c #ACB9C5",
"W. c #AABCCA",
"Q. c #B7BFC6",
"!. c #B0C3D1",
"~. c #B4CAD8",
"^. c None",
/* pixels */
"^.^.^.^.^.^.^.^.^.^.^.^.^.^.^.^.^.^.^.^.^.^.^.^.^.^.^.^.^.^.^.^.^.^.^.^.^.^.^.^.^.^.^.^.^.^.^.^.",
"^.^.^.^.^.^.^.^.^.^.^.^.^.^.^.^.^.^.^.^.^.^.^.^.^.^.^.^.^.^.^.^.^.^.^.^.^.^.^.^.^.^.^.^.^.^.^.^.",
"^.^.^.^.^.^.^.^.^.^.^.^.^.^.^.^.^.^.^.^.^.^.^.^.^.^.^.^.^.^.^.^.^.^.^.^.^.^.^.^.^.^.^.^.^.^.^.^.",
"^.^.^.^.^.^.^.^.^.^.^.^.^.^.^.^.^.^.^.^.^.^.^.^.^.^.^.^.^.^.^.^.^.^.^.^.^.^.^.^.^.^.^.^.^.^.^.^.",
"^.^.^.^.^.^.^.^.^.^.^.^.^.^.^.^.^.^.^.^.^.^.^.^.^.^.^.^.^.^.^.^.^.^.^.^.^.^.^.^.^.^.^.^.^.^.^.^.",
"^.^.^.^.^.^.^.^.^.^.^.^.^.^.^.^.^.^.^.^.^.^.^.^.^.^.^.^.^.^.^.^.^.^.^.^.^.^.^.^.^.^.^.^.^.^.^.^.",
"^.^.^.^.^.^.^.^.^.^.o X . . . . .             .               .         X O ^.^.^.^.^.^.^.^.^.^.",
"^.^.^.^.^.^.^.^.^.o o O + # # # # # # # # # # # # # % # # # # # # # # # O X O ^.^.^.^.^.^.^.^.^.",
"^.^.^.^.^.^.^.^.. . o # = q w q = t a s d d d s d d d d s t t q q q q = # o   X ^.^.^.^.^.^.^.^.",
"^.^.^.^.^.^.^.o . . o = d V S A S J 4.5.6.6.6.5.y.6.r.y.6.1.J A C S V d = o   X o ^.^.^.^.^.^.^.",
"^.^.^.^.^.^.o o o O * t D 8.i.t.p.N.J.P.P.P.P.P.P.P.P.P.P.V.c.u.i.i.8.C t * O o o o ^.^.^.^.^.^.",
"^.^.^.^.^.. . o % , d C [ 0.h.B.B.B.B.A.A.S.B.v.A.A.A.A.A.J.J.J.A.h.0. .Z d 0 % o . X ^.^.^.^.^.",
"^.^.^.^.o . . O 0 V w.q.&.&.d.S.P.A.a.$.{ $.{ $.{ $.{ { $.a.I.E.L.d.*.&.q.5.A = +   . o ^.^.^.^.",
"^.^.^.o o o o * d 4.B.l.;.) =.D.I.m.$.W T T T T T T T T W $.S.!.H.-.%.;.l.V.5.d * o X o o ^.^.^.",
"^.^.^.o o # = e V 7.g.d.%.( %.-.j.k.o.U L L U U L L L L R &.j.l.U.:.~ %.d.a.8.M w = # + X ^.^.^.",
"^.^.^.. + = d C H  .{ o./ ~ @.%.;.%.^ ! ! ! ! ! ! ! ! ! ! _ :.:.:.#.~ / o.$. .H C d = # X ^.^.^.",
"^.^.^.. + q A 8.9.[ W Q ^ _ _ #.%.( ( ( ( ( ( ( ( ( ( ( ( _ ) ) #.#.( ^ Q W [ 7.8.C q # . ^.^.^.",
"^.^.^.  % t >.N.A.0.X.&.*.-.-.=.%.=.=.-.=.-.=.-.=.-.=.-.=.-.=.=.=.-.-.*.&.$.0.A.N.>.t #   ^.^.^.",
"^.^.^.  # a 4.Z.I.K.A.S.F.F.G.F.D.D.F.F.F.F.G.G.G.F.G.F.F.D.D.D.F.F.G.S.S.A.K.E.P.4.a #   ^.^.^.",
"^.^.^.  % a 4.Z.R.T.P.P.P.Y.Y.E.T.!.E.E.E.E.E.E.E.E.E.E.E.E.E.E.E.T.T.P.P.P.P.E.C.4.t *   ^.^.^.",
"^.^.^.. # = V 4.y.y.y.6.r.y.z.V.P.!.R.Y.Y.Y.Y.Y.Y.Y.Y.Y.R.R.R.Y.C.z.6.6.6.r.y.y.4.B = % X ^.^.^.",
"^.^.^.X o % 0 a s d s s d g A r.n.V.C.V.V.V.N.V.N.V.V.V.V.C.C.N.6.S g s s s d d s = % + o ^.^.^.",
"^.^.^.o o # % % & * * * # & a S r.s.s.p.p.p.p.x.x.x.s.p.p.s.s.t.G t & # # * * & & & % o o ^.^.^.",
"^.^.^.X # % 0 e 4 > - @ O $ q m H K K K 4.8.p.p.u.u.w.2.K K K J c , $ @ @ - > w t = % + X ^.^.^.",
"^.^.^.. # q B 1.H b 7 ; - : < i c c c m C 2.u.x.x.u.2.D m c c c p < : > ; 7 b H 1.V q # . ^.^.^.",
"^.^.^.  # s 4.V.m...P 8 5 r 2 r r u r i N 2.u.x.x.u.<.N i u r r r r r 3 8 P ..m.V.4.a #   ^.^.^.",
"^.^.^.  # s 4.C.A.0.] Y x h 3 3 r r f N G 2.u.c.x.u.8.G m f u r 2 5 h x Y ` 0.A.C.4.a #   ^.^.^.",
"^.^.^.  # t J c.b.a.9.] Y z h 3 r f N ,.w.u.s.x.x.x.u.8.,.N f r 3 h x E [ 3.a.b.c.J t # . ^.^.^.",
"^.^.^.. # q S u.c.x.t.| ` P 8 5 u c F 8.u.u.u.u.u.u.u.u.8.F c r 5 8 P W | t.x.c.u.S q # . ^.^.^.",
"^.^.^.. # q C e.x.c.i.9.` I 9 5 r f C ,.<.,.,.K K K ,.<.,.C f r 5 9 I ` 9.i.x.x.t.C q # . ^.^.^.",
"^.^.^.  # q A e.x.x.i.9.` I l 5 r p f m M m c m c c m N m f p r 5 l I ` 9.i.z.x.t.C q # . ^.^.^.",
"^.^.^.  # q S u.c.x.i.| ` P k 5 r r r u u u u u u u u u u r r r 5 9 P ` 3.i.c.c.t.S q + . ^.^.^.",
"^.^.^.  # t J x.B.c.u.| n z 6 3 2 < < 1 2 3 5 5 5 5 3 2 1 < < r 3 6 k '  .u.n.N.c.F t #   ^.^.^.",
"^.^.^.  # t 1.V.P.B.u.K b j 3 2 r 2 < 1 3 6 8 k 9 8 6 3 1 r < 1 2 3 j b 2.u.B.K.C.1.a # . ^.^.^.",
"^.^.^.  # s 5.P.R.J.p.<.N i r r r r r r h l P I I P l h r r r r r r i N ,.u.C.E.Y.5.s #   ^.^.^.",
"^.^.^.  % d y.R.!.Y.B.u.H N c v N m N N Z ' ] } ] ` ' Z N N N m m m N F u.V.T.!.R.6.d #   ^.^.^.",
"^.^.^.  # d r.W.~.!.Y.B.u.<.<.<.2.<.<.2.2.7.9.9.9.9.3.2.2.2.<.2.2.2.2.u.N.Y.!.~.W.r.d #   ^.^.^.",
"^.^.^.  # s 4.Z.W.R.P.V.x.t.w.w.w.w.w.w.e.e.e.e.t.e.e.e.w.w.w.e.w.2.e.x.V.Y.W.W.Z.4.s #   ^.^.^.",
"^.^.^.. # , V 4.y.y.5.1.>.S A S S S S S S S S S S S S S S S S S D S S >.1.w.y.y.4.B , # . ^.^.^.",
"^.^.^.X O & , t d d d t t w w w w w w w w e q q w w q q w w w w w w w e a s s d t , & O X ^.^.^.",
"^.^.^.o o O # # # % # # # # # # # # # # # # # # # # # # # # # # # # # # # # % # # # O o o ^.^.^.",
"^.^.^.^.o X .           . .     . .         . .   .   .   .   .   . .             . X o ^.^.^.^.",
"^.^.^.^.^.^.^.^.^.^.^.^.^.^.^.^.^.^.^.^.^.^.^.^.^.^.^.^.^.^.^.^.^.^.^.^.^.^.^.^.^.^.^.^.^.^.^.^.",
"^.^.^.^.^.^.^.^.^.^.^.^.^.^.^.^.^.^.^.^.^.^.^.^.^.^.^.^.^.^.^.^.^.^.^.^.^.^.^.^.^.^.^.^.^.^.^.^.",
"^.^.^.^.^.^.^.^.^.^.^.^.^.^.^.^.^.^.^.^.^.^.^.^.^.^.^.^.^.^.^.^.^.^.^.^.^.^.^.^.^.^.^.^.^.^.^.^.",
"^.^.^.^.^.^.^.^.^.^.^.^.^.^.^.^.^.^.^.^.^.^.^.^.^.^.^.^.^.^.^.^.^.^.^.^.^.^.^.^.^.^.^.^.^.^.^.^.",
"^.^.^.^.^.^.^.^.^.^.^.^.^.^.^.^.^.^.^.^.^.^.^.^.^.^.^.^.^.^.^.^.^.^.^.^.^.^.^.^.^.^.^.^.^.^.^.^.",
"^.^.^.^.^.^.^.^.^.^.^.^.^.^.^.^.^.^.^.^.^.^.^.^.^.^.^.^.^.^.^.^.^.^.^.^.^.^.^.^.^.^.^.^.^.^.^.^."
};
