/* XPM */
static char *result[] = {
/* columns rows colors chars-per-pixel */
"48 48 173 2 ",
"   c #1B070D",
".  c #1C090F",
"X  c #1F0B12",
"o  c #210D14",
"O  c #231017",
"+  c #25141A",
"@  c #28171E",
"#  c #29181F",
"$  c #31181A",
"%  c #381C1C",
"&  c #2C1C23",
"*  c #331E24",
"=  c #2F2129",
"-  c #322127",
";  c #33242B",
":  c #392B34",
">  c #3D333B",
",  c #442929",
"<  c #57332A",
"1  c #473132",
"2  c #42363E",
"3  c #4E373C",
"4  c #4F383E",
"5  c #51393E",
"6  c #5D3F3E",
"7  c #5D403F",
"8  c #654036",
"9  c #6A473F",
"0  c #3F3740",
"q  c #433740",
"w  c #453A43",
"e  c #493D45",
"r  c #493F48",
"t  c #543D42",
"y  c #4C434C",
"u  c #564046",
"i  c #584145",
"p  c #58444B",
"a  c #5C494F",
"s  c #4D4650",
"d  c #4E4A54",
"f  c #514C55",
"g  c #5E4B52",
"h  c #544E58",
"j  c #55515B",
"k  c #634441",
"l  c #654947",
"z  c #744D41",
"x  c #794F41",
"c  c #775248",
"v  c #65555D",
"b  c #67585F",
"n  c #68585E",
"m  c #725A54",
"M  c #675A62",
"N  c #6A5B63",
"B  c #615F69",
"V  c #686066",
"C  c #64636E",
"Z  c #6D626B",
"A  c #756162",
"S  c #6B6671",
"D  c #6D6974",
"F  c #716670",
"G  c #746B74",
"H  c #776F79",
"J  c #6C707B",
"K  c #7D7175",
"L  c #73727D",
"P  c #7B737D",
"I  c #995A3D",
"U  c #845B4C",
"Y  c #8C5E4A",
"T  c #9A5C40",
"R  c #8E614D",
"E  c #9C6146",
"W  c #906755",
"Q  c #906858",
"!  c #9D6952",
"~  c #AD6443",
"^  c #BE6F4C",
"/  c #AE6F52",
"(  c #B37154",
")  c #BC7454",
"_  c #BD795C",
"`  c #BC7759",
"'  c #8D6F66",
"]  c #836863",
"[  c #8D746E",
"{  c #977A6F",
"}  c #927165",
"|  c #8A7779",
" . c #8C7976",
".. c #957D73",
"X. c #997F76",
"o. c #A57662",
"O. c #A57A67",
"+. c #B97F65",
"@. c #C07756",
"#. c #C27857",
"$. c #99837B",
"%. c #BE8065",
"&. c #BA846D",
"*. c #A78275",
"=. c #B28776",
"-. c #BB8A75",
";. c #BC8C79",
":. c #B88774",
">. c #C2856A",
",. c #777784",
"<. c #7D7681",
"1. c #7E7984",
"2. c #777E8A",
"3. c #7A7E8A",
"4. c #837C85",
"5. c #877D84",
"6. c #7C828D",
"7. c #7F8692",
"8. c #7F8A97",
"9. c #8D8286",
"0. c #86828C",
"q. c #8B878C",
"w. c #938486",
"e. c #9D8B8A",
"r. c #958A8C",
"t. c #878591",
"y. c #898692",
"u. c #818996",
"i. c #8A8A96",
"p. c #828C98",
"a. c #8D8D9A",
"s. c #8E909D",
"d. c #91929F",
"f. c #9B9698",
"g. c #B19489",
"h. c #BA9587",
"j. c #A2999B",
"k. c #A39699",
"l. c #B39C95",
"z. c #AB9087",
"x. c #B0A09D",
"c. c #8B99A7",
"v. c #9395A2",
"b. c #9699A6",
"n. c #989CA9",
"m. c #A19FA4",
"M. c #A09FA8",
"N. c #97A1AE",
"B. c #9CA3AF",
"V. c #9BA5B3",
"C. c #9BA8B7",
"Z. c #9EADBA",
"A. c #A4A5A9",
"S. c #ABA7A9",
"D. c #B4A6A3",
"F. c #B5A9A7",
"G. c #B5ABA9",
"H. c #BCADA9",
"J. c #A3AAB5",
"K. c #A9AEB4",
"L. c #B2AFB3",
"P. c #A4B2BD",
"I. c #ACB1B8",
"U. c #C19E90",
"Y. c #A4B5C3",
"T. c #A8B5C0",
"R. c #A6B8C7",
"E. c #ACB9C5",
"W. c #ABBDCB",
"Q. c #B7BFC6",
"!. c #B2C5D4",
"~. c #B6CCDB",
"^. c None",
/* pixels */
"^.^.^.^.^.^.^.^.^.^.^.^.^.^.^.^.^.^.^.^.^.^.^.^.^.^.^.^.^.^.^.^.^.^.^.^.^.^.^.^.^.^.^.^.^.^.^.^.",
"^.^.^.^.^.^.^.^.^.^.^.^.^.^.^.^.^.^.^.^.^.^.^.^.^.^.^.^.^.^.^.^.^.^.^.^.^.^.^.^.^.^.^.^.^.^.^.^.",
"^.^.^.^.^.^.^.^.^.^.^.^.^.^.^.^.^.^.^.^.^.^.^.^.^.^.^.^.^.^.^.^.^.^.^.^.^.^.^.^.^.^.^.^.^.^.^.^.",
"^.^.^.^.^.^.^.^.^.^.+ O o o o o o o X X X X X X X X X X X X X o o X o o O + ^.^.^.^.^.^.^.^.^.^.",
"^.^.^.^.^.^.^.^.^.+ + @ # # # & & & & & = & = & & & & & & & & & & & & & + + + ^.^.^.^.^.^.^.^.^.",
"^.^.^.^.^.^.^.^.o o + & : w e w w e s d f f f d f f h f f y y w w w q : = + O o ^.^.^.^.^.^.^.^.",
"^.^.^.^.^.^.^.+ o o O : h C F D S L 2.7.p.p.8.8.8.8.u.u.8.2.L S Z D C f : O o o + ^.^.^.^.^.^.^.",
"^.^.^.^.^.^.+ + + @ - y F 0.a.a.a.b.V.P.P.P.P.P.P.Y.P.P.P.V.b.a.a.a.q.Z y = @ + + + ^.^.^.^.^.^.",
"^.^.^.^.^.o o + ; 0 h Z  .e.k.n.B.Z.B.N.A.m.A.B.A.A.A.A.A.A.J.J.A.k.e.| Z g 0 = + o o ^.^.^.^.^.",
"^.^.^.^.+ o o @ > C 6.r.*.*.g.S.P.A.e.$.$.{ $.$.$.....{ $.f.K.!.L.l.=.X.r.t.C > @ o o + ^.^.^.^.",
"^.^.^.+ + + + ; f 6.V.x.:.` ;.x.I.m.$.R I R R R R R R Y W *.S.!.H.;._ :.l.J.6.f ; + + + + ^.^.^.",
"^.^.^.O + & : r V q.j.g.%.@.%.h.x.z.o.E I I T I I I I I E O.l.x.U.>.) %.g.b.0.V e : & @ O ^.^.^.",
"^.^.^.O # : f Z K  .{ o.( ^ @.%.&.%./ ~ ~ ~ ~ ~ ~ ~ ~ ~ ~ ( &.-.>.#.^ ( o... .K Z f : & o ^.^.^.",
"^.^.^.o & w S 0.9.[ W ! / ) ` ` ` ` ` ) ) ) ^ ) ^ ) ) ) ` ` ` _ _ @.) / ! Q [ 9.0.S q & o ^.^.^.",
"^.^.^.X & y ,.n.B.e.$.*.=.;.;.-.-.;.;.;.;.;.;.;.;.;.;.;.;.;.-.-.-.;.;.=.*...e.m.n.,.y & o ^.^.^.",
"^.^.^.X & d 6.P.I.K.A.S.S.G.H.F.x.F.D.F.F.F.F.F.F.F.G.G.D.D.D.D.F.G.G.F.S.A.K.E.P.6.s & X ^.^.^.",
"^.^.^.X & y 2.Z.R.Y.Y.Y.T.T.Y.R.!.!.P.P.E.E.E.E.E.E.R.E.E.E.E.E.Y.Y.P.Y.P.P.Y.R.Z.2.y & X ^.^.^.",
"^.^.^.o & > C 6.p.p.u.8.u.p.c.C.P.P.P.!.Y.Y.Y.Y.Y.Y.Y.Y.R.R.R.Y.C.c.p.u.8.u.p.u.6.V 0 & o ^.^.^.",
"^.^.^.O @ ; 0 y d d f d s j D i.N.Z.C.B.V.V.N.V.V.N.V.V.V.C.C.N.u.D j d d d f f y > ; @ O ^.^.^.",
"^.^.^.O + & = ; : * * & & ; r D i.s.s.s.a.d.v.v.v.v.s.s.d.d.d.i.G y ; & & ; ; ; ; = & + + ^.^.^.",
"^.^.^.O @ = 0 y e 1 , % & * q M H P P P 1.y.a.d.v.a.i.4.<.P <.G M 2 * $ % , 1 y y q ; @ O ^.^.^.",
"^.^.^.o & q C 6.P m 8 < , 1 3 t v v v b F 1.a.v.v.a.1.F v v v v a 2 , , < 8 m P 6.C 0 @ O ^.^.^.",
"^.^.^.X * d 2.N.f.[ U z k t t t u u u a V 1.a.v.v.a.4.N g t t t u t u 8 9 Y ..f.N.6.s = X ^.^.^.",
"^.^.^.^.& y J u.q. .' ] A N g t 5 u a b G 0.s.v.b.a.4.G M g t t u g b A ] '  .y.7.J s & ^.^.^.^.",
"^.^.^.^.^.> y j Z H 5.5.5.4.N g t g N 4.5.a.d.v.v.v.a.4.<.N g t g N <.5.5.5.K V j y > ^.^.^.^.^.",
"^.^.^.^.^.^.& ; r S 5.b.b.5.H v t g <.4.s.a.i.i.a.i.i.i.4.<.v p v H y.v.v.r.F r ; # ^.^.^.^.^.^.",
"^.^.^.^.^.^.  + q S i.b.b.s.4.v a g Z <.4.4.<.P <.<.<.4.<.Z g t v <.a.b.b.i.S q @   ^.^.^.^.^.^.",
"^.^.^.^.^.^.. # w D i.b.b.d.<.v p t g v M v v M M v M M M v t p b <.a.b.b.a.S q @ . ^.^.^.^.^.^.",
"^.^.^.^.^.^.o & q S i.b.v.a.<.M t t t t t t t t t t t t t t t t v <.a.b.b.i.S w & X ^.^.^.^.^.^.",
"^.^.^.^.^.^.. @ q S i.b.b.a.<.v t t t t 3 3 t t t 3 t 3 t 3 3 t M <.a.b.b.y.S q @ . ^.^.^.^.^.^.",
"^.^.^.^.^.^.  + q S a.b.b.s.<.v t 3 q t 5 5 3 3 t 3 3 3 3 3 3 t M <.a.b.b.i.Z q +   ^.^.^.^.^.^.",
"^.^.^.^.^.^.@ ; r D a.b.b.5.| v t 3 3 t t 5 t t t t t t t t t t v P y.v.b.i.D y ; & ^.^.^.^.^.^.",
"^.^.^.^.^.> y j C 1.i.a.0.P V g t 3 3 3 6 6 k 9 k 9 6 5 3 3 3 t a Z P 4.a.i.1.C h r > ^.^.^.^.^.",
"^.^.^.^.& y S 6.p.s.i.4.F v a u t t 3 3 6 9 9 x x x 9 6 t t 3 t t a v G 4.i.v.p.7.D y & ^.^.^.^.",
"^.^.^.X & d 6.Z.Y.V.d.4.N a i u t t t t l c U U U U c l t t t t t t a N 4.d.V.Y.Z.7.d & X ^.^.^.",
"^.^.^.X = f u.R.!.R.B.a.P N v v N N N N A ] ' } } } ] A N M M M N M N H y.B.R.!.W.u.f & X ^.^.^.",
"^.^.^.X & f u.!.~.!.T.N.i.4.,.4.4.1.1.4.5.9.w.w.w.w.9.5.4.1.4.1.4.<.4.i.N.Y.!.~.W.p.f & X ^.^.^.",
"^.^.^.X & s 6.Z.W.R.Y.V.v.y.0.0.t.t.t.t.y.y.y.y.y.y.y.y.y.t.y.t.y.4.i.d.V.Y.W.W.Z.6.s & X ^.^.^.",
"^.^.^.o & 2 C 6.u.u.u.2.,.D D D D D D D D D D D F D D D D D D D D D D ,.3.t.u.u.6.C q & o ^.^.^.",
"^.^.^.O @ ; > s f f f y r e w e e e r w e w w w e e w w w e e e e e e r s d d f s > ; @ O ^.^.^.",
"^.^.^.+ + @ & & & = & & & & # & & & & & & & & & & & & & & & & & & & & & & & & & & & @ + + ^.^.^.",
"^.^.^.^.+ O o X o . X o o o X o o o X X X X o o X o X o X o X o X o o X o X X X X o O + ^.^.^.^.",
"^.^.^.^.^.^.^.^.^.^.^.^.^.^.^.^.^.^.^.^.^.^.^.^.^.^.^.^.^.^.^.^.^.^.^.^.^.^.^.^.^.^.^.^.^.^.^.^.",
"^.^.^.^.^.^.^.^.^.^.^.^.^.^.^.^.^.^.^.^.^.^.^.^.^.^.^.^.^.^.^.^.^.^.^.^.^.^.^.^.^.^.^.^.^.^.^.^.",
"^.^.^.^.^.^.^.^.^.^.^.^.^.^.^.^.^.^.^.^.^.^.^.^.^.^.^.^.^.^.^.^.^.^.^.^.^.^.^.^.^.^.^.^.^.^.^.^.",
"^.^.^.^.^.^.^.^.^.^.^.^.^.^.^.^.^.^.^.^.^.^.^.^.^.^.^.^.^.^.^.^.^.^.^.^.^.^.^.^.^.^.^.^.^.^.^.^.",
"^.^.^.^.^.^.^.^.^.^.^.^.^.^.^.^.^.^.^.^.^.^.^.^.^.^.^.^.^.^.^.^.^.^.^.^.^.^.^.^.^.^.^.^.^.^.^.^.",
"^.^.^.^.^.^.^.^.^.^.^.^.^.^.^.^.^.^.^.^.^.^.^.^.^.^.^.^.^.^.^.^.^.^.^.^.^.^.^.^.^.^.^.^.^.^.^.^."
};
