/* XPM */
static char *result[] = {
/* columns rows colors chars-per-pixel */
"48 48 178 2 ",
"   c #1C070E",
".  c #1E0B12",
"X  c #200D14",
"o  c #231017",
"O  c #25131A",
"+  c #29181F",
"@  c #28161D",
"#  c #351B1C",
"$  c #2C1C23",
"%  c #331F25",
"&  c #2F2027",
"*  c #2F222A",
"=  c #33242B",
"-  c #322127",
";  c #392B34",
":  c #3E333B",
">  c #452B2A",
",  c #57332C",
"<  c #432D32",
"1  c #44363F",
"2  c #4A373E",
"3  c #543B3E",
"4  c #5B3D3B",
"5  c #5D403F",
"6  c #61413E",
"7  c #6A463E",
"8  c #654035",
"9  c #714A3E",
"0  c #3F3740",
"q  c #463B44",
"w  c #483C45",
"e  c #493F48",
"r  c #543D42",
"t  c #4C434C",
"y  c #554046",
"u  c #5A464C",
"i  c #59444A",
"p  c #4E4750",
"a  c #4E4953",
"s  c #514C55",
"d  c #5D4B52",
"f  c #55515B",
"g  c #674844",
"h  c #674B48",
"j  c #734C40",
"k  c #78544A",
"l  c #6F5650",
"z  c #65555D",
"x  c #67585F",
"c  c #69585F",
"v  c #725D5F",
"b  c #7F645F",
"n  c #5F5E68",
"m  c #675A62",
"M  c #6A5C64",
"N  c #605E68",
"B  c #625660",
"V  c #63636F",
"C  c #6D636B",
"Z  c #6B6672",
"A  c #6D6974",
"S  c #6D6F79",
"D  c #716670",
"F  c #766D73",
"G  c #776F79",
"H  c #73727D",
"J  c #7A737D",
"K  c #7C7175",
"L  c #995A3D",
"P  c #845C4D",
"I  c #8D5E4A",
"U  c #9A5C40",
"Y  c #815F56",
"T  c #8D614E",
"R  c #9C6146",
"E  c #8B6A5F",
"W  c #826158",
"Q  c #906858",
"!  c #976853",
"~  c #AD6443",
"^  c #BE6F4C",
"/  c #AE6F52",
"(  c #B37154",
")  c #BC7454",
"_  c #BD795C",
"`  c #BC7759",
"'  c #816661",
"]  c #8A6B61",
"[  c #906E62",
"{  c #8E7067",
"}  c #8B736E",
"|  c #94796F",
" . c #8A7779",
".. c #8E7D7F",
"X. c #897775",
"o. c #967E74",
"O. c #997F76",
"+. c #A57662",
"@. c #A57A67",
"#. c #B97F65",
"$. c #C07756",
"%. c #C27857",
"&. c #99837B",
"*. c #BC8269",
"=. c #A78275",
"-. c #B28776",
";. c #BB8A75",
":. c #BC8C79",
">. c #B88774",
",. c #C2856A",
"<. c #777784",
"1. c #7D7681",
"2. c #7F7883",
"3. c #7A7E8A",
"4. c #827B84",
"5. c #8A7E82",
"6. c #837F8B",
"7. c #7C828D",
"8. c #7F8692",
"9. c #7F8A97",
"0. c #8F8284",
"q. c #86838D",
"w. c #918384",
"e. c #988784",
"r. c #9D8B8A",
"t. c #958A8C",
"y. c #868591",
"u. c #898692",
"i. c #818A96",
"p. c #8B8A95",
"a. c #828C99",
"s. c #8D8D9A",
"d. c #908E99",
"f. c #958E94",
"g. c #8F909E",
"h. c #90929E",
"j. c #9C9698",
"k. c #B19489",
"l. c #BA9587",
"z. c #A2999B",
"x. c #A39699",
"c. c #B39C95",
"v. c #AB9087",
"b. c #B0A09D",
"n. c #8D95A1",
"m. c #8B99A7",
"M. c #9294A2",
"N. c #9599A6",
"B. c #959DAA",
"V. c #999FAB",
"C. c #999AA4",
"Z. c #A19FA4",
"A. c #A09FA8",
"S. c #97A0AF",
"D. c #9BA2AE",
"F. c #9BA4B2",
"G. c #9DA8B6",
"H. c #9DABB9",
"J. c #A4A5A9",
"K. c #A8A5A8",
"L. c #B4A6A3",
"P. c #B5A9A7",
"I. c #B5ABA9",
"U. c #BCADA9",
"Y. c #A2A9B6",
"T. c #A2AEBC",
"R. c #A9AEB4",
"E. c #B2AFB3",
"W. c #A4B2BD",
"Q. c #ACB1B8",
"!. c #C19E90",
"~. c #A4B5C3",
"^. c #A8B5C0",
"/. c #A7B9C7",
"(. c #ACB9C5",
"). c #ABBCCA",
"_. c #B7BFC6",
"`. c None",
/* pixels */
"`.`.`.`.`.`.`.`.`.`.`.`.`.`.`.`.`.`.`.`.`.`.`.`.`.`.`.`.`.`.`.`.`.`.`.`.`.`.`.`.`.`.`.`.`.`.`.`.",
"`.`.`.`.`.`.`.`.`.`.`.`.`.`.`.`.`.`.`.`.`.`.`.`.`.`.`.`.`.`.`.`.`.`.`.`.`.`.`.`.`.`.`.`.`.`.`.`.",
"`.`.`.`.`.`.`.`.`.`.`.`.`.`.`.`.`.`.`.`.`.`.`.`.`.`.`.`.`.`.`.`.`.`.`.`.`.`.`.`.`.`.`.`.`.`.`.`.",
"`.`.`.`.`.`.`.`.`.`.`.`.`.`.`.`.`.`.`.`.`.`.`.`.`.`.`.`.`.`.`.`.`.`.`.`.`.`.`.`.`.`.`.`.`.`.`.`.",
"`.`.`.`.`.`.`.`.`.`.`.`.`.`.`.`.`.`.`.`.`.`.`.`.`.`.`.`.`.`.`.`.`.`.`.`.`.`.`.`.`.`.`.`.`.`.`.`.",
"`.`.`.`.`.`.`.`.`.`.`.`.`.`.`.`.`.`.`.`.`.`.`.`.`.`.`.`.`.`.`.`.`.`.`.`.`.`.`.`.`.`.`.`.`.`.`.`.",
"`.`.`.`.`.`.`.`.`.`.`.`.`.`.`.`.`.`.`.`.`.`.`.`.`.`.`.`.`.`.`.`.`.`.`.`.`.`.`.`.`.`.`.`.`.`.`.`.",
"`.`.`.`.`.`.`.`.`.`.`.`.`.`.`.`.`.`.`.`.`.`.`.`.`.`.`.`.`.`.`.`.`.`.`.`.`.`.`.`.`.`.`.`.`.`.`.`.",
"`.`.`.`.`.`.`.`.`.`.`.`.`.`.`.`.`.`.`.`.`.`.`.`.`.`.`.`.`.`.`.`.`.`.`.`.`.`.`.`.`.`.`.`.`.`.`.`.",
"`.`.`.`.`.`.`.`.`.`.O O X X X X X . . . . . .   . . . . . . . X X X X X O O `.`.`.`.`.`.`.`.`.`.",
"`.`.`.`.`.`.`.`.`.O O O @ $ $ $ $ $ $ & & $ & & $ $ $ * $ $ $ $ @ $ $ $ O O O `.`.`.`.`.`.`.`.`.",
"`.`.`.`.`.`.`.`.X X O $ ; q q q q t p a s s s s s s s s s t e q q q q ; $ O X X `.`.`.`.`.`.`.`.",
"`.`.`.`.`.`.`.O X X o ; s V A Z C S 7.8.9.a.9.9.9.9.i.9.9.3.G Z Z A V s ; O . . O `.`.`.`.`.`.`.",
"`.`.`.`.`.`.O @ O @ - t C q.d.p.s.N.F.T.W.W.W.W.W.W.W.W.W.F.N.s.s.d.6.D t * $ O O O `.`.`.`.`.`.",
"`.`.`.`.`.X X O * 0 s C  .r.x.A.F.F.J.J.K.K.J.J.K.J.K.J.K.Y.H.Y.J.x.r. .C s 0 * O X X `.`.`.`.`.",
"`.`.`.`.O X X @ 0 V 8.t.=.-.k.K.Q.G.f.&.| o.| &.| &.o.| &.j.Q.).E.k.-.=.t.7.V 0 @ X X O `.`.`.`.",
"`.`.`.O O o o - s 7.J.b.>.` ;.b.Q.Z.&.T I I T T T T I I Q &.R._.U.:.*.>.c.F.7.s - O O O O `.`.`.",
"`.`.`.o @ $ ; t V q.z.k.#.$.*.l.b.v.+.R L L L L U L L L R +.c.b.!.,.) *.k.z.q.V t = & @ O `.`.`.",
"`.`.`.o + ; s C K X.| +.( ^ $.,.*.*.( ~ ~ ~ ~ ~ ~ ~ ~ ~ ~ ) *.,.,.%.^ ( +.| X.K C s ; @ o `.`.`.",
"`.`.`.X $ q V q.w.} ! ! / ) ` _ _ ` ` ) ) ) ) ) ) ) ) ) ) ` %.*._ ` ) / ! ! | 0.q.Z q + o `.`.`.",
"`.`.`.. $ t <.S.J.r.&.=.-.:.:.;.>.;.;.;.:.:.;.:.;.;.:.;.:.;.;.>.;.:.:.-.=.&.r.C.S.J t $   `.`.`.",
"`.`.`.. & p 7.T.Q.R.J.K.I.I.I.P.L.L.L.P.I.I.P.P.I.P.I.P.I.L.L.L.P.U.I.I.K.K.R.(.W.7.p & . `.`.`.",
"`.`.`.X & t 7.H.(./.W.W.~.W.^.(.(.(.(./.(.(.(.(.(.(./.(.(.(.(.(.(.W.W.W.W.W./.(.H.7.t $ . `.`.`.",
"`.`.`.  O : n 7.i.i.9.9.9.a.m.F.~././././.~.~.~.~./.~././././.~.H.m.a.8.9.i.a.a.7.n : @ . `.`.`.",
"`.`.`.. O & : t s s s p a f A i.S.Y.G.F.F.S.F.S.S.S.F.F.F.G.G.S.i.A f a a s a a t : $ O . `.`.`.",
"`.`.`.$ $ & = = = = - $ $ = t A p.h.g.d.h.h.M.M.M.n.n.g.s.M.n.p.D e = $ $ % = = = = * $ $ `.`.`.",
"`.`.1 t s s a t 2 > > % # - q B G 1.J J 4.u.s.h.h.s.u.4.J G 1.G B q % # % > > 2 t a a s t : `.`.",
". $ t A 8.a.a.7.D l 8 , > < 2 u z z z B Z 6.s.M.M.s.4.D z z z z u q < > , 8 l F 7.a.a.8.S t $ . ",
"X $ p 3.H.).).T.j.| P j 6 r r r r r r d M 4.s.M.M.s.1.M d r r r r r 3 6 j P | j.W.).).H.7.p $ . ",
"X $ t 3.W.).).W.A.e.{ Y k g 4 3 r r d m D 6.s.N.M.s.6.G c d y r 3 6 g k W ] e.J.^.).).H.3.t $ X ",
". $ e H B.Y.H.D.C.f.5.} Y k g 4 r d M 1.6.s.M.M.N.g.p.6.1.M d r 4 7 k Y } 5.f.C.D.H.T.B.H e $ . ",
"X $ e A s.N.N.M.h.h.f. .] P j 6 r B G y.s.s.s.d.d.s.d.s.y.G z i 4 9 P E ..d.h.M.h.N.N.s.A w $ X ",
". $ t H N.D.M.g.g.M.s.5.W k 6 4 r d C J 5.5.5.....5.5.5.J C d r 4 7 j ' 5.s.n.g.g.M.D.N.<.e $ . ",
". $ t 3.H.T.D.g.g.g.s.4.v g 4 3 r i d z v b ] ] Q ] W v z d r r 3 4 g v 4.s.d.g.d.F.T.H.3.t $ X ",
". $ p 7.H.W.S.M.M.M.s.1.M u 3 r r r i i h k Y T T Y k l i i y r r r u M 2.s.M.M.M.F.T.H.3.p $ . ",
". $ t A 8.n.S.F.G.Y.D.s.J M x m m B c m v ' [ [ [ ] ' v m B m M m c M J s.V.Y.H.F.V.n.8.A t $ . ",
"`.`.: w f S n.W.).).^.F.p.4.2.2.1.1.2.1.5.5.w.5.w.w.5.4.4.1.1.4.4.1.2.s.F.~.).).~.n.S f t : `.`.",
"`.`.`.@ = s 7.H././.~.S.M.u.y.y.y.p.p.y.u.u.u.p.u.p.u.u.u.u.y.u.u.6.u.M.F.~.(.).H.7.s = O `.`.`.",
"`.`.`.  @ : N 7.a.i.y.3.H A A A D A A A A A A A A A A A Z A D A A Z D <.3.8.i.a.7.n : @   `.`.`.",
"`.`.`.X O * 1 p s s s t t e w q w w w w q q q q w w q q w w w w w w e e t a s s p : - O X `.`.`.",
"`.`.`.O O @ $ $ & & $ $ $ $ $ $ $ $ $ $ $ $ $ $ $ $ $ $ $ $ $ $ $ $ $ $ $ $ $ $ $ $ @ O O `.`.`.",
"`.`.`.`.O o X .   . . . . o . . X X . . . . X X . . . X . . . X . . X . X . . . . X o O `.`.`.`.",
"`.`.`.`.`.`.`.`.`.`.`.`.`.`.`.`.`.`.`.`.`.`.`.`.`.`.`.`.`.`.`.`.`.`.`.`.`.`.`.`.`.`.`.`.`.`.`.`.",
"`.`.`.`.`.`.`.`.`.`.`.`.`.`.`.`.`.`.`.`.`.`.`.`.`.`.`.`.`.`.`.`.`.`.`.`.`.`.`.`.`.`.`.`.`.`.`.`.",
"`.`.`.`.`.`.`.`.`.`.`.`.`.`.`.`.`.`.`.`.`.`.`.`.`.`.`.`.`.`.`.`.`.`.`.`.`.`.`.`.`.`.`.`.`.`.`.`.",
"`.`.`.`.`.`.`.`.`.`.`.`.`.`.`.`.`.`.`.`.`.`.`.`.`.`.`.`.`.`.`.`.`.`.`.`.`.`.`.`.`.`.`.`.`.`.`.`.",
"`.`.`.`.`.`.`.`.`.`.`.`.`.`.`.`.`.`.`.`.`.`.`.`.`.`.`.`.`.`.`.`.`.`.`.`.`.`.`.`.`.`.`.`.`.`.`.`.",
"`.`.`.`.`.`.`.`.`.`.`.`.`.`.`.`.`.`.`.`.`.`.`.`.`.`.`.`.`.`.`.`.`.`.`.`.`.`.`.`.`.`.`.`.`.`.`.`."
};
