/* XPM */
static char *result[] = {
/* columns rows colors chars-per-pixel */
"48 48 172 2 ",
"   c #1F0B12",
".  c #200D14",
"X  c #231017",
"o  c #25141A",
"O  c #29181F",
"+  c #351B1C",
"@  c #2C1C23",
"#  c #331F25",
"$  c #2F2129",
"%  c #33242B",
"&  c #322127",
"*  c #392B34",
"=  c #3E333C",
"-  c #452928",
";  c #57332C",
":  c #432D32",
">  c #463031",
",  c #42363F",
"<  c #4D373C",
"1  c #50373B",
"2  c #533A3D",
"3  c #5B3D3C",
"4  c #5D403F",
"5  c #62423E",
"6  c #69453E",
"7  c #654035",
"8  c #744B3F",
"9  c #784E3F",
"0  c #3F3740",
"q  c #463B44",
"w  c #493C45",
"e  c #493F48",
"r  c #543E43",
"t  c #4C434C",
"y  c #564045",
"u  c #584145",
"i  c #5A474D",
"p  c #5A474D",
"a  c #4E4953",
"s  c #514B55",
"d  c #5E4C54",
"f  c #53515B",
"g  c #664946",
"h  c #634644",
"j  c #744D40",
"k  c #794F40",
"l  c #765247",
"z  c #75524A",
"x  c #64555D",
"c  c #67585F",
"v  c #715A57",
"b  c #7F645F",
"n  c #645760",
"m  c #675B63",
"M  c #6A5B63",
"N  c #615F69",
"B  c #62626E",
"V  c #6D646D",
"C  c #756163",
"Z  c #6B6672",
"A  c #6D6974",
"S  c #716670",
"D  c #776F79",
"F  c #746B74",
"G  c #7C7276",
"H  c #74717C",
"J  c #7B747F",
"K  c #995A3D",
"L  c #845B4A",
"P  c #8B5E4A",
"I  c #9A5C40",
"U  c #815F56",
"Y  c #8E614D",
"T  c #9C6146",
"R  c #816057",
"E  c #906858",
"W  c #976853",
"Q  c #AD6443",
"!  c #BE6F4C",
"~  c #AE6F52",
"^  c #B37154",
"/  c #BC7454",
"(  c #BD795C",
")  c #BC7759",
"_  c #8D6D63",
"`  c #836964",
"'  c #8E7067",
"]  c #8B736E",
"[  c #977A6F",
"{  c #927165",
"}  c #8B7C7F",
"|  c #867779",
" . c #957D74",
".. c #997F76",
"X. c #A57662",
"o. c #A57A67",
"O. c #B97F65",
"+. c #C07756",
"@. c #C27857",
"#. c #99837B",
"$. c #BC8269",
"%. c #A78275",
"&. c #B28776",
"*. c #BB8A75",
"=. c #BC8C79",
"-. c #B88774",
";. c #C2856A",
":. c #767682",
">. c #7D7681",
",. c #7E7984",
"<. c #797E89",
"1. c #827C86",
"2. c #8E7F81",
"3. c #7C828E",
"4. c #7F8692",
"5. c #7F8A97",
"6. c #8E8284",
"7. c #86838D",
"8. c #918385",
"9. c #9C8B89",
"0. c #958A8C",
"q. c #878591",
"w. c #898692",
"e. c #818A96",
"r. c #8A8995",
"t. c #818C99",
"y. c #8D8D99",
"u. c #908F9A",
"i. c #8F909D",
"p. c #9A9396",
"a. c #90919E",
"s. c #B19489",
"d. c #BA9587",
"f. c #A2999B",
"g. c #A39699",
"h. c #B39C95",
"j. c #AB9087",
"k. c #B0A09D",
"l. c #8B99A7",
"z. c #9395A3",
"x. c #9499A6",
"c. c #9F9DA0",
"v. c #9B9FAA",
"b. c #969BA9",
"n. c #A19FA4",
"m. c #A09FA8",
"M. c #97A0AF",
"N. c #9BA2AF",
"B. c #9BA5B3",
"V. c #9DA9B7",
"C. c #9EAEBB",
"Z. c #A4A5AA",
"A. c #ABA7A9",
"S. c #B4A6A3",
"D. c #B5A9A7",
"F. c #B5ABA9",
"G. c #BCADA9",
"H. c #A3AAB5",
"J. c #A6AEB8",
"K. c #B2AFB3",
"L. c #A4B2BD",
"P. c #ACB1B8",
"I. c #C19E90",
"U. c #A4B5C3",
"Y. c #A8B6C2",
"T. c #A6B8C7",
"R. c #ACB9C5",
"E. c #A9BCC9",
"W. c #B7BFC6",
"Q. c #B0C3D2",
"!. c #B5CAD8",
"~. c None",
/* pixels */
"~.~.~.~.~.~.~.~.~.o o X X .                                         X X X o o ~.~.~.~.~.~.~.~.~.",
"~.~.~.~.~.~.~.~.~.o o o O @ @ @ @ @ @ @ @ $ @ @ $ @ @ $ @ @ @ @ @ @ O O o o o ~.~.~.~.~.~.~.~.~.",
"~.~.~.~.~.~.~.~.X . X O * q q q q e a a s s a s a s s s a t t q q q , * @ o . X ~.~.~.~.~.~.~.~.",
"~.~.~.~.~.~.~.o . . o * s V A Z Z H <.5.t.t.t.4.4.5.t.t.5.<.H V A A V s * o   X o ~.~.~.~.~.~.~.",
"~.~.~.~.~.~.o o o O $ t V 6.u.r.y.x.B.L.L.L.L.L.L.L.L.L.L.N.x.i.i.u.7.S t & O o o o ~.~.~.~.~.~.",
"~.~.~.~.~.. . o $ 0 f V | 9.g.N.B.V.Z.Z.Z.Z.Z.Z.Z.Z.Z.Z.Z.H.J.V.Z.f.9.| V f = % o . . ~.~.~.~.~.",
"~.~.~.~.o   . O 0 B 4.0.%.&.s.A.L.Z.p.#. . . . .#.#.[ [ #.p.J.E.P.s.&.%.0.3.B = O     o ~.~.~.~.",
"~.~.~.o o o o & s 3.N.k.-.( =.k.P.n.#.Y P Y Y Y Y Y Y Y W #.D.Q.G.=.( *.k.N.3.s & o o o o ~.~.~.",
"~.~.~.o o @ * e N 6.f.s.$./ $.=.h.j.X.T K K T K K K K K T o.h.k.I.;./ $.s.f.7.B w * @ o o ~.~.~.",
"~.~.~.. @ * s V G | [ X.^ ! +.$.-.$.^ Q Q Q Q Q Q Q Q Q Q ^ *.;.;.@.! ^ X.[ ] G V s * O . ~.~.~.",
"~.~.~.. @ q Z 7.6.] E W ~ / @.) ) ) ) / / / / / ^ / / / / / $.@.( @./ ~ W W ' 6.q.Z q @ . ~.~.~.",
"~.~.~.  @ t :.b.Z.9.#.%.&.=.=.=.*.*.*.*.*.*.*.*.*.*.*.=.*.*.*.*.*.=.=.&.%.#.9.N.v.:.t @   ~.~.~.",
"~.~.~.. @ a 3.L.P.J.Z.A.F.F.F.F.S.S.D.D.D.D.D.F.D.D.F.F.D.k.G.S.S.F.F.F.A.Z.P.R.L.3.a @ . ~.~.~.",
"~.~.~.  @ t <.V.T.Y.L.L.L.L.L.R.R.R.E.R.E.E.R.R.Q.R.R.T.R.R.P.Q.R.U.L.L.L.L.U.T.C.<.t @   ~.~.~.",
"~.~.~.. @ q N 3.t.t.t.5.5.t.l.V.U.T.T.U.U.U.U.U.L.L.U.U.U.T.T.U.V.l.5.5.e.e.t.t.3.B q @ . ~.~.~.",
"~.~.~.X O & = t s a a a a f A 5.M.V.V.B.B.B.M.B.M.M.B.B.B.V.V.M.5.A f a a a a a t = & o X ~.~.~.",
"~.~.~.o o @ $ % % % # @ @ % t A r.a.i.i.a.z.z.z.z.z.z.y.a.u.a.r.Z t % @ # # & % % # @ o o ~.~.~.",
"~.~.~.X O % = t w - - # + # q n D J J J 1.w.y.y.y.y.w.1.:.J >.D n < # @ + - > w t , $ O X ~.~.~.",
"~.~.~.. O 0 N <.G v 7 ; - : < p x x x x S 1.r.z.z.y.1.S n x x x p , > > ; 7 v G <.B q @ . ~.~.~.",
"~.~.~.  @ a 3.B.f. .L j 5 r r r y u u i M >.y.x.x.y.>.M i u r r r r 3 5 8 L [ c.B.3.t @   ~.~.~.",
"~.~.~.  @ a 7.V.Z.9._ U z h r 2 2 y d x F 1.i.x.x.y.1.F M d r r 2 3 g z U { 9.Z.B.3.t @   ~.~.~.",
"~.~.~.  @ e :.x.N.p.2.] U k j 3 r d V >.7.y.i.z.z.z.y.7.J M d r 3 g l U ] 2.u.v.x.:.t @   ~.~.~.",
"~.~.~.. @ q S y.x.z.y.} _ L 8 5 u x D 7.y.y.y.y.y.y.y.y.7.D x r 5 j L E } y.z.z.t.A e @ . ~.~.~.",
"~.~.~.. @ q Z w.z.z.u.8._ P 9 5 r d V J ,.>.>.J >.>.>.>.>.S d u 5 k P _ 8.u.z.z.r.V q @ . ~.~.~.",
"~.~.~.. @ q V r.z.z.u.8.{ P k 6 r p d n M M x c x x M M x d p r 5 9 P _ 8.a.z.z.r.V q @ . ~.~.~.",
"~.~.~.. @ q Z y.x.z.u.2._ L j 5 r r r r r u r r u r r r r r r r 5 8 L _ } u.x.x.y.Z q @ . ~.~.~.",
"~.~.~.  @ t H z.M.b.y.1.C k g 3 1 1 1 1 2 3 5 5 h 5 3 2 1 < 1 2 3 6 l ` } y.b.B.x.H t @   ~.~.~.",
"~.~.~.  @ t <.B.L.v.y.| v h 3 2 r 1 1 1 3 6 j j 9 8 6 3 1 < 1 1 2 3 h v | y.N.J.B.:.t @   ~.~.~.",
"~.~.~.  @ a 5.U.T.H.a.>.M i r r r r r u g z L P P L z g u r r r u r p M ,.i.V.R.U.4.a @   ~.~.~.",
"~.~.~.  @ a e.R.Q.Y.B.r.D M M n M n M M C ` ' ' { ' ` C M M M M n n M H r.N.R.Q.E.5.s @   ~.~.~.",
"~.~.~.  $ a t.E.!.Q.U.B.y.1.>.>.1.>.1.1.2.2.8.8.8.8.2.1.1.,.>.1.>.>.,.y.B.U.Q.!.E.e.s $   ~.~.~.",
"~.~.~.  @ a 3.C.E.T.L.B.z.w.q.q.q.q.q.q.q.w.r.w.r.r.w.w.q.q.q.q.q.q.w.z.B.L.E.E.C.3.a @   ~.~.~.",
"~.~.~.~.@ t A 3.5.t.7.3.H A A A A A A A A A Z Z A A A A A A A A Z Z F :.<.4.e.e.3.A t @ ~.~.~.~.",
"~.~.~.~.~.= t a s s a a t q q e q e w w w w q q w q q e w q w w e w e e a s s s t t = ~.~.~.~.~.",
"~.~.~.~.~.~.@ @ @ @ @ @ @ @ @ O @ @ @ @ @ @ O @ @ @ @ @ @ @ @ @ @ @ @ @ @ @ @ @ @ $ ~.~.~.~.~.~.",
"~.~.~.~.~.~.~.            .   .   .   . . . . .   . .     .   .   . .             ~.~.~.~.~.~.~.",
"~.~.~.~.~.~.~.~.~.~.~.~.~.~.~.~.~.~.~.~.~.~.~.~.~.~.~.~.~.~.~.~.~.~.~.~.~.~.~.~.~.~.~.~.~.~.~.~.",
"~.~.~.~.~.~.~.~.~.~.~.~.~.~.~.~.~.~.~.~.~.~.~.~.~.~.~.~.~.~.~.~.~.~.~.~.~.~.~.~.~.~.~.~.~.~.~.~.",
"~.~.~.~.~.~.~.~.~.~.~.~.~.~.~.~.~.~.~.~.~.~.~.~.~.~.~.~.~.~.~.~.~.~.~.~.~.~.~.~.~.~.~.~.~.~.~.~.",
"~.~.~.~.~.~.~.~.~.~.~.~.~.~.~.~.~.~.~.~.~.~.~.~.~.~.~.~.~.~.~.~.~.~.~.~.~.~.~.~.~.~.~.~.~.~.~.~.",
"~.~.~.~.~.~.~.~.~.~.~.~.~.~.~.~.~.~.~.~.~.~.~.~.~.~.~.~.~.~.~.~.~.~.~.~.~.~.~.~.~.~.~.~.~.~.~.~.",
"~.~.~.~.~.~.~.~.~.~.~.~.~.~.~.~.~.~.~.~.~.~.~.~.~.~.~.~.~.~.~.~.~.~.~.~.~.~.~.~.~.~.~.~.~.~.~.~.",
"~.~.~.~.~.~.~.~.~.~.~.~.~.~.~.~.~.~.~.~.~.~.~.~.~.~.~.~.~.~.~.~.~.~.~.~.~.~.~.~.~.~.~.~.~.~.~.~.",
"~.~.~.~.~.~.~.~.~.~.~.~.~.~.~.~.~.~.~.~.~.~.~.~.~.~.~.~.~.~.~.~.~.~.~.~.~.~.~.~.~.~.~.~.~.~.~.~.",
"~.~.~.~.~.~.~.~.~.~.~.~.~.~.~.~.~.~.~.~.~.~.~.~.~.~.~.~.~.~.~.~.~.~.~.~.~.~.~.~.~.~.~.~.~.~.~.~.",
"~.~.~.~.~.~.~.~.~.~.~.~.~.~.~.~.~.~.~.~.~.~.~.~.~.~.~.~.~.~.~.~.~.~.~.~.~.~.~.~.~.~.~.~.~.~.~.~.",
"~.~.~.~.~.~.~.~.~.~.~.~.~.~.~.~.~.~.~.~.~.~.~.~.~.~.~.~.~.~.~.~.~.~.~.~.~.~.~.~.~.~.~.~.~.~.~.~.",
"~.~.~.~.~.~.~.~.~.~.~.~.~.~.~.~.~.~.~.~.~.~.~.~.~.~.~.~.~.~.~.~.~.~.~.~.~.~.~.~.~.~.~.~.~.~.~.~."
};
