/* XPM */
static char *result[] = {
/* columns rows colors chars-per-pixel */
"48 48 189 2 ",
"   c #1D0B14",
".  c #1E0E18",
"X  c #200D14",
"o  c #200F18",
"O  c #231017",
"+  c #241219",
"@  c #29161C",
"#  c #2D1A1D",
"$  c #321E1F",
"%  c #2C1B23",
"&  c #2B1720",
"*  c #331F25",
"=  c #362126",
"-  c #3C2325",
";  c #34232B",
":  c #3B262E",
">  c #3E2826",
",  c #3D2931",
"<  c #3C2731",
"1  c #432827",
"2  c #492E27",
"3  c #4D3326",
"4  c #4B302F",
"5  c #543A26",
"6  c #59362F",
"7  c #432E32",
"8  c #4B3335",
"9  c #41373F",
"0  c #4D363C",
"q  c #453035",
"w  c #593936",
"e  c #533A3D",
"r  c #5B3D3C",
"t  c #50373B",
"y  c #5C403A",
"u  c #5B412A",
"i  c #694F31",
"p  c #63423D",
"a  c #69453E",
"s  c #654136",
"d  c #784E3F",
"f  c #734C3A",
"g  c #6A5032",
"h  c #7A5735",
"j  c #63492F",
"k  c #463B44",
"l  c #493C45",
"z  c #473740",
"x  c #543E43",
"c  c #4C434C",
"v  c #4E4247",
"b  c #564045",
"n  c #594144",
"m  c #5F494C",
"M  c #59454B",
"N  c #4D4650",
"B  c #4E4852",
"V  c #514B54",
"C  c #5D4C53",
"Z  c #644542",
"A  c #664946",
"S  c #754D41",
"D  c #794F40",
"F  c #765345",
"G  c #75524A",
"H  c #63545D",
"J  c #67585F",
"K  c #725B59",
"L  c #7F645F",
"P  c #645761",
"I  c #665A62",
"U  c #695B63",
"Y  c #615F69",
"T  c #6C636D",
"R  c #63646F",
"E  c #6D6974",
"W  c #766F79",
"Q  c #746B74",
"!  c #74717C",
"~  c #7A737E",
"^  c #756163",
"/  c #8A6635",
"(  c #99763D",
")  c #845B4A",
"_  c #895D4A",
"`  c #895D44",
"'  c #815F56",
"]  c #846649",
"[  c #9B6D44",
"{  c #866853",
"}  c #8A715C",
"|  c #997443",
" . c #AA7E43",
".. c #8D6D63",
"X. c #836964",
"o. c #89736B",
"O. c #8D7367",
"+. c #927165",
"@. c #88797B",
"#. c #937B73",
"$. c #AD8246",
"%. c #AF894B",
"&. c #B48746",
"*. c #B5934C",
"=. c #BD9245",
"-. c #BD9753",
";. c #C4964C",
":. c #C49749",
">. c #CFA44E",
",. c #C6A35F",
"<. c #D5A951",
"1. c #DAAD54",
"2. c #DFB151",
"3. c #D2A64E",
"4. c #EABE5B",
"5. c #E5B959",
"6. c #C8A970",
"7. c #ECC05D",
"8. c #F5C95E",
"9. c #F4C75E",
"0. c #F6CC64",
"q. c #F8CE64",
"w. c #F3CC6A",
"e. c #F0C763",
"r. c #FFD569",
"t. c #FFD96B",
"y. c #FDD163",
"u. c #FFDB74",
"i. c #FDDA7C",
"p. c #FFE07F",
"a. c #7C7682",
"s. c #7E7883",
"d. c #7A7E89",
"f. c #747480",
"g. c #827B85",
"h. c #897F86",
"j. c #7B818C",
"k. c #7F8692",
"l. c #84818D",
"z. c #8E8183",
"x. c #918385",
"c. c #9B8B88",
"v. c #878591",
"b. c #898792",
"n. c #838B97",
"m. c #8A8A95",
"M. c #8C8C99",
"N. c #908F9A",
"B. c #8F909C",
"V. c #91919E",
"C. c #989197",
"Z. c #9395A3",
"A. c #9499A6",
"S. c #9B9DA6",
"D. c #9BA2AF",
"F. c #9BA6B3",
"G. c #9FA9B6",
"H. c #9EAEBB",
"J. c #A4AAB4",
"K. c #C6B49D",
"L. c #C8B79F",
"P. c #C8B089",
"I. c #C7B7A2",
"U. c #F6D685",
"Y. c #FFDF8B",
"T. c #FFE281",
"R. c #FFE48C",
"E. c #FFE495",
"W. c #FFE99D",
"Q. c #F6DFA5",
"!. c #FFE7AA",
"~. c #FFECAD",
"^. c #FFE7A3",
"/. c #FFEDB3",
"(. c #FFECB9",
"). c #F5E5BD",
"_. c #FFF1BC",
"`. c #A3B3C1",
"'. c #A9BCCA",
"]. c #A9B7C5",
"[. c #B1C5D3",
"{. c #F5E7C4",
"}. c #FFEFC5",
"|. c #F5E8C7",
" X c #FFF2CC",
".X c #FFF1C4",
"XX c #FFF4D1",
"oX c #FFF8D4",
"OX c None",
/* pixels */
"OXOXOXOXOXOXOXOXOXOXOXOXOXOXOXOXOXOXOXOXOXOXOXOXOXOXOXOXOXOXOXOXOXOXOXOXOXOXOXOXOXOXOXOXOXOXOXOX",
"OXOXOXOXOXOXOXOXOXOXOXOXOXOXOXOXOXOXOXOXOXOXOXOXOXOXOXOXOXOXOXOXOXOXOXOXOXOXOXOXOXOXOXOXOXOXOXOX",
"OXOXOXOXOXOXOXOXOXOXOXOXOXOXOXOXOXOXOXOXOXOXOXOXOXOXOXOXOXOXOXOXOXOXOXOXOXOXOXOXOXOXOXOXOXOXOXOX",
"OXOXOXOXOXOXOXO O O o o . . .   .     .         . .   . .   .   .   .   . O O O O OXOXOXOXOXOXOX",
"OXOXOXOXOXOX@ @ @ @ @ # # # # # % * * $ $ $ $ $ $ $ $ $ % * $ $ $ $ $ # # @ # # @ @ OXOXOXOXOXOX",
"OXOXOXOXOX% % * = - 1 2 3 5 u j i i g g i i i i g i i i i i i i j 5 5 3 2 1 - * ; % % OXOXOXOXOX",
"OXOXOXOX@ % : 7 8 w s f h / ( $.*.*.*.*.*.*.*.*.*.*.*.*.*.*.*.*.$.( / h f s w 8 7 ; * + OXOXOXOX",
"OXOXOXO @ * 7 e Z f ` [ $.=.3.5.e.0.w.w.w.w.w.w.w.0.w.w.w.w.w.e.5.>.&. .[ ` D A e 7 * @ O OXOXOX",
"OXOXOXO @ * 8 Z D _  . .;.1.4.8.t.u.T.R.R.R.R.R.R.R.R.R.R.T.u.t.q.4.1.;.&.[ _ D Z 8 = @ O OXOXOX",
"OXOXOXO # * w D _ [  .;.1.7.0.y.t.T.E.!././.~./.~.~././.!.E.p.t.y.8.4.1.;. .[ _ S w - @ O OXOXOX",
"OXOXOXO # 1 s ` [  .;.<.4.q.r.r.u.Y.!.}.}.}.}.}..X}.}. X}.!.R.u.r.r.0.4.1.:. .[ ` s 1 # . OXOXOX",
"OXOXOX. # 2 g [ &.;.<.5.8.r.u.i.Y.^.(. XXXXX XXXXXXXXXXX}./.^.Y.i.u.r.0.5.<.;.&.[ f 2 % . OXOXOX",
"OXOXOX. # 3 h  .;.1.4.0.q.r.i.E.!.(.}. XXX X XXXXXXXXX X X}.(.!.E.i.r.y.8.4.5.:. .h 3 # . OXOXOX",
"OXOXOX. # 5 / =.1.e.q.r.r.u.R.~.}.}. X X X X X X}.}. X X X X X}.^.R.u.r.r.8.4.<.=./ 5 # . OXOXOX",
"OXOXOX. # 5 / :.2.9.r.i.i.R.^._. XoXXXXXoX X X.X(./.(..XXXXXXXXX_.~.R.p.u.t.8.2.:./ 5 # . OXOXOX",
"OXOXOX. # 5 / :.2.e.r.T.W.~._. XoXoXXXXXoXoX X/.W.E.W._. XoXoXXX X_.~.W.T.t.8.2.=./ 5 # . OXOXOX",
"OXOXOX. # 5 / *.3.5.w.Y.Q.).|.|.{.{.{.{.|.|.{.Q.U.w.U.!.).|.|.|.|.|.).^.U.w.5.3.&./ 3 # . OXOXOX",
"OXOXOXo @ 3 g | %.-.,.6.P.I.I.I.K.K.K.K.L.I.K.P.6.,.,.P.K.K.K.K.I.I.I.P.6.,.-.%.| h 3 # . OXOXOX",
"OXOXOX+ @ > y d F ] { } O.#.o.o.o.o.o.o.o.o.o.X.{ ] { } o.o.Q O.o.o.o.O.} { ] ] F u > + O OXOXOX",
"OXOXOXX @ = 7 e y m y n n n M M m m m m m m m A m m A m m m m m A M M x n n y n y q = + O OXOXOX",
"OXOXOX+ @ % ; : , , , < : < 0 M H H H H H H H C H H H H H H H H M 9 7 : : < , < : ; % + + OXOXOX",
"OXOXOX+ + @ @ @ # % % % & * z P W a.a.~ ~ ! ! ~ W f.! ~ ~ a.a.W P z * & & % % & % @ @ + @ OXOXOX",
"OXOXOX+ + @ % % * # # @ @ * x Y l.m.m.m.m.M.M.M.M.m.m.m.m.m.m.l.T l * @ @ % # * % % @ + + OXOXOX",
"OXOXOX+ @ ; k N v 8 1 = * ; l P ~ s.s.s.g.m.V.Z.Z.Z.m.l.s.s.s.~ I l - $ * 1 8 l B 9 ; & O OXOXOX",
"OXOXOXX % k R j.@.G a 6 4 7 z C P U P U Q h.N.Z.Z.M.l.Q I J P J C l q 4 6 s K @.j.R k % O OXOXOX",
"OXOXOXX % B j.F.S.#.) S p x x x x x x m U s.N.Z.Z.M.s.U C x x x x e r p S ) #.S.F.j.B %   OXOXOX",
"OXOXOXX % B j.G.J.c.+.' G Z x e x x C P W g.N.A.A.M.h.E J m b x e n A G ' +.c.J.F.j.B %   OXOXOX",
"OXOXOX  % c ! A.D.C.h.+.' G S r x C Y a.v.M.N.Z.Z.Z.M.v.~ T C x r a G ' o.h.C.S.A.! c % X OXOXOX",
"OXOXOXX % k E M.Z.Z.N.#...) S p x H W h.m.N.m.M.M.M.N.m.v.W H x p f ) ..@.m.V.A.B.E k %   OXOXOX",
"OXOXOXX % k T b.Z.Z.N.h..._ S p x H T g.a.g.a.~ ~ ~ a.g.~ T H x p d _ ..x.V.A.Z.m.T z % O OXOXOX",
"OXOXOXX % k R m.Z.Z.C.h..._ D p x M C P U U J J H J P U P C n x p d _ +.x.V.Z.Z.m.R k %   OXOXOX",
"OXOXOX  % k E M.Z.Z.N.h.} _ S p x x x x x M x x M x M n x x x x p d ) +.@.N.A.A.m.E k % O OXOXOX",
"OXOXOX  % c ! Z.D.A.m.@.X.F a r x 0 t t e r r p p r r w t t z x r a G K @.M.A.D.Z.f.l % . OXOXOX",
"OXOXOXX % N j.F.H.D.V.~ K A r e t x 0 t r a d d d d a r t t t e w r A K g.M.D.H.F.s.N % . OXOXOX",
"OXOXOX  % V k.H.'.F.V.s.U m x x x x x x A G ) _ _ ) G A M x x x x x A U g.V.H.'.`.d.V *   OXOXOX",
"OXOXOXX ; V k.'.[.`.D.n.W I J J U U I I ^ X...+.+...X.^ U I I I P P U f.M.D.].[.'.n.V *   OXOXOX",
"OXOXOXX % V k.[.[.[.`.D.M.g.s.s.d.g.s.g.h.z.x.x.x.x.h.h.g.s.s.s.g.g.d.M.D.].'.[.[.n.B %   OXOXOX",
"OXOXOX  % N j.H.'.'.`.F.Z.b.v.v.b.b.v.v.b.b.b.b.b.m.b.b.v.v.b.v.v.h.m.Z.F.`.'.'.H.j.B % X OXOXOX",
"OXOXOXX % z Y k.n.n.k.d.f.E E E E E E E E E E E E E E E E E E E E E E f.d.k.n.n.d.Y z % X OXOXOX",
"OXOXOXO @ ; , B V V V N c k k k l l l k k k k k l l k l l l l l l l l l N B V V B , ; @ O OXOXOX",
"OXOXOX+ + @ % % * * % % % % % % % % % % % % % % % % % % % % % % % % % % % % % * % % @ + + OXOXOX",
"OXOXOXOX+ O X X         X X   X X X   X X   X X   X   X   X X X   X X X X   X   . . + + OXOXOXOX",
"OXOXOXOXOXOXOXOXOXOXOXOXOXOXOXOXOXOXOXOXOXOXOXOXOXOXOXOXOXOXOXOXOXOXOXOXOXOXOXOXOXOXOXOXOXOXOXOX",
"OXOXOXOXOXOXOXOXOXOXOXOXOXOXOXOXOXOXOXOXOXOXOXOXOXOXOXOXOXOXOXOXOXOXOXOXOXOXOXOXOXOXOXOXOXOXOXOX",
"OXOXOXOXOXOXOXOXOXOXOXOXOXOXOXOXOXOXOXOXOXOXOXOXOXOXOXOXOXOXOXOXOXOXOXOXOXOXOXOXOXOXOXOXOXOXOXOX",
"OXOXOXOXOXOXOXOXOXOXOXOXOXOXOXOXOXOXOXOXOXOXOXOXOXOXOXOXOXOXOXOXOXOXOXOXOXOXOXOXOXOXOXOXOXOXOXOX",
"OXOXOXOXOXOXOXOXOXOXOXOXOXOXOXOXOXOXOXOXOXOXOXOXOXOXOXOXOXOXOXOXOXOXOXOXOXOXOXOXOXOXOXOXOXOXOXOX",
"OXOXOXOXOXOXOXOXOXOXOXOXOXOXOXOXOXOXOXOXOXOXOXOXOXOXOXOXOXOXOXOXOXOXOXOXOXOXOXOXOXOXOXOXOXOXOXOX"
};
