/* XPM */
static char *result[] = {
/* columns rows colors chars-per-pixel */
"48 48 185 2 ",
"   c #1F0B12",
".  c #1E0E18",
"X  c #200D14",
"o  c #200F18",
"O  c #231017",
"+  c #221119",
"@  c #2A171D",
"#  c #2D191D",
"$  c #351D1E",
"%  c #2C1B23",
"&  c #321E23",
"*  c #362324",
"=  c #3C2426",
"-  c #36252D",
";  c #422A1F",
":  c #422727",
">  c #432926",
",  c #452929",
"<  c #492E27",
"1  c #4F3427",
"2  c #513724",
"3  c #553A27",
"4  c #55332D",
"5  c #422D32",
"6  c #42363F",
"7  c #4A3437",
"8  c #543B3E",
"9  c #5B3D3B",
"0  c #5B3B36",
"q  c #633E35",
"w  c #5B4026",
"e  c #5D403F",
"r  c #65482B",
"t  c #664137",
"y  c #684237",
"u  c #62413C",
"i  c #69493A",
"p  c #714B3A",
"a  c #735639",
"s  c #463B45",
"d  c #483C45",
"f  c #453B45",
"g  c #543D42",
"h  c #4B434D",
"j  c #554046",
"k  c #55454C",
"l  c #5B464A",
"z  c #4D4650",
"x  c #4E4851",
"c  c #514B54",
"v  c #5D4B52",
"b  c #644642",
"n  c #684B48",
"m  c #744E42",
"M  c #78544A",
"N  c #64545D",
"B  c #6C5B5C",
"V  c #67585F",
"C  c #725D5E",
"Z  c #705855",
"A  c #675447",
"S  c #7F645F",
"D  c #5F5560",
"F  c #675860",
"G  c #6A5C64",
"H  c #615F69",
"J  c #69626C",
"K  c #6D6974",
"L  c #746B75",
"P  c #74727D",
"I  c #7A737D",
"U  c #896534",
"Y  c #9C773B",
"T  c #825644",
"R  c #875943",
"E  c #8A5C45",
"W  c #845C4D",
"Q  c #815F56",
"!  c #8E614A",
"~  c #946445",
"^  c #9B6D45",
"/  c #9F7046",
"(  c #8B6A5F",
")  c #826158",
"_  c #A77947",
"`  c #816661",
"'  c #8A6B61",
"]  c #906E62",
"[  c #8C716A",
"{  c #8D7D7E",
"}  c #827779",
"|  c #937B73",
" . c #AE8245",
".. c #B38745",
"X. c #BE904D",
"o. c #B28351",
"O. c #B49351",
"+. c #B79C65",
"@. c #B7A27D",
"#. c #C2954A",
"$. c #C29648",
"%. c #CFA34C",
"&. c #CEA156",
"*. c #D5A952",
"=. c #DBAE5C",
"-. c #DAAE56",
";. c #DDB05E",
":. c #E5BA57",
">. c #EABE5C",
",. c #E1B352",
"<. c #F5C95F",
"1. c #DBC07F",
"2. c #F8CE66",
"3. c #F3CA67",
"4. c #FCD36B",
"5. c #FFD96D",
"6. c #FCD162",
"7. c #FFDA73",
"8. c #FFDD7D",
"9. c #F9D67B",
"0. c #FFE076",
"q. c #7E7983",
"w. c #7A7C89",
"e. c #7C7681",
"r. c #837B84",
"t. c #897D82",
"y. c #837F8B",
"u. c #7B818C",
"i. c #7F8692",
"p. c #88828A",
"a. c #948585",
"s. c #868591",
"d. c #898792",
"f. c #838B97",
"g. c #8C8A95",
"h. c #8D8D9A",
"j. c #908E99",
"k. c #8F919F",
"l. c #94949D",
"z. c #9A9495",
"x. c #B7AA94",
"c. c #B4A88F",
"v. c #9295A2",
"b. c #9599A6",
"n. c #9B9DA6",
"m. c #8E90A1",
"M. c #9AA2AF",
"N. c #9BA6B2",
"B. c #9FA9B6",
"V. c #9EAEBB",
"C. c #B3AEA7",
"Z. c #B5B1AD",
"A. c #A2ADBB",
"S. c #B7B5B2",
"D. c #A5A5AB",
"F. c #C4B8A5",
"G. c #DCC58C",
"H. c #FEDE8B",
"J. c #F5D482",
"K. c #FFE281",
"L. c #FFE28B",
"P. c #FFE496",
"I. c #FFE99C",
"U. c #DBD2BC",
"Y. c #D6C9AC",
"T. c #F4DCA1",
"R. c #FDE6AA",
"E. c #FFEAAD",
"W. c #FFE7A3",
"Q. c #FFEDB3",
"!. c #FFEDBA",
"~. c #F3E2B8",
"^. c #FFF2BE",
"/. c #A3B3C1",
"(. c #A9BCCA",
"). c #A9B7C5",
"_. c #B1C5D3",
"`. c #DDD5C1",
"'. c #FEEEC5",
"]. c #F9ECCB",
"[. c #F6E8C6",
"{. c #FFF2CC",
"}. c #FFF0C3",
"|. c #FFF3D1",
" X c None",
/* pixels */
" X X X X X X X X X X X X X X X X X X X X X X X X X X X X X X X X X X X X X X X X X X X X X X X X",
" X X X X X X X X X X X X X X X X X X X X X X X X X X X X X X X X X X X X X X X X X X X X X X X X",
" X X X X X X X X X X X X X X X X X X X X X X X X X X X X X X X X X X X X X X X X X X X X X X X X",
" X X X X X X X X X X X X X X X X X X X X X X X X X X X X X X X X X X X X X X X X X X X X X X X X",
" X X X X X X X X X X X X X X X X X X X X X X X X X X X X X X X X X X X X X X X X X X X X X X X X",
" X X X X X X X X X X X X X X X X X X X X X X X X X X X X X X X X X X X X X X X X X X X X X X X X",
" X X X X X X X+ o o o o O O o o + + o + + + . + + o + o o + + o o o o o o O X o O  X X X X X X X",
" X X X X X X@ @ @ @ @ # # # @ @ @ @ @ @ @ @ @ @ @ @ @ @ @ @ @ @ # @ # @ # % @ % @ @  X X X X X X",
" X X X X X% & & = : : : , , : , : : = > : : : > > : > = > : : : : : : < < : = & & & %  X X X X X",
" X X X X+ & - 5 7 0 y y q q q q q q q q q q q e q q q q q q q q q q q q q q q 7 5 - % @  X X X X",
" X X X+ @ & 5 8 b m T R E R E E E E E E E E E E E E E E E E E E E E R R E T m b g 5 & @ +  X X X",
" X X X+ @ * 7 b m T E ! ~ ^ _ _ o.o.o.o.o.o.o.o.o.o.o.o.o.o.o.o._ _ / ^ ~ E T m b 7 * @ +  X X X",
" X X X+ @ = 0 m T T E ~ / _ #.&.=.;.=.=.;.;.=.;.=.=.=.=.=.=.;.=.&.#._ _ ~ E T T m 0 : @ +  X X X",
" X X X+ @ > q T E E ~ _ ..$.*.>.3.4.4.4.3.4.4.3.3.4.2.4.4.4.4.3.>.*.$._ / ! E E T q > @ +  X X X",
" X X Xo @ , t R ! ~ / _ #.*.:.<.4.8.H.K.L.L.L.L.P.L.L.L.L.K.7.4.<.:.*.#._ / ~ E R q > # .  X X X",
" X X X+ @ , t R ~ / _ $.-.>.<.2.5.0.P.W.Q.E.E.E.E.E.E.E.E.P.8.5.2.2.>.-.$._ _ ~ R q : # +  X X X",
" X X Xo # > y U _  .$.*.<.6.6.4.7.H.R.'.].{.'.'.'.'.].{.'.R.H.7.4.4.6.>.*.$.../ R q , # +  X X X",
" X X Xo # < p U _ $.*.-.<.4.7.8.L.I.!.{.|.|.|.|.|.|.|.|.{.!.W.H.8.7.4.<.:.*.#...^ p > # .  X X X",
" X X X. # 2 a  .#.;.<.<.<.4.8.P.R.!.'.{.|.{.{.{.|.|.|.|.{.'.!.R.P.8.5.6.<.<.*.$._ a 2 # .  X X X",
" X X Xo # 3 U $.*.<.6.4.4.7.L.E.'.{.{.'.{.{.{.{.'.{.'.{.{.{.'.'.E.L.7.5.4.2.>.*.$.U 3 # .  X X X",
" X X X. # w U $.,.<.4.7.K.L.W.^.{.|.|.{.|.|.{.^.Q.Q.Q.^.{.|.|.{.!.W.L.0.0.5.6.-.$.U 3 $    X X X",
" X X X. # w U X.,.<.5.K.I.Q.^.{.{.|.|.{.|.|.{.Q.P.L.I.Q.{.|.|.|.{.^.Q.I.0.5.<.-.$.U 3 #    X X X",
" X X X. # 2 a ..%.:.3.J.T.~.[.[.].].].].'.].].W.H.9.H.R.].].{.].[.[.~.P.J.3.:.%...U 2 # .  X X X",
" X X Xo # 2 r U Y  .O.+.@.x.F.Y.U.`.`.U.U.`.U.Y.G.G.G.Y.U.`.`.U.Y.Z.x.c.+.O...Y U r ; # +  X X X",
" X X XO @ $ ; 2 q r r i A B } z.Z.F.Z.S.Z.Z.C.C.c.c.x.C.Z.S.S.Z.z.} C A p i w w 2 ; # @ +  X X X",
" X X XO @ @ % * = & * * * - k L g.v.v.j.v.l.l.v.l.h.l.l.l.l.v.g.L g - & $ * * * * % @ @ @  X X X",
" X X X+ + - 6 h d 5 : & # & f N L e.I I r.s.h.m.m.h.s.q.I I I L D f & % $ = 5 j h 6 - + o  X X X",
" X X XX % f H w.} Z q 4 < 5 6 k N D N N K w.h.v.m.h.w.K N N N N g s 5 , 3 u Z I u.H f % X  X X X",
" X X X  % c u.N.n.| W m q g g g g g g v G q.h.v.v.h.q.G v g g g g g g u m ! | n.N.u.x %    X X X",
" X X X  % x u.V.D.a.] Q M b g g g g v F L y.h.v.v.h.y.L N v g g 8 9 b M C [ a.D.V.u.x %    X X X",
" X X X  % h e.v.n.z.t.[ Q M b q g v J e.y.h.m.v.v.m.h.y.e.G v g g m M Q [ @.z.n.b.P h %    X X X",
" X X X  % h K f.b.l.j.{ ' W m u g N I y.h.j.j.j.j.j.j.h.s.P N l q m T ` r.w.v.b.k.K s % X  X X X",
" X X X  % h P v.M.b.h.t.S M y 9 g v J I t.t.t.t.{ { { r.I J v g 9 y M ` t.h.b.M.v.P h %    X X X",
" X X X  % x w.N.V.N.h.r.C b 9 8 g j v V C S ' ] ] ( ) C N v l 8 8 0 b C r.h.N.A.N.w.x % X  X X X",
" X X X  % c i.V.).B.k.e.G l g g g j l l n M Q ! ! Q M n l j l g g g l G e.m.A.).V.i.x %    X X X",
" X X X  % c i.(._.).N.d.P G V F F F V F C ` ] ] ] [ ` C F F F F F F G I h.n.)._.).f.c %    X X X",
" X X X  % c i._._._./.N.h.r.q.q.r.e.e.e.r.t.a.a.a.a.t.r.r.e.r.e.q.e.y.h.N./._._.(.f.x %    X X X",
" X X XX % x u.V.(.)./.N.v.s.s.s.d.s.d.d.d.s.s.d.d.d.s.d.d.s.s.s.s.s.d.m.N./.(.(.V.u.x %    X X X",
" X X XX % - K u.f.f.s.w.P K K K K K K K K K K K K K K K K K K K K K K e.w.i.f.f.u.J 6 % X  X X X",
" X X X+ @ - 6 x c c c h h d f f d d d d d f f f f d f d d d d d d d d d h x c c z 6 - @ +  X X X",
" X X XO @ @ % % % % % % % % % % % % % % % % % % % % % % % % % % % % % % % % % % % % @ + @  X X X",
" X X X X+ + +     o     +       X X         X X   X   X   X X X   X X   X           X @  X X X X",
" X X X X X X X X X X X X X X X X X X X X X X X X X X X X X X X X X X X X X X X X X X X X X X X X",
" X X X X X X X X X X X X X X X X X X X X X X X X X X X X X X X X X X X X X X X X X X X X X X X X",
" X X X X X X X X X X X X X X X X X X X X X X X X X X X X X X X X X X X X X X X X X X X X X X X X",
" X X X X X X X X X X X X X X X X X X X X X X X X X X X X X X X X X X X X X X X X X X X X X X X X",
" X X X X X X X X X X X X X X X X X X X X X X X X X X X X X X X X X X X X X X X X X X X X X X X X",
" X X X X X X X X X X X X X X X X X X X X X X X X X X X X X X X X X X X X X X X X X X X X X X X X"
};
