/* XPM */
static char *result[] = {
/* columns rows colors chars-per-pixel */
"64 64 177 2 ",
"   c #000000",
".  c #0C0807",
"X  c #0D0B0A",
"o  c #0F0705",
"O  c #100706",
"+  c #110907",
"@  c #120C09",
"#  c #14130E",
"$  c #14180F",
"%  c #151411",
"&  c #191612",
"*  c #161B12",
"=  c #191C15",
"-  c #1D1D19",
";  c #22130E",
":  c #241D15",
">  c #251E1B",
",  c #2A1812",
"<  c #301A14",
"1  c #1E221A",
"2  c #232316",
"3  c #27241C",
"4  c #29231D",
"5  c #27291F",
"6  c #2D291E",
"7  c #36231A",
"8  c #3D231B",
"9  c #28311F",
"0  c #2A2523",
"q  c #272820",
"w  c #2F2820",
"e  c #312722",
"r  c #332A26",
"t  c #362D28",
"y  c #3A2F2B",
"u  c #2C3124",
"i  c #373323",
"p  c #333E27",
"a  c #3C322C",
"s  c #3E392F",
"d  c #3A3524",
"f  c #3D3632",
"g  c #3E3A31",
"h  c #43251D",
"j  c #43291F",
"k  c #5A281B",
"l  c #6F301D",
"z  c #7E301A",
"x  c #442B21",
"c  c #4D2D23",
"v  c #532E24",
"b  c #41362C",
"n  c #4A322B",
"m  c #433E2D",
"M  c #4C3D2B",
"N  c #453626",
"B  c #553126",
"V  c #543428",
"C  c #593629",
"Z  c #563B2E",
"A  c #5A3B2B",
"S  c #433631",
"D  c #493631",
"F  c #443B34",
"G  c #483E32",
"H  c #443C39",
"J  c #533E30",
"K  c #602D20",
"L  c #783F25",
"P  c #773C25",
"I  c #38442C",
"U  c #37442C",
"Y  c #3D4132",
"T  c #4A432D",
"R  c #56402E",
"E  c #5A422F",
"W  c #444030",
"Q  c #4B4630",
"!  c #464C33",
"~  c #474238",
"^  c #4B423C",
"/  c #444E3A",
"(  c #4D4B3B",
")  c #5D4532",
"_  c #534C35",
"`  c #5D4A35",
"'  c #584F38",
"]  c #465537",
"[  c #475638",
"{  c #4A533C",
"}  c #4C5A3D",
"|  c #4C5035",
" . c #53533E",
".. c #5C543B",
"X. c #515E3F",
"o. c #5C5A3D",
"O. c #77452F",
"+. c #79452F",
"@. c #604A37",
"#. c #684E3B",
"$. c #704B30",
"%. c #62533D",
"&. c #635B3E",
"*. c #544B43",
"=. c #4D5A40",
"-. c #565246",
";. c #5C5641",
":. c #535B45",
">. c #5A5944",
",. c #5E534F",
"<. c #5B5C4B",
"1. c #625540",
"2. c #655D41",
"3. c #6E5D45",
"4. c #635C48",
"5. c #665A55",
"6. c #536144",
"7. c #5E6644",
"8. c #5E6A46",
"9. c #57644A",
"0. c #5B634C",
"q. c #5D6B4D",
"w. c #5E734B",
"e. c #5D6A51",
"r. c #6A6144",
"t. c #66644A",
"y. c #69644A",
"u. c #636C4B",
"i. c #6B694E",
"p. c #616D47",
"a. c #726A4C",
"s. c #62744D",
"d. c #6B6E54",
"f. c #666B56",
"g. c #736E52",
"h. c #647551",
"j. c #6C7355",
"k. c #667954",
"l. c #697B56",
"z. c #6F7658",
"x. c #6D7D5C",
"c. c #737D57",
"v. c #727E5D",
"b. c #737C61",
"n. c #813F27",
"m. c #82442A",
"M. c #895E41",
"N. c #8B6243",
"B. c #8C7A5A",
"V. c #927655",
"C. c #6B824C",
"Z. c #6F825D",
"A. c #748653",
"S. c #71815E",
"D. c #738362",
"F. c #788765",
"G. c #778A60",
"H. c #7A8A65",
"J. c #7D8C69",
"K. c #7D9267",
"L. c #8E815C",
"P. c #81985D",
"I. c #888161",
"U. c #848D69",
"Y. c #878D69",
"T. c #938B67",
"R. c #948F69",
"E. c #83916C",
"W. c #88906D",
"Q. c #839C60",
"!. c #94906A",
"~. c #899073",
"^. c #8E9A73",
"/. c #95AC6F",
"(. c #A1AB87",
"). c #A9B689",
"_. c None",
/* pixels */
"_._._._._._._._._._._._._._._._._._._._._._._._._._._._._._._._._._._._._._._._._._._._._._._._._._._._._._._._._._._._._._._._.",
"_._._._._._._._._._._._._._._._._._._._._._._._._._._._._._._._._._._._._._._._._._._._._._._._._._._._._._._._._._._._._._._._.",
"_._._._._._._._._._._._._._._._._._._._._._._._._._._._._._._._._._._._._._._._._._._._._._._._._._._._._._._._._._._._._._._._.",
"_._._._._._._._._._._._._._._._._._._._._._._._._._._._._._._._._._._._._._._._._._._._._._._._._._._._._._._._._._._._._._._._.",
"_._._._._._._._._._._._._._._._._._._._._._._._._._._._._._._._._._._._._._._._._._._._._._._._._._._._._._._._._._._._._._._._.",
"_._._._._._._._._._._._._._._._._._._._._._._._._._._._._._._._._._._._._._._._._._._._._._._._._._._._._._._._._._._._._._._._.",
"_._._._._._._._._._._._._._._._._._._._._._._._._._._._._._._._._._._._._._._._._._._._._._._._._._._._._._._._._._._._._._._._.",
"_._._._._._._._._._._._._._._._._._._._._._._._._._._._._._._._._._._._._._._._._._._._._._._._._._._._._._._._._._._._._._._._.",
"_._._._._._._._._._._._._._._._._._._._._._._._._._._._._._._._._._._._._._._._._._._._._._._._._._._._._._._._._._._._._._._._.",
"_._._._._._._._._._._._._._._._._._._._._._._._._._._._._._._._._._._._._._._._._._._._._._._._._._._._._._._._._._._._._._._._.",
"_._._._._._._._._._._._._._._._._._._._._._._._._._._._._._._._._._._._._._._._._._._._._._._._._._._._._._._._._._._._._._._._.",
"_._._._._._._._._._._._._._._._._._._._._._._._._._._._._._._._._._._._._._._._._._._._._._._._._._._._._._._._._._._._._._._._.",
"_._._._._._._._._._._._._._._._._._._._._._._._._._._._._._._._._._._._._._._._._._._._._._._._._._._._._._._._._._._._._._._._.",
"_._._._._._._._._._._._._._._._._._._._._._._._._._._._._._._._._._._._._._._._._._._._._._._._._._._._._._._._._._._._._._._._.",
"_._._._._._._._._._._._._._._._._._._._._._._._._._._._.                    _._._._._._._._._._._._._._._._._._._._._._._._._._.",
"_._._._._._._._._._._._._._._._._._._._._._._._._._._._.@ @ @ + @ @ @ @ @ @ _._._._._._._._._._._._._._._._._._._._._._._._._._.",
"_._._._._._._._._._._._._._._._._._._._._._._._._._.  @ 7 j h 8 8 8 8 8 8 < o   _._._._._._._._._._._._._._._._._._._._._._._._.",
"_._._._._._._._._._._._._._._._._._._._._._._._._._.@ : M ` A B c v k v C x 2 $ _._._._._._._._._._._._._._._._._._._._._._._._.",
"_._._._._._._._._._._._._._._._._._._._._._._._.  @ 7 M o.o.E C B v v B C R | U $   _._._._._._._._._._._._._._._._._._._._._._.",
"_._._._._._._._._._._._._._._._._._._._._._._._.o ; c ` 7.7.` C B v B B E ..8.} 9 $ _._._._._._._._._._._._._._._._._._._._._._.",
"_._._._._._._._._._._._._._._._._._._._._._.  + < j C ` 7.7.` C v B B R o.8.w.w.} U *   _._._._._._._._._._._._._._._._._._._._.",
"_._._._._._._._._._._._._._._._._._._._._._.  @ 8 B C ` 7.7.` C B V E ..8.w.w.s.s.[ *   _._._._._._._._._._._._._._._._._._._._.",
"_._._._._._._._._._._._._._._._._._._._._._.  @ 8 B C ` 7.7.` A C ) r.q.s.w.w.s.s.[ *   _._._._._._._._._._._._._._._._._._._._.",
"_._._._._._._._._._._._._._._._._._._._._._.  @ 8 C ) ..8.7.` A @.1.h.k.s.w.w.w.w.[ *   _._._._._._._._._._._._._._._._._._._._.",
"_._._._._._._._._._._._._._._._._._._._._._.  @ j E &.8.h.t.` ` r.j.x.x.k.h.w.w.s.] *   _._._._._._._._._._._._._._._._._._._._.",
"_._._._._._._._._._._._._._._._._._._._._._.  # N %.p.k.l.u.` ` h.D.D.x.x.l.h.h.s.] *   _._._._._._._._._._._._._._._._._._._._.",
"_._._._._._._._._._._._._._._._._._._._._._.  $ ! p.s.x.S.j.@.` d.D.D.b.S.Z.l.k.s.] *   _._._._._._._._._._._._._._._._._._._._.",
"_._._._._._._._._._._._._._._._._._._._._._.  * [ w.6.} =.>...%.y.z.x.l.q.=.=.:.w.[ =   _._._._._._._._._._._._._._._._._._._._.",
"_._._._._._._._._._._._._._._._._._._._._._.  = } 6.u $ % u :.i.&.1.j.q.u * % u 6.=.=   _._._._._._._._._._._._._._._._._._._._.",
"_._._._._._._._._._._._._._._._._._._._._._.  = =.q.g 5 1 p e.j.@.@.j.q.p 1 5 Y q.=.=   _._._._._._._._._._._._._._._._._._._._.",
"_._._._._._._._._._._._._._._._._._._._._._.  = =.D.~.W.A.C.A.j.@.@.d.Z.C.A.E.~.D.{ =   _._._._._._._._._._._._._._._._._._._._.",
"_._._._._._._._._._._._._._._._._._._._._._.  = =.J.(.)./.P.G.j.1.%.t.A.K./.).(.U.} =   _._._._._._._._._._._._._._._._._._._._.",
"_._._._._._._._._._._._._._._._._._._._._._.  = =.F.J.E.J.G.S.x.j.y.1.1.c.K.E.E.F.:.=   _._._._._._._._._._._._._._._._._._._._.",
"_._._._._._._._._._._._._._._._._._._._._._.  = 6.S.D.x.x.x.D.D.D.j.1.1.t.j.x.D.Z.6.*   _._._._._._._._._._._._._._._._._._._._.",
"_._._._._._._._._._._._._._._._._._._._._._.  & } l.Z.S.S.x.S.v.S.x.j.t.%...j.S.l.} *   _._._._._._._._._._._._._._._._._._._._.",
"_._._._._._._._._._._._._._._._._._._._._._.O : / q.j.S.H.H.S.D.H.H.D.z.3.3.d.u.:.I *   _._._._._._._._._._._._._._._._._._._._.",
"_._._._._._._._._._._._._._._._._._._._.  O < y G { q.A.^.^.H.F.^.^.F.F.W.B.y.G 3 * _._._._._._._._._._._._._._._._._._._._._._.",
"_._._._._._._._._._._._._._._._._._._._.O ; h v D ~ :.h.W.^.W.U.T.T.U.Y.R.B.#.h @   _._._._._._._._._._._._._._._._._._._._._._.",
"_._._._._._._._._._._._._._._._._._.  + < x c V S S S { s.A.^.T.M.M.T.R.N.+.Z e X   _._._._._._._._._._._._._._._._._._._._._._.",
"_._._._._._._._._._._._._._._._._._.1 3 x v v n D S y m  .s.E.L.m.n.V.V.+.k r > X   _._._._._._._._._._._._._._._._._._._._._._.",
"_._._._._._._._._._._._._._._._.  - { >.Z c n D b a y S S { h.a.L z m.+.C r ; . _._._._._._._._._._._._._._._._._._._._._._._._.",
"_._._._._._._._._._._._._._._._.  = :.d.;.J y t y a a y a S } o.$.P l K n 0 X   _._._._._._._._._._._._._._._._._._._._._._._._.",
"_._._._._._._._._._._._._._._._.  % g <.d.-.0 & e a a a a a g ( y.r.J n S r X       _._._._._._._._._._._._._._._._._._._._._._.",
"_._._._._._._._._._._._._._._._.  X r *.f.:.= . 4 y a y y a F ( 0.<.~ S H y - X X X _._._._._._._._._._._._._._._._._._._._._._.",
"_._._._._._._._._._._._._._._._.  @ t H *.g % . 4 t t t r g >.9.( F F F F S t 0 t 0 X   _._._._._._._._._._._._._._._._._._._._.",
"_._._._._._._._._._._._._._._._.  @ t F H r X . > r r 8 e f :.>.s w r t r f *.-.-.g %   _._._._._._._._._._._._._._._._._._._._.",
"_._._._._._._._._._._._._._._._.  # t H H t X X > r r e r t m s t 4 # X X q <.b.b.-.*   _._._._._._._._._._._._._._._._._._._._.",
"_._._._._._._._._._._._._._._._.  X r H H r X X 6 b b b b s d m s t : o   % ] e.e.=.=   _._._._._._._._._._._._._._._._._._._._.",
"_._._._._._._._._._._._._._._._.  @ r H H r X % m ....' ' ' ' ' ' ' _ i #   * 1 1 1 _._._._._._._._._._._._._._._._._._._._._._.",
"_._._._._._._._._._._._._._._._.  % g -.-.f @ # Q 2.2.2.2.&.&.&.2.2.2._ 6 X         _._._._._._._._._._._._._._._._._._._._._._.",
"_._._._._._._._._._._._._._._._.  = :.b.b.-.* % Q r.r.&.&.&.&...&.2.2.&._ i @   _._._._._._._._._._._._._._._._._._._._._._._._.",
"_._._._._._._._._._._._._._._._.  = { e.q.=.* # d _ ..&.&.&...%.&.&.&.&.r._ 6 & _._._._._._._._._._._._._._._._._._._._._._._._.",
"_._._._._._._._._._._._._._._._._._.- 1 1 - _._.# 2 _ 1.&.&.&.&.&...&.&.&.&...W &   _._._._._._._._._._._._._._._._._._._._._._.",
"_._._._._._._._._._._._._._._._._._.        _._.& 6 ' r.r.2._ W T T ' &.2.y.g. .&   _._._._._._._._._._._._._._._._._._._._._._.",
"_._._._._._._._._._._._._._._._._._._._._._.  & W ;.y.a.a.o.w # # 2 T &.y.a.g. .=   _._._._._._._._._._._._._._._._._._._._._._.",
"_._._._._._._._._._._._._._._._._._._._._._.  & Q y.y.4.;.W %     $ ! r.g.i.1.W &   _._._._._._._._._._._._._._._._._._._._._._.",
"_._._._._._._._._._._._._._._._._._._._._._.  % f *.*.H 5 & _._.  = :.c.v.0.i % _._._._._._._._._._._._._._._._._._._._._._._._.",
"_._._._._._._._._._._._._._._._._._._._._._.  % f *.*.y @   _._.  = / 9.9./ *   _._._._._._._._._._._._._._._._._._._._._._._._.",
"_._._._._._._._._._._._._._._._._._._._._._.  % *.5.5.*.%   _._._._.= 1 - = _._._._._._._._._._._._._._._._._._._._._._._._._._.",
"_._._._._._._._._._._._._._._._._._._._._._.  % H ,.,.H %   _._._._.        _._._._._._._._._._._._._._._._._._._._._._._._._._.",
"_._._._._._._._._._._._._._._._._._._._._._.  . - 0 0 - .   _._._._.        _._._._._._._._._._._._._._._._._._._._._._._._._._.",
"_._._._._._._._._._._._._._._._._._._._._._._._._._._._._._._._._._._._._._._._._._._._._._._._._._._._._._._._._._._._._._._._.",
"_._._._._._._._._._._._._._._._._._._._._._._._._._._._._._._._._._._._._._._._._._._._._._._._._._._._._._._._._._._._._._._._.",
"_._._._._._._._._._._._._._._._._._._._._._._._._._._._._._._._._._._._._._._._._._._._._._._._._._._._._._._._._._._._._._._._."
};
