/* XPM */
static char *result[] = {
/* columns rows colors chars-per-pixel */
"64 64 166 2 ",
"   c #060603",
".  c #090704",
"X  c #0A0905",
"o  c #120E0B",
"O  c #16110E",
"+  c #19130F",
"@  c #161514",
"#  c #1B1511",
"$  c #171817",
"%  c #1E1814",
"&  c #191A1A",
"*  c #211B16",
"=  c #251C19",
"-  c #2A1E1B",
";  c #26201B",
":  c #2C221D",
">  c #32231F",
",  c #2D2524",
"<  c #2F2826",
"1  c #222729",
"2  c #24292B",
"3  c #322521",
"4  c #362925",
"5  c #3B2A25",
"6  c #3C2D2A",
"7  c #393227",
"8  c #373129",
"9  c #3D322B",
"0  c #2B3337",
"q  c #3D3432",
"w  c #32363A",
"e  c #402C27",
"r  c #422E2A",
"t  c #45322D",
"y  c #49322D",
"u  c #433533",
"i  c #4C3632",
"p  c #463B34",
"a  c #4C3B35",
"s  c #473C39",
"d  c #493E3A",
"f  c #533A35",
"g  c #553E39",
"h  c #583F3A",
"j  c #4C4435",
"k  c #4A4239",
"l  c #56413C",
"z  c #5C433E",
"x  c #62403C",
"c  c #343F45",
"v  c #413E40",
"b  c #3B464D",
"n  c #3D484E",
"m  c #4F4941",
"M  c #41484E",
"N  c #564641",
"B  c #5E4641",
"V  c #544F46",
"C  c #5C4B44",
"Z  c #5F4F48",
"A  c #555846",
"S  c #575249",
"D  c #5B5D4B",
"F  c #444C53",
"G  c #44545D",
"H  c #4B555C",
"J  c #50575D",
"K  c #614641",
"L  c #6A4743",
"P  c #634A45",
"I  c #6A4E47",
"U  c #674D48",
"Y  c #6A4E49",
"T  c #714E4A",
"R  c #64554E",
"E  c #73554E",
"W  c #635752",
"Q  c #695B54",
"!  c #6C5E58",
"~  c #765952",
"^  c #7A5C55",
"/  c #755F59",
"(  c #636D56",
")  c #6E615B",
"_  c #7D6159",
"`  c #70635D",
"'  c #69725C",
"]  c #495760",
"[  c #4C5962",
"{  c #505D65",
"}  c #5D5F61",
"|  c #546169",
" . c #58646D",
".. c #62686A",
"X. c #727A65",
"o. c #757D69",
"O. c #666D70",
"+. c #8D5654",
"@. c #875F59",
"#. c #845B54",
"$. c #905956",
"%. c #935C59",
"&. c #87675F",
"*. c #88635B",
"=. c #8D6C63",
"-. c #926C64",
";. c #927067",
":. c #937369",
">. c #9B766C",
",. c #96786D",
"<. c #9A786C",
"1. c #9F7F73",
"2. c #A07A6F",
"3. c #AF726C",
"4. c #B0736E",
"5. c #A27D72",
"6. c #B37570",
"7. c #9E8779",
"8. c #9F8D7D",
"9. c #AC8679",
"0. c #A18F7F",
"q. c #AE897C",
"w. c #A58074",
"e. c #B28B7E",
"r. c #9C938B",
"t. c #B48D80",
"y. c #A69486",
"u. c #A89687",
"i. c #A79C8F",
"p. c #AA9888",
"a. c #B79184",
"s. c #BC9184",
"d. c #BF9689",
"f. c #A79C90",
"g. c #B2A295",
"h. c #B6A699",
"j. c #B9A99E",
"k. c #B3AA9F",
"l. c #B8ABA0",
"z. c #C19487",
"x. c #C29789",
"c. c #CC978B",
"v. c #C3988B",
"b. c #CA9D8E",
"n. c #CBA092",
"m. c #C6AB98",
"M. c #C8AD99",
"N. c #D1A495",
"B. c #D1A897",
"V. c #D2A898",
"C. c #DBAC9D",
"Z. c #C4B19C",
"A. c #C7B4A0",
"S. c #C9B7A4",
"D. c #CEBBA9",
"F. c #D1BEAC",
"G. c #E4B5A5",
"H. c #E8B7A7",
"J. c #E7B8A8",
"K. c #E8B8A8",
"L. c #D6C4B3",
"P. c #D8C7B7",
"I. c #DCCBBC",
"U. c #DFCFC0",
"Y. c #E0D0C1",
"T. c None",
/* pixels */
"T.T.T.T.T.T.T.T.T.T.T.T.T.T.T.T.T.T.T.T.T.T.T.T.T.T.T.T.T.T.T.T.T.T.T.T.T.T.T.T.T.T.T.T.T.T.T.T.T.T.T.T.T.T.T.T.T.T.T.T.T.T.T.T.",
"T.T.T.T.T.T.T.T.T.T.T.T.T.T.T.T.T.T.T.T.T.T.T.T.T.T.T.T.T.T.T.T.T.T.T.T.T.T.T.T.T.T.T.T.T.T.T.T.T.T.T.T.T.T.T.T.T.T.T.T.T.T.T.T.",
"T.T.T.T.T.T.T.T.T.T.T.T.T.T.T.T.T.T.T.T.T.T.T.T.T.T.T.T.T.T.T.T.T.T.T.T.T.T.T.T.T.T.T.T.T.T.T.T.T.T.T.T.T.T.T.T.T.T.T.T.T.T.T.T.",
"T.T.T.T.T.T.T.T.T.T.T.T.T.T.T.T.T.T.T.T.T.T.T.T.T.T.T.T.T.T.T.T.T.T.T.T.T.T.T.T.T.T.T.T.T.T.T.T.T.T.T.T.T.T.T.T.T.T.T.T.T.T.T.T.",
"T.T.T.T.T.T.T.T.T.T.T.T.T.T.T.T.T.T.T.T.T.T.T.T.T.T.T.T.T.T.T.T.T.T.T.T.T.T.T.T.T.T.T.T.T.T.T.T.T.T.T.T.T.T.T.T.T.T.T.T.T.T.T.T.",
"T.T.T.T.T.T.T.T.T.T.T.T.T.T.T.T.T.T.T.T.T.T.T.T.T.T.T.T.T.T.T.T.T.T.T.T.T.T.T.T.T.T.T.T.T.T.T.T.T.T.T.T.T.T.T.T.T.T.T.T.T.T.T.T.",
"T.T.T.T.T.T.T.T.T.T.T.T.T.T.T.T.T.T.T.T.T.T.T.T.T.T.T.T.T.T.T.T.T.T.T.T.T.T.T.T.T.T.T.T.T.T.T.T.T.T.T.T.T.T.T.T.T.T.T.T.T.T.T.T.",
"T.T.T.T.T.T.T.T.T.T.T.T.T.T.T.T.T.T.T.T.T.T.T.T.T.T.T.T.T.T.T.T.T.T.T.T.T.T.T.T.T.T.T.T.T.T.T.T.T.T.T.T.T.T.T.T.T.T.T.T.T.T.T.T.",
"T.T.T.T.T.T.T.T.T.T.T.T.T.T.T.T.T.T.T.T.T.T.T.T.T.T.T.T.T.T.T.T.T.T.T.T.T.T.T.T.T.T.T.T.T.T.T.T.T.T.T.T.T.T.T.T.T.T.T.T.T.T.T.T.",
"T.T.T.T.T.T.T.T.T.T.T.T.T.T.T.T.T.T.T.T.T.T.T.T.T.T.T.T.T.T.T.T.T.T.T.T.T.T.T.T.T.T.T.T.T.T.T.T.T.T.T.T.T.T.T.T.T.T.T.T.T.T.T.T.",
"T.T.T.T.T.T.T.T.T.T.T.T.T.T.T.T.T.T.T.T.T.T.T.T.T.T.T.T.X X X X T.T.T.T.X X T.T.T.T.T.T.T.T.T.T.T.T.T.T.T.T.T.T.T.T.T.T.T.T.T.T.",
"T.T.T.T.T.T.T.T.T.T.T.T.T.T.T.T.T.T.T.T.T.T.T.T.T.T.T.T.+ # + + T.T.T.T.+ + T.T.T.T.T.T.T.T.T.T.T.T.T.T.T.T.T.T.T.T.T.T.T.T.T.T.",
"T.T.T.T.T.T.T.T.T.T.T.T.T.T.T.T.T.T.T.T.T.T.X X X X X + > 5 5 > + . . + > > + . T.T.T.T.T.T.T.T.T.T.T.T.T.T.T.T.T.T.T.T.T.T.T.T.",
"T.T.T.T.T.T.T.T.T.T.T.T.T.T.T.T.T.T.T.T.T.T.# # # # + = y g g y - + + - y y = + T.T.T.T.T.T.T.T.T.T.T.T.T.T.T.T.T.T.T.T.T.T.T.T.",
"T.T.T.T.T.T.T.T.T.T.T.T.T.T.T.T.T.T.T.T.X # 3 e 5 5 5 y l z x l r 5 5 r g h y > + X T.T.T.T.T.T.T.T.T.T.T.T.T.T.T.T.T.T.T.T.T.T.",
"T.T.T.T.T.T.T.T.T.T.T.T.T.T.T.T.T.T.T.T.X + > r y f f g C I P z h f f g K K g t : # T.T.T.T.T.T.T.T.T.T.T.T.T.T.T.T.T.T.T.T.T.T.",
"T.T.T.T.T.T.T.T.T.T.T.T.T.T.T.T.T.T.T.T.T.T.O - a z x C P P U P B B B B P P B B g 6 # . T.T.T.T.T.T.T.T.T.T.T.T.T.T.T.T.T.T.T.T.",
"T.T.T.T.T.T.T.T.T.T.T.T.T.T.T.T.T.T.T.T.T.T.# 3 l U I P P P P P P P U P P P K U U g : + T.T.T.T.T.T.T.T.T.T.T.T.T.T.T.T.T.T.T.T.",
"T.T.T.T.T.T.T.T.T.T.T.T.T.T.T.T.T.T.T.T.X % t g z U P P P U P U P P P P P P P P P z t > + . T.T.T.T.T.T.T.T.T.T.T.T.T.T.T.T.T.T.",
"T.T.T.T.T.T.T.T.T.T.T.T.T.T.T.T.T.T.T.T.. % a U U P P P z z z z P K B B B P P P P B f e = # T.T.T.T.T.T.T.T.T.T.T.T.T.T.T.T.T.T.",
"T.T.T.T.T.T.T.T.T.T.T.T.T.T.T.T.T.T.T.T.. % a U P P P z f i f l B B g f B P P P P B f y r > # X T.T.T.T.T.T.T.T.T.T.T.T.T.T.T.T.",
"T.T.T.T.T.T.T.T.T.T.T.T.T.T.T.T.T.T.T.T.# : a K P P P P I x f i B U Y P P K P P P B g i r > + . T.T.T.T.T.T.T.T.T.T.T.T.T.T.T.T.",
"T.T.T.T.T.T.T.T.T.T.T.T.T.T.T.T.T.T.X # 3 r i g z P x ~ 2.<.x a z ^ 5.2.~ B K P P P P a : # T.T.T.T.T.T.T.T.T.T.T.T.T.T.T.T.T.T.",
"T.T.T.T.T.T.T.T.T.T.T.T.T.T.T.T.T.T.X + 3 e y f z I _ :.v.z.*.L K ^ s.x.>.~ Y K P U P a %   T.T.T.T.T.T.T.T.T.T.T.T.T.T.T.T.T.T.",
"T.T.T.T.T.T.T.T.T.T.T.T.T.T.T.T.T.T.T.T.# = 5 f h ~ 5.x.N.N.s.>.E ^ t.N.c.w.~ K K P U a %   T.T.T.T.T.T.T.T.T.T.T.T.T.T.T.T.T.T.",
"T.T.T.T.T.T.T.T.T.T.T.T.T.T.T.T.T.T.T.T.  # e g B @.a.b.q.q.n.v.:.-.x.n.e.<.=.~ P B P g 3 % T.T.T.T.T.T.T.T.T.T.T.T.T.T.T.T.T.T.",
"T.T.T.T.T.T.T.T.T.T.T.T.T.T.T.T.T.T.T.T.  # i B K ^ s.q.C P a.C.v.x.C.t.P z :.5.U f B B h t % . T.T.T.T.T.T.T.T.T.T.T.T.T.T.T.T.",
"T.T.T.T.T.T.T.T.T.T.T.T.T.T.T.T.T.T.T.T.# , g U T -.z.5.4 6 q.J.C.G.G.q.8 5 5.s.#.x B B h q % . T.T.T.T.T.T.T.T.T.T.T.T.T.T.T.T.",
"T.T.T.T.T.T.T.T.T.T.T.T.T.T.T.T.T.T.X * 5 i B T %.6.c.5.t i q.K.G.G.J.e.u y w.c.3.+.L i , % T.T.T.T.T.T.T.T.T.T.T.T.T.T.T.T.T.T.",
"T.T.T.T.T.T.T.T.T.T.T.T.T.T.T.T.T.T.X # 4 i h T $.4.c.e.E ~ d.J.J.J.J.x.~ ~ e.c.4.+.L r + . T.T.T.T.T.T.T.T.T.T.T.T.T.T.T.T.T.T.",
"T.T.T.T.T.T.T.T.T.T.T.T.T.T.T.T.T.T.T.T.# - i K L @.z.N.d.v.C.J.J.G.G.C.v.x.n.s.@.L z r # . T.T.T.T.T.T.T.T.T.T.T.T.T.T.T.T.T.T.",
"T.T.T.T.T.T.T.T.T.T.T.T.T.T.T.T.T.T.T.T.. # 4 t i Y >.x.C.K.J.G.G.G.G.J.K.C.v.>.I f u 5 # X T.T.T.T.T.T.T.T.T.T.T.T.T.T.T.T.T.T.",
"T.T.T.T.T.T.T.T.T.T.T.T.T.T.T.T.T.T.T.T.T.T.# - i z I =.c.G.G.H.G.G.G.G.G.x.=.I z u - # T.T.T.T.T.T.T.T.T.T.T.T.T.T.T.T.T.T.T.T.",
"T.T.T.T.T.T.T.T.T.T.T.T.T.T.T.T.T.T.T.T.T.T.. # 3 r f P *.e.N.D.C.G.G.N.q.=.P i t 5 # . T.T.T.T.T.T.T.T.T.T.T.T.T.T.T.T.T.T.T.T.",
"T.T.T.T.T.T.T.T.T.T.T.T.T.T.T.T.T.T.T.T.T.T.T.T.# - t a r P e.C.C.C.C.e.P 6 i y - # T.T.T.T.T.T.T.T.T.T.T.T.T.T.T.T.T.T.T.T.T.T.",
"T.T.T.T.T.T.T.T.T.T.T.T.T.T.T.T.T.T.T.T.T.T.T.T.o - a p * 6 1.B.n.B.B.1.9 * s a ; o T.T.T.T.T.T.T.T.T.T.T.T.T.T.T.T.T.T.T.T.T.T.",
"T.T.T.T.T.T.T.T.T.T.T.T.T.T.T.T.T.T.T.T.T.T.X o = 9 D D 8 d 7.M.m.m.m.7.j 8 D D u = O X T.T.T.T.T.T.T.T.T.T.T.T.T.T.T.T.T.T.T.T.",
"T.T.T.T.T.T.T.T.T.T.T.T.T.T.T.T.T.T.T.T.T.T.X # : k ( ( k P y.S.S.A.Z.0.C k ( ( k - O . T.T.T.T.T.T.T.T.T.T.T.T.T.T.T.T.T.T.T.T.",
"T.T.T.T.T.T.T.T.T.T.T.T.T.T.T.T.T.T.T.T.T.T.. o : s ( ( m Q g.P.L.F.A.0.R m ( ( j : O X T.T.T.T.T.T.T.T.T.T.T.T.T.T.T.T.T.T.T.T.",
"T.T.T.T.T.T.T.T.T.T.T.T.T.T.T.T.T.T.T.T.T.T.o % 3 k ' ' S ! l.U.U.P.D.u.Q V ' ' s , % O T.T.T.T.T.T.T.T.T.T.T.T.T.T.T.T.T.T.T.T.",
"T.T.T.T.T.T.T.T.T.T.T.T.T.T.T.T.T.T.T.T.X O = 3 4 k o.o.S ! l.U.U.I.P.g.! S o.X.k 4 3 = O X T.T.T.T.T.T.T.T.T.T.T.T.T.T.T.T.T.T.",
"T.T.T.T.T.T.T.T.T.T.T.T.T.T.T.T.T.T.T.T.X # 3 6 6 k X.o.S ! g.P.I.U.U.j.) S o.o.k 6 6 < + X T.T.T.T.T.T.T.T.T.T.T.T.T.T.T.T.T.T.",
"T.T.T.T.T.T.T.T.T.T.T.T.T.T.T.T.T.T.T.T.  @ 6 s 9 k ' ' V Q u.D.P.U.U.j.) V ' ' d q s 6 @ X T.T.T.T.T.T.T.T.T.T.T.T.T.T.T.T.T.T.",
"T.T.T.T.T.T.T.T.T.T.T.T.T.T.T.T.T.T.T.T.@ , q u 4 9 A D m Q p.D.L.P.U.l.) m D A 9 4 u q = @ T.T.T.T.T.T.T.T.T.T.T.T.T.T.T.T.T.T.",
"T.T.T.T.T.T.T.T.T.T.T.T.T.T.T.T.T.T.X @ , u s 9 = % 9 s k ) h.P.D.F.I.l.` a s 6 = = 9 s q 4 @ X T.T.T.T.T.T.T.T.T.T.T.T.T.T.T.T.",
"T.T.T.T.T.T.T.T.T.T.T.T.T.T.T.T.T.T.X = C ` / N = o : 6 u W r.l.i.i.k.r.W u 6 : o = N ` ` C =   T.T.T.T.T.T.T.T.T.T.T.T.T.T.T.T.",
"T.T.T.T.T.T.T.T.T.T.T.T.T.T.T.T.T.T.  4 ,.n.x.=.3 o : 6 6 s } ........} d 6 6 : o 4 =.d.n.,.4   T.T.T.T.T.T.T.T.T.T.T.T.T.T.T.T.",
"T.T.T.T.T.T.T.T.T.T.T.T.T.T.T.T.T.T.  8 :.t.9._ , @ < q q v M G G G G F v u q < o , _ 9.t.:.9   T.T.T.T.T.T.T.T.T.T.T.T.T.T.T.T.",
"T.T.T.T.T.T.T.T.T.T.T.T.T.T.T.T.T.T.T.T.9 t 9 > + $ w F H H { { { { { { J H F w $ + > 9 t 9 T.T.T.T.T.T.T.T.T.T.T.T.T.T.T.T.T.T.",
"T.T.T.T.T.T.T.T.T.T.T.T.T.T.T.T.T.T.T.T.        X & b ] |  . . .| {  . . .| G c & X         T.T.T.T.T.T.T.T.T.T.T.T.T.T.T.T.T.T.",
"T.T.T.T.T.T.T.T.T.T.T.T.T.T.T.T.T.T.T.T.T.T.T.T.X $ c G |  . .| [ [ |  . .{ ] b & X T.T.T.T.T.T.T.T.T.T.T.T.T.T.T.T.T.T.T.T.T.T.",
"T.T.T.T.T.T.T.T.T.T.T.T.T.T.T.T.T.T.T.T.T.T.T.T.X $ b G |  .| H b b H |  .| G c & X T.T.T.T.T.T.T.T.T.T.T.T.T.T.T.T.T.T.T.T.T.T.",
"T.T.T.T.T.T.T.T.T.T.T.T.T.T.T.T.T.T.T.T.T.T.T.T.X $ c G | | [ b 1 1 b [ | | H c & X T.T.T.T.T.T.T.T.T.T.T.T.T.T.T.T.T.T.T.T.T.T.",
"T.T.T.T.T.T.T.T.T.T.T.T.T.T.T.T.T.T.T.T.T.T.T.T.X $ c H [ J n 0 @ $ 0 n [ { ] c & X T.T.T.T.T.T.T.T.T.T.T.T.T.T.T.T.T.T.T.T.T.T.",
"T.T.T.T.T.T.T.T.T.T.T.T.T.T.T.T.T.T.T.T.T.T.T.T.X & b G ] n 2 $ T.T.$ 2 b ] G c & X T.T.T.T.T.T.T.T.T.T.T.T.T.T.T.T.T.T.T.T.T.T.",
"T.T.T.T.T.T.T.T.T.T.T.T.T.T.T.T.T.T.T.T.T.T.T.T.X @ 0 M F w $   T.T.. $ w M M w $ X T.T.T.T.T.T.T.T.T.T.T.T.T.T.T.T.T.T.T.T.T.T.",
"T.T.T.T.T.T.T.T.T.T.T.T.T.T.T.T.T.T.T.T.T.T.T.T.. O , 9 q 3 @ X T.T.X O , q q , O   T.T.T.T.T.T.T.T.T.T.T.T.T.T.T.T.T.T.T.T.T.T.",
"T.T.T.T.T.T.T.T.T.T.T.T.T.T.T.T.T.T.T.T.T.T.T.T.% ; 4 6 4 - o X T.T.X O - 5 6 4 ; % T.T.T.T.T.T.T.T.T.T.T.T.T.T.T.T.T.T.T.T.T.T.",
"T.T.T.T.T.T.T.T.T.T.T.T.T.T.T.T.T.T.T.T.T.T.X % 7 j j a 6 - O X T.T.X + - 6 p j j 7 % X T.T.T.T.T.T.T.T.T.T.T.T.T.T.T.T.T.T.T.T.",
"T.T.T.T.T.T.T.T.T.T.T.T.T.T.T.T.T.T.T.T.T.T.X % 7 j j p 5 = O X T.T.X o = 4 p j j 9 # X T.T.T.T.T.T.T.T.T.T.T.T.T.T.T.T.T.T.T.T.",
"T.T.T.T.T.T.T.T.T.T.T.T.T.T.T.T.T.T.T.T.T.T.X O ; : ; ; % + o X T.T.X o + * = : : ; O X T.T.T.T.T.T.T.T.T.T.T.T.T.T.T.T.T.T.T.T.",
"T.T.T.T.T.T.T.T.T.T.T.T.T.T.T.T.T.T.T.T.T.T.T.T.T.T.T.T.T.T.T.T.T.T.T.T.T.T.T.T.T.T.T.T.T.T.T.T.T.T.T.T.T.T.T.T.T.T.T.T.T.T.T.T.",
"T.T.T.T.T.T.T.T.T.T.T.T.T.T.T.T.T.T.T.T.T.T.T.T.T.T.T.T.T.T.T.T.T.T.T.T.T.T.T.T.T.T.T.T.T.T.T.T.T.T.T.T.T.T.T.T.T.T.T.T.T.T.T.T.",
"T.T.T.T.T.T.T.T.T.T.T.T.T.T.T.T.T.T.T.T.T.T.T.T.T.T.T.T.T.T.T.T.T.T.T.T.T.T.T.T.T.T.T.T.T.T.T.T.T.T.T.T.T.T.T.T.T.T.T.T.T.T.T.T."
};
