/* XPM */
static char *result[] = {
/* columns rows colors chars-per-pixel */
"64 64 173 2 ",
"   c #060603",
".  c #090704",
"X  c #0A0805",
"o  c #130F0C",
"O  c #16110E",
"+  c #19130F",
"@  c #161513",
"#  c #1B1511",
"$  c #171817",
"%  c #1D1914",
"&  c #191A1A",
"*  c #211B16",
"=  c #251D19",
"-  c #2A1E1B",
";  c #26201C",
":  c #2C221D",
">  c #32231F",
",  c #2E2523",
"<  c #2F2826",
"1  c #222729",
"2  c #24292B",
"3  c #322521",
"4  c #362925",
"5  c #3B2A25",
"6  c #3C2E2A",
"7  c #383226",
"8  c #373129",
"9  c #3D332B",
"0  c #2B3337",
"q  c #3D3332",
"w  c #32363A",
"e  c #33383C",
"r  c #3A3B3E",
"t  c #422E2A",
"y  c #402C27",
"u  c #44312D",
"i  c #49322D",
"p  c #453D2F",
"a  c #453531",
"s  c #4C3632",
"d  c #443B35",
"f  c #4C3B35",
"g  c #473C39",
"h  c #493E3B",
"j  c #533A35",
"k  c #553E39",
"l  c #583F3A",
"z  c #4D4536",
"x  c #4A4239",
"c  c #53433A",
"v  c #5C433E",
"b  c #62403C",
"n  c #343E44",
"m  c #354046",
"M  c #3C464D",
"N  c #3E484F",
"B  c #3F4D56",
"V  c #3F4E58",
"C  c #4F4941",
"Z  c #40474E",
"A  c #41484E",
"S  c #564641",
"D  c #5E4641",
"F  c #544F46",
"G  c #5C4B44",
"H  c #5F4F48",
"J  c #555147",
"K  c #555846",
"L  c #575249",
"P  c #5B5D4B",
"I  c #404E58",
"U  c #4A5356",
"Y  c #47555E",
"T  c #49565F",
"R  c #614641",
"E  c #6A4743",
"W  c #634A45",
"Q  c #6A4E47",
"!  c #674D48",
"~  c #6A4E49",
"^  c #714E4A",
"/  c #64554E",
"(  c #73554E",
")  c #635753",
"_  c #695B54",
"`  c #6C5E58",
"'  c #765952",
"]  c #7A5C55",
"[  c #755F59",
"{  c #636D56",
"}  c #6E615B",
"|  c #7D6159",
" . c #70635D",
".. c #69725C",
"X. c #475660",
"o. c #495760",
"O. c #4D5B63",
"+. c #525F67",
"@. c #5E5F61",
"#. c #525F68",
"$. c #546169",
"%. c #58646C",
"&. c #62696B",
"*. c #727A65",
"=. c #757D69",
"-. c #666D71",
";. c #8D5654",
":. c #875F59",
">. c #845B54",
",. c #905956",
"<. c #935C59",
"1. c #87675F",
"2. c #88635B",
"3. c #8D6C63",
"4. c #926C64",
"5. c #927067",
"6. c #937369",
"7. c #9B766C",
"8. c #96786D",
"9. c #9A786C",
"0. c #9F7F73",
"q. c #A07A6F",
"w. c #AF726C",
"e. c #B0736E",
"r. c #A27D72",
"t. c #B37570",
"y. c #9E8779",
"u. c #9F8D7D",
"i. c #AC8679",
"p. c #A18F7F",
"a. c #AE897C",
"s. c #A58074",
"d. c #B28B7E",
"f. c #9D938B",
"g. c #B48D80",
"h. c #A69486",
"j. c #A89687",
"k. c #AA9888",
"l. c #BC9184",
"z. c #BF9689",
"x. c #B79184",
"c. c #A79C90",
"v. c #B2A295",
"b. c #B9A99E",
"n. c #B5A89C",
"m. c #B8ABA0",
"M. c #C19487",
"N. c #C29789",
"B. c #CC978B",
"V. c #C3988B",
"C. c #CA9D8E",
"Z. c #CBA092",
"A. c #C6AB98",
"S. c #C8AD99",
"D. c #D1A495",
"F. c #D1A897",
"G. c #DBAC9D",
"H. c #D2A898",
"J. c #C4B19C",
"K. c #C7B4A0",
"L. c #C9B7A4",
"P. c #CEBBA9",
"I. c #D1BEAC",
"U. c #E4B5A5",
"Y. c #E8B7A7",
"T. c #E7B8A8",
"R. c #E8B8A8",
"E. c #D6C4B3",
"W. c #D8C7B7",
"Q. c #DCCBBC",
"!. c #DFCFC0",
"~. c #E0D0C1",
"^. c None",
/* pixels */
"^.^.^.^.^.^.^.^.^.^.^.^.^.^.^.^.^.^.^.^.^.^.^.^.^.^.^.^.^.^.^.^.^.^.^.^.^.^.^.^.^.^.^.^.^.^.^.^.^.^.^.^.^.^.^.^.^.^.^.^.^.^.^.^.",
"^.^.^.^.^.^.^.^.^.^.^.^.^.^.^.^.^.^.^.^.^.^.^.^.^.^.^.^.^.^.^.^.^.^.^.^.^.^.^.^.^.^.^.^.^.^.^.^.^.^.^.^.^.^.^.^.^.^.^.^.^.^.^.^.",
"^.^.^.^.^.^.^.^.^.^.^.^.^.^.^.^.^.^.^.^.^.^.^.^.^.^.^.^.^.^.^.^.^.^.^.^.^.^.^.^.^.^.^.^.^.^.^.^.^.^.^.^.^.^.^.^.^.^.^.^.^.^.^.^.",
"^.^.^.^.^.^.^.^.^.^.^.^.^.^.^.^.^.^.^.^.^.^.^.^.^.^.^.^.^.^.^.^.^.^.^.^.^.^.^.^.^.^.^.^.^.^.^.^.^.^.^.^.^.^.^.^.^.^.^.^.^.^.^.^.",
"^.^.^.^.^.^.^.^.^.^.^.^.^.^.^.^.^.^.^.^.^.^.^.^.^.^.^.^.^.^.^.^.^.^.^.^.^.^.^.^.^.^.^.^.^.^.^.^.^.^.^.^.^.^.^.^.^.^.^.^.^.^.^.^.",
"^.^.^.^.^.^.^.^.^.^.^.^.^.^.^.^.^.^.^.^.^.^.^.^.^.^.^.^.^.^.^.^.^.^.^.^.^.^.^.^.^.^.^.^.^.^.^.^.^.^.^.^.^.^.^.^.^.^.^.^.^.^.^.^.",
"^.^.^.^.^.^.^.^.^.^.^.^.^.^.^.^.^.^.^.^.^.^.^.^.^.^.^.^.^.^.^.^.^.^.^.^.^.^.^.^.^.^.^.^.^.^.^.^.^.^.^.^.^.^.^.^.^.^.^.^.^.^.^.^.",
"^.^.^.^.^.^.^.^.^.^.^.^.^.^.^.^.^.^.^.^.^.^.^.^.^.^.^.^.^.^.^.^.^.^.^.^.^.^.^.^.^.^.^.^.^.^.^.^.^.^.^.^.^.^.^.^.^.^.^.^.^.^.^.^.",
"^.^.^.^.^.^.^.^.^.^.^.^.^.^.^.^.^.^.^.^.^.^.^.^.^.^.^.^.X X X X ^.^.^.^.X X ^.^.^.^.^.^.^.^.^.^.^.^.^.^.^.^.^.^.^.^.^.^.^.^.^.^.",
"^.^.^.^.^.^.^.^.^.^.^.^.^.^.^.^.^.^.^.^.^.^.^.^.^.^.^.^.+ # # + ^.^.^.^.+ + ^.^.^.^.^.^.^.^.^.^.^.^.^.^.^.^.^.^.^.^.^.^.^.^.^.^.",
"^.^.^.^.^.^.^.^.^.^.^.^.^.^.^.^.^.^.^.^.^.^.X X X X . + > 5 5 > + . . + 3 3 + . ^.^.^.^.^.^.^.^.^.^.^.^.^.^.^.^.^.^.^.^.^.^.^.^.",
"^.^.^.^.^.^.^.^.^.^.^.^.^.^.^.^.^.^.^.^.^.^.# * # # + = i l j i - + + - i t = + ^.^.^.^.^.^.^.^.^.^.^.^.^.^.^.^.^.^.^.^.^.^.^.^.",
"^.^.^.^.^.^.^.^.^.^.^.^.^.^.^.^.^.^.^.^.X # 3 5 5 5 5 t c R R k t 5 5 t k v i > + . ^.^.^.^.^.^.^.^.^.^.^.^.^.^.^.^.^.^.^.^.^.^.",
"^.^.^.^.^.^.^.^.^.^.^.^.^.^.^.^.^.^.^.^.X + > t s j j k R W ! R l j j c R R c u - * ^.^.^.^.^.^.^.^.^.^.^.^.^.^.^.^.^.^.^.^.^.^.",
"^.^.^.^.^.^.^.^.^.^.^.^.^.^.^.^.^.^.^.^.^.^.+ - f R b R W W W W v D v R ! R R v k 6 % . ^.^.^.^.^.^.^.^.^.^.^.^.^.^.^.^.^.^.^.^.",
"^.^.^.^.^.^.^.^.^.^.^.^.^.^.^.^.^.^.^.^.^.^.# 3 c ! W W W W W W ! R W W R ! R ! ! j : # ^.^.^.^.^.^.^.^.^.^.^.^.^.^.^.^.^.^.^.^.",
"^.^.^.^.^.^.^.^.^.^.^.^.^.^.^.^.^.^.^.^.X * 6 k R W ! W W W W W R R ! ! W W W W W v i > + . ^.^.^.^.^.^.^.^.^.^.^.^.^.^.^.^.^.^.",
"^.^.^.^.^.^.^.^.^.^.^.^.^.^.^.^.^.^.^.^.. % f ! ! W W R D D v v W R v D R W W W W v j 5 = + ^.^.^.^.^.^.^.^.^.^.^.^.^.^.^.^.^.^.",
"^.^.^.^.^.^.^.^.^.^.^.^.^.^.^.^.^.^.^.^.. % j ! W W W D j s j l R D k j G ! W W ! D j i y > # X ^.^.^.^.^.^.^.^.^.^.^.^.^.^.^.^.",
"^.^.^.^.^.^.^.^.^.^.^.^.^.^.^.^.^.^.^.^.# : f R W W R W ! R j s D ! ! ! R W W W R R l s i > # X ^.^.^.^.^.^.^.^.^.^.^.^.^.^.^.^.",
"^.^.^.^.^.^.^.^.^.^.^.^.^.^.^.^.^.^.X + > t s k D W D ' q.7.b s v ] r.0.( R R W W R R f - # ^.^.^.^.^.^.^.^.^.^.^.^.^.^.^.^.^.^.",
"^.^.^.^.^.^.^.^.^.^.^.^.^.^.^.^.^.^.X # 3 t i j v ~ ' 6.V.M.1.W D ] l.N.7.] ! R W ! ! f % . ^.^.^.^.^.^.^.^.^.^.^.^.^.^.^.^.^.^.",
"^.^.^.^.^.^.^.^.^.^.^.^.^.^.^.^.^.^.^.^.+ - y s v ' q.N.D.D.l.7.( ] g.D.N.r.' G R ! ! f % . ^.^.^.^.^.^.^.^.^.^.^.^.^.^.^.^.^.^.",
"^.^.^.^.^.^.^.^.^.^.^.^.^.^.^.^.^.^.^.^.. + y k v 2.l.C.i.d.Z.V.6.4.M.Z.d.8.3.' W D W j 3 % ^.^.^.^.^.^.^.^.^.^.^.^.^.^.^.^.^.^.",
"^.^.^.^.^.^.^.^.^.^.^.^.^.^.^.^.^.^.^.^.. # s D D ] l.d.G W x.G.N.N.G.x.W v 8.r.! j D D l q * . ^.^.^.^.^.^.^.^.^.^.^.^.^.^.^.^.",
"^.^.^.^.^.^.^.^.^.^.^.^.^.^.^.^.^.^.^.^.# , j ! ( 4.M.r.4 6 a.T.G.U.U.a.6 4 s.l.>.b R D l t % X ^.^.^.^.^.^.^.^.^.^.^.^.^.^.^.^.",
"^.^.^.^.^.^.^.^.^.^.^.^.^.^.^.^.^.^.X # 4 s D ^ <.t.B.r.t a g.Y.U.U.Y.g.a u s.B.e.;.E s , % ^.^.^.^.^.^.^.^.^.^.^.^.^.^.^.^.^.^.",
"^.^.^.^.^.^.^.^.^.^.^.^.^.^.^.^.^.^.X # 4 s v ^ ,.e.B.d.( ' z.Y.Y.Y.Y.N.' ( d.B.e.;.E t # . ^.^.^.^.^.^.^.^.^.^.^.^.^.^.^.^.^.^.",
"^.^.^.^.^.^.^.^.^.^.^.^.^.^.^.^.^.^.^.^.# : s D E :.l.D.M.V.G.U.T.U.U.G.V.V.D.l.2.E l t # . ^.^.^.^.^.^.^.^.^.^.^.^.^.^.^.^.^.^.",
"^.^.^.^.^.^.^.^.^.^.^.^.^.^.^.^.^.^.^.^.. # 4 u j ~ 7.N.G.Y.U.U.U.U.U.U.R.G.N.9.~ s s 4 # X ^.^.^.^.^.^.^.^.^.^.^.^.^.^.^.^.^.^.",
"^.^.^.^.^.^.^.^.^.^.^.^.^.^.^.^.^.^.^.^.^.^.# - u v ! 3.V.U.U.U.U.T.U.U.U.V.1.^ v u - # ^.^.^.^.^.^.^.^.^.^.^.^.^.^.^.^.^.^.^.^.",
"^.^.^.^.^.^.^.^.^.^.^.^.^.^.^.^.^.^.^.^.^.^.. # 4 i j R 3.g.D.U.U.G.U.D.d.3.W s a 4 # . ^.^.^.^.^.^.^.^.^.^.^.^.^.^.^.^.^.^.^.^.",
"^.^.^.^.^.^.^.^.^.^.^.^.^.^.^.^.^.^.^.^.^.^.^.^.+ - u s 9 D d.G.G.H.G.d.D 6 s u - # ^.^.^.^.^.^.^.^.^.^.^.^.^.^.^.^.^.^.^.^.^.^.",
"^.^.^.^.^.^.^.^.^.^.^.^.^.^.^.^.^.^.^.^.^.^.^.^.o ; z d * 6 0.F.D.F.F.0.9 * x f : o ^.^.^.^.^.^.^.^.^.^.^.^.^.^.^.^.^.^.^.^.^.^.",
"^.^.^.^.^.^.^.^.^.^.^.^.^.^.^.^.^.^.^.^.^.^.X O - 9 P P 8 h y.A.A.S.S.y.c 7 K P 9 = O X ^.^.^.^.^.^.^.^.^.^.^.^.^.^.^.^.^.^.^.^.",
"^.^.^.^.^.^.^.^.^.^.^.^.^.^.^.^.^.^.^.^.^.^.X O : x { { x W h.L.L.J.J.p.G x { { x : + X ^.^.^.^.^.^.^.^.^.^.^.^.^.^.^.^.^.^.^.^.",
"^.^.^.^.^.^.^.^.^.^.^.^.^.^.^.^.^.^.^.^.^.^.X o : h { { C _ v.W.E.E.J.h./ C { { h : o X ^.^.^.^.^.^.^.^.^.^.^.^.^.^.^.^.^.^.^.^.",
"^.^.^.^.^.^.^.^.^.^.^.^.^.^.^.^.^.^.^.^.^.^.O % 3 x ....L } b.~.!.W.P.j._ F ....h 3 # O ^.^.^.^.^.^.^.^.^.^.^.^.^.^.^.^.^.^.^.^.",
"^.^.^.^.^.^.^.^.^.^.^.^.^.^.^.^.^.^.^.^.. O = 3 5 x *.*.L ` b.!.Q.Q.W.v.` L =.*.C 4 3 - O X ^.^.^.^.^.^.^.^.^.^.^.^.^.^.^.^.^.^.",
"^.^.^.^.^.^.^.^.^.^.^.^.^.^.^.^.^.^.^.^.. @ 4 6 6 x *.=.L ` v.W.Q.!.!.b.} L =.*.x 5 6 3 @ X ^.^.^.^.^.^.^.^.^.^.^.^.^.^.^.^.^.^.",
"^.^.^.^.^.^.^.^.^.^.^.^.^.^.^.^.^.^.^.^.X @ 9 a 9 x ....L _ j.P.W.!.!.b.} F ....x 6 g 6 @ X ^.^.^.^.^.^.^.^.^.^.^.^.^.^.^.^.^.^.",
"^.^.^.^.^.^.^.^.^.^.^.^.^.^.^.^.^.^.^.^.# = q g 4 9 K P C _ j.P.E.W.!.b. .c P K 9 4 d q = @ ^.^.^.^.^.^.^.^.^.^.^.^.^.^.^.^.^.^.",
"^.^.^.^.^.^.^.^.^.^.^.^.^.^.^.^.^.^.X @ < q g q = % 9 g h } n.E.P.P.W.m.&.f g 9 & * q g q 4 # . ^.^.^.^.^.^.^.^.^.^.^.^.^.^.^.^.",
"^.^.^.^.^.^.^.^.^.^.^.^.^.^.^.^.^.^.. = G | [ S * o : 6 q ) f.m.c.c.m.f.) a 5 : O = S [  .G = . ^.^.^.^.^.^.^.^.^.^.^.^.^.^.^.^.",
"^.^.^.^.^.^.^.^.^.^.^.^.^.^.^.^.^.^.  4 8.Z.z.3.4 o ; 5 6 x %.&.&.&.-.@.h 6 5 - o 4 3.V.Z.8.6   ^.^.^.^.^.^.^.^.^.^.^.^.^.^.^.^.",
"^.^.^.^.^.^.^.^.^.^.^.^.^.^.^.^.^.^.  9 6.g.a.| 3 O < q q q Z B V V B M r q q < O > | i.d.6.7   ^.^.^.^.^.^.^.^.^.^.^.^.^.^.^.^.",
"^.^.^.^.^.^.^.^.^.^.^.^.^.^.^.^.^.^.^.^.9 9 9 , O $ e A A N B B Y B B B N Z Z e $ O , 9 9 9 ^.^.^.^.^.^.^.^.^.^.^.^.^.^.^.^.^.^.",
"^.^.^.^.^.^.^.^.^.^.^.^.^.^.^.^.^.^.^.^.        . & m Y X.Y Y Y Y Y Y Y Y X.Y n & .         ^.^.^.^.^.^.^.^.^.^.^.^.^.^.^.^.^.^.",
"^.^.^.^.^.^.^.^.^.^.^.^.^.^.^.^.^.^.^.^.^.^.^.^.X & m T O.$.+.$.+.$.+.$.$.O.Y m & . ^.^.^.^.^.^.^.^.^.^.^.^.^.^.^.^.^.^.^.^.^.^.",
"^.^.^.^.^.^.^.^.^.^.^.^.^.^.^.^.^.^.^.^.^.^.^.^.X & m T $.%.%.$.$.$.$.%.%.$.Y n & X ^.^.^.^.^.^.^.^.^.^.^.^.^.^.^.^.^.^.^.^.^.^.",
"^.^.^.^.^.^.^.^.^.^.^.^.^.^.^.^.^.^.^.^.^.^.^.^.X $ m Y $.%.%.$.T O.$.%.%.$.Y n & . ^.^.^.^.^.^.^.^.^.^.^.^.^.^.^.^.^.^.^.^.^.^.",
"^.^.^.^.^.^.^.^.^.^.^.^.^.^.^.^.^.^.^.^.^.^.^.^.X $ m T $.%.$.T M M T $.$.$.Y n & . ^.^.^.^.^.^.^.^.^.^.^.^.^.^.^.^.^.^.^.^.^.^.",
"^.^.^.^.^.^.^.^.^.^.^.^.^.^.^.^.^.^.^.^.^.^.^.^.X $ m T $.$.O.M 1 1 M O.$.$.o.n & . ^.^.^.^.^.^.^.^.^.^.^.^.^.^.^.^.^.^.^.^.^.^.",
"^.^.^.^.^.^.^.^.^.^.^.^.^.^.^.^.^.^.^.^.^.^.^.^.X & m T O.T M 0 @ @ 0 M O.O.T m & . ^.^.^.^.^.^.^.^.^.^.^.^.^.^.^.^.^.^.^.^.^.^.",
"^.^.^.^.^.^.^.^.^.^.^.^.^.^.^.^.^.^.^.^.^.^.^.^.X & m Y T N 2 $ ^.^.$ 1 M T Y m & X ^.^.^.^.^.^.^.^.^.^.^.^.^.^.^.^.^.^.^.^.^.^.",
"^.^.^.^.^.^.^.^.^.^.^.^.^.^.^.^.^.^.^.^.^.^.^.^.X $ w N A w $ . ^.^.. $ r U U r & X ^.^.^.^.^.^.^.^.^.^.^.^.^.^.^.^.^.^.^.^.^.^.",
"^.^.^.^.^.^.^.^.^.^.^.^.^.^.^.^.^.^.^.^.^.^.^.^.X @ < q 8 < @ X ^.^.. % q J J q % X ^.^.^.^.^.^.^.^.^.^.^.^.^.^.^.^.^.^.^.^.^.^.",
"^.^.^.^.^.^.^.^.^.^.^.^.^.^.^.^.^.^.^.^.^.^.^.^.X + > u 9 > + X ^.^.X % 7 z z 7 % X ^.^.^.^.^.^.^.^.^.^.^.^.^.^.^.^.^.^.^.^.^.^.",
"^.^.^.^.^.^.^.^.^.^.^.^.^.^.^.^.^.^.^.^.^.^.^.^.X % 9 z z p %   ^.^.^.^.% * % # ^.^.^.^.^.^.^.^.^.^.^.^.^.^.^.^.^.^.^.^.^.^.^.^.",
"^.^.^.^.^.^.^.^.^.^.^.^.^.^.^.^.^.^.^.^.^.^.^.^.  % 7 z z 9 * X ^.^.^.^.X X     ^.^.^.^.^.^.^.^.^.^.^.^.^.^.^.^.^.^.^.^.^.^.^.^.",
"^.^.^.^.^.^.^.^.^.^.^.^.^.^.^.^.^.^.^.^.^.^.^.^.^.+ * ; : ; O ^.^.^.^.^.X X X X ^.^.^.^.^.^.^.^.^.^.^.^.^.^.^.^.^.^.^.^.^.^.^.^.",
"^.^.^.^.^.^.^.^.^.^.^.^.^.^.^.^.^.^.^.^.^.^.^.^.^.^.^.^.^.^.^.^.^.^.^.^.^.^.^.^.^.^.^.^.^.^.^.^.^.^.^.^.^.^.^.^.^.^.^.^.^.^.^.^.",
"^.^.^.^.^.^.^.^.^.^.^.^.^.^.^.^.^.^.^.^.^.^.^.^.^.^.^.^.^.^.^.^.^.^.^.^.^.^.^.^.^.^.^.^.^.^.^.^.^.^.^.^.^.^.^.^.^.^.^.^.^.^.^.^.",
"^.^.^.^.^.^.^.^.^.^.^.^.^.^.^.^.^.^.^.^.^.^.^.^.^.^.^.^.^.^.^.^.^.^.^.^.^.^.^.^.^.^.^.^.^.^.^.^.^.^.^.^.^.^.^.^.^.^.^.^.^.^.^.^."
};
