/* XPM */
static char *result[] = {
/* columns rows colors chars-per-pixel */
"64 64 180 2 ",
"   c #050502",
".  c #090604",
"X  c #0A0906",
"o  c #130E0C",
"O  c #16100D",
"+  c #19120F",
"@  c #161514",
"#  c #1B1511",
"$  c #1D1913",
"%  c #171919",
"&  c #1B1C1C",
"*  c #231A16",
"=  c #251D19",
"-  c #2A1E1B",
";  c #23241B",
":  c #2C221D",
">  c #32231F",
",  c #2D2625",
"<  c #2B2B27",
"1  c #222729",
"2  c #282B2A",
"3  c #332622",
"4  c #352924",
"5  c #3A2A26",
"6  c #3C2D29",
"7  c #332C2B",
"8  c #393226",
"9  c #3D332C",
"0  c #363025",
"q  c #2B3235",
"w  c #3A3332",
"e  c #32363A",
"r  c #373C3F",
"t  c #422E2A",
"y  c #44312D",
"u  c #49332E",
"i  c #453D2F",
"p  c #453532",
"a  c #4A3531",
"s  c #453A34",
"d  c #4C3934",
"f  c #453B39",
"g  c #4A3D3B",
"h  c #533B36",
"j  c #553E39",
"k  c #583F3B",
"l  c #4C4435",
"z  c #4D443C",
"x  c #484F3E",
"c  c #54413B",
"v  c #5A423D",
"b  c #48513E",
"n  c #65433E",
"m  c #343F45",
"M  c #393F43",
"N  c #374147",
"B  c #3A454C",
"V  c #3E4245",
"C  c #4F4940",
"Z  c #40474E",
"A  c #40494F",
"S  c #474748",
"D  c #5E4641",
"F  c #524C44",
"G  c #5B4B44",
"H  c #584948",
"J  c #535344",
"K  c #5F504A",
"L  c #5B5D4C",
"P  c #525D47",
"I  c #454D53",
"U  c #4A4F55",
"Y  c #44535D",
"T  c #4A555C",
"R  c #4A5257",
"E  c #545B5F",
"W  c #614641",
"Q  c #634A45",
"!  c #684D47",
"~  c #6B4E48",
"^  c #674B46",
"/  c #714F4A",
"(  c #61524C",
")  c #71554E",
"_  c #685B55",
"`  c #755751",
"'  c #755A53",
"]  c #785B54",
"[  c #745E58",
"{  c #56614B",
"}  c #5A624C",
"|  c #616351",
" . c #666F58",
".. c #636C56",
"X. c #69745C",
"o. c #6C7B5F",
"O. c #4C5A63",
"+. c #525E66",
"@. c #525F68",
"#. c #5D5E60",
"$. c #55626A",
"%. c #59656D",
"&. c #5B6770",
"*. c #62676B",
"=. c #606165",
"-. c #7E6B63",
";. c #6F7E62",
":. c #7F7068",
">. c #656C70",
",. c #706E71",
"<. c #747273",
"1. c #797678",
"2. c #8F5855",
"3. c #905956",
"4. c #80635A",
"5. c #88635B",
"6. c #8B6A61",
"7. c #96746A",
"8. c #9B766C",
"9. c #9C796E",
"0. c #9E7F72",
"q. c #A56964",
"w. c #AF726C",
"e. c #A37D72",
"r. c #6F8062",
"t. c #718063",
"y. c #9F8073",
"u. c #9F857B",
"i. c #9E8A7B",
"p. c #95877B",
"a. c #A48074",
"s. c #A88276",
"d. c #AC8679",
"f. c #AE8A7D",
"g. c #B28A7D",
"h. c #B18278",
"j. c #998F88",
"k. c #9A8C82",
"l. c #AB8E84",
"z. c #B38D80",
"x. c #B88E81",
"c. c #A69384",
"v. c #A89687",
"b. c #A7908B",
"n. c #BE9285",
"m. c #AC9F92",
"M. c #B09F92",
"N. c #B2A194",
"B. c #B6A699",
"V. c #BFAFA2",
"C. c #B5ACA1",
"Z. c #C1978A",
"A. c #C2988B",
"S. c #CB9E8F",
"D. c #C69689",
"F. c #C79E90",
"G. c #CB9F91",
"H. c #C7AC99",
"J. c #CAA498",
"K. c #D2A596",
"L. c #D1A897",
"P. c #D7A798",
"I. c #D5A999",
"U. c #DAAA9B",
"Y. c #C4B19C",
"T. c #C4B3A2",
"R. c #C9B7A4",
"E. c #D1BEAB",
"W. c #E4B4A4",
"Q. c #E7B8A7",
"!. c #E8B8A7",
"~. c #EABAA9",
"^. c #D1C0AE",
"/. c #D6C5B6",
"(. c #D9C8B6",
"). c #DCCBBB",
"_. c #D9C7B5",
"`. c #DFCFC0",
"'. c #E0D0C1",
"]. c None",
/* pixels */
"].].].].].].].].].].].].].].].].].].].].].].].].].].].].].].].].].].].].].].].].].].].].].].].].].].].].].].].].].].].].].].].].",
"].].].].].].].].].].].].].].].].].].].].].].].].].].].].].].].].].].].].].].].].].].].].].].].].].].].].].].].].].].].].].].].].",
"].].].].].].].].].].].].].].].].].].].].].].].].].].].].].].].].].].].].].].].].].].].].].].].].].].].].].].].].].].].].].].].].",
"].].].].].].].].].].].].].].].].].].].].].].].].].].].].].].].].].].].].].].].].].].].].].].].].].].].].].].].].].].].].].].].].",
"].].].].].].].].].].].].].].].].].].].].].].].].].].].].].].].].].].].].].].].].].].].].].].].].].].].].].].].].].].].].].].].].",
"].].].].].].].].].].].].].].].].].].].].].].].].].].].].].].].].].].].].].].].].].].].].].].].].].].].].].].].].].].].].].].].].",
"].].].].].].].].].].].].].].].].].].].].].].].].].].].].].].].].].].].].].].].].].].].].].].].].].].].].].].].].].].].].].].].].",
"].].].].].].].].].].].].].].].].].].].].].].].].].].].].].].].].].].].].].].].].].].].].].].].].].].].].].].].].].].].].].].].].",
"].].].].].].].].].].].].].].].].].].].].].].].].].].].].].].].].].].].].].].].].].].].].].].].].].].].].].].].].].].].].].].].].",
"].].].].].].].].].].].].].].].].].].].].].].].].].].].].].].].].].].].].].].].].].].].].].].].].].].].].].].].].].].].].].].].].",
"].].].].].].].].].].].].].].].].].].].].].].].].].].].].].].X X ].].X X X X ].].].].].].].].].].].].].].].].].].].].].].].].].].",
"].].].].].].].].].].].].].].].].].].].].].].].].].].].].].].+ + ].].# # # + ].].].].].].].].].].].].].].].].].].].].].].].].].].",
"].].].].].].].].].].].].].].].].].].].].].].].].].].X X . + > : + + > 5 t > + . X X ].].].].].].].].].].].].].].].].].].].].].].",
"].].].].].].].].].].].].].].].].].].].].].].].].].].# $ # , u u = = t h h t - # # + ].].].].].].].].].].].].].].].].].].].].].].",
"].].].].].].].].].].].].].].].].].].].].].].].].. # 5 p d j v j t t j D W k a t 5 > + . X X ].].].].].].].].].].].].].].].].].].",
"].].].].].].].].].].].].].].].].].].].].].].].].. # 5 d D ! Q D k k W ^ ^ Q v v j y - + # # ].].].].].].].].].].].].].].].].].].",
"].].].].].].].].].].].].].].].].].].].].].].].].].].# : j ! ^ Q D D Q Q Q Q Q Q W j t 5 t 5 # X ].].].].].].].].].].].].].].].].",
"].].].].].].].].].].].].].].].].].].].].].].].].].].+ : g ! Q Q Q Q Q Q Q Q Q Q Q W j h j y # X ].].].].].].].].].].].].].].].].",
"].].].].].].].].].].].].].].].].].].].].].].].].X # 5 d v ^ ^ Q Q Q Q Q Q Q Q Q Q W j j j y # X ].].].].].].].].].].].].].].].].",
"].].].].].].].].].].].].].].].].].].].].].].].].X # u v v D D D Q Q Q Q Q Q Q Q Q Q v v k y # . ].].].].].].].].].].].].].].].].",
"].].].].].].].].].].].].].].].].].].].].].].].].. $ u v h a d c D Q Q Q Q Q Q Q Q Q D D n t # . ].].].].].].].].].].].].].].].].",
"].].].].].].].].].].].].].].].].].].].].].].].].+ : j ~ / n h d D Q D D W Q Q Q Q Q Q D h t - # ].].].].].].].].].].].].].].].].",
"].].].].].].].].].].].].].].].].].].].].].].X + > u v ] e.8.n d D D h h W Q Q Q Q Q v j h u t > # X ].].].].].].].].].].].].].].",
"].].].].].].].].].].].].].].].].].].].].].].X + > u c 4.n.n.5.^ W Q ~ ~ Q G Q Q Q W v j h t t > + X ].].].].].].].].].].].].].].",
"].].].].].].].].].].].].].].].].].].].].].].].].+ : d 4.n.K.n.8.` ` e.e.` D D Q Q Q W v h 5 * # ].].].].].].].].].].].].].].].].",
"].].].].].].].].].].].].].].].].].].].].].].].].  = D 6.8.f.S.Z.7.6.9.9.6.` ~ D D W Q W h t - # ].].].].].].].].].].].].].].].].",
"].].].].].].].].].].].].].].].].].].].].].].].].  3 6.9.v G d.K.G.e.H D 9.e.[ D h h D W k h u 4 # X ].].].].].].].].].].].].].].",
"].].].].].].].].].].].].].].].].].].].].].].].].+ d d.s.5 5 a.W.~.l.6 5 e.D.7.` ^ W Q W k j a 5 # X ].].].].].].].].].].].].].].",
"].].].].].].].].].].].].].].].].].].].].].].X + : Q g.s.y y d.!.~.z.p t e.K.Z.e.q.3.~ W k p : # ].].].].].].].].].].].].].].].].",
"].].].].].].].].].].].].].].].].].].].].].].X + > Q g.n.` ' A.!.~.Z.` ` g.P.U.S.w.3.~ D k u # . ].].].].].].].].].].].].].].].].",
"].].].].].].].].].].].].].].].].].].].].].].].].o u s.K.A.A.U.Q.Q.U.D.n.S.K.P.D.3.W v k k u # X ].].].].].].].].].].].].].].].].",
"].].].].].].].].].].].].].].].].].].].].].].].].  4 4.g.I.!.Q.Q.W.Q.!.W.P.S.D.8.~ h j h p 4 # X ].].].].].].].].].].].].].].].].",
"].].].].].].].].].].].].].].].].].].].].].].].].].].3 Q z.W.W.W.W.Q.Q.W.U.Z.6.^ v j j p - # ].].].].].].].].].].].].].].].].].].",
"].].].].].].].].].].].].].].].].].].].].].].].].].].  4 4.g.K.W.W.W.W.K.z.6.Q h j h a 4 # . ].].].].].].].].].].].].].].].].].].",
"].].].].].].].].].].].].].].].].].].].].].].].].].].].].3 Q d.U.P.P.U.z.Q 6 a h j u : @ ].].].].].].].].].].].].].].].].].].].].",
"].].].].].].].].].].].].].].].].].].].].].].].].].].].].X 9 0.L.J.K.L.0.9 & d D c 6 +   ].].].].].].].].].].].].].].].].].].].].",
"].].].].].].].].].].].].].].].].].].].].].].].].].].X O * j u.H.H.H.H.u.g 8 L | l 3 o . ].].].].].].].].].].].].].].].].].].].].",
"].].].].].].].].].].].].].].].].].].].].].].].].].].X + , G v.R.R.R.Y.i.v s } } s 3 : ; ].].].].].].].].].].].].].].].].].].].].",
"].].].].].].].].].].].].].].].].].].].].].].].].].].X O - ( m.(./.^.T.i.G 9 c C w s J b ; . ].].].].].].].].].].].].].].].].].].",
"].].].].].].].].].].].].].].].].].].].].].].].].].].X o : ( B.'.).(.E.c.( 9 f f 9 z  .} ; . ].].].].].].].].].].].].].].].].].].",
"].].].].].].].].].].].].].].].].].].].].].].].].].].X o - ( B.'.'.).).B._ f g g g F X.} ; . ].].].].].].].].].].].].].].].].].].",
"].].].].].].].].].].].].].].].].].].].].].].].].].].X + - ( m.(.)./.T.k._ g g z C K X.} 1 X ].].].].].].].].].].].].].].].].].].",
"].].].].].].].].].].].].].].].].].].].].].].].].].].X o : Q c.E.).V.:.H C g g F L ;.;.P ; . ].].].].].].].].].].].].].].].].].].",
"].].].].].].].].].].].].].].].].].].].].].].].].].].X + - G v.E.(.m.K 6 s g f F ..r.r.{ ; . ].].].].].].].].].].].].].].].].].].",
"].].].].].].].].].].].].].].].].].].].].].].].].].].X o - ( N._.^.v.( w f f 6 f | ;.r.{ ; . ].].].].].].].].].].].].].].].].].].",
"].].].].].].].].].].].].].].].].].].].].].].].].].].X + - G j.C.m.p.-.[ [ ! t w } X.r.{ ; . ].].].].].].].].].].].].].].].].].].",
"].].].].].].].].].].].].].].].].].].].].].].].].].].X O > f E >.%.:.l.F.F.0.j w { ;.;.{ ; . ].].].].].].].].].].].].].].].].].].",
"].].].].].].].].].].].].].].].].].].].].].].].].].].X # 7 V I Y Y *.b.H.H.u.H w x P { x ; . ].].].].].].].].].].].].].].].].].].",
"].].].].].].].].].].].].].].].].].].].].].].].].].].. % S E O.+.O.%.<.1.,.$.R e < ; ; ; ].].].].].].].].].].].].].].].].].].].].",
"].].].].].].].].].].].].].].].].].].].].].].].].].].& q R %.%.$.$.@.$.+.T Y Y N % .   X ].].].].].].].].].].].].].].].].].].].].",
"].].].].].].].].].].].].].].].].].].].].].].].].. & M R @.%.%.$.O.O.$.$.$.T T N %   ].].].].].].].].].].].].].].].].].].].].].].",
"].].].].].].].].].].].].].].].].].].].].].].].].. ; I &.%.$.$.O.B B T $.%.$.O.N & . ].].].].].].].].].].].].].].].].].].].].].].",
"].].].].].].].].].].].].].].].].].].].].].].].].. & I %.%.$.O.B 1 1 B O.%.%.%.A &   ].].].].].].].].].].].].].].].].].].].].].].",
"].].].].].].].].].].].].].].].].].].].].].].].].X & A $.$.O.B q @ @ q B B R E U < $ ].].].].].].].].].].].].].].].].].].].].].].",
"].].].].].].].].].].].].].].].].].].].].].].].].X & N O.O.B 2 @ ].].% % & < z J l 8 $ X ].].].].].].].].].].].].].].].].].].].].",
"].].].].].].].].].].].].].].].].].].].].].].].].X % e Z B e % . ].].X X . @ 0 i l 0 # X ].].].].].].].].].].].].].].].].].].].].",
"].].].].].].].].].].].].].].].].].].].].].].].].  @ , 9 w , + X ].].].].].].$ $ $ # o X ].].].].].].].].].].].].].].].].].].].].",
"].].].].].].].].].].].].].].].].].].].].].].].].$ = 4 6 5 - o X ].].].].].].X X X X X X ].].].].].].].].].].].].].].].].].].].].",
"].].].].].].].].].].].].].].].].].].].].].].X $ 8 l l d 6 - + X ].].].].].].].].].].].].].].].].].].].].].].].].].].].].].].].].",
"].].].].].].].].].].].].].].].].].].].].].].X # 9 l l i 5 = o X ].].].].].].].].].].].].].].].].].].].].].].].].].].].].].].].].",
"].].].].].].].].].].].].].].].].].].].].].].].+ ; : ; ; $ # o ].].].].].].].].].].].].].].].].].].].].].].].].].].].].].].].].].",
"].].].].].].].].].].].].].].].].].].].].].].].].].].].].].].].].].].].].].].].].].].].].].].].].].].].].].].].].].].].].].].].].",
"].].].].].].].].].].].].].].].].].].].].].].].].].].].].].].].].].].].].].].].].].].].].].].].].].].].].].].].].].].].].].].].].",
"].].].].].].].].].].].].].].].].].].].].].].].].].].].].].].].].].].].].].].].].].].].].].].].].].].].].].].].].].].].].].].].]."
};
