/* XPM */
static char *result[] = {
/* columns rows colors chars-per-pixel */
"64 64 175 2 ",
"   c #060502",
".  c #090704",
"X  c #0A0806",
"o  c #0D0C0A",
"O  c #140F0C",
"+  c #16100D",
"@  c #19120F",
"#  c #161514",
"$  c #1B1511",
"%  c #171817",
"&  c #1D1913",
"*  c #171818",
"=  c #1C1D1D",
"-  c #231A16",
";  c #251D19",
":  c #2A1E1B",
">  c #23241C",
",  c #2C221D",
"<  c #32231F",
"1  c #2D2626",
"2  c #292823",
"3  c #232729",
"4  c #332622",
"5  c #352924",
"6  c #3A2A26",
"7  c #302928",
"8  c #3C2D2A",
"9  c #383126",
"0  c #373129",
"q  c #3D322B",
"w  c #293034",
"e  c #3A3131",
"r  c #32373A",
"t  c #3B393C",
"y  c #422E2A",
"u  c #44312D",
"i  c #49332E",
"p  c #453D2F",
"a  c #463532",
"s  c #4A3531",
"d  c #453A35",
"f  c #4C3934",
"g  c #473A39",
"h  c #493E3A",
"j  c #533B36",
"k  c #553D39",
"l  c #583F3B",
"z  c #4A4236",
"x  c #444038",
"c  c #4D433C",
"v  c #444E3B",
"b  c #54413B",
"n  c #5A423E",
"m  c #48513E",
"M  c #65433E",
"N  c #333E44",
"B  c #384147",
"V  c #3B454C",
"C  c #3F484F",
"Z  c #3F4E56",
"A  c #3F4E58",
"S  c #40474E",
"D  c #41494E",
"F  c #5E4641",
"G  c #544A44",
"H  c #5C4B44",
"J  c #5C4E4B",
"K  c #5A564B",
"L  c #555847",
"P  c #434D53",
"I  c #404E58",
"U  c #45535C",
"Y  c #49565E",
"T  c #4B5056",
"R  c #50575A",
"E  c #5A5C5E",
"W  c #614641",
"Q  c #634A45",
"!  c #684D47",
"~  c #6B4E48",
"^  c #6B4742",
"/  c #714F4A",
"(  c #62524C",
")  c #6A524C",
"_  c #71554E",
"`  c #665851",
"'  c #675D58",
"]  c #755751",
"[  c #755A52",
"{  c #785B54",
"}  c #56624C",
"|  c #5B614E",
" . c #616250",
".. c #646C55",
"X. c #6D6C58",
"o. c #6F765E",
"O. c #495760",
"+. c #4D5A63",
"@. c #525F67",
"#. c #515F68",
"$. c #5D5E60",
"%. c #5A6163",
"&. c #55616A",
"*. c #59656E",
"=. c #62696B",
"-. c #626367",
";. c #676E71",
":. c #8F5855",
">. c #905956",
",. c #80635A",
"<. c #88635B",
"1. c #8B6A61",
"2. c #96746A",
"3. c #9B766C",
"4. c #9C796E",
"5. c #9F7F73",
"6. c #A56964",
"7. c #AF726C",
"8. c #A37E72",
"9. c #86886F",
"0. c #9E8779",
"q. c #9F8879",
"w. c #9D8474",
"e. c #A48074",
"r. c #A88276",
"t. c #AC8679",
"y. c #AE8A7D",
"u. c #A1897E",
"i. c #B28A7D",
"p. c #B18278",
"a. c #988E86",
"s. c #9A8F88",
"d. c #B38D80",
"f. c #B88E81",
"g. c #A59384",
"h. c #AE9482",
"j. c #BE9285",
"k. c #BB9689",
"l. c #A79C90",
"z. c #AC9E91",
"x. c #B09F92",
"c. c #B2A194",
"v. c #B6A699",
"b. c #B4ABA0",
"n. c #C1978A",
"m. c #C3998B",
"M. c #CB9E8F",
"N. c #C69689",
"B. c #C59E92",
"V. c #CE9F91",
"C. c #C6AB98",
"Z. c #CBA897",
"A. c #D2A596",
"S. c #D1A897",
"D. c #D7A798",
"F. c #D5A999",
"G. c #DAAA9B",
"H. c #C4B19C",
"J. c #C7B4A0",
"K. c #C9B7A4",
"L. c #CFBCA9",
"P. c #D1BFAD",
"I. c #E4B4A4",
"U. c #E7B8A7",
"Y. c #E8B8A7",
"T. c #EABAA9",
"R. c #D6C5B4",
"E. c #D8C8B7",
"W. c #DBCBBB",
"Q. c #D8C5B3",
"!. c #E0CFBF",
"~. c #DFCFC0",
"^. c #DFD0C0",
"/. c #E0D0C1",
"(. c None",
/* pixels */
"(.(.(.(.(.(.(.(.(.(.(.(.(.(.(.(.(.(.(.(.(.(.(.(.(.(.(.(.(.(.(.(.(.(.(.(.(.(.(.(.(.(.(.(.(.(.(.(.(.(.(.(.(.(.(.(.(.(.(.(.(.(.(.(.",
"(.(.(.(.(.(.(.(.(.(.(.(.(.(.(.(.(.(.(.(.(.(.(.(.(.(.(.(.(.(.(.(.(.(.(.(.(.(.(.(.(.(.(.(.(.(.(.(.(.(.(.(.(.(.(.(.(.(.(.(.(.(.(.(.",
"(.(.(.(.(.(.(.(.(.(.(.(.(.(.(.(.(.(.(.(.(.(.(.(.(.(.(.(.(.(.(.(.(.(.(.(.(.(.(.(.(.(.(.(.(.(.(.(.(.(.(.(.(.(.(.(.(.(.(.(.(.(.(.(.",
"(.(.(.(.(.(.(.(.(.(.(.(.(.(.(.(.(.(.(.(.(.(.(.(.(.(.(.(.(.(.(.(.(.(.(.(.(.(.(.(.(.(.(.(.(.(.(.(.(.(.(.(.(.(.(.(.(.(.(.(.(.(.(.(.",
"(.(.(.(.(.(.(.(.(.(.(.(.(.(.(.(.(.(.(.(.(.(.(.(.(.(.(.(.(.(.(.(.(.(.(.(.(.(.(.(.(.(.(.(.(.(.(.(.(.(.(.(.(.(.(.(.(.(.(.(.(.(.(.(.",
"(.(.(.(.(.(.(.(.(.(.(.(.(.(.(.(.(.(.(.(.(.(.(.(.(.(.(.(.(.(.(.(.(.(.(.(.(.(.(.(.(.(.(.(.(.(.(.(.(.(.(.(.(.(.(.(.(.(.(.(.(.(.(.(.",
"(.(.(.(.(.(.(.(.(.(.(.(.(.(.(.(.(.(.(.(.(.(.(.(.(.(.(.(.(.(.(.(.(.(.(.(.(.(.(.(.(.(.(.(.(.(.(.(.(.(.(.(.(.(.(.(.(.(.(.(.(.(.(.(.",
"(.(.(.(.(.(.(.(.(.(.(.(.(.(.(.(.(.(.(.(.(.(.(.(.(.(.(.(.(.(.(.(.(.(.(.(.(.(.(.(.(.(.(.(.(.(.(.(.(.(.(.(.(.(.(.(.(.(.(.(.(.(.(.(.",
"(.(.(.(.(.(.(.(.(.(.(.(.(.(.(.(.(.(.(.(.(.(.(.(.(.(.(.(.(.(.X X (.(.X X . X (.(.(.(.(.(.(.(.(.(.(.(.(.(.(.(.(.(.(.(.(.(.(.(.(.(.",
"(.(.(.(.(.(.(.(.(.(.(.(.(.(.(.(.(.(.(.(.(.(.(.(.(.(.(.(.(.(.$ @ (.(.@ $ @ $ (.(.(.(.(.(.(.(.(.(.(.(.(.(.(.(.(.(.(.(.(.(.(.(.(.(.",
"(.(.(.(.(.(.(.(.(.(.(.(.(.(.(.(.(.(.(.(.(.(.(.(.(.(.X X . @ 4 < @ @ < 6 y < $ . . X (.(.(.(.(.(.(.(.(.(.(.(.(.(.(.(.(.(.(.(.(.(.",
"(.(.(.(.(.(.(.(.(.(.(.(.(.(.(.(.(.(.(.(.(.(.(.(.(.(.$ $ - , u u ; : y k j y ; $ $ $ (.(.(.(.(.(.(.(.(.(.(.(.(.(.(.(.(.(.(.(.(.(.",
"(.(.(.(.(.(.(.(.(.(.(.(.(.(.(.(.(.(.(.(.(.(.(.(.X $ 6 a a k F k y y k F W b a y 6 < @ . X X (.(.(.(.(.(.(.(.(.(.(.(.(.(.(.(.(.(.",
"(.(.(.(.(.(.(.(.(.(.(.(.(.(.(.(.(.(.(.(.(.(.(.(.X $ 5 f F ! Q F k l F ! Q Q F n k u ; @ $ $ (.(.(.(.(.(.(.(.(.(.(.(.(.(.(.(.(.(.",
"(.(.(.(.(.(.(.(.(.(.(.(.(.(.(.(.(.(.(.(.(.(.(.(.(.(.$ , k ! Q Q M W W Q Q Q Q W W k u 6 y 6 $ X (.(.(.(.(.(.(.(.(.(.(.(.(.(.(.(.",
"(.(.(.(.(.(.(.(.(.(.(.(.(.(.(.(.(.(.(.(.(.(.(.(.(.(.@ , k ! Q Q Q Q Q Q Q Q Q Q Q W k j l u $ X (.(.(.(.(.(.(.(.(.(.(.(.(.(.(.(.",
"(.(.(.(.(.(.(.(.(.(.(.(.(.(.(.(.(.(.(.(.(.(.(.(.X $ 5 f F Q ! W Q Q Q Q Q Q Q Q Q F l j l y - . (.(.(.(.(.(.(.(.(.(.(.(.(.(.(.(.",
"(.(.(.(.(.(.(.(.(.(.(.(.(.(.(.(.(.(.(.(.(.(.(.(.X $ i n n F n M Q Q Q Q Q Q Q Q ! W n n l y $ . (.(.(.(.(.(.(.(.(.(.(.(.(.(.(.(.",
"(.(.(.(.(.(.(.(.(.(.(.(.(.(.(.(.(.(.(.(.(.(.(.(.X & f n j f f l F J Q Q Q Q Q Q W Q W F n y $ . (.(.(.(.(.(.(.(.(.(.(.(.(.(.(.(.",
"(.(.(.(.(.(.(.(.(.(.(.(.(.(.(.(.(.(.(.(.(.(.(.(.@ , j ! ~ W j s F Q F F Q Q Q Q Q W W W l u : $ (.(.(.(.(.(.(.(.(.(.(.(.(.(.(.(.",
"(.(.(.(.(.(.(.(.(.(.(.(.(.(.(.(.(.(.(.(.(.(.X @ < i n { 8.3.M f F F j j F Q Q Q Q W F b j i y < $ X (.(.(.(.(.(.(.(.(.(.(.(.(.(.",
"(.(.(.(.(.(.(.(.(.(.(.(.(.(.(.(.(.(.(.(.(.(.X @ < u k ,.j.n.<.M W Q ~ ~ Q F Q Q Q Q F k s y y < $ X (.(.(.(.(.(.(.(.(.(.(.(.(.(.",
"(.(.(.(.(.(.(.(.(.(.(.(.(.(.(.(.(.(.(.(.(.(.(.(.@ , f ,.j.A.n.3._ ] 8.8.[ F Q Q Q Q F n j y ; + (.(.(.(.(.(.(.(.(.(.(.(.(.(.(.(.",
"(.(.(.(.(.(.(.(.(.(.(.(.(.(.(.(.(.(.(.(.(.(.(.(.  > Q <.3.y.M.n.2.1.4.4.1.[ ) F F F W F j y : $ (.(.(.(.(.(.(.(.(.(.(.(.(.(.(.(.",
"(.(.(.(.(.(.(.(.(.(.(.(.(.(.(.(.(.(.(.(.(.(.(.(.  5 1.4.n n y.A.V.8.F F 2.8.{ F j j W W n f a 6 $ X (.(.(.(.(.(.(.(.(.(.(.(.(.(.",
"(.(.(.(.(.(.(.(.(.(.(.(.(.(.(.(.(.(.(.(.(.(.(.(.+ f t.e.9 6 e.I.T.d.8 7 8.m.2.] ^ M W W n j s 6 $ X (.(.(.(.(.(.(.(.(.(.(.(.(.(.",
"(.(.(.(.(.(.(.(.(.(.(.(.(.(.(.(.(.(.(.(.(.(.X @ < ! i.r.u u y.Y.T.d.a u 8.A.n.8.6.:./ F n a : $ (.(.(.(.(.(.(.(.(.(.(.(.(.(.(.(.",
"(.(.(.(.(.(.(.(.(.(.(.(.(.(.(.(.(.(.(.(.(.(.X @ , Q i.f.[ { k.T.T.m.{ _ i.D.D.V.7.>.~ F l u $ . (.(.(.(.(.(.(.(.(.(.(.(.(.(.(.(.",
"(.(.(.(.(.(.(.(.(.(.(.(.(.(.(.(.(.(.(.(.(.(.(.(.O i r.A.m.m.G.U.U.G.m.f.V.D.D.N.<.^ n n l u $ X (.(.(.(.(.(.(.(.(.(.(.(.(.(.(.(.",
"(.(.(.(.(.(.(.(.(.(.(.(.(.(.(.(.(.(.(.(.(.(.(.(.  5 ,.i.F.Y.U.I.I.Y.T.I.D.V.N.3.~ j j j s 5 $ X (.(.(.(.(.(.(.(.(.(.(.(.(.(.(.(.",
"(.(.(.(.(.(.(.(.(.(.(.(.(.(.(.(.(.(.(.(.(.(.(.(.(.(.5 W i.I.U.I.I.U.Y.I.G.n.<.! n j k a : $ (.(.(.(.(.(.(.(.(.(.(.(.(.(.(.(.(.(.",
"(.(.(.(.(.(.(.(.(.(.(.(.(.(.(.(.(.(.(.(.(.(.(.(.(.(.  1 ,.i.A.I.G.I.I.A.d.1.W j j j a 5 $ . (.(.(.(.(.(.(.(.(.(.(.(.(.(.(.(.(.(.",
"(.(.(.(.(.(.(.(.(.(.(.(.(.(.(.(.(.(.(.(.(.(.(.(.(.(.(.(.4 H i.G.G.G.G.i.H 8 s j l i , $ (.(.(.(.(.(.(.(.(.(.(.(.(.(.(.(.(.(.(.(.",
"(.(.(.(.(.(.(.(.(.(.(.(.(.(.(.(.(.(.(.(.(.(.(.(.(.(.(.(.X u 5.S.A.A.S.8.q - d H b 6 @   (.(.(.(.(.(.(.(.(.(.(.(.(.(.(.(.(.(.(.(.",
"(.(.(.(.(.(.(.(.(.(.(.(.(.(.(.(.(.(.(.(.(.(.(.(.(.(.o O - b u.C.C.C.C.0.b 9 K  .z 4 O   (.(.(.(.(.(.(.(.(.(.(.(.(.(.(.(.(.(.(.(.",
"(.(.(.(.(.(.(.(.(.(.(.(.(.(.(.(.(.(.(.(.(.(.(.(.(.(.X + , H g.K.K.K.C.a.H z | | d 1 2 > (.(.(.(.(.(.(.(.(.(.(.(.(.(.(.(.(.(.(.(.",
"(.(.(.(.(.(.(.(.(.(.(.(.(.(.(.(.(.(.(.(.(.(.(.(.(.(.X + : ( x.E.R.R.J.g.( c G c q d L m > . (.(.(.(.(.(.(.(.(.(.(.(.(.(.(.(.(.(.",
"(.(.(.(.(.(.(.(.(.(.(.(.(.(.(.(.(.(.(.(.(.(.(.(.(.(.X O , ( v./.~.E.L.g.` g g d q z ..} > . (.(.(.(.(.(.(.(.(.(.(.(.(.(.(.(.(.(.",
"(.(.(.(.(.(.(.(.(.(.(.(.(.(.(.(.(.(.(.(.(.(.(.(.(.(.X + : ( v./.~.W.E.c.( q g g q g ..} > X (.(.(.(.(.(.(.(.(.(.(.(.(.(.(.(.(.(.",
"(.(.(.(.(.(.(.(.(.(.(.(.(.(.(.(.(.(.(.(.(.(.(.(.(.(.X + : ( z.E.W.~.~.v.( 8 d g 8 c ..} > . (.(.(.(.(.(.(.(.(.(.(.(.(.(.(.(.(.(.",
"(.(.(.(.(.(.(.(.(.(.(.(.(.(.(.(.(.(.(.(.(.(.(.(.(.(.X + , H g.L.E.~.~.v.J 8 g g 8 h ..} > X (.(.(.(.(.(.(.(.(.(.(.(.(.(.(.(.(.(.",
"(.(.(.(.(.(.(.(.(.(.(.(.(.(.(.(.(.(.(.(.(.(.(.(.(.(.X + : J g.P.R.E.~.v.J 8 g g 8 d ..} > . (.(.(.(.(.(.(.(.(.(.(.(.(.(.(.(.(.(.",
"(.(.(.(.(.(.(.(.(.(.(.(.(.(.(.(.(.(.(.(.(.(.(.(.(.(.X + : ( c.Q.L.P.W.v.J 8 g g 6 z ..L > X (.(.(.(.(.(.(.(.(.(.(.(.(.(.(.(.(.(.",
"(.(.(.(.(.(.(.(.(.(.(.(.(.(.(.(.(.(.(.(.(.(.(.(.(.(.X + : H s.b.l.l.b.s.G a Q { ) ' o.} > . (.(.(.(.(.(.(.(.(.(.(.(.(.(.(.(.(.(.",
"(.(.(.(.(.(.(.(.(.(.(.(.(.(.(.(.(.(.(.(.(.(.(.(.(.(.X + , h %.=.=.=.;.E d n 8.N.m.h.9.} >   (.(.(.(.(.(.(.(.(.(.(.(.(.(.(.(.(.(.",
"(.(.(.(.(.(.(.(.(.(.(.(.(.(.(.(.(.(.(.(.(.(.(.(.(.(.X $ 7 t D Z Z I Z V r J g.x.k.w.X.v >   (.(.(.(.(.(.(.(.(.(.(.(.(.(.(.(.(.(.",
"(.(.(.(.(.(.(.(.(.(.(.(.(.(.(.(.(.(.(.(.(.(.(.(.(.(.. % r P Z Z I I A Z S T -.' c q , > (.(.(.(.(.(.(.(.(.(.(.(.(.(.(.(.(.(.(.(.",
"(.(.(.(.(.(.(.(.(.(.(.(.(.(.(.(.(.(.(.(.(.(.(.(.(.(.X = B O.Y U Y U Y U U I U N *     X (.(.(.(.(.(.(.(.(.(.(.(.(.(.(.(.(.(.(.(.",
"(.(.(.(.(.(.(.(.(.(.(.(.(.(.(.(.(.(.(.(.(.(.(.(.(.(.X = D &.&.&.@.@.@.+.Y A I N %   (.(.(.(.(.(.(.(.(.(.(.(.(.(.(.(.(.(.(.(.(.(.",
"(.(.(.(.(.(.(.(.(.(.(.(.(.(.(.(.(.(.(.(.(.(.(.(.(.(.. > P *.*.&.&.&.*.&.O.Y U N * X (.(.(.(.(.(.(.(.(.(.(.(.(.(.(.(.(.(.(.(.(.(.",
"(.(.(.(.(.(.(.(.(.(.(.(.(.(.(.(.(.(.(.(.(.(.(.(.(.(.. = P *.*.&.Y +.@.&.@.+.Y N * X (.(.(.(.(.(.(.(.(.(.(.(.(.(.(.(.(.(.(.(.(.(.",
"(.(.(.(.(.(.(.(.(.(.(.(.(.(.(.(.(.(.(.(.(.(.(.(.(.(.  3 P *.&.Y V V Y &.*.&.+.B = X (.(.(.(.(.(.(.(.(.(.(.(.(.(.(.(.(.(.(.(.(.(.",
"(.(.(.(.(.(.(.(.(.(.(.(.(.(.(.(.(.(.(.(.(.(.(.(.(.(.X = P *.+.V 3 3 V +.&.*.&.D = X (.(.(.(.(.(.(.(.(.(.(.(.(.(.(.(.(.(.(.(.(.(.",
"(.(.(.(.(.(.(.(.(.(.(.(.(.(.(.(.(.(.(.(.(.(.(.(.(.(.X ; P #.O.N % % N Y &.*.*.I = X (.(.(.(.(.(.(.(.(.(.(.(.(.(.(.(.(.(.(.(.(.(.",
"(.(.(.(.(.(.(.(.(.(.(.(.(.(.(.(.(.(.(.(.(.(.(.(.(.(.X * B O.U N * % N O.&.*.*.P ; . (.(.(.(.(.(.(.(.(.(.(.(.(.(.(.(.(.(.(.(.(.(.",
"(.(.(.(.(.(.(.(.(.(.(.(.(.(.(.(.(.(.(.(.(.(.(.(.(.(.. % r C C r % # w C R %.%.D = . (.(.(.(.(.(.(.(.(.(.(.(.(.(.(.(.(.(.(.(.(.(.",
"(.(.(.(.(.(.(.(.(.(.(.(.(.(.(.(.(.(.(.(.(.(.(.(.(.(.X @ 1 e e 1 @ o # 2 c L K x & X (.(.(.(.(.(.(.(.(.(.(.(.(.(.(.(.(.(.(.(.(.(.",
"(.(.(.(.(.(.(.(.(.(.(.(.(.(.(.(.(.(.(.(.(.(.(.(.(.(.& > 6 6 6 : + X X $ 0 p d 0 & X (.(.(.(.(.(.(.(.(.(.(.(.(.(.(.(.(.(.(.(.(.(.",
"(.(.(.(.(.(.(.(.(.(.(.(.(.(.(.(.(.(.(.(.(.(.(.(.X & 9 z z d 8 : + X (.(.& & & & (.(.(.(.(.(.(.(.(.(.(.(.(.(.(.(.(.(.(.(.(.(.(.(.",
"(.(.(.(.(.(.(.(.(.(.(.(.(.(.(.(.(.(.(.(.(.(.(.(.X & q b z p 6 ; + X (.(.X X . . (.(.(.(.(.(.(.(.(.(.(.(.(.(.(.(.(.(.(.(.(.(.(.(.",
"(.(.(.(.(.(.(.(.(.(.(.(.(.(.(.(.(.(.(.(.(.(.(.(.(.+ > > , > & @ + (.(.(.X X X X (.(.(.(.(.(.(.(.(.(.(.(.(.(.(.(.(.(.(.(.(.(.(.(.",
"(.(.(.(.(.(.(.(.(.(.(.(.(.(.(.(.(.(.(.(.(.(.(.(.(.(.(.(.(.(.(.(.(.(.(.(.(.(.(.(.(.(.(.(.(.(.(.(.(.(.(.(.(.(.(.(.(.(.(.(.(.(.(.(.",
"(.(.(.(.(.(.(.(.(.(.(.(.(.(.(.(.(.(.(.(.(.(.(.(.(.(.(.(.(.(.(.(.(.(.(.(.(.(.(.(.(.(.(.(.(.(.(.(.(.(.(.(.(.(.(.(.(.(.(.(.(.(.(.(.",
"(.(.(.(.(.(.(.(.(.(.(.(.(.(.(.(.(.(.(.(.(.(.(.(.(.(.(.(.(.(.(.(.(.(.(.(.(.(.(.(.(.(.(.(.(.(.(.(.(.(.(.(.(.(.(.(.(.(.(.(.(.(.(.(."
};
