/* XPM */
static char *result[] = {
/* columns rows colors chars-per-pixel */
"64 64 171 2 ",
"   c #060502",
".  c #090704",
"X  c #0A0805",
"o  c #0F0C09",
"O  c #150F0D",
"+  c #16110D",
"@  c #19130F",
"#  c #161514",
"$  c #1B1511",
"%  c #161817",
"&  c #1C1914",
"*  c #171818",
"=  c #1B1C1C",
"-  c #231B17",
";  c #251D18",
":  c #2A1E1B",
">  c #23251C",
",  c #2B221D",
"<  c #32231F",
"1  c #2D2625",
"2  c #2A2820",
"3  c #232729",
"4  c #322622",
"5  c #352924",
"6  c #3A2A26",
"7  c #302928",
"8  c #3C2D2A",
"9  c #383226",
"0  c #373129",
"q  c #3E332A",
"w  c #3C3233",
"e  c #32363A",
"r  c #39373A",
"t  c #3A3D3E",
"y  c #422E2A",
"u  c #44312D",
"i  c #49332E",
"p  c #463532",
"a  c #4A3531",
"s  c #453B35",
"d  c #4C3934",
"f  c #473A39",
"g  c #493E3A",
"h  c #533B36",
"j  c #553D39",
"k  c #583F3B",
"l  c #4B4336",
"z  c #4E433C",
"x  c #444E3B",
"c  c #504437",
"v  c #54413B",
"b  c #5A423E",
"n  c #48513E",
"m  c #65433E",
"M  c #333E44",
"N  c #3B454C",
"B  c #3F484F",
"V  c #3F4E56",
"C  c #3F4E58",
"Z  c #404A4F",
"A  c #5E4641",
"S  c #544A44",
"D  c #5C4B44",
"F  c #5C4E4B",
"G  c #535246",
"H  c #595B49",
"J  c #434C52",
"K  c #404E58",
"L  c #4B5156",
"P  c #45535C",
"I  c #49565F",
"U  c #5A5C5E",
"Y  c #614641",
"T  c #634A45",
"R  c #684D47",
"E  c #6B4E48",
"W  c #6B4742",
"Q  c #714F4A",
"!  c #62524C",
"~  c #6A524C",
"^  c #71554E",
"/  c #665851",
"(  c #675D58",
")  c #755751",
"_  c #755A52",
"`  c #785B54",
"'  c #56624C",
"]  c #5B614E",
"[  c #616250",
"{  c #646C55",
"}  c #6D6C58",
"|  c #6F765E",
" . c #475660",
".. c #495760",
"X. c #4C5A63",
"o. c #525F67",
"O. c #5D5E60",
"+. c #556169",
"@. c #59656D",
"#. c #62696B",
"$. c #626367",
"%. c #676E71",
"&. c #8F5855",
"*. c #905956",
"=. c #80635A",
"-. c #88635B",
";. c #8B6A61",
":. c #96746A",
">. c #9B766C",
",. c #9C796E",
"<. c #9F7F73",
"1. c #A56964",
"2. c #AF726C",
"3. c #A37E72",
"4. c #86886F",
"5. c #9E8779",
"6. c #9F8879",
"7. c #9D8474",
"8. c #A48074",
"9. c #A88276",
"0. c #AC8679",
"q. c #AE8A7D",
"w. c #A1897E",
"e. c #B18278",
"r. c #B28A7D",
"t. c #988E86",
"y. c #9A8F88",
"u. c #B38D80",
"i. c #B88E81",
"p. c #A59384",
"a. c #AE9482",
"s. c #BE9285",
"d. c #BB9689",
"f. c #A79C90",
"g. c #AC9E91",
"h. c #B09F92",
"j. c #B2A194",
"k. c #B6A699",
"l. c #B4ABA0",
"z. c #C19587",
"x. c #C1978A",
"c. c #C3998B",
"v. c #CB9E8F",
"b. c #CA968A",
"n. c #C59E92",
"m. c #CE9F91",
"M. c #C6AB98",
"N. c #CBA897",
"B. c #D2A596",
"V. c #D1A897",
"C. c #D7A798",
"Z. c #D5A999",
"A. c #DAAA9B",
"S. c #C4B19C",
"D. c #C7B4A0",
"F. c #C9B7A4",
"G. c #CFBCA9",
"H. c #D1BFAD",
"J. c #E4B4A4",
"K. c #E7B8A7",
"L. c #E8B8A7",
"P. c #EABAA9",
"I. c #D6C5B4",
"U. c #D8C8B7",
"Y. c #DBCBBB",
"T. c #D8C5B3",
"R. c #E0CFBF",
"E. c #DFCFC0",
"W. c #DFD0C0",
"Q. c #E0D0C1",
"!. c None",
/* pixels */
"!.!.!.!.!.!.!.!.!.!.!.!.!.!.!.!.!.!.!.!.!.!.!.!.!.!.!.!.!.!.!.!.!.!.!.!.!.!.!.!.!.!.!.!.!.!.!.!.!.!.!.!.!.!.!.!.!.!.!.!.!.!.!.!.",
"!.!.!.!.!.!.!.!.!.!.!.!.!.!.!.!.!.!.!.!.!.!.!.!.!.!.!.!.!.!.!.!.!.!.!.!.!.!.!.!.!.!.!.!.!.!.!.!.!.!.!.!.!.!.!.!.!.!.!.!.!.!.!.!.",
"!.!.!.!.!.!.!.!.!.!.!.!.!.!.!.!.!.!.!.!.!.!.!.!.!.!.!.!.!.!.!.!.!.!.!.!.!.!.!.!.!.!.!.!.!.!.!.!.!.!.!.!.!.!.!.!.!.!.!.!.!.!.!.!.",
"!.!.!.!.!.!.!.!.!.!.!.!.!.!.!.!.!.!.!.!.!.!.!.!.!.!.!.!.!.!.!.!.!.!.!.!.!.!.!.!.!.!.!.!.!.!.!.!.!.!.!.!.!.!.!.!.!.!.!.!.!.!.!.!.",
"!.!.!.!.!.!.!.!.!.!.!.!.!.!.!.!.!.!.!.!.!.!.!.!.!.!.!.!.!.!.!.!.!.!.!.!.!.!.!.!.!.!.!.!.!.!.!.!.!.!.!.!.!.!.!.!.!.!.!.!.!.!.!.!.",
"!.!.!.!.!.!.!.!.!.!.!.!.!.!.!.!.!.!.!.!.!.!.!.!.!.!.!.!.!.!.!.!.!.!.!.!.!.!.!.!.!.!.!.!.!.!.!.!.!.!.!.!.!.!.!.!.!.!.!.!.!.!.!.!.",
"!.!.!.!.!.!.!.!.!.!.!.!.!.!.!.!.!.!.!.!.!.!.!.!.!.!.!.!.!.!.!.!.!.!.!.!.!.!.!.!.!.!.!.!.!.!.!.!.!.!.!.!.!.!.!.!.!.!.!.!.!.!.!.!.",
"!.!.!.!.!.!.!.!.!.!.!.!.!.!.!.!.!.!.!.!.!.!.!.!.!.!.!.!.!.!.!.!.!.!.!.!.!.!.!.!.!.!.!.!.!.!.!.!.!.!.!.!.!.!.!.!.!.!.!.!.!.!.!.!.",
"!.!.!.!.!.!.!.!.!.!.!.!.!.!.!.!.!.!.!.!.!.!.!.!.!.!.!.!.!.!.X X !.!.X X X X !.!.!.!.!.!.!.!.!.!.!.!.!.!.!.!.!.!.!.!.!.!.!.!.!.!.",
"!.!.!.!.!.!.!.!.!.!.!.!.!.!.!.!.!.!.!.!.!.!.!.!.!.!.!.!.!.!.@ @ !.!.@ $ $ @ !.!.!.!.!.!.!.!.!.!.!.!.!.!.!.!.!.!.!.!.!.!.!.!.!.!.",
"!.!.!.!.!.!.!.!.!.!.!.!.!.!.!.!.!.!.!.!.!.!.!.!.!.!.X X X @ 4 4 @ @ < 6 8 < @ . X X !.!.!.!.!.!.!.!.!.!.!.!.!.!.!.!.!.!.!.!.!.!.",
"!.!.!.!.!.!.!.!.!.!.!.!.!.!.!.!.!.!.!.!.!.!.!.!.!.!.$ $ - , u u ; : y j h y : $ $ @ !.!.!.!.!.!.!.!.!.!.!.!.!.!.!.!.!.!.!.!.!.!.",
"!.!.!.!.!.!.!.!.!.!.!.!.!.!.!.!.!.!.!.!.!.!.!.!.X $ 6 p d j A j y y j A Y v p y 6 < @ . . . !.!.!.!.!.!.!.!.!.!.!.!.!.!.!.!.!.!.",
"!.!.!.!.!.!.!.!.!.!.!.!.!.!.!.!.!.!.!.!.!.!.!.!.X $ 6 a A T T A j j A T T T A b j i : @ $ $ !.!.!.!.!.!.!.!.!.!.!.!.!.!.!.!.!.!.",
"!.!.!.!.!.!.!.!.!.!.!.!.!.!.!.!.!.!.!.!.!.!.!.!.!.!.$ , j R T T Y Y W T T T T Y Y j u 6 u 6 $ X !.!.!.!.!.!.!.!.!.!.!.!.!.!.!.!.",
"!.!.!.!.!.!.!.!.!.!.!.!.!.!.!.!.!.!.!.!.!.!.!.!.!.!.$ , j R T T T T T T T T T T T Y h h j u $ X !.!.!.!.!.!.!.!.!.!.!.!.!.!.!.!.",
"!.!.!.!.!.!.!.!.!.!.!.!.!.!.!.!.!.!.!.!.!.!.!.!.X $ 5 a A T T T T T T T T T T T T A k h k y - . !.!.!.!.!.!.!.!.!.!.!.!.!.!.!.!.",
"!.!.!.!.!.!.!.!.!.!.!.!.!.!.!.!.!.!.!.!.!.!.!.!.X $ p b b A b m T T T T T T T T T Y A b k y $ . !.!.!.!.!.!.!.!.!.!.!.!.!.!.!.!.",
"!.!.!.!.!.!.!.!.!.!.!.!.!.!.!.!.!.!.!.!.!.!.!.!.  & d A h a h j A T T T T T T T T T Y A k y $ . !.!.!.!.!.!.!.!.!.!.!.!.!.!.!.!.",
"!.!.!.!.!.!.!.!.!.!.!.!.!.!.!.!.!.!.!.!.!.!.!.!.$ , h R E W d d A T A A T T T T T T Y A k i : @ !.!.!.!.!.!.!.!.!.!.!.!.!.!.!.!.",
"!.!.!.!.!.!.!.!.!.!.!.!.!.!.!.!.!.!.!.!.!.!.X @ < i b ` ,.>.m i b A h h Y T T T T A A j h i y < $ X !.!.!.!.!.!.!.!.!.!.!.!.!.!.",
"!.!.!.!.!.!.!.!.!.!.!.!.!.!.!.!.!.!.!.!.!.!.X @ < u k =.s.c.-.W T T E E T D T T T T A h a u y < $ X !.!.!.!.!.!.!.!.!.!.!.!.!.!.",
"!.!.!.!.!.!.!.!.!.!.!.!.!.!.!.!.!.!.!.!.!.!.!.!.@ : d =.s.V.z.>.) ) 3.3._ A T T T T A A h y ; + !.!.!.!.!.!.!.!.!.!.!.!.!.!.!.!.",
"!.!.!.!.!.!.!.!.!.!.!.!.!.!.!.!.!.!.!.!.!.!.!.!.  > T -.>.r.v.z.:.;.,.,.;._ R A A A Y A h y : $ !.!.!.!.!.!.!.!.!.!.!.!.!.!.!.!.",
"!.!.!.!.!.!.!.!.!.!.!.!.!.!.!.!.!.!.!.!.!.!.!.!.  5 ;.,.b D 0.B.m.<.A A >.3.` A h h Y Y k h p 6 $ X !.!.!.!.!.!.!.!.!.!.!.!.!.!.",
"!.!.!.!.!.!.!.!.!.!.!.!.!.!.!.!.!.!.!.!.!.!.!.!.+ d 0.8.9 5 8.J.P.u.8 7 3.c.:.) W Y Y Y k h a 6 $ X !.!.!.!.!.!.!.!.!.!.!.!.!.!.",
"!.!.!.!.!.!.!.!.!.!.!.!.!.!.!.!.!.!.!.!.!.!.X @ < R r.9.u i q.L.P.u.p y 3.m.d.e.1.*.Q A A p : $ !.!.!.!.!.!.!.!.!.!.!.!.!.!.!.!.",
"!.!.!.!.!.!.!.!.!.!.!.!.!.!.!.!.!.!.!.!.!.!.X @ , T r.i.) ` d.P.P.d.` ) r.A.A.b.2.*.E A k y $ . !.!.!.!.!.!.!.!.!.!.!.!.!.!.!.!.",
"!.!.!.!.!.!.!.!.!.!.!.!.!.!.!.!.!.!.!.!.!.!.!.!.O i 9.B.c.c.A.K.K.A.x.z.m.B.A.z.*.Y A k k u $ X !.!.!.!.!.!.!.!.!.!.!.!.!.!.!.!.",
"!.!.!.!.!.!.!.!.!.!.!.!.!.!.!.!.!.!.!.!.!.!.!.!.  5 =.r.Z.L.K.J.J.J.P.J.A.m.i.>.E h h h p 6 $ X !.!.!.!.!.!.!.!.!.!.!.!.!.!.!.!.",
"!.!.!.!.!.!.!.!.!.!.!.!.!.!.!.!.!.!.!.!.!.!.!.!.!.!.5 Y r.J.K.J.J.K.J.J.A.z.;.E k k j p : $ !.!.!.!.!.!.!.!.!.!.!.!.!.!.!.!.!.!.",
"!.!.!.!.!.!.!.!.!.!.!.!.!.!.!.!.!.!.!.!.!.!.!.!.!.!.  1 =.r.B.J.J.J.J.B.i.;.Y h h h p 5 $ . !.!.!.!.!.!.!.!.!.!.!.!.!.!.!.!.!.!.",
"!.!.!.!.!.!.!.!.!.!.!.!.!.!.!.!.!.!.!.!.!.!.!.!.!.!.!.!.4 T q.A.C.C.A.r.Y q a j j d : $ !.!.!.!.!.!.!.!.!.!.!.!.!.!.!.!.!.!.!.!.",
"!.!.!.!.!.!.!.!.!.!.!.!.!.!.!.!.!.!.!.!.!.!.!.!.!.!.!.!.X q <.Z.B.B.V.<.q & s D v 8 +   !.!.!.!.!.!.!.!.!.!.!.!.!.!.!.!.!.!.!.!.",
"!.!.!.!.!.!.!.!.!.!.!.!.!.!.!.!.!.!.!.!.!.!.!.!.!.!.X O - v 6.M.M.M.M.5.z 0 H [ l 4 +   !.!.!.!.!.!.!.!.!.!.!.!.!.!.!.!.!.!.!.!.",
"!.!.!.!.!.!.!.!.!.!.!.!.!.!.!.!.!.!.!.!.!.!.!.!.!.!.X O , F p.F.F.D.M.t.D z H ] s 1 2 > !.!.!.!.!.!.!.!.!.!.!.!.!.!.!.!.!.!.!.!.",
"!.!.!.!.!.!.!.!.!.!.!.!.!.!.!.!.!.!.!.!.!.!.!.!.!.!.X + , R g.Y.U.H.D.p.~ l S S q p G n > . !.!.!.!.!.!.!.!.!.!.!.!.!.!.!.!.!.!.",
"!.!.!.!.!.!.!.!.!.!.!.!.!.!.!.!.!.!.!.!.!.!.!.!.!.!.X O : ! k.Q.E.U.G.p./ f g w 8 z { ' > X !.!.!.!.!.!.!.!.!.!.!.!.!.!.!.!.!.!.",
"!.!.!.!.!.!.!.!.!.!.!.!.!.!.!.!.!.!.!.!.!.!.!.!.!.!.X # : ! k.E.E.Y.U.j.! w f f 8 l { ' > X !.!.!.!.!.!.!.!.!.!.!.!.!.!.!.!.!.!.",
"!.!.!.!.!.!.!.!.!.!.!.!.!.!.!.!.!.!.!.!.!.!.!.!.!.!.X O : ! h.U.Y.E.E.k.! 6 s f 8 g { ' > . !.!.!.!.!.!.!.!.!.!.!.!.!.!.!.!.!.!.",
"!.!.!.!.!.!.!.!.!.!.!.!.!.!.!.!.!.!.!.!.!.!.!.!.!.!.X + , D p.G.U.E.Q.k.F 8 f f 8 g { ' > X !.!.!.!.!.!.!.!.!.!.!.!.!.!.!.!.!.!.",
"!.!.!.!.!.!.!.!.!.!.!.!.!.!.!.!.!.!.!.!.!.!.!.!.!.!.X + : D p.H.I.U.E.k.! 8 s f 6 f { ' > . !.!.!.!.!.!.!.!.!.!.!.!.!.!.!.!.!.!.",
"!.!.!.!.!.!.!.!.!.!.!.!.!.!.!.!.!.!.!.!.!.!.!.!.!.!.X + , ! h.T.H.H.Y.k.! 8 p p 8 s { ' > X !.!.!.!.!.!.!.!.!.!.!.!.!.!.!.!.!.!.",
"!.!.!.!.!.!.!.!.!.!.!.!.!.!.!.!.!.!.!.!.!.!.!.!.!.!.X + : F y.l.f.f.l.y.S p F ) ~ / | ' > X !.!.!.!.!.!.!.!.!.!.!.!.!.!.!.!.!.!.",
"!.!.!.!.!.!.!.!.!.!.!.!.!.!.!.!.!.!.!.!.!.!.!.!.!.!.X + , g +.#.$.#.#.U s b 3.m.c.a.4.' >   !.!.!.!.!.!.!.!.!.!.!.!.!.!.!.!.!.!.",
"!.!.!.!.!.!.!.!.!.!.!.!.!.!.!.!.!.!.!.!.!.!.!.!.!.!.X $ 1 s Z C C C C N r F t.n.d.7.} x > . !.!.!.!.!.!.!.!.!.!.!.!.!.!.!.!.!.!.",
"!.!.!.!.!.!.!.!.!.!.!.!.!.!.!.!.!.!.!.!.!.!.!.!.!.!.. % e J C C K C C V B L +.( z 0 2 > !.!.!.!.!.!.!.!.!.!.!.!.!.!.!.!.!.!.!.!.",
"!.!.!.!.!.!.!.!.!.!.!.!.!.!.!.!.!.!.!.!.!.!.!.!.!.!.. = N ..I I I I P I P P K M %   . . !.!.!.!.!.!.!.!.!.!.!.!.!.!.!.!.!.!.!.!.",
"!.!.!.!.!.!.!.!.!.!.!.!.!.!.!.!.!.!.!.!.!.!.!.!.!.!.X = J +.+.X.o.o.o.o.I K P M %   !.!.!.!.!.!.!.!.!.!.!.!.!.!.!.!.!.!.!.!.!.!.",
"!.!.!.!.!.!.!.!.!.!.!.!.!.!.!.!.!.!.!.!.!.!.!.!.!.!.X > J @.@.@.+.o.+.+...P P M = X !.!.!.!.!.!.!.!.!.!.!.!.!.!.!.!.!.!.!.!.!.!.",
"!.!.!.!.!.!.!.!.!.!.!.!.!.!.!.!.!.!.!.!.!.!.!.!.!.!.X = J @.@.+.X.X.+.+.o.o.I M = . !.!.!.!.!.!.!.!.!.!.!.!.!.!.!.!.!.!.!.!.!.!.",
"!.!.!.!.!.!.!.!.!.!.!.!.!.!.!.!.!.!.!.!.!.!.!.!.!.!.X = J @.+.I N N I +.+.o.I M % . !.!.!.!.!.!.!.!.!.!.!.!.!.!.!.!.!.!.!.!.!.!.",
"!.!.!.!.!.!.!.!.!.!.!.!.!.!.!.!.!.!.!.!.!.!.!.!.!.!.X ; K @.X.N 3 3 N X.+.o...M = X !.!.!.!.!.!.!.!.!.!.!.!.!.!.!.!.!.!.!.!.!.!.",
"!.!.!.!.!.!.!.!.!.!.!.!.!.!.!.!.!.!.!.!.!.!.!.!.!.!.X = Z o.I M * * M I +.+...M % X !.!.!.!.!.!.!.!.!.!.!.!.!.!.!.!.!.!.!.!.!.!.",
"!.!.!.!.!.!.!.!.!.!.!.!.!.!.!.!.!.!.!.!.!.!.!.!.!.!.X = M I I M % % M ..+.+...M = X !.!.!.!.!.!.!.!.!.!.!.!.!.!.!.!.!.!.!.!.!.!.",
"!.!.!.!.!.!.!.!.!.!.!.!.!.!.!.!.!.!.!.!.!.!.!.!.!.!.X = M L L t = $ e J L L J e % X !.!.!.!.!.!.!.!.!.!.!.!.!.!.!.!.!.!.!.!.!.!.",
"!.!.!.!.!.!.!.!.!.!.!.!.!.!.!.!.!.!.!.!.!.!.!.!.!.!.X & s n G l & # 1 w w q w 1 + X !.!.!.!.!.!.!.!.!.!.!.!.!.!.!.!.!.!.!.!.!.!.",
"!.!.!.!.!.!.!.!.!.!.!.!.!.!.!.!.!.!.!.!.!.!.!.!.!.!.X & 9 s s 5 @ + < q q q q 4 @ X !.!.!.!.!.!.!.!.!.!.!.!.!.!.!.!.!.!.!.!.!.!.",
"!.!.!.!.!.!.!.!.!.!.!.!.!.!.!.!.!.!.!.!.!.!.!.!.!.!.!.!.& & - # o $ q c c l c q & X !.!.!.!.!.!.!.!.!.!.!.!.!.!.!.!.!.!.!.!.!.!.",
"!.!.!.!.!.!.!.!.!.!.!.!.!.!.!.!.!.!.!.!.!.!.!.!.!.!.!.!.X X X X X & q l c l l q & X !.!.!.!.!.!.!.!.!.!.!.!.!.!.!.!.!.!.!.!.!.!.",
"!.!.!.!.!.!.!.!.!.!.!.!.!.!.!.!.!.!.!.!.!.!.!.!.!.!.!.!.X X X X X + > , > > , > + !.!.!.!.!.!.!.!.!.!.!.!.!.!.!.!.!.!.!.!.!.!.!.",
"!.!.!.!.!.!.!.!.!.!.!.!.!.!.!.!.!.!.!.!.!.!.!.!.!.!.!.!.!.!.!.!.!.!.!.!.!.!.!.!.!.!.!.!.!.!.!.!.!.!.!.!.!.!.!.!.!.!.!.!.!.!.!.!.",
"!.!.!.!.!.!.!.!.!.!.!.!.!.!.!.!.!.!.!.!.!.!.!.!.!.!.!.!.!.!.!.!.!.!.!.!.!.!.!.!.!.!.!.!.!.!.!.!.!.!.!.!.!.!.!.!.!.!.!.!.!.!.!.!.",
"!.!.!.!.!.!.!.!.!.!.!.!.!.!.!.!.!.!.!.!.!.!.!.!.!.!.!.!.!.!.!.!.!.!.!.!.!.!.!.!.!.!.!.!.!.!.!.!.!.!.!.!.!.!.!.!.!.!.!.!.!.!.!.!."
};
