/* XPM */
static char *result[] = {
/* columns rows colors chars-per-pixel */
"64 64 171 2 ",
"   c #040302",
".  c #090604",
"X  c #0A0906",
"o  c #0F0B0A",
"O  c #130E0C",
"+  c #15110D",
"@  c #19130F",
"#  c #161514",
"$  c #1B1411",
"%  c #161817",
"&  c #1C1914",
"*  c #171818",
"=  c #1B1C1C",
"-  c #211A16",
";  c #261D18",
":  c #2A1E1B",
">  c #23251C",
",  c #2A221D",
"<  c #32231F",
"1  c #2D2625",
"2  c #2A2820",
"3  c #232729",
"4  c #322521",
"5  c #362924",
"6  c #3C2A25",
"7  c #302928",
"8  c #3C2D2A",
"9  c #383226",
"0  c #373129",
"q  c #3E332A",
"w  c #3C3233",
"e  c #32363A",
"r  c #39373A",
"t  c #3A3D3E",
"y  c #422E2A",
"u  c #44312D",
"i  c #4A332E",
"p  c #453632",
"a  c #4B3531",
"s  c #453B35",
"d  c #4C3935",
"f  c #473A39",
"g  c #4B3E3A",
"h  c #523A35",
"j  c #553E39",
"k  c #583F3A",
"l  c #4B4336",
"z  c #4D433D",
"x  c #444E3B",
"c  c #504437",
"v  c #54423B",
"b  c #5B423D",
"n  c #48513E",
"m  c #333E44",
"M  c #3B454C",
"N  c #3F484F",
"B  c #3F4E56",
"V  c #3F4E58",
"C  c #404A4F",
"Z  c #5E4641",
"A  c #544A44",
"S  c #5B4B44",
"D  c #5E4F49",
"F  c #535246",
"G  c #595B49",
"H  c #434C52",
"J  c #404E58",
"K  c #4B5156",
"L  c #45535C",
"P  c #49565F",
"I  c #5A5C5E",
"U  c #624641",
"Y  c #634A45",
"T  c #674D48",
"R  c #6B4E48",
"E  c #6A4E47",
"W  c #714F4A",
"Q  c #62524C",
"!  c #6A524C",
"~  c #71534D",
"^  c #6A5C53",
"/  c #665B58",
"(  c #755952",
")  c #785B54",
"_  c #56624C",
"`  c #5B614E",
"'  c #616250",
"]  c #646C55",
"[  c #6D6C58",
"{  c #7C6057",
"}  c #7E6258",
"|  c #6F765E",
" . c #475660",
".. c #495760",
"X. c #4C5A63",
"o. c #525F67",
"O. c #5D5E60",
"+. c #556169",
"@. c #59656D",
"#. c #62696B",
"$. c #626367",
"%. c #676E71",
"&. c #8F5856",
"*. c #875F59",
"=. c #935C59",
"-. c #87665D",
";. c #8F6760",
":. c #8C6A61",
">. c #957269",
",. c #9B766B",
"<. c #9D796E",
"1. c #9F7F72",
"2. c #AE716C",
"3. c #B1746E",
"4. c #A27D72",
"5. c #86886F",
"6. c #9E8778",
"7. c #9F8A7B",
"8. c #9D8474",
"9. c #A48074",
"0. c #A98377",
"q. c #AE877A",
"w. c #AE897C",
"e. c #A1897E",
"r. c #B28A7E",
"t. c #998F87",
"y. c #B68D80",
"u. c #BB8F83",
"i. c #A59283",
"p. c #AE9482",
"a. c #BD9285",
"s. c #BB9689",
"d. c #A79C90",
"f. c #AB9D91",
"g. c #B09F92",
"h. c #B2A295",
"j. c #B6A69A",
"k. c #B8A99C",
"l. c #B4ABA0",
"z. c #C19689",
"x. c #C99589",
"c. c #C3998C",
"v. c #CB9E8F",
"b. c #C09486",
"n. c #C59E92",
"m. c #CE9F91",
"M. c #C7AC99",
"N. c #CDA092",
"B. c #D3A596",
"V. c #D1A897",
"C. c #D7A798",
"Z. c #D6A899",
"A. c #DAAB9B",
"S. c #C4B19C",
"D. c #C7B4A1",
"F. c #C9B7A4",
"G. c #CFBCA9",
"H. c #D1BEAB",
"J. c #E4B4A4",
"K. c #E7B8A7",
"L. c #E8B8A7",
"P. c #EABAA9",
"I. c #D1C0AE",
"U. c #D6C5B4",
"Y. c #D8C6B5",
"T. c #DBCBBB",
"R. c #E0CFBF",
"E. c #DECFC0",
"W. c #DFD0C0",
"Q. c #E0D0C1",
"!. c None",
/* pixels */
"!.!.!.!.!.!.!.!.!.!.!.!.!.!.!.!.!.!.!.!.!.!.!.!.!.!.!.!.!.!.!.!.!.!.!.!.!.!.!.!.!.!.!.!.!.!.!.!.!.!.!.!.!.!.!.!.!.!.!.!.!.!.!.!.",
"!.!.!.!.!.!.!.!.!.!.!.!.!.!.!.!.!.!.!.!.!.!.!.!.!.!.!.!.!.!.!.!.!.!.!.!.!.!.!.!.!.!.!.!.!.!.!.!.!.!.!.!.!.!.!.!.!.!.!.!.!.!.!.!.",
"!.!.!.!.!.!.!.!.!.!.!.!.!.!.!.!.!.!.!.!.!.!.!.!.!.!.!.!.!.!.!.!.!.!.!.!.!.!.!.!.!.!.!.!.!.!.!.!.!.!.!.!.!.!.!.!.!.!.!.!.!.!.!.!.",
"!.!.!.!.!.!.!.!.!.!.!.!.!.!.!.!.!.!.!.!.!.!.!.!.!.!.!.!.!.!.!.!.!.!.!.!.!.!.!.!.!.!.!.!.!.!.!.!.!.!.!.!.!.!.!.!.!.!.!.!.!.!.!.!.",
"!.!.!.!.!.!.!.!.!.!.!.!.!.!.!.!.!.!.!.!.!.!.!.!.!.!.!.!.!.!.!.!.!.!.!.!.!.!.!.!.!.!.!.!.!.!.!.!.!.!.!.!.!.!.!.!.!.!.!.!.!.!.!.!.",
"!.!.!.!.!.!.!.!.!.!.!.!.!.!.!.!.!.!.!.!.!.!.!.!.!.!.!.!.!.!.!.!.!.!.!.!.!.!.!.!.!.!.!.!.!.!.!.!.!.!.!.!.!.!.!.!.!.!.!.!.!.!.!.!.",
"!.!.!.!.!.!.!.!.!.!.!.!.!.!.!.!.!.!.!.!.!.!.!.!.!.!.!.!.!.!.!.!.!.!.!.!.!.!.!.!.!.!.!.!.!.!.!.!.!.!.!.!.!.!.!.!.!.!.!.!.!.!.!.!.",
"!.!.!.!.!.!.!.!.!.!.!.!.!.!.!.!.!.!.!.!.!.!.!.!.!.!.!.!.!.!.!.!.!.!.!.!.!.!.!.!.!.!.!.!.!.!.!.!.!.!.!.!.!.!.!.!.!.!.!.!.!.!.!.!.",
"!.!.!.!.!.!.!.!.!.!.!.!.!.!.!.!.!.!.!.!.!.!.!.!.!.!.!.!.X . . . X X !.!.X X !.!.!.!.!.!.!.!.!.!.!.!.!.!.!.!.!.!.!.!.!.!.!.!.!.!.",
"!.!.!.!.!.!.!.!.!.!.!.!.!.!.!.!.!.!.!.!.!.!.!.!.!.!.!.!.$ $ $ @ $ @ !.!.@ $ !.!.!.!.!.!.!.!.!.!.!.!.!.!.!.!.!.!.!.!.!.!.!.!.!.!.",
"!.!.!.!.!.!.!.!.!.!.!.!.!.!.!.!.!.!.!.!.X X X X X X . $ 4 6 6 6 6 < @ @ < < $ X !.!.!.!.!.!.!.!.!.!.!.!.!.!.!.!.!.!.!.!.!.!.!.!.",
"!.!.!.!.!.!.!.!.!.!.!.!.!.!.!.!.!.!.!.!.$ $ $ $ $ $ $ : y h j j h y ; : u u $ . !.!.!.!.!.!.!.!.!.!.!.!.!.!.!.!.!.!.!.!.!.!.!.!.",
"!.!.!.!.!.!.!.!.!.!.!.!.!.!.!.!.!.!.X $ < 6 6 6 6 6 y a k Z Z Z U j y u k a & . !.!.!.!.!.!.!.!.!.!.!.!.!.!.!.!.!.!.!.!.!.!.!.!.",
"!.!.!.!.!.!.!.!.!.!.!.!.!.!.!.!.!.!.X $ 4 y i h h j k b U T Y T Y Z k j U j 4 & !.!.!.!.!.!.!.!.!.!.!.!.!.!.!.!.!.!.!.!.!.!.!.!.",
"!.!.!.!.!.!.!.!.!.!.!.!.!.!.!.!.!.!.!.!.@ ; y k Z Z U U Y Y U T Y Y U U Y Z v u & X !.!.!.!.!.!.!.!.!.!.!.!.!.!.!.!.!.!.!.!.!.!.",
"!.!.!.!.!.!.!.!.!.!.!.!.!.!.!.!.!.!.!.!.$ : p Z U T Y Y Y Y Y U Y Y Y Y Y Y T d - . !.!.!.!.!.!.!.!.!.!.!.!.!.!.!.!.!.!.!.!.!.!.",
"!.!.!.!.!.!.!.!.!.!.!.!.!.!.!.!.!.!.X $ 5 a b Y Y Y Y Y Y Y Y T Y Y Y Y Y Y T d - X !.!.!.!.!.!.!.!.!.!.!.!.!.!.!.!.!.!.!.!.!.!.",
"!.!.!.!.!.!.!.!.!.!.!.!.!.!.!.!.!.!.X $ u b Y Y Y Y Y Y Y Y U k Z Z Y Y Y T T d &   !.!.!.!.!.!.!.!.!.!.!.!.!.!.!.!.!.!.!.!.!.!.",
"!.!.!.!.!.!.!.!.!.!.!.!.!.!.!.!.!.!.. $ y b U Y Y Y Y Y Y Z h d d j Z Y Y T T a $   !.!.!.!.!.!.!.!.!.!.!.!.!.!.!.!.!.!.!.!.!.!.",
"!.!.!.!.!.!.!.!.!.!.!.!.!.!.!.!.!.!.@ : p j Z Y U T Y Y Y Y T U h a Z U Z Z U d ; O !.!.!.!.!.!.!.!.!.!.!.!.!.!.!.!.!.!.!.!.!.!.",
"!.!.!.!.!.!.!.!.!.!.!.!.!.!.!.!.. $ < y i h j b Y Y Y S Z ( 4.,.U i b U j h Z Z a 4 O   !.!.!.!.!.!.!.!.!.!.!.!.!.!.!.!.!.!.!.!.",
"!.!.!.!.!.!.!.!.!.!.!.!.!.!.!.!.. @ < y i a j b Z Y Y T ( >.x.b.-.E U E R R Y Z a 4 O   !.!.!.!.!.!.!.!.!.!.!.!.!.!.!.!.!.!.!.!.",
"!.!.!.!.!.!.!.!.!.!.!.!.!.!.!.!.!.!.$ ; y h b U Y Y Z ( 4.b.B.B.u.,.~ ~ 1.4.) a ; O !.!.!.!.!.!.!.!.!.!.!.!.!.!.!.!.!.!.!.!.!.!.",
"!.!.!.!.!.!.!.!.!.!.!.!.!.!.!.!.!.!.. @ 6 h U Y U T ( >.a.m.q.q.m.c.>.-.,.1.:.Y , o !.!.!.!.!.!.!.!.!.!.!.!.!.!.!.!.!.!.!.!.!.!.",
"!.!.!.!.!.!.!.!.!.!.!.!.!.!.!.!.!.!.. $ y k U Y U ( 4.z.C.q.Z S a.A.c.>.A b <.<.U 4 O   !.!.!.!.!.!.!.!.!.!.!.!.!.!.!.!.!.!.!.!.",
"!.!.!.!.!.!.!.!.!.!.!.!.!.!.!.!.!.!.$ : p b Z T W ;.b.C.C.<.5 8 y.P.J.9.6 6 9.y.T 4 o   !.!.!.!.!.!.!.!.!.!.!.!.!.!.!.!.!.!.!.!.",
"!.!.!.!.!.!.!.!.!.!.!.!.!.!.!.!.X $ < u h k U W =.3.x.C.C.4.u p y.P.P.y.p u 0.0.p o !.!.!.!.!.!.!.!.!.!.!.!.!.!.!.!.!.!.!.!.!.!.",
"!.!.!.!.!.!.!.!.!.!.!.!.!.!.!.!.X @ < y d k Z W &.2.x.C.B.y.~ ( s.K.P.s.( ( y.1.4   !.!.!.!.!.!.!.!.!.!.!.!.!.!.!.!.!.!.!.!.!.!.",
"!.!.!.!.!.!.!.!.!.!.!.!.!.!.!.!.!.!.@ : a j k k U *.u.C.C.v.s.z.A.K.K.A.c.z.C.4.4   !.!.!.!.!.!.!.!.!.!.!.!.!.!.!.!.!.!.!.!.!.!.",
"!.!.!.!.!.!.!.!.!.!.!.!.!.!.!.!.!.!.. $ 5 a h j h R ,.a.m.A.J.K.K.J.J.J.L.Z.r.) ,   !.!.!.!.!.!.!.!.!.!.!.!.!.!.!.!.!.!.!.!.!.!.",
"!.!.!.!.!.!.!.!.!.!.!.!.!.!.!.!.!.!.!.!.$ : p j j b T ;.b.A.J.K.K.J.J.J.J.r.Z , !.!.!.!.!.!.!.!.!.!.!.!.!.!.!.!.!.!.!.!.!.!.!.!.",
"!.!.!.!.!.!.!.!.!.!.!.!.!.!.!.!.!.!.!.!.. $ 5 a h j h Y ;.y.B.J.J.G.J.V.r.{ :   !.!.!.!.!.!.!.!.!.!.!.!.!.!.!.!.!.!.!.!.!.!.!.!.",
"!.!.!.!.!.!.!.!.!.!.!.!.!.!.!.!.!.!.!.!.!.!.@ , i j j a 8 Y q.A.C.C.Z.r.U 4 !.!.!.!.!.!.!.!.!.!.!.!.!.!.!.!.!.!.!.!.!.!.!.!.!.!.",
"!.!.!.!.!.!.!.!.!.!.!.!.!.!.!.!.!.!.!.!.!.!.  # 8 v Z g ; q 4.B.B.B.V.9.q o !.!.!.!.!.!.!.!.!.!.!.!.!.!.!.!.!.!.!.!.!.!.!.!.!.!.",
"!.!.!.!.!.!.!.!.!.!.!.!.!.!.!.!.!.!.!.!.!.!.  + 4 l ' G 0 g 6.M.M.M.M.e.v - + X !.!.!.!.!.!.!.!.!.!.!.!.!.!.!.!.!.!.!.!.!.!.!.!.",
"!.!.!.!.!.!.!.!.!.!.!.!.!.!.!.!.!.!.!.!.!.!.> 2 7 s ` ` s D i.F.D.D.M.e.S , + X !.!.!.!.!.!.!.!.!.!.!.!.!.!.!.!.!.!.!.!.!.!.!.!.",
"!.!.!.!.!.!.!.!.!.!.!.!.!.!.!.!.!.!.!.!.. > n F p q z A g ^ h.T.Y.H.D.7.S : + X !.!.!.!.!.!.!.!.!.!.!.!.!.!.!.!.!.!.!.!.!.!.!.!.",
"!.!.!.!.!.!.!.!.!.!.!.!.!.!.!.!.!.!.!.!.X > _ ] l 8 f f f ^ l.Q.E.T.G.i.S , + X !.!.!.!.!.!.!.!.!.!.!.!.!.!.!.!.!.!.!.!.!.!.!.!.",
"!.!.!.!.!.!.!.!.!.!.!.!.!.!.!.!.!.!.!.!.. > _ ] l 8 s f 8 / j.E.E.T.T.g.Q : + X !.!.!.!.!.!.!.!.!.!.!.!.!.!.!.!.!.!.!.!.!.!.!.!.",
"!.!.!.!.!.!.!.!.!.!.!.!.!.!.!.!.!.!.!.!.. 2 _ ] f 8 f s 8 D f.T.T.E.Q.j.Q : O o !.!.!.!.!.!.!.!.!.!.!.!.!.!.!.!.!.!.!.!.!.!.!.!.",
"!.!.!.!.!.!.!.!.!.!.!.!.!.!.!.!.!.!.!.!.X > _ ] f q f f 8 S i.G.T.E.W.j.Q : O X !.!.!.!.!.!.!.!.!.!.!.!.!.!.!.!.!.!.!.!.!.!.!.!.",
"!.!.!.!.!.!.!.!.!.!.!.!.!.!.!.!.!.!.!.!.. > _ ] s 8 s p 8 S i.G.U.Y.Q.j.Q : O o !.!.!.!.!.!.!.!.!.!.!.!.!.!.!.!.!.!.!.!.!.!.!.!.",
"!.!.!.!.!.!.!.!.!.!.!.!.!.!.!.!.!.!.!.!.. > _ ] s 8 p f 8 D g.Y.G.H.T.k.Q 1 O X !.!.!.!.!.!.!.!.!.!.!.!.!.!.!.!.!.!.!.!.!.!.!.!.",
"!.!.!.!.!.!.!.!.!.!.!.!.!.!.!.!.!.!.!.!.. > _ | ^ ! ^ T p A t.l.d.d.l.t.S : + X !.!.!.!.!.!.!.!.!.!.!.!.!.!.!.!.!.!.!.!.!.!.!.!.",
"!.!.!.!.!.!.!.!.!.!.!.!.!.!.!.!.!.!.!.!.. > _ 5.i.c.n.4.b s I %.#.#.#.+.d < + X !.!.!.!.!.!.!.!.!.!.!.!.!.!.!.!.!.!.!.!.!.!.!.!.",
"!.!.!.!.!.!.!.!.!.!.!.!.!.!.!.!.!.!.!.!.. > x [ 8.s.n.e.D r M B J J B N t 7 $ X !.!.!.!.!.!.!.!.!.!.!.!.!.!.!.!.!.!.!.!.!.!.!.!.",
"!.!.!.!.!.!.!.!.!.!.!.!.!.!.!.!.!.!.!.!.!.!.> , 0 A / $.K B H B J J J J C e & . !.!.!.!.!.!.!.!.!.!.!.!.!.!.!.!.!.!.!.!.!.!.!.!.",
"!.!.!.!.!.!.!.!.!.!.!.!.!.!.!.!.!.!.!.!.!.!..     % m V V L L L P L L P P M = . !.!.!.!.!.!.!.!.!.!.!.!.!.!.!.!.!.!.!.!.!.!.!.!.",
"!.!.!.!.!.!.!.!.!.!.!.!.!.!.!.!.!.!.!.!.!.!.!.!.X % m J L L X.o.o.o.o.o.o.C = X !.!.!.!.!.!.!.!.!.!.!.!.!.!.!.!.!.!.!.!.!.!.!.!.",
"!.!.!.!.!.!.!.!.!.!.!.!.!.!.!.!.!.!.!.!.!.!.!.!.X = M L L P +.@.+.+.@.@.@.K = X !.!.!.!.!.!.!.!.!.!.!.!.!.!.!.!.!.!.!.!.!.!.!.!.",
"!.!.!.!.!.!.!.!.!.!.!.!.!.!.!.!.!.!.!.!.!.!.!.!.X % e L X.+.@.+.X.X.o.@.@.H = X !.!.!.!.!.!.!.!.!.!.!.!.!.!.!.!.!.!.!.!.!.!.!.!.",
"!.!.!.!.!.!.!.!.!.!.!.!.!.!.!.!.!.!.!.!.!.!.!.!.X % M P o.@.+.P M M P @.@.H > X !.!.!.!.!.!.!.!.!.!.!.!.!.!.!.!.!.!.!.!.!.!.!.!.",
"!.!.!.!.!.!.!.!.!.!.!.!.!.!.!.!.!.!.!.!.!.!.!.!.X % e L +.+...M 3 3 M X.@.H = X !.!.!.!.!.!.!.!.!.!.!.!.!.!.!.!.!.!.!.!.!.!.!.!.",
"!.!.!.!.!.!.!.!.!.!.!.!.!.!.!.!.!.!.!.!.!.!.!.!.X % M L +.+.L m & * m  .X.N = X !.!.!.!.!.!.!.!.!.!.!.!.!.!.!.!.!.!.!.!.!.!.!.!.",
"!.!.!.!.!.!.!.!.!.!.!.!.!.!.!.!.!.!.!.!.!.!.!.!.X = M P +.+...M % = m L L M = X !.!.!.!.!.!.!.!.!.!.!.!.!.!.!.!.!.!.!.!.!.!.!.!.",
"!.!.!.!.!.!.!.!.!.!.!.!.!.!.!.!.!.!.!.!.!.!.!.!.X % e N K K H e % & m K K t = X !.!.!.!.!.!.!.!.!.!.!.!.!.!.!.!.!.!.!.!.!.!.!.!.",
"!.!.!.!.!.!.!.!.!.!.!.!.!.!.!.!.!.!.!.!.!.!.!.!.X @ 7 q w w w 2 O & w F F q & X !.!.!.!.!.!.!.!.!.!.!.!.!.!.!.!.!.!.!.!.!.!.!.!.",
"!.!.!.!.!.!.!.!.!.!.!.!.!.!.!.!.!.!.!.!.!.!.!.!.X $ < 9 q q q < + $ 9 s l 9 & X !.!.!.!.!.!.!.!.!.!.!.!.!.!.!.!.!.!.!.!.!.!.!.!.",
"!.!.!.!.!.!.!.!.!.!.!.!.!.!.!.!.!.!.!.!.!.!.!.!.X & u c c l c q & O @ & - & !.!.!.!.!.!.!.!.!.!.!.!.!.!.!.!.!.!.!.!.!.!.!.!.!.!.",
"!.!.!.!.!.!.!.!.!.!.!.!.!.!.!.!.!.!.!.!.!.!.!.!.X & 9 c l l c u & X X X X X !.!.!.!.!.!.!.!.!.!.!.!.!.!.!.!.!.!.!.!.!.!.!.!.!.!.",
"!.!.!.!.!.!.!.!.!.!.!.!.!.!.!.!.!.!.!.!.!.!.!.!.!.@ & > > > , > @ X X X X X !.!.!.!.!.!.!.!.!.!.!.!.!.!.!.!.!.!.!.!.!.!.!.!.!.!.",
"!.!.!.!.!.!.!.!.!.!.!.!.!.!.!.!.!.!.!.!.!.!.!.!.!.!.!.!.!.!.!.!.!.!.!.!.!.!.!.!.!.!.!.!.!.!.!.!.!.!.!.!.!.!.!.!.!.!.!.!.!.!.!.!.",
"!.!.!.!.!.!.!.!.!.!.!.!.!.!.!.!.!.!.!.!.!.!.!.!.!.!.!.!.!.!.!.!.!.!.!.!.!.!.!.!.!.!.!.!.!.!.!.!.!.!.!.!.!.!.!.!.!.!.!.!.!.!.!.!.",
"!.!.!.!.!.!.!.!.!.!.!.!.!.!.!.!.!.!.!.!.!.!.!.!.!.!.!.!.!.!.!.!.!.!.!.!.!.!.!.!.!.!.!.!.!.!.!.!.!.!.!.!.!.!.!.!.!.!.!.!.!.!.!.!."
};
