/* XPM */
static char *result[] = {
/* columns rows colors chars-per-pixel */
"64 64 176 2 ",
"   c #050502",
".  c #090704",
"X  c #0A0805",
"o  c #0F0C09",
"O  c #140F0C",
"+  c #16110D",
"@  c #19130F",
"#  c #161412",
"$  c #1B1512",
"%  c #161817",
"&  c #1D1814",
"*  c #171918",
"=  c #1B1C1C",
"-  c #221B16",
";  c #251D1A",
":  c #2A1E1B",
">  c #26221A",
",  c #2B221D",
"<  c #32231F",
"1  c #2E2524",
"2  c #2C2A26",
"3  c #232729",
"4  c #242120",
"5  c #332622",
"6  c #352925",
"7  c #3A2A26",
"8  c #3C2E2A",
"9  c #332B28",
"0  c #373129",
"q  c #3D322B",
"w  c #393227",
"e  c #3C3232",
"r  c #31363A",
"t  c #3E3B3A",
"y  c #422E2A",
"u  c #44312D",
"i  c #49332E",
"p  c #453531",
"a  c #4A3531",
"s  c #453B33",
"d  c #4C3934",
"f  c #453A38",
"g  c #483C3A",
"h  c #533B36",
"j  c #553E39",
"k  c #583F3B",
"l  c #4C4336",
"z  c #4B413A",
"x  c #504437",
"c  c #54413B",
"v  c #5A423D",
"b  c #49503F",
"n  c #65433E",
"m  c #343E44",
"M  c #383E41",
"N  c #423F41",
"B  c #3A454B",
"V  c #41474C",
"C  c #41494F",
"Z  c #4F4A41",
"A  c #5E4641",
"S  c #534C44",
"D  c #5B4B44",
"F  c #5F4F49",
"G  c #555045",
"H  c #5B5B4C",
"J  c #57524A",
"K  c #444C52",
"L  c #4C5157",
"P  c #45545D",
"I  c #4A565F",
"U  c #51595F",
"Y  c #5C5D5F",
"T  c #614641",
"R  c #634A45",
"E  c #684D47",
"W  c #6B4E48",
"Q  c #6B4742",
"!  c #714F4A",
"~  c #62524C",
"^  c #71554E",
"/  c #685A55",
"(  c #755751",
")  c #755A53",
"_  c #785B54",
"`  c #5B624D",
"'  c #5E6650",
"]  c #61614F",
"[  c #636552",
"{  c #636C56",
"}  c #6E615C",
"|  c #6E6156",
" . c #74625C",
".. c #667059",
"X. c #69715B",
"o. c #495760",
"O. c #4C5A63",
"+. c #505D66",
"@. c #5D5F60",
"#. c #515F68",
"$. c #55616A",
"%. c #59656E",
"&. c #62686A",
"*. c #6E7162",
"=. c #767C66",
"-. c #666D70",
";. c #8F5855",
":. c #905956",
">. c #80635A",
",. c #88635B",
"<. c #88695F",
"1. c #8B6B62",
"2. c #8F7667",
"3. c #947369",
"4. c #9B766C",
"5. c #9C796E",
"6. c #96786D",
"7. c #9E7E72",
"8. c #A56964",
"9. c #AF726C",
"0. c #A37D72",
"q. c #9E8779",
"w. c #9F8B7B",
"e. c #A48074",
"r. c #A88276",
"t. c #AB8579",
"y. c #A28C7C",
"u. c #AE8A7D",
"i. c #B28B7E",
"p. c #B18278",
"a. c #998F87",
"s. c #9C928B",
"d. c #B38D80",
"f. c #B88E81",
"g. c #A49283",
"h. c #A89687",
"j. c #A79C8F",
"k. c #BE9285",
"l. c #BF9589",
"z. c #A79C90",
"x. c #AE9E91",
"c. c #B09F92",
"v. c #B3A295",
"b. c #B5A69A",
"n. c #B9AA9E",
"m. c #B3AA9F",
"M. c #B8ACA0",
"N. c #C1978A",
"B. c #C2988B",
"V. c #CB9E8F",
"C. c #C69689",
"Z. c #C79E91",
"A. c #CE9F91",
"S. c #C6AB98",
"D. c #CBA897",
"F. c #D2A596",
"G. c #D1A897",
"H. c #D7A798",
"J. c #D5A999",
"K. c #DAAA9B",
"L. c #C4B19C",
"P. c #C7B4A0",
"I. c #C9B7A4",
"U. c #CFBCA9",
"Y. c #D1BEAC",
"T. c #E4B4A4",
"R. c #E7B8A7",
"E. c #E8B8A7",
"W. c #EABAA9",
"Q. c #D6C5B4",
"!. c #D8C8B7",
"~. c #DCCBBB",
"^. c #D8C5B3",
"/. c #DFCFC0",
"(. c #E0D0C1",
"). c None",
/* pixels */
").).).).).).).).).).).).).).).).).).).).).).).).).).).).).).).).).).).).).).).).).).).).).).).).).).).).).).).).).).).).).).).).",
").).).).).).).).).).).).).).).).).).).).).).).).).).).).).).).).).).).).).).).).).).).).).).).).).).).).).).).).).).).).).).).).",
").).).).).).).).).).).).).).).).).).).).).).).).).).).).).).).).).).).).).).).).).).).).).).).).).).).).).).).).).).).).).).).).",
").).).).).).).).).).).).).).).).).).).).).).).).).).).).).).).).).).).).).).).).).).).).).).).).).).).).).).).).).).).).).).).).",
").).).).).).).).).).).).).).).).).).).).).).).).).).).).).).).).).).).).).).).).).).).).).).).).).).).).).).).).).).).).).).).).",
").).).).).).).).).).).).).).).).).).).).).).).).).).).).).).).).).).).).).).).).).).).).).).).).).).).).).).).).).).).).).).).).",
").).).).).).).).).).).).).).).).).).).).).).).).).).).).).).).).).).).).).).).).).).).).).).).).).).).).).).).).).).).).).).).).",
").).).).).).).).).).).).).).).).).).).).).).).).).).).).).).).).).).).).).).).).).).).).).).).).).).).).).).).).).).).).).).).).",
").).).).).).).).).).).).).).).).).).).).).).).).).).).).).).).).).).).).).).).).).).).).).).).).).).).).).).).).).).).).).).).).",
").).).).).).).).).).).).).).).).).).).).).).).).).).).).).).).).).).).).).).).).).).).).).).).).).).).).).).).).).).).).).).).).",
").).).).).).).).).).).).).).).).).).).).).).).).).).).).).).X X ).).X X X X ).).).).).).).).).).).).).).).).).).).).).).).).).).",
").).).).).).).).).).).).).).).).).).).).).).).).).).).).).).@ @ ).).@ $ @ # ).).).).).).).).).).).).).).).).).).).).).).).).).).",
").).).).).).).).).).).).).).).).).).).).).).).).).).X X . # < < @ @ < 7 y < @ . X X ).).).).).).).).).).).).).).).).).).).).).).",
").).).).).).).).).).).).).).).).).).).).).).).).).).$ - & 1 i u : ; u h h y : $ @ $ ).).).).).).).).).).).).).).).).).).).).).).",
").).).).).).).).).).).).).).).).).).).).).).).).X $ 7 u d h v k y y j T n c a y 8 < @ . X X ).).).).).).).).).).).).).).).).).).",
").).).).).).).).).).).).).).).).).).).).).).).).X $ 7 d A R E A j j T R E T v v j i : @ $ $ ).).).).).).).).).).).).).).).).).).",
").).).).).).).).).).).).).).).).).).).).).).).).).).$ , c E R R T A R R R R D R T k y y y 7 $ . ).).).).).).).).).).).).).).).).",
").).).).).).).).).).).).).).).).).).).).).).).).).).@ , h E R R R R R R R R R R T n h h h y - . ).).).).).).).).).).).).).).).).",
").).).).).).).).).).).).).).).).).).).).).).).).X @ 7 d A R R R R R R R R R R R T T n k k y - . ).).).).).).).).).).).).).).).).",
").).).).).).).).).).).).).).).).).).).).).).).).X $ i v v A A A R R R R R R R R R T N k k u $ . ).).).).).).).).).).).).).).).).",
").).).).).).).).).).).).).).).).).).).).).).).).. & a v h h h c A R R R R R R R R R T A k y -   ).).).).).).).).).).).).).).).).",
").).).).).).).).).).).).).).).).).).).).).).).).@ , h W W n a d A R A A R R R R R R T A k i : @ ).).).).).).).).).).).).).).).).",
").).).).).).).).).).).).).).).).).).).).).).X @ < i v _ 0.4.n d A T h h A R R R R T A j h i y < # X ).).).).).).).).).).).).).).",
").).).).).).).).).).).).).).).).).).).).).).X @ < i c >.k.k.<.n T R W W R R R R R A A j a u y < @ X ).).).).).).).).).).).).).).",
").).).).).).).).).).).).).).).).).).).).).).).).@ , d >.k.G.k.5.( ( 0.0.( A D R R R T A h 7 ; @ ).).).).).).).).).).).).).).).).",
").).).).).).).).).).).).).).).).).).).).).).).).  ; A 1.5.i.V.N.3.1.5.5.1.( W A A T R A h y : @ ).).).).).).).).).).).).).).).).",
").).).).).).).).).).).).).).).).).).).).).).).).  6 1.5.v v t.H.A.7.D A 5.0._ N h h A T k h a 7 $ X ).).).).).).).).).).).).).).",
").).).).).).).).).).).).).).).).).).).).).).).).O d t.e.7 6 e.T.W.d.8 9 0.C.3.;.Q T R T k h a 6 - X ).).).).).).).).).).).).).).",
").).).).).).).).).).).).).).).).).).).).).).X @ < R i.r.u u u.E.W.d.a y 0.F.N.0.8.:.W T k a , $ ).).).).).).).).).).).).).).).).",
").).).).).).).).).).).).).).).).).).).).).).X @ < R i.k.( ) l.E.W.l.) ^ i.H.H.A.9.:.W A v y $ . ).).).).).).).).).).).).).).).).",
").).).).).).).).).).).).).).).).).).).).).).).).O i r.H.N.B.K.R.R.K.C.k.V.F.H.C.:.T A k k u $ X ).).).).).).).).).).).).).).).).",
").).).).).).).).).).).).).).).).).).).).).).).).  5 >.i.J.E.R.R.T.R.W.T.H.V.C.4.W h h h p 7 $ X ).).).).).).).).).).).).).).).).",
").).).).).).).).).).).).).).).).).).).).).).).).).).5 R d.T.T.T.T.R.T.T.K.N.1.W v k k i : # ).).).).).).).).).).).).).).).).).).",
").).).).).).).).).).).).).).).).).).).).).).).).).).  5  .d.F.T.T.T.T.F.d.1.T h h h p 6 # . ).).).).).).).).).).).).).).).).).).",
").).).).).).).).).).).).).).).).).).).).).).).).).).).).6 R i.K.H.H.K.d.T 8 a h k u : $ ).).).).).).).).).).).).).).).).).).).).",
").).).).).).).).).).).).).).).).).).).).).).).).).).).).X u 7.G.D.D.H.7.q = d A k 8 $ . ).).).).).).).).).).).).).).).).).).).).",
").).).).).).).).).).).).).).).).).).).).).).).).).).X O ; h w.S.S.S.S.w.c 0 H ` g 5 @ X ).).).).).).).).).).).).).).).).).).).).",
").).).).).).).).).).).).).).).).).).).).).).).).).).. @ : D g.I.I.P.L.y.D z { { z , O X ).).).).).).).).).).).).).).).).).).).).",
").).).).).).).).).).).).).).).).).).).).).).).).).).X O : ~ c.!.!.Q.I.y.~ Z { { l : @   ).).).).).).).).).).).).).).).).).).).).",
").).).).).).).).).).).).).).).).).).).).).).).).).).$ & 1 ~ m.(./.Q.U.h./ G X.X.g 1 $ @ ).).).).).).).).).).).).).).).).).).).).",
").).).).).).).).).).).).).).).).).).).).).).).).X $ 6 8 8 F b./.~.~.!.b./ J =.=.Z 5 5 ; @ X ).).).).).).).).).).).).).).).).).).",
").).).).).).).).).).).).).).).).).).).).).).).).X % e g 8 F x.~.~././.m.} S *.*.S f p 5 @ X ).).).).).).).).).).).).).).).).).).",
").).).).).).).).).).).).).).).).).).).).).).).).X % e f 8 D g.U.!././.n./ Z G H [ H Z 9 $   ).).).).).).).).).).).).).).).).).).",
").).).).).).).).).).).).).).).).).).).).).).).).# ; q p 8 D g.U.Q.!./.n. .f f Z ..X.S e ; # ).).).).).).).).).).).).).).).).).).",
").).).).).).).).).).).).).).).).).).).).).).X $ 9 8 e 8 9 F v.^.U.Y.~.n. .f 8 g ' { G f e 2 $ X ).).).).).).).).).).).).).).).).",
").).).).).).).).).).).).).).).).).).).).).).X ; A ~ d 6 6 D a.M.j.j.m.s.~ p 8 s ` X.| )  .D ; X ).).).).).).).).).).).).).).).).",
").).).).).).).).).).).).).).).).).).).).).).  6 2.5.v 6 7 f Y &.&.&.&.@.g 8 7 s ` =.t.l.Z.6.9   ).).).).).).).).).).).).).).).).",
").).).).).).).).).).).).).).).).).).).).).).  w <.1.d 1 e N K P P P P K M e e t b [ 2.r.i.3.q   ).).).).).).).).).).).).).).).).",
").).).).).).).).).).).).).).).).).).).).).).).).w 6 $ 4 V U +.+.#.#.#.I K B B r 2 > 6 q u q ).).).).).).).).).).).).).).).).).).",
").).).).).).).).).).).).).).).).).).).).).).).).      4 K %.%.%.$.$.$.$.O.o.P m * . .       ).).).).).).).).).).).).).).).).).).",
").).).).).).).).).).).).).).).).).).).).).).).).).).. 4 K %.%.$.I O.$.$.$.#.I B * X ).).).).).).).).).).).).).).).).).).).).).).",
").).).).).).).).).).).).).).).).).).).).).).).).).).X = K %.$.o.B B I $.$.$.P m * X ).).).).).).).).).).).).).).).).).).).).).).",
").).).).).).).).).).).).).).).).).).).).).).).).).).X ; K $.O.B 3 3 B O.$.$.I m * X ).).).).).).).).).).).).).).).).).).).).).).",
").).).).).).).).).).).).).).).).).).).).).).).).).).X = B $.P m % % m I $.$.I m * X ).).).).).).).).).).).).).).).).).).).).).).",
").).).).).).).).).).).).).).).).).).).).).).).).).).X = B o.P m % % B P $.$.P B = X ).).).).).).).).).).).).).).).).).).).).).).",
").).).).).).).).).).).).).).).).).).).).).).).).).).. % r C K r % % r C L L C r % X ).).).).).).).).).).).).).).).).).).).).).).",
").).).).).).).).).).).).).).).).).).).).).).).).).).. + 1 e e 5 @ @ 2 e e e e 1 # X ).).).).).).).).).).).).).).).).).).).).).).",
").).).).).).).).).).).).).).).).).).).).).).).).).).& > 6 8 7 : O @ < u q w q 5 $ X ).).).).).).).).).).).).).).).).).).).).).).",
").).).).).).).).).).).).).).).).).).).).).).).).X $ w l l s w : O $ q x x x x q $ X ).).).).).).).).).).).).).).).).).).).).).).",
").).).).).).).).).).).).).).).).).).).).).).).).X & q l l s 6 ; O $ w l l l x w $ X ).).).).).).).).).).).).).).).).).).).).).).",
").).).).).).).).).).).).).).).).).).).).).).).).X + > > , > & @ o + > , > , > > @ X ).).).).).).).).).).).).).).).).).).).).).).",
").).).).).).).).).).).).).).).).).).).).).).).).).).).).).).).).).).).).).).).).).).).).).).).).).).).).).).).).).).).).).).).).",
").).).).).).).).).).).).).).).).).).).).).).).).).).).).).).).).).).).).).).).).).).).).).).).).).).).).).).).).).).).).).).).).",
").).).).).).).).).).).).).).).).).).).).).).).).).).).).).).).).).).).).).).).).).).).).).).).).).).).).).).).).).).).).).).).)."
};
