/* XPM */
static char *result[] = {
/* columns rows colors chars-per-pixel */
"64 64 183 2 ",
"   c #060603",
".  c #090704",
"X  c #0A0806",
"o  c #130F0C",
"O  c #15110D",
"+  c #19130F",
"@  c #161413",
"#  c #1B1511",
"$  c #1D1814",
"%  c #1C1D1D",
"&  c #250F0B",
"*  c #211B16",
"=  c #251D19",
"-  c #2A1E1B",
";  c #341711",
":  c #26201C",
">  c #2C221D",
",  c #32231F",
"<  c #1E2020",
"1  c #2E2523",
"2  c #2F2825",
"3  c #232729",
"4  c #24292B",
"5  c #322521",
"6  c #362925",
"7  c #3B2A25",
"8  c #3C2D2A",
"9  c #322C2B",
"0  c #373129",
"q  c #3D332B",
"w  c #2B3337",
"e  c #3C3331",
"r  c #31363A",
"t  c #65261C",
"y  c #422E2A",
"u  c #402C27",
"i  c #44312D",
"p  c #49322D",
"a  c #443431",
"s  c #4C3632",
"d  c #463A36",
"f  c #4C3B35",
"g  c #433A39",
"h  c #493E3A",
"j  c #5A3731",
"k  c #533A35",
"l  c #593933",
"z  c #553E39",
"x  c #583F3A",
"c  c #642C23",
"v  c #6F352C",
"b  c #743127",
"n  c #77372D",
"m  c #6B3C35",
"M  c #743B32",
"N  c #4D4537",
"B  c #4B423A",
"V  c #534439",
"C  c #5C433F",
"Z  c #64443E",
"A  c #7A483E",
"S  c #413E40",
"D  c #3F4346",
"F  c #3B464C",
"G  c #4F4840",
"H  c #40474E",
"J  c #404A4F",
"K  c #564641",
"L  c #5E4641",
"P  c #534E45",
"I  c #5B4A43",
"U  c #5F4F49",
"Y  c #555846",
"T  c #575249",
"R  c #5B5D4B",
"E  c #59554D",
"W  c #454E53",
"Q  c #43525B",
"!  c #4B575F",
"~  c #51575D",
"^  c #614741",
"/  c #6A4742",
"(  c #634A45",
")  c #6C4B45",
"_  c #674D48",
"`  c #6A4E49",
"'  c #714E4A",
"]  c #6B504A",
"[  c #72544E",
"{  c #635752",
"}  c #6A5B55",
"|  c #6C5E58",
" . c #765A53",
".. c #755F59",
"X. c #765750",
"o. c #636C56",
"O. c #6F625C",
"+. c #656F58",
"@. c #71645E",
"#. c #7C625A",
"$. c #69725C",
"%. c #4B5962",
"&. c #505B63",
"*. c #5D5F60",
"=. c #55626A",
"-. c #5A676F",
";. c #636A6C",
":. c #6B7560",
">. c #727A65",
",. c #757E6A",
"<. c #666E71",
"1. c #8D3E34",
"2. c #87362A",
"3. c #87493D",
"4. c #8A4C40",
"5. c #944E41",
"6. c #9C554E",
"7. c #885B56",
"8. c #905957",
"9. c #935C59",
"0. c #885248",
"q. c #A25E59",
"w. c #88655C",
"e. c #A36859",
"r. c #8D6D63",
"t. c #916861",
"y. c #937368",
"u. c #9B766B",
"i. c #96786D",
"p. c #98756B",
"a. c #9F7F72",
"s. c #AA6E61",
"d. c #A66E60",
"f. c #A97062",
"g. c #AD7A6D",
"h. c #B1746A",
"j. c #A27D72",
"k. c #B37570",
"l. c #9E8778",
"z. c #AC8679",
"x. c #AE897C",
"c. c #A08578",
"v. c #B28C7E",
"b. c #BC8C7D",
"n. c #B3907D",
"m. c #C18D7F",
"M. c #9C938B",
"N. c #AA8F84",
"B. c #B38D80",
"V. c #BB8F82",
"C. c #A89788",
"Z. c #BB9184",
"A. c #BF9689",
"S. c #BE9E8C",
"D. c #B89986",
"F. c #A99F92",
"G. c #B5A699",
"H. c #B6A79A",
"J. c #BCAEA2",
"K. c #B4ABA1",
"L. c #BDB0A4",
"P. c #C19487",
"I. c #C19789",
"U. c #CC978B",
"Y. c #C3998B",
"T. c #CA9D8E",
"R. c #C0A08E",
"E. c #CAA092",
"W. c #C6AD9A",
"Q. c #C8AD9B",
"!. c #D2A495",
"~. c #D1A999",
"^. c #DBAC9D",
"/. c #C9B09C",
"(. c #CEB3A4",
"). c #D1B5A5",
"_. c #D2B9A9",
"`. c #E4B5A5",
"'. c #E7B8A8",
"]. c #E8B8A8",
"[. c #E8B7A7",
"{. c #D8C4B4",
"}. c None",
/* pixels */
"}.}.}.}.}.}.}.}.}.}.}.}.}.}.}.}.}.}.}.}.}.}.}.}.}.}.}.}.}.}.}.}.}.}.}.}.}.}.}.}.}.}.}.}.}.}.}.}.}.}.}.}.}.}.}.}.}.}.}.}.}.}.}.}.",
"}.}.}.}.}.}.}.}.}.}.}.}.}.}.}.}.}.}.}.}.}.}.}.}.}.}.}.}.}.}.}.}.}.}.}.}.}.}.}.}.}.}.}.}.}.}.}.}.}.}.}.}.}.}.}.}.}.}.}.}.}.}.}.}.",
"}.}.}.}.}.}.}.}.}.}.}.}.}.}.}.}.}.}.}.}.}.}.}.}.}.}.}.}.}.}.}.}.}.}.}.}.}.}.}.}.}.}.}.}.}.}.}.}.}.}.}.}.}.}.}.}.}.}.}.}.}.}.}.}.",
"}.}.}.}.}.}.}.}.}.}.}.}.}.}.}.}.}.}.}.}.}.}.}.}.}.}.}.}.}.}.}.}.}.}.}.}.}.}.}.}.}.}.}.}.}.}.}.}.}.}.}.}.}.}.}.}.}.}.}.}.}.}.}.}.",
"}.}.}.}.}.}.}.}.}.}.}.}.}.}.}.}.}.}.}.}.}.}.}.}.}.}.}.}.}.}.}.}.}.}.}.}.}.}.}.}.}.}.}.}.}.}.}.}.}.}.}.}.}.}.}.}.}.}.}.}.}.}.}.}.",
"}.}.}.}.}.}.}.}.}.}.}.}.}.}.}.}.}.}.}.}.}.}.}.}.}.}.}.}.}.}.}.}.}.}.}.}.}.}.}.}.}.}.}.}.}.}.}.}.}.}.}.}.}.}.}.}.}.}.}.}.}.}.}.}.",
"}.}.}.}.}.}.}.}.}.}.}.}.}.}.}.}.}.}.}.}.}.}.}.}.}.}.}.}.}.}.}.}.}.}.}.}.}.}.}.}.}.}.}.}.}.}.}.}.}.}.}.}.}.}.}.}.}.}.}.}.}.}.}.}.",
"}.}.}.}.}.}.}.}.}.}.}.}.}.}.}.}.}.}.}.}.}.}.}.}.}.}.}.}.}.}.}.}.}.}.}.}.}.}.}.}.}.}.}.}.}.}.}.}.}.}.}.}.}.}.}.}.}.}.}.}.}.}.}.}.",
"}.}.}.}.}.}.}.}.}.}.}.}.}.}.}.}.}.}.}.}.}.}.}.}.}.}.}.}.}.}.}.}.}.}.}.}.}.}.}.}.}.}.}.}.}.}.}.}.}.}.}.}.}.}.}.}.}.}.}.}.}.}.}.}.",
"}.}.}.}.}.}.}.}.}.}.}.}.}.}.}.}.}.}.}.}.}.}.}.}.}.}.}.}.}.}.}.}.}.}.}.}.}.}.}.}.}.}.}.}.}.}.}.}.}.}.}.}.}.}.}.}.}.}.}.}.}.}.}.}.",
"}.}.}.}.}.}.}.}.}.}.}.}.}.}.}.}.}.}.}.}.}.}.}.}.}.}.}.}.}.}.}.}.}.}.}.}.}.}.}.}.}.}.}.}.}.}.}.}.}.}.}.}.}.}.}.}.}.}.}.}.}.}.}.}.",
"}.}.}.}.}.}.}.}.}.}.}.}.}.}.}.}.}.}.}.}.}.}.}.}.}.}.}.}.}.}.}.}.}.}.}.}.}.}.}.}.}.}.}.}.}.}.}.}.}.}.}.}.}.}.}.}.}.}.}.}.}.}.}.}.",
"}.}.}.}.}.}.}.}.}.}.}.}.}.}.}.}.}.}.}.}.}.}.}.}.}.}.}.}.X X X X }.}.}.}.X X }.}.}.}.}.}.}.}.}.}.}.}.}.}.}.}.}.}.}.}.}.}.}.}.}.}.",
"}.}.}.}.}.}.}.}.}.}.}.}.}.}.}.}.}.}.}.}.}.}.}.}.}.}.}.}.+ # # + }.}.}.}.+ + }.}.}.}.}.}.}.}.}.}.}.}.}.}.}.}.}.}.}.}.}.}.}.}.}.}.",
"}.}.}.}.}.}.}.}.}.}.}.}.}.}.}.}.}.}.}.}.}.}.X X X . X + , u 7 , + .   + 5 , + . }.}.}.}.}.}.}.}.}.}.}.}.}.}.}.}.}.}.}.}.}.}.}.}.",
"}.}.}.}.}.}.}.}.}.}.}.}.}.}.}.}.}.}.}.}.}.}.+ # # + + - y x k i - + + - p p - + }.}.}.}.}.}.}.}.}.}.}.}.}.}.}.}.}.}.}.}.}.}.}.}.",
"}.}.}.}.}.}.}.}.}.}.}.}.}.}.}.}.}.}.}.}.X # 5 7 7 7 7 y x ^ ^ z y 7 6 y x z i , + X }.}.}.}.}.}.}.}.}.}.}.}.}.}.}.}.}.}.}.}.}.}.",
"}.}.}.}.}.}.}.}.}.}.}.}.}.}.}.}.}.}.}.}.X + , y k k k k ^ ( ( ^ x k k z ^ ^ x i > # }.}.}.}.}.}.}.}.}.}.}.}.}.}.}.}.}.}.}.}.}.}.",
"}.}.}.}.}.}.}.}.}.}.}.}.}.}.}.}.}.}.}.}.}.}.+ - f ^ C ( ( ( ( ( ^ ^ L ^ ( ( L C z 8 # . }.}.}.}.}.}.}.}.}.}.}.}.}.}.}.}.}.}.}.}.",
"}.}.}.}.}.}.}.}.}.}.}.}.}.}.}.}.}.}.}.}.}.}.# 5 V ( ( ( ( ( ( ( ( ( ( ( ( ( ( _ _ z > + }.}.}.}.}.}.}.}.}.}.}.}.}.}.}.}.}.}.}.}.",
"}.}.}.}.}.}.}.}.}.}.}.}.}.}.}.}.}.}.}.}.X * 8 z I ( ( ( ( ( ( ( ( ( ( ( ( ( ( ( ( C i , + . }.}.}.}.}.}.}.}.}.}.}.}.}.}.}.}.}.}.",
"}.}.}.}.}.}.}.}.}.}.}.}.}.}.}.}.}.}.}.}.. * f _ ( ( ( ( L C C C ( ( L L I ( ( ( ( L k 8 = + }.}.}.}.}.}.}.}.}.}.}.}.}.}.}.}.}.}.",
"}.}.}.}.}.}.}.}.}.}.}.}.}.}.}.}.}.}.}.}.. * k _ ( ( ( C z s k z L L z z L ( ( ( ( L k p y , # X }.}.}.}.}.}.}.}.}.}.}.}.}.}.}.}.",
"}.}.}.}.}.}.}.}.}.}.}.}.}.}.}.}.}.}.}.}.# - f ^ / ( ( ( ` Z k f C Z j j Z ( ( ( ( ^ x s y 5 # X }.}.}.}.}.}.}.}.}.}.}.}.}.}.}.}.",
"}.}.}.}.}.}.}.}.}.}.}.}.}.}.}.}.}.}.X # , y k k L ( ^  .j.p.Z p C Z v v Z ( ( ( ( ( ^ f - + }.}.}.}.}.}.}.}.}.}.}.}.}.}.}.}.}.}.",
"}.}.}.}.}.}.}.}.}.}.}.}.}.}.}.}.}.}.X # , u p k C _  .p.Y.P.w./ ( ) 4.3.A / ( ( ( ( _ f *   }.}.}.}.}.}.}.}.}.}.}.}.}.}.}.}.}.}.",
"}.}.}.}.}.}.}.}.}.}.}.}.}.}.}.}.}.}.}.}.# = 7 k L  .j.P.!.!.Z.i.[ [ g.h.4.M Z ( ( ( _ f $   }.}.}.}.}.}.}.}.}.}.}.}.}.}.}.}.}.}.",
"}.}.}.}.}.}.}.}.}.}.}.}.}.}.}.}.}.}.}.}.. # u z L #.V.T.x.v.E.Y.r.p.Y.b.3.c m Z L L ( z 5 * }.}.}.}.}.}.}.}.}.}.}.}.}.}.}.}.}.}.",
"}.}.}.}.}.}.}.}.}.}.}.}.}.}.}.}.}.}.}.}.. # a ^ L ..V.x.^ ( Z.^.Y.Y.^.v.k ; c n l z L L V i # X }.}.}.}.}.}.}.}.}.}.}.}.}.}.}.}.",
"}.}.}.}.}.}.}.}.}.}.}.}.}.}.}.}.}.}.}.}.# 5 z ` ' t.P.j.6 8 x.'.`.^.'.v.q & t n m ^ ^ L z i * X }.}.}.}.}.}.}.}.}.}.}.}.}.}.}.}.",
"}.}.}.}.}.}.}.}.}.}.}.}.}.}.}.}.}.}.X # 6 s L [ 9.k.U.j.i p B.'.`.`.].v.f ; t 1.6.8./ s 1 $ }.}.}.}.}.}.}.}.}.}.}.}.}.}.}.}.}.}.",
"}.}.}.}.}.}.}.}.}.}.}.}.}.}.}.}.}.}.X # 6 s C ) 9.h.U.V.[  .A.'.'.`.].Y. .Z 3.6.q.8./ y # . }.}.}.}.}.}.}.}.}.}.}.}.}.}.}.}.}.}.",
"}.}.}.}.}.}.}.}.}.}.}.}.}.}.}.}.}.}.}.}.# - s ^ / 7.V.!.A.Y.^.`.`.`.`.^.Y.Z.b.g.7./ x y # . }.}.}.}.}.}.}.}.}.}.}.}.}.}.}.}.}.}.",
"}.}.}.}.}.}.}.}.}.}.}.}.}.}.}.}.}.}.}.}.. # 6 i f ) u.I.^.'.'.`.`.`.`.`.'.^.Y.a._ k a 7 $ . }.}.}.}.}.}.}.}.}.}.}.}.}.}.}.}.}.}.",
"}.}.}.}.}.}.}.}.}.}.}.}.}.}.}.}.}.}.}.}.}.}.# - a L _ r.Y.`.`.'.'.`.'.`.`.U.r.) C a - # }.}.}.}.}.}.}.}.}.}.}.}.}.}.}.}.}.}.}.}.",
"}.}.}.}.}.}.}.}.}.}.}.}.}.}.}.}.}.}.}.}.}.}.. # 7 a s ^ r.v.!.^.`.^.`.!.v.r.( f a 6 #   }.}.}.}.}.}.}.}.}.}.}.}.}.}.}.}.}.}.}.}.",
"}.}.}.}.}.}.}.}.}.}.}.}.}.}.}.}.}.}.}.}.}.}.}.}.+ - y s q ( v.^.^.~.^.v.I 8 s p - # }.}.}.}.}.}.}.}.}.}.}.}.}.}.}.}.}.}.}.}.}.}.",
"}.}.}.}.}.}.}.}.}.}.}.}.}.}.}.}.}.}.}.}.}.}.}.}.o - f h $ i a.~.!.~.~.c.8 * d f : o }.}.}.}.}.}.}.}.}.}.}.}.}.}.}.}.}.}.}.}.}.}.",
"}.}.}.}.}.}.}.}.}.}.}.}.}.}.}.}.}.}.}.}.}.}.X O = q R R 0 B l.Q.W.W./.l.B 0 R R q - O X }.}.}.}.}.}.}.}.}.}.}.}.}.}.}.}.}.}.}.}.",
"}.}.}.}.}.}.}.}.}.}.}.}.}.}.}.}.}.}.}.}.}.}.X o 1 B o.o.g U C./.D.v.n.i.C N o.o.B - + X }.}.}.}.}.}.}.}.}.}.}.}.}.}.}.}.}.}.}.}.",
"}.}.}.}.}.}.}.}.}.}.}.}.}.}.}.}.}.}.}.}.}.}.X O - h o.o.P } H.Q.s.3.6.3.x P o.o.B > o . }.}.}.}.}.}.}.}.}.}.}.}.}.}.}.}.}.}.}.}.",
"}.}.}.}.}.}.}.}.}.}.}.}.}.}.}.}.}.}.}.}.}.}.o $ 5 B $.$.P | J._.g.3.2.b x T $.$.B , # O }.}.}.}.}.}.}.}.}.}.}.}.}.}.}.}.}.}.}.}.",
"}.}.}.}.}.}.}.}.}.}.}.}.}.}.}.}.}.}.}.}.X o - 5 6 B >.,.T @.H.{.).b.3.2.k E ,.>.B 6 5 - @ . }.}.}.}.}.}.}.}.}.}.}.}.}.}.}.}.}.}.",
"}.}.}.}.}.}.}.}.}.}.}.}.}.}.}.}.}.}.}.}.X # 5 8 8 B >.,.T | G._./.I.s.0.L E ,.>.B 8 8 5 @ X }.}.}.}.}.}.}.}.}.}.}.}.}.}.}.}.}.}.",
"}.}.}.}.}.}.}.}.}.}.}.}.}.}.}.}.}.}.}.}.. @ q d q B $.:.P } C.S.f.f.I.N.} P :.$.B i d 8 @ . }.}.}.}.}.}.}.}.}.}.}.}.}.}.}.}.}.}.",
"}.}.}.}.}.}.}.}.}.}.}.}.}.}.}.}.}.}.}.}.@ = e d 6 e Y R P } F.S.e.f.).L.@.V R Y e 6 g a : @ }.}.}.}.}.}.}.}.}.}.}.}.}.}.}.}.}.}.",
"}.}.}.}.}.}.}.}.}.}.}.}.}.}.}.}.}.}.X @ 2 a h e * * 0 d d O.H._.R.R.{.L.@.B d 0 * = e g e 5 @ X }.}.}.}.}.}.}.}.}.}.}.}.}.}.}.}.",
"}.}.}.}.}.}.}.}.}.}.}.}.}.}.}.}.}.}.X = I ....K * O > 8 i { M.K.F.F.H.M.{ a 8 > o * K ..#.P = X }.}.}.}.}.}.}.}.}.}.}.}.}.}.}.}.",
"}.}.}.}.}.}.}.}.}.}.}.}.}.}.}.}.}.}.X 0 i.E.Y.r.6 o : 6 8 h *.<.;.;.<.*.h 8 6 > o 6 r.A.E.i.6   }.}.}.}.}.}.}.}.}.}.}.}.}.}.}.}.",
"}.}.}.}.}.}.}.}.}.}.}.}.}.}.}.}.}.}.  0 y.v.z.#.> + 9 g g S W Q Q Q Q W S g g 6 O 1 #.z.B.y.q   }.}.}.}.}.}.}.}.}.}.}.}.}.}.}.}.",
"}.}.}.}.}.}.}.}.}.}.}.}.}.}.}.}.}.}.}.}.q q q , O % H ~ &.~ &.%.Q Q %.&.~ ~ ~ H % O > i q q }.}.}.}.}.}.}.}.}.}.}.}.}.}.}.}.}.}.",
"}.}.}.}.}.}.}.}.}.}.}.}.}.}.}.}.}.}.}.}.          : W -.-.=.=.%.F F ! =.=.-.-.W <           }.}.}.}.}.}.}.}.}.}.}.}.}.}.}.}.}.}.",
"}.}.}.}.}.}.}.}.}.}.}.}.}.}.}.}.}.}.}.}.}.}.}.}.. % W -.-.=.&.F 3 3 F %.=.-.-.W < . }.}.}.}.}.}.}.}.}.}.}.}.}.}.}.}.}.}.}.}.}.}.",
"}.}.}.}.}.}.}.}.}.}.}.}.}.}.}.}.}.}.}.}.}.}.}.}.. % F =.=.%.F w @ @ w F %.=.=.F % . }.}.}.}.}.}.}.}.}.}.}.}.}.}.}.}.}.}.}.}.}.}.",
"}.}.}.}.}.}.}.}.}.}.}.}.}.}.}.}.}.}.}.}.}.}.}.}.. % F %.%.F 4 @ }.}.% 3 F %.%.F % X }.}.}.}.}.}.}.}.}.}.}.}.}.}.}.}.}.}.}.}.}.}.",
"}.}.}.}.}.}.}.}.}.}.}.}.}.}.}.}.}.}.}.}.}.}.}.}.X $ r F F r $ . }.}.X @ r F F r $ X }.}.}.}.}.}.}.}.}.}.}.}.}.}.}.}.}.}.}.}.}.}.",
"}.}.}.}.}.}.}.}.}.}.}.}.}.}.}.}.}.}.}.}.}.}.}.}.X + 2 q 0 2 O X }.}.X @ 1 e e 1 @ X }.}.}.}.}.}.}.}.}.}.}.}.}.}.}.}.}.}.}.}.}.}.",
"}.}.}.}.}.}.}.}.}.}.}.}.}.}.}.}.}.}.}.}.}.}.}.}.X + 2 i q , @ X }.}.X # 5 y 8 1 # X }.}.}.}.}.}.}.}.}.}.}.}.}.}.}.}.}.}.}.}.}.}.",
"}.}.}.}.}.}.}.}.}.}.}.}.}.}.}.}.}.}.}.}.}.}.}.}.X $ q N N q $ X }.}.X $ q V V q # X }.}.}.}.}.}.}.}.}.}.}.}.}.}.}.}.}.}.}.}.}.}.",
"}.}.}.}.}.}.}.}.}.}.}.}.}.}.}.}.}.}.}.}.}.}.}.}.. $ q N N q * X }.}.X @ q N N 0 $ X }.}.}.}.}.}.}.}.}.}.}.}.}.}.}.}.}.}.}.}.}.}.",
"}.}.}.}.}.}.}.}.}.}.}.}.}.}.}.}.}.}.}.}.}.}.}.}.X O * > > : o X }.}.X O : > > * O X }.}.}.}.}.}.}.}.}.}.}.}.}.}.}.}.}.}.}.}.}.}.",
"}.}.}.}.}.}.}.}.}.}.}.}.}.}.}.}.}.}.}.}.}.}.}.}.}.}.}.}.}.}.}.}.}.}.}.}.}.}.}.}.}.}.}.}.}.}.}.}.}.}.}.}.}.}.}.}.}.}.}.}.}.}.}.}.",
"}.}.}.}.}.}.}.}.}.}.}.}.}.}.}.}.}.}.}.}.}.}.}.}.}.}.}.}.}.}.}.}.}.}.}.}.}.}.}.}.}.}.}.}.}.}.}.}.}.}.}.}.}.}.}.}.}.}.}.}.}.}.}.}.",
"}.}.}.}.}.}.}.}.}.}.}.}.}.}.}.}.}.}.}.}.}.}.}.}.}.}.}.}.}.}.}.}.}.}.}.}.}.}.}.}.}.}.}.}.}.}.}.}.}.}.}.}.}.}.}.}.}.}.}.}.}.}.}.}."
};
