/* XPM */
static char *result[] = {
/* columns rows colors chars-per-pixel */
"64 64 179 2 ",
"   c #060603",
".  c #090704",
"X  c #0A0805",
"o  c #16110E",
"O  c #19130F",
"+  c #161514",
"@  c #1B1511",
"#  c #1F1815",
"$  c #171918",
"%  c #1D1E1E",
"&  c #250F0B",
"*  c #201A16",
"=  c #261D1A",
"-  c #291E1A",
";  c #341711",
":  c #2C221E",
">  c #32231F",
",  c #232729",
"<  c #2F2320",
"1  c #332522",
"2  c #352926",
"3  c #3B2925",
"4  c #3B2E2A",
"5  c #373129",
"6  c #3D312C",
"7  c #2B3337",
"8  c #3E3535",
"9  c #65261C",
"0  c #422E2A",
"q  c #402C27",
"w  c #44312D",
"e  c #49322D",
"r  c #433531",
"t  c #4C3632",
"y  c #443A35",
"u  c #4C3A35",
"i  c #493E3A",
"p  c #5A3731",
"a  c #533A35",
"s  c #593933",
"d  c #553E39",
"f  c #583F3A",
"g  c #642C23",
"h  c #6F352C",
"j  c #743127",
"k  c #77372D",
"l  c #6B3C35",
"z  c #743B32",
"x  c #4B423A",
"c  c #56413C",
"v  c #5C433F",
"b  c #64443E",
"n  c #7A483E",
"m  c #413E40",
"M  c #394043",
"N  c #3B454B",
"B  c #4F4840",
"V  c #4C4D4F",
"C  c #5E4641",
"Z  c #534E45",
"A  c #5B4A45",
"S  c #5F4F49",
"D  c #575249",
"F  c #59554D",
"G  c #5A5C4B",
"H  c #565947",
"J  c #444D53",
"K  c #43525B",
"L  c #4B575F",
"P  c #50565C",
"I  c #614741",
"U  c #6A4742",
"Y  c #634A45",
"T  c #6C4B45",
"R  c #674D48",
"E  c #6A4E49",
"W  c #714E4A",
"Q  c #6A524C",
"!  c #72544E",
"~  c #635752",
"^  c #6A5B55",
"/  c #6C5E58",
"(  c #765A53",
")  c #765750",
"_  c #5F614F",
"`  c #636C56",
"'  c #6F625C",
"]  c #686F5A",
"[  c #656F58",
"{  c #71645E",
"}  c #7F6159",
"|  c #67715A",
" . c #6A735D",
".. c #4D5B64",
"X. c #505B63",
"o. c #5D5F60",
"O. c #56636C",
"+. c #58656D",
"@. c #5A6770",
"#. c #5B6871",
"$. c #636A6C",
"%. c #6B7560",
"&. c #727A65",
"*. c #757E6A",
"=. c #666E71",
"-. c #8D3E34",
";. c #87362A",
":. c #87493D",
">. c #8A4C40",
",. c #944E41",
"<. c #9C554E",
"1. c #885B56",
"2. c #905957",
"3. c #935C59",
"4. c #885248",
"5. c #A25E59",
"6. c #88655C",
"7. c #A36859",
"8. c #8D6C63",
"9. c #916861",
"0. c #8E7066",
"q. c #937368",
"w. c #9B766B",
"e. c #96786D",
"r. c #98756B",
"t. c #9F7F72",
"y. c #AA6E61",
"u. c #A66E60",
"i. c #A97062",
"p. c #AD7A6D",
"a. c #B1746A",
"s. c #A27D72",
"d. c #B37570",
"f. c #9E8778",
"g. c #AE897C",
"h. c #A48678",
"j. c #B28C7E",
"k. c #BC8C7D",
"l. c #B3907D",
"z. c #C18D7F",
"x. c #9C938B",
"c. c #AA8F84",
"v. c #B38D80",
"b. c #BB8F82",
"n. c #AA998A",
"m. c #A59485",
"M. c #BB9184",
"N. c #BF9689",
"B. c #BE9E8C",
"V. c #B89986",
"C. c #A99F92",
"Z. c #B5A699",
"A. c #B6A79A",
"S. c #BCAEA2",
"D. c #B4ABA1",
"F. c #BDB0A4",
"G. c #C19487",
"H. c #C19789",
"J. c #CC978B",
"K. c #C3998B",
"L. c #CA9D8E",
"P. c #C69D90",
"I. c #C0A08E",
"U. c #C6AD9A",
"Y. c #C8AD9B",
"T. c #CDA092",
"R. c #D2A495",
"E. c #D1A999",
"W. c #DBAC9D",
"Q. c #C9B09C",
"!. c #CEB3A4",
"~. c #D1B5A5",
"^. c #D2B9A9",
"/. c #E4B5A5",
"(. c #E7B8A8",
"). c #E8B8A8",
"_. c #E8B7A7",
"`. c #D8C4B4",
"'. c None",
/* pixels */
"'.'.'.'.'.'.'.'.'.'.'.'.'.'.'.'.'.'.'.'.'.'.'.'.'.'.'.'.'.'.'.'.'.'.'.'.'.'.'.'.'.'.'.'.'.'.'.'.'.'.'.'.'.'.'.'.'.'.'.'.'.'.'.'.",
"'.'.'.'.'.'.'.'.'.'.'.'.'.'.'.'.'.'.'.'.'.'.'.'.'.'.'.'.'.'.'.'.'.'.'.'.'.'.'.'.'.'.'.'.'.'.'.'.'.'.'.'.'.'.'.'.'.'.'.'.'.'.'.'.",
"'.'.'.'.'.'.'.'.'.'.'.'.'.'.'.'.'.'.'.'.'.'.'.'.'.'.'.'.'.'.'.'.'.'.'.'.'.'.'.'.'.'.'.'.'.'.'.'.'.'.'.'.'.'.'.'.'.'.'.'.'.'.'.'.",
"'.'.'.'.'.'.'.'.'.'.'.'.'.'.'.'.'.'.'.'.'.'.'.'.'.'.'.'.'.'.'.'.'.'.'.'.'.'.'.'.'.'.'.'.'.'.'.'.'.'.'.'.'.'.'.'.'.'.'.'.'.'.'.'.",
"'.'.'.'.'.'.'.'.'.'.'.'.'.'.'.'.'.'.'.'.'.'.'.'.'.'.'.'.'.'.'.'.'.'.'.'.'.'.'.'.'.'.'.'.'.'.'.'.'.'.'.'.'.'.'.'.'.'.'.'.'.'.'.'.",
"'.'.'.'.'.'.'.'.'.'.'.'.'.'.'.'.'.'.'.'.'.'.'.'.'.'.'.'.'.'.'.'.'.'.'.'.'.'.'.'.'.'.'.'.'.'.'.'.'.'.'.'.'.'.'.'.'.'.'.'.'.'.'.'.",
"'.'.'.'.'.'.'.'.'.'.'.'.'.'.'.'.'.'.'.'.'.'.'.'.'.'.'.'.'.'.'.'.'.'.'.'.'.'.'.'.'.'.'.'.'.'.'.'.'.'.'.'.'.'.'.'.'.'.'.'.'.'.'.'.",
"'.'.'.'.'.'.'.'.'.'.'.'.'.'.'.'.'.'.'.'.'.'.'.'.'.'.'.'.'.'.'.'.'.'.'.'.'.'.'.'.'.'.'.'.'.'.'.'.'.'.'.'.'.'.'.'.'.'.'.'.'.'.'.'.",
"'.'.'.'.'.'.'.'.'.'.'.'.'.'.'.'.'.'.'.'.'.'.'.'.'.'.'.'.'.'.'.'.'.'.'.'.'.'.'.'.'.'.'.'.'.'.'.'.'.'.'.'.'.'.'.'.'.'.'.'.'.'.'.'.",
"'.'.'.'.'.'.'.'.'.'.'.'.'.'.'.'.'.'.'.'.'.'.'.'.'.'.'.'.'.'.'.'.'.'.'.'.'.'.'.'.'.'.'.'.'.'.'.'.'.'.'.'.'.'.'.'.'.'.'.'.'.'.'.'.",
"'.'.'.'.'.'.'.'.'.'.'.'.'.'.'.'.'.'.'.'.'.'.'.'.'.'.'.'.'.'.'.'.'.'.'.'.'.'.'.'.'.'.'.'.'.'.'.'.'.'.'.'.'.'.'.'.'.'.'.'.'.'.'.'.",
"'.'.'.'.'.'.'.'.'.'.'.'.'.'.'.'.'.'.'.'.'.'.'.'.'.'.'.'.'.'.'.'.'.'.'.'.'.'.'.'.'.'.'.'.'.'.'.'.'.'.'.'.'.'.'.'.'.'.'.'.'.'.'.'.",
"'.'.'.'.'.'.'.'.'.'.'.'.'.'.'.'.'.'.'.'.'.'.'.'.'.'.'.'.'.'.'.'.'.'.'.'.'.'.'.'.'.'.'.'.'.'.'.'.'.'.'.'.'.'.'.'.'.'.'.'.'.'.'.'.",
"'.'.'.'.'.'.'.'.'.'.'.'.'.'.'.'.'.'.'.'.'.'.'.'.'.'.'.'.'.'.'.'.'.'.'.'.'.'.'.'.'.'.'.'.'.'.'.'.'.'.'.'.'.'.'.'.'.'.'.'.'.'.'.'.",
"'.'.'.'.'.'.'.'.'.'.'.'.'.'.'.'.'.'.'.'.'.'.'.'.'.'.'.'.'.'.'.'.'.'.'.'.'.'.'.'.'.'.'.'.'.'.'.'.'.'.'.'.'.'.'.'.'.'.'.'.'.'.'.'.",
"'.'.'.'.'.'.'.'.'.'.'.'.'.'.'.'.'.'.'.'.'.'.'.'.'.'.'.'.'.'.'.'.'.'.'.'.'.'.'.'.'.'.'.'.'.'.'.'.'.'.'.'.'.'.'.'.'.'.'.'.'.'.'.'.",
"'.'.'.'.'.'.'.'.'.'.'.'.'.'.'.'.'.'.'.'.'.'.'.'.'.'.'.'.X X X X '.'.'.'.X X '.'.'.'.'.'.'.'.'.'.'.'.'.'.'.'.'.'.'.'.'.'.'.'.'.'.",
"'.'.'.'.'.'.'.'.'.'.'.'.'.'.'.'.'.'.'.'.'.'.'.'.'.'.'.'.O @ @ O '.'.'.'.@ O '.'.'.'.'.'.'.'.'.'.'.'.'.'.'.'.'.'.'.'.'.'.'.'.'.'.",
"'.'.'.'.'.'.'.'.'.'.'.'.'.'.'.'.'.'.'.'.'.'.X X X X . O > 3 q 1 O . . O > > O . '.'.'.'.'.'.'.'.'.'.'.'.'.'.'.'.'.'.'.'.'.'.'.'.",
"'.'.'.'.'.'.'.'.'.'.'.'.'.'.'.'.'.'.'.'.'.'.@ @ O O O - e a a e = O O = e e - o '.'.'.'.'.'.'.'.'.'.'.'.'.'.'.'.'.'.'.'.'.'.'.'.",
"'.'.'.'.'.'.'.'.'.'.'.'.'.'.'.'.'.'.'.'.X @ > 3 3 3 3 0 f I I c w 3 3 0 c f e : O X '.'.'.'.'.'.'.'.'.'.'.'.'.'.'.'.'.'.'.'.'.'.",
"'.'.'.'.'.'.'.'.'.'.'.'.'.'.'.'.'.'.'.'.X @ > 0 u a a f C Y Y I f a a a C I f e : @ '.'.'.'.'.'.'.'.'.'.'.'.'.'.'.'.'.'.'.'.'.'.",
"'.'.'.'.'.'.'.'.'.'.'.'.'.'.'.'.'.'.'.'.'.'.O - u I C C Y Y Y Y I I C I Y Y C v d 4 #   '.'.'.'.'.'.'.'.'.'.'.'.'.'.'.'.'.'.'.'.",
"'.'.'.'.'.'.'.'.'.'.'.'.'.'.'.'.'.'.'.'.'.'.@ 1 c Y Y Y Y Y Y Y Y Y Y Y Y Y Y Y R d : O '.'.'.'.'.'.'.'.'.'.'.'.'.'.'.'.'.'.'.'.",
"'.'.'.'.'.'.'.'.'.'.'.'.'.'.'.'.'.'.'.'.. * 0 f C Y Y Y Y Y Y Y Y Y Y Y Y Y Y Y Y v e > O   '.'.'.'.'.'.'.'.'.'.'.'.'.'.'.'.'.'.",
"'.'.'.'.'.'.'.'.'.'.'.'.'.'.'.'.'.'.'.'.. * u R Y Y Y Y v v v C I Y C C A Y Y Y Y C a 0 = O '.'.'.'.'.'.'.'.'.'.'.'.'.'.'.'.'.'.",
"'.'.'.'.'.'.'.'.'.'.'.'.'.'.'.'.'.'.'.'.. * u R Y Y Y C a a a f C I f d C Y Y Y Y C a e q > O X '.'.'.'.'.'.'.'.'.'.'.'.'.'.'.'.",
"'.'.'.'.'.'.'.'.'.'.'.'.'.'.'.'.'.'.'.'.O : u I Y Y I Y E b t t C v p p b Y Y Y Y C f t w > O X '.'.'.'.'.'.'.'.'.'.'.'.'.'.'.'.",
"'.'.'.'.'.'.'.'.'.'.'.'.'.'.'.'.'.'.X @ > 0 t f I Y I ( w.w.I t v b h h b Y Y Y Y Y I u : O '.'.'.'.'.'.'.'.'.'.'.'.'.'.'.'.'.'.",
"'.'.'.'.'.'.'.'.'.'.'.'.'.'.'.'.'.'.X @ > 0 0 a v E ( q.K.G.6.T Y T >.>.n U Y Y Y Y E u *   '.'.'.'.'.'.'.'.'.'.'.'.'.'.'.'.'.'.",
"'.'.'.'.'.'.'.'.'.'.'.'.'.'.'.'.'.'.'.'.@ - q a v ( s.H.R.R.b.w.! ) p.i.>.z b Y Y Y Y u #   '.'.'.'.'.'.'.'.'.'.'.'.'.'.'.'.'.'.",
"'.'.'.'.'.'.'.'.'.'.'.'.'.'.'.'.'.'.'.'.. O 3 f v } M.L.j.g.L.K.0.q.K.k.:.g l b v C Y d 1 # '.'.'.'.'.'.'.'.'.'.'.'.'.'.'.'.'.'.",
"'.'.'.'.'.'.'.'.'.'.'.'.'.'.'.'.'.'.'.'.X @ r C C 6.k.g.C A M.W.K.K.W.v.a ; g z s d C I d w * X '.'.'.'.'.'.'.'.'.'.'.'.'.'.'.'.",
"'.'.'.'.'.'.'.'.'.'.'.'.'.'.'.'.'.'.'.'.@ < d E E 9.G.s.3 5 g._.W.W.(.g.6 & 9 k l I I C m 6 * X '.'.'.'.'.'.'.'.'.'.'.'.'.'.'.'.",
"'.'.'.'.'.'.'.'.'.'.'.'.'.'.'.'.'.'.X @ 2 t v W 3.d.J.h.w r j.(._._._.v.u ; 9 -.<.2.U u 1 * '.'.'.'.'.'.'.'.'.'.'.'.'.'.'.'.'.'.",
"'.'.'.'.'.'.'.'.'.'.'.'.'.'.'.'.'.'.X @ 2 t v W 2.a.J.j.) ( N.(._._.).K.) b :.<.5.2.U 0 & X '.'.'.'.'.'.'.'.'.'.'.'.'.'.'.'.'.'.",
"'.'.'.'.'.'.'.'.'.'.'.'.'.'.'.'.'.'.'.'.@ : t C U 1.M.R.N.K.W././._./.W.K.M.z.p.1.I f 0 @ X '.'.'.'.'.'.'.'.'.'.'.'.'.'.'.'.'.'.",
"'.'.'.'.'.'.'.'.'.'.'.'.'.'.'.'.'.'.'.'.X @ 1 e t E w.K.W._./././././._._.W.K.s.E u r 3 @ X '.'.'.'.'.'.'.'.'.'.'.'.'.'.'.'.'.'.",
"'.'.'.'.'.'.'.'.'.'.'.'.'.'.'.'.'.'.'.'.'.'.O = r C E 8.K././._././._././.K.9.Q C e - @ '.'.'.'.'.'.'.'.'.'.'.'.'.'.'.'.'.'.'.'.",
"'.'.'.'.'.'.'.'.'.'.'.'.'.'.'.'.'.'.'.'.'.'.X @ 2 e t Y 8.j.R.W.W./.W.R.j.8.Y t e 2 @ . '.'.'.'.'.'.'.'.'.'.'.'.'.'.'.'.'.'.'.'.",
"'.'.'.'.'.'.'.'.'.'.'.'.'.'.'.'.'.'.'.'.'.'.'.'.+ - w t 4 Y j.W.W.W.W.g.Y 6 t w - O '.'.'.'.'.'.'.'.'.'.'.'.'.'.'.'.'.'.'.'.'.'.",
"'.'.'.'.'.'.'.'.'.'.'.'.'.'.'.'.'.'.'.'.'.'.'.'.+ = i u # 6 t.E.E.E.R.f.6 * u x : + '.'.'.'.'.'.'.'.'.'.'.'.'.'.'.'.'.'.'.'.'.'.",
"'.'.'.'.'.'.'.'.'.'.'.'.'.'.'.'.'.'.'.'.'.'.X @ 2 B G H 5 d f.U.U.Q.Q.h.x 5 G _ x 2 @ X '.'.'.'.'.'.'.'.'.'.'.'.'.'.'.'.'.'.'.'.",
"'.'.'.'.'.'.'.'.'.'.'.'.'.'.'.'.'.'.'.'.'.'.X @ 6 Z | ` x D m.U.V.l.l.q.c x ` | V 5 @ X '.'.'.'.'.'.'.'.'.'.'.'.'.'.'.'.'.'.'.'.",
"'.'.'.'.'.'.'.'.'.'.'.'.'.'.'.'.'.'.'.'.'.'.X + 1 x ] [ B ^ Z.Y.u.:.:.:.c Z | ` x 1 o X '.'.'.'.'.'.'.'.'.'.'.'.'.'.'.'.'.'.'.'.",
"'.'.'.'.'.'.'.'.'.'.'.'.'.'.'.'.'.'.'.'.'.'.o @ < x ] | Z ' S.^.p.,.;.j s D %.| x : @ o '.'.'.'.'.'.'.'.'.'.'.'.'.'.'.'.'.'.'.'.",
"'.'.'.'.'.'.'.'.'.'.'.'.'.'.'.'.'.'.'.'.X o = 1 2 x &.&.D ' A.`.^.k.:.j s F *.&.x 2 1 = O X '.'.'.'.'.'.'.'.'.'.'.'.'.'.'.'.'.'.",
"'.'.'.'.'.'.'.'.'.'.'.'.'.'.'.'.'.'.'.'.X + 1 0 4 x &.*.D / Z.`.~.K.a.,.v G *.&.x 4 4 2 @ X '.'.'.'.'.'.'.'.'.'.'.'.'.'.'.'.'.'.",
"'.'.'.'.'.'.'.'.'.'.'.'.'.'.'.'.'.'.'.'.X @ 5 y 3 i |  .Z ^ n.B.i.y.N.c.^ Z %.] x 4 y 4 @ X '.'.'.'.'.'.'.'.'.'.'.'.'.'.'.'.'.'.",
"'.'.'.'.'.'.'.'.'.'.'.'.'.'.'.'.'.'.'.'.X $ 8 i 4 y G G B ^ n.B.7.i.!.F.{ B G H 5 1 y 4 @ X '.'.'.'.'.'.'.'.'.'.'.'.'.'.'.'.'.'.",
"'.'.'.'.'.'.'.'.'.'.'.'.'.'.'.'.'.'.'.'.X @ 6 y 4 4 y y i ' A.^.B.B.`.S.{ i i 4 # # 6 8 $ X '.'.'.'.'.'.'.'.'.'.'.'.'.'.'.'.'.'.",
"'.'.'.'.'.'.'.'.'.'.'.'.'.'.'.'.'.'.'.'.. = A ( Q c 0 5 r ~ x.S.C.C.A.x.~ r 2 2 4 i ^ A = X '.'.'.'.'.'.'.'.'.'.'.'.'.'.'.'.'.'.",
"'.'.'.'.'.'.'.'.'.'.'.'.'.'.'.'.'.'.'.'.  4 e.P.M.q.f 2 3 i P =.$.$.=.o.i 2 2 d 8.v.K.e.3 . '.'.'.'.'.'.'.'.'.'.'.'.'.'.'.'.'.'.",
"'.'.'.'.'.'.'.'.'.'.'.'.'.'.'.'.'.'.'.'.  5 0.j.g.8.A 8 8 m J K K K K J m y 8 A 8.g.v.q.5   '.'.'.'.'.'.'.'.'.'.'.'.'.'.'.'.'.'.",
"'.'.'.'.'.'.'.'.'.'.'.'.'.'.'.'.'.'.'.'.'.'.6 w 6 y V L L P X...K K ....P P L V y 5 w 6 '.'.'.'.'.'.'.'.'.'.'.'.'.'.'.'.'.'.'.'.",
"'.'.'.'.'.'.'.'.'.'.'.'.'.'.'.'.'.'.'.'.'.'.      % J @.@.+.O...N N ..X.+.#.#.J %       '.'.'.'.'.'.'.'.'.'.'.'.'.'.'.'.'.'.'.'.",
"'.'.'.'.'.'.'.'.'.'.'.'.'.'.'.'.'.'.'.'.'.'.'.'.  % J #.+.O.X.N , , N ..O.+.#.J %   '.'.'.'.'.'.'.'.'.'.'.'.'.'.'.'.'.'.'.'.'.'.",
"'.'.'.'.'.'.'.'.'.'.'.'.'.'.'.'.'.'.'.'.'.'.'.'.X % M J J J N 7 $ $ 7 N J J J M % X '.'.'.'.'.'.'.'.'.'.'.'.'.'.'.'.'.'.'.'.'.'.",
"'.'.'.'.'.'.'.'.'.'.'.'.'.'.'.'.'.'.'.'.'.'.'.'.'.'.= % % % % $ '.'.$ % % % , # '.'.'.'.'.'.'.'.'.'.'.'.'.'.'.'.'.'.'.'.'.'.'.'.",
"'.'.'.'.'.'.'.'.'.'.'.'.'.'.'.'.'.'.'.'.'.'.'.'.'.'.X X X X X X '.'.X X X X X X '.'.'.'.'.'.'.'.'.'.'.'.'.'.'.'.'.'.'.'.'.'.'.'.",
"'.'.'.'.'.'.'.'.'.'.'.'.'.'.'.'.'.'.'.'.'.'.'.'.'.'.X X X X X X '.'.X X X X X X '.'.'.'.'.'.'.'.'.'.'.'.'.'.'.'.'.'.'.'.'.'.'.'.",
"'.'.'.'.'.'.'.'.'.'.'.'.'.'.'.'.'.'.'.'.'.'.'.'.'.'.'.'.'.'.'.'.'.'.'.'.'.'.'.'.'.'.'.'.'.'.'.'.'.'.'.'.'.'.'.'.'.'.'.'.'.'.'.'.",
"'.'.'.'.'.'.'.'.'.'.'.'.'.'.'.'.'.'.'.'.'.'.'.'.'.'.'.'.'.'.'.'.'.'.'.'.'.'.'.'.'.'.'.'.'.'.'.'.'.'.'.'.'.'.'.'.'.'.'.'.'.'.'.'.",
"'.'.'.'.'.'.'.'.'.'.'.'.'.'.'.'.'.'.'.'.'.'.'.'.'.'.'.'.'.'.'.'.'.'.'.'.'.'.'.'.'.'.'.'.'.'.'.'.'.'.'.'.'.'.'.'.'.'.'.'.'.'.'.'."
};
