/* XPM */
static char *result[] = {
/* columns rows colors chars-per-pixel */
"64 64 175 2 ",
"   c #050502",
".  c #090704",
"X  c #0A0805",
"o  c #0F0C09",
"O  c #140F0C",
"+  c #16110D",
"@  c #19130F",
"#  c #161412",
"$  c #1B1512",
"%  c #161817",
"&  c #1D1814",
"*  c #171919",
"=  c #1A1C1C",
"-  c #221B16",
";  c #251D1A",
":  c #2A1E1B",
">  c #26221A",
",  c #2B221D",
"<  c #32231F",
"1  c #2E2423",
"2  c #2C2A26",
"3  c #232729",
"4  c #332622",
"5  c #362925",
"6  c #3A2A26",
"7  c #352D2B",
"8  c #3C2E2A",
"9  c #373129",
"0  c #3D322B",
"q  c #393227",
"w  c #3C3232",
"e  c #31363A",
"r  c #3D3A3C",
"t  c #3A3B3A",
"y  c #422E2A",
"u  c #44312D",
"i  c #49332E",
"p  c #453531",
"a  c #4A3531",
"s  c #453B33",
"d  c #4C3934",
"f  c #463A38",
"g  c #483C3A",
"h  c #533B36",
"j  c #553E39",
"k  c #583F3B",
"l  c #4C4336",
"z  c #4B413A",
"x  c #504437",
"c  c #54413B",
"v  c #5A423D",
"b  c #49503F",
"n  c #65433E",
"m  c #343E44",
"M  c #383E41",
"N  c #3B454C",
"B  c #3F4E57",
"V  c #3F4E58",
"C  c #40474E",
"Z  c #41494F",
"A  c #4F4A41",
"S  c #5E4641",
"D  c #534C44",
"F  c #5B4B44",
"G  c #5F4F49",
"H  c #555045",
"J  c #5B5B4C",
"K  c #57524A",
"L  c #434C52",
"P  c #404E58",
"I  c #4C5157",
"U  c #45545C",
"Y  c #49565F",
"T  c #614641",
"R  c #634A45",
"E  c #684D47",
"W  c #6B4E48",
"Q  c #6B4742",
"!  c #714F4A",
"~  c #62524C",
"^  c #71554E",
"/  c #685A55",
"(  c #755751",
")  c #755A53",
"_  c #785B54",
"`  c #5B624D",
"'  c #5E6650",
"]  c #61614F",
"[  c #636552",
"{  c #636C56",
"}  c #6E615C",
"|  c #6E6156",
" . c #74625C",
".. c #667059",
"X. c #69715B",
"o. c #495760",
"O. c #4C5A63",
"+. c #525F67",
"@. c #5D5F61",
"#. c #515F68",
"$. c #556169",
"%. c #59656D",
"&. c #62696B",
"*. c #6E7162",
"=. c #767C66",
"-. c #676E71",
";. c #8F5855",
":. c #905956",
">. c #80635A",
",. c #88635B",
"<. c #88695F",
"1. c #8B6B62",
"2. c #8F7667",
"3. c #947369",
"4. c #9B766C",
"5. c #9C796E",
"6. c #96786D",
"7. c #9E7E72",
"8. c #A56964",
"9. c #AF726C",
"0. c #A37D72",
"q. c #9E8779",
"w. c #9F8B7B",
"e. c #A48074",
"r. c #A88276",
"t. c #AB8579",
"y. c #A28C7C",
"u. c #AE8A7D",
"i. c #B28B7E",
"p. c #B18278",
"a. c #998F87",
"s. c #9C928B",
"d. c #B38D80",
"f. c #B88E81",
"g. c #A49283",
"h. c #A89687",
"j. c #BE9285",
"k. c #BF9589",
"l. c #A79C90",
"z. c #AB9D91",
"x. c #B09F92",
"c. c #B3A295",
"v. c #B5A69A",
"b. c #B9AA9E",
"n. c #B3AA9F",
"m. c #B8ACA0",
"M. c #C1978A",
"N. c #C2988B",
"B. c #CB9E8F",
"V. c #C69689",
"C. c #C79E91",
"Z. c #CE9F91",
"A. c #C6AB98",
"S. c #CBA897",
"D. c #D2A596",
"F. c #D1A897",
"G. c #D7A798",
"H. c #D5A999",
"J. c #DAAA9B",
"K. c #C4B19C",
"L. c #C7B4A0",
"P. c #C9B7A4",
"I. c #CFBCA9",
"U. c #D1BEAC",
"Y. c #E4B4A4",
"T. c #E7B8A7",
"R. c #E8B8A7",
"E. c #EABAA9",
"W. c #D6C5B4",
"Q. c #D8C8B7",
"!. c #DCCBBB",
"~. c #D8C5B3",
"^. c #DFCFC0",
"/. c #E0D0C1",
"(. c None",
/* pixels */
"(.(.(.(.(.(.(.(.(.(.(.(.(.(.(.(.(.(.(.(.(.(.(.(.(.(.(.(.(.(.(.(.(.(.(.(.(.(.(.(.(.(.(.(.(.(.(.(.(.(.(.(.(.(.(.(.(.(.(.(.(.(.(.(.",
"(.(.(.(.(.(.(.(.(.(.(.(.(.(.(.(.(.(.(.(.(.(.(.(.(.(.(.(.(.(.(.(.(.(.(.(.(.(.(.(.(.(.(.(.(.(.(.(.(.(.(.(.(.(.(.(.(.(.(.(.(.(.(.(.",
"(.(.(.(.(.(.(.(.(.(.(.(.(.(.(.(.(.(.(.(.(.(.(.(.(.(.(.(.(.(.(.(.(.(.(.(.(.(.(.(.(.(.(.(.(.(.(.(.(.(.(.(.(.(.(.(.(.(.(.(.(.(.(.(.",
"(.(.(.(.(.(.(.(.(.(.(.(.(.(.(.(.(.(.(.(.(.(.(.(.(.(.(.(.(.(.(.(.(.(.(.(.(.(.(.(.(.(.(.(.(.(.(.(.(.(.(.(.(.(.(.(.(.(.(.(.(.(.(.(.",
"(.(.(.(.(.(.(.(.(.(.(.(.(.(.(.(.(.(.(.(.(.(.(.(.(.(.(.(.(.(.(.(.(.(.(.(.(.(.(.(.(.(.(.(.(.(.(.(.(.(.(.(.(.(.(.(.(.(.(.(.(.(.(.(.",
"(.(.(.(.(.(.(.(.(.(.(.(.(.(.(.(.(.(.(.(.(.(.(.(.(.(.(.(.(.(.(.(.(.(.(.(.(.(.(.(.(.(.(.(.(.(.(.(.(.(.(.(.(.(.(.(.(.(.(.(.(.(.(.(.",
"(.(.(.(.(.(.(.(.(.(.(.(.(.(.(.(.(.(.(.(.(.(.(.(.(.(.(.(.(.(.(.(.(.(.(.(.(.(.(.(.(.(.(.(.(.(.(.(.(.(.(.(.(.(.(.(.(.(.(.(.(.(.(.(.",
"(.(.(.(.(.(.(.(.(.(.(.(.(.(.(.(.(.(.(.(.(.(.(.(.(.(.(.(.(.(.(.(.(.(.(.(.(.(.(.(.(.(.(.(.(.(.(.(.(.(.(.(.(.(.(.(.(.(.(.(.(.(.(.(.",
"(.(.(.(.(.(.(.(.(.(.(.(.(.(.(.(.(.(.(.(.(.(.(.(.(.(.(.(.(.(.X X (.(.X X X X (.(.(.(.(.(.(.(.(.(.(.(.(.(.(.(.(.(.(.(.(.(.(.(.(.(.",
"(.(.(.(.(.(.(.(.(.(.(.(.(.(.(.(.(.(.(.(.(.(.(.(.(.(.(.(.(.(.@ @ (.(.@ $ @ $ (.(.(.(.(.(.(.(.(.(.(.(.(.(.(.(.(.(.(.(.(.(.(.(.(.(.",
"(.(.(.(.(.(.(.(.(.(.(.(.(.(.(.(.(.(.(.(.(.(.(.(.(.(.X X . # 1 < @ + < y 6 < @ . . X (.(.(.(.(.(.(.(.(.(.(.(.(.(.(.(.(.(.(.(.(.(.",
"(.(.(.(.(.(.(.(.(.(.(.(.(.(.(.(.(.(.(.(.(.(.(.(.(.(.$ $ - , i i : : y h h i : # $ $ (.(.(.(.(.(.(.(.(.(.(.(.(.(.(.(.(.(.(.(.(.(.",
"(.(.(.(.(.(.(.(.(.(.(.(.(.(.(.(.(.(.(.(.(.(.(.(.X $ 6 a d j S j y y j S S c a 8 y < @ . X X (.(.(.(.(.(.(.(.(.(.(.(.(.(.(.(.(.(.",
"(.(.(.(.(.(.(.(.(.(.(.(.(.(.(.(.(.(.(.(.(.(.(.(.X $ 6 d S R R S j j S E E R S k j y : @ $ $ (.(.(.(.(.(.(.(.(.(.(.(.(.(.(.(.(.(.",
"(.(.(.(.(.(.(.(.(.(.(.(.(.(.(.(.(.(.(.(.(.(.(.(.(.(.@ , j E E R n S T R R R R T T j u 6 y 6 $ X (.(.(.(.(.(.(.(.(.(.(.(.(.(.(.(.",
"(.(.(.(.(.(.(.(.(.(.(.(.(.(.(.(.(.(.(.(.(.(.(.(.(.(.# , d E R R E R R R R R R R E v h h j i $ . (.(.(.(.(.(.(.(.(.(.(.(.(.(.(.(.",
"(.(.(.(.(.(.(.(.(.(.(.(.(.(.(.(.(.(.(.(.(.(.(.(.X @ 5 d S R E R R R R R R R R R R T k j k y - . (.(.(.(.(.(.(.(.(.(.(.(.(.(.(.(.",
"(.(.(.(.(.(.(.(.(.(.(.(.(.(.(.(.(.(.(.(.(.(.(.(.X $ i v S v v n R R R R R R R R R T v k k y $ . (.(.(.(.(.(.(.(.(.(.(.(.(.(.(.(.",
"(.(.(.(.(.(.(.(.(.(.(.(.(.(.(.(.(.(.(.(.(.(.(.(.. - d v h d h j S R R R R R R R R R R S n y $ . (.(.(.(.(.(.(.(.(.(.(.(.(.(.(.(.",
"(.(.(.(.(.(.(.(.(.(.(.(.(.(.(.(.(.(.(.(.(.(.(.(.@ , j W W T h i S R v S R R R R R R T v k u : @ (.(.(.(.(.(.(.(.(.(.(.(.(.(.(.(.",
"(.(.(.(.(.(.(.(.(.(.(.(.(.(.(.(.(.(.(.(.(.(.X @ < u v _ 0.4.n d v S h h S R R R R T v k h i y < $ X (.(.(.(.(.(.(.(.(.(.(.(.(.(.",
"(.(.(.(.(.(.(.(.(.(.(.(.(.(.(.(.(.(.(.(.(.(.X @ < u c >.i.M.<.n R R W W R R R R R R v j a y y < # X (.(.(.(.(.(.(.(.(.(.(.(.(.(.",
"(.(.(.(.(.(.(.(.(.(.(.(.(.(.(.(.(.(.(.(.(.(.(.(.@ , d >.V.D.j.4.( ( 0.0.( S R R R R S S h y ; @ (.(.(.(.(.(.(.(.(.(.(.(.(.(.(.(.",
"(.(.(.(.(.(.(.(.(.(.(.(.(.(.(.(.(.(.(.(.(.(.(.(.  > n <.4.i.B.M.3.1.5.5.1.) E S S S R S h y : $ (.(.(.(.(.(.(.(.(.(.(.(.(.(.(.(.",
"(.(.(.(.(.(.(.(.(.(.(.(.(.(.(.(.(.(.(.(.(.(.(.(.  5 1.5.v v u.D.Z.0.S S 3.0._ S h h S T k d a 5 $ X (.(.(.(.(.(.(.(.(.(.(.(.(.(.",
"(.(.(.(.(.(.(.(.(.(.(.(.(.(.(.(.(.(.(.(.(.(.(.(.+ d t.e.q 6 e.Y.E.d.8 7 0.N.3.( Q n R T v h a 6 - X (.(.(.(.(.(.(.(.(.(.(.(.(.(.",
"(.(.(.(.(.(.(.(.(.(.(.(.(.(.(.(.(.(.(.(.(.(.X @ < Q i.r.u u u.R.E.d.f u 0.D.M.0.8.:.! S v p : $ (.(.(.(.(.(.(.(.(.(.(.(.(.(.(.(.",
"(.(.(.(.(.(.(.(.(.(.(.(.(.(.(.(.(.(.(.(.(.(.X @ , R i.f.) ) k.R.E.k.) ^ i.G.G.Z.9.:.W S v y $ X (.(.(.(.(.(.(.(.(.(.(.(.(.(.(.(.",
"(.(.(.(.(.(.(.(.(.(.(.(.(.(.(.(.(.(.(.(.(.(.(.(.+ a t.D.V.N.J.T.T.J.M.j.Z.G.G.V.:.R S v k u $ X (.(.(.(.(.(.(.(.(.(.(.(.(.(.(.(.",
"(.(.(.(.(.(.(.(.(.(.(.(.(.(.(.(.(.(.(.(.(.(.(.(.  5  .i.J.R.T.Y.Y.T.R.Y.J.Z.V.4.E h h d p 6 $ X (.(.(.(.(.(.(.(.(.(.(.(.(.(.(.(.",
"(.(.(.(.(.(.(.(.(.(.(.(.(.(.(.(.(.(.(.(.(.(.(.(.(.(.4 R i.Y.T.Y.Y.Y.T.Y.J.M.:.E S h j i : $ (.(.(.(.(.(.(.(.(.(.(.(.(.(.(.(.(.(.",
"(.(.(.(.(.(.(.(.(.(.(.(.(.(.(.(.(.(.(.(.(.(.(.(.(.(.  1 >.i.D.Y.Y.Y.Y.D.d.1.R d h h a 6 # . (.(.(.(.(.(.(.(.(.(.(.(.(.(.(.(.(.(.",
"(.(.(.(.(.(.(.(.(.(.(.(.(.(.(.(.(.(.(.(.(.(.(.(.(.(.(.(.4 R i.J.G.G.J.i.T 8 a h j a : $ (.(.(.(.(.(.(.(.(.(.(.(.(.(.(.(.(.(.(.(.",
"(.(.(.(.(.(.(.(.(.(.(.(.(.(.(.(.(.(.(.(.(.(.(.(.(.(.(.(.o 8 7.F.S.F.D.7.0 - s F j 8 # . (.(.(.(.(.(.(.(.(.(.(.(.(.(.(.(.(.(.(.(.",
"(.(.(.(.(.(.(.(.(.(.(.(.(.(.(.(.(.(.(.(.(.(.(.(.(.(.X O - c q.A.A.A.A.y.l 9 J ] z 4 + X (.(.(.(.(.(.(.(.(.(.(.(.(.(.(.(.(.(.(.(.",
"(.(.(.(.(.(.(.(.(.(.(.(.(.(.(.(.(.(.(.(.(.(.(.(.(.(.. O 1 F h.P.P.L.A.a.F z { { z : + X (.(.(.(.(.(.(.(.(.(.(.(.(.(.(.(.(.(.(.(.",
"(.(.(.(.(.(.(.(.(.(.(.(.(.(.(.(.(.(.(.(.(.(.(.(.(.(.X O : ~ z.Q.U.U.L.g.~ D { { g , O . (.(.(.(.(.(.(.(.(.(.(.(.(.(.(.(.(.(.(.(.",
"(.(.(.(.(.(.(.(.(.(.(.(.(.(.(.(.(.(.(.(.(.(.(.(.(.(.% - 4 ~ v././.Q.I.h./ H X.X.z 1 $ @ (.(.(.(.(.(.(.(.(.(.(.(.(.(.(.(.(.(.(.(.",
"(.(.(.(.(.(.(.(.(.(.(.(.(.(.(.(.(.(.(.(.(.(.(.(.X $ 5 8 7 ~ v.^./.^.Q.x./ K =.=.z 4 4 ; + X (.(.(.(.(.(.(.(.(.(.(.(.(.(.(.(.(.(.",
"(.(.(.(.(.(.(.(.(.(.(.(.(.(.(.(.(.(.(.(.(.(.(.(.X % w g 8 G z.Q.^.^.^.b.*.D *.*.H s u 4 # X (.(.(.(.(.(.(.(.(.(.(.(.(.(.(.(.(.(.",
"(.(.(.(.(.(.(.(.(.(.(.(.(.(.(.(.(.(.(.(.(.(.(.(.. % p g 8 F g.I.U.^.^.m.} g K J [ J A 7 # X (.(.(.(.(.(.(.(.(.(.(.(.(.(.(.(.(.(.",
"(.(.(.(.(.(.(.(.(.(.(.(.(.(.(.(.(.(.(.(.(.(.(.(.# ; 8 p 8 F g.I.Q.!.^.m.} f p D ..*.H w ; + (.(.(.(.(.(.(.(.(.(.(.(.(.(.(.(.(.(.",
"(.(.(.(.(.(.(.(.(.(.(.(.(.(.(.(.(.(.(.(.(.(.X # 2 w 0 8 7 G c.W.I.I.!.m.*.p w g ' { D f w 5 # X (.(.(.(.(.(.(.(.(.(.(.(.(.(.(.(.",
"(.(.(.(.(.(.(.(.(.(.(.(.(.(.(.(.(.(.(.(.(.(.X ; S ~ d 5 4 F a.m.z.l.m.s.~ p 6 p ` ..} )  .F ; . (.(.(.(.(.(.(.(.(.(.(.(.(.(.(.(.",
"(.(.(.(.(.(.(.(.(.(.(.(.(.(.(.(.(.(.(.(.(.(.. 5 2.5.S 4 5 s $.&.&.&.-.@.g y 5 f ` =.y.M.B.3.5 . (.(.(.(.(.(.(.(.(.(.(.(.(.(.(.(.",
"(.(.(.(.(.(.(.(.(.(.(.(.(.(.(.(.(.(.(.(.(.(.  8 <.1.d 1 7 f Z B P P P m M w w f b [ 2.t.d.2.0   (.(.(.(.(.(.(.(.(.(.(.(.(.(.(.(.",
"(.(.(.(.(.(.(.(.(.(.(.(.(.(.(.(.(.(.(.(.(.(.(.(.8 4 & ; t B B B P P P L C C C M 2 > 7 0 u 0 (.(.(.(.(.(.(.(.(.(.(.(.(.(.(.(.(.(.",
"(.(.(.(.(.(.(.(.(.(.(.(.(.(.(.(.(.(.(.(.(.(.(.(.    . * N o.Y Y U U U U U U U m * .         (.(.(.(.(.(.(.(.(.(.(.(.(.(.(.(.(.(.",
"(.(.(.(.(.(.(.(.(.(.(.(.(.(.(.(.(.(.(.(.(.(.(.(.(.(.. = Z $.$.$.+.$.$.O.Y V U m * . (.(.(.(.(.(.(.(.(.(.(.(.(.(.(.(.(.(.(.(.(.(.",
"(.(.(.(.(.(.(.(.(.(.(.(.(.(.(.(.(.(.(.(.(.(.(.(.(.(.o = L %.%.$.$.$.$.$.o.U U m * X (.(.(.(.(.(.(.(.(.(.(.(.(.(.(.(.(.(.(.(.(.(.",
"(.(.(.(.(.(.(.(.(.(.(.(.(.(.(.(.(.(.(.(.(.(.(.(.(.(.. = L %.%.$.o.O.$.$.$.O.Y m = . (.(.(.(.(.(.(.(.(.(.(.(.(.(.(.(.(.(.(.(.(.(.",
"(.(.(.(.(.(.(.(.(.(.(.(.(.(.(.(.(.(.(.(.(.(.(.(.(.(.. 3 L %.$.Y N N Y $.$.$.Y m * X (.(.(.(.(.(.(.(.(.(.(.(.(.(.(.(.(.(.(.(.(.(.",
"(.(.(.(.(.(.(.(.(.(.(.(.(.(.(.(.(.(.(.(.(.(.(.(.(.(.X = L %.O.N 3 3 N O.$.#.o.m = X (.(.(.(.(.(.(.(.(.(.(.(.(.(.(.(.(.(.(.(.(.(.",
"(.(.(.(.(.(.(.(.(.(.(.(.(.(.(.(.(.(.(.(.(.(.(.(.(.(.X ; B $.Y m % % m o.$.#.Y m * . (.(.(.(.(.(.(.(.(.(.(.(.(.(.(.(.(.(.(.(.(.(.",
"(.(.(.(.(.(.(.(.(.(.(.(.(.(.(.(.(.(.(.(.(.(.(.(.(.(.X * N Y U m & % m o.$.$.Y N * X (.(.(.(.(.(.(.(.(.(.(.(.(.(.(.(.(.(.(.(.(.(.",
"(.(.(.(.(.(.(.(.(.(.(.(.(.(.(.(.(.(.(.(.(.(.(.(.(.(.. % e N C e % % e L I I L e & X (.(.(.(.(.(.(.(.(.(.(.(.(.(.(.(.(.(.(.(.(.(.",
"(.(.(.(.(.(.(.(.(.(.(.(.(.(.(.(.(.(.(.(.(.(.(.(.(.(.. + 1 w 0 1 # + 2 w w w w 1 # X (.(.(.(.(.(.(.(.(.(.(.(.(.(.(.(.(.(.(.(.(.(.",
"(.(.(.(.(.(.(.(.(.(.(.(.(.(.(.(.(.(.(.(.(.(.(.(.(.(.& > 5 8 6 : O + < 0 0 y 0 < @ X (.(.(.(.(.(.(.(.(.(.(.(.(.(.(.(.(.(.(.(.(.(.",
"(.(.(.(.(.(.(.(.(.(.(.(.(.(.(.(.(.(.(.(.(.(.(.(.X & q l z s q , O & u x x x x 0 $ X (.(.(.(.(.(.(.(.(.(.(.(.(.(.(.(.(.(.(.(.(.(.",
"(.(.(.(.(.(.(.(.(.(.(.(.(.(.(.(.(.(.(.(.(.(.(.(.X & q x l s 6 ; O # q l l l l q & X (.(.(.(.(.(.(.(.(.(.(.(.(.(.(.(.(.(.(.(.(.(.",
"(.(.(.(.(.(.(.(.(.(.(.(.(.(.(.(.(.(.(.(.(.(.(.(.X + > > , > & # o + > > , > > > + X (.(.(.(.(.(.(.(.(.(.(.(.(.(.(.(.(.(.(.(.(.(.",
"(.(.(.(.(.(.(.(.(.(.(.(.(.(.(.(.(.(.(.(.(.(.(.(.(.(.(.(.(.(.(.(.(.(.(.(.(.(.(.(.(.(.(.(.(.(.(.(.(.(.(.(.(.(.(.(.(.(.(.(.(.(.(.(.",
"(.(.(.(.(.(.(.(.(.(.(.(.(.(.(.(.(.(.(.(.(.(.(.(.(.(.(.(.(.(.(.(.(.(.(.(.(.(.(.(.(.(.(.(.(.(.(.(.(.(.(.(.(.(.(.(.(.(.(.(.(.(.(.(.",
"(.(.(.(.(.(.(.(.(.(.(.(.(.(.(.(.(.(.(.(.(.(.(.(.(.(.(.(.(.(.(.(.(.(.(.(.(.(.(.(.(.(.(.(.(.(.(.(.(.(.(.(.(.(.(.(.(.(.(.(.(.(.(.(."
};
