/* XPM */
static char *result[] = {
/* columns rows colors chars-per-pixel */
"64 64 179 2 ",
"   c #050402",
".  c #080704",
"X  c #0A0906",
"o  c #0D0C0B",
"O  c #140F0C",
"+  c #15100D",
"@  c #19120F",
"#  c #131414",
"$  c #1C1512",
"%  c #1E1814",
"&  c #1B1D1E",
"*  c #171A1B",
"=  c #221B17",
"-  c #261D1A",
";  c #2A1E1B",
":  c #2C211D",
">  c #27221A",
",  c #32231F",
"<  c #1E2325",
"1  c #272727",
"2  c #2C2322",
"3  c #2F2828",
"4  c #332522",
"5  c #352924",
"6  c #3B2A26",
"7  c #352D2C",
"8  c #3C2D2A",
"9  c #373129",
"0  c #3D322C",
"q  c #252D31",
"w  c #273036",
"e  c #2B343A",
"r  c #383E3F",
"t  c #373536",
"y  c #422E2A",
"u  c #492D26",
"i  c #44312D",
"p  c #4A332D",
"a  c #443531",
"s  c #4A3531",
"d  c #443933",
"f  c #4C3934",
"g  c #473A38",
"h  c #593630",
"j  c #533A36",
"k  c #553E39",
"l  c #593F3B",
"z  c #6F2D23",
"x  c #702F26",
"c  c #6D342B",
"v  c #7F3A2F",
"b  c #623F3A",
"n  c #713930",
"m  c #494135",
"M  c #4C413A",
"N  c #4C4A3E",
"B  c #54423B",
"V  c #5B423E",
"C  c #65443E",
"Z  c #77473F",
"A  c #7E473C",
"S  c #353B41",
"D  c #3A4646",
"F  c #38454D",
"G  c #4D4740",
"H  c #444748",
"J  c #494948",
"K  c #5E4641",
"L  c #5D4B43",
"P  c #5E4E49",
"I  c #534D46",
"U  c #555344",
"Y  c #56524A",
"T  c #5C544B",
"R  c #595B49",
"E  c #465650",
"W  c #4E5E51",
"Q  c #595D5C",
"!  c #5E5C50",
"~  c #624642",
"^  c #634A45",
"/  c #6A4B46",
"(  c #6C4E48",
")  c #714F4A",
"_  c #63534C",
"`  c #6A594B",
"'  c #7E534B",
"]  c #6A5B54",
"[  c #635753",
"{  c #785A54",
"}  c #735751",
"|  c #56604F",
" . c #5B6453",
".. c #61614F",
"X. c #636C55",
"o. c #656F58",
"O. c #626753",
"+. c #71655F",
"@. c #7E6059",
"#. c #68705A",
"$. c #5E6061",
"%. c #646C6F",
"&. c #6E7462",
"*. c #727965",
"=. c #676F72",
"-. c #833428",
";. c #8F4A3C",
":. c #8B4538",
">. c #92493C",
",. c #894E43",
"<. c #914F43",
"1. c #96574B",
"2. c #875F56",
"3. c #8F5855",
"4. c #905956",
"5. c #80635A",
"6. c #88635B",
"7. c #9D6555",
"8. c #A26A5D",
"9. c #AA6759",
"0. c #8C6B61",
"q. c #95746A",
"w. c #9B766B",
"e. c #9D786E",
"r. c #8B7F75",
"t. c #957A72",
"y. c #9E7F72",
"u. c #A66B66",
"i. c #A87669",
"p. c #B0736E",
"a. c #A17B71",
"s. c #76806B",
"d. c #9F8879",
"f. c #A88276",
"g. c #AC8679",
"h. c #AD897B",
"j. c #A18578",
"k. c #B28A7D",
"l. c #B98478",
"z. c #B2907D",
"x. c #9C928B",
"c. c #A98F83",
"v. c #B58E81",
"b. c #B88E81",
"n. c #A69585",
"m. c #A99788",
"M. c #A69B8E",
"N. c #BC9385",
"B. c #BD9D8C",
"V. c #B99887",
"C. c #AA9F92",
"Z. c #B09F92",
"A. c #B4A396",
"S. c #B7A99D",
"D. c #B6A79B",
"F. c #B9ADA2",
"G. c #BEB1A4",
"H. c #C49385",
"J. c #C29689",
"K. c #CA9C8E",
"L. c #CA9485",
"P. c #D09C8D",
"I. c #C99E91",
"U. c #C6AC9A",
"Y. c #C8AE9B",
"T. c #CFA193",
"R. c #D2A494",
"E. c #D3A999",
"W. c #DAAB9B",
"Q. c #C9B09C",
"!. c #CEB3A4",
"~. c #D0B6A7",
"^. c #D3BCAB",
"/. c #E4B5A5",
"(. c #E8B7A7",
"). c #E7B8A8",
"_. c #EAB9A9",
"`. c #D8C4B4",
"'. c None",
/* pixels */
"'.'.'.'.'.'.'.'.'.'.'.'.'.'.'.'.'.'.'.'.'.'.'.'.'.'.'.'.'.'.'.'.'.'.'.'.'.'.'.'.'.'.'.'.'.'.'.'.'.'.'.'.'.'.'.'.'.'.'.'.'.'.'.'.",
"'.'.'.'.'.'.'.'.'.'.'.'.'.'.'.'.'.'.'.'.'.'.'.'.'.'.'.'.'.'.'.'.'.'.'.'.'.'.'.'.'.'.'.'.'.'.'.'.'.'.'.'.'.'.'.'.'.'.'.'.'.'.'.'.",
"'.'.'.'.'.'.'.'.'.'.'.'.'.'.'.'.'.'.'.'.'.'.'.'.'.'.'.'.'.'.'.'.'.'.'.'.'.'.'.'.'.'.'.'.'.'.'.'.'.'.'.'.'.'.'.'.'.'.'.'.'.'.'.'.",
"'.'.'.'.'.'.'.'.'.'.'.'.'.'.'.'.'.'.'.'.'.'.'.'.'.'.'.'.'.'.'.'.'.'.'.'.'.'.'.'.'.'.'.'.'.'.'.'.'.'.'.'.'.'.'.'.'.'.'.'.'.'.'.'.",
"'.'.'.'.'.'.'.'.'.'.'.'.'.'.'.'.'.'.'.'.'.'.'.'.'.'.'.'.'.'.'.'.'.'.'.'.'.'.'.'.'.'.'.'.'.'.'.'.'.'.'.'.'.'.'.'.'.'.'.'.'.'.'.'.",
"'.'.'.'.'.'.'.'.'.'.'.'.'.'.'.'.'.'.'.'.'.'.'.'.'.'.'.'.'.'.'.'.'.'.'.'.'.'.'.'.'.'.'.'.'.'.'.'.'.'.'.'.'.'.'.'.'.'.'.'.'.'.'.'.",
"'.'.'.'.'.'.'.'.'.'.'.'.'.'.'.'.'.'.'.'.'.'.'.'.'.'.'.'.'.'.'.'.'.'.'.'.'.'.'.'.'.'.'.'.'.'.'.'.'.'.'.'.'.'.'.'.'.'.'.'.'.'.'.'.",
"'.'.'.'.'.'.'.'.'.'.'.'.'.'.'.'.'.'.'.'.'.'.'.'.'.'.'.'.'.'.'.'.'.'.'.'.'.'.'.'.'.'.'.'.'.'.'.'.'.'.'.'.'.'.'.'.'.'.'.'.'.'.'.'.",
"'.'.'.'.'.'.'.'.'.'.'.'.'.'.'.'.'.'.'.'.'.'.'.'.'.'.'.'.'.'.'.'.'.'.'.'.'.'.'.'.'.'.'.'.'.'.'.'.'.'.'.'.'.'.'.'.'.'.'.'.'.'.'.'.",
"'.'.'.'.'.'.'.'.'.'.'.'.'.'.'.'.'.'.'.'.'.'.'.'.'.'.'.'.'.'.'.'.'.'.'.'.'.'.'.'.'.'.'.'.'.'.'.'.'.'.'.'.'.'.'.'.'.'.'.'.'.'.'.'.",
"'.'.'.'.'.'.'.'.'.'.'.'.'.'.'.'.'.'.'.'.'.'.'.'.'.'.'.'.'.'.'.'.'.'.'.'.'.'.'.'.'.'.'.'.'.'.'.'.'.'.'.'.'.'.'.'.'.'.'.'.'.'.'.'.",
"'.'.'.'.'.'.'.'.'.'.'.'.'.'.'.'.'.'.'.'.'.'.'.'.'.'.'.'.'.'.'.'.'.'.'.'.'.'.'.'.'.'.'.'.'.'.'.'.'.'.'.'.'.'.'.'.'.'.'.'.'.'.'.'.",
"'.'.'.'.'.'.'.'.'.'.'.'.'.'.'.'.'.'.'.'.'.'.'.'.'.'.'.'.'.'.'.'.'.'.'.'.'.'.'.'.'.'.'.'.'.'.'.'.'.'.'.'.'.'.'.'.'.'.'.'.'.'.'.'.",
"'.'.'.'.'.'.'.'.'.'.'.'.'.'.'.'.'.'.'.'.'.'.'.'.'.'.'.'.'.'.'.'.'.'.'.'.'.'.'.'.'.'.'.'.'.'.'.'.'.'.'.'.'.'.'.'.'.'.'.'.'.'.'.'.",
"'.'.'.'.'.'.'.'.'.'.'.'.'.'.'.'.'.'.'.'.'.'.'.'.'.'.'.'.'.'.'.'.'.'.'.'.'.'.'.'.'.'.'.'.'.'.'.'.'.'.'.'.'.'.'.'.'.'.'.'.'.'.'.'.",
"'.'.'.'.'.'.'.'.'.'.'.'.'.'.'.'.'.'.'.'.'.'.'.'.'.'.'.'.'.'.'.'.'.'.'.'.'.'.'.'.'.'.'.'.'.'.'.'.'.'.'.'.'.'.'.'.'.'.'.'.'.'.'.'.",
"'.'.'.'.'.'.'.'.'.'.'.'.'.'.'.'.'.'.'.'.'.'.'.'.'.'.'.'.'.'.'.'.'.'.'.'.'.'.'.'.'.'.'.'.'.'.'.'.'.'.'.'.'.'.'.'.'.'.'.'.'.'.'.'.",
"'.'.'.'.'.'.'.'.'.'.'.'.'.'.'.'.'.'.'.'.'.'.'.'.'.'.'.'.'.'.'.'.'.'.'.'.'.'.'.'.'.'.'.'.'.'.'.'.'.'.'.'.'.'.'.'.'.'.'.'.'.'.'.'.",
"'.'.'.'.'.'.'.'.'.'.'.'.'.'.'.'.'.'.'.'.'.'.'.'.'.'.'.'.'.'.'.'.'.'.'.'.'.'.'.'.'.'.'.'.'.'.'.'.'.'.'.'.'.'.'.'.'.'.'.'.'.'.'.'.",
"'.'.'.'.'.'.'.'.'.'.'.'.'.'.'.'.'.'.'.'.'.'.'.'.'.'.'.'.'.'.'.'.'.'.'.'.'.'.'.'.'.'.'.'.'.'.'.'.'.'.'.'.'.'.'.'.'.'.'.'.'.'.'.'.",
"'.'.'.'.'.'.'.'.'.'.'.'.'.'.'.'.'.'.'.'.'.'.'.'.'.'.'.'.'.'.'.'.'.'.'.'.'.'.'.'.'.'.'.'.'.'.'.'.'.'.'.'.'.'.'.'.'.'.'.'.'.'.'.'.",
"'.'.'.'.'.'.'.'.'.'.'.'.'.'.'.'.'.'.'.'.'.'.'.'.'.'.'.'.'.'.'.'.'.'.'.'.'.'.'.'.'.'.'.'.'.'.'.'.'.'.'.'.'.'.'.'.'.'.'.'.'.'.'.'.",
"'.'.'.'.'.'.'.'.'.'.'.'.'.'.'.'.'.'.'.'.'.'.'.'.X X '.'.X X X X '.'.'.'.'.'.'.'.'.'.'.'.'.'.'.'.'.'.'.'.'.'.'.'.'.'.'.'.'.'.'.'.",
"'.'.'.'.'.'.'.'.'.'.'.'.'.'.'.'.'.'.'.'.'.'.'.'.@ @ '.'.$ $ $ @ '.'.'.'.'.'.'.'.'.'.'.'.'.'.'.'.'.'.'.'.'.'.'.'.'.'.'.'.'.'.'.'.",
"'.'.'.'.'.'.'.'.'.'.'.'.'.'.'.'.'.'.'.'.X X . @ 4 4 @ @ , 6 6 , @ . X X '.'.'.'.'.'.'.'.'.'.'.'.'.'.'.'.'.'.'.'.'.'.'.'.'.'.'.'.",
"'.'.'.'.'.'.'.'.'.'.'.'.'.'.'.'.'.'.'.'.$ $ % : p y - - i k j p ; $ @ @ '.'.'.'.'.'.'.'.'.'.'.'.'.'.'.'.'.'.'.'.'.'.'.'.'.'.'.'.",
"'.'.'.'.'.'.'.'.'.'.'.'.'.'.'.'.'.'.X $ 5 s f k l j y y k ~ K l s 8 6 , @ X X X '.'.'.'.'.'.'.'.'.'.'.'.'.'.'.'.'.'.'.'.'.'.'.'.",
"'.'.'.'.'.'.'.'.'.'.'.'.'.'.'.'.'.'.X $ 5 f K ^ / ~ l l ~ ^ ^ ^ V V l i - $ $ $ '.'.'.'.'.'.'.'.'.'.'.'.'.'.'.'.'.'.'.'.'.'.'.'.",
"'.'.'.'.'.'.'.'.'.'.'.'.'.'.'.'.'.'.'.'.$ : k _ ^ ^ ~ K ^ ^ ^ ^ ^ ~ ~ k y 6 i 5 $ X '.'.'.'.'.'.'.'.'.'.'.'.'.'.'.'.'.'.'.'.'.'.",
"'.'.'.'.'.'.'.'.'.'.'.'.'.'.'.'.'.'.'.'.@ : j ^ ^ ^ ^ ^ ^ ^ ^ ^ ^ ^ ^ ~ j j k i $ X '.'.'.'.'.'.'.'.'.'.'.'.'.'.'.'.'.'.'.'.'.'.",
"'.'.'.'.'.'.'.'.'.'.'.'.'.'.'.'.'.'.X $ 5 s K ^ ^ ^ ^ ^ ^ ^ ^ ^ ^ ^ ^ L l j l i % X '.'.'.'.'.'.'.'.'.'.'.'.'.'.'.'.'.'.'.'.'.'.",
"'.'.'.'.'.'.'.'.'.'.'.'.'.'.'.'.'.'.X $ p K K V K ~ ~ ^ ^ ^ ^ ^ ^ ^ ^ ~ V V l y $ X '.'.'.'.'.'.'.'.'.'.'.'.'.'.'.'.'.'.'.'.'.'.",
"'.'.'.'.'.'.'.'.'.'.'.'.'.'.'.'.'.'.. $ g V j p j k ~ ^ ^ ^ ^ ^ ^ ^ ^ ^ K K K 8 $ . '.'.'.'.'.'.'.'.'.'.'.'.'.'.'.'.'.'.'.'.'.'.",
"'.'.'.'.'.'.'.'.'.'.'.'.'.'.'.'.'.'.@ : B ( ) C j f V ^ K K ~ ^ ^ ^ ^ ^ ~ K l i ; @ '.'.'.'.'.'.'.'.'.'.'.'.'.'.'.'.'.'.'.'.'.'.",
"'.'.'.'.'.'.'.'.'.'.'.'.'.'.'.'.X @ , p V { a.w.C p V ~ k k ~ ^ ^ ^ ^ ^ K k j s y , $ X '.'.'.'.'.'.'.'.'.'.'.'.'.'.'.'.'.'.'.'.",
"'.'.'.'.'.'.'.'.'.'.'.'.'.'.'.'.X @ , p B @.N.J.6.^ ^ V h h ~ ^ ^ ^ ^ ~ l j j y y , $ X '.'.'.'.'.'.'.'.'.'.'.'.'.'.'.'.'.'.'.'.",
"'.'.'.'.'.'.'.'.'.'.'.'.'.'.'.'.'.'.@ : f @.N.K.H.e.} b x n C ^ ^ ^ ^ ^ ~ K j 6 = @ '.'.'.'.'.'.'.'.'.'.'.'.'.'.'.'.'.'.'.'.'.'.",
"'.'.'.'.'.'.'.'.'.'.'.'.'.'.'.'.'.'.. - ~ q.J.W.E.J.q.2.1.<.Z C ~ ~ K ~ ^ K j y ; $ '.'.'.'.'.'.'.'.'.'.'.'.'.'.'.'.'.'.'.'.'.'.",
"'.'.'.'.'.'.'.'.'.'.'.'.'.'.'.'.'.'.  4 0.J.R.E.R.R.K.K.K.l.<.c C K j j K K l j s 5 % X '.'.'.'.'.'.'.'.'.'.'.'.'.'.'.'.'.'.'.'.",
"'.'.'.'.'.'.'.'.'.'.'.'.'.'.'.'.'.'.+ s f.K.h.g.K.W.).W.V.i.:.v ' { / ~ ^ K l k s 5 $ X '.'.'.'.'.'.'.'.'.'.'.'.'.'.'.'.'.'.'.'.",
"'.'.'.'.'.'.'.'.'.'.'.'.'.'.'.'.X @ : ^ k.k.V V v.)._.V._ u z >.p.l.u.3.) K l a : $ '.'.'.'.'.'.'.'.'.'.'.'.'.'.'.'.'.'.'.'.'.'.",
"'.'.'.'.'.'.'.'.'.'.'.'.'.'.'.'.X + : ^ k.k.^ ^ N._._.V.^ p A 9.L.K.p.3.) K V y $ . '.'.'.'.'.'.'.'.'.'.'.'.'.'.'.'.'.'.'.'.'.'.",
"'.'.'.'.'.'.'.'.'.'.'.'.'.'.'.'.'.'.+ p f.R.V.V.E.(.(.E.N.h.l.L.R.b.2.~ V l l a % X '.'.'.'.'.'.'.'.'.'.'.'.'.'.'.'.'.'.'.'.'.'.",
"'.'.'.'.'.'.'.'.'.'.'.'.'.'.'.'.'.'.. 5 @.z.W.(.(./.(.(._.(.W.R.J.e./ j j j a 5 $ X '.'.'.'.'.'.'.'.'.'.'.'.'.'.'.'.'.'.'.'.'.'.",
"'.'.'.'.'.'.'.'.'.'.'.'.'.'.'.'.'.'.'.'.5 ^ z././././.(.).(.W.B.0./ l k j s ; $ '.'.'.'.'.'.'.'.'.'.'.'.'.'.'.'.'.'.'.'.'.'.'.'.",
"'.'.'.'.'.'.'.'.'.'.'.'.'.'.'.'.'.'.'.'.  2 5.k.R././.W./.R.k.0.^ j k k s 5 $ . '.'.'.'.'.'.'.'.'.'.'.'.'.'.'.'.'.'.'.'.'.'.'.'.",
"'.'.'.'.'.'.'.'.'.'.'.'.'.'.'.'.'.'.'.'.'.'.5 L g.W.E.W.W.h.^ 0 s k k a ; $ '.'.'.'.'.'.'.'.'.'.'.'.'.'.'.'.'.'.'.'.'.'.'.'.'.'.",
"'.'.'.'.'.'.'.'.'.'.'.'.'.'.'.'.'.'.'.'.'.'.X i d.R.E.R.E.j.0 % g K k 8 $ . '.'.'.'.'.'.'.'.'.'.'.'.'.'.'.'.'.'.'.'.'.'.'.'.'.'.",
"'.'.'.'.'.'.'.'.'.'.'.'.'.'.'.'.'.'.'.'.X O = B j.U.U.Q.Y.j.B 9 R O.j 4 + X '.'.'.'.'.'.'.'.'.'.'.'.'.'.'.'.'.'.'.'.'.'.'.'.'.'.",
"'.'.'.'.'.'.'.'.'.'.'.'.'.'.'.'.'.'.'.'.X @ ; _ n.U.V.k.k.q.V m X. .m : + X '.'.'.'.'.'.'.'.'.'.'.'.'.'.'.'.'.'.'.'.'.'.'.'.'.'.",
"'.'.'.'.'.'.'.'.'.'.'.'.'.'.'.'.'.'.'.'.X + ; _ A.U.7.;.;.' B I o.X.m : + . '.'.'.'.'.'.'.'.'.'.'.'.'.'.'.'.'.'.'.'.'.'.'.'.'.'.",
"'.'.'.'.'.'.'.'.'.'.'.'.'.'.'.'.'.'.'.'.X + ; _ S.~.i.;.-.x j Y &.#.g 4 % + '.'.'.'.'.'.'.'.'.'.'.'.'.'.'.'.'.'.'.'.'.'.'.'.'.'.",
"'.'.'.'.'.'.'.'.'.'.'.'.'.'.'.'.'.'.'.'.X O ; _ D.`.~.k.;.x h T s.*.N 5 , - + X '.'.'.'.'.'.'.'.'.'.'.'.'.'.'.'.'.'.'.'.'.'.'.'.",
"'.'.'.'.'.'.'.'.'.'.'.'.'.'.'.'.'.'.'.'.X + ; T Z.`.!.V.8.,.K Y &.&.U a 0 4 % O '.'.'.'.'.'.'.'.'.'.'.'.'.'.'.'.'.'.'.'.'.'.'.'.",
"'.'.'.'.'.'.'.'.'.'.'.'.'.'.'.'.'.'.'.'.X # : P n.B.8.8.N.c.] g I ! O.R d 5 4 > + X X X X X '.'.'.'.'.'.'.'.'.'.'.'.'.'.'.'.'.'.",
"'.'.'.'.'.'.'.'.'.'.'.'.'.'.'.'.'.'.'.'.X + : P m.B.7.8.!.G.+.g g G  . .N a 8 2 % + # # + + '.'.'.'.'.'.'.'.'.'.'.'.'.'.'.'.'.'.",
"'.'.'.'.'.'.'.'.'.'.'.'.'.'.'.'.'.'.'.'.X # : _ A.^.B.B.^.F.&.g 8 t H E R U 0 4 : 2 q q > $ O X '.'.'.'.'.'.'.'.'.'.'.'.'.'.'.'.",
"'.'.'.'.'.'.'.'.'.'.'.'.'.'.'.'.'.'.'.'.X O - j r.C.M.C.F.x.[ a 8 8 e F W  .^ _ ^ P H r 0 : + X '.'.'.'.'.'.'.'.'.'.'.'.'.'.'.'.",
"'.'.'.'.'.'.'.'.'.'.'.'.'.'.'.'.'.'.'.'.'.'.@ = 7 H $.%.=.$.g 8 8 8 7 t D Q t.b.B.j.] N M 0 $ X '.'.'.'.'.'.'.'.'.'.'.'.'.'.'.'.",
"'.'.'.'.'.'.'.'.'.'.'.'.'.'.'.'.'.'.'.'.'.'.X .   # S F S S 7 5 4 4 5 3 q E t.J.I.h.` m m 0 % X '.'.'.'.'.'.'.'.'.'.'.'.'.'.'.'.",
"'.'.'.'.'.'.'.'.'.'.'.'.'.'.'.'.'.'.'.'.'.'.X X   o * < < & % % % $ $ % * 1 g L ^ B 9 > > = + '.'.'.'.'.'.'.'.'.'.'.'.'.'.'.'.'.",
"'.'.'.'.'.'.'.'.'.'.'.'.'.'.'.'.'.'.'.'.'.'.'.'.'.'.'.'.'.'.'.'.'.'.'.'.'.'.'.'.'.'.'.'.'.'.'.'.'.'.'.'.'.'.'.'.'.'.'.'.'.'.'.'.",
"'.'.'.'.'.'.'.'.'.'.'.'.'.'.'.'.'.'.'.'.'.'.'.'.'.'.'.'.'.'.'.'.'.'.'.'.'.'.'.'.'.'.'.'.'.'.'.'.'.'.'.'.'.'.'.'.'.'.'.'.'.'.'.'.",
"'.'.'.'.'.'.'.'.'.'.'.'.'.'.'.'.'.'.'.'.'.'.'.'.'.'.'.'.'.'.'.'.'.'.'.'.'.'.'.'.'.'.'.'.'.'.'.'.'.'.'.'.'.'.'.'.'.'.'.'.'.'.'.'."
};
