/* XPM */
static char *result[] = {
/* columns rows colors chars-per-pixel */
"64 64 196 2 ",
"   c #040402",
".  c #080704",
"X  c #0A0906",
"o  c #0F0C09",
"O  c #120D0C",
"+  c #15110E",
"@  c #19130F",
"#  c #171413",
"$  c #1B1511",
"%  c #1D1814",
"&  c #1B1C1C",
"*  c #171818",
"=  c #25110D",
"-  c #211B16",
";  c #251D1A",
":  c #2A1E1B",
">  c #341813",
",  c #26211A",
"<  c #2B221D",
"1  c #32231F",
"2  c #222324",
"3  c #2D2524",
"4  c #2C2A26",
"5  c #262A2C",
"6  c #282D2F",
"7  c #332522",
"8  c #362925",
"9  c #3C2A25",
"0  c #3B2D29",
"q  c #332B28",
"w  c #3D322C",
"e  c #393227",
"r  c #382F30",
"t  c #2E363A",
"y  c #3C3232",
"u  c #32363A",
"i  c #393A3A",
"p  c #67271D",
"a  c #4B2B26",
"s  c #422E2A",
"d  c #482F28",
"f  c #44312D",
"g  c #4A332E",
"h  c #52332D",
"j  c #443532",
"k  c #4B3632",
"l  c #453B32",
"z  c #4B3A34",
"x  c #453A38",
"c  c #4A3D3A",
"v  c #533631",
"b  c #523A35",
"n  c #5C3932",
"m  c #553E39",
"M  c #583F3A",
"N  c #662E24",
"B  c #6D2B22",
"V  c #712D23",
"C  c #6C352C",
"Z  c #73352C",
"A  c #6A3D36",
"S  c #753E34",
"D  c #4C4435",
"F  c #4A423A",
"G  c #474138",
"H  c #504537",
"J  c #54453E",
"K  c #5B423D",
"L  c #49503F",
"P  c #66423C",
"I  c #69463F",
"U  c #7B473B",
"Y  c #393F42",
"T  c #423F41",
"R  c #3C464C",
"E  c #3E494F",
"W  c #394043",
"Q  c #41484F",
"!  c #484744",
"~  c #5E4641",
"^  c #524C44",
"/  c #5B4A43",
"(  c #5A4E48",
")  c #555045",
"_  c #5C5D4D",
"`  c #575249",
"'  c #444D53",
"]  c #43525B",
"[  c #4A5359",
"{  c #475156",
"}  c #545A5F",
"|  c #624641",
" . c #634A45",
".. c #6A4E47",
"X. c #674D48",
"o. c #6C4E48",
"O. c #714F4A",
"+. c #64534D",
"@. c #6A504A",
"#. c #73524B",
"$. c #6A5D56",
"%. c #685B56",
"&. c #755953",
"*. c #765A53",
"=. c #5B624D",
"-. c #5E6650",
";. c #636552",
":. c #636C56",
">. c #6F625C",
",. c #6E6156",
"<. c #7E6259",
"1. c #77605A",
"2. c #69715B",
"3. c #667059",
"4. c #495761",
"5. c #4D5A63",
"6. c #515C64",
"7. c #5D5F60",
"8. c #55626A",
"9. c #59666E",
"0. c #5C6971",
"q. c #5B6770",
"w. c #636A6C",
"e. c #6E7262",
"r. c #767C66",
"t. c #666E71",
"y. c #88372B",
"u. c #894F43",
"i. c #944E41",
"p. c #8B5C58",
"a. c #935C59",
"s. c #88675E",
"d. c #92685D",
"f. c #A36859",
"g. c #8C6B62",
"h. c #8F6760",
"j. c #926E64",
"k. c #8F7667",
"l. c #947369",
"z. c #9B766B",
"x. c #9E7A6E",
"c. c #96786D",
"v. c #9D7B70",
"b. c #AA6E61",
"n. c #A66E60",
"m. c #A97162",
"M. c #AF756C",
"N. c #B1746E",
"B. c #A27C71",
"V. c #9F8174",
"C. c #AC8679",
"Z. c #A38A7C",
"A. c #AE897C",
"S. c #A68276",
"D. c #B28B7E",
"F. c #B98C7E",
"G. c #B3907E",
"H. c #988E86",
"J. c #9C938B",
"K. c #B88E82",
"L. c #AA9A8B",
"P. c #A59485",
"I. c #BD9285",
"U. c #BF9689",
"Y. c #BE9E8C",
"T. c #B89987",
"R. c #A99F92",
"E. c #B5A699",
"W. c #B9AA9E",
"Q. c #B3A396",
"!. c #B4ABA1",
"~. c #BAACA0",
"^. c #C39284",
"/. c #C19689",
"(. c #C99589",
"). c #C4998C",
"_. c #CB9E8F",
"`. c #CA9F91",
"'. c #C1A18E",
"]. c #C6AD9A",
"[. c #C8AD9B",
"{. c #CDA092",
"}. c #D3A595",
"|. c #D7A798",
" X c #D5A999",
".X c #DAAA9B",
"XX c #D0A897",
"oX c #C9B09C",
"OX c #CEB3A4",
"+X c #D1B5A6",
"@X c #D2B9A9",
"#X c #E4B4A4",
"$X c #EABAA9",
"%X c #E8B8A7",
"&X c #D9C5B5",
"*X c None",
/* pixels */
"*X*X*X*X*X*X*X*X*X*X*X*X*X*X*X*X*X*X*X*X*X*X*X*X*X*X*X*X*X*X*X*X*X*X*X*X*X*X*X*X*X*X*X*X*X*X*X*X*X*X*X*X*X*X*X*X*X*X*X*X*X*X*X*X",
"*X*X*X*X*X*X*X*X*X*X*X*X*X*X*X*X*X*X*X*X*X*X*X*X*X*X*X*X*X*X*X*X*X*X*X*X*X*X*X*X*X*X*X*X*X*X*X*X*X*X*X*X*X*X*X*X*X*X*X*X*X*X*X*X",
"*X*X*X*X*X*X*X*X*X*X*X*X*X*X*X*X*X*X*X*X*X*X*X*X*X*X*X*X*X*X*X*X*X*X*X*X*X*X*X*X*X*X*X*X*X*X*X*X*X*X*X*X*X*X*X*X*X*X*X*X*X*X*X*X",
"*X*X*X*X*X*X*X*X*X*X*X*X*X*X*X*X*X*X*X*X*X*X*X*X*X*X*X*X*X*X*X*X*X*X*X*X*X*X*X*X*X*X*X*X*X*X*X*X*X*X*X*X*X*X*X*X*X*X*X*X*X*X*X*X",
"*X*X*X*X*X*X*X*X*X*X*X*X*X*X*X*X*X*X*X*X*X*X*X*X*X*X*X*X*X*X*X*X*X*X*X*X*X*X*X*X*X*X*X*X*X*X*X*X*X*X*X*X*X*X*X*X*X*X*X*X*X*X*X*X",
"*X*X*X*X*X*X*X*X*X*X*X*X*X*X*X*X*X*X*X*X*X*X*X*X*X*X*X*X*X*X*X*X*X*X*X*X*X*X*X*X*X*X*X*X*X*X*X*X*X*X*X*X*X*X*X*X*X*X*X*X*X*X*X*X",
"*X*X*X*X*X*X*X*X*X*X*X*X*X*X*X*X*X*X*X*X*X*X*X*X*X*X*X*X*X*X*X*X*X*X*X*X*X*X*X*X*X*X*X*X*X*X*X*X*X*X*X*X*X*X*X*X*X*X*X*X*X*X*X*X",
"*X*X*X*X*X*X*X*X*X*X*X*X*X*X*X*X*X*X*X*X*X*X*X*X*X*X*X*X*X*X*X*X*X*X*X*X*X*X*X*X*X*X*X*X*X*X*X*X*X*X*X*X*X*X*X*X*X*X*X*X*X*X*X*X",
"*X*X*X*X*X*X*X*X*X*X*X*X*X*X*X*X*X*X*X*X*X*X*X*X*X*X*X*X*X*X*X*X*X*X*X*X*X*X*X*X*X*X*X*X*X*X*X*X*X*X*X*X*X*X*X*X*X*X*X*X*X*X*X*X",
"*X*X*X*X*X*X*X*X*X*X*X*X*X*X*X*X*X*X*X*X*X*X*X*X*X*X*X*X*X*X*X*X*X*X*X*X*X*X*X*X*X*X*X*X*X*X*X*X*X*X*X*X*X*X*X*X*X*X*X*X*X*X*X*X",
"*X*X*X*X*X*X*X*X*X*X*X*X*X*X*X*X*X*X*X*X*X*X*X*X*X*X*X*X*X*X*X*X*X*X*X*X*X*X*X*X*X*X*X*X*X*X*X*X*X*X*X*X*X*X*X*X*X*X*X*X*X*X*X*X",
"*X*X*X*X*X*X*X*X*X*X*X*X*X*X*X*X*X*X*X*X*X*X*X*X*X*X*X*X*X*X*X*X*X*X*X*X*X*X*X*X*X*X*X*X*X*X*X*X*X*X*X*X*X*X*X*X*X*X*X*X*X*X*X*X",
"*X*X*X*X*X*X*X*X*X*X*X*X*X*X*X*X*X*X*X*X*X*X*X*X*X*X*X*XX X X X X X *X*XX X *X*X*X*X*X*X*X*X*X*X*X*X*X*X*X*X*X*X*X*X*X*X*X*X*X*X",
"*X*X*X*X*X*X*X*X*X*X*X*X*X*X*X*X*X*X*X*X*X*X*X*X*X*X*X*X@ $ $ $ $ @ *X*X@ $ *X*X*X*X*X*X*X*X*X*X*X*X*X*X*X*X*X*X*X*X*X*X*X*X*X*X",
"*X*X*X*X*X*X*X*X*X*X*X*X*X*X*X*X*X*X*X*XX X X X X X X @ 1 9 9 9 9 1 @ @ 1 7 @ X *X*X*X*X*X*X*X*X*X*X*X*X*X*X*X*X*X*X*X*X*X*X*X*X",
"*X*X*X*X*X*X*X*X*X*X*X*X*X*X*X*X*X*X*X*X$ $ $ $ @ $ $ : g b b b b f ; ; f d $ X *X*X*X*X*X*X*X*X*X*X*X*X*X*X*X*X*X*X*X*X*X*X*X*X",
"*X*X*X*X*X*X*X*X*X*X*X*X*X*X*X*X*X*XX $ 1 9 9 9 9 9 s k M ~ ~ ~ ~ M s s M k $ . *X*X*X*X*X*X*X*X*X*X*X*X*X*X*X*X*X*X*X*X*X*X*X*X",
"*X*X*X*X*X*X*X*X*X*X*X*X*X*X*X*X*X*XX $ 1 s g v b b M ~  . .X. . .| M M ~ m 7 - *X*X*X*X*X*X*X*X*X*X*X*X*X*X*X*X*X*X*X*X*X*X*X*X",
"*X*X*X*X*X*X*X*X*X*X*X*X*X*X*X*X*X*X*X*X@ ; f M ~ ~ | |  . . . . . .~ |  .~ m 0 % X *X*X*X*X*X*X*X*X*X*X*X*X*X*X*X*X*X*X*X*X*X*X",
"*X*X*X*X*X*X*X*X*X*X*X*X*X*X*X*X*X*X*X*X@ < k K  . . . . . . . . . . . . .X.X.b - X *X*X*X*X*X*X*X*X*X*X*X*X*X*X*X*X*X*X*X*X*X*X",
"*X*X*X*X*X*X*X*X*X*X*X*X*X*X*X*X*X*XX $ 8 k K  . . . . . . . . . . . . . .X.X.c - X *X*X*X*X*X*X*X*X*X*X*X*X*X*X*X*X*X*X*X*X*X*X",
"*X*X*X*X*X*X*X*X*X*X*X*X*X*X*X*X*X*XX $ s K  . . . . . . . .| K ~ ~  . . . . .z $   *X*X*X*X*X*X*X*X*X*X*X*X*X*X*X*X*X*X*X*X*X*X",
"*X*X*X*X*X*X*X*X*X*X*X*X*X*X*X*X*X*X. $ s K |  . . . . . .~ b k k M ~ X. .X.X.k #   *X*X*X*X*X*X*X*X*X*X*X*X*X*X*X*X*X*X*X*X*X*X",
"*X*X*X*X*X*X*X*X*X*X*X*X*X*X*X*X*X*X$ : f M ~  . . . . . . ...| b k ~ | ~ ~  .b ; O *X*X*X*X*X*X*X*X*X*X*X*X*X*X*X*X*X*X*X*X*X*X",
"*X*X*X*X*X*X*X*X*X*X*X*X*X*X*X*XX $ 7 s g b b ~ |  . . .| *.B.z.| k ~ ~ b M ~ ~ k 7 O   *X*X*X*X*X*X*X*X*X*X*X*X*X*X*X*X*X*X*X*X",
"*X*X*X*X*X*X*X*X*X*X*X*X*X*X*X*XX $ 1 s g k b ~ |  .~ X.*.l./.^.s...| | n n ~ ~ k 7 O   *X*X*X*X*X*X*X*X*X*X*X*X*X*X*X*X*X*X*X*X",
"*X*X*X*X*X*X*X*X*X*X*X*X*X*X*X*X*X*X@ ; s b ~ |  . .~ &.B./.}.}.I.z.*.A Z Z I z ; O *X*X*X*X*X*X*X*X*X*X*X*X*X*X*X*X*X*X*X*X*X*X",
"*X*X*X*X*X*X*X*X*X*X*X*X*X*X*X*X*X*X. @ 9 b ~  . .X.&.l./._.C.A._.).l.O.C N A v ; O *X*X*X*X*X*X*X*X*X*X*X*X*X*X*X*X*X*X*X*X*X*X",
"*X*X*X*X*X*X*X*X*X*X*X*X*X*X*X*X*X*X. $ 0 M |  .~ &.B./.}.C.~  .I..X_.j.g > N Z h 7 O   *X*X*X*X*X*X*X*X*X*X*X*X*X*X*X*X*X*X*X*X",
"*X*X*X*X*X*X*X*X*X*X*X*X*X*X*X*X*X*X$ : g K | X.O.h.^.|.|.x.8 0 A.$X#XS.0 = p V v 7 O   *X*X*X*X*X*X*X*X*X*X*X*X*X*X*X*X*X*X*X*X",
"*X*X*X*X*X*X*X*X*X*X*X*X*X*X*X*XX $ 1 f z M ~ O.a.N.(.|.|.B.s j K.%X$XA.k > B B > o *X*X*X*X*X*X*X*X*X*X*X*X*X*X*X*X*X*X*X*X*X*X",
"*X*X*X*X*X*X*X*X*X*X*X*X*X*X*X*XX @ 1 d b M ~ o.p.N.(.|.|.K.#.&.Y.%X$X).*.P u.S =   *X*X*X*X*X*X*X*X*X*X*X*X*X*X*X*X*X*X*X*X*X*X",
"*X*X*X*X*X*X*X*X*X*X*X*X*X*X*X*X*X*X@ : k M K K | p.I.|.}._.U./..X#X%X.X).I.^.d.:   *X*X*X*X*X*X*X*X*X*X*X*X*X*X*X*X*X*X*X*X*X*X",
"*X*X*X*X*X*X*X*X*X*X*X*X*X*X*X*X*X*XX $ 7 j b b b o.z.I._..X#X%X%X#X#X#X%X.XK.*.3   *X*X*X*X*X*X*X*X*X*X*X*X*X*X*X*X*X*X*X*X*X*X",
"*X*X*X*X*X*X*X*X*X*X*X*X*X*X*X*X*X*X*X*X$ : j M M K o.g.I..X#X%X#X#X%X#X#XK.~ 3 *X*X*X*X*X*X*X*X*X*X*X*X*X*X*X*X*X*X*X*X*X*X*X*X",
"*X*X*X*X*X*X*X*X*X*X*X*X*X*X*X*X*X*X*X*XX $ f b k f k ..z./.|.#X+X#X#X}.D.<.;   *X*X*X*X*X*X*X*X*X*X*X*X*X*X*X*X*X*X*X*X*X*X*X*X",
"*X*X*X*X*X*X*X*X*X*X*X*X*X*X*X*X*X*X*X*X*X*X*X*X$ : f K @.g./..X X.X XK.~ 7 *X*X*X*X*X*X*X*X*X*X*X*X*X*X*X*X*X*X*X*X*X*X*X*X*X*X",
"*X*X*X*X*X*X*X*X*X*X*X*X*X*X*X*X*X*X*X*X*X*X*X*XO ; z / z @.C.XXXX X[.V.w X *X*X*X*X*X*X*X*X*X*X*X*X*X*X*X*X*X*X*X*X*X*X*X*X*X*X",
"*X*X*X*X*X*X*X*X*X*X*X*X*X*X*X*X*X*X*X*X*X*XX + , w _ _ x ~ Z.].].oXoXV.H ; O X *X*X*X*X*X*X*X*X*X*X*X*X*X*X*X*X*X*X*X*X*X*X*X*X",
"*X*X*X*X*X*X*X*X*X*X*X*X*X*X*X*X*X*X*X*X*X*XX + < G 3.-.G ( P.].T.G.K.l.K < + X *X*X*X*X*X*X*X*X*X*X*X*X*X*X*X*X*X*X*X*X*X*X*X*X",
"*X*X*X*X*X*X*X*X*X*X*X*X*X*X*X*X*X*X*X*X*X*XX + < c :.:.^ $.E.].n.i.i.U k : $ X *X*X*X*X*X*X*X*X*X*X*X*X*X*X*X*X*X*X*X*X*X*X*X*X",
"*X*X*X*X*X*X*X*X*X*X*X*X*X*X*X*X*X*X*X*X*X*X+ $ 3 F 2.2.^ >.~.+XM.i.y.B a 3 - $ *X*X*X*X*X*X*X*X*X*X*X*X*X*X*X*X*X*X*X*X*X*X*X*X",
"*X*X*X*X*X*X*X*X*X*X*X*X*X*X*X*X*X*X*X*XX + : 3 7 F r.r.` >.W.&X@XF.i.V a 0 w q $ X *X*X*X*X*X*X*X*X*X*X*X*X*X*X*X*X*X*X*X*X*X*X",
"*X*X*X*X*X*X*X*X*X*X*X*X*X*X*X*X*X*X*X*XX # 7 f x ^ e.e.( $.Q.&XOXU.m.u.b 0 c j $ X *X*X*X*X*X*X*X*X*X*X*X*X*X*X*X*X*X*X*X*X*X*X",
"*X*X*X*X*X*X*X*X*X*X*X*X*X*X*X*X*X*X*X*X. $ r J =.;._ ^ F $.L.Y.m.n.U.Z./ 0 x y $ X *X*X*X*X*X*X*X*X*X*X*X*X*X*X*X*X*X*X*X*X*X*X",
"*X*X*X*X*X*X*X*X*X*X*X*X*X*X*X*X*X*X*X*X+ ; y ) 3.:.^ x c $.L.'.f.m.+XW.+.0 j y , # *X*X*X*X*X*X*X*X*X*X*X*X*X*X*X*X*X*X*X*X*X*X",
"*X*X*X*X*X*X*X*X*X*X*X*X*X*X*X*X*X*XX $ 4 y x ^ :.-.F 0 x >.E.@XY.'.&XW.+.8 0 y y 3 # X *X*X*X*X*X*X*X*X*X*X*X*X*X*X*X*X*X*X*X*X",
"*X*X*X*X*X*X*X*X*X*X*X*X*X*X*X*X*X*XX ; ( 1.&.,.3.=.x 0 j +.J.!.R.R.W.H.( 8 8 k +./ ; X *X*X*X*X*X*X*X*X*X*X*X*X*X*X*X*X*X*X*X*X",
"*X*X*X*X*X*X*X*X*X*X*X*X*X*X*X*X*X*X. q c.`.U.Z.r.=.l 8 0 c 8.t.w.w.t.} x 8 8 ~ v.g.8 X *X*X*X*X*X*X*X*X*X*X*X*X*X*X*X*X*X*X*X*X",
"*X*X*X*X*X*X*X*X*X*X*X*X*X*X*X*X*X*X  w k.D.C.k.;.L x w j Y ' { ] ] [ ' T y 7 z g.s.0   *X*X*X*X*X*X*X*X*X*X*X*X*X*X*X*X*X*X*X*X",
"*X*X*X*X*X*X*X*X*X*X*X*X*X*X*X*X*X*X*X*Xw f w 0 , 5 i ' [ } 5.5.] ] 4.6.} Q 2 $ 8 e *X*X*X*X*X*X*X*X*X*X*X*X*X*X*X*X*X*X*X*X*X*X",
"*X*X*X*X*X*X*X*X*X*X*X*X*X*X*X*X*X*X*X*X          * R 5.8.9.9.5.R R 6.9.9.' , .     *X*X*X*X*X*X*X*X*X*X*X*X*X*X*X*X*X*X*X*X*X*X",
"*X*X*X*X*X*X*X*X*X*X*X*X*X*X*X*X*X*X*X*X*X*X*X*X  & E 9.9.9.9.[ 5 5 { q.0.{ & . *X*X*X*X*X*X*X*X*X*X*X*X*X*X*X*X*X*X*X*X*X*X*X*X",
"*X*X*X*X*X*X*X*X*X*X*X*X*X*X*X*X*X*X*X*X*X*X*X*X* 6 { 8.8.5.[ W 2 5 ' 6.[ W & X *X*X*X*X*X*X*X*X*X*X*X*X*X*X*X*X*X*X*X*X*X*X*X*X",
"*X*X*X*X*X*X*X*X*X*X*X*X*X*X*X*X*X*X*X*X*X*XX * t R ] [ [ E 6 2 t R ] E 6 & *X*X*X*X*X*X*X*X*X*X*X*X*X*X*X*X*X*X*X*X*X*X*X*X*X*X",
"*X*X*X*X*X*X*X*X*X*X*X*X*X*X*X*X*X*X*X*X*X*XX $ u Q E R E u # * u Q ' u *   *X*X*X*X*X*X*X*X*X*X*X*X*X*X*X*X*X*X*X*X*X*X*X*X*X*X",
"*X*X*X*X*X*X*X*X*X*X*X*X*X*X*X*X*X*X*X*X*X*XX $ 3 y w e r 4 + + 4 y y 3 + . *X*X*X*X*X*X*X*X*X*X*X*X*X*X*X*X*X*X*X*X*X*X*X*X*X*X",
"*X*X*X*X*X*X*X*X*X*X*X*X*X*X*X*X*X*X*X*X*X*XX + : 8 0 s w 1 + + : 8 9 8 , % *X*X*X*X*X*X*X*X*X*X*X*X*X*X*X*X*X*X*X*X*X*X*X*X*X*X",
"*X*X*X*X*X*X*X*X*X*X*X*X*X*X*X*X*X*X*X*X*X*XX @ : 0 G D H e $ + : s z D D e % X *X*X*X*X*X*X*X*X*X*X*X*X*X*X*X*X*X*X*X*X*X*X*X*X",
"*X*X*X*X*X*X*X*X*X*X*X*X*X*X*X*X*X*X*X*X*X*XX O ; 0 G H H e $ + ; 8 l D D w $ X *X*X*X*X*X*X*X*X*X*X*X*X*X*X*X*X*X*X*X*X*X*X*X*X",
"*X*X*X*X*X*X*X*X*X*X*X*X*X*X*X*X*X*X*X*X*X*XX O + % , < < , o o @ % , < , , + . *X*X*X*X*X*X*X*X*X*X*X*X*X*X*X*X*X*X*X*X*X*X*X*X",
"*X*X*X*X*X*X*X*X*X*X*X*X*X*X*X*X*X*X*X*X*X*X*X*X*X*X*X*X*X*X*X*X*X*X*X*X*X*X*X*X*X*X*X*X*X*X*X*X*X*X*X*X*X*X*X*X*X*X*X*X*X*X*X*X",
"*X*X*X*X*X*X*X*X*X*X*X*X*X*X*X*X*X*X*X*X*X*X*X*X*X*X*X*X*X*X*X*X*X*X*X*X*X*X*X*X*X*X*X*X*X*X*X*X*X*X*X*X*X*X*X*X*X*X*X*X*X*X*X*X",
"*X*X*X*X*X*X*X*X*X*X*X*X*X*X*X*X*X*X*X*X*X*X*X*X*X*X*X*X*X*X*X*X*X*X*X*X*X*X*X*X*X*X*X*X*X*X*X*X*X*X*X*X*X*X*X*X*X*X*X*X*X*X*X*X"
};
