/* XPM */
static char *result[] = {
/* columns rows colors chars-per-pixel */
"64 64 189 2 ",
"   c #030301",
".  c #080704",
"X  c #0A0906",
"o  c #120D0C",
"O  c #15110E",
"+  c #19130F",
"@  c #1B1411",
"#  c #1E1814",
"$  c #1B1C1B",
"%  c #131210",
"&  c #25110D",
"*  c #221A16",
"=  c #261D1A",
"-  c #291E1B",
";  c #341813",
":  c #2C221D",
">  c #24211B",
",  c #32231F",
"<  c #1C2123",
"1  c #202222",
"2  c #2E2421",
"3  c #262A2B",
"4  c #292C2D",
"5  c #322522",
"6  c #362925",
"7  c #3C2A26",
"8  c #372D2C",
"9  c #3B2D2A",
"0  c #3D322C",
"q  c #3D3433",
"w  c #3C3D3F",
"e  c #30393B",
"r  c #67271D",
"t  c #4B2C26",
"y  c #422E2A",
"u  c #482F28",
"i  c #44312D",
"p  c #4A332E",
"a  c #52332D",
"s  c #443532",
"d  c #4B3632",
"f  c #443A36",
"g  c #4C3A35",
"h  c #473B38",
"j  c #4A3D3A",
"k  c #533631",
"l  c #523A35",
"z  c #5C3932",
"x  c #553E39",
"c  c #583F3A",
"v  c #662E24",
"b  c #6D2B22",
"n  c #712D23",
"m  c #6C352C",
"M  c #73352C",
"N  c #6A3D36",
"B  c #753E34",
"V  c #4D4535",
"C  c #4B433B",
"Z  c #4A453B",
"A  c #54453C",
"S  c #5B423D",
"D  c #66423C",
"F  c #69463F",
"G  c #7B473B",
"H  c #2C3D46",
"J  c #313F45",
"K  c #413E40",
"L  c #3B4246",
"P  c #3C474D",
"I  c #324249",
"U  c #354650",
"Y  c #494945",
"T  c #5E4641",
"R  c #564C46",
"E  c #5C4A44",
"W  c #5A4F48",
"Q  c #575149",
"!  c #5C5E4C",
"~  c #434C52",
"^  c #504E50",
"/  c #495157",
"(  c #43515B",
")  c #4D575D",
"_  c #4D585E",
"`  c #51565B",
"'  c #5A5C5E",
"]  c #51585F",
"[  c #624641",
"{  c #634A45",
"}  c #6A4E47",
"|  c #664E48",
" . c #6C4E48",
".. c #714F4A",
"X. c #63544E",
"o. c #6A504A",
"O. c #73524B",
"+. c #6A5D56",
"@. c #685B56",
"#. c #755953",
"$. c #765A53",
"%. c #636C55",
"&. c #6F625C",
"*. c #6C6F5F",
"=. c #7E6259",
"-. c #766059",
";. c #69725C",
":. c #4D5A62",
">. c #505C64",
",. c #5D5F61",
"<. c #55626B",
"1. c #59666E",
"2. c #5B6870",
"3. c #636A6C",
"4. c #6E7162",
"5. c #747C67",
"6. c #666E71",
"7. c #88372B",
"8. c #894F44",
"9. c #944E41",
"0. c #8B5C58",
"q. c #935C59",
"w. c #88655C",
"e. c #92685D",
"r. c #A36859",
"t. c #8F6760",
"y. c #8B6A61",
"u. c #926E64",
"i. c #95746A",
"p. c #9B756B",
"a. c #9E7A6E",
"s. c #907167",
"d. c #927871",
"f. c #AA6E61",
"g. c #A66E60",
"h. c #A97162",
"j. c #AF756C",
"k. c #B1746E",
"l. c #A27C71",
"z. c #9F8174",
"x. c #AE877A",
"c. c #A28B7C",
"v. c #AE897C",
"b. c #A68276",
"n. c #B18B7E",
"m. c #B98C7E",
"M. c #B3907E",
"N. c #988D86",
"B. c #9C938B",
"V. c #A68B80",
"C. c #B88E82",
"Z. c #AA9A8B",
"A. c #A59485",
"S. c #BD9285",
"D. c #BF9689",
"F. c #BE9E8C",
"G. c #B79789",
"H. c #A99F92",
"J. c #BD9C92",
"K. c #B5A699",
"L. c #B9AA9E",
"P. c #B3A396",
"I. c #B4ABA1",
"U. c #BAACA0",
"Y. c #C39284",
"T. c #C19689",
"R. c #C99589",
"E. c #C4998C",
"W. c #CB9E8F",
"Q. c #CA9E90",
"!. c #C1A18E",
"~. c #C6AD9A",
"^. c #C8AD9B",
"/. c #CDA092",
"(. c #D3A595",
"). c #D7A798",
"_. c #D5A999",
"`. c #DAAA9B",
"'. c #D0A897",
"]. c #C9B09C",
"[. c #CEB3A4",
"{. c #D1B5A6",
"}. c #D2B9A9",
"|. c #E4B4A4",
" X c #E7B8A7",
".X c #EABAA9",
"XX c #E8B8A7",
"oX c #D9C5B5",
"OX c None",
/* pixels */
"OXOXOXOXOXOXOXOXOXOXOXOXOXOXOXOXOXOXOXOXOXOXOXOXOXOXOXOXOXOXOXOXOXOXOXOXOXOXOXOXOXOXOXOXOXOXOXOXOXOXOXOXOXOXOXOXOXOXOXOXOXOXOXOX",
"OXOXOXOXOXOXOXOXOXOXOXOXOXOXOXOXOXOXOXOXOXOXOXOXOXOXOXOXOXOXOXOXOXOXOXOXOXOXOXOXOXOXOXOXOXOXOXOXOXOXOXOXOXOXOXOXOXOXOXOXOXOXOXOX",
"OXOXOXOXOXOXOXOXOXOXOXOXOXOXOXOXOXOXOXOXOXOXOXOXOXOXOXOXOXOXOXOXOXOXOXOXOXOXOXOXOXOXOXOXOXOXOXOXOXOXOXOXOXOXOXOXOXOXOXOXOXOXOXOX",
"OXOXOXOXOXOXOXOXOXOXOXOXOXOXOXOXOXOXOXOXOXOXOXOXOXOXOXOXOXOXOXOXOXOXOXOXOXOXOXOXOXOXOXOXOXOXOXOXOXOXOXOXOXOXOXOXOXOXOXOXOXOXOXOX",
"OXOXOXOXOXOXOXOXOXOXOXOXOXOXOXOXOXOXOXOXOXOXOXOXOXOXOXOXOXOXOXOXOXOXOXOXOXOXOXOXOXOXOXOXOXOXOXOXOXOXOXOXOXOXOXOXOXOXOXOXOXOXOXOX",
"OXOXOXOXOXOXOXOXOXOXOXOXOXOXOXOXOXOXOXOXOXOXOXOXOXOXOXOXOXOXOXOXOXOXOXOXOXOXOXOXOXOXOXOXOXOXOXOXOXOXOXOXOXOXOXOXOXOXOXOXOXOXOXOX",
"OXOXOXOXOXOXOXOXOXOXOXOXOXOXOXOXOXOXOXOXOXOXOXOXOXOXOXOXOXOXOXOXOXOXOXOXOXOXOXOXOXOXOXOXOXOXOXOXOXOXOXOXOXOXOXOXOXOXOXOXOXOXOXOX",
"OXOXOXOXOXOXOXOXOXOXOXOXOXOXOXOXOXOXOXOXOXOXOXOXOXOXOXOXOXOXOXOXOXOXOXOXOXOXOXOXOXOXOXOXOXOXOXOXOXOXOXOXOXOXOXOXOXOXOXOXOXOXOXOX",
"OXOXOXOXOXOXOXOXOXOXOXOXOXOXOXOXOXOXOXOXOXOXOXOXOXOXOXOXOXOXOXOXOXOXOXOXOXOXOXOXOXOXOXOXOXOXOXOXOXOXOXOXOXOXOXOXOXOXOXOXOXOXOXOX",
"OXOXOXOXOXOXOXOXOXOXOXOXOXOXOXOXOXOXOXOXOXOXOXOXOXOXOXOXOXOXOXOXOXOXOXOXOXOXOXOXOXOXOXOXOXOXOXOXOXOXOXOXOXOXOXOXOXOXOXOXOXOXOXOX",
"OXOXOXOXOXOXOXOXOXOXOXOXOXOXOXOXOXOXOXOXOXOXOXOXOXOXOXOXOXOXOXOXOXOXOXOXOXOXOXOXOXOXOXOXOXOXOXOXOXOXOXOXOXOXOXOXOXOXOXOXOXOXOXOX",
"OXOXOXOXOXOXOXOXOXOXOXOXOXOXOXOXOXOXOXOXOXOXOXOXOXOXOXOXOXOXOXOXOXOXOXOXOXOXOXOXOXOXOXOXOXOXOXOXOXOXOXOXOXOXOXOXOXOXOXOXOXOXOXOX",
"OXOXOXOXOXOXOXOXOXOXOXOXOXOXOXOXOXOXOXOXOXOXOXOXOXOXOXOXOXOXOXOXOXOXOXOXOXOXOXOXOXOXOXOXOXOXOXOXOXOXOXOXOXOXOXOXOXOXOXOXOXOXOXOX",
"OXOXOXOXOXOXOXOXOXOXOXOXOXOXOXOXOXOXOXOXOXOXOXOXOXOXOXOXOXOXOXOXOXOXOXOXOXOXOXOXOXOXOXOXOXOXOXOXOXOXOXOXOXOXOXOXOXOXOXOXOXOXOXOX",
"OXOXOXOXOXOXOXOXOXOXOXOXOXOXOXOXOXOXOXOXOXOXOXOXOXOXOXOXOXOXOXOXOXOXOXOXOXOXOXOXOXOXOXOXOXOXOXOXOXOXOXOXOXOXOXOXOXOXOXOXOXOXOXOX",
"OXOXOXOXOXOXOXOXOXOXOXOXOXOXOXOXOXOXOXOXOXOXOXOXOXOXOXOXOXOXOXOXOXOXOXOXOXOXOXOXOXOXOXOXOXOXOXOXOXOXOXOXOXOXOXOXOXOXOXOXOXOXOXOX",
"OXOXOXOXOXOXOXOXOXOXOXOXOXOXOXOXOXOXOXOXOXOXOXOXOXOXOXOXOXOXOXOXOXOXOXOXOXOXOXOXOXOXOXOXOXOXOXOXOXOXOXOXOXOXOXOXOXOXOXOXOXOXOXOX",
"OXOXOXOXOXOXOXOXOXOXOXOXOXOXOXOXOXOXOXOXOXOXOXOXOXOXOXOXOXOXOXOXOXOXOXOXOXOXOXOXOXOXOXOXOXOXOXOXOXOXOXOXOXOXOXOXOXOXOXOXOXOXOXOX",
"OXOXOXOXOXOXOXOXOXOXOXOXOXOXOXOXOXOXOXOXOXOXOXOXOXOXOXOXX X X X X X OXOXX X OXOXOXOXOXOXOXOXOXOXOXOXOXOXOXOXOXOXOXOXOXOXOXOXOXOX",
"OXOXOXOXOXOXOXOXOXOXOXOXOXOXOXOXOXOXOXOXOXOXOXOXOXOXOXOX+ @ @ @ @ + OXOX+ @ OXOXOXOXOXOXOXOXOXOXOXOXOXOXOXOXOXOXOXOXOXOXOXOXOXOX",
"OXOXOXOXOXOXOXOXOXOXOXOXOXOXOXOXOXOXOXOXX X X X . . . @ , 7 7 7 7 , + + 5 , + X OXOXOXOXOXOXOXOXOXOXOXOXOXOXOXOXOXOXOXOXOXOXOXOX",
"OXOXOXOXOXOXOXOXOXOXOXOXOXOXOXOXOXOXOXOX@ @ @ @ @ @ @ - u l l l l i = - i 9 @ X OXOXOXOXOXOXOXOXOXOXOXOXOXOXOXOXOXOXOXOXOXOXOXOX",
"OXOXOXOXOXOXOXOXOXOXOXOXOXOXOXOXOXOXX @ , 7 7 7 7 7 9 d c [ T T T x y u S d # . OXOXOXOXOXOXOXOXOXOXOXOXOXOXOXOXOXOXOXOXOXOXOXOX",
"OXOXOXOXOXOXOXOXOXOXOXOXOXOXOXOXOXOXX @ , y p k l x c T [ | { | { D x c T x 5 # OXOXOXOXOXOXOXOXOXOXOXOXOXOXOXOXOXOXOXOXOXOXOXOX",
"OXOXOXOXOXOXOXOXOXOXOXOXOXOXOXOXOXOXOXOXO - i c T T T { { { { { { { T T { T x i # . OXOXOXOXOXOXOXOXOXOXOXOXOXOXOXOXOXOXOXOXOXOX",
"OXOXOXOXOXOXOXOXOXOXOXOXOXOXOXOXOXOXOXOX+ - d S { { { { { { { { { { { { { | | g * X OXOXOXOXOXOXOXOXOXOXOXOXOXOXOXOXOXOXOXOXOXOX",
"OXOXOXOXOXOXOXOXOXOXOXOXOXOXOXOXOXOXX @ 6 d S { { { { { { { | | { { { { [ | | g * X OXOXOXOXOXOXOXOXOXOXOXOXOXOXOXOXOXOXOXOXOXOX",
"OXOXOXOXOXOXOXOXOXOXOXOXOXOXOXOXOXOXX @ i S { { { { { { | [ S S T T { { | | | g #   OXOXOXOXOXOXOXOXOXOXOXOXOXOXOXOXOXOXOXOXOXOX",
"OXOXOXOXOXOXOXOXOXOXOXOXOXOXOXOXOXOX. + i S [ { { { { { { T l d d x [ { [ | | d @   OXOXOXOXOXOXOXOXOXOXOXOXOXOXOXOXOXOXOXOXOXOX",
"OXOXOXOXOXOXOXOXOXOXOXOXOXOXOXOXOXOX+ - i c T [ { { { { [ { } [ l k T { T T | g - o OXOXOXOXOXOXOXOXOXOXOXOXOXOXOXOXOXOXOXOXOXOX",
"OXOXOXOXOXOXOXOXOXOXOXOXOXOXOXOXX @ , y p l x S [ { { { T #.l.p.[ d c { x x T T d 5 o   OXOXOXOXOXOXOXOXOXOXOXOXOXOXOXOXOXOXOXOX",
"OXOXOXOXOXOXOXOXOXOXOXOXOXOXOXOXX @ 5 y p k x S { { E } #.i.E.Y.w.{ { c z z T T d 5 o   OXOXOXOXOXOXOXOXOXOXOXOXOXOXOXOXOXOXOXOX",
"OXOXOXOXOXOXOXOXOXOXOXOXOXOXOXOXOXOX+ = y l K { { { S $.l.T.(.(.Y.p.O.D m M } g = o OXOXOXOXOXOXOXOXOXOXOXOXOXOXOXOXOXOXOXOXOXOX",
"OXOXOXOXOXOXOXOXOXOXOXOXOXOXOXOXOXOX. + y z { { { } #.i.T.W.x.v./.E.p...m v N k = o OXOXOXOXOXOXOXOXOXOXOXOXOXOXOXOXOXOXOXOXOXOX",
"OXOXOXOXOXOXOXOXOXOXOXOXOXOXOXOXOXOX. @ y c [ { T #.l.T.(.x.S | S.`.Q.u.t ; v M a 5 o   OXOXOXOXOXOXOXOXOXOXOXOXOXOXOXOXOXOXOXOX",
"OXOXOXOXOXOXOXOXOXOXOXOXOXOXOXOXOXOX+ - p c T  ...y.Y.).).a.6 9 v.XX|.b.9 & r M a 5 o   OXOXOXOXOXOXOXOXOXOXOXOXOXOXOXOXOXOXOXOX",
"OXOXOXOXOXOXOXOXOXOXOXOXOXOXOXOXX @ 5 u l x T ..q.k.R.).`.l.y s C..X.Xv.d ; r b ; o OXOXOXOXOXOXOXOXOXOXOXOXOXOXOXOXOXOXOXOXOXOX",
"OXOXOXOXOXOXOXOXOXOXOXOXOXOXOXOXX @ 5 y l c T  .q.j.R.).).n.O.#.D..X.XT.$.F 8.B &   OXOXOXOXOXOXOXOXOXOXOXOXOXOXOXOXOXOXOXOXOXOX",
"OXOXOXOXOXOXOXOXOXOXOXOXOXOXOXOXOXOX@ - i c c c [ 0.C.).).W.S.T.`. X X`.T.S.Y.e.-   OXOXOXOXOXOXOXOXOXOXOXOXOXOXOXOXOXOXOXOXOXOX",
"OXOXOXOXOXOXOXOXOXOXOXOXOXOXOXOXOXOX. @ 7 f l c l  .p.Y.Q.`.|. X X|.|. XXX).n.w.:   OXOXOXOXOXOXOXOXOXOXOXOXOXOXOXOXOXOXOXOXOXOX",
"OXOXOXOXOXOXOXOXOXOXOXOXOXOXOXOXOXOXOXOX@ - d c c S | y.S.`.|. X|.|.|.|.|.n.T : OXOXOXOXOXOXOXOXOXOXOXOXOXOXOXOXOXOXOXOXOXOXOXOX",
"OXOXOXOXOXOXOXOXOXOXOXOXOXOXOXOXOXOXOXOX. @ i g d i d } p.T.).|.{.|.|.).n.=.:   OXOXOXOXOXOXOXOXOXOXOXOXOXOXOXOXOXOXOXOXOXOXOXOX",
"OXOXOXOXOXOXOXOXOXOXOXOXOXOXOXOXOXOXOXOXOXOXOXOX# - y c  .y.T.`.`.`.`.n.E 5 OXOXOXOXOXOXOXOXOXOXOXOXOXOXOXOXOXOXOXOXOXOXOXOXOXOX",
"OXOXOXOXOXOXOXOXOXOXOXOXOXOXOXOXOXOXOXOXOXOXOXOXo > g E g  .v.'.'.'._.a.i X OXOXOXOXOXOXOXOXOXOXOXOXOXOXOXOXOXOXOXOXOXOXOXOXOXOX",
"OXOXOXOXOXOXOXOXOXOXOXOXOXOXOXOXOXOXOXOXOXOXX o = 0 ! ! f E c.~.~.^.].c.Z * O X OXOXOXOXOXOXOXOXOXOXOXOXOXOXOXOXOXOXOXOXOXOXOXOX",
"OXOXOXOXOXOXOXOXOXOXOXOXOXOXOXOXOXOXOXOXOXOXX O - Z %.%.j W A.~.G.M.M.i.A : O X OXOXOXOXOXOXOXOXOXOXOXOXOXOXOXOXOXOXOXOXOXOXOXOX",
"OXOXOXOXOXOXOXOXOXOXOXOXOXOXOXOXOXOXOXOXOXOXX O : Z %.%.A +.P.^.g.9.9.G k : O X OXOXOXOXOXOXOXOXOXOXOXOXOXOXOXOXOXOXOXOXOXOXOXOX",
"OXOXOXOXOXOXOXOXOXOXOXOXOXOXOXOXOXOXOXOXOXOX+ @ : Z ;.;.Q &.U.}.j.9.7.n t 5 # O OXOXOXOXOXOXOXOXOXOXOXOXOXOXOXOXOXOXOXOXOXOXOXOX",
"OXOXOXOXOXOXOXOXOXOXOXOXOXOXOXOXOXOXOXOXX O - 2 6 C 5.5.Q &.U.oX}.C.9.b t 8 5 = + X OXOXOXOXOXOXOXOXOXOXOXOXOXOXOXOXOXOXOXOXOXOX",
"OXOXOXOXOXOXOXOXOXOXOXOXOXOXOXOXOXOXOXOXX + , 9 9 C 4.4.R #.P.oX[.T.f.8.k 9 9 6 + X OXOXOXOXOXOXOXOXOXOXOXOXOXOXOXOXOXOXOXOXOXOX",
"OXOXOXOXOXOXOXOXOXOXOXOXOXOXOXOXOXOXOXOXX O : 0 d C Q Q Y +.Z.P.f.f.T.V.T 9 f 8 @ X OXOXOXOXOXOXOXOXOXOXOXOXOXOXOXOXOXOXOXOXOXOX",
"OXOXOXOXOXOXOXOXOXOXOXOXOXOXOXOXOXOXOXOXX @ 5 s j j h f g +.Z.E.r.h.[.U.X.9 s 8 @ X OXOXOXOXOXOXOXOXOXOXOXOXOXOXOXOXOXOXOXOXOXOX",
"OXOXOXOXOXOXOXOXOXOXOXOXOXOXOXOXOXOXOXOXX + 8 g j h i q s &.K.}.F.!.oXL.X.7 8 5 + X OXOXOXOXOXOXOXOXOXOXOXOXOXOXOXOXOXOXOXOXOXOX",
"OXOXOXOXOXOXOXOXOXOXOXOXOXOXOXOXOXOXOXOX. > E -.+.| s 8 i @.B.I.H.H.L.N.R y x g $ . OXOXOXOXOXOXOXOXOXOXOXOXOXOXOXOXOXOXOXOXOXOX",
"OXOXOXOXOXOXOXOXOXOXOXOXOXOXOXOXOXOXOXOX  9 d.!.T.i.T 6 8 j ,.6.3.3.6.' f c i.y.5 . OXOXOXOXOXOXOXOXOXOXOXOXOXOXOXOXOXOXOXOXOXOX",
"OXOXOXOXOXOXOXOXOXOXOXOXOXOXOXOXOXOXOXOXX 0 d.F.G.d.R 8 q K ~ ( ( ( ( P w W s.y.9 . OXOXOXOXOXOXOXOXOXOXOXOXOXOXOXOXOXOXOXOXOXOX",
"OXOXOXOXOXOXOXOXOXOXOXOXOXOXOXOXOXOXX O * 8 ^ ,.' ) ~ ~ / ] >.:.( ( :.>.] ^ f 6 OXOXOXOXOXOXOXOXOXOXOXOXOXOXOXOXOXOXOXOXOXOXOXOX",
"OXOXOXOXOXOXOXOXOXOXOXOXOXOXOXOXOXOXX + 5 q w J H U P :.<.1.1.:.P P >.1.2.~ $   OXOXOXOXOXOXOXOXOXOXOXOXOXOXOXOXOXOXOXOXOXOXOXOX",
"OXOXOXOXOXOXOXOXOXOXOXOXOXOXOXOXOXOX. # i V Z L I U :.<.1.1.1./ 4 3 ~ 2.2.~ <   OXOXOXOXOXOXOXOXOXOXOXOXOXOXOXOXOXOXOXOXOXOXOXOX",
"OXOXOXOXOXOXOXOXOXOXOXOXOXOXOXOXOXOXX # 0 V V Z e J ~ ) ) _ _ L $ $ L >.] L $ X OXOXOXOXOXOXOXOXOXOXOXOXOXOXOXOXOXOXOXOXOXOXOXOX",
"OXOXOXOXOXOXOXOXOXOXOXOXOXOXOXOXOXOXOXO > : : > $ < 3 4 4 4 4 1 O O 1 4 4 1 % X OXOXOXOXOXOXOXOXOXOXOXOXOXOXOXOXOXOXOXOXOXOXOXOX",
"OXOXOXOXOXOXOXOXOXOXOXOXOXOXOXOXOXOXOXOXOXOXOXOXOXOXOXOXOXOXOXOXOXOXOXOXOXOXOXOXOXOXOXOXOXOXOXOXOXOXOXOXOXOXOXOXOXOXOXOXOXOXOXOX",
"OXOXOXOXOXOXOXOXOXOXOXOXOXOXOXOXOXOXOXOXOXOXOXOXOXOXOXOXOXOXOXOXOXOXOXOXOXOXOXOXOXOXOXOXOXOXOXOXOXOXOXOXOXOXOXOXOXOXOXOXOXOXOXOX",
"OXOXOXOXOXOXOXOXOXOXOXOXOXOXOXOXOXOXOXOXOXOXOXOXOXOXOXOXOXOXOXOXOXOXOXOXOXOXOXOXOXOXOXOXOXOXOXOXOXOXOXOXOXOXOXOXOXOXOXOXOXOXOXOX"
};
