/* XPM */
static char *result[] = {
/* columns rows colors chars-per-pixel */
"64 64 93 2 ",
"   c #060502",
".  c #090604",
"X  c #0A0805",
"o  c #0E0B08",
"O  c #130E0B",
"+  c #15110D",
"@  c #18120F",
"#  c #121515",
"$  c #1C1512",
"%  c #1E1C15",
"&  c #201A16",
"*  c #251D1B",
"=  c #1F2017",
"-  c #24241B",
";  c #2C211D",
":  c #2F2320",
">  c #242A26",
",  c #292A22",
"<  c #332522",
"1  c #372925",
"2  c #392926",
"3  c #352E2F",
"4  c #3C2C29",
"5  c #323729",
"6  c #3C332B",
"7  c #242D33",
"8  c #372F30",
"9  c #233137",
"0  c #243138",
"q  c #2B393E",
"w  c #3B3331",
"e  c #3A3E32",
"r  c #393E3E",
"t  c #422F2C",
"y  c #43322E",
"u  c #443330",
"i  c #4A3632",
"p  c #433A32",
"a  c #4E3935",
"s  c #503B36",
"d  c #533E39",
"f  c #3A4033",
"g  c #404736",
"h  c #4A4135",
"j  c #424937",
"k  c #4C453B",
"l  c #4C483C",
"z  c #55413B",
"x  c #5A423E",
"c  c #55483F",
"v  c #2F3840",
"b  c #303940",
"n  c #3B4444",
"m  c #374749",
"M  c #3D444A",
"N  c #3B4D4D",
"B  c #424C4F",
"V  c #5F4641",
"C  c #5B4A41",
"Z  c #5A4C4A",
"A  c #4C5444",
"S  c #43524D",
"D  c #555645",
"F  c #535F47",
"G  c #535C4D",
"H  c #54575B",
"J  c #56595C",
"K  c #604742",
"L  c #634A45",
"P  c #664D48",
"I  c #684E49",
"U  c #645249",
"Y  c #6C5B4C",
"T  c #57624B",
"R  c #5B634D",
"E  c #5A6554",
"W  c #596956",
"Q  c #5B6B58",
"!  c #636551",
"~  c #6A6056",
"^  c #626E54",
"/  c #637055",
"(  c #67745B",
")  c #69775C",
"_  c #6B7A5D",
"`  c #6F7C63",
"'  c #707E65",
"]  c #9F847C",
"[  c #819175",
"{  c #A88478",
"}  c #AE8B7C",
"|  c #A48B81",
" . c None",
/* pixels */
" . . . . . . . . . . . . . . . . . . . . . . . . . . . . . . . . . . . . . . . . . . . . . . . . . . . . . . . . . . . . . . . .",
" . . . . . . . . . . . . . . . . . . . . . . . . . . . . . . . . . . . . . . . . . . . . . . . . . . . . . . . . . . . . . . . .",
" . . . . . . . . . . . . . . . . . . . . . . . . . . . . . . . . . . . . . . . . . . . . . . . . . . . . . . . . . . . . . . . .",
" . . . . . . . . . . . . . . . . . . . . . . . . . . . . . . . . . . . . . . . . . . . . . . . . . . . . . . . . . . . . . . . .",
" . . . . . . . . . . . . . . . . . . . . . . . . . . . . . . . . . . . . . . . . . . . . . . . . . . . . . . . . . . . . . . . .",
" . . . . . . . . . . . . . . . . . . . . . . . . . . . . . . . . . . . . . . . . . . . . . . . . . . . . . . . . . . . . . . . .",
" . . . . . . . . . . . . . . . . . . . . . . . . . . . . . . . . . . . . . . . . . . . . . . . . . . . . . . . . . . . . . . . .",
" . . . . . . . . . . . . . . . . . . . . . . . . . . . . . . . . . . . . . . . . . . . . . . . . . . . . . . . . . . . . . . . .",
" . . . . . . . . . . . . . . . . . . . . . . . . . . . . . . . . . . . . . . . . . . . . . . . . . . . . . . . . . . . . . . . .",
" . . . . . . . . . . . . . . . . . . . . . . . . . . . . . . . . . . . . . . . . . . . . . . . . . . . . . . . . . . . . . . . .",
" . . . . . . . . . . . . . . . . . . . . . . . . . . . . . . . . . . . . . . . . . . . . . . . . . . . . . . . . . . . . . . . .",
" . . . . . . . . . . . . . . . . . . . . . . . . . . . . . . . . . . . . . . . . . . . . . . . . . . . . . . . . . . . . . . . .",
" . . . . . . . . . . . . . . . . . . . . . . . . . . . . . . . . . . . . . . . . . . . . . . . . . . . . . . . . . . . . . . . .",
" . . . . . . . . . . . . . . . . . . . . . . . . . . . . . . . . . . . . . . . . . . . . . . . . . . . . . . . . . . . . . . . .",
" . . . . . . . . . . . . . . . . . . . . . . . . . . . . . . . . . . . . . . . . . . . . . . . . . . . . . . . . . . . . . . . .",
" . . . . . . . . . . . . . . . . . . . . . . . . . . . . . . . . . . . . . . . . . . . . . . . . . . . . . . . . . . . . . . . .",
" . . . . . . . . . . . . . . . . . . . . . . . . . . . . . . . . . . . . . . . . . . . . . . . . . . . . . . . . . . . . . . . .",
" . . . . . . . . . . . . . . . . . . . . . . . . . . . . . . . . . . . . . . . . . . . . . . . . . . . . . . . . . . . . . . . .",
" . . . . . . . . . . . . . . . . . . . . . . . . . . . . . . . . . . . . . . . . . . . . . . . . . . . . . . . . . . . . . . . .",
" . . . . . . . . . . . . . . . . . . . . . . . . . . . . . . . . . . . . . . . . . . . . . . . . . . . . . . . . . . . . . . . .",
" . . . . . . . . . . . . . . . . . . . . . . . . . . . . . . . . . . . . . . . . . . . . . . . . . . . . . . . . . . . . . . . .",
" . . . . . . . . . . . . . . . . . . . . . . . . . . . . . . . . . . . . . . . . . . . . . . . . . . . . . . . . . . . . . . . .",
" . . . . . . . . . . . . . . . . . . . . . . . . . . . . . . . . . . . . . . . . . . . . . . . . . . . . . . . . . . . . . . . .",
" . . . . . . . . . . . . . . . . . . . . . . . . . . . . . . . . . . . . . . . . . . . . . . . . . . . . . . . . . . . . . . . .",
" . . . . . . . . . . . . . . . . . . . . . . . . . . . . . . . . . . . . . . . . . . . . . . . . . . . . . . . . . . . . . . . .",
" . . . . . . . . . . . . . . . . . . . . . . . . . . . . . . . . . . . . . . . . . . . . . . . . . . . . . . . . . . . . . . . .",
" . . . . . . . . . . . . . . . . . . . . . . . . . . . . . . . . . . . . . . . . . . . . . . . . . . . . . . . . . . . . . . . .",
" . . . . . . . . . . . . . . . . . . . . . . . . . . . . . . . . . . . . . . . . . . . . . . . . . . . . . . . . . . . . . . . .",
" . . . . . . . . . . . . . . . . . . . . . . . . . . . . . . . . . . . . . . . . . . . . . . . . . . . . . . . . . . . . . . . .",
" . . . . . . . . . . . . . . . . . . . . . . . . . . . . . . . . . . . . . . . . . . . . . . . . . . . . . . . . . . . . . . . .",
" . . . . . . . . . . . . . . . . . . . . . . . . . . . . . . . . . . . . . . . . . . . . . . . . . . . . . . . . . . . . . . . .",
" . . . . . . . . . . . . . . . . . . . . . . . . . . . . . . . . . . . . . . . . . . . . . . . . . . . . . . . . . . . . . . . .",
" . . . . . . . . . . . . . . . . . . . . . . . . . . . . . . . . . . . . . . . . . . . . . . . . . . . . . . . . . . . . . . . .",
" . . . . . . . . . . . . . . . . . . . . . . . . . . . . . . . . . . . . . . . . . . . . . . . . . . . . . . . . . . . . . . . .",
" . . . . . . . . . . . . . . . . . . . . . . . . . . . . . . . . . . . . . . . . . . . . . . . . . . . . . . . . . . . . . . . .",
" . . . . . . . . . . . . . . . . . . . . . . . . . . . . . . . . . . . . . . . . . . . . . . . . . . . . . . . . . . . . . . . .",
" . . . . . . . . . . . . . . . . . . . . . . . . . . . . . . . . . . . . . . . . . . . . . . . . . . . . . . . . . . . . . . . .",
" . . . . . . . . . . . . . . . . . . . . . . . . . . . . . . . . . . . . . . . . . . . . . . . . . . . . . . . . . . . . . . . .",
" . . . . . . . . . . . . . . . . . . . . . . . . . . . . . . . . . . . . . . . . . . . . . . . . . . . . . . . . . . . . . . . .",
" . . . . . . . . . . . . . . . . . . . . . . . . . . . . . . . . . . . . . . . . . . . . . . . . . . . . . . . . . . . . . . . .",
" . . . . . . . . . . . . . . . . . . . . . . . . . . . . . . . . . . . . . . . . . . . . . . . . . . . . . . . . . . . . . . . .",
" . . . . . . . . . . . . . . . . . . . . . . . . . . . . . . . . . . . . . . . . . . . . . . . . . . . . . . . . . . . . . . . .",
" . . . . . . . . . . . . . . . . . . . . . . . . . . . . . . . . . . . . . . . . . . . . . .. . X X  . . . . . . . . . . . . . .",
" . . . . . . . . . . . . . . . . . . . . . . . . . . . . . . . . . . . . . . . . . . . . . .$ & $ $  . . . . . . . . . . . . . .",
" . . . . . . . . . . . . . . . . . . . . . . . . . . . . . . . . . . . . . . . . . . . .X $ 2 y y 2 $ . X X X . X X  . . . . . .",
" . . . . . . . . . . . . . . . . . . . . . . . . . . . . . . . . . . . . . . . . . . . .X @ 1 i d i * $ $ $ $ & $ $  . . . . . .",
" . . . . . . . . . . . . . . . . . . . . . . . . . . . . . . . . . . . . . . . . . . . .X o + ; d d a t t t t t y 1 $ .  . . . .",
" . . . . . . . . . . . . . . . . . . . . . . . . . . . . . . . . . . . . . . . . . . . .$ $ $ : d K V d x x d x x i ; $  . . . .",
" . . . . . . . . . . . . . . . . . . . . . . . . . . . . . . . ..   X   . .  . . . .. $ 2 y i s d K V V V x K K x d i 2 $ .  . .",
" . . . . . . . . . . . . . . . . . . . . . . . . . . . . . . . ., , - - , ,  . . . .@ * i x K L L L K K L K K K K K i 1 $ .  . .",
" . . . . . . . . . . . . . . . . . . . . . . . . . . . . . .  , E ( T F ( E ,   . @ 2 i d K K K L L L L P L K K P d < $  . . . .",
" . . . . . . . . . . . . . . . . . . . . . . . . . . . . . .% f ` [ _ ` [ ' f % & < i K K K K K P P L L P L L L P d < $  . . . .",
" . . . . . . . . . . . . . . . . . . . . . . . . . . . .. % f R ) ` ) _ ' _ T A k z K L L L L L K K K K K K K L P V z u & .  . .",
" . . . . . . . . . . . . . . . . . . . . . . . . . . . .= 5 T ) ( ^ R T T E ! ! L I P P I L L K K K K K K K L L L L P d & .  . .",
" . . . . . . . . . . . . . . . . . . . .o X X X X X . & j T / ) ) E l p p a C C x x L L I L L K K V V K K K P P L K L a $ .  . .",
" . . . . . . . . . . . . . . . . . . . .O + # # # # # > A Q W W W G l y 4 4 i s d V L P L L K V K K K K K L L P V V K s < &  . .",
" . . . . . . . . . . . . . . . . . .X + @ * 7 9 7 0 7 q m N N N N S G D p 2 4 i x P I L L K V K V K L L P L L K V V K V d u % . ",
" . . . . . . . . . . . . . . . . . .o + ; 6 r B J H M v v v v v q n G D p 2 2 u x I I L K K V K K L P I I P K V V L L L I d & . ",
" . . . . . . . . . . . . . . . . . .X $ 6 l l ~ | ] Z 3 8 8 8 8 6 w p p 4 2 2 u x L L K K K K K K K C L P P L K V L L L L a & X ",
" . . . . . . . . . . . . . . . . . .X $ 6 h h Y } { x : < 1 < 1 < < < < < < 1 2 i d d d d d d d d d d z x x d d d d d z z y $ X ",
" . . . . . . . . . . . . . . . . . . .+ - ; - 1 c z ; $ $ $ $ % $ $ $ $ % $ $ & * : ; : * : * ; * ; ; ; ; : ; ; ; ; : ; ; * O  .",
" . . . . . . . . . . . . . . . . . . . . . . . . . . . . . . . . . . . . . . . . . . . . . . . . . . . . . . . . . . . . . . . .",
" . . . . . . . . . . . . . . . . . . . . . . . . . . . . . . . . . . . . . . . . . . . . . . . . . . . . . . . . . . . . . . . .",
" . . . . . . . . . . . . . . . . . . . . . . . . . . . . . . . . . . . . . . . . . . . . . . . . . . . . . . . . . . . . . . . ."
};
