/* XPM */
static char *result[] = {
/* columns rows colors chars-per-pixel */
"64 64 176 2 ",
"   c #040402",
".  c #090704",
"X  c #0A0905",
"o  c #0F0B0A",
"O  c #120D0C",
"+  c #15110D",
"@  c #19130F",
"#  c #161412",
"$  c #1B1511",
"%  c #161817",
"&  c #1D1814",
"*  c #171918",
"=  c #1B1C1C",
"-  c #211B16",
";  c #251D1A",
":  c #2A1E1B",
">  c #26221A",
",  c #2A221D",
"<  c #32231F",
"1  c #2E2524",
"2  c #2C2A26",
"3  c #232729",
"4  c #242120",
"5  c #322522",
"6  c #362925",
"7  c #3B2A26",
"8  c #3C2D29",
"9  c #332B28",
"0  c #3D322B",
"q  c #393227",
"w  c #3C3232",
"e  c #31363A",
"r  c #3E3B3A",
"t  c #422E2A",
"y  c #44312D",
"u  c #4A332E",
"i  c #443532",
"p  c #4B3632",
"a  c #453B33",
"s  c #4C3A35",
"d  c #453A38",
"f  c #483C3A",
"g  c #523A35",
"h  c #553E39",
"j  c #583F3A",
"k  c #4D4436",
"l  c #474138",
"z  c #4A423A",
"x  c #504437",
"c  c #55443D",
"v  c #5B423D",
"b  c #49503F",
"n  c #343E44",
"m  c #383E41",
"M  c #423F41",
"N  c #3A454B",
"B  c #4E4940",
"V  c #41474C",
"C  c #41494F",
"Z  c #5E4641",
"A  c #524C44",
"S  c #5B4B44",
"D  c #554E48",
"F  c #555045",
"G  c #5F5049",
"H  c #5C5D4D",
"J  c #575249",
"K  c #444C52",
"L  c #4C5157",
"P  c #45545D",
"I  c #4A565F",
"U  c #51595F",
"Y  c #5C5D5F",
"T  c #624641",
"R  c #634A45",
"E  c #6A4E47",
"W  c #674D48",
"Q  c #6B4E48",
"!  c #714F4A",
"~  c #62524C",
"^  c #6A504A",
"/  c #71534D",
"(  c #695B55",
")  c #685B55",
"_  c #755952",
"`  c #785B54",
"'  c #5B624D",
"]  c #5E6650",
"[  c #636552",
"{  c #636C56",
"}  c #6E615B",
"|  c #6E6156",
" . c #77605A",
".. c #7D6158",
"X. c #667059",
"o. c #69715B",
"O. c #495760",
"+. c #4C5A63",
"@. c #505D66",
"#. c #515F68",
"$. c #5D5F61",
"%. c #55616A",
"&. c #59656E",
"*. c #62686A",
"=. c #6E7262",
"-. c #767C66",
";. c #666D70",
":. c #8F5856",
">. c #875F59",
",. c #935C59",
"<. c #88695F",
"1. c #87665D",
"2. c #8F6760",
"3. c #8B6B61",
"4. c #8F7667",
"5. c #947269",
"6. c #9C766C",
"7. c #9D796E",
"8. c #96786D",
"9. c #9E7D71",
"0. c #AE716C",
"q. c #B1746E",
"w. c #A27C71",
"e. c #9F8B7B",
"r. c #A48074",
"t. c #A98377",
"y. c #AC8679",
"u. c #A28B7B",
"i. c #AE897C",
"p. c #B28B7E",
"a. c #988E86",
"s. c #9C938B",
"d. c #BB8F83",
"f. c #B68D80",
"g. c #A59384",
"h. c #A89687",
"j. c #AA9889",
"k. c #BD9285",
"l. c #BF9589",
"z. c #A79C90",
"x. c #AF9E91",
"c. c #B2A295",
"v. c #B6A699",
"b. c #B9A99E",
"n. c #B3AAA0",
"m. c #C19689",
"M. c #C99589",
"N. c #C3998B",
"B. c #CB9E8F",
"V. c #C09486",
"C. c #C79E91",
"Z. c #CD9F90",
"A. c #CEA394",
"S. c #C6AC98",
"D. c #D3A595",
"F. c #D7A798",
"G. c #D6A899",
"H. c #DAAA9B",
"J. c #C4B19C",
"K. c #C7B4A1",
"L. c #C9B7A4",
"P. c #CEBCA9",
"I. c #D1BEAB",
"U. c #E4B4A4",
"Y. c #E7B8A7",
"T. c #E8B8A7",
"R. c #EABAA9",
"E. c #D1C0AE",
"W. c #D6C4B3",
"Q. c #D8C7B7",
"!. c #DCCBBB",
"~. c #E0CFBF",
"^. c #DECFC0",
"/. c #DFD0C0",
"(. c #E0D0C1",
"). c None",
/* pixels */
").).).).).).).).).).).).).).).).).).).).).).).).).).).).).).).).).).).).).).).).).).).).).).).).).).).).).).).).).).).).).).).).",
").).).).).).).).).).).).).).).).).).).).).).).).).).).).).).).).).).).).).).).).).).).).).).).).).).).).).).).).).).).).).).).).",
").).).).).).).).).).).).).).).).).).).).).).).).).).).).).).).).).).).).).).).).).).).).).).).).).).).).).).).).).).).).).).).).",
").).).).).).).).).).).).).).).).).).).).).).).).).).).).).).).).).).).).).).).).).).).).).).).).).).).).).).).).).).).).).).).).",
").).).).).).).).).).).).).).).).).).).).).).).).).).).).).).).).).).).).).).).).).).).).).).).).).).).).).).).).).).).).).).).).",
").).).).).).).).).).).).).).).).).).).).).).).).).).).).).).).).).).).).).).).).).).).).).).).).).).).).).).).).).).).).).).).).",
").).).).).).).).).).).).).).).).).).).).).).).).).).).).).).).).).).).).).).).).).).).).).).).).).).).).).).).).).).).).).).).).",
").).).).).).).).).).).).).).).).).).).).).).).).).).).).).).).).).).).).).).).).).).).).).).).).).).).).).).).).).).).).).).).).",
").).).).).).).).).).).).).).).).).).).).).).).).).).).).).).).).).).).).).).).).).).).).).).).).).).).).).).).).).).).).).).).).",
").).).).).).).).).).).).).).).).).).).).).).).).).).).).).).).).).).).).).).).).).).).).).).).).).).).).).).).).).).).).).).).).",
").).).).).).).).).).).).).).).).).).).).).).).).).).).).X X X X X X ).).X X ).).).).).).).).).).).).).).).).).).).).).).).).).).",
").).).).).).).).).).).).).).).).).).).).).).).).).).).).@ - @ $ $ @ ).).@ $ ).).).).).).).).).).).).).).).).).).).).).).).).).).",
").).).).).).).).).).).).).).).).).).).).. . X . X X X @ 5 7 7 7 t < + @ < < @ X ).).).).).).).).).).).).).).).).).).).).).).).).",
").).).).).).).).).).).).).).).).).).).).@ - @ @ $ $ $ : y g g g g t ; : t t $ X ).).).).).).).).).).).).).).).).).).).).).).).).",
").).).).).).).).).).).).).).).).).).X @ < t t 7 7 7 t p j Z Z T T j t t j p $ . ).).).).).).).).).).).).).).).).).).).).).).).).",
").).).).).).).).).).).).).).).).).).X @ < t p p g g j v R R W R R T h j R h 5 & ).).).).).).).).).).).).).).).).).).).).).).).).",
").).).).).).).).).).).).).).).).).).).).@ ; y j v Z T R R R R R R R Z Z R Z h t & X ).).).).).).).).).).).).).).).).).).).).).).",
").).).).).).).).).).).).).).).).).).).).$ : p v R W R R R R R R R R R R W W W s - X ).).).).).).).).).).).).).).).).).).).).).).",
").).).).).).).).).).).).).).).).).).X $ 6 p v T R R R R R R R R R R W R Z W W s - X ).).).).).).).).).).).).).).).).).).).).).).",
").).).).).).).).).).).).).).).).).).X $ y v R R R R R R R R Z v Z Z Z W Z W W s &   ).).).).).).).).).).).).).).).).).).).).).).",
").).).).).).).).).).).).).).).).).).. $ t v T R R R R R R T g p g j T R R W R s @   ).).).).).).).).).).).).).).).).).).).).).).",
").).).).).).).).).).).).).).).).).).@ : i j Z T R R R R R R Q T p p Z T Z T R g : O ).).).).).).).).).).).).).).).).).).).).).).",
").).).).).).).).).).).).).).).).X $ < t p g j Z T R R R T _ w.5.T p Z Z g g Z Z p 5 O   ).).).).).).).).).).).).).).).).).).).).",
").).).).).).).).).).).).).).).).X $ < t u p g v T R R R _ 5.M.V.1.E T T Q W R Z p 5 o   ).).).).).).).).).).).).).).).).).).).).",
").).).).).).).).).).).).).).).).).).$ ; t g M T R T T _ w.m.D.D.V.6.^ _ w.w.` p ; O ).).).).).).).).).).).).).).).).).).).).).).",
").).).).).).).).).).).).).).).).).).. @ 7 g T E R Q _ 5.m.B.y.i.Z.M.5.3.6.9.3.W : o ).).).).).).).).).).).).).).).).).).).).).).",
").).).).).).).).).).).).).).).).).).. $ t j T T T _ w.M.D.y.Z R k.H.C.5.c Z 8.7.T 5 o   ).).).).).).).).).).).).).).).).).).).).",
").).).).).).).).).).).).).).).).).).@ : i Z Z W ! 2.d.F.F.9.6 8 f.Y.U.w.6 8 w.f.W 5 o   ).).).).).).).).).).).).).).).).).).).).",
").).).).).).).).).).).).).).).).X $ < y g j Z ! ,.q.M.F.F.w.t i f.R.R.i.i y t.t.i O ).).).).).).).).).).).).).).).).).).).).).).",
").).).).).).).).).).).).).).).).X @ < t s j Z ! :.q.M.F.F.f./ _ l.R.R.l._ _ d.w.1   ).).).).).).).).).).).).).).).).).).).).).).",
").).).).).).).).).).).).).).).).).).@ : p j j j T >.d.F.D.Z.k.m.H.Y.Y.H.N.N.D.w.5   ).).).).).).).).).).).).).).).).).).).).).).",
").).).).).).).).).).).).).).).).).).X $ 6 p g g g Q 7.V.Z.H.U.T.Y.U.U.Y.Y.H.p.` ,   ).).).).).).).).).).).).).).).).).).).).).).",
").).).).).).).).).).).).).).).).).).).).$ : p j g Z E 3.k.H.U.Y.U.U.U.Y.U.p.v > ).).).).).).).).).).).).).).).).).).).).).).).).",
").).).).).).).).).).).).).).).).).).).).. $ y g p t p E 6.l.G.U.U.I.U.D.p...:   ).).).).).).).).).).).).).).).).).).).).).).).).",
").).).).).).).).).).).).).).).).).).).).).).).).& : y v E <.l.H.F.F.H.p.R 5 ).).).).).).).).).).).).).).).).).).).).).).).).).).",
").).).).).).).).).).).).).).).).).).).).).).).).O : k c g ^ i.D.D.D.D.w.0 X ).).).).).).).).).).).).).).).).).).).).).).).).).).",
").).).).).).).).).).).).).).).).).).).).).).X O - w H ' d S u.S.S.S.S.e.c ; O X ).).).).).).).).).).).).).).).).).).).).).).).).",
").).).).).).).).).).).).).).).).).).).).).).X + , f { { f G g.K.L.L.J.e.S > O X ).).).).).).).).).).).).).).).).).).).).).).).).",
").).).).).).).).).).).).).).).).).).).).).).X O , z { { B ) c.Q.Q.P.K.u.S : O X ).).).).).).).).).).).).).).).).).).).).).).).).",
").).).).).).).).).).).).).).).).).).).).).).+ $ 5 k o.o.J ` n.(.^.!.P.g.S 5 - $ ).).).).).).).).).).).).).).).).).).).).).).).).",
").).).).).).).).).).).).).).).).).).).).X @ ; 5 5 z -.-.J } n.(.^.!.Q.x.G 6 w 9 $ X ).).).).).).).).).).).).).).).).).).).).).).",
").).).).).).).).).).).).).).).).).).).).X # 1 y d F =.=.D ( c.Q.!.^./.v.W 8 d w $ X ).).).).).).).).).).).).).).).).).).).).).).",
").).).).).).).).).).).).).).).).).).).).. $ 8 B ' [ H D B ) h.P.Q.^./.v.G w s w $ X ).).).).).).).).).).).).).).).).).).).).).).",
").).).).).).).).).).).).).).).).).).).).# ; w D X.{ B d s ) j.P.W.!.^.v.G 8 i w : # ).).).).).).).).).).).).).).).).).).).).).).",
").).).).).).).).).).).).).).).).).).X $ 2 w d D { ] l 0 a  .v.W.P.P.!.v.~ 6 8 w w 2 # X ).).).).).).).).).).).).).).).).).).).).",
").).).).).).).).).).).).).).).).).).X > S ` _ | X.] a 7 w ~ s.b.z.z.n.a.S 6 6 s ~ S ; . ).).).).).).).).).).).).).).).).).).).).",
").).).).).).).).).).).).).).).).).).  9 4.A.l.u.-.' a 6 8 z %.;.*.*.*.$.d 6 6 Z 9.3.6 . ).).).).).).).).).).).).).).).).).).).).",
").).).).).).).).).).).).).).).).).).  8 4.f.t.4.[ B r w w r C P P P P K M w 1 p 3.1.8 . ).).).).).).).).).).).).).).).).).).).).",
").).).).).).).).).).).).).).).).).).).).0 y 0 6 > 2 N N N K +.%.%.@.@.@.U V 4 & 5 8 ).).).).).).).).).).).).).).).).).).).).).).",
").).).).).).).).).).).).).).).).).).).)..   . . . * N P P O.%.%.%.%.%.&.&.K = . . . ).).).).).).).).).).).).).).).).).).).).).).",
").).).).).).).).).).).).).).).).).).).).).).).).. % e P @.%.&.%.O.+.%.&.&.K 4 . ).).).).).).).).).).).).).).).).).).).).).).).).",
").).).).).).).).).).).).).).).).).).).).).).).).X % N P %.%.%.P N N I %.&.K = X ).).).).).).).).).).).).).).).).).).).).).).).).",
").).).).).).).).).).).).).).).).).).).).).).).).. * e O.%.%.+.N 3 3 N +.%.K 4 X ).).).).).).).).).).).).).).).).).).).).).).).).",
").).).).).).).).).).).).).).).).).).).).).).).).X * N P %.%.P e % % N O.%.N = X ).).).).).).).).).).).).).).).).).).).).).).).).",
").).).).).).).).).).).).).).).).).).).).).).).).X * N I %.%.O.N * * e P O.N = . ).).).).).).).).).).).).).).).).).).).).).).).).",
").).).).).).).).).).).).).).).).).).).).).).).).X * e C L L K e % % e C C e # X ).).).).).).).).).).).).).).).).).).).).).).).).",
").).).).).).).).).).).).).).).).).).).).).).).).X @ 9 w w w w 2 # @ 1 0 w 1 # . ).).).).).).).).).).).).).).).).).).).).).).).).",
").).).).).).).).).).).).).).).).).).).).).).).).X @ < q t 0 0 < @ @ > 7 8 6 ; & ).).).).).).).).).).).).).).).).).).).).).).).).",
").).).).).).).).).).).).).).).).).).).).).).).).X & y k x k k 0 # + : 7 k k l q & X ).).).).).).).).).).).).).).).).).).).).).).",
").).).).).).).).).).).).).).).).).).).).).).).).. & q k k k k q $ O ; 6 a k k q & X ).).).).).).).).).).).).).).).).).).).).).).",
").).).).).).).).).).).).).).).).).).).).).).).).X + - > , > , > + o @ & > , , > + X ).).).).).).).).).).).).).).).).).).).).).).",
").).).).).).).).).).).).).).).).).).).).).).).).).).).).).).).).).).).).).).).).).).).).).).).).).).).).).).).).).).).).).).).).",
").).).).).).).).).).).).).).).).).).).).).).).).).).).).).).).).).).).).).).).).).).).).).).).).).).).).).).).).).).).).).).).).",
").).).).).).).).).).).).).).).).).).).).).).).).).).).).).).).).).).).).).).).).).).).).).).).).).).).).).).).).).).).).).).).)."
};
