/* XPM */
static char *result[] = {
/* columns rows colors chars-per-pixel */
"64 64 179 2 ",
"   c #040402",
".  c #090704",
"X  c #0A0805",
"o  c #0F0B0A",
"O  c #120D0C",
"+  c #15110D",
"@  c #19130F",
"#  c #161412",
"$  c #1B1511",
"%  c #161817",
"&  c #1C1814",
"*  c #171919",
"=  c #1A1B1B",
"-  c #211B16",
";  c #251D1A",
":  c #2A1E1B",
">  c #26221A",
",  c #2A221D",
"<  c #32231F",
"1  c #2E2523",
"2  c #2C2A26",
"3  c #232729",
"4  c #322522",
"5  c #362925",
"6  c #3B2A25",
"7  c #352D2B",
"8  c #3C2D29",
"9  c #3D322B",
"0  c #383228",
"q  c #3C3232",
"w  c #31363A",
"e  c #3D3A3D",
"r  c #3B3B3B",
"t  c #422E2A",
"y  c #44312D",
"u  c #4A332E",
"i  c #443531",
"p  c #4B3531",
"a  c #453B33",
"s  c #4C3A35",
"d  c #463B39",
"f  c #4A3D3A",
"g  c #523A35",
"h  c #553E39",
"j  c #583F3A",
"k  c #4C4336",
"l  c #4A423A",
"z  c #504437",
"x  c #5B423D",
"c  c #51423B",
"v  c #49503F",
"b  c #343E44",
"n  c #383E41",
"m  c #384147",
"M  c #3B464C",
"N  c #3F4E57",
"B  c #3F4E58",
"V  c #4F4940",
"C  c #40474E",
"Z  c #41494E",
"A  c #5E4641",
"S  c #524C44",
"D  c #5B4A43",
"F  c #5F4F48",
"G  c #554E48",
"H  c #555045",
"J  c #5F5049",
"K  c #5B5B4C",
"L  c #575249",
"P  c #434C52",
"I  c #404E58",
"U  c #4C5157",
"Y  c #45545D",
"T  c #4A565E",
"R  c #5C5E5F",
"E  c #624641",
"W  c #634A45",
"Q  c #674D48",
"!  c #6B4E48",
"~  c #6A4E47",
"^  c #714F4A",
"/  c #62524C",
"(  c #71534D",
")  c #695B55",
"_  c #685B56",
"`  c #755953",
"'  c #765953",
"]  c #5B624D",
"[  c #5E6650",
"{  c #61614F",
"}  c #636552",
"|  c #636C56",
" . c #6E615B",
".. c #6E6156",
"X. c #77605A",
"o. c #7D6158",
"O. c #69715B",
"+. c #667059",
"@. c #495760",
"#. c #4D5A63",
"$. c #535F67",
"%. c #515F68",
"&. c #5E5F61",
"*. c #55616A",
"=. c #59656D",
"-. c #62696B",
";. c #6E7262",
":. c #767C66",
">. c #666D71",
",. c #8F5856",
"<. c #875F59",
"1. c #935C59",
"2. c #88695F",
"3. c #88655C",
"4. c #8F6760",
"5. c #8B6B62",
"6. c #8F7667",
"7. c #947369",
"8. c #9B766B",
"9. c #9D796E",
"0. c #96786D",
"q. c #9E7E71",
"w. c #AE716C",
"e. c #B1746E",
"r. c #A27D72",
"t. c #9E8778",
"y. c #9F8B7B",
"u. c #A98377",
"i. c #AC8679",
"p. c #A28B7B",
"a. c #AE8A7D",
"s. c #B28B7E",
"d. c #998E87",
"f. c #9D938B",
"g. c #B48D80",
"h. c #BB8F83",
"j. c #A59384",
"k. c #A89687",
"l. c #AA9889",
"z. c #BD9285",
"x. c #BF9589",
"c. c #A79C90",
"v. c #AF9E91",
"b. c #B2A295",
"n. c #B6A699",
"m. c #B9A99E",
"M. c #B4AAA0",
"N. c #C19789",
"B. c #C99589",
"V. c #C3998B",
"C. c #CB9E8F",
"Z. c #C09486",
"A. c #C79E91",
"S. c #CE9F91",
"D. c #C7AC99",
"F. c #CDA092",
"G. c #D2A596",
"H. c #D1A897",
"J. c #D7A798",
"K. c #D6A899",
"L. c #DAAA9B",
"P. c #C4B19C",
"I. c #C7B4A1",
"U. c #C9B7A4",
"Y. c #CEBCA9",
"T. c #D1BEAB",
"R. c #E4B4A4",
"E. c #E7B8A7",
"W. c #E8B8A7",
"Q. c #EBBBAB",
"!. c #D1C0AE",
"~. c #D6C4B3",
"^. c #D8C7B7",
"/. c #DCCBBB",
"(. c #E0CFBF",
"). c #DECFC0",
"_. c #DFD0C0",
"`. c #E0D0C1",
"'. c None",
/* pixels */
"'.'.'.'.'.'.'.'.'.'.'.'.'.'.'.'.'.'.'.'.'.'.'.'.'.'.'.'.'.'.'.'.'.'.'.'.'.'.'.'.'.'.'.'.'.'.'.'.'.'.'.'.'.'.'.'.'.'.'.'.'.'.'.'.",
"'.'.'.'.'.'.'.'.'.'.'.'.'.'.'.'.'.'.'.'.'.'.'.'.'.'.'.'.'.'.'.'.'.'.'.'.'.'.'.'.'.'.'.'.'.'.'.'.'.'.'.'.'.'.'.'.'.'.'.'.'.'.'.'.",
"'.'.'.'.'.'.'.'.'.'.'.'.'.'.'.'.'.'.'.'.'.'.'.'.'.'.'.'.'.'.'.'.'.'.'.'.'.'.'.'.'.'.'.'.'.'.'.'.'.'.'.'.'.'.'.'.'.'.'.'.'.'.'.'.",
"'.'.'.'.'.'.'.'.'.'.'.'.'.'.'.'.'.'.'.'.'.'.'.'.'.'.'.'.'.'.'.'.'.'.'.'.'.'.'.'.'.'.'.'.'.'.'.'.'.'.'.'.'.'.'.'.'.'.'.'.'.'.'.'.",
"'.'.'.'.'.'.'.'.'.'.'.'.'.'.'.'.'.'.'.'.'.'.'.'.'.'.'.'.'.'.'.'.'.'.'.'.'.'.'.'.'.'.'.'.'.'.'.'.'.'.'.'.'.'.'.'.'.'.'.'.'.'.'.'.",
"'.'.'.'.'.'.'.'.'.'.'.'.'.'.'.'.'.'.'.'.'.'.'.'.'.'.'.'.'.'.'.'.'.'.'.'.'.'.'.'.'.'.'.'.'.'.'.'.'.'.'.'.'.'.'.'.'.'.'.'.'.'.'.'.",
"'.'.'.'.'.'.'.'.'.'.'.'.'.'.'.'.'.'.'.'.'.'.'.'.'.'.'.'.'.'.'.'.'.'.'.'.'.'.'.'.'.'.'.'.'.'.'.'.'.'.'.'.'.'.'.'.'.'.'.'.'.'.'.'.",
"'.'.'.'.'.'.'.'.'.'.'.'.'.'.'.'.'.'.'.'.'.'.'.'.'.'.'.'.'.'.'.'.'.'.'.'.'.'.'.'.'.'.'.'.'.'.'.'.'.'.'.'.'.'.'.'.'.'.'.'.'.'.'.'.",
"'.'.'.'.'.'.'.'.'.'.'.'.'.'.'.'.'.'.'.'.'.'.'.'.'.'.'.'.X X X X X X '.'.. X '.'.'.'.'.'.'.'.'.'.'.'.'.'.'.'.'.'.'.'.'.'.'.'.'.'.",
"'.'.'.'.'.'.'.'.'.'.'.'.'.'.'.'.'.'.'.'.'.'.'.'.'.'.'.'.$ $ $ $ $ @ '.'.@ $ '.'.'.'.'.'.'.'.'.'.'.'.'.'.'.'.'.'.'.'.'.'.'.'.'.'.",
"'.'.'.'.'.'.'.'.'.'.'.'.'.'.'.'.'.'.'.'.X X X X X X . @ < 6 6 6 6 < @ @ 4 < $ X '.'.'.'.'.'.'.'.'.'.'.'.'.'.'.'.'.'.'.'.'.'.'.'.",
"'.'.'.'.'.'.'.'.'.'.'.'.'.'.'.'.'.'.'.'.$ $ $ $ @ $ $ : u g g g g t ; : y t $ . '.'.'.'.'.'.'.'.'.'.'.'.'.'.'.'.'.'.'.'.'.'.'.'.",
"'.'.'.'.'.'.'.'.'.'.'.'.'.'.'.'.'.'.X $ < t 6 t 6 6 t u j E A W E h t y j p & . '.'.'.'.'.'.'.'.'.'.'.'.'.'.'.'.'.'.'.'.'.'.'.'.",
"'.'.'.'.'.'.'.'.'.'.'.'.'.'.'.'.'.'.X $ < t u p g h x x W W W W W E h x E h 4 & '.'.'.'.'.'.'.'.'.'.'.'.'.'.'.'.'.'.'.'.'.'.'.'.",
"'.'.'.'.'.'.'.'.'.'.'.'.'.'.'.'.'.'.'.'.+ : y h x A E W W W W W W E A E E A c y - . '.'.'.'.'.'.'.'.'.'.'.'.'.'.'.'.'.'.'.'.'.'.",
"'.'.'.'.'.'.'.'.'.'.'.'.'.'.'.'.'.'.'.'.@ : p A W W W W W W W W W W W W W Q ~ s - . '.'.'.'.'.'.'.'.'.'.'.'.'.'.'.'.'.'.'.'.'.'.",
"'.'.'.'.'.'.'.'.'.'.'.'.'.'.'.'.'.'.X $ 5 p x W W W W W W W W W W W W W W Q Q s - X '.'.'.'.'.'.'.'.'.'.'.'.'.'.'.'.'.'.'.'.'.'.",
"'.'.'.'.'.'.'.'.'.'.'.'.'.'.'.'.'.'.X $ y x W W W W W W W A A A x A W W W W W s &   '.'.'.'.'.'.'.'.'.'.'.'.'.'.'.'.'.'.'.'.'.'.",
"'.'.'.'.'.'.'.'.'.'.'.'.'.'.'.'.'.'.. $ t x E W W W W W W A h p g h A Q W Q W s $   '.'.'.'.'.'.'.'.'.'.'.'.'.'.'.'.'.'.'.'.'.'.",
"'.'.'.'.'.'.'.'.'.'.'.'.'.'.'.'.'.'.@ : y h A W W W W W W W ~ E g p A W A E W g ; O '.'.'.'.'.'.'.'.'.'.'.'.'.'.'.'.'.'.'.'.'.'.",
"'.'.'.'.'.'.'.'.'.'.'.'.'.'.'.'.X @ < t p g j x A W W W E ' r.7.E p j E h g A A p 4 O   '.'.'.'.'.'.'.'.'.'.'.'.'.'.'.'.'.'.'.'.",
"'.'.'.'.'.'.'.'.'.'.'.'.'.'.'.'.X @ < t u p h x W W W Q ' 7.B.Z.<.~ W W ! ! W x p 4 o   '.'.'.'.'.'.'.'.'.'.'.'.'.'.'.'.'.'.'.'.",
"'.'.'.'.'.'.'.'.'.'.'.'.'.'.'.'.'.'.$ ; 6 g x E W A A ' r.Z.G.G.z.8.( ' r.r.' s ; O '.'.'.'.'.'.'.'.'.'.'.'.'.'.'.'.'.'.'.'.'.'.",
"'.'.'.'.'.'.'.'.'.'.'.'.'.'.'.'.'.'.. $ 6 h E W W Q ' 7.Z.C.i.a.F.V.7.4.9.9.5.W , o '.'.'.'.'.'.'.'.'.'.'.'.'.'.'.'.'.'.'.'.'.'.",
"'.'.'.'.'.'.'.'.'.'.'.'.'.'.'.'.'.'.. $ 8 j E W E ` r.N.G.i.A W z.Y.G.r.A A 0.q.A 4 O   '.'.'.'.'.'.'.'.'.'.'.'.'.'.'.'.'.'.'.'.",
"'.'.'.'.'.'.'.'.'.'.'.'.'.'.'.'.'.'.@ : i x E Q ^ 4.Z.J.J.q.5 8 s.Q.Q.a.8 8 r.g.~ 4 o   '.'.'.'.'.'.'.'.'.'.'.'.'.'.'.'.'.'.'.'.",
"'.'.'.'.'.'.'.'.'.'.'.'.'.'.'.'.X $ < y g j A ^ 1.e.B.J.J.r.t i s.Q.Q.g.i y u.u.i o '.'.'.'.'.'.'.'.'.'.'.'.'.'.'.'.'.'.'.'.'.'.",
"'.'.'.'.'.'.'.'.'.'.'.'.'.'.'.'.X @ < t g j A ^ ,.w.B.J.J.g.( ` B.W.Q.N.' ' h.r.4   '.'.'.'.'.'.'.'.'.'.'.'.'.'.'.'.'.'.'.'.'.'.",
"'.'.'.'.'.'.'.'.'.'.'.'.'.'.'.'.'.'.@ : u j j j E <.h.J.J.A.x.N.L.E.E.L.V.Z.J.r.4   '.'.'.'.'.'.'.'.'.'.'.'.'.'.'.'.'.'.'.'.'.'.",
"'.'.'.'.'.'.'.'.'.'.'.'.'.'.'.'.'.'.X $ 5 p g h g ! 9.z.S.L.R.W.E.E.R.R.W.K.s.o.,   '.'.'.'.'.'.'.'.'.'.'.'.'.'.'.'.'.'.'.'.'.'.",
"'.'.'.'.'.'.'.'.'.'.'.'.'.'.'.'.'.'.'.'.$ : p h h x Q 4.Z.L.R.R.R.R.R.R.R.s.A > '.'.'.'.'.'.'.'.'.'.'.'.'.'.'.'.'.'.'.'.'.'.'.'.",
"'.'.'.'.'.'.'.'.'.'.'.'.'.'.'.'.'.'.'.'.. $ 5 p g h g E 4.g.J.R.R.T.R.G.s.o.;   '.'.'.'.'.'.'.'.'.'.'.'.'.'.'.'.'.'.'.'.'.'.'.'.",
"'.'.'.'.'.'.'.'.'.'.'.'.'.'.'.'.'.'.'.'.'.'.$ : p h g p 8 E s.L.J.J.K.s.E 4 '.'.'.'.'.'.'.'.'.'.'.'.'.'.'.'.'.'.'.'.'.'.'.'.'.'.",
"'.'.'.'.'.'.'.'.'.'.'.'.'.'.'.'.'.'.'.'.'.'.. $ 8 h D a - 9 r.G.G.G.H.r.y X '.'.'.'.'.'.'.'.'.'.'.'.'.'.'.'.'.'.'.'.'.'.'.'.'.'.",
"'.'.'.'.'.'.'.'.'.'.'.'.'.'.'.'.'.'.'.'.'.'.. $ 4 f [ K 0 l p.D.H.D.D.p.c - + X '.'.'.'.'.'.'.'.'.'.'.'.'.'.'.'.'.'.'.'.'.'.'.'.",
"'.'.'.'.'.'.'.'.'.'.'.'.'.'.'.'.'.'.'.'.'.'.X + , l +.[ l Q j.U.I.I.D.d.A , + X '.'.'.'.'.'.'.'.'.'.'.'.'.'.'.'.'.'.'.'.'.'.'.'.",
"'.'.'.'.'.'.'.'.'.'.'.'.'.'.'.'.'.'.'.'.'.'.X O : a | | S ) b.^.~.~.U.y.D , + X '.'.'.'.'.'.'.'.'.'.'.'.'.'.'.'.'.'.'.'.'.'.'.'.",
"'.'.'.'.'.'.'.'.'.'.'.'.'.'.'.'.'.'.'.'.'.'.+ & 4 l O.O.G  .M.`.).^.Y.j.D 1 - $ '.'.'.'.'.'.'.'.'.'.'.'.'.'.'.'.'.'.'.'.'.'.'.'.",
"'.'.'.'.'.'.'.'.'.'.'.'.'.'.'.'.'.'.'.'.o + ; 1 5 l :.:.L  .M.).)./.^.v.J 5 9 7 $ X '.'.'.'.'.'.'.'.'.'.'.'.'.'.'.'.'.'.'.'.'.'.",
"'.'.'.'.'.'.'.'.'.'.'.'.'.'.'.'.'.'.'.'.. + 4 i a H ;.;.G ) b.^./.)._.n./ 8 d q & X '.'.'.'.'.'.'.'.'.'.'.'.'.'.'.'.'.'.'.'.'.'.",
"'.'.'.'.'.'.'.'.'.'.'.'.'.'.'.'.'.'.'.'.X $ 7 S ] } K G l ) k.Y.^._._.n.F 7 f q $ X '.'.'.'.'.'.'.'.'.'.'.'.'.'.'.'.'.'.'.'.'.'.",
"'.'.'.'.'.'.'.'.'.'.'.'.'.'.'.'.'.'.'.'.# ; q S +.+.S a f ) l.Y.~.^./.n./ 8 i q ; # '.'.'.'.'.'.'.'.'.'.'.'.'.'.'.'.'.'.'.'.'.'.",
"'.'.'.'.'.'.'.'.'.'.'.'.'.'.'.'.'.'.X $ 2 q a S | ] l 8 d  .n.~.Y.T./.m./ 5 8 9 q 1 % X '.'.'.'.'.'.'.'.'.'.'.'.'.'.'.'.'.'.'.'.",
"'.'.'.'.'.'.'.'.'.'.'.'.'.'.'.'.'.'.. ; D X.` ..+.] d 8 i / f.M.c.c.M.d.D 5 5 s / D ; . '.'.'.'.'.'.'.'.'.'.'.'.'.'.'.'.'.'.'.'.",
"'.'.'.'.'.'.'.'.'.'.'.'.'.'.'.'.'.'.  8 q.A.x.p.:.[ k 5 6 l *.-.-.-.>.R d 5 5 x r.5.5 . '.'.'.'.'.'.'.'.'.'.'.'.'.'.'.'.'.'.'.'.",
"'.'.'.'.'.'.'.'.'.'.'.'.'.'.'.'.'.'.  9 6.g.r.6.[ V r 0 q d C N B B B M e 7 < s 5.5.8   '.'.'.'.'.'.'.'.'.'.'.'.'.'.'.'.'.'.'.'.",
"'.'.'.'.'.'.'.'.'.'.'.'.'.'.'.'.'.'.'.'.9 y y 7 , 2 n M M P N N B B N N P w 3 - 4 9 '.'.'.'.'.'.'.'.'.'.'.'.'.'.'.'.'.'.'.'.'.'.",
"'.'.'.'.'.'.'.'.'.'.'.'.'.'.'.'.'.'.'.'.          * m B Y Y Y Y T T T Y Y b % .     '.'.'.'.'.'.'.'.'.'.'.'.'.'.'.'.'.'.'.'.'.'.",
"'.'.'.'.'.'.'.'.'.'.'.'.'.'.'.'.'.'.'.'.'.'.'.'.. * m Y Y Y #.*.$.*.*.#.@.b * X '.'.'.'.'.'.'.'.'.'.'.'.'.'.'.'.'.'.'.'.'.'.'.'.",
"'.'.'.'.'.'.'.'.'.'.'.'.'.'.'.'.'.'.'.'.'.'.'.'.X = b Y T @.*.*.*.*.*.*.#.m = X '.'.'.'.'.'.'.'.'.'.'.'.'.'.'.'.'.'.'.'.'.'.'.'.",
"'.'.'.'.'.'.'.'.'.'.'.'.'.'.'.'.'.'.'.'.'.'.'.'.X * b Y #.*.*.*.@.#.*.=.*.M = X '.'.'.'.'.'.'.'.'.'.'.'.'.'.'.'.'.'.'.'.'.'.'.'.",
"'.'.'.'.'.'.'.'.'.'.'.'.'.'.'.'.'.'.'.'.'.'.'.'.. % b T *.*.*.T M M #.*.=.P > X '.'.'.'.'.'.'.'.'.'.'.'.'.'.'.'.'.'.'.'.'.'.'.'.",
"'.'.'.'.'.'.'.'.'.'.'.'.'.'.'.'.'.'.'.'.'.'.'.'.. = m Y *.*.#.M 3 3 M #.*.P = X '.'.'.'.'.'.'.'.'.'.'.'.'.'.'.'.'.'.'.'.'.'.'.'.",
"'.'.'.'.'.'.'.'.'.'.'.'.'.'.'.'.'.'.'.'.'.'.'.'.. = m @.*.*.Y b % % b T *.Z = o '.'.'.'.'.'.'.'.'.'.'.'.'.'.'.'.'.'.'.'.'.'.'.'.",
"'.'.'.'.'.'.'.'.'.'.'.'.'.'.'.'.'.'.'.'.'.'.'.'.. = m @.%.*.@.b * & b T @.m = X '.'.'.'.'.'.'.'.'.'.'.'.'.'.'.'.'.'.'.'.'.'.'.'.",
"'.'.'.'.'.'.'.'.'.'.'.'.'.'.'.'.'.'.'.'.'.'.'.'.. & w M U U P w % % w M C w % X '.'.'.'.'.'.'.'.'.'.'.'.'.'.'.'.'.'.'.'.'.'.'.'.",
"'.'.'.'.'.'.'.'.'.'.'.'.'.'.'.'.'.'.'.'.'.'.'.'.X # 2 9 q q q 2 # # 4 q q 1 #   '.'.'.'.'.'.'.'.'.'.'.'.'.'.'.'.'.'.'.'.'.'.'.'.",
"'.'.'.'.'.'.'.'.'.'.'.'.'.'.'.'.'.'.'.'.'.'.'.'.X # < 9 t 0 9 < + O , 5 6 5 > & '.'.'.'.'.'.'.'.'.'.'.'.'.'.'.'.'.'.'.'.'.'.'.'.",
"'.'.'.'.'.'.'.'.'.'.'.'.'.'.'.'.'.'.'.'.'.'.'.'.X & y z z k z 9 & + : 6 k k k 0 & X '.'.'.'.'.'.'.'.'.'.'.'.'.'.'.'.'.'.'.'.'.'.",
"'.'.'.'.'.'.'.'.'.'.'.'.'.'.'.'.'.'.'.'.'.'.'.'.X & 0 z k k z 0 $ O ; 5 a z z 0 $ X '.'.'.'.'.'.'.'.'.'.'.'.'.'.'.'.'.'.'.'.'.'.",
"'.'.'.'.'.'.'.'.'.'.'.'.'.'.'.'.'.'.'.'.'.'.'.'.X + > > , > , > O O @ & > > > > + X '.'.'.'.'.'.'.'.'.'.'.'.'.'.'.'.'.'.'.'.'.'.",
"'.'.'.'.'.'.'.'.'.'.'.'.'.'.'.'.'.'.'.'.'.'.'.'.'.'.'.'.'.'.'.'.'.'.'.'.'.'.'.'.'.'.'.'.'.'.'.'.'.'.'.'.'.'.'.'.'.'.'.'.'.'.'.'.",
"'.'.'.'.'.'.'.'.'.'.'.'.'.'.'.'.'.'.'.'.'.'.'.'.'.'.'.'.'.'.'.'.'.'.'.'.'.'.'.'.'.'.'.'.'.'.'.'.'.'.'.'.'.'.'.'.'.'.'.'.'.'.'.'.",
"'.'.'.'.'.'.'.'.'.'.'.'.'.'.'.'.'.'.'.'.'.'.'.'.'.'.'.'.'.'.'.'.'.'.'.'.'.'.'.'.'.'.'.'.'.'.'.'.'.'.'.'.'.'.'.'.'.'.'.'.'.'.'.'."
};
