/* XPM */
static char *result[] = {
/* columns rows colors chars-per-pixel */
"64 64 104 2 ",
"   c #060603",
".  c #090704",
"X  c #0A0805",
"o  c #120E0B",
"O  c #15110E",
"+  c #19130F",
"@  c #161514",
"#  c #1B1512",
"$  c #1D1914",
"%  c #191B1A",
"&  c #211B16",
"*  c #261D1A",
"=  c #2A1E1B",
"-  c #26211B",
";  c #2D211E",
":  c #31231F",
">  c #2D2625",
",  c #2E2A25",
"<  c #252A2B",
"1  c #332622",
"2  c #372A26",
"3  c #3A2925",
"4  c #3A2E2B",
"5  c #32372A",
"6  c #3D332B",
"7  c #2B3337",
"8  c #3D3332",
"9  c #32363A",
"0  c #402C27",
"q  c #422E2A",
"w  c #44312D",
"e  c #49332E",
"r  c #42382E",
"t  c #453531",
"y  c #493531",
"u  c #453C34",
"i  c #4C3C35",
"p  c #473C39",
"a  c #523B36",
"s  c #563E39",
"d  c #583F3B",
"f  c #45423E",
"g  c #4D4A3D",
"h  c #57473F",
"j  c #5A413D",
"k  c #4B513F",
"l  c #343E44",
"z  c #354046",
"x  c #38444B",
"c  c #3D484E",
"v  c #3F4D55",
"b  c #4F4941",
"n  c #41484F",
"m  c #554540",
"M  c #5E4641",
"N  c #514D41",
"B  c #5B4B43",
"V  c #535B47",
"C  c #565C4A",
"Z  c #5B5D4B",
"A  c #434C51",
"S  c #475157",
"D  c #45535D",
"F  c #49565D",
"G  c #4F5D5D",
"H  c #604742",
"J  c #634A45",
"K  c #664D48",
"L  c #755F59",
"P  c #5C614D",
"I  c #5C6352",
"U  c #60604E",
"Y  c #606752",
"T  c #636C55",
"R  c #696F58",
"E  c #7B625A",
"W  c #677159",
"Q  c #687259",
"!  c #6B7B5D",
"~  c #495760",
"^  c #4F5C64",
"/  c #515E66",
"(  c #535F68",
")  c #546263",
"_  c #536068",
"`  c #58646C",
"'  c #6E7D61",
"]  c #8C6D63",
"[  c #907368",
"{  c #96786D",
"}  c #718164",
"|  c #768569",
" . c #788675",
".. c #7F8E73",
"X. c #7E8C7B",
"o. c #808F73",
"O. c #839177",
"+. c #859478",
"@. c #89977D",
"#. c #AC8679",
"$. c #B38D80",
"%. c #C1988B",
"&. c #C9A092",
"*. c None",
/* pixels */
"*.*.*.*.*.*.*.*.*.*.*.*.*.*.*.*.*.*.*.*.*.*.*.*.*.*.*.*.*.*.*.*.*.*.*.*.*.*.*.*.*.*.*.*.*.*.*.*.*.*.*.*.*.*.*.*.*.*.*.*.*.*.*.*.",
"*.*.*.*.*.*.*.*.*.*.*.*.*.*.*.*.*.*.*.*.*.*.*.*.*.*.*.*.*.*.*.*.*.*.*.*.*.*.*.*.*.*.*.*.*.*.*.*.*.*.*.*.*.*.*.*.*.*.*.*.*.*.*.*.",
"*.*.*.*.*.*.*.*.*.*.*.*.*.*.*.*.*.*.*.*.*.*.*.*.*.*.*.*.*.*.*.*.*.*.*.*.*.*.*.*.*.*.*.*.*.*.*.*.*.*.*.*.*.*.*.*.*.*.*.*.*.*.*.*.",
"*.*.*.*.*.*.*.*.*.*.*.*.*.*.*.*.*.*.*.*.*.*.*.*.*.*.*.*.*.*.*.*.*.*.*.*.*.*.*.*.*.*.*.*.*.*.*.*.*.*.*.*.*.*.*.*.*.*.*.*.*.*.*.*.",
"*.*.*.*.*.*.*.*.*.*.*.*.*.*.*.*.*.*.*.*.*.*.*.*.*.*.*.*.*.*.*.*.*.*.*.*.*.*.*.*.*.*.*.*.*.*.*.*.*.*.*.*.*.*.*.*.*.*.*.*.*.*.*.*.",
"*.*.*.*.*.*.*.*.*.*.*.*.*.*.*.*.*.*.*.*.*.*.*.*.*.*.*.*.*.*.*.*.*.*.*.*.*.*.*.*.*.*.*.*.*.*.*.*.*.*.*.*.*.*.*.*.*.*.*.*.*.*.*.*.",
"*.*.*.*.*.*.*.*.*.*.*.*.*.*.*.*.*.*.*.*.*.*.*.*.*.*.*.*.*.*.*.*.*.*.*.*.*.*.*.*.*.*.*.*.*.*.*.*.*.*.*.*.*.*.*.*.*.*.*.*.*.*.*.*.",
"*.*.*.*.*.*.*.*.*.*.*.*.*.*.*.*.*.*.*.*.*.*.*.*.*.*.*.*.*.*.*.*.*.*.*.*.*.*.*.*.*.*.*.*.*.*.*.*.*.*.*.*.*.*.*.*.*.*.*.*.*.*.*.*.",
"*.*.*.*.*.*.*.*.*.*.*.*.*.*.*.*.*.*.*.*.*.*.*.*.*.*.*.*.X X *.*.*.*.X X . . *.*.*.*.*.*.*.*.*.*.*.*.*.*.*.*.*.*.*.*.*.*.*.*.*.*.",
"*.*.*.*.*.*.*.*.*.*.*.*.*.*.*.*.*.*.*.*.*.*.*.*.*.*.*.*.# + *.*.*.*.# # + + *.*.*.*.*.*.*.*.*.*.*.*.*.*.*.*.*.*.*.*.*.*.*.*.*.*.",
"*.*.*.*.*.*.*.*.*.*.*.*.*.*.*.*.*.*.*.*.*.*.*.*.*.*.. + : : + . . + : 3 0 : + . X X X X *.*.*.*.*.*.*.*.*.*.*.*.*.*.*.*.*.*.*.*.",
"*.*.*.*.*.*.*.*.*.*.*.*.*.*.*.*.*.*.*.*.*.*.*.*.*.*.+ * e e = + + * w s s q = + + # # # *.*.*.*.*.*.*.*.*.*.*.*.*.*.*.*.*.*.*.*.",
"*.*.*.*.*.*.*.*.*.*.*.*.*.*.*.*.*.*.*.*.*.*.*.*.  O : w d d q 3 3 q d M M d q 0 3 0 0 : + X *.*.*.*.*.*.*.*.*.*.*.*.*.*.*.*.*.*.",
"*.*.*.*.*.*.*.*.*.*.*.*.*.*.*.*.*.*.*.*.*.*.*.*.$ ; w d H H d a a d J J J M s a d y q : + X *.*.*.*.*.*.*.*.*.*.*.*.*.*.*.*.*.*.",
"*.*.*.*.*.*.*.*.*.*.*.*.*.*.*.*.*.*.*.*.*.*.  # w a j H J J H H M M J J J J M H M i = + *.*.*.*.*.*.*.*.*.*.*.*.*.*.*.*.*.*.*.*.",
"*.*.*.*.*.*.*.*.*.*.*.*.*.*.*.*.*.*.*.*.*.*.# - a K K J J J J J J J J J J J M M M a : + *.*.*.*.*.*.*.*.*.*.*.*.*.*.*.*.*.*.*.*.",
"*.*.*.*.*.*.*.*.*.*.*.*.*.*.*.*.*.*.*.*.. + : w j J J J J J J J J J J J J H d a a i a q & X *.*.*.*.*.*.*.*.*.*.*.*.*.*.*.*.*.*.",
"*.*.*.*.*.*.*.*.*.*.*.*.*.*.*.*.*.*.*.*.+ * 0 a H J J J J J J J J J J H H j a y i d J i & . *.*.*.*.*.*.*.*.*.*.*.*.*.*.*.*.*.*.",
"*.*.*.*.*.*.*.*.*.*.*.*.*.*.*.*.*.*.X # : q e a M J J J J J J J J J J M a a d M j H J a &   *.*.*.*.*.*.*.*.*.*.*.*.*.*.*.*.*.*.",
"*.*.*.*.*.*.*.*.*.*.*.*.*.*.*.*.*.*.X # : w e s H J J J J J J J J J J M d d M J J K J s = + *.*.*.*.*.*.*.*.*.*.*.*.*.*.*.*.*.*.",
"*.*.*.*.*.*.*.*.*.*.*.*.*.*.*.*.*.*.*.*.+ = a M J J J J J J J J J J J J M M J J J J J j y 1 + . *.*.*.*.*.*.*.*.*.*.*.*.*.*.*.*.",
"*.*.*.*.*.*.*.*.*.*.*.*.*.*.*.*.*.*.*.*.. & e J J J J J H H H J H M J J J J J J J J H d q : + X *.*.*.*.*.*.*.*.*.*.*.*.*.*.*.*.",
"*.*.*.*.*.*.*.*.*.*.*.*.*.*.*.*.*.*.*.*.. # e M J J J M s s H H d a M J K J J J J H d q = # *.*.*.*.*.*.*.*.*.*.*.*.*.*.*.*.*.*.",
"*.*.*.*.*.*.*.*.*.*.*.*.*.*.*.*.*.*.*.*.# - e j H J J M s a d d a d M J J J J J J H s 3 # X *.*.*.*.*.*.*.*.*.*.*.*.*.*.*.*.*.*.",
"*.*.*.*.*.*.*.*.*.*.*.*.*.*.*.*.*.*.X # 3 y a d H J J J H j s a d M J J J J J J J H d q #   *.*.*.*.*.*.*.*.*.*.*.*.*.*.*.*.*.*.",
"*.*.*.*.*.*.*.*.*.*.*.*.*.*.*.*.*.*.X # 3 y a d M H J J J H s s H J J J J J J J J H j y = # *.*.*.*.*.*.*.*.*.*.*.*.*.*.*.*.*.*.",
"*.*.*.*.*.*.*.*.*.*.*.*.*.*.*.*.*.*.*.*.# > t s d m H J J J M H J J J J J J J J J H d a y 2 # X *.*.*.*.*.*.*.*.*.*.*.*.*.*.*.*.",
"*.*.*.*.*.*.*.*.*.*.*.*.*.*.*.*.*.*.*.*.. # q d d d M J H J J J J J J J J J J J J M d a y 2 # X *.*.*.*.*.*.*.*.*.*.*.*.*.*.*.*.",
"*.*.*.*.*.*.*.*.*.*.*.*.*.*.*.*.*.*.*.*.X # w d s s d m H J J J J J J J J J J J j j d t ; # *.*.*.*.*.*.*.*.*.*.*.*.*.*.*.*.*.*.",
"*.*.*.*.*.*.*.*.*.*.*.*.*.*.*.*.*.*.*.*.X # 2 y a s s d H J J J J J J J M M M M d a y 2 # X *.*.*.*.*.*.*.*.*.*.*.*.*.*.*.*.*.*.",
"*.*.*.*.*.*.*.*.*.*.*.*.*.*.*.*.*.*.*.*.*.*.# = y s s d H J J J J J J J j d j d s y = # *.*.*.*.*.*.*.*.*.*.*.*.*.*.*.*.*.*.*.*.",
"*.*.*.*.*.*.*.*.*.*.*.*.*.*.*.*.*.*.*.*.*.*.. # 2 y a s H H H H M M M M d d a a y 2 #   *.*.*.*.*.*.*.*.*.*.*.*.*.*.*.*.*.*.*.*.",
"*.*.*.*.*.*.*.*.*.*.*.*.*.*.*.*.*.*.*.*.*.*.*.*.@ = e s j j d j d d j d d s s e - # *.*.*.*.*.*.*.*.*.*.*.*.*.*.*.*.*.*.*.*.*.*.",
"*.*.*.*.*.*.*.*.*.*.*.*.*.*.*.*.*.*.*.*.*.*.*.*.o - i B a a h B B B B h a a B i * o *.*.*.*.*.*.*.*.*.*.*.*.*.*.*.*.*.*.*.*.*.*.",
"*.*.*.*.*.*.*.*.*.*.*.*.*.*.*.*.*.*.*.*.*.*.X O * 6 P P u i Z Q R R R Z u i P Z 8 * # X *.*.*.*.*.*.*.*.*.*.*.*.*.*.*.*.*.*.*.*.",
"*.*.*.*.*.*.*.*.*.*.*.*.*.*.*.*.*.*.*.*.*.*.. O > u Z P g b T } ' } } T g g P Z u 1 o X *.*.*.*.*.*.*.*.*.*.*.*.*.*.*.*.*.*.*.*.",
"*.*.*.*.*.*.*.*.*.*.*.*.*.*.*.*.*.*.*.*.*.*.X # : 6 u g Z T ! ' ' ' ' ! W Z g u 4 1 o . *.*.*.*.*.*.*.*.*.*.*.*.*.*.*.*.*.*.*.*.",
"*.*.*.*.*.*.*.*.*.*.*.*.*.*.*.*.*.*.*.*.*.*.O # 1 3 3 u T ' } ! ' ' ' ' } T u 3 2 1 & o *.*.*.*.*.*.*.*.*.*.*.*.*.*.*.*.*.*.*.*.",
"*.*.*.*.*.*.*.*.*.*.*.*.*.*.*.*.*.*.*.*.. # * 1 2 3 2 u T } } ! ! ' ' ' ' T u 3 2 2 1 * O X *.*.*.*.*.*.*.*.*.*.*.*.*.*.*.*.*.*.",
"*.*.*.*.*.*.*.*.*.*.*.*.*.*.*.*.*.*.*.*.  # 1 t p u 4 u T } } | | | | | } T u 4 u p t 1 O X *.*.*.*.*.*.*.*.*.*.*.*.*.*.*.*.*.*.",
"*.*.*.*.*.*.*.*.*.*.*.*.*.*.*.*.*.*.*.*.. # 4 b P C u u I | +.@.@.@.@.+.| I f r C U g 6 @ . *.*.*.*.*.*.*.*.*.*.*.*.*.*.*.*.*.*.",
"*.*.*.*.*.*.*.*.*.*.*.*.*.*.*.*.*.*.*.*.@ * 8 b P C g g T | ..+.+.+.+.o.| I k g V C N 8 * @ *.*.*.*.*.*.*.*.*.*.*.*.*.*.*.*.*.*.",
"*.*.*.*.*.*.*.*.*.*.*.*.*.*.*.*.*.*.X # > 8 p u , 5 V Q ! ! ! ! ! ! ! ! ! ! W V 5 , t p 8 , # X *.*.*.*.*.*.*.*.*.*.*.*.*.*.*.*.",
"*.*.*.*.*.*.*.*.*.*.*.*.*.*.*.*.*.*.. * B E L m $ $ g Q ! } ! ! ! ! ! ! } ' W N % # b E E B * X *.*.*.*.*.*.*.*.*.*.*.*.*.*.*.*.",
"*.*.*.*.*.*.*.*.*.*.*.*.*.*.*.*.*.*.  2 { &.$.[ 1 O 5 N T | ..+.+.+.+.O.} W b , O 1 ] %.&.{ 2 . *.*.*.*.*.*.*.*.*.*.*.*.*.*.*.*.",
"*.*.*.*.*.*.*.*.*.*.*.*.*.*.*.*.*.*.  6 [ $.#.] ; @ > f I '  .X.X.X.X. .' I b > O 1 E #.#.[ 4   *.*.*.*.*.*.*.*.*.*.*.*.*.*.*.*.",
"*.*.*.*.*.*.*.*.*.*.*.*.*.*.*.*.*.*.*.*.6 w 4 > O @ 9 A D ^ ) ) ) ) ) ) G S A 9 @ O , 6 r 6 *.*.*.*.*.*.*.*.*.*.*.*.*.*.*.*.*.*.",
"*.*.*.*.*.*.*.*.*.*.*.*.*.*.*.*.*.*.*.*.        X % z D D D D S S D D D D ~ D z % X     . . *.*.*.*.*.*.*.*.*.*.*.*.*.*.*.*.*.*.",
"*.*.*.*.*.*.*.*.*.*.*.*.*.*.*.*.*.*.*.*.*.*.*.*.. % l D ^ / ^ / / ^ / / _ ^ D z % . *.*.*.*.*.*.*.*.*.*.*.*.*.*.*.*.*.*.*.*.*.*.",
"*.*.*.*.*.*.*.*.*.*.*.*.*.*.*.*.*.*.*.*.*.*.*.*.X % l F ` ` ` ` ` ` ` ` ` _ F l % X *.*.*.*.*.*.*.*.*.*.*.*.*.*.*.*.*.*.*.*.*.*.",
"*.*.*.*.*.*.*.*.*.*.*.*.*.*.*.*.*.*.*.*.*.*.*.*.. % l ~ / ` ` ` ` ` ` ` ` _ D z % . *.*.*.*.*.*.*.*.*.*.*.*.*.*.*.*.*.*.*.*.*.*.",
"*.*.*.*.*.*.*.*.*.*.*.*.*.*.*.*.*.*.*.*.*.*.*.*.. % l F ^ / / ^ S S ^ _ _ ^ D l % . *.*.*.*.*.*.*.*.*.*.*.*.*.*.*.*.*.*.*.*.*.*.",
"*.*.*.*.*.*.*.*.*.*.*.*.*.*.*.*.*.*.*.*.*.*.*.*.X % l D D D ~ v < < v F F D D l % X *.*.*.*.*.*.*.*.*.*.*.*.*.*.*.*.*.*.*.*.*.*.",
"*.*.*.*.*.*.*.*.*.*.*.*.*.*.*.*.*.*.*.*.*.*.*.*.X % l D D v x 7 @ @ 7 x v S D z % . *.*.*.*.*.*.*.*.*.*.*.*.*.*.*.*.*.*.*.*.*.*.",
"*.*.*.*.*.*.*.*.*.*.*.*.*.*.*.*.*.*.*.*.*.*.*.*.. % z D D x < @ *.*.% < x D D z % . *.*.*.*.*.*.*.*.*.*.*.*.*.*.*.*.*.*.*.*.*.*.",
"*.*.*.*.*.*.*.*.*.*.*.*.*.*.*.*.*.*.*.*.*.*.*.*.. # 9 A c 9 @ . *.*.  @ 9 n n 9 % X *.*.*.*.*.*.*.*.*.*.*.*.*.*.*.*.*.*.*.*.*.*.",
"*.*.*.*.*.*.*.*.*.*.*.*.*.*.*.*.*.*.*.*.*.*.*.*.. O > 8 8 > # X *.*.X # > 8 8 > O   *.*.*.*.*.*.*.*.*.*.*.*.*.*.*.*.*.*.*.*.*.*.",
"*.*.*.*.*.*.*.*.*.*.*.*.*.*.*.*.*.*.*.*.*.*.*.*.# & : 3 3 = o X *.*.X O * 3 1 ; - $ *.*.*.*.*.*.*.*.*.*.*.*.*.*.*.*.*.*.*.*.*.*.",
"*.*.*.*.*.*.*.*.*.*.*.*.*.*.*.*.*.*.*.*.*.*.X $ 6 r 3 1 1 = + X *.*.X O = 3 3 3 r 6 $ X *.*.*.*.*.*.*.*.*.*.*.*.*.*.*.*.*.*.*.*.",
"*.*.*.*.*.*.*.*.*.*.*.*.*.*.*.*.*.*.*.*.*.*.X $ 6 u 2 : : = O X *.*.X O = ; : 3 r 6 $ X *.*.*.*.*.*.*.*.*.*.*.*.*.*.*.*.*.*.*.*.",
"*.*.*.*.*.*.*.*.*.*.*.*.*.*.*.*.*.*.*.*.*.*.X O - - $ # # + o X *.*.X o o # # & - * O X *.*.*.*.*.*.*.*.*.*.*.*.*.*.*.*.*.*.*.*.",
"*.*.*.*.*.*.*.*.*.*.*.*.*.*.*.*.*.*.*.*.*.*.*.*.*.*.*.*.*.*.*.*.*.*.*.*.*.*.*.*.*.*.*.*.*.*.*.*.*.*.*.*.*.*.*.*.*.*.*.*.*.*.*.*.",
"*.*.*.*.*.*.*.*.*.*.*.*.*.*.*.*.*.*.*.*.*.*.*.*.*.*.*.*.*.*.*.*.*.*.*.*.*.*.*.*.*.*.*.*.*.*.*.*.*.*.*.*.*.*.*.*.*.*.*.*.*.*.*.*.",
"*.*.*.*.*.*.*.*.*.*.*.*.*.*.*.*.*.*.*.*.*.*.*.*.*.*.*.*.*.*.*.*.*.*.*.*.*.*.*.*.*.*.*.*.*.*.*.*.*.*.*.*.*.*.*.*.*.*.*.*.*.*.*.*."
};
