/* XPM */
static char *result[] = {
/* columns rows colors chars-per-pixel */
"64 64 102 2 ",
"   c #060603",
".  c #090704",
"X  c #0A0905",
"o  c #120E0B",
"O  c #15110E",
"+  c #19130F",
"@  c #161514",
"#  c #1B1512",
"$  c #1D1914",
"%  c #191B1B",
"&  c #211B16",
"*  c #261D1A",
"=  c #2A1E1B",
"-  c #26211B",
";  c #2D211E",
":  c #31231F",
">  c #2D2625",
",  c #2E2A25",
"<  c #252A2C",
"1  c #332622",
"2  c #372A26",
"3  c #3A2925",
"4  c #3A2E2B",
"5  c #32372A",
"6  c #3D332B",
"7  c #2B3337",
"8  c #3D3332",
"9  c #32363A",
"0  c #402C27",
"q  c #422E2A",
"w  c #44312D",
"e  c #49332E",
"r  c #42382E",
"t  c #453531",
"y  c #493531",
"u  c #453C34",
"i  c #4C3C35",
"p  c #473C39",
"a  c #523B36",
"s  c #563E39",
"d  c #583F3B",
"f  c #45423E",
"g  c #4D4A3D",
"h  c #57473F",
"j  c #5A413D",
"k  c #4B513F",
"l  c #343F45",
"z  c #354046",
"x  c #38444B",
"c  c #3E484F",
"v  c #3F4D55",
"b  c #4F4941",
"n  c #41484F",
"m  c #554540",
"M  c #5E4641",
"N  c #514D41",
"B  c #5B4B43",
"V  c #535B47",
"C  c #565C4A",
"Z  c #5B5D4B",
"A  c #434C51",
"S  c #485157",
"D  c #45545D",
"F  c #49565C",
"G  c #4F5D5D",
"H  c #604742",
"J  c #634A45",
"K  c #664D48",
"L  c #755F59",
"P  c #5C614D",
"I  c #5C6352",
"U  c #60604E",
"Y  c #606752",
"T  c #636C55",
"R  c #696F58",
"E  c #7B625A",
"W  c #677159",
"Q  c #687259",
"!  c #6B7B5D",
"~  c #4E5B64",
"^  c #525E67",
"/  c #525F68",
"(  c #546263",
")  c #546069",
"_  c #6E7D61",
"`  c #8C6D63",
"'  c #907368",
"]  c #96786D",
"[  c #718164",
"{  c #768569",
"}  c #788675",
"|  c #7F8E73",
" . c #7E8C7B",
".. c #808F73",
"X. c #839177",
"o. c #859478",
"O. c #89977D",
"+. c #AC8679",
"@. c #B38D80",
"#. c #C1988B",
"$. c #C9A092",
"%. c None",
/* pixels */
"%.%.%.%.%.%.%.%.%.%.%.%.%.%.%.%.%.%.%.%.%.%.%.%.%.%.%.%.%.%.%.%.%.%.%.%.%.%.%.%.%.%.%.%.%.%.%.%.%.%.%.%.%.%.%.%.%.%.%.%.%.%.%.%.",
"%.%.%.%.%.%.%.%.%.%.%.%.%.%.%.%.%.%.%.%.%.%.%.%.%.%.%.%.%.%.%.%.%.%.%.%.%.%.%.%.%.%.%.%.%.%.%.%.%.%.%.%.%.%.%.%.%.%.%.%.%.%.%.%.",
"%.%.%.%.%.%.%.%.%.%.%.%.%.%.%.%.%.%.%.%.%.%.%.%.%.%.%.%.%.%.%.%.%.%.%.%.%.%.%.%.%.%.%.%.%.%.%.%.%.%.%.%.%.%.%.%.%.%.%.%.%.%.%.%.",
"%.%.%.%.%.%.%.%.%.%.%.%.%.%.%.%.%.%.%.%.%.%.%.%.%.%.%.%.%.%.%.%.%.%.%.%.%.%.%.%.%.%.%.%.%.%.%.%.%.%.%.%.%.%.%.%.%.%.%.%.%.%.%.%.",
"%.%.%.%.%.%.%.%.%.%.%.%.%.%.%.%.%.%.%.%.%.%.%.%.%.%.%.%.%.%.%.%.%.%.%.%.%.%.%.%.%.%.%.%.%.%.%.%.%.%.%.%.%.%.%.%.%.%.%.%.%.%.%.%.",
"%.%.%.%.%.%.%.%.%.%.%.%.%.%.%.%.%.%.%.%.%.%.%.%.%.%.%.%.%.%.%.%.%.%.%.%.%.%.%.%.%.%.%.%.%.%.%.%.%.%.%.%.%.%.%.%.%.%.%.%.%.%.%.%.",
"%.%.%.%.%.%.%.%.%.%.%.%.%.%.%.%.%.%.%.%.%.%.%.%.%.%.%.%.%.%.%.%.%.%.%.%.%.%.%.%.%.%.%.%.%.%.%.%.%.%.%.%.%.%.%.%.%.%.%.%.%.%.%.%.",
"%.%.%.%.%.%.%.%.%.%.%.%.%.%.%.%.%.%.%.%.%.%.%.%.%.%.%.%.%.%.%.%.%.%.%.%.%.%.%.%.%.%.%.%.%.%.%.%.%.%.%.%.%.%.%.%.%.%.%.%.%.%.%.%.",
"%.%.%.%.%.%.%.%.%.%.%.%.%.%.%.%.%.%.%.%.%.%.%.%.%.%.%.%.%.%.%.%.%.%.%.%.%.%.%.%.%.%.%.%.%.%.%.%.%.%.%.%.%.%.%.%.%.%.%.%.%.%.%.%.",
"%.%.%.%.%.%.%.%.%.%.%.%.%.%.%.%.%.%.%.%.%.%.%.%.%.%.%.%.%.%.%.%.%.%.%.%.%.%.%.%.%.%.%.%.%.%.%.%.%.%.%.%.%.%.%.%.%.%.%.%.%.%.%.%.",
"%.%.%.%.%.%.%.%.%.%.%.%.%.%.%.%.%.%.%.%.%.%.%.%.%.%.%.%.X X %.%.%.%.X X X X %.%.%.%.%.%.%.%.%.%.%.%.%.%.%.%.%.%.%.%.%.%.%.%.%.%.",
"%.%.%.%.%.%.%.%.%.%.%.%.%.%.%.%.%.%.%.%.%.%.%.%.%.%.%.%.+ # %.%.%.%.+ # & + %.%.%.%.%.%.%.%.%.%.%.%.%.%.%.%.%.%.%.%.%.%.%.%.%.%.",
"%.%.%.%.%.%.%.%.%.%.%.%.%.%.%.%.%.%.%.%.%.%.%.%.%.%.X O : : + . X O : 3 0 : + X X X X X %.%.%.%.%.%.%.%.%.%.%.%.%.%.%.%.%.%.%.%.",
"%.%.%.%.%.%.%.%.%.%.%.%.%.%.%.%.%.%.%.%.%.%.%.%.%.%.O = e e = + O = e s s q = # + # # # %.%.%.%.%.%.%.%.%.%.%.%.%.%.%.%.%.%.%.%.",
"%.%.%.%.%.%.%.%.%.%.%.%.%.%.%.%.%.%.%.%.%.%.%.%.. O : e s s q 3 3 w s H H s q : 3 3 0 : # X %.%.%.%.%.%.%.%.%.%.%.%.%.%.%.%.%.%.",
"%.%.%.%.%.%.%.%.%.%.%.%.%.%.%.%.%.%.%.%.%.%.%.%.# ; e s H H s a a s H J J H d a a a 0 : + X %.%.%.%.%.%.%.%.%.%.%.%.%.%.%.%.%.%.",
"%.%.%.%.%.%.%.%.%.%.%.%.%.%.%.%.%.%.%.%.%.%.  $ 4 s j H J J H M H H H K K H H H H a = @ %.%.%.%.%.%.%.%.%.%.%.%.%.%.%.%.%.%.%.%.",
"%.%.%.%.%.%.%.%.%.%.%.%.%.%.%.%.%.%.%.%.%.%.O ; s K K J J J J J J J J J J J H j M i ; # %.%.%.%.%.%.%.%.%.%.%.%.%.%.%.%.%.%.%.%.",
"%.%.%.%.%.%.%.%.%.%.%.%.%.%.%.%.%.%.%.%.. O : e j K K J J J J J J J J J J H s a a a a q $ X %.%.%.%.%.%.%.%.%.%.%.%.%.%.%.%.%.%.",
"%.%.%.%.%.%.%.%.%.%.%.%.%.%.%.%.%.%.%.%.O * 0 a H J J J J J J J J J J H H j s a y s H i & X %.%.%.%.%.%.%.%.%.%.%.%.%.%.%.%.%.%.",
"%.%.%.%.%.%.%.%.%.%.%.%.%.%.%.%.%.%.X + : 0 e a j J J J J J J J J J J H s a j j M H K a & . %.%.%.%.%.%.%.%.%.%.%.%.%.%.%.%.%.%.",
"%.%.%.%.%.%.%.%.%.%.%.%.%.%.%.%.%.%.X # : e y s H J J J J J J J J J K j s s M J J J J a : + %.%.%.%.%.%.%.%.%.%.%.%.%.%.%.%.%.%.",
"%.%.%.%.%.%.%.%.%.%.%.%.%.%.%.%.%.%.%.%.+ = a H J J J J J J J J H K J H M M J J J J K j e : # X %.%.%.%.%.%.%.%.%.%.%.%.%.%.%.%.",
"%.%.%.%.%.%.%.%.%.%.%.%.%.%.%.%.%.%.%.%.. & y J J J J H H H J J H M H K J J J J J J H s e : O X %.%.%.%.%.%.%.%.%.%.%.%.%.%.%.%.",
"%.%.%.%.%.%.%.%.%.%.%.%.%.%.%.%.%.%.%.%.  # q M J J J M s a H H s s H J K J J J J H s w = + %.%.%.%.%.%.%.%.%.%.%.%.%.%.%.%.%.%.",
"%.%.%.%.%.%.%.%.%.%.%.%.%.%.%.%.%.%.%.%.# > y d J J J M s a d j a s h J J J J J J M a 3 + . %.%.%.%.%.%.%.%.%.%.%.%.%.%.%.%.%.%.",
"%.%.%.%.%.%.%.%.%.%.%.%.%.%.%.%.%.%.X # 3 y a d M J J J H d s a j H H J J J J J J H d q # X %.%.%.%.%.%.%.%.%.%.%.%.%.%.%.%.%.%.",
"%.%.%.%.%.%.%.%.%.%.%.%.%.%.%.%.%.%.X # 3 y a d M J J J J M s s H J J J J J J J J J m y = # %.%.%.%.%.%.%.%.%.%.%.%.%.%.%.%.%.%.",
"%.%.%.%.%.%.%.%.%.%.%.%.%.%.%.%.%.%.%.%.# ; t d d m J J J J M M H J J J J J J J J H d a y 3 & X %.%.%.%.%.%.%.%.%.%.%.%.%.%.%.%.",
"%.%.%.%.%.%.%.%.%.%.%.%.%.%.%.%.%.%.%.%.X # q d d d j J J J J J K J J J J J J J J H d a y 3 + X %.%.%.%.%.%.%.%.%.%.%.%.%.%.%.%.",
"%.%.%.%.%.%.%.%.%.%.%.%.%.%.%.%.%.%.%.%.X # e d s s d m H J J J J J J J J J J J j j s y = # %.%.%.%.%.%.%.%.%.%.%.%.%.%.%.%.%.%.",
"%.%.%.%.%.%.%.%.%.%.%.%.%.%.%.%.%.%.%.%.X # 2 e a d s d H J J J J J J H H H H H d a y 1 # X %.%.%.%.%.%.%.%.%.%.%.%.%.%.%.%.%.%.",
"%.%.%.%.%.%.%.%.%.%.%.%.%.%.%.%.%.%.%.%.%.%.# = e s s s H K J J J J K H j j j s s y = # %.%.%.%.%.%.%.%.%.%.%.%.%.%.%.%.%.%.%.%.",
"%.%.%.%.%.%.%.%.%.%.%.%.%.%.%.%.%.%.%.%.%.%.X # 3 e a j j H H j j H H j j s s a t 2 #   %.%.%.%.%.%.%.%.%.%.%.%.%.%.%.%.%.%.%.%.",
"%.%.%.%.%.%.%.%.%.%.%.%.%.%.%.%.%.%.%.%.%.%.%.%.+ - e s j j j j j j j s s s s e = # %.%.%.%.%.%.%.%.%.%.%.%.%.%.%.%.%.%.%.%.%.%.",
"%.%.%.%.%.%.%.%.%.%.%.%.%.%.%.%.%.%.%.%.%.%.%.%.o - f h j a h B B B B h a a B i ; o %.%.%.%.%.%.%.%.%.%.%.%.%.%.%.%.%.%.%.%.%.%.",
"%.%.%.%.%.%.%.%.%.%.%.%.%.%.%.%.%.%.%.%.%.%.X O = 6 P Y i i P R R R R Z u i P P 6 * + X %.%.%.%.%.%.%.%.%.%.%.%.%.%.%.%.%.%.%.%.",
"%.%.%.%.%.%.%.%.%.%.%.%.%.%.%.%.%.%.%.%.%.%.X O ; u Z Z g g T [ _ [ _ W b g P Z i = o X %.%.%.%.%.%.%.%.%.%.%.%.%.%.%.%.%.%.%.%.",
"%.%.%.%.%.%.%.%.%.%.%.%.%.%.%.%.%.%.%.%.%.%.X o > 4 u g P T ! [ _ _ _ ! W Z g u 4 > +   %.%.%.%.%.%.%.%.%.%.%.%.%.%.%.%.%.%.%.%.",
"%.%.%.%.%.%.%.%.%.%.%.%.%.%.%.%.%.%.%.%.%.%.o & 1 3 2 i Y [ _ ! _ _ _ _ _ T u 3 2 1 $ + %.%.%.%.%.%.%.%.%.%.%.%.%.%.%.%.%.%.%.%.",
"%.%.%.%.%.%.%.%.%.%.%.%.%.%.%.%.%.%.%.%.X O = 1 : 3 3 r T [ [ ! _ _ _ _ [ I f : 3 : : - + X %.%.%.%.%.%.%.%.%.%.%.%.%.%.%.%.%.%.",
"%.%.%.%.%.%.%.%.%.%.%.%.%.%.%.%.%.%.%.%.X O 1 t f 8 6 f Y [ { { { { { { { I f 3 f g r : +   %.%.%.%.%.%.%.%.%.%.%.%.%.%.%.%.%.%.",
"%.%.%.%.%.%.%.%.%.%.%.%.%.%.%.%.%.%.%.%.X @ 4 b P P 8 u Y { o.O.O.O.O.o.{ I u 8 Z P h 4 # X %.%.%.%.%.%.%.%.%.%.%.%.%.%.%.%.%.%.",
"%.%.%.%.%.%.%.%.%.%.%.%.%.%.%.%.%.%.%.%.@ - 8 b V P g N T [ ..o.o.o.o...{ T N g V Z g 6 * @ %.%.%.%.%.%.%.%.%.%.%.%.%.%.%.%.%.%.",
"%.%.%.%.%.%.%.%.%.%.%.%.%.%.%.%.%.%.  # > 8 p u , 5 V W _ ! ! ! ! ! ! ! ! ! W V 5 , 8 p 8 , @ X %.%.%.%.%.%.%.%.%.%.%.%.%.%.%.%.",
"%.%.%.%.%.%.%.%.%.%.%.%.%.%.%.%.%.%.X * B E L m $ $ N W ! ! ! ! ! ! ! ! ! ! W N $ & h E E B -   %.%.%.%.%.%.%.%.%.%.%.%.%.%.%.%.",
"%.%.%.%.%.%.%.%.%.%.%.%.%.%.%.%.%.%.  2 ] $.@.' 1 @ , b W { | o.o.o.o.| { W N , O 1 ` #.$.] 2   %.%.%.%.%.%.%.%.%.%.%.%.%.%.%.%.",
"%.%.%.%.%.%.%.%.%.%.%.%.%.%.%.%.%.%.  4 ' +.+.` > o > b I _ }  . . . .} _ I b > O , E +.@.' 6   %.%.%.%.%.%.%.%.%.%.%.%.%.%.%.%.",
"%.%.%.%.%.%.%.%.%.%.%.%.%.%.%.%.%.%.%.%.6 r 6 : O @ 9 A S G ( ( ( ( ( ( G F A 9 @ + 1 6 r 6 %.%.%.%.%.%.%.%.%.%.%.%.%.%.%.%.%.%.",
"%.%.%.%.%.%.%.%.%.%.%.%.%.%.%.%.%.%.%.%.        X % z D ~ D D D F D D D D D D z % .         %.%.%.%.%.%.%.%.%.%.%.%.%.%.%.%.%.%.",
"%.%.%.%.%.%.%.%.%.%.%.%.%.%.%.%.%.%.%.%.%.%.%.%.  % z ~ ~ / / ~ / / ^ ^ ^ ~ D z % . %.%.%.%.%.%.%.%.%.%.%.%.%.%.%.%.%.%.%.%.%.%.",
"%.%.%.%.%.%.%.%.%.%.%.%.%.%.%.%.%.%.%.%.%.%.%.%.. % l D ~ ) ) ~ S S ~ ) ) ^ D l % . %.%.%.%.%.%.%.%.%.%.%.%.%.%.%.%.%.%.%.%.%.%.",
"%.%.%.%.%.%.%.%.%.%.%.%.%.%.%.%.%.%.%.%.%.%.%.%.. % l D D F ~ c < < v ~ D F D l % . %.%.%.%.%.%.%.%.%.%.%.%.%.%.%.%.%.%.%.%.%.%.",
"%.%.%.%.%.%.%.%.%.%.%.%.%.%.%.%.%.%.%.%.%.%.%.%.. % z D D A x 7 @ @ 7 x v D D l % . %.%.%.%.%.%.%.%.%.%.%.%.%.%.%.%.%.%.%.%.%.%.",
"%.%.%.%.%.%.%.%.%.%.%.%.%.%.%.%.%.%.%.%.%.%.%.%.. % z D D z < @ %.%.@ < x D D z % . %.%.%.%.%.%.%.%.%.%.%.%.%.%.%.%.%.%.%.%.%.%.",
"%.%.%.%.%.%.%.%.%.%.%.%.%.%.%.%.%.%.%.%.%.%.%.%.. @ 9 n v 9 @ . %.%.  @ 9 n n 9 @ X %.%.%.%.%.%.%.%.%.%.%.%.%.%.%.%.%.%.%.%.%.%.",
"%.%.%.%.%.%.%.%.%.%.%.%.%.%.%.%.%.%.%.%.%.%.%.%.X O > 8 8 1 O . %.%.X @ > 8 8 > O   %.%.%.%.%.%.%.%.%.%.%.%.%.%.%.%.%.%.%.%.%.%.",
"%.%.%.%.%.%.%.%.%.%.%.%.%.%.%.%.%.%.%.%.%.%.%.%.$ * : 1 2 = O o %.%.X o = 1 1 : - + %.%.%.%.%.%.%.%.%.%.%.%.%.%.%.%.%.%.%.%.%.%.",
"%.%.%.%.%.%.%.%.%.%.%.%.%.%.%.%.%.%.%.%.%.%.X $ 4 r 3 2 1 = O X %.%.X + = 3 3 3 r 6 $ X %.%.%.%.%.%.%.%.%.%.%.%.%.%.%.%.%.%.%.%.",
"%.%.%.%.%.%.%.%.%.%.%.%.%.%.%.%.%.%.%.%.%.%.X # 6 u 3 ; : = O X %.%.X + * 1 = 3 f 6 # X %.%.%.%.%.%.%.%.%.%.%.%.%.%.%.%.%.%.%.%.",
"%.%.%.%.%.%.%.%.%.%.%.%.%.%.%.%.%.%.%.%.%.%.X + & - $ # # O o X %.%.X o O # # & - * O X %.%.%.%.%.%.%.%.%.%.%.%.%.%.%.%.%.%.%.%.",
"%.%.%.%.%.%.%.%.%.%.%.%.%.%.%.%.%.%.%.%.%.%.%.%.%.%.%.%.%.%.%.%.%.%.%.%.%.%.%.%.%.%.%.%.%.%.%.%.%.%.%.%.%.%.%.%.%.%.%.%.%.%.%.%.",
"%.%.%.%.%.%.%.%.%.%.%.%.%.%.%.%.%.%.%.%.%.%.%.%.%.%.%.%.%.%.%.%.%.%.%.%.%.%.%.%.%.%.%.%.%.%.%.%.%.%.%.%.%.%.%.%.%.%.%.%.%.%.%.%.",
"%.%.%.%.%.%.%.%.%.%.%.%.%.%.%.%.%.%.%.%.%.%.%.%.%.%.%.%.%.%.%.%.%.%.%.%.%.%.%.%.%.%.%.%.%.%.%.%.%.%.%.%.%.%.%.%.%.%.%.%.%.%.%.%."
};
