/* XPM */
static char *result[] = {
/* columns rows colors chars-per-pixel */
"64 64 185 2 ",
"   c #030301",
".  c #080704",
"X  c #0A0906",
"o  c #0D0C0B",
"O  c #130E0C",
"+  c #15110E",
"@  c #19130F",
"#  c #131414",
"$  c #1B1511",
"%  c #1E1814",
"&  c #1B1D1E",
"*  c #171A1B",
"=  c #211A16",
"-  c #261D1A",
";  c #291E1B",
":  c #241310",
">  c #311814",
",  c #2C211E",
"<  c #27221A",
"1  c #32231F",
"2  c #1E2325",
"3  c #272727",
"4  c #2D2321",
"5  c #2F2828",
"6  c #332522",
"7  c #372A24",
"8  c #3C2A25",
"9  c #352D2C",
"0  c #3C2D2A",
"q  c #3D332C",
"w  c #252D31",
"e  c #273036",
"r  c #2B343A",
"t  c #383E3F",
"y  c #373536",
"u  c #4A2B26",
"i  c #422E2A",
"p  c #45312D",
"a  c #4C332E",
"s  c #51342D",
"d  c #423631",
"f  c #4B3632",
"g  c #453933",
"h  c #4C3B35",
"j  c #4B3C39",
"k  c #533631",
"l  c #5A3731",
"z  c #523A35",
"x  c #553E39",
"c  c #583F3A",
"v  c #6D2B22",
"b  c #722E25",
"n  c #6C342B",
"m  c #763E34",
"M  c #4A4234",
"N  c #474138",
"B  c #4B423A",
"V  c #4C4A3E",
"C  c #54443D",
"Z  c #5B423D",
"A  c #62433D",
"S  c #68453F",
"D  c #77483F",
"F  c #7B473B",
"G  c #353B41",
"H  c #3A4646",
"J  c #38454D",
"K  c #4D4740",
"L  c #4E4940",
"P  c #474848",
"I  c #5E4641",
"U  c #554E47",
"Y  c #5D4A42",
"T  c #5D4E49",
"R  c #554E48",
"E  c #555344",
"W  c #5F5248",
"Q  c #5B5D4B",
"!  c #575249",
"~  c #4A5A51",
"^  c #595D5B",
"/  c #5E5C50",
"(  c #624641",
")  c #634A45",
"_  c #6A4E47",
"`  c #674D48",
"'  c #6C4E48",
"]  c #714F4A",
"[  c #6A554B",
"{  c #72504B",
"}  c #645651",
"|  c #6A5D56",
" . c #6C5E59",
".. c #755952",
"X. c #735751",
"o. c #56604F",
"O. c #5B6453",
"+. c #636C55",
"@. c #6F625C",
"#. c #626753",
"$. c #7E6259",
"%. c #69725C",
"&. c #5E6062",
"*. c #646C6F",
"=. c #6F7262",
"-. c #747B67",
";. c #686F73",
":. c #88372B",
">. c #88463B",
",. c #8E4C41",
"<. c #854F44",
"1. c #944E41",
"2. c #915246",
"3. c #8F5856",
"4. c #875F59",
"5. c #825A51",
"6. c #935C59",
"7. c #87655B",
"8. c #96695E",
"9. c #A36859",
"0. c #8F6760",
"q. c #8C6A61",
"w. c #947469",
"e. c #9B766B",
"r. c #98756B",
"t. c #8B7E75",
"y. c #957A72",
"u. c #A66E60",
"i. c #AA6E61",
"p. c #A97162",
"a. c #AF756C",
"s. c #B2766C",
"d. c #A17B71",
"f. c #9F8174",
"g. c #AB8578",
"h. c #A28B7C",
"j. c #AD897C",
"k. c #A48578",
"l. c #B38C7E",
"z. c #B98C7E",
"x. c #B3907E",
"c. c #C28D7F",
"v. c #9C938C",
"b. c #A78C80",
"n. c #B48E81",
"m. c #BA8E81",
"M. c #AA9A8B",
"N. c #A5988A",
"B. c #BC9386",
"V. c #B89987",
"C. c #BF9789",
"Z. c #BE9E8C",
"A. c #B79284",
"S. c #A99E92",
"D. c #B5A699",
"F. c #BAAB9F",
"G. c #B3A396",
"H. c #BBADA0",
"J. c #B4ABA1",
"K. c #C38F80",
"L. c #C09487",
"P. c #C19689",
"I. c #C99589",
"U. c #C89C8E",
"Y. c #C3988B",
"T. c #CD9F91",
"R. c #C1A18F",
"E. c #CEA092",
"W. c #C6AD9A",
"Q. c #C8AD9B",
"!. c #D4A696",
"~. c #D0A897",
"^. c #D7A798",
"/. c #D6AA9B",
"(. c #DAAA9B",
"). c #C9B09C",
"_. c #CEB3A4",
"`. c #D1B5A6",
"'. c #D1B7A8",
"]. c #D2BBA9",
"[. c #E4B4A4",
"{. c #E7B8A8",
"}. c #EAB9A9",
"|. c #D9C5B5",
" X c None",
/* pixels */
" X X X X X X X X X X X X X X X X X X X X X X X X X X X X X X X X X X X X X X X X X X X X X X X X X X X X X X X X X X X X X X X X",
" X X X X X X X X X X X X X X X X X X X X X X X X X X X X X X X X X X X X X X X X X X X X X X X X X X X X X X X X X X X X X X X X",
" X X X X X X X X X X X X X X X X X X X X X X X X X X X X X X X X X X X X X X X X X X X X X X X X X X X X X X X X X X X X X X X X",
" X X X X X X X X X X X X X X X X X X X X X X X X X X X X X X X X X X X X X X X X X X X X X X X X X X X X X X X X X X X X X X X X",
" X X X X X X X X X X X X X X X X X X X X X X X X X X X X X X X X X X X X X X X X X X X X X X X X X X X X X X X X X X X X X X X X",
" X X X X X X X X X X X X X X X X X X X X X X X X X X X X X X X X X X X X X X X X X X X X X X X X X X X X X X X X X X X X X X X X",
" X X X X X X X X X X X X X X X X X X X X X X X X X X X X X X X X X X X X X X X X X X X X X X X X X X X X X X X X X X X X X X X X",
" X X X X X X X X X X X X X X X X X X X X X X X X X X X X X X X X X X X X X X X X X X X X X X X X X X X X X X X X X X X X X X X X",
" X X X X X X X X X X X X X X X X X X X X X X X X X X X X X X X X X X X X X X X X X X X X X X X X X X X X X X X X X X X X X X X X",
" X X X X X X X X X X X X X X X X X X X X X X X X X X X X X X X X X X X X X X X X X X X X X X X X X X X X X X X X X X X X X X X X",
" X X X X X X X X X X X X X X X X X X X X X X X X X X X X X X X X X X X X X X X X X X X X X X X X X X X X X X X X X X X X X X X X",
" X X X X X X X X X X X X X X X X X X X X X X X X X X X X X X X X X X X X X X X X X X X X X X X X X X X X X X X X X X X X X X X X",
" X X X X X X X X X X X X X X X X X X X X X X X X X X X X X X X X X X X X X X X X X X X X X X X X X X X X X X X X X X X X X X X X",
" X X X X X X X X X X X X X X X X X X X X X X X X X X X X X X X X X X X X X X X X X X X X X X X X X X X X X X X X X X X X X X X X",
" X X X X X X X X X X X X X X X X X X X X X X X X X X X X X X X X X X X X X X X X X X X X X X X X X X X X X X X X X X X X X X X X",
" X X X X X X X X X X X X X X X X X X X X X X X X X X X X X X X X X X X X X X X X X X X X X X X X X X X X X X X X X X X X X X X X",
" X X X X X X X X X X X X X X X X X X X X X X X X X X X X X X X X X X X X X X X X X X X X X X X X X X X X X X X X X X X X X X X X",
" X X X X X X X X X X X X X X X X X X X X X X X X X X X X X X X X X X X X X X X X X X X X X X X X X X X X X X X X X X X X X X X X",
" X X X X X X X X X X X X X X X X X X X X X X X X X X X X X X X X X X X X X X X X X X X X X X X X X X X X X X X X X X X X X X X X",
" X X X X X X X X X X X X X X X X X X X X X X X X X X X X X X X X X X X X X X X X X X X X X X X X X X X X X X X X X X X X X X X X",
" X X X X X X X X X X X X X X X X X X X X X X X X X X X X X X X X X X X X X X X X X X X X X X X X X X X X X X X X X X X X X X X X",
" X X X X X X X X X X X X X X X X X X X X X X X X X X X X X X X X X X X X X X X X X X X X X X X X X X X X X X X X X X X X X X X X",
" X X X X X X X X X X X X X X X X X X X X X X X X X X X X X X X X X XX X X X X X  X XX X  X X X X X X X X X X X X X X X X X X X X",
" X X X X X X X X X X X X X X X X X X X X X X X X X X X X X X X X X X@ $ @ $ $ @  X X@ $  X X X X X X X X X X X X X X X X X X X X",
" X X X X X X X X X X X X X X X X X X X X X X X X X XX X . X X . X @ 1 8 8 8 8 1 @ @ 1 6 $ X  X X X X X X X X X X X X X X X X X X",
" X X X X X X X X X X X X X X X X X X X X X X X X X X$ $ $ $ $ $ $ - p z z z z i - - i i $ .  X X X X X X X X X X X X X X X X X X",
" X X X X X X X X X X X X X X X X X X X X X X X XX @ 1 8 8 8 8 8 i f c ( I ( ( c i i x f = .  X X X X X X X X X X X X X X X X X X",
" X X X X X X X X X X X X X X X X X X X X X X X XX $ 1 i a z z z c I Y ) ) ) ) I c c ) x 6 $  X X X X X X X X X X X X X X X X X X",
" X X X X X X X X X X X X X X X X X X X X X X X X X X+ - p c I I I ) ) ) ) ) ) ) ( ( ) ( x i % .  X X X X X X X X X X X X X X X X",
" X X X X X X X X X X X X X X X X X X X X X X X X X X$ , f Z ) ) ) ) ) ) ) ) ) ) ) ) ) ) ` h = X  X X X X X X X X X X X X X X X X",
" X X X X X X X X X X X X X X X X X X X X X X X XX $ 7 f Z ( ) ) ) ) ) ) ( ) ) ) ) ) ) ` ` h = X  X X X X X X X X X X X X X X X X",
" X X X X X X X X X X X X X X X X X X X X X X X XX $ i Z ) ) ) ) ) ) ) ( I I I ( ) ) ) ) ) h %    X X X X X X X X X X X X X X X X",
" X X X X X X X X X X X X X X X X X X X X X X X X. $ p Z I ` ) ) ) ) ) I z z k z I ( ) ) ` j #    X X X X X X X X X X X X X X X X",
" X X X X X X X X X X X X X X X X X X X X X X X X@ ; p x I I ) ) ) ) ) ) ` ( z f I ( I I ) z ; O  X X X X X X X X X X X X X X X X",
" X X X X X X X X X X X X X X X X X X X X X XX $ 6 i f z x Z ( ) ) ) I ..d.e.( f I ( z c I I f 6 O    X X X X X X X X X X X X X X",
" X X X X X X X X X X X X X X X X X X X X X XX $ 1 i p z x Z I ) ) ` ..w.I.m.7._ ( ( l l ( I f 4 O    X X X X X X X X X X X X X X",
" X X X X X X X X X X X X X X X X X X X X X X X X@ ; 8 z Z ( ) ) I ..d.L.T.T.m.e.{ c n n ( j - O  X X X X X X X X X X X X X X X X",
" X X X X X X X X X X X X X X X X X X X X X X X X. @ 8 z I ) ) ` ..w.L.^.(.(.(.U.w.5.2.1.F k - o  X X X X X X X X X X X X X X X X",
" X X X X X X X X X X X X X X X X X X X X X X X X. @ i c I ) ( ..d.L.T.(.[.[.[.(.C.m.K.s.,.n s 6 O    X X X X X X X X X X X X X X",
" X X X X X X X X X X X X X X X X X X X X X X X X@ ; f Z ( ` ] 0.L.^.!.U.n.B./.[.[.T.n.8.:.b s 6 O    X X X X X X X X X X X X X X",
" X X X X X X X X X X X X X X X X X X X X X XX $ 1 p z c I { 6.s.I.^.^.g.Y Y A.}.}.A.W u v v > o  X X X X X X X X X X X X X X X X",
" X X X X X X X X X X X X X X X X X X X X X XX $ 6 i k Z I ' 3.a.I.^.^.g.Y ) B.}.}.B.) f >.m :    X X X X X X X X X X X X X X X X",
" X X X X X X X X X X X X X X X X X X X X X X X X$ - d c c I ( 4.m.^.!.U.n.B./.[.{./.V.z.K.8.;    X X X X X X X X X X X X X X X X",
" X X X X X X X X X X X X X X X X X X X X X X X X. $ 6 f z z z ' e.L.E.^.[.{.{.[.[.[.}./.n.$.4    X X X X X X X X X X X X X X X X",
" X X X X X X X X X X X X X X X X X X X X X X X X X X$ , p c c Z ' q.C.(.[.}.[.[.{.[.[.l.I ,  X X X X X X X X X X X X X X X X X X",
" X X X X X X X X X X X X X X X X X X X X X X X X X X. $ p x p p f _ e.L.^.[.[.[.[.!.n.$.-    X X X X X X X X X X X X X X X X X X",
" X X X X X X X X X X X X X X X X X X X X X X X X X X X X X X% - i c ` q.B.(.^.(.(.j.) 6  X X X X X X X X X X X X X X X X X X X X",
" X X X X X X X X X X X X X X X X X X X X X X X X X X X X X XO < j Y h ' j.~.~.~.~.f.q X  X X X X X X X X X X X X X X X X X X X X",
" X X X X X X X X X X X X X X X X X X X X X X X X X X X X. O - q Q Q g Y h.).).)._.f.C = O X  X X X X X X X X X X X X X X X X X X",
" X X X X X X X X X X X X X X X X X X X X X X X X X X X X. @ 6 j +.+.M T N.).V.x.x.w.Z , + X  X X X X X X X X X X X X X X X X X X",
" X X X X X X X X X X X X X X X X X X X X X X X X X X X X. + , M +.+.V | G.Q.u.>.2.F k , @ X  X X X X X X X X X X X X X X X X X X",
" X X X X X X X X X X X X X X X X X X X X X X X X X X X XO = 4 B %.%.U @.F.`.a.1.:.v u 4 + X  X X X X X X X X X X X X X X X X X X",
" X X X X X X X X X X X X X X X X X X X X X X X X X XX + - 6 6 B -.-.! @.F.|.'.z.1.b u , @ X  X X X X X X X X X X X X X X X X X X",
" X X X X X X X X X X X X X X X X X X X X X X X X X XO % 6 0 g E =.=.R  .G.|._.Y.p.<.z , + X  X X X X X X X X X X X X X X X X X X",
" X X X X X X X X X X X X X X X X X X X XX X . . X + < 6 6 g Q #./ R B  .M.R.p.9.Y.h.) , @ X  X X X X X X X X X X X X X X X X X X",
" X X X X X X X X X X X X X X X X X X X X+ + # # + % 4 0 g V O.O.K f j  .M.R.9.p.`.F.} , O X  X X X X X X X X X X X X X X X X X X",
" X X X X X X X X X X X X X X X X X XX + @ - w w 4 4 5 q E Q ~ P y q g @.J.'.Z.U.|.F.} ; O X  X X X X X X X X X X X X X X X X X X",
" X X X X X X X X X X X X X X X X X XX + , q t P T ` ) W O.~ H r 9 0 d } v.J.S.S.S.t.B = @ X  X X X X X X X X X X X X X X X X X X",
" X X X X X X X X X X X X X X X X X X. % q M V @.k.C.m.y.^ H y 9 0 8 0 K &.;.*.^ K 9 = +  X X X X X X X X X X X X X X X X X X X X",
" X X X X X X X X X X X X X X X X X X. % q M M [ j.T.Z.y.P w 9 6 6 6 6 9 G J J r #   . X  X X X X X X X X X X X X X X X X X X X X",
" X X X X X X X X X X X X X X X X X X X+ < < < 7 C ) Y j 3 * % $ $ % $ & & 2 2 & o . X X  X X X X X X X X X X X X X X X X X X X X",
" X X X X X X X X X X X X X X X X X X X X X X X X X X X X X X X X X X X X X X X X X X X X X X X X X X X X X X X X X X X X X X X X",
" X X X X X X X X X X X X X X X X X X X X X X X X X X X X X X X X X X X X X X X X X X X X X X X X X X X X X X X X X X X X X X X X",
" X X X X X X X X X X X X X X X X X X X X X X X X X X X X X X X X X X X X X X X X X X X X X X X X X X X X X X X X X X X X X X X X"
};
