/* XPM */
static char *result[] = {
/* columns rows colors chars-per-pixel */
"64 64 123 2 ",
"   c #060603",
".  c #090704",
"X  c #0A0805",
"o  c #16110E",
"O  c #19130F",
"+  c #161514",
"@  c #1B1512",
"#  c #1D1915",
"$  c #161919",
"%  c #191B1A",
"&  c #211C16",
"*  c #241D19",
"=  c #2A1E1A",
"-  c #23221A",
";  c #2C211D",
":  c #32231F",
">  c #2D2525",
",  c #2B2822",
"<  c #262A2C",
"1  c #2E2D29",
"2  c #322522",
"3  c #362A25",
"4  c #3B2925",
"5  c #342E2A",
"6  c #3B2D2A",
"7  c #36332A",
"8  c #3D332A",
"9  c #2A3237",
"0  c #3C3231",
"q  c #32363A",
"w  c #402C27",
"e  c #422E2A",
"r  c #44312D",
"t  c #49332E",
"y  c #463531",
"u  c #493531",
"i  c #453C35",
"p  c #4B3B35",
"a  c #413F3B",
"s  c #493F3A",
"d  c #523B36",
"f  c #563E39",
"g  c #583F3B",
"h  c #464035",
"j  c #4D4536",
"k  c #45423E",
"l  c #4E4B3E",
"z  c #54463C",
"x  c #5A413D",
"c  c #4A513F",
"v  c #343E45",
"b  c #3C474E",
"n  c #3D484E",
"m  c #404346",
"M  c #4F4941",
"N  c #40474E",
"B  c #464C4C",
"V  c #574744",
"C  c #5E4641",
"Z  c #514E40",
"A  c #5A4B43",
"S  c #4D5341",
"D  c #555444",
"F  c #5B5345",
"G  c #535A47",
"H  c #5B564B",
"J  c #555C48",
"K  c #5C5E4C",
"L  c #434C51",
"P  c #485357",
"I  c #46545E",
"U  c #4A565C",
"Y  c #4F5D5D",
"T  c #604742",
"R  c #634A45",
"E  c #664D48",
"W  c #64544A",
"Q  c #625A4C",
"!  c #5D614E",
"~  c #576052",
"^  c #596254",
"/  c #61614F",
"(  c #636754",
")  c #6F6157",
"_  c #636C55",
"`  c #696D59",
"'  c #76605A",
"]  c #78625B",
"[  c #657057",
"{  c #677159",
"}  c #687259",
"|  c #6B7A5D",
" . c #7A705E",
".. c #485760",
"X. c #4E5B63",
"o. c #525E66",
"O. c #525F68",
"+. c #556263",
"@. c #55626A",
"#. c #5F676A",
"$. c #6D6E68",
"%. c #6E7D61",
"&. c #777367",
"*. c #797569",
"=. c #81645A",
"-. c #886A5F",
";. c #8F7066",
":. c #837966",
">. c #917267",
",. c #96776E",
"<. c #718164",
"1. c #768569",
"2. c #788675",
"3. c #7F8E73",
"4. c #7E8C7B",
"5. c #808F73",
"6. c #839177",
"7. c #859478",
"8. c #89977D",
"9. c #A68579",
"0. c #B79284",
"q. c #CBA295",
"w. c None",
/* pixels */
"w.w.w.w.w.w.w.w.w.w.w.w.w.w.w.w.w.w.w.w.w.w.w.w.w.w.w.w.w.w.w.w.w.w.w.w.w.w.w.w.w.w.w.w.w.w.w.w.w.w.w.w.w.w.w.w.w.w.w.w.w.w.w.w.",
"w.w.w.w.w.w.w.w.w.w.w.w.w.w.w.w.w.w.w.w.w.w.w.w.w.w.w.w.w.w.w.w.w.w.w.w.w.w.w.w.w.w.w.w.w.w.w.w.w.w.w.w.w.w.w.w.w.w.w.w.w.w.w.w.",
"w.w.w.w.w.w.w.w.w.w.w.w.w.w.w.w.w.w.w.w.w.w.w.w.w.w.w.w.w.w.w.w.w.w.w.w.w.w.w.w.w.w.w.w.w.w.w.w.w.w.w.w.w.w.w.w.w.w.w.w.w.w.w.w.",
"w.w.w.w.w.w.w.w.w.w.w.w.w.w.w.w.w.w.w.w.w.w.w.w.w.w.w.w.w.w.w.w.w.w.w.w.w.w.w.w.w.w.w.w.w.w.w.w.w.w.w.w.w.w.w.w.w.w.w.w.w.w.w.w.",
"w.w.w.w.w.w.w.w.w.w.w.w.w.w.w.w.w.w.w.w.w.w.w.w.w.w.w.w.w.w.w.w.w.w.w.w.w.w.w.w.w.w.w.w.w.w.w.w.w.w.w.w.w.w.w.w.w.w.w.w.w.w.w.w.",
"w.w.w.w.w.w.w.w.w.w.w.w.w.w.w.w.w.w.w.w.w.w.w.w.w.w.w.w.w.w.w.w.w.w.w.w.w.w.w.w.w.w.w.w.w.w.w.w.w.w.w.w.w.w.w.w.w.w.w.w.w.w.w.w.",
"w.w.w.w.w.w.w.w.w.w.w.w.w.w.w.w.w.w.w.w.w.w.w.w.w.w.w.w.w.w.w.w.w.w.w.w.w.w.w.w.w.w.w.w.w.w.w.w.w.w.w.w.w.w.w.w.w.w.w.w.w.w.w.w.",
"w.w.w.w.w.w.w.w.w.w.w.w.w.w.w.w.w.w.w.w.w.w.w.w.w.w.w.w.w.w.w.w.w.w.w.w.w.w.w.w.w.w.w.w.w.w.w.w.w.w.w.w.w.w.w.w.w.w.w.w.w.w.w.w.",
"w.w.w.w.w.w.w.w.w.w.w.w.w.w.w.w.w.w.w.w.w.w.w.w.w.w.w.w.w.w.w.w.w.w.w.w.w.w.w.w.w.w.w.w.w.w.w.w.w.w.w.w.w.w.w.w.w.w.w.w.w.w.w.w.",
"w.w.w.w.w.w.w.w.w.w.w.w.w.w.w.w.w.w.w.w.w.w.w.w.w.w.w.w.w.w.w.w.w.w.w.w.w.w.w.w.w.w.w.w.w.w.w.w.w.w.w.w.w.w.w.w.w.w.w.w.w.w.w.w.",
"w.w.w.w.w.w.w.w.w.w.w.w.w.w.w.w.w.w.w.w.w.w.w.w.w.w.w.w.X X w.w.w.w.X X X X w.w.w.w.w.w.w.w.w.w.w.w.w.w.w.w.w.w.w.w.w.w.w.w.w.w.",
"w.w.w.w.w.w.w.w.w.w.w.w.w.w.w.w.w.w.w.w.w.w.w.w.w.w.w.w.O @ w.w.w.w.O @ @ O w.w.w.w.w.w.w.w.w.w.w.w.w.w.w.w.w.w.w.w.w.w.w.w.w.w.",
"w.w.w.w.w.w.w.w.w.w.w.w.w.w.w.w.w.w.w.w.w.w.w.w.w.w.X O : : O . X O : 4 4 : O . X X X X w.w.w.w.w.w.w.w.w.w.w.w.w.w.w.w.w.w.w.w.",
"w.w.w.w.w.w.w.w.w.w.w.w.w.w.w.w.w.w.w.w.w.w.w.w.w.w.O = r r = O O = t d d t = O O @ @ O w.w.w.w.w.w.w.w.w.w.w.w.w.w.w.w.w.w.w.w.",
"w.w.w.w.w.w.w.w.w.w.w.w.w.w.w.w.w.w.w.w.w.w.w.w.. o ; r f x r 4 4 e g T T d r 4 4 4 w : @ X w.w.w.w.w.w.w.w.w.w.w.w.w.w.w.w.w.w.",
"w.w.w.w.w.w.w.w.w.w.w.w.w.w.w.w.w.w.w.w.w.w.w.w.@ ; t g T T f d d d T R E T f d d d e : O X w.w.w.w.w.w.w.w.w.w.w.w.w.w.w.w.w.w.",
"w.w.w.w.w.w.w.w.w.w.w.w.w.w.w.w.w.w.w.w.w.w.  # e d C C R R C C T T T E R R T T T p = + w.w.w.w.w.w.w.w.w.w.w.w.w.w.w.w.w.w.w.w.",
"w.w.w.w.w.w.w.w.w.w.w.w.w.w.w.w.w.w.w.w.w.w.O ; f E R R R R R R R R R R R R T x T d ; @ w.w.w.w.w.w.w.w.w.w.w.w.w.w.w.w.w.w.w.w.",
"w.w.w.w.w.w.w.w.w.w.w.w.w.w.w.w.w.w.w.w.  O : r x E R R R R R R R R R R E T d d d d d e # X w.w.w.w.w.w.w.w.w.w.w.w.w.w.w.w.w.w.",
"w.w.w.w.w.w.w.w.w.w.w.w.w.w.w.w.w.w.w.w.O = w d T R R R R R R R R R R R x x d d d d T p & X w.w.w.w.w.w.w.w.w.w.w.w.w.w.w.w.w.w.",
"w.w.w.w.w.w.w.w.w.w.w.w.w.w.w.w.w.w.X O : w t d C R R R R R R R R R R x d d x C x T E d &   w.w.w.w.w.w.w.w.w.w.w.w.w.w.w.w.w.w.",
"w.w.w.w.w.w.w.w.w.w.w.w.w.w.w.w.w.w.X @ : e t f T R R R R R R R R E E T f f T R R R E d : O w.w.w.w.w.w.w.w.w.w.w.w.w.w.w.w.w.w.",
"w.w.w.w.w.w.w.w.w.w.w.w.w.w.w.w.w.w.w.w.O = d T R R R R R R R R E E R T C C R R R R R x t : @ X w.w.w.w.w.w.w.w.w.w.w.w.w.w.w.w.",
"w.w.w.w.w.w.w.w.w.w.w.w.w.w.w.w.w.w.w.w.. & u R R R R R x T R R x x T E R R R R R R C x r : O X w.w.w.w.w.w.w.w.w.w.w.w.w.w.w.w.",
"w.w.w.w.w.w.w.w.w.w.w.w.w.w.w.w.w.w.w.w.  @ e C R R R C f d T T x d x E E R R R R T f r = O w.w.w.w.w.w.w.w.w.w.w.w.w.w.w.w.w.w.",
"w.w.w.w.w.w.w.w.w.w.w.w.w.w.w.w.w.w.w.w.@ > u g T R R C f d x x d d T R R R R R R T d 4 O . w.w.w.w.w.w.w.w.w.w.w.w.w.w.w.w.w.w.",
"w.w.w.w.w.w.w.w.w.w.w.w.w.w.w.w.w.w.X @ 4 u d g T R R R T g d d x T T R R R R R R T g e O . w.w.w.w.w.w.w.w.w.w.w.w.w.w.w.w.w.w.",
"w.w.w.w.w.w.w.w.w.w.w.w.w.w.w.w.w.w.X @ 4 u d g C R R R R T f f T E R R R R R R R T V y = & w.w.w.w.w.w.w.w.w.w.w.w.w.w.w.w.w.w.",
"w.w.w.w.w.w.w.w.w.w.w.w.w.w.w.w.w.w.w.w.@ ; y g x V T R R R T C T R R R R R R R R T x d u 4 & X w.w.w.w.w.w.w.w.w.w.w.w.w.w.w.w.",
"w.w.w.w.w.w.w.w.w.w.w.w.w.w.w.w.w.w.w.w.X @ e f f f C T R R R R E R R R R R R R T C x d u 4 O X w.w.w.w.w.w.w.w.w.w.w.w.w.w.w.w.",
"w.w.w.w.w.w.w.w.w.w.w.w.w.w.w.w.w.w.w.w.X @ r g g f g V T R R R R R R R R E E T x g g u = @ w.w.w.w.w.w.w.w.w.w.w.w.w.w.w.w.w.w.",
"w.w.w.w.w.w.w.w.w.w.w.w.w.w.w.w.w.w.w.w.X @ 4 u d f f g T R R R R R R R T T T x g d u 2 @ X w.w.w.w.w.w.w.w.w.w.w.w.w.w.w.w.w.w.",
"w.w.w.w.w.w.w.w.w.w.w.w.w.w.w.w.w.w.w.w.w.w.@ = u g f x C E R R R R E T x x g x g y = @ w.w.w.w.w.w.w.w.w.w.w.w.w.w.w.w.w.w.w.w.",
"w.w.w.w.w.w.w.w.w.w.w.w.w.w.w.w.w.w.w.w.w.w.  @ 2 r d g x T T C T x T x x f f d y 2 @ X w.w.w.w.w.w.w.w.w.w.w.w.w.w.w.w.w.w.w.w.",
"w.w.w.w.w.w.w.w.w.w.w.w.w.w.w.w.w.w.w.w.w.w.w.w.@ = y g x x x x x g g x g f f e ; @ w.w.w.w.w.w.w.w.w.w.w.w.w.w.w.w.w.w.w.w.w.w.",
"w.w.w.w.w.w.w.w.w.w.w.w.w.w.w.w.w.w.w.w.w.w.w.w.X & h A d d x A A F A z d d A p # X w.w.w.w.w.w.w.w.w.w.w.w.w.w.w.w.w.w.w.w.w.w.",
"w.w.w.w.w.w.w.w.w.w.w.w.w.w.w.w.w.w.w.w.w.w.w.w.X - G K p i K } ` ` } K i p ( D - X w.w.w.w.w.w.w.w.w.w.w.w.w.w.w.w.w.w.w.w.w.w.",
"w.w.w.w.w.w.w.w.w.w.w.w.w.w.w.w.w.w.w.w.w.w.w.w.  * S ! l l _ <.<.%.<._ M l ! S # X w.w.w.w.w.w.w.w.w.w.w.w.w.w.w.w.w.w.w.w.w.w.",
"w.w.w.w.w.w.w.w.w.w.w.w.w.w.w.w.w.w.w.w.w.w.w.w.X @ 7 l K { | %.%.%.%.| _ ! l 7 @ X w.w.w.w.w.w.w.w.w.w.w.w.w.w.w.w.w.w.w.w.w.w.",
"w.w.w.w.w.w.w.w.w.w.w.w.w.w.w.w.w.w.w.w.w.w.w.w.o @ > p _ <.%.| | %.%.%.<._ i ; @ o w.w.w.w.w.w.w.w.w.w.w.w.w.w.w.w.w.w.w.w.w.w.",
"w.w.w.w.w.w.w.w.w.w.w.w.w.w.w.w.w.w.w.w.w.w.X o * 2 3 i _ %.%.%.%.%.%.%.<._ i 2 2 * o X w.w.w.w.w.w.w.w.w.w.w.w.w.w.w.w.w.w.w.w.",
"w.w.w.w.w.w.w.w.w.w.w.w.w.w.w.w.w.w.w.w.w.w.X @ 3 6 4 i _ <.1.1.1.1.1.1.<._ i 8 i 8 @ X w.w.w.w.w.w.w.w.w.w.w.w.w.w.w.w.w.w.w.w.",
"w.w.w.w.w.w.w.w.w.w.w.w.w.w.w.w.w.w.w.w.w.w.  @ 8 y 6 i ( 1.6.8.8.8.8.7.1.! i y K S # X w.w.w.w.w.w.w.w.w.w.w.w.w.w.w.w.w.w.w.w.",
"w.w.w.w.w.w.w.w.w.w.w.w.w.w.w.w.w.w.w.w.w.w.+ * 0 s s Z _ 1.4.6.7.7.7.5.1._ l l G c , + w.w.w.w.w.w.w.w.w.w.w.w.w.w.w.w.w.w.w.w.",
"w.w.w.w.w.w.w.w.w.w.w.w.w.w.w.w.w.w.w.w.X @ > 0 i M ~ { | %.| | | | | | | | { G 7 ; 8 3 + X w.w.w.w.w.w.w.w.w.w.w.w.w.w.w.w.w.w.",
"w.w.w.w.w.w.w.w.w.w.w.w.w.w.w.w.w.w.w.w.X * A ] ' ) ( ` | | | | | | | | <.| { c % - A z * X w.w.w.w.w.w.w.w.w.w.w.w.w.w.w.w.w.w.",
"w.w.w.w.w.w.w.w.w.w.w.w.w.w.w.w.w.w.w.w.  3 ,.q.q.9.W M _ 1.5.7.7.7.7.5.1._ D 5 o 5 ;.>.3   w.w.w.w.w.w.w.w.w.w.w.w.w.w.w.w.w.w.",
"w.w.w.w.w.w.w.w.w.w.w.w.w.w.w.w.w.w.w.w.  8 >.0.0.,.V a ~ %.2.4.4.4.4.2.%.~ k > o : ] -.6   w.w.w.w.w.w.w.w.w.w.w.w.w.w.w.w.w.w.",
"w.w.w.w.w.w.w.w.w.w.w.w.w.w.w.w.w.w.w.w.w.w.8 r 8 i v L P Y +.+.+.+.+.o.Y P L q + o 2 6 w.w.w.w.w.w.w.w.w.w.w.w.w.w.w.w.w.w.w.w.",
"w.w.w.w.w.w.w.w.w.w.w.w.w.w.w.w.w.w.w.w.w.w.      $ v I I ..I I I I I I I ..I v % .     w.w.w.w.w.w.w.w.w.w.w.w.w.w.w.w.w.w.w.w.",
"w.w.w.w.w.w.w.w.w.w.w.w.w.w.w.w.w.w.w.w.w.w.w.w.  $ v U X.O.o.o.@.o.o.o.O.X.U v % X w.w.w.w.w.w.w.w.w.w.w.w.w.w.w.w.w.w.w.w.w.w.",
"w.w.w.w.w.w.w.w.w.w.w.w.w.w.w.w.w.w.w.w.w.w.w.w.X % v ..@.@.O.o.P P o.@.#.#.o.m # . w.w.w.w.w.w.w.w.w.w.w.w.w.w.w.w.w.w.w.w.w.w.",
"w.w.w.w.w.w.w.w.w.w.w.w.w.w.w.w.w.w.w.w.w.w.w.w.X $ v ..O.@.X.b < < b o.$.*.*.H - X w.w.w.w.w.w.w.w.w.w.w.w.w.w.w.w.w.w.w.w.w.w.",
"w.w.w.w.w.w.w.w.w.w.w.w.w.w.w.w.w.w.w.w.w.w.w.w.X % v ..o.X.b 9 + + 9 B ` :.:.Q , X w.w.w.w.w.w.w.w.w.w.w.w.w.w.w.w.w.w.w.w.w.w.",
"w.w.w.w.w.w.w.w.w.w.w.w.w.w.w.w.w.w.w.w.w.w.w.w.. % v ..U b < + w.w.+ 1 F  . .F - X w.w.w.w.w.w.w.w.w.w.w.w.w.w.w.w.w.w.w.w.w.w.",
"w.w.w.w.w.w.w.w.w.w.w.w.w.w.w.w.w.w.w.w.w.w.w.w.X @ q N b q + X w.w.. # i D F i & X w.w.w.w.w.w.w.w.w.w.w.w.w.w.w.w.w.w.w.w.w.w.",
"w.w.w.w.w.w.w.w.w.w.w.w.w.w.w.w.w.w.w.w.w.w.w.w.X + > 8 0 , o . w.w.w.w.& * - & w.w.w.w.w.w.w.w.w.w.w.w.w.w.w.w.w.w.w.w.w.w.w.w.",
"w.w.w.w.w.w.w.w.w.w.w.w.w.w.w.w.w.w.w.w.w.w.w.w.X o 2 r 8 2 O X w.w.w.w.X X X X w.w.w.w.w.w.w.w.w.w.w.w.w.w.w.w.w.w.w.w.w.w.w.w.",
"w.w.w.w.w.w.w.w.w.w.w.w.w.w.w.w.w.w.w.w.w.w.w.w.X # 8 j z 8 # X w.w.w.w.w.w.w.w.w.w.w.w.w.w.w.w.w.w.w.w.w.w.w.w.w.w.w.w.w.w.w.w.",
"w.w.w.w.w.w.w.w.w.w.w.w.w.w.w.w.w.w.w.w.w.w.w.w.. # 8 j j 8 # X w.w.w.w.w.w.w.w.w.w.w.w.w.w.w.w.w.w.w.w.w.w.w.w.w.w.w.w.w.w.w.w.",
"w.w.w.w.w.w.w.w.w.w.w.w.w.w.w.w.w.w.w.w.w.w.w.w.w.o - ; ; & o w.w.w.w.w.w.w.w.w.w.w.w.w.w.w.w.w.w.w.w.w.w.w.w.w.w.w.w.w.w.w.w.w.",
"w.w.w.w.w.w.w.w.w.w.w.w.w.w.w.w.w.w.w.w.w.w.w.w.w.w.w.w.w.w.w.w.w.w.w.w.w.w.w.w.w.w.w.w.w.w.w.w.w.w.w.w.w.w.w.w.w.w.w.w.w.w.w.w.",
"w.w.w.w.w.w.w.w.w.w.w.w.w.w.w.w.w.w.w.w.w.w.w.w.w.w.w.w.w.w.w.w.w.w.w.w.w.w.w.w.w.w.w.w.w.w.w.w.w.w.w.w.w.w.w.w.w.w.w.w.w.w.w.w.",
"w.w.w.w.w.w.w.w.w.w.w.w.w.w.w.w.w.w.w.w.w.w.w.w.w.w.w.w.w.w.w.w.w.w.w.w.w.w.w.w.w.w.w.w.w.w.w.w.w.w.w.w.w.w.w.w.w.w.w.w.w.w.w.w."
};
