/* XPM */
static char *result[] = {
/* columns rows colors chars-per-pixel */
"64 64 137 2 ",
"   c #1E0E17",
".  c #1F0F18",
"X  c #200F17",
"o  c #24121A",
"O  c #2A161C",
"+  c #2D191E",
"@  c #321C1F",
"#  c #391E1F",
"$  c #321D20",
"%  c #391F20",
"&  c #372124",
"*  c #3A2122",
"=  c #3A2428",
"-  c #482724",
";  c #452927",
":  c #492824",
">  c #402728",
",  c #452A29",
"<  c #4A2D2A",
"1  c #562F28",
"2  c #55312B",
"3  c #5E352C",
"4  c #472F33",
"5  c #4C3234",
"6  c #533532",
"7  c #563834",
"8  c #5C3B34",
"9  c #543A3C",
"0  c #5B3D3B",
"q  c #64372C",
"w  c #623F35",
"e  c #644035",
"r  c #694236",
"t  c #62423C",
"y  c #69453B",
"u  c #6F483D",
"i  c #744737",
"p  c #7B4635",
"a  c #7D4937",
"s  c #734B3D",
"d  c #7B4E3C",
"f  c #7C503F",
"g  c #5A3F41",
"h  c #5D4243",
"j  c #654541",
"k  c #6A4A43",
"l  c #734D42",
"z  c #7C5242",
"x  c #74524A",
"c  c #7F594B",
"v  c #7C5B52",
"b  c #844B37",
"n  c #894D37",
"m  c #804B39",
"M  c #894F3B",
"N  c #835643",
"B  c #885642",
"V  c #875945",
"C  c #8A5A45",
"Z  c #8F5E48",
"A  c #905D46",
"S  c #9A5C43",
"D  c #915F48",
"F  c #835F51",
"G  c #8F614E",
"H  c #91604A",
"J  c #9E6249",
"K  c #8C6454",
"L  c #83675F",
"P  c #8F6858",
"I  c #906857",
"U  c #9E6C56",
"Y  c #926A59",
"T  c #996F5E",
"R  c #9E705C",
"E  c #A26146",
"W  c #AA6346",
"Q  c #A3664A",
"!  c #A1684E",
"~  c #AD694A",
"^  c #B56D4C",
"/  c #B86D4B",
"(  c #BF704D",
")  c #A26A52",
"_  c #AB6E54",
"`  c #AD7157",
"'  c #A3725E",
"]  c #A8745F",
"[  c #B47256",
"{  c #B4765A",
"}  c #BC7A5E",
"|  c #866860",
" . c #8E6E67",
".. c #926D61",
"X. c #8F7067",
"o. c #8E736B",
"O. c #937064",
"+. c #9E7A6C",
"@. c #8F7770",
"#. c #8F7974",
"$. c #937C74",
"%. c #9C7D74",
"&. c #947E7B",
"*. c #A47362",
"=. c #AB7661",
"-. c #AD7966",
";. c #AA7E6B",
":. c #B07C69",
">. c #C26E49",
",. c #C2714D",
"<. c #9D8075",
"1. c #968078",
"2. c #99827B",
"3. c #AE806D",
"4. c #AA8172",
"5. c #A18179",
"6. c #B38876",
"7. c #B68C7A",
"8. c #918485",
"9. c #958689",
"0. c #938C8F",
"q. c #948E95",
"w. c #9E9493",
"e. c #9A969A",
"r. c #9E9A9D",
"t. c #A98E83",
"y. c #AB948C",
"u. c #AA9792",
"i. c #A59996",
"p. c #AF9B94",
"a. c #A19B9C",
"s. c #B09E98",
"d. c #979BA6",
"f. c #9DA7B2",
"g. c #AAA9AD",
"h. c #A5ADB6",
"j. c None",
/* pixels */
"j.j.j.j.j.j.j.j.j.j.j.j.,.,.,.,.( ,.,.,.j.j.j.j.j.j.j.j.j.j.j.j.j.j.j.j.j.j.j.j.j.j.j.j.,.,.,.,.,.,.,.,.j.j.j.j.j.j.j.j.j.j.j.j.",
"j.j.j.j.j.j.j.j.j.j.j.j.( ( ( ( ( ( ( ( j.j.j.j.j.j.j.j.j.j.j.j.j.j.j.j.j.j.j.j.j.j.j.j.( ( ( ( ( ( ( ( j.j.j.j.j.j.j.j.j.j.j.j.",
"j.j.j.j.j.j.j.j.j.j.j.j.^ ^ / / / / / ^ j.j.j.j.j.j.j.j.j.j.j.j.j.j.j.j.j.j.j.j.j.j.j.j.( ^ ^ ^ / ^ ^ ( j.j.j.j.j.j.j.j.j.j.j.j.",
"j.j.j.j.j.j.j.j.j.j.j.j.~ ~ ~ ~ W ~ ~ ~ j.j.j.j.j.j.j.j.j.j.j.j.j.j.j.j.j.j.j.j.j.j.j.j.~ ~ ~ ~ ~ ~ ~ ~ j.j.j.j.j.j.j.j.j.j.j.j.",
"j.j.j.j.j.j.j.j.j.j.j.j.J J J J J J J J j.j.j.j.j.j.j.j.j.j.j.j.j.j.j.j.j.j.j.j.j.j.j.j.J J J H J J J J j.j.j.j.j.j.j.j.j.j.j.j.",
"j.j.j.j.j.j.j.j.j.j.j.j.A A A A M H H H j.j.j.j.j.j.j.j.j.j.j.j.j.j.j.j.j.j.j.j.j.j.j.j.A A A H H H C C j.j.j.j.j.j.j.j.j.j.j.j.",
"j.j.j.j.j.j.j.j.j.j.j.j.V V V V N H H N j.j.j.j.j.j.j.j.j.j.j.j.j.j.j.j.j.j.j.j.j.j.j.j.M H H H M G c H j.j.j.j.j.j.j.j.j.j.j.j.",
"j.j.j.j.j.j.j.j.j.j.j.j.B B B B V V M B j.j.j.j.j.j.j.j.j.j.j.j.j.j.j.j.j.j.j.j.j.j.j.j.f M M N V M M V j.j.j.j.j.j.j.j.j.j.j.j.",
"j.j.j.j.j.j.j.j.j.j.j.j.B B B B M V M f j.j.j.j.j.j.j.j.j.j.j.j.j.j.j.j.j.j.j.j.j.j.j.j.B M V N B B C M j.j.j.j.j.j.j.j.j.j.j.j.",
"j.j.j.j.j.j.j.j.j.j.j.j.C C V V N H G H j.j.j.j.j.j.j.j.j.j.j.j.j.j.j.j.j.j.j.j.j.j.j.j.C B V V V C C C j.j.j.j.j.j.j.j.j.j.j.j.",
"j.j.j.j.j.j.j.j.j.j.j.j.K G K K K K I Y j.j.j.j.j.j.j.j.j.j.j.j.j.j.j.j.j.j.j.j.j.j.j.j.Y P P K K K K K j.j.j.j.j.j.j.j.j.j.j.j.",
"j.j.j.j.j.j.j.j.j.j.j.' O.X.o.@.1.1.1.<.3.j.j.j.j.j.j.j.j.j.j.j.j.j.j.j.j.j.j.j.j.j.j.3.<.1.1.$.@.o.O.O.' j.j.j.j.j.j.j.j.j.j.j.",
"o o o o . o # 3 n W [ -.%.1.8.0.e.r.a.y.6.} >.>.,.,.,.,.( ,.,.,.,.,.( ,.,.,.,.>.,.,.} 6.y.a.r.e.0.8.1.%.] [ ~ n 3 * o . o o o o ",
"o o o o o o * q n ~ [ :.5.9.q.d.f.h.g.s.7.} ( ( ,.( ( ( ( ( ( ( ( ( ( ( ( ( ( ( ( ,.} 7.s.g.h.f.d.q.9.2.3.[ W n 3 * o . o o o o ",
"o o o . X o % 3 b W [ -.5.9.q.d.f.h.g.i.6.{ / / / ( / / ^ ( ^ ( ( ^ ^ ( ^ ( ^ ( / / [ 6.p.g.h.f.d.q.9.5.3.[ E b 3 % o o o o o O ",
"o o o o o o % 2 a S _ ' +.&.8.q.e.a.i.7.3.` ~ ~ ~ ~ ~ ~ ~ ~ ~ ~ ~ ~ ~ ~ ~ ~ ~ ~ W ^ ` 3.t.i.a.e.q.8.&.+.] ~ J a 2 % o . o o o o ",
"o o o o . o & 2 i H J U T O.o.#.1.1.<.+.R J J J E Q J E J Q ! Q J J Q J J Q J Q E J ) R <.<.1.1.$.o.O.T U J C s 2 % o o o o o o ",
"o o o o o o $ < r f H H G G K K K K P G G H H H C H H H H H M H D H A A H A A C A H H G G I K K K K G G G Z M e < $ o X o o o o ",
"o o o o o o @ ; 8 i z z z z V V c N c N f f f f f f f f d f f f f f f f f f f f f f f f f f c c N N z N N f s 8 ; $ o o o o o o ",
"O o o o o o + * < 8 e y u s l s s u u y e e e e w w w e e w w w e e w w e e w w w e e y y s s s l s k u r e 8 < * + o o o o O o ",
"o o o o o o O $ * , < 7 0 t t t t t t 7 7 5 < < < < < < , < , < < , < < < , < , < , < 6 0 0 t y j j t 0 6 < , & + O o o o o o o ",
"O o o o o o o O + + & , 5 9 h h h g 9 5 = * $ @ + @ + $ $ $ $ $ $ $ $ $ $ $ $ @ @ $ = = 5 9 g h h h 9 5 = & $ O O O o o o o O o ",
"o o o O o o o o o O + = 4 9 h h h h 9 4 = + o o o o o O o o o O o O o o o O o o o o $ = 4 9 g h h g 9 4 = $ o o o o o O o O o o ",
"o o o o o o o o . . + = 5 0 t k k j 0 5 = O o X X o . . o . o . X X X X o X X X X X + = 5 0 j k k j 0 5 = + o . o o o o o o o o ",
"o o o o O o o o . o + = 7 y l x x l y 7 = + o X X o . o o o . o X o o o X o o   X o + = 8 y s x x l y 7 = + o . . o o o o O o o ",
"o O o o o o o o . o & < w s c V V N l w < @ O X . o o o o o o o o o o O o o o o o o @ , w s c M C c s w < $ o . o o O o o o o o ",
"O o O o o o o o X o $ , e f B Z H V f e < $ O . o o O o o o o o o o o o o o o o o o $ < e f H H H N f e < $ o o o O o o o o o o ",
"o o o o o o o o . o & < r f C H H H f e < $ o o . o o o o O o o O o o o o o o . X o $ < e f V H H H f e < % o X . o o o o o O o ",
"o o o o O o o o o o $ < e f C H H N f e < $ o . o o O o o o o o o o o o o O o o o o $ < e f M H H H d e < $ o o . o o o o o o o ",
"o o o o o o o . X o @ < e f B H H N f e < $ O . o o o o o o o O o O o o o o o o . o $ < e s H H H M d e < & o . o o O o o O o o ",
"O o o o o o o o o o & < e f C Z H H f w < $ o . o O o o o o o o o o o o o o o o o o $ < e f H H H V f e < $ O . o o o o o o o O ",
"o o o O o O o o X o @ < e f C H H M f w < $ O . . o o o O o o o + o o o o o o o o o $ < e d N N H H f e < $ o . o o o O o o o o ",
"O o o o o o o o X O $ < e d B Z H H f e < $ O . o o o o o o O o o o o o o O o o X o $ < e f V H C V f e < $ o o o o O o o o o O ",
"o o o o o o o o X o $ < e z V D H N f e < $ o . o o o O o o o o o o o o o o o o o o $ < e f V H H V d e < $ o X o o o o o o o o ",
"o o o O o o o o X O $ < w z V D C N f e < $ O . . o o o o O o o o o o o o o o o X o $ < e f H C H C f e < $ o X o o o o o o o o ",
"o o o o o o o X X o $ < r d V Z H C f e < $ o . o o o o o o o o o o + o o o o o X O $ < e f V H H C f e < $ O X X o o o o + o o ",
"o o o o o o O o X o $ < w N B D H N f e < $ o o o o O o o o o O o o o o o o o o X o $ < w f M H C C f e < $ O X o o O o o o o o ",
"O o o o o o o o o o $ < w d V D H B f e < $ o . . o o o o O o o o o o o o o o o o o $ < e s H H H V f w < $ o o o o o o o o o O ",
"o O O o o o o o o o $ < w z B Z H H f e < $ o . o o o o o o o o o + o o o o o o X o $ < e f H H A H d w < $ o X o o o o o + o o ",
"o o o o o o o X X X @ , w z B A M M d e , + o   . . o o . o . o . . o . . o . .   X + , 8 d M C A M d w , + X X . o o o o o o o ",
"o o O o o o o . X o + ; w d B A H M f 8 , + X     X X . o . X . . o o . X X o     o + ; e d M V A B d e , + . X . o o o o o o o ",
"o O o o o o o o X o $ < w z C D G G f e < $ o o o o o o o o o O o o o o o O o o . o $ < e f H H H C f e < $ O o o o o o O o o o ",
"o o o o o o O O $ % ; 7 l N F P K K v x 8 ; * # % * * * * * * * * * = * * # # % % % ; 8 l v P I K G c k 7 ; % + + O o o o o O o ",
"o O o o . O O % - 1 w l v | o.$.1.1.1.v x e 3 3 3 3 q 3 q 3 3 3 3 3 q 8 3 q 3 3 3 8 e x L @.1.1.$.o.L v s w 3 : $ + o o o o o o ",
"o o o o o O + , q p B K X.#.8.q.e.r.w.1.O.H b b n n n M M M M n M M M M M M M n b n H ..1.w.r.r.q.8.#.o.K B a q : $ o o o o o o ",
"o o o . . o % 1 p S ! *.<.0.q.d.f.h.g.i.4._ W W W Q W W Q W W W W W W W W W W W W W _ 3.i.g.h.f.d.q.8.%.' ! M b 1 & o   o o o o ",
"o o o o X o % 3 b E [ -.<.9.q.d.f.h.g.p.6.{ ^ / / / / ^ / / / / ^ ^ ^ ^ ^ ^ ^ ^ / ^ { 6.p.g.h.f.d.q.9.5.3.^ E b 3 % o o o o o o ",
"o o o o X O % 2 m J _ =.+.1.8.0.e.a.a.7.3.` ^ ^ ^ ^ ~ ^ ^ ^ ^ ^ ^ ^ ^ ^ ^ ^ ^ ^ ^ ^ ` 3.t.i.r.e.q.8.1.+.] ` E a 3 $ o   o o o O ",
"o o o o . o $ 2 a A ! U T ..o.$.1.1.1.<.R ! Q Q Q W Q Q J Q Q Q Q E Q Q ! ! Q Q Q Q ) ' <.1.1.1.$.o. .T U ! A s 2 % o o o o o o ",
"O o o o o o $ < r N Z H G K K K K K I G H H H H H A H H H H H H H H H H H M H H H H H G G K P K K K G G H Z M r < @ o o X o o o ",
"o o o o o o $ , 8 i f N z N z N c V f c f f f f f f d f f f f f f f f f m f f f f f f f f N c V z N z N N z s 8 ; @ o o o o o o ",
"o o o o o o + * < 8 e y s s l l s s s y r r e w w w w e w w w e w e e e e e w w e e e r u u s s l l l u r e 8 < * + o o o o O o ",
"o o o o o o + $ * , 5 7 0 t t j j t t 7 6 < , < ; < < < < , < ; ; < < < < ; < , ; < < 6 8 0 t t j j t 0 6 < , & & O O o o o o o ",
"o o o O o o o O O @ & = 5 9 g h h g 9 5 = * $ $ @ @ $ $ $ @ $ $ $ @ $ @ $ @ $ $ @ $ * = 5 9 h h h h 9 5 > & $ O o o o o o o o o ",
"o o o o o o o o o o + = 4 9 g h h h 9 4 = $ o X o o o o o o O o o O o o O o o o o O $ = 4 9 h h h g 9 4 = + o o o o o o o o O o ",
"O o o o o O o o . o + = 5 0 j k k j 0 5 = + o   X X . o . o X X X o . . X o . .   . + = 5 g y k k j 0 5 = + o . o o o o O o o o ",
"o o o o o o o o . o + , 7 y x z l l y 7 = $ o   . o o o o o o o . o . o . . o . X o + = 8 y l x x l y 7 = + o o o o o O o o o O ",
"o O o o o o o o o o @ < 8 s z V H f s 0 , $ o o o o o o o o o o o o o O O o o o X o $ , w s f V N c s w < @ o X o o o o o o o o ",
"o o O o o o o . X o $ < e f C G H V f e < $ o . o o o o o o o o o o o o o O o . X O $ < e f H H H C f e < $ o o o o o o o o o o ",
"o O o o o o o o X o $ < e f C H H H f e < $ O o o o o o o o o O O o o o o o o o X O $ < e f N H H C f e < % o X . o o o o o O o ",
"o o O o o o o o o o $ < e f C H H M f e < $ o o . o o o o o o o o o o o o o O . o o $ < w f M H H C f r < @ o X . O o o o o o o ",
"o o o o o o O o X o $ < e f B H H H f e < & o . o o o o O o o o O o o O o o o o . o $ < e s H H H C f e < @ o o o o o o O o O o ",
"o o o o O o o X X O $ < e f C H H N f e < $ o o o o O o o o O o o o o o o o o . o o $ < e f V H H H f e < & o o . o o O o O o o ",
"o o o O o o o o X o $ < e f B Z H N f e < $ o . o o o o o o o o o o o o o O o o . o $ < e f H N H M f e , & o . . O o o o o o o "
};
