/* XPM */
static char *result[] = {
/* columns rows colors chars-per-pixel */
"64 64 90 1 ",
"  c #070603",
". c #080704",
"X c #0A0805",
"o c #0E0D09",
"O c #120E0B",
"+ c #16110E",
"@ c #19130F",
"# c #171411",
"$ c #1B1512",
"% c #1D1A14",
"& c #171819",
"* c #201A16",
"= c #251D19",
"- c #291E1A",
"; c #26231C",
": c #2C211D",
"> c #32231F",
", c #2D2D29",
"< c #322623",
"1 c #332A25",
"2 c #3A2A26",
"3 c #352C29",
"4 c #3B2E2B",
"5 c #35342A",
"6 c #3D322D",
"7 c #3E3431",
"8 c #32373D",
"9 c #402C27",
"0 c #422E2A",
"q c #44322D",
"w c #49332E",
"e c #453631",
"r c #4A3531",
"t c #443932",
"y c #4C3B35",
"u c #483B38",
"i c #533A36",
"p c #563E39",
"a c #583F3B",
"s c #3E4735",
"d c #4A4337",
"f c #4B453A",
"g c #4D4B3E",
"h c #5A423D",
"j c #4B503E",
"k c #454A4C",
"l c #5E4641",
"z c #514C42",
"x c #5B4941",
"c c #4F5542",
"v c #535543",
"b c #5A5345",
"n c #5D564A",
"m c #595C4A",
"M c #545C5C",
"N c #604742",
"B c #634A45",
"V c #644E49",
"C c #65554B",
"Z c #615A4B",
"A c #5F6951",
"S c #666452",
"D c #696453",
"F c #646E56",
"G c #696C57",
"H c #6B675C",
"J c #756C5C",
"K c #786F5D",
"L c #667058",
"P c #6B735B",
"I c #6B7A5D",
"U c #606B67",
"Y c #6E7D61",
"T c #747667",
"R c #7C7663",
"E c #8E6F65",
"W c #817766",
"Q c #827967",
"! c #917166",
"~ c #927268",
"^ c #738366",
"/ c #768569",
"( c #7C8471",
") c #7E8C75",
"_ c #7E8A79",
"` c #808F73",
"' c #829177",
"] c #859479",
"[ c #89977D",
"{ c None",
/* pixels */
"{{{{{{{{{{{{{{{{{{{{{{{{{{{{{{{{{{{{{{{{{{{{{{{{{{{{{{{{{{{{{{{{",
"{{{{{{{{{{{{{{{{{{{{{{{{{{{{{{{{{{{{{{{{{{{{{{{{{{{{{{{{{{{{{{{{",
"{{{{{{{{{{{{{{{{{{{{{{{{{{{{{{{{{{{{{{{{{{{{{{{{{{{{{{{{{{{{{{{{",
"{{{{{{{{{{{{{{{{{{{{{{{{{{{{{{{{{{{{{{{{{{{{{{{{{{{{{{{{{{{{{{{{",
"{{{{{{{{{{{{{{{{{{{{{{{{{{{{{{{{{{{{{{{{{{{{{{{{{{{{{{{{{{{{{{{{",
"{{{{{{{{{{{{{{{{{{{{{{{{{{{{{{{{{{{{{{{{{{{{{{{{{{{{{{{{{{{{{{{{",
"{{{{{{{{{{{{{{{{{{{{{{{{{{{{{{{{{{{{{{{{{{{{{{{{{{{{{{{{{{{{{{{{",
"{{{{{{{{{{{{{{{{{{{{{{{{{{{{{{{{{{{{{{{{{{{{{{{{{{{{{{{{{{{{{{{{",
"{{{{{{{{{{{{{{{{{{{{{{{{{{{{{{{{{{{{{{{{{{{{{{{{{{{{{{{{{{{{{{{{",
"{{{{{{{{{{{{{{{{{{{{{{{{{{{{{{{{{{{{{{{{{{{{{{{{{{{{{{{{{{{{{{{{",
"{{{{{{{{{{{{{{{{{{{{{{{{{{{{{{{{{{{{{{{{{{{{{{{{{{{{{{{{{{{{{{{{",
"{{{{{{{{{{{{{{{{{{{{{{{{{{{{{{{{{{{{{{{{{{{{{{{{{{{{{{{{{{{{{{{{",
"{{{{{{{{{{{{{{{{{{{{{{{{{{{{{{{{{{{{{{{{{{{{{{{{{{{{{{{{{{{{{{{{",
"{{{{{{{{{{{{{{{{{{{{{{{{{{{{{{{{{{{{{{{{{{{{{{{{{{{{{{{{{{{{{{{{",
"{{{{{{{{{{{{{{{{{{{{{{{{{{{{{{{{{{{{{{{{{{{{{{{{{{{{{{{{{{{{{{{{",
"{{{{{{{{{{{{{{{{{{{{{{{{{{{{{{{{{{{{{{{{{{{{{{{{{{{{{{{{{{{{{{{{",
"{{{{{{{{{{{{{{{{{{{{{{{{{{{{{{{{{{{{{{{{{{{{{{{{{{{{{{{{{{{{{{{{",
"{{{{{{{{{{{{{{{{{{{{{{{{{{{{{{{{{{{{{{{{{{{{{{{{{{{{{{{{{{{{{{{{",
"{{{{{{{{{{{{{{{{{{{{{{{{{{{{{{{{{{{{{{{{{{{{{{{{{{{{{{{{{{{{{{{{",
"{{{{{{{{{{{{{{{{{{{{{{{{{{{{{{{{{{{{{{{{{{{{{{{{{{{{{{{{{{{{{{{{",
"{{{{{{{{{{{{{{{{{{{{{{{{{{{{{{{{{{{{{{{{{{{{{{{{{{{{{{{{{{{{{{{{",
"{{{{{{{{{{{{{{{{{{{{{{{{{{{{{{{{{{{{{{{{{{{{{{{{{{{{{{{{{{{{{{{{",
"{{{{{{{{{{{{{{{{{{{{{{{{{{{{XX{{{{XXXX{{{{{{{{{{{{{{{{{{{{{{{{{{",
"{{{{{{{{{{{{{{{{{{{{{{{{{{{{@${{{{@$$@{{{{{{{{{{{{{{{{{{{{{{{{{{",
"{{{{{{{{{{{{{{{{{{{{{{{{{{X@>>@ X@>29>@XXXXX{{{{{{{{{{{{{{{{{{{{",
"{{{{{{{{{{{{{{{{{{{{{{{{{{@-ww-@@-wpi0-@@@$${{{{{{{{{{{{{{{{{{{{",
"{{{{{{{{{{{{{{{{{{{{{{{{ @>qpaw>20pNNp02222<*X{{{{{{{{{{{{{{{{{{",
"{{{{{{{{{{{{{{{{{{{{{{{{$:qpNNpiipNBBNpiii0>@X{{{{{{{{{{{{{{{{{{",
"{{{{{{{{{{{{{{{{{{{{{{ $qihNBBNNNNBBBBNNNi-@{{{{{{{{{{{{{{{{{{{{",
"{{{{{{{{{{{{{{{{{{{{{{+:iVVBBBBBBBBBBBNlly:${{{{{{{{{{{{{{{{{{{{",
"{{{{{{{{{{{{{{{{{{{{.@>whVBBBBBBBBBBBNiiiyy0*.{{{{{{{{{{{{{{{{{{",
"{{{{{{{{{{{{{{{{{{{{@=9ilVBBBBBBBBBNNaiiiaBi*.{{{{{{{{{{{{{{{{{{",
"{{{{{{{{{{{{{{{{{{X@>0rilBBBBBBBBBBNpihlNNBi*.{{{{{{{{{{{{{{{{{{",
"{{{{{{{{{{{{{{{{{{X$>0raNBBBBBBBBBBNppNNBBBp:#{{{{{{{{{{{{{{{{{{",
"{{{{{{{{{{{{{{{{{{{{$-yNBBBBBBBBBBNNNNNBBBBhw>@X{{{{{{{{{{{{{{{{",
"{{{{{{{{{{{{{{{{{{{{ *rNBBBBlNNBNNBBBBBBBBNhw>@X{{{{{{{{{{{{{{{{",
"{{{{{{{{{{{{{{{{{{{{.$rlNBBNpiNNihNBBBBBBNp0-@{{{{{{{{{{{{{{{{{{",
"{{{{{{{{{{{{{{{{{{{{$-rpNBBNppaaiiNBBBBBBNi2@.{{{{{{{{{{{{{{{{{{",
"{{{{{{{{{{{{{{{{{{X$2rihNBBBNaiphlBBBBBBBNa0$ {{{{{{{{{{{{{{{{{{",
"{{{{{{{{{{{{{{{{{{X$3rialBBBBlppNBBBBBBBBNhr:${{{{{{{{{{{{{{{{{{",
"{{{{{{{{{{{{{{{{{{{{*-rahllBBBllNBBBBBBBBBhir2#X{{{{{{{{{{{{{{{{",
"{{{{{{{{{{{{{{{{{{{{ $0appllBBBBBBBBBBBBBhhir2$X{{{{{{{{{{{{{{{{",
"{{{{{{{{{{{{{{{{{{{{.$wappplNBBBBBNBBBBNhhhw:${{{{{{{{{{{{{{{{{{",
"{{{{{{{{{{{{{{{{{{{{X#2rippalVCCCCCCNNNhhiw1#.{{{{{{{{{{{{{{{{{{",
"{{{{{{{{{{{{{{{{{{{{{{$-rapplCSPPPPDNhhhhw:#{{{{{{{{{{{{{{{{{{{{",
"{{{{{{{{{{{{{{{{{{{{{{X#<rihBSIYYYYPZhhiw<+.{{{{{{{{{{{{{{{{{{{{",
"{{{{{{{{{{{{{{{{{{{{{{XO+-rxSPY^YYYYPShw:+oX{{{{{{{{{{{{{{{{{{{{",
"{{{{{{{{{{{{{{{{{{{{{{$#+=tZPYIIYYYY^LZt=+#${{{{{{{{{{{{{{{{{{{{",
"{{{{{{{{{{{{{{{{{{{{X$34<6vFIII^YYYYYIFv6<63$X{{{{{{{{{{{{{{{{{{",
"{{{{{{{{{{{{{{{{{{{{X$4u4tcAI^/////^^PFc74u4$X{{{{{{{{{{{{{{{{{{",
"{{{{{{{{{{{{{{{{{{{{X#<6447gF/'[[[['^Fgt444<#X{{{{{{{{{{{{{{{{{{",
"{{{{{{{{{{{{{{{{{{{{$=<324tzF^)]]]])^Fze423<=${{{{{{{{{{{{{{{{{{",
"{{{{{{{{{{{{{{{{{{X$36442tmPIYIIIIIIYILmt22473$X{{{{{{{{{{{{{{{{",
"{{{{{{{{{{{{{{{{{{X$7u3<6gmFIYIIIIIIIILmg613u7$X{{{{{{{{{{{{{{{{",
"{{{{{{{{{{{{{{{{{{.%7t=;jmggF/']]]])/Fzfmj;=77$ {{{{{{{{{{{{{{{{",
"{{{{{{{{{{{{{{{{{{#=73#%scdgGT)_(())/Ggfcs%#67=+{{{{{{{{{{{{{{{{",
"{{{{{{{{{{{{{{{{.#147<@o%5nJRTUAczMUTWJC5%o+<67,#X{{{{{{{{{{{{{{",
"{{{{{{{{{{{{{{{{.=xCe=+. ;ZQWUk8338kUWWZ; .+=6Vx=X{{{{{{{{{{{{{{",
"{{{{{{{{{{{{{{{{ 1E!4O{{ =bJJC,&{{&,nKKb; {{O6~E2.{{{{{{{{{{{{{{",
"{{{{{{{{{{{{{{{{ 4~!1 {{X%dZZd%.{{X%dZZd*X{{ 2!!4 {{{{{{{{{{{{{{",
"{{{{{{{{{{{{{{{{{=ye%X{{X#;11;+X{{X+:11;+X{{X*ey*{{{{{{{{{{{{{{{",
"{{{{{{{{{{{{{{{{{{{{{{{{{{{{{{{{{{{{{{{{{{{{{{{{{{{{{{{{{{{{{{{{",
"{{{{{{{{{{{{{{{{{{{{{{{{{{{{{{{{{{{{{{{{{{{{{{{{{{{{{{{{{{{{{{{{",
"{{{{{{{{{{{{{{{{{{{{{{{{{{{{{{{{{{{{{{{{{{{{{{{{{{{{{{{{{{{{{{{{"
};
