/* XPM */
static char *result[] = {
/* columns rows colors chars-per-pixel */
"64 64 183 2 ",
"   c #000000",
".  c #0C0707",
"X  c #0C0807",
"o  c #0D0C0A",
"O  c #150603",
"+  c #1A0602",
"@  c #110907",
"#  c #180804",
"$  c #120C09",
"%  c #0F120C",
"&  c #14130D",
"*  c #18160F",
"=  c #12180F",
"-  c #151411",
";  c #161A11",
":  c #191C16",
">  c #1D1D19",
",  c #1C1716",
"<  c #22130F",
"1  c #35190F",
"2  c #241E1A",
"3  c #281C15",
"4  c #301B14",
"5  c #1E2119",
"6  c #242217",
"7  c #24231C",
"8  c #2A241C",
"9  c #24291A",
"0  c #2C291B",
"q  c #322419",
"w  c #3D221B",
"e  c #262120",
"r  c #292422",
"t  c #272820",
"y  c #2B2B21",
"u  c #332A25",
"i  c #362D29",
"p  c #3A2F2A",
"a  c #2C3324",
"s  c #373222",
"d  c #3A3525",
"f  c #3B3826",
"g  c #37302C",
"h  c #3C322C",
"j  c #3E392F",
"k  c #333E27",
"l  c #3E3A32",
"z  c #48180C",
"x  c #46160A",
"c  c #5C1E0F",
"v  c #5C1F10",
"b  c #43251D",
"n  c #42291F",
"m  c #452C22",
"M  c #4C2D24",
"N  c #532E24",
"B  c #463827",
"V  c #41342B",
"C  c #4D342C",
"Z  c #433D2B",
"A  c #493525",
"S  c #553126",
"D  c #5E3721",
"F  c #553529",
"G  c #593629",
"H  c #5B3A2B",
"J  c #543B2D",
"K  c #443732",
"L  c #433C33",
"P  c #483C37",
"I  c #453D39",
"U  c #533E31",
"Y  c #6C3C26",
"T  c #723F27",
"R  c #36422B",
"E  c #38442D",
"W  c #45432D",
"Q  c #4B432E",
"!  c #56422E",
"~  c #5A422F",
"^  c #454135",
"/  c #4C4631",
"(  c #464D34",
")  c #4E4831",
"_  c #4B443B",
"`  c #434C3A",
"'  c #4B4E3A",
"]  c #5C4531",
"[  c #544C34",
"{  c #5E4A34",
"}  c #504F3F",
"|  c #465537",
" . c #4B5135",
".. c #475738",
"X. c #4B533C",
"o. c #4C5B3C",
"O. c #5C543A",
"+. c #5D5A3D",
"@. c #794126",
"#. c #734128",
"$. c #624C35",
"%. c #614C39",
"&. c #665236",
"*. c #62543D",
"=. c #6D573A",
"-. c #635B3E",
";. c #6A5C3F",
":. c #656E3E",
">. c #4E4540",
",. c #534B42",
"<. c #564C48",
"1. c #495440",
"2. c #4E5B41",
"3. c #555345",
"4. c #5C5642",
"5. c #535C46",
"6. c #5E534E",
"7. c #5A5B48",
"8. c #5F5450",
"9. c #645540",
"0. c #655D42",
"q. c #6E5D45",
"w. c #5C6645",
"e. c #5E6A46",
"r. c #556248",
"t. c #5A654B",
"y. c #5C6A4C",
"u. c #546444",
"i. c #5F724A",
"p. c #5E6A51",
"a. c #616140",
"s. c #696144",
"d. c #616A47",
"f. c #64644C",
"g. c #6A644B",
"h. c #636C4B",
"j. c #6B6A4E",
"k. c #726A4C",
"l. c #62744D",
"z. c #626752",
"x. c #636C52",
"c. c #6B6E53",
"v. c #647552",
"b. c #6B7355",
"n. c #667953",
"m. c #697B56",
"M. c #6E735A",
"N. c #6D7D5C",
"B. c #727953",
"V. c #737C62",
"C. c #81331D",
"Z. c #84442B",
"A. c #895E41",
"S. c #8C6344",
"D. c #8B7556",
"F. c #957654",
"G. c #6B814C",
"H. c #6F815D",
"J. c #70815E",
"K. c #788854",
"L. c #738361",
"P. c #788765",
"I. c #778B60",
"U. c #7A8A65",
"Y. c #7D9266",
"T. c #8E815C",
"R. c #888261",
"E. c #838B6B",
"W. c #878D69",
"Q. c #938B67",
"!. c #928E69",
"~. c #83916B",
"^. c #88916D",
"/. c #839C60",
"(. c #96916B",
"). c #8E9A73",
"_. c #8B9470",
"`. c #94AB6E",
"'. c #96AF71",
"]. c #A2AC88",
"[. c #A8B588",
"{. c #AAB88A",
"}. c None",
/* pixels */
"}.}.}.}.}.}.}.}.}.}.}.}.}.}.}.}.}.}.}.}.}.}.}.}.}.}.}.}.}.}.}.}.}.}.}.}.}.}.}.}.}.}.}.}.}.}.}.}.}.}.}.}.}.}.}.}.}.}.}.}.}.}.}.}.",
"}.}.}.}.}.}.}.}.}.}.}.}.}.}.}.}.}.}.}.}.}.}.}.}.}.}.}.}.}.}.}.}.}.}.}.}.}.}.}.}.}.}.}.}.}.}.}.}.}.}.}.}.}.}.}.}.}.}.}.}.}.}.}.}.",
"}.}.}.}.}.}.}.}.}.}.}.}.}.}.}.}.}.}.}.}.}.}.}.}.}.}.}.}.}.}.}.}.}.}.}.}.}.}.}.}.}.}.}.}.}.}.}.}.}.}.}.}.}.}.}.}.}.}.}.}.}.}.}.}.",
"}.}.}.}.}.}.}.}.}.}.}.}.}.}.}.}.}.}.}.}.}.}.}.}.}.}.}.}.}.}.}.}.}.}.}.}.}.}.}.}.}.}.}.}.}.}.}.}.}.}.}.}.}.}.}.}.}.}.}.}.}.}.}.}.",
"}.}.}.}.}.}.}.}.}.}.}.}.}.}.}.}.}.}.}.}.}.}.}.}.}.}.}.}.}.}.}.}.}.}.}.}.}.}.}.}.}.}.}.}.}.}.}.}.}.}.}.}.}.}.}.}.}.}.}.}.}.}.}.}.",
"}.}.}.}.}.}.}.}.}.}.}.}.}.}.}.}.}.}.}.}.}.}.}.}.}.}.}.}.}.}.}.}.}.}.}.}.}.}.}.}.}.}.}.}.}.}.}.}.}.}.}.}.}.}.}.}.}.}.}.}.}.}.}.}.",
"}.}.}.}.}.}.}.}.}.}.}.}.}.}.}.}.}.}.}.}.}.}.}.}.}.}.}.}.}.}.}.}.}.}.}.}.}.}.}.}.}.}.}.}.}.}.}.}.}.}.}.}.}.}.}.}.}.}.}.}.}.}.}.}.",
"}.}.}.}.}.}.}.}.}.}.}.}.}.}.}.}.}.}.}.}.}.}.}.}.}.}.}.}.}.}.}.}.}.}.}.}.}.}.}.}.}.}.}.}.}.}.}.}.}.}.}.}.}.}.}.}.}.}.}.}.}.}.}.}.",
"}.}.}.}.}.}.}.}.}.}.}.}.}.}.}.}.}.}.}.}.}.}.}.}.}.}.}.}.}.}.}.}.}.}.}.}.}.}.}.}.}.}.}.}.}.}.}.}.}.}.}.}.}.}.}.}.}.}.}.}.}.}.}.}.",
"}.}.}.}.}.}.}.}.}.}.}.}.}.}.}.}.}.}.}.}.}.}.}.}.}.}.}.}.}.}.}.}.}.}.}.}.}.}.}.}.}.}.}.}.}.}.}.}.}.}.}.}.}.}.}.}.}.}.}.}.}.}.}.}.",
"}.}.}.}.}.}.}.}.}.}.}.}.}.}.}.}.}.}.}.}.}.}.}.}.}.}.}.}.}.}.}.}.}.}.}.}.}.}.}.}.}.}.}.}.}.}.}.}.}.}.}.}.}.}.}.}.}.}.}.}.}.}.}.}.",
"}.}.}.}.}.}.}.}.}.}.}.}.}.}.}.}.}.}.}.}.}.}.}.}.}.}.}.}.}.}.}.}.}.}.}.}.}.}.}.}.}.}.}.}.}.}.}.}.}.}.}.}.}.}.}.}.}.}.}.}.}.}.}.}.",
"}.}.}.}.}.}.}.}.}.}.}.}.}.}.}.}.}.}.}.}.}.}.}.}.}.}.}.}.}.}.                    }.}.}.}.}.}.}.}.}.}.}.}.}.}.}.}.}.}.}.}.}.}.}.}.",
"}.}.}.}.}.}.}.}.}.}.}.}.}.}.}.}.}.}.}.}.}.}.}.}.}.}.}.}.}.}.; ; & $ $ $ $ $ $ $ }.}.}.}.}.}.}.}.}.}.}.}.}.}.}.}.}.}.}.}.}.}.}.}.",
"}.}.}.}.}.}.}.}.}.}.}.}.}.}.}.}.}.}.}.}.}.}.}.}.}.}.}.}.  ; R  .B n b 1 b b 1 4 @   }.}.}.}.}.}.}.}.}.}.}.}.}.}.}.}.}.}.}.}.}.}.",
"}.}.}.}.}.}.}.}.}.}.}.}.}.}.}.}.}.}.}.}.}.}.}.}.}.}.}.}.X 6  .-.$.G S N N N G m 3 ; }.}.}.}.}.}.}.}.}.}.}.}.}.}.}.}.}.}.}.}.}.}.",
"}.}.}.}.}.}.}.}.}.}.}.}.}.}.}.}.}.}.}.}.}.}.}.}.}.}.  @ 4 m ~ { ~ H S N N S G !  .E =   }.}.}.}.}.}.}.}.}.}.}.}.}.}.}.}.}.}.}.}.",
"}.}.}.}.}.}.}.}.}.}.}.}.}.}.}.}.}.}.}.}.}.}.}.}.}.}.@ < b S H H ] ! F N M N G { d.o.a = }.}.}.}.}.}.}.}.}.}.}.}.}.}.}.}.}.}.}.}.",
"}.}.}.}.}.}.}.}.}.}.}.}.}.}.}.}.}.}.}.}.}.}.}.}.  $ 4 b M N G ] +.+.] F N N G { e.i.o.E ;   }.}.}.}.}.}.}.}.}.}.}.}.}.}.}.}.}.}.",
"}.}.}.}.}.}.}.}.}.}.}.}.}.}.}.}.}.}.}.}.}.}.}.}.  $ w N N F ~ O.e.e.{ G S G ] O.e.i.l.| :   }.}.}.}.}.}.}.}.}.}.}.}.}.}.}.}.}.}.",
"}.}.}.}.}.}.}.}.}.}.}.}.}.}.}.}.}.}.}.}.}.}.}.}.  $ w S F ! +.y.i.e.] H H ] 0.h.i.i.l...=   }.}.}.}.}.}.}.}.}.}.}.}.}.}.}.}.}.}.",
"}.}.}.}.}.}.}.}.}.}.}.}.}.}.}.}.}.}.}.}.}.}.}.}.  # w G ~ O.e.v.i.e.O.{ H { x.m.l.i.i...:   }.}.}.}.}.}.}.}.}.}.}.}.}.}.}.}.}.}.",
"}.}.}.}.}.}.}.}.}.}.}.}.}.}.}.}.}.}.}.}.}.}.}.}.  $ n ] +.e.l.v.v.v.b.s.{ { x.H.n.l.l...:   }.}.}.}.}.}.}.}.}.}.}.}.}.}.}.}.}.}.",
"}.}.}.}.}.}.}.}.}.}.}.}.}.}.}.}.}.}.}.}.}.}.}.}.  & B O.e.v.m.N.N.N.L.b.%.{ b.H.H.H.n...:   }.}.}.}.}.}.}.}.}.}.}.}.}.}.}.}.}.}.",
"}.}.}.}.}.}.}.}.}.}.}.}.}.}.}.}.}.}.}.}.}.}.}.}.  ; ( d.v.m.N.J.J.L.L.b.%.%.c.L.L.H.N.o.:   }.}.}.}.}.}.}.}.}.}.}.}.}.}.}.}.}.}.",
"}.}.}.}.}.}.}.}.}.}.}.}.}.}.}.}.}.}.}.}.}.}.}.}.  ; | n.m.v.t.5.5.5.5.5.O.*.g.x.t.2.2.E -   }.}.}.}.}.}.}.}.}.}.}.}.}.}.}.}.}.}.",
"}.}.}.}.}.}.}.}.}.}.}.}.}.}.}.}.}.}.}.}.}.}.}.}.  * ..n.J.t.a ; ; ; ; a 5.k.-.U 8 : - -     }.}.}.}.}.}.}.}.}.}.}.}.}.}.}.}.}.}.",
"}.}.}.}.}.}.}.}.}.}.}.}.}.}.}.}.}.}.}.}.}.}.}.}.  = E u.m.p.a > t y 5 R y.b.%.A 0 9 y 7 o   }.}.}.}.}.}.}.}.}.}.}.}.}.}.}.}.}.}.",
"}.}.}.}.}.}.}.}.}.}.}.}.}.}.}.}.}.}.}.}.}.}.}.}.}.}.= a y.m.t.x.E.E.K.G.J.b.%.{ :.K.^.M.7   }.}.}.}.}.}.}.}.}.}.}.}.}.}.}.}.}.}.",
"}.}.}.}.}.}.}.}.}.}.}.}.}.}.}.}.}.}.}.}.}.}.}.}.}.}.  : r.L.L.~.].[.'./.K.c.{ &.K.'.{.E.y   }.}.}.}.}.}.}.}.}.}.}.}.}.}.}.}.}.}.",
"}.}.}.}.}.}.}.}.}.}.}.}.}.}.}.}.}.}.}.}.}.}.}.}.}.}.  : 5.L.L.P.E.~.Y.I.L.c.{ %.B.Y.E.p.5   }.}.}.}.}.}.}.}.}.}.}.}.}.}.}.}.}.}.",
"}.}.}.}.}.}.}.}.}.}.}.}.}.}.}.}.}.}.}.}.}.}.}.}.}.}.  5 2.L.L.H.N.N.N.J.L.b.9.*.f.b.m.o.:   }.}.}.}.}.}.}.}.}.}.}.}.}.}.}.}.}.}.",
"}.}.}.}.}.}.}.}.}.}.}.}.}.}.}.}.}.}.}.}.}.}.}.}.      ; o.m.H.J.V.H.N.N.L.V.b.g.9.4.j.2.:   }.}.}.}.}.}.}.}.}.}.}.}.}.}.}.}.}.}.",
"}.}.}.}.}.}.}.}.}.}.}.}.}.}.}.}.}.}.}.}.}.}.}.}.$ @ @ 7 ( e.n.J.P.P.L.L.P.P.L.N.q.q.g. .;   }.}.}.}.}.}.}.}.}.}.}.}.}.}.}.}.}.}.",
"}.}.}.}.}.}.}.}.}.}.}.}.}.}.}.}.}.}.}.}.}.}.  @ 4 u u h l ' y.J.).).P.P.).).P.P.W.R.q.B &   }.}.}.}.}.}.}.}.}.}.}.}.}.}.}.}.}.}.",
"}.}.}.}.}.}.}.}.}.}.}.}.}.}.}.}.}.}.}.}.}.}.  @ b S C L h j X.j.~.).~.E.Q.Q.E.W.(.D.] q @   }.}.}.}.}.}.}.}.}.}.}.}.}.}.}.}.}.}.",
"}.}.}.}.}.}.}.}.}.}.}.}.}.}.}.}.}.}.}.}.}.}.  X 1 N S C V p L ' v.K.).Q.A.S.!.!.S.Y 4 @ }.}.}.}.}.}.}.}.}.}.}.}.}.}.}.}.}.}.}.}.",
"}.}.}.}.}.}.}.}.}.}.}.}.}.}.}.}.}.}.}.}.}.}.5 8 m N M M V p p L X.l.~.T.Z.Z.F.D.Y x +   }.}.}.}.}.}.}.}.}.}.}.}.}.}.}.}.}.}.}.}.",
"}.}.}.}.}.}.}.}.}.}.}.}.}.}.}.}.}.}.}.}.  > X.6.J M V V h h p V L X.v.k.@.C.Z.Y 4 + }.}.}.}.}.}.}.}.}.}.}.}.}.}.}.}.}.}.}.}.}.}.",
"}.}.}.}.}.}.}.}.}.}.}.}.}.}.}.}.}.}.}.}.  , 5.c.9.J K p h h h p p P e.a.D c c z #   }.}.}.}.}.}.}.}.}.}.}.}.}.}.}.}.}.}.}.}.}.}.",
"}.}.}.}.}.}.}.}.}.}.}.}.}.}.}.}.}.}.}.}.  - l 7.c.z.P p p h h p p ^ x.w.0 + + O }.}.}.}.}.}.}.}.}.}.}.}.}.}.}.}.}.}.}.}.}.}.}.}.",
"}.}.}.}.}.}.}.}.}.}.}.}.}.}.}.}.}.}.}.}.  $ u >.x.z._ p p p h h L } t.5.e o X o }.}.}.}.}.}.}.}.}.}.}.}.}.}.}.}.}.}.}.}.}.}.}.}.",
"}.}.}.}.}.}.}.}.}.}.}.}.}.}.}.}.}.}.}.}.  o u _ ,._ K u u u u L 5.t.,.P g u u e o   }.}.}.}.}.}.}.}.}.}.}.}.}.}.}.}.}.}.}.}.}.}.",
"}.}.}.}.}.}.}.}.}.}.}.}.}.}.}.}.}.}.}.}.o : i K p u u u u u u L x.y.j u _ 3.3.l -   }.}.}.}.}.}.}.}.}.}.}.}.}.}.}.}.}.}.}.}.}.}.",
"}.}.}.}.}.}.}.}.}.}.}.}.}.}.}.}.}.}.  o r h K g , - 8 u u u u ^ x.r.7 7 5.V.V.5.:   }.}.}.}.}.}.}.}.}.}.}.}.}.}.}.}.}.}.}.}.}.}.",
"}.}.}.}.}.}.}.}.}.}.}.}.}.}.}.}.}.}.  $ u P I i o . 2 u u u u l 5.` = = ` p.p.X.>   }.}.}.}.}.}.}.}.}.}.}.}.}.}.}.}.}.}.}.}.}.}.",
"}.}.}.}.}.}.}.}.}.}.}.}.}.}.}.}.}.}.  o u P P u o . 7 i u q u g j u o   - 5 5 5 }.}.}.}.}.}.}.}.}.}.}.}.}.}.}.}.}.}.}.}.}.}.}.}.",
"}.}.}.}.}.}.}.}.}.}.}.}.}.}.}.}.}.}.  - l 3.<.l - o 0 V V h V V h u 3 = * o     }.}.}.}.}.}.}.}.}.}.}.}.}.}.}.}.}.}.}.}.}.}.}.}.",
"}.}.}.}.}.}.}.}.}.}.}.}.}.}.}.}.}.}.  : 5.V.V.5.; & V O.{ O.[ [ ) ) ) ) ) s o   }.}.}.}.}.}.}.}.}.}.}.}.}.}.}.}.}.}.}.}.}.}.}.}.",
"}.}.}.}.}.}.}.}.}.}.}.}.}.}.}.}.}.}.  : ' p.p.` - - / s.:.s.0.9.-.O.-.=.=.! 0 * }.}.}.}.}.}.}.}.}.}.}.}.}.}.}.}.}.}.}.}.}.}.}.}.",
"}.}.}.}.}.}.}.}.}.}.}.}.}.}.}.}.}.}.}.}.> 5 5 ; . = ) s.s.-.0.-.-.-.O.&.T Y ~ f *   }.}.}.}.}.}.}.}.}.}.}.}.}.}.}.}.}.}.}.}.}.}.",
"}.}.}.}.}.}.}.}.}.}.}.}.}.}.}.}.}.}.}.}.          $ s [ O.-.-.-.-.-.O.$.Y #.=.) *   }.}.}.}.}.}.}.}.}.}.}.}.}.}.}.}.}.}.}.}.}.}.",
"}.}.}.}.}.}.}.}.}.}.}.}.}.}.}.}.}.}.}.}.}.}.}.}.    o 6 ) -.-.-.-.-.-.&.$.&.;.Q *   }.}.}.}.}.}.}.}.}.}.}.}.}.}.}.}.}.}.}.}.}.}.",
"}.}.}.}.}.}.}.}.}.}.}.}.}.}.}.}.}.}.}.}.}.}.}.}.& & o 2 Q O.0.q.:.0.s.O./ Z Q f *   }.}.}.}.}.}.}.}.}.}.}.}.}.}.}.}.}.}.}.}.}.}.",
"}.}.}.}.}.}.}.}.}.}.}.}.}.}.}.}.}.}.}.}.}.}.  & s B Z W [ -.s.c.g.c.k.4.0 & & * }.}.}.}.}.}.}.}.}.}.}.}.}.}.}.}.}.}.}.}.}.}.}.}.",
"}.}.}.}.}.}.}.}.}.}.}.}.}.}.}.}.}.}.}.}.}.}.  * W :.0.O.) Q +.s.q.0.O.L -       }.}.}.}.}.}.}.}.}.}.}.}.}.}.}.}.}.}.}.}.}.}.}.}.",
"}.}.}.}.}.}.}.}.}.}.}.}.}.}.}.}.}.}.}.}.}.}.  ; ( l.l.o.8 2 L ,.<.P 7 - }.}.}.}.}.}.}.}.}.}.}.}.}.}.}.}.}.}.}.}.}.}.}.}.}.}.}.}.",
"}.}.}.}.}.}.}.}.}.}.}.}.}.}.}.}.}.}.}.}.}.}.  ; E o...R % o i >.>.I e - }.}.}.}.}.}.}.}.}.}.}.}.}.}.}.}.}.}.}.}.}.}.}.}.}.}.}.}.",
"}.}.}.}.}.}.}.}.}.}.}.}.}.}.}.}.}.}.}.}.}.}.}.}.; ; : %   % g <.8.8.<.l -   }.}.}.}.}.}.}.}.}.}.}.}.}.}.}.}.}.}.}.}.}.}.}.}.}.}.",
"}.}.}.}.}.}.}.}.}.}.}.}.}.}.}.}.}.}.}.}.}.}.}.}.          % u I <.6.6.I -   }.}.}.}.}.}.}.}.}.}.}.}.}.}.}.}.}.}.}.}.}.}.}.}.}.}.",
"}.}.}.}.}.}.}.}.}.}.}.}.}.}.}.}.}.}.}.}.}.}.}.}.          . - > e r r > o   }.}.}.}.}.}.}.}.}.}.}.}.}.}.}.}.}.}.}.}.}.}.}.}.}.}.",
"}.}.}.}.}.}.}.}.}.}.}.}.}.}.}.}.}.}.}.}.}.}.}.}.}.}.}.}.}.}.}.}.}.}.}.}.}.}.}.}.}.}.}.}.}.}.}.}.}.}.}.}.}.}.}.}.}.}.}.}.}.}.}.}.",
"}.}.}.}.}.}.}.}.}.}.}.}.}.}.}.}.}.}.}.}.}.}.}.}.}.}.}.}.}.}.}.}.}.}.}.}.}.}.}.}.}.}.}.}.}.}.}.}.}.}.}.}.}.}.}.}.}.}.}.}.}.}.}.}.",
"}.}.}.}.}.}.}.}.}.}.}.}.}.}.}.}.}.}.}.}.}.}.}.}.}.}.}.}.}.}.}.}.}.}.}.}.}.}.}.}.}.}.}.}.}.}.}.}.}.}.}.}.}.}.}.}.}.}.}.}.}.}.}.}."
};
