/* XPM */
static char *result[] = {
/* columns rows colors chars-per-pixel */
"64 64 183 2 ",
"   c #000000",
".  c #0A0706",
"X  c #0F0806",
"o  c #0D0B0A",
"O  c #150603",
"+  c #1A0602",
"@  c #110907",
"#  c #180804",
"$  c #120C09",
"%  c #0F120C",
"&  c #14130D",
"*  c #18160F",
"=  c #12180F",
"-  c #141311",
";  c #1C1614",
":  c #161A12",
">  c #1A1C16",
",  c #1C1E18",
"<  c #2A0F08",
"1  c #2E160F",
"2  c #22130F",
"3  c #35190F",
"4  c #251F1A",
"5  c #281B14",
"6  c #301B14",
"7  c #1D2119",
"8  c #242217",
"9  c #24231D",
"0  c #2A241D",
"q  c #24291A",
"w  c #2D2A19",
"e  c #322419",
"r  c #3D221B",
"t  c #262420",
"y  c #292422",
"u  c #272820",
"i  c #2B2B22",
"p  c #342A25",
"a  c #352D29",
"s  c #3A2E2A",
"d  c #2C3324",
"f  c #363222",
"g  c #3C3726",
"h  c #333E27",
"j  c #36312B",
"k  c #3C312C",
"l  c #3E392F",
"z  c #3E3A31",
"x  c #48180C",
"c  c #46160A",
"v  c #5C1E0F",
"b  c #5C1F10",
"n  c #43251D",
"m  c #42291F",
"M  c #662412",
"N  c #452C22",
"B  c #4C2D24",
"V  c #532E24",
"C  c #463827",
"Z  c #41342B",
"A  c #4D342C",
"S  c #443E2B",
"D  c #493525",
"F  c #553126",
"G  c #5E3721",
"H  c #553529",
"J  c #593629",
"K  c #5B3A2B",
"L  c #543B2D",
"P  c #433631",
"I  c #423D32",
"U  c #453D39",
"Y  c #493E38",
"T  c #543F32",
"R  c #663122",
"E  c #6B3B27",
"W  c #703525",
"Q  c #36422B",
"!  c #38442D",
"~  c #4B442E",
"^  c #46452E",
"/  c #56412E",
"(  c #5B412F",
")  c #464236",
"_  c #4B4532",
"`  c #464D34",
"'  c #4D473D",
"]  c #4C4E3B",
"[  c #5C4531",
"{  c #544C34",
"}  c #5E4A34",
"|  c #59413A",
" . c #504F3F",
".. c #465537",
"X. c #4B5135",
"o. c #475738",
"O. c #4B533C",
"+. c #4C5B3C",
"@. c #5D543A",
"#. c #5D5A3D",
"$. c #794126",
"%. c #604C37",
"&. c #60473F",
"*. c #614C39",
"=. c #61543D",
"-. c #635B3E",
";. c #655337",
":. c #656E3E",
">. c #4E4540",
",. c #544A43",
"<. c #544B48",
"1. c #4C5542",
"2. c #4E5B41",
"3. c #555445",
"4. c #5C5642",
"5. c #535C46",
"6. c #5D534F",
"7. c #575E4A",
"8. c #5C5B48",
"9. c #655540",
"0. c #655D41",
"q. c #6A5E42",
"w. c #5C6645",
"e. c #5E6A46",
"r. c #5B654C",
"t. c #5C6A4C",
"y. c #546444",
"u. c #5F724A",
"i. c #5D6A50",
"p. c #616140",
"a. c #696144",
"s. c #616A47",
"d. c #66644C",
"f. c #6A644B",
"g. c #636C4B",
"h. c #6B6A4E",
"j. c #716A4C",
"k. c #62744D",
"l. c #626C51",
"z. c #6B6E53",
"x. c #626551",
"c. c #647552",
"v. c #6B7355",
"b. c #667953",
"n. c #697B56",
"m. c #6E735A",
"M. c #6D7D5C",
"N. c #727953",
"B. c #727C61",
"V. c #822E17",
"C. c #81331D",
"Z. c #84442B",
"A. c #895E41",
"S. c #8C6344",
"D. c #8B7556",
"F. c #957654",
"G. c #6B814C",
"H. c #6F815D",
"J. c #70815E",
"K. c #788854",
"L. c #738361",
"P. c #788765",
"I. c #778B60",
"U. c #7A8A65",
"Y. c #7D9266",
"T. c #8E815C",
"R. c #888261",
"E. c #838B6B",
"W. c #878D69",
"Q. c #938B67",
"!. c #928E69",
"~. c #83916B",
"^. c #88916D",
"/. c #839C60",
"(. c #96916B",
"). c #8E9A73",
"_. c #8B9470",
"`. c #94AB6E",
"'. c #96AF71",
"]. c #A2AC88",
"[. c #A8B588",
"{. c #AAB88A",
"}. c None",
/* pixels */
"}.}.}.}.}.}.}.}.}.}.}.}.}.}.}.}.}.}.}.}.}.}.}.}.}.}.}.}.}.}.}.}.}.}.}.}.}.}.}.}.}.}.}.}.}.}.}.}.}.}.}.}.}.}.}.}.}.}.}.}.}.}.}.}.",
"}.}.}.}.}.}.}.}.}.}.}.}.}.}.}.}.}.}.}.}.}.}.}.}.}.}.}.}.}.}.}.}.}.}.}.}.}.}.}.}.}.}.}.}.}.}.}.}.}.}.}.}.}.}.}.}.}.}.}.}.}.}.}.}.",
"}.}.}.}.}.}.}.}.}.}.}.}.}.}.}.}.}.}.}.}.}.}.}.}.}.}.}.}.}.}.}.}.}.}.}.}.}.}.}.}.}.}.}.}.}.}.}.}.}.}.}.}.}.}.}.}.}.}.}.}.}.}.}.}.",
"}.}.}.}.}.}.}.}.}.}.}.}.}.}.}.}.}.}.}.}.}.}.}.}.}.}.}.}.}.}.}.}.}.}.}.}.}.}.}.}.}.}.}.}.}.}.}.}.}.}.}.}.}.}.}.}.}.}.}.}.}.}.}.}.",
"}.}.}.}.}.}.}.}.}.}.}.}.}.}.}.}.}.}.}.}.}.}.}.}.}.}.}.}.}.}.}.}.}.}.}.}.}.}.}.}.}.}.}.}.}.}.}.}.}.}.}.}.}.}.}.}.}.}.}.}.}.}.}.}.",
"}.}.}.}.}.}.}.}.}.}.}.}.}.}.}.}.}.}.}.}.}.}.}.}.}.}.}.}.}.}.}.}.}.}.}.}.}.}.}.}.}.}.}.}.}.}.}.}.}.}.}.}.}.}.}.}.}.}.}.}.}.}.}.}.",
"}.}.}.}.}.}.}.}.}.}.}.}.}.}.}.}.}.}.}.}.}.}.}.}.}.}.}.}.}.}.}.}.}.}.}.}.}.}.}.}.}.}.}.}.}.}.}.}.}.}.}.}.}.}.}.}.}.}.}.}.}.}.}.}.",
"}.}.}.}.}.}.}.}.}.}.}.}.}.}.}.}.}.}.}.}.}.}.}.}.}.}.}.}.}.}.}.}.}.}.}.}.}.}.}.}.}.}.}.}.}.}.}.}.}.}.}.}.}.}.}.}.}.}.}.}.}.}.}.}.",
"}.}.}.}.}.}.}.}.}.}.}.}.}.}.}.}.}.}.}.}.}.}.}.}.}.}.}.}.}.}.}.}.}.}.}.}.}.}.}.}.}.}.}.}.}.}.}.}.}.}.}.}.}.}.}.}.}.}.}.}.}.}.}.}.",
"}.}.}.}.}.}.}.}.}.}.}.}.}.}.}.}.}.}.}.}.}.}.}.}.}.}.}.}.}.}.}.}.}.}.}.}.}.}.}.}.}.}.}.}.}.}.}.}.}.}.}.}.}.}.}.}.}.}.}.}.}.}.}.}.",
"}.}.}.}.}.}.}.}.}.}.}.}.}.}.}.}.}.}.}.}.}.}.}.}.}.}.}.}.}.}.                    }.}.}.}.}.}.}.}.}.}.}.}.}.}.}.}.}.}.}.}.}.}.}.}.",
"}.}.}.}.}.}.}.}.}.}.}.}.}.}.}.}.}.}.}.}.}.}.}.}.}.}.}.}.}.}.: : & $ $ $ $ $ $ @ }.}.}.}.}.}.}.}.}.}.}.}.}.}.}.}.}.}.}.}.}.}.}.}.",
"}.}.}.}.}.}.}.}.}.}.}.}.}.}.}.}.}.}.}.}.}.}.}.}.}.}.}.}.  = ! ` D m r r r r r 6 @   }.}.}.}.}.}.}.}.}.}.}.}.}.}.}.}.}.}.}.}.}.}.",
"}.}.}.}.}.}.}.}.}.}.}.}.}.}.}.}.}.}.}.}.}.}.}.}.}.}.}.}.X 8 X.p.%.K F V V V F m 8 = }.}.}.}.}.}.}.}.}.}.}.}.}.}.}.}.}.}.}.}.}.}.",
"}.}.}.}.}.}.}.}.}.}.}.}.}.}.}.}.}.}.}.}.}.}.}.}.}.}.  @ 6 N / } K K F V V V J / X.! *   }.}.}.}.}.}.}.}.}.}.}.}.}.}.}.}.}.}.}.}.",
"}.}.}.}.}.}.}.}.}.}.}.}.}.}.}.}.}.}.}.}.}.}.}.}.}.}.@ 2 n F K K [ [ H F V V J } s.+.d = }.}.}.}.}.}.}.}.}.}.}.}.}.}.}.}.}.}.}.}.",
"}.}.}.}.}.}.}.}.}.}.}.}.}.}.}.}.}.}.}.}.}.}.}.}.  @ 6 n V V J [ #.#.[ H V V J } e.u.y.! :   }.}.}.}.}.}.}.}.}.}.}.}.}.}.}.}.}.}.",
"}.}.}.}.}.}.}.}.}.}.}.}.}.}.}.}.}.}.}.}.}.}.}.}.  @ r V V H / @.e.w.} H H H [ @.e.u.u.o.:   }.}.}.}.}.}.}.}.}.}.}.}.}.}.}.}.}.}.",
"}.}.}.}.}.}.}.}.}.}.}.}.}.}.}.}.}.}.}.}.}.}.}.}.  $ r V J ( #.e.u.w.[ K J [ 0.g.u.u.k.o.:   }.}.}.}.}.}.}.}.}.}.}.}.}.}.}.}.}.}.",
"}.}.}.}.}.}.}.}.}.}.}.}.}.}.}.}.}.}.}.}.}.}.}.}.  $ n J [ @.s.k.k.e.9.} K } l.n.k.u.u.o.:   }.}.}.}.}.}.}.}.}.}.}.}.}.}.}.}.}.}.",
"}.}.}.}.}.}.}.}.}.}.}.}.}.}.}.}.}.}.}.}.}.}.}.}.  $ m [ #.t.c.b.b.b.v.d.} %.z.M.n.b.u.o.:   }.}.}.}.}.}.}.}.}.}.}.}.}.}.}.}.}.}.",
"}.}.}.}.}.}.}.}.}.}.}.}.}.}.}.}.}.}.}.}.}.}.}.}.  & D @.e.c.n.n.n.M.L.z.%.} z.M.H.n.b.o.:   }.}.}.}.}.}.}.}.}.}.}.}.}.}.}.}.}.}.",
"}.}.}.}.}.}.}.}.}.}.}.}.}.}.}.}.}.}.}.}.}.}.}.}.  : ` e.c.b.H.J.J.L.L.v.%.} v.L.L.H.H.+.>   }.}.}.}.}.}.}.}.}.}.}.}.}.}.}.}.}.}.",
"}.}.}.}.}.}.}.}.}.}.}.}.}.}.}.}.}.}.}.}.}.}.}.}.  : o.c.n.c.r.5.5.5.5.5.@.=.f.l.r.5.2.Q -   }.}.}.}.}.}.}.}.}.}.}.}.}.}.}.}.}.}.",
"}.}.}.}.}.}.}.}.}.}.}.}.}.}.}.}.}.}.}.}.}.}.}.}.  : o.b.M.r.d > : : = d 5.j.=./ 0 : : & .   }.}.}.}.}.}.}.}.}.}.}.}.}.}.}.}.}.}.",
"}.}.}.}.}.}.}.}.}.}.}.}.}.}.}.}.}.}.}.}.}.}.}.}.  : ! y.n.i.d , u i 7 Q k.v.*.D w q i 9 o   }.}.}.}.}.}.}.}.}.}.}.}.}.}.}.}.}.}.",
"}.}.}.}.}.}.}.}.}.}.}.}.}.}.}.}.}.}.}.}.}.}.}.}.}.}.= d i.n.i.l.E.^.K.G.H.z.%.} s.K._.m.9   }.}.}.}.}.}.}.}.}.}.}.}.}.}.}.}.}.}.",
"}.}.}.}.}.}.}.}.}.}.}.}.}.}.}.}.}.}.}.}.}.}.}.}.}.}.  > 5.L.L.~.].[.`.Y.K.z.} ;.K.'.{.E.u   }.}.}.}.}.}.}.}.}.}.}.}.}.}.}.}.}.}.",
"}.}.}.}.}.}.}.}.}.}.}.}.}.}.}.}.}.}.}.}.}.}.}.}.}.}.  > 5.L.L.P.Y.^.Y.I.L.v.} } N.Y.~.i.7   }.}.}.}.}.}.}.}.}.}.}.}.}.}.}.}.}.}.",
"}.}.}.}.}.}.}.}.}.}.}.}.}.}.}.}.}.}.}.}.}.}.}.}.}.}.  > y.H.M.L.B.M.M.J.J.v.9.9.d.z.b.1.>   }.}.}.}.}.}.}.}.}.}.}.}.}.}.}.}.}.}.",
"}.}.}.}.}.}.}.}.}.}.}.}.}.}.}.}.}.}.}.}.}.}.}.}.      : +.b.H.M.B.M.M.J.B.M.v.d.9.9.g.+.>   }.}.}.}.}.}.}.}.}.}.}.}.}.}.}.}.}.}.",
"}.}.}.}.}.}.}.}.}.}.}.}.}.}.}.}.}.}.}.}.}.}.}.}.$ $ $ 9 ` t.b.L.U.P.L.L.U.U.L.M.q.q.h.] :   }.}.}.}.}.}.}.}.}.}.}.}.}.}.}.}.}.}.",
"}.}.}.}.}.}.}.}.}.}.}.}.}.}.}.}.}.}.}.}.}.}.  @ 3 p p a z ' e.J.).).P.P.).).U.L.W.R.a.D &   }.}.}.}.}.}.}.}.}.}.}.}.}.}.}.}.}.}.",
"}.}.}.}.}.}.}.}.}.}.}.}.}.}.}.}.}.}.}.}.}.}.  @ n H A P k S O.k.~.).E.W.Q.Q.W.W.(.D.%.6 $   }.}.}.}.}.}.}.}.}.}.}.}.}.}.}.}.}.}.",
"}.}.}.}.}.}.}.}.}.}.}.}.}.}.}.}.}.}.}.}.}.}.  @ 6 F F A Z k I ] c.U.).Q.S.Z.!.(.S.E 6 $ }.}.}.}.}.}.}.}.}.}.}.}.}.}.}.}.}.}.}.}.",
"}.}.}.}.}.}.}.}.}.}.}.}.}.}.}.}.}.}.}.}.}.}.> 0 B V B B Z s s I O.c.~.T.Z.Z.F.D.E c O   }.}.}.}.}.}.}.}.}.}.}.}.}.}.}.}.}.}.}.}.",
"}.}.}.}.}.}.}.}.}.}.}.}.}.}.}.}.}.}.}.}.  , 1.7.L B N Z k k s Z l O.c.j.$.C.Z.$.6 + }.}.}.}.}.}.}.}.}.}.}.}.}.}.}.}.}.}.}.}.}.}.",
"}.}.}.}.}.}.}.}.}.}.}.}.}.}.}.}.}.}.}.}.  > 5.z.9.T P s k k k s s ) w.p.( b b x #   }.}.}.}.}.}.}.}.}.}.}.}.}.}.}.}.}.}.}.}.}.}.",
"}.}.}.}.}.}.}.}.}.}.}.}.}.}.}.}.}.}.}.}.  - l 8.m.x.Y s k k k s s ) l.w.w O # # }.}.}.}.}.}.}.}.}.}.}.}.}.}.}.}.}.}.}.}.}.}.}.}.",
"}.}.}.}.}.}.}.}.}.}.}.}.}.}.}.}.}.}.}.}.o ; s ' 7.3.I s s s s k I  .i.1.9 o o o }.}.}.}.}.}.}.}.}.}.}.}.}.}.}.}.}.}.}.}.}.}.}.}.",
"}.}.}.}.}.}.}.}.}.}.}.}.}.}.}.}.}.}.  o y k U k 9 9 i s p p p I 8.r.,.I a p p y o   }.}.}.}.}.}.}.}.}.}.}.}.}.}.}.}.}.}.}.}.}.}.",
"}.}.}.}.}.}.}.}.}.}.}.}.}.}.}.}.}.}.  $ a Y U p o . 4 p p p p I t.l.) l >.3.3.z -   }.}.}.}.}.}.}.}.}.}.}.}.}.}.}.}.}.}.}.}.}.}.",
"}.}.}.}.}.}.}.}.}.}.}.}.}.}.}.}.}.}.  $ a Y Y p o . 4 p p p p I l.t.) Y x.B.B.5.,   }.}.}.}.}.}.}.}.}.}.}.}.}.}.}.}.}.}.}.}.}.}.",
"}.}.}.}.}.}.}.}.}.}.}.}.}.}.}.}.}.}.o ; a P s t o X 9 p p p p l 3.5.k j 1.i.i.O.,   }.}.}.}.}.}.}.}.}.}.}.}.}.}.}.}.}.}.}.}.}.}.",
"}.}.}.}.}.}.}.}.}.}.}.}.}.}.}.}.  o y s P a ; o   o 9 p p p p a l j : $ : 7 7 , }.}.}.}.}.}.}.}.}.}.}.}.}.}.}.}.}.}.}.}.}.}.}.}.",
"}.}.}.}.}.}.}.}.}.}.}.}.}.}.}.}.  - z 3.3.U -     o p Z Z g Z Z g p ; * * $     }.}.}.}.}.}.}.}.}.}.}.}.}.}.}.}.}.}.}.}.}.}.}.}.",
"}.}.}.}.}.}.}.}.}.}.}.}.}.}.}.}.  , 1.B.B.5.>     & S @.@.@.@.{ { _ ~ { ~ f o   }.}.}.}.}.}.}.}.}.}.}.}.}.}.}.}.}.}.}.}.}.}.}.}.",
"}.}.}.}.}.}.}.}.}.}.}.}.}.}.}.}.  , ] i.i.1.,     * _ 0.a.9.q.-.@.@.-.-.a.{ w & }.}.}.}.}.}.}.}.}.}.}.}.}.}.}.}.}.}.}.}.}.}.}.}.",
"}.}.}.}.}.}.}.}.}.}.}.}.}.}.}.}.}.}.> 7 7 7 }.}.  * _ 0.q.-.-.-.-.#.;.@.-.-.{ Z *   }.}.}.}.}.}.}.}.}.}.}.}.}.}.}.}.}.}.}.}.}.}.",
"}.}.}.}.}.}.}.}.}.}.}.}.}.}.}.}.}.}.        }.}.  * ~ a.9.:.0.-.-.-.@.@.=.=.:.~ *   }.}.}.}.}.}.}.}.}.}.}.}.}.}.}.}.}.}.}.}.}.}.",
"}.}.}.}.}.}.}.}.}.}.}.}.}.}.}.}.}.}.}.}.}.}.}.}.  * _ a.-.-.-.-.:.=.-.-.=.-.=._ *   }.}.}.}.}.}.}.}.}.}.}.}.}.}.}.}.}.}.}.}.}.}.",
"}.}.}.}.}.}.}.}.}.}.}.}.}.}.}.}.}.}.}.}.}.}.}.}.  $ f { @.-.q.0.-.-.-.-.@.@.:._ *   }.}.}.}.}.}.}.}.}.}.}.}.}.}.}.}.}.}.}.}.}.}.",
"}.}.}.}.}.}.}.}.}.}.}.}.}.}.}.}.}.}.}.}.}.}.}.}.    o 8 _ ;.-.-.-.-.-.-.=.-.-.~ *   }.}.}.}.}.}.}.}.}.}.}.}.}.}.}.}.}.}.}.}.}.}.",
"}.}.}.}.}.}.}.}.}.}.}.}.}.}.}.}.}.}.}.}.}.}.}.}.& * o 8 ^ -.-.a.a.a.q.-.~ S ~ g *   }.}.}.}.}.}.}.}.}.}.}.}.}.}.}.}.}.}.}.}.}.}.",
"}.}.}.}.}.}.}.}.}.}.}.}.}.}.}.}.}.}.}.}.}.}.  & f Z S ^ { -.a.h.f.h.j.@.w & & * }.}.}.}.}.}.}.}.}.}.}.}.}.}.}.}.}.}.}.}.}.}.}.}.",
"}.}.}.}.}.}.}.}.}.}.}.}.}.}.}.}.}.}.}.}.}.}.  * ^ :.-.@.~ _ #.f.q.0.4.I -       }.}.}.}.}.}.}.}.}.}.}.}.}.}.}.}.}.}.}.}.}.}.}.}.",
"}.}.}.}.}.}.}.}.}.}.}.}.}.}.}.}.}.}.}.}.}.}.  : X.k.k.+.q 4 U ,.<.U 4 - }.}.}.}.}.}.}.}.}.}.}.}.}.}.}.}.}.}.}.}.}.}.}.}.}.}.}.}.",
"}.}.}.}.}.}.}.}.}.}.}.}.}.}.}.}.}.}.}.}.}.}.  : ! o.o.Q % o a >.,.U y 5 }.}.}.}.}.}.}.}.}.}.}.}.}.}.}.}.}.}.}.}.}.}.}.}.}.}.}.}.",
"}.}.}.}.}.}.}.}.}.}.}.}.}.}.}.}.}.}.}.}.}.}.}.}.: > > %   $ j <.6.6.<.T W V.}.}.}.}.}.}.}.}.}.}.}.}.}.}.}.}.}.}.}.}.}.}.}.}.}.}.",
"}.}.}.}.}.}.}.}.}.}.}.}.}.}.}.}.}.}.}.}.}.}.}.}.          % p Y <.6.6.,.R M }.}.}.}.}.}.}.}.}.}.}.}.}.}.}.}.}.}.}.}.}.}.}.}.}.}.",
"}.}.}.}.}.}.}.}.}.}.}.}.}.}.}.}.}.}.}.}.}.}.}.}.          . - , y y y 0 1 < }.}.}.}.}.}.}.}.}.}.}.}.}.}.}.}.}.}.}.}.}.}.}.}.}.}.",
"}.}.}.}.}.}.}.}.}.}.}.}.}.}.}.}.}.}.}.}.}.}.}.}.}.}.}.}.}.}.}.}.}.}.}.}.}.}.}.}.}.}.}.}.}.}.}.}.}.}.}.}.}.}.}.}.}.}.}.}.}.}.}.}.",
"}.}.}.}.}.}.}.}.}.}.}.}.}.}.}.}.}.}.}.}.}.}.}.}.}.}.}.}.}.}.}.}.}.}.}.}.}.}.}.}.}.}.}.}.}.}.}.}.}.}.}.}.}.}.}.}.}.}.}.}.}.}.}.}.",
"}.}.}.}.}.}.}.}.}.}.}.}.}.}.}.}.}.}.}.}.}.}.}.}.}.}.}.}.}.}.}.}.}.}.}.}.}.}.}.}.}.}.}.}.}.}.}.}.}.}.}.}.}.}.}.}.}.}.}.}.}.}.}.}."
};
