/* XPM */
static char *result[] = {
/* columns rows colors chars-per-pixel */
"64 64 180 2 ",
"   c #000000",
".  c #0C0707",
"X  c #0E0A07",
"o  c #0D0B0A",
"O  c #150603",
"+  c #1A0602",
"@  c #110907",
"#  c #180804",
"$  c #120C0A",
"%  c #0F120C",
"&  c #14130D",
"*  c #18160F",
"=  c #12180F",
"-  c #151311",
";  c #161A12",
":  c #191C15",
">  c #1D1D19",
",  c #22130F",
"<  c #35190F",
"1  c #2F1A14",
"2  c #231F18",
"3  c #301B14",
"4  c #1D2119",
"5  c #242217",
"6  c #24221C",
"7  c #2A251C",
"8  c #24291A",
"9  c #2D2A19",
"0  c #322419",
"q  c #3D221B",
"w  c #312C1D",
"e  c #262120",
"r  c #2A2523",
"t  c #272820",
"y  c #2A2C22",
"u  c #332925",
"i  c #362D29",
"p  c #3A2E2A",
"a  c #2C3224",
"s  c #333027",
"d  c #3C3726",
"f  c #333E27",
"g  c #37312B",
"h  c #3C322C",
"j  c #3E392F",
"k  c #3F3A32",
"l  c #48180C",
"z  c #46160A",
"x  c #5C1E0F",
"c  c #5C1F10",
"v  c #43251D",
"b  c #42291F",
"n  c #452C22",
"m  c #4C2D24",
"M  c #532E24",
"N  c #463827",
"B  c #41342B",
"V  c #4D342C",
"C  c #443E2B",
"Z  c #493525",
"A  c #553126",
"S  c #5E3721",
"D  c #553529",
"F  c #593629",
"G  c #5B3A2B",
"H  c #543B2D",
"J  c #423530",
"K  c #443B34",
"L  c #493E35",
"P  c #453D39",
"I  c #533E31",
"U  c #6B3B27",
"Y  c #36422B",
"T  c #38442D",
"R  c #46462E",
"E  c #4B442E",
"W  c #56412E",
"Q  c #5B412F",
"!  c #464236",
"~  c #4C4532",
"^  c #464D34",
"/  c #49433A",
"(  c #4B4E3A",
")  c #4E4C36",
"_  c #5C4531",
"`  c #534C34",
"'  c #5E4A34",
"]  c #534A38",
"[  c #465537",
"{  c #4B5135",
"}  c #47553A",
"|  c #4B543B",
" . c #4C5B3C",
".. c #57563E",
"X. c #5D543A",
"o. c #5D5A3D",
"O. c #794126",
"+. c #604C37",
"@. c #614C39",
"#. c #61543D",
"$. c #635B3E",
"%. c #655337",
"&. c #656E3E",
"*. c #4E4540",
"=. c #534B43",
"-. c #564C48",
";. c #495440",
":. c #4E5B41",
">. c #535243",
",. c #5B5442",
"<. c #535C46",
"1. c #5E534E",
"2. c #545A48",
"3. c #5C5B48",
"4. c #5F5450",
"5. c #645540",
"6. c #655D41",
"7. c #6E5D45",
"8. c #5C6645",
"9. c #5E6A46",
"0. c #5B654C",
"q. c #5C6A4C",
"w. c #546444",
"e. c #5F724A",
"r. c #5D6951",
"t. c #626141",
"y. c #696144",
"u. c #616A47",
"i. c #64644C",
"p. c #6A644B",
"a. c #636C4B",
"s. c #6B6A4E",
"d. c #726A4C",
"f. c #62744D",
"g. c #616651",
"h. c #636C53",
"j. c #6B6E53",
"k. c #647552",
"l. c #6B7355",
"z. c #667953",
"x. c #697B56",
"c. c #6E735A",
"v. c #6D7D5C",
"b. c #707A5E",
"n. c #727953",
"m. c #717B60",
"M. c #81331D",
"N. c #84442B",
"B. c #895E41",
"V. c #8C6344",
"C. c #8B7556",
"Z. c #957654",
"A. c #6B814C",
"S. c #6F815D",
"D. c #768955",
"F. c #70815E",
"G. c #798853",
"H. c #738361",
"J. c #788765",
"K. c #778B60",
"L. c #7A8A65",
"P. c #7D9266",
"I. c #8E815C",
"U. c #888261",
"Y. c #838B6B",
"T. c #878D69",
"R. c #938B67",
"E. c #928E69",
"W. c #83916B",
"Q. c #88916D",
"!. c #839C60",
"~. c #96916B",
"^. c #8E9A73",
"/. c #8B9470",
"(. c #94AB6E",
"). c #96AF71",
"_. c #A2AC88",
"`. c #A8B588",
"'. c #AAB88A",
"]. c None",
/* pixels */
"].].].].].].].].].].].].].].].].].].].].].].].].].].].].].].].].].].].].].].].].].].].].].].].].].].].].].].].].].].].].].].].].",
"].].].].].].].].].].].].].].].].].].].].].].].].].].].].].].].].].].].].].].].].].].].].].].].].].].].].].].].].].].].].].].].].",
"].].].].].].].].].].].].].].].].].].].].].].].].].].].].].].].].].].].].].].].].].].].].].].].].].].].].].].].].].].].].].].].].",
"].].].].].].].].].].].].].].].].].].].].].].].].].].].].].].].].].].].].].].].].].].].].].].].].].].].].].].].].].].].].].].].].",
"].].].].].].].].].].].].].].].].].].].].].].].].].].].].].].].].].].].].].].].].].].].].].].].].].].].].].].].].].].].].].].].].",
"].].].].].].].].].].].].].].].].].].].].].].].].].].].].].].].].].].].].].].].].].].].].].].].].].].].].].].].].].].].].].].].].",
"].].].].].].].].].].].].].].].].].].].].].].].].].].].].].].].].].].].].].].].].].].].].].].].].].].].].].].].].].].].].].].].].",
"].].].].].].].].].].].].].].].].].].].].].].].].].].].].].].].].].].].].].].].].].].].].].].].].].].].].].].].].].].].].].].].].",
"].].].].].].].].].].].].].].].].].].].].].].].].].].].].].].].].].].].].].].].].].].].].].].].].].].].].].].].].].].].].].].].].",
"].].].].].].].].].].].].].].].].].].].].].].].].].].].].].].].].].].].].].].].].].].].].].].].].].].].].].].].].].].].].].].].].",
"].].].].].].].].].].].].].].].].].].].].].].].].].].].].].].].].].].].].].].].].].].].].].].].].].].].].].].].].].].].].].].].].",
"].].].].].].].].].].].].].].].].].].].].].].].].].].].].].].].].].].].].].].].].].].].].].].].].].].].].].].].].].].].].].].].].",
"].].].].].].].].].].].].].].].].].].].].].].].].].].].].].].].].].].].].].].].].].].].].].].].].].].].].].].].].].].].].].].].].",
"].].].].].].].].].].].].].].].].].].].].].].].].].].].].].].].].].].].].].].].].].].].].].].].].].].].].].].].].].].].].].].].].",
"].].].].].].].].].].].].].].].].].].].].].].].].].].].].].].].].].].                    ].].].].].].].].].].].].].].].].].].].].",
"].].].].].].].].].].].].].].].].].].].].].].].].].].].].].].].].].].; ; & $ $ # $ $ $ @ ].].].].].].].].].].].].].].].].].].].].",
"].].].].].].].].].].].].].].].].].].].].].].].].].].].].].].].].  = Y ^ N b q q q q q 3 @   ].].].].].].].].].].].].].].].].].].",
"].].].].].].].].].].].].].].].].].].].].].].].].].].].].].].].].X 5 ) &.' F A M M A A b 5 = ].].].].].].].].].].].].].].].].].].",
"].].].].].].].].].].].].].].].].].].].].].].].].].].].].].].  @ 1 n W ' Q F A M M A F W { T =   ].].].].].].].].].].].].].].].].",
"].].].].].].].].].].].].].].].].].].].].].].].].].].].].].].@ , v M S W ' _ D M M M G ' u. .a = ].].].].].].].].].].].].].].].].",
"].].].].].].].].].].].].].].].].].].].].].].].].].].].].  @ 3 v m M F _ o.o._ D M A F ' 9.9. .Y ;   ].].].].].].].].].].].].].].",
"].].].].].].].].].].].].].].].].].].].].].].].].].].].].  $ q A M F Q X.9.8.' F A A Q X.e.e.f. .;   ].].].].].].].].].].].].].].",
"].].].].].].].].].].].].].].].].].].].].].].].].].].].].  $ q A F Q o.8.q.8.' F F _ 6.a.e.e.f.[ ;   ].].].].].].].].].].].].].].",
"].].].].].].].].].].].].].].].].].].].].].].].].].].].].  $ q F Q o.u.f.k.9.#.' G X.a.x.f.f.f.[ ;   ].].].].].].].].].].].].].].",
"].].].].].].].].].].].].].].].].].].].].].].].].].].].].  $ b Q o.9.k.k.k.k.l.i._ @.j.v.z.k.f.[ ;   ].].].].].].].].].].].].].].",
"].].].].].].].].].].].].].].].].].].].].].].].].].].].].  & Z #.u.f.z.v.x.v.H.l.@.' j.b.v.x.z.} ;   ].].].].].].].].].].].].].].",
"].].].].].].].].].].].].].].].].].].].].].].].].].].].].  ; ^ u.f.x.S.H.F.H.H.l.@.@.l.F.H.S.v. .:   ].].].].].].].].].].].].].].",
"].].].].].].].].].].].].].].].].].].].].].].].].].].].].  ; [ z.x.k.0.<.<.<.w.,.X.$.p.h.0.<.:.T =   ].].].].].].].].].].].].].].",
"].].].].].].].].].].].].].].].].].].].].].].].].].].].].  ; [ z.S.r.a ; ; ; ; a 3.j.$.H t ; ; % .   ].].].].].].].].].].].].].].",
"].].].].].].].].].].].].].].].].].].].].].].].].].].].].  ; T w.x.r.a > t y 4 f q.l.@.Z 9 6 y 2 o   ].].].].].].].].].].].].].].",
"].].].].].].].].].].].].].].].].].].].].].].].].].].].].].].= a 0.v.0.h.Y.Y.D.A.S.l.+.' u.D./.c.6   ].].].].].].].].].].].].].].",
"].].].].].].].].].].].].].].].].].].].].].].].].].].].].].].  : <.F.H.W._.`.).!.D.j.+.%.G.).'.Y.y   ].].].].].].].].].].].].].].",
"].].].].].].].].].].].].].].].].].].].].].].].].].].].].].].  : w.H.H.J.P.P.P.L.H.l.' X.n.P.W.r.4   ].].].].].].].].].].].].].].",
"].].].].].].].].].].].].].].].].].].].].].].].].].].].].].].  : <.F.F.F.m.m.m.F.F.l.5.#.i.l.l. .:   ].].].].].].].].].].].].].].",
"].].].].].].].].].].].].].].].].].].].].].].].].].].].].      : ;.x.F.F.F.m.F.F.F.v.l.p.@.#.a.:.:   ].].].].].].].].].].].].].].",
"].].].].].].].].].].].].].].].].].].].].].].].].].].].].$ $ $ 2 T f.x.F.J.J.F.H.L.L.H.c.p.7.p.( ;   ].].].].].].].].].].].].].].",
"].].].].].].].].].].].].].].].].].].].].].].].].].].  $ 1 q i p j ( 8.F.^.^.J.J.^.^.J.J.T.U.7.N &   ].].].].].].].].].].].].].].",
"].].].].].].].].].].].].].].].].].].].].].].].].].].  $ v D V J h K | k.P.^.W.Y.R.R.Y.T.~.C._ 0 $   ].].].].].].].].].].].].].].",
"].].].].].].].].].].].].].].].].].].].].].].].].].].  @ < A V V h h C ( a.L.^.E.B.B.E.~.V.U 3 @ ].].].].].].].].].].].].].].].].",
"].].].].].].].].].].].].].].].].].].].].].].].].].].: 7 n M m m B h h j ..f.Q.U.N.N.Z.C.U l +   ].].].].].].].].].].].].].].].].",
"].].].].].].].].].].].].].].].].].].].].].].].].  > ;.3.H m n B p h p h j | a.d.O.M.N.O.3 + ].].].].].].].].].].].].].].].].].].",
"].].].].].].].].].].].].].].].].].].].].].].].].  : 2.j.5.I B h p h h p p ! 0.t.S c c z #   ].].].].].].].].].].].].].].].].].].",
"].].].].].].].].].].].].].].].].].].].].].].].].  - k 3.j.g.P p h h h p p / h.w.9 O + + ].].].].].].].].].].].].].].].].].].].].",
"].].].].].].].].].].].].].].].].].].].].].].].].  o u *.g.g./ p p p p J K ;.i.:.6 o o o ].].].].].].].].].].].].].].].].].].].].",
"].].].].].].].].].].].].].].].].].].].].].].].].  $ i P =./ h u u u u k 2.0.>.! g u u e o   ].].].].].].].].].].].].].].].].].].",
"].].].].].].].].].].].].].].].].].].].].].].].].  % i P K j p u u u u C <.>.g u / >.>.k -   ].].].].].].].].].].].].].].].].].].",
"].].].].].].].].].].].].].].].].].].].].].].].].  $ i K K J p u u u u s K u - 6 2.m.m.2.:   ].].].].].].].].].].].].].].].].].].",
"].].].].].].].].].].].].].].].].].].].].].].].].  $ i P K K B h B B h B d u : w 0.b.h.| >   ].].].].].].].].].].].].].].].].].].",
"].].].].].].].].].].].].].].].].].].].].].].].].  $ u K K L ] X.X.X.X.' ` E E ` t...s ; ].].].].].].].].].].].].].].].].].].].].",
"].].].].].].].].].].].].].].].].].].].].].].].].  - k >.=.,.5.t.$.$.6.$.o.$.$.$.$.` 5 & ].].].].].].].].].].].].].].].].].].].].",
"].].].].].].].].].].].].].].].].].].].].].].].].  : 2.m.b.l.y.$.$.6.$.$.$.$.X.$.$.#.` d =   ].].].].].].].].].].].].].].].].].].",
"].].].].].].].].].].].].].].].].].].].].].].].].  : ;.r.r.w.` ` ..$.$.$.$.$.X.X.%.&.y.~ *   ].].].].].].].].].].].].].].].].].].",
"].].].].].].].].].].].].].].].].].].].].].].].].].].4 4 4 : = 7 E %.$.$.6.5.5.o.#.$.6.~ *   ].].].].].].].].].].].].].].].].].].",
"].].].].].].].].].].].].].].].].].].].].].].].].].].    X & @ 5 E $.6.t.6.7.p.o.E C E d -   ].].].].].].].].].].].].].].].].].].",
"].].].].].].].].].].].].].].].].].].].].].].].].].].  o w B N R ` $.p.d.d.d.d...7 & * * ].].].].].].].].].].].].].].].].].].].].",
"].].].].].].].].].].].].].].].].].].].].].].].].].].  - R &.o...E ~ ,.p.i.6.,.C *       ].].].].].].].].].].].].].].].].].].].].",
"].].].].].].].].].].].].].].].].].].].].].].].].].].  ; { f.f. .8 2 P =.=.K 6 - ].].].].].].].].].].].].].].].].].].].].].].].].",
"].].].].].].].].].].].].].].].].].].].].].].].].].].  ; T  .} Y & o g *.=.P e - ].].].].].].].].].].].].].].].].].].].].].].].].",
"].].].].].].].].].].].].].].].].].].].].].].].].].].].].= ; : %   o g =.1.4.-.k -   ].].].].].].].].].].].].].].].].].].].].].].",
"].].].].].].].].].].].].].].].].].].].].].].].].].].].].          & u P -.1.4.P -   ].].].].].].].].].].].].].].].].].].].].].].",
"].].].].].].].].].].].].].].].].].].].].].].].].].].].].          . - 2 2 r r > .   ].].].].].].].].].].].].].].].].].].].].].].",
"].].].].].].].].].].].].].].].].].].].].].].].].].].].].].].].].].].].].].].].].].].].].].].].].].].].].].].].].].].].].].].].].",
"].].].].].].].].].].].].].].].].].].].].].].].].].].].].].].].].].].].].].].].].].].].].].].].].].].].].].].].].].].].].].].].].",
"].].].].].].].].].].].].].].].].].].].].].].].].].].].].].].].].].].].].].].].].].].].].].].].].].].].].].].].].].].].].].].].]."
};
