/* XPM */
static char *result[] = {
/* columns rows colors chars-per-pixel */
"64 64 49 1 ",
"  c #221117",
". c #25131A",
"X c #29161E",
"o c #2B181F",
"O c #2B1723",
"+ c #2E1B25",
"@ c #331E27",
"# c #331D2C",
"$ c #351F30",
"% c #342027",
"& c #36222D",
"* c #39232F",
"= c #362031",
"- c #3A2434",
"; c #3E2934",
": c #3E263B",
"> c #3F283C",
", c #422A33",
"< c #40273C",
"1 c #432B3C",
"2 c #492F3E",
"3 c #47303B",
"4 c #4B323E",
"5 c #52353F",
"6 c #412740",
"7 c #452A42",
"8 c #492E45",
"9 c #4B2E49",
"0 c #4E3540",
"q c #4E304A",
"w c #543740",
"e c #543841",
"r c #593B42",
"t c #52334A",
"y c #57384A",
"u c #593A49",
"i c #553552",
"p c #593756",
"a c #5C3A54",
"s c #603E51",
"d c #614146",
"f c #6E4A47",
"g c #64424A",
"h c #6A4749",
"j c #6D4A49",
"k c #704B47",
"l c #734D4B",
"z c #76504E",
"x c #78514E",
/* pixels */
"pppiq9qiiippppppppppppppppppppppppii999999899989999989999989999q",
"pppiiqqqiipppppppppppppppppppppppppii999999999989999q899998q9q99",
"piiytttyiaaaaaaasppssppspsppsppssppputtttttttttttttqttttqtqqq9q8",
"iyiiuyyuaassssssssssssssssssssssssssuyyyuyyuyuyuyuyyyuyyyuyttqq9",
"qiyyuusdggggggghgghggghshggghggghgggssdsrggrsrsrrdsdrdgdsgrut999",
"99tysghhlhhhhhhhhhhhlhhhglhhglhhhhhhhhhfhhhhkhkhhhhhhhhhfhhry099",
"99tydhkklhjkjjljhkkjjjkkzhjjlhjjljffffffjjkhkkkjkkjjkjjjkfhsyt99",
"99qydhkkkkjjkhljkkhkjjhkhllhjljkjjkfkfkfkkkfkkjkkkkkkkkkkkkrut99",
"99tushjjkjjfffffjkkkkhhkkkkhkkfkjfffkjkkkkhkjkjlkkjkjkkjkfhdut88",
"89tyrhjlkjjjjjjfjjjjkkkkhhkkkhfjjjjjkhhkjjjkjjjjhjjjjjjkffhsyt99",
"99tugjhllkljkkkklhlhjjjlkklkjjllkkkkklhlhllkjkjllkkkklljkkhgyt98",
"99tugjlllllllllllllllllllllllllllllllllllllllllllllllllllljgut99",
"99tugzzzzzzzzlxzzzzzzzzzzlzzxxllzlzzzzzzzzzzlzzzlzzzzlzzlllhutt9",
"99tugzzzzzzzzzzzzzzzzzzzzzzzlxxxzxzzzzzzzzzzzzzzzzzzzzzzxzlgut99",
"89tugjzzzlzllzlzzlllllzzlzlllllkzzlzlzzlllzzzzlzzzllzzzzzzjstt98",
"778yughhhhjhhhhhhhhlhghhhhhjhhkkhhhhghhhhhhhghhhhhhhhhhhhhhry977",
"6670yrsdhsdhddhdddddddddsddddddddddddddddhshddrhsdddddddhdru076<",
":<175wrrrr5rr55dd5dd5rrrrrrrrrrr5d5drrrd5r5rrrrrrrrrrrrrr5ww21<<",
":::15555r55r555r55555r55r55r5r5r555r55r555r55wr5r5555r5r55542<:6",
"::<1455555555555555555555555555555555555555555555555555555r57766",
"$<<1455555wwwwww55555555555wwww5555555555r5555ww555r555555588877",
"<<<14555r5w5wwww55d5r55rr5www5w5d5555rr555r5r5w55r5r5r55r55ww899",
"$6<1255rr5555rww55r5555r55w5wwwrr55d55r55555r5ww55r555rr55w99898",
"66<12w5555rr55w55d55rr55r5r5rw5555555r55rr5r55rwr555r555ww008977",
":66630000wwwwwww5d55wwwwwr55wwrrr555rr5rwwww5rw55r5rwwwww0081866",
"$6<<18000wwwwwww5555wwwwww5r5w55r5555555wwww55ww55wwwwww4838<<>>",
"--::1110055555555555555w555555555555555555555555555555404211::::",
"$#$-:118222225223355222022252522543424555228522224242244216<>:::",
"OO##-:<111121111331111112111111171113111112,112121211111<66:::::",
".OO+$-><<<<<<<<<<<<<<1<<<<<<<<<:<<<<<<1,<<<<<<<<<<<<<<<<>:::::::",
"OOO#$-66<<<<<<<<<,11<<<<<<<<<:::<<<<<<<<<<<<<<<<<<<<:<<<>>::::::",
"OO+#-:<<1121211211111211<1<<<:::<<1111112112121211218111<666::::",
"##=-<<6122255225444438038>7>>>>><1122222,55,555222225221121<<<::",
"--:<,2825555555545555000038>>>>>6128455555555555555555552221<:::",
"::<<185555555555eeeeeee0003>>>>>1204w5wwwwww55r5555555555221::-$",
":6<1148055r555r55e5ee5ee0003>>>>82w0w5rwwrww555rrr5rr5r55521-$$$",
"::6620ww555rr5rrrr55eeee00033>>328wwww5ewwwrwrww5r5r55r5554,-@OO",
"::<620ww5r555555555reeee0000>>>>20wwwwwwwwwwwwww55r55r55555,#@O.",
"-::<205rr5r55rr5r55reeee0003;;;;25ww5wwwwwwwwwww5r5555rr5w4,#OX.",
"##*-,55w55r55r55e5reeee0y00>;;&;14wwrewrwrwwrwwwr55rr555e55,*##O",
"O+#*,35wwwwwwr5rr555rr55003;;%%&,45w555rrrr5rwwr5r55wwwww04<;-##",
".XO&-10055wwww55e5555555033;%oo%-180555555r555wwr555wwww0041::--",
".OO#-184555555525345455433;%%oo%*,123435555455,554555450821<::-$",
"O#+#-<11222<,,,,,,,,,,,,;;%%o..o@***,,,,,,,,,,,,,,,,2224111:-$$$",
"#$=-::<121<,,%%%%%%%@%%%%%oo..ooO+@%@%%%@@%%%%%%%%@,;<1166:-$#+O",
"--:-::<<<<,-@oooooooooo.oooo.oooXXX+XXooooooooooooo@--<<<::$+O.O",
"$:--:::><<-*@oo.oooooooooo.%%.%%XXXXoXXXooooooo.ooo@-:>><>-$+OO.",
"$$=--::1<<<,**@@@@%%%%%%%%%%%%%%%%%%%%%%@@@@%%%@@@@,;<<11<:$$#++",
"OO##;;>>333>;;;;;;;;;;;;;;;;;;;;;;;;;;;;;;;3;;;3,,,,333333>-&&$$",
"OOO#&;>03000003300333300333330033330333033303330233300333>3;>-:=",
"  OO&;>40000000e0000000000000000e0000000000000005055000333>>>==:",
"  O+;;040000ee0ed0000000eeeeeee0eeeee0eeee000000eeeee000033>-$$$",
" .X@*34000000eee00000000eee0ee00e0e0000eee0000000e00e000033;=#++",
" .X@;35e00000000000000000000e0000e000000000000000000e000003;&+O.",
"..+%;355000000000000000000000000000000000000000004000000003;#X. ",
" .O%*344000030000300000000330030030003030000003040040000003;+X. ",
"..X&;>30333303333333333333333333333333333333833333333033333&+o. ",
" .X+&>333333333>33333>>33333333333333333>333>333333>>>3333>&+o. ",
" ..+&;;;;;;;>;>;;;;;>>>;>;;;;;;;;;;;;;;;;;;;>>;;>>;;>;;;>;;&+X..",
"..XX+&&&&&&&&&&&&&&;&&&&&&&&&&&%%%;%&;&&&&&&&&&&&&&&;&&&&&&+oX..",
"..XX++++++++++++++++++++&+++%%o+%%o%%%%o++++++++++++++++++++XX..",
"....XX.X+XXX+XX+X.+.oXoX+X.+o.oo.o.o%oooXX+XXX+X+XXXXo+XoX.X....",
".............. .................................................",
"X.... . . . ..  ......................... .. .  .. .  .. ......."
};
