/* XPM */
static char *result[] = {
/* columns rows colors chars-per-pixel */
"64 64 206 2 ",
"   c #4C2F49",
".  c #4B2E49",
"X  c #4A2E49",
"o  c #4A2D49",
"O  c #492D49",
"+  c #4D3049",
"@  c #4E3149",
"#  c #50324A",
"$  c #51334A",
"%  c #52344A",
"&  c #56364A",
"*  c #59394B",
"=  c #5C3B4B",
"-  c #5C3C4B",
";  c #56374A",
":  c #52334A",
">  c #5A3A4B",
",  c #5D3C4B",
"<  c #63414C",
"1  c #67444D",
"2  c #68454D",
"3  c #68444D",
"4  c #64414C",
"5  c #503249",
"6  c #5D3C4C",
"7  c #6D484D",
"8  c #724C4E",
"9  c #734D4E",
"0  c #64424C",
"q  c #77514F",
"w  c #79524F",
"e  c #78514F",
"r  c #77504E",
"t  c #76504E",
"y  c #67444C",
"u  c #714B4D",
"i  c #78514E",
"p  c #7A534E",
"a  c #78524E",
"s  c #77504D",
"d  c #76504D",
"f  c #69454D",
"g  c #523349",
"h  c #5B3B4A",
"j  c #67444B",
"k  c #704B4C",
"l  c #764F4D",
"z  c #77514D",
"x  c #744E4B",
"c  c #734D4B",
"v  c #513349",
"b  c #5A3A4A",
"n  c #65424A",
"m  c #6E494A",
"M  c #744F4B",
"N  c #734E4B",
"B  c #714C4A",
"V  c #704B49",
"C  c #6F4B49",
"Z  c #724D4E",
"A  c #593949",
"S  c #634149",
"D  c #6B4749",
"F  c #714C49",
"G  c #704C49",
"H  c #6E4A48",
"J  c #583949",
"K  c #624048",
"L  c #694648",
"P  c #6F4B48",
"I  c #6D4947",
"U  c #6D4A48",
"Y  c #614048",
"T  c #6F4A48",
"R  c #5B3B4B",
"E  c #754F4D",
"W  c #754F4C",
"Q  c #724D4A",
"!  c #714C4D",
"~  c #65424B",
"^  c #6E4A4C",
"/  c #734E4C",
"(  c #6F4A4C",
")  c #66434B",
"_  c #59394A",
"`  c #63414A",
"'  c #6C484A",
"]  c #714D4A",
"[  c #64424A",
"{  c #624049",
"}  c #6A4749",
"|  c #624149",
" . c #704B48",
".. c #6A4648",
"X. c #6D494A",
"o. c #734D4A",
"O. c #624148",
"+. c #6A4748",
"@. c #704C48",
"#. c #4D304A",
"$. c #4B2E4A",
"%. c #754F4B",
"&. c #66444C",
"*. c #53344B",
"=. c #4E304B",
"-. c #4B2E4B",
";. c #66434C",
":. c #704B4D",
">. c #492D48",
",. c #64414D",
"<. c #6D484E",
"1. c #714C4E",
"2. c #6E494B",
"3. c #6D494E",
"4. c #65424D",
"5. c #573849",
"6. c #5F3E49",
"7. c #664348",
"8. c #6B4748",
"9. c #6E4A4B",
"0. c #6C484D",
"q. c #62404A",
"w. c #563747",
"e. c #4D3044",
"r. c #472B43",
"t. c #442942",
"y. c #4B2F4A",
"u. c #51334B",
"i. c #57384C",
"p. c #5F3D4D",
"a. c #65424E",
"s. c #68454E",
"d. c #65434E",
"f. c #5F3E4D",
"g. c #58384C",
"h. c #4C2F4A",
"j. c #55364A",
"k. c #603F4A",
"l. c #62414A",
"z. c #63414B",
"x. c #593946",
"c. c #4D3040",
"v. c #44293B",
"b. c #3E2538",
"n. c #3B2337",
"m. c #4C2F4B",
"M. c #4D304B",
"N. c #50324B",
"B. c #53354C",
"V. c #5B3B4D",
"C. c #5D3C4D",
"Z. c #5C3B4D",
"A. c #4D2F4B",
"S. c #4F314B",
"D. c #52344B",
"F. c #58394A",
"G. c #5B3A4B",
"H. c #5C3C4C",
"J. c #5E3D4D",
"K. c #583848",
"L. c #4E3140",
"P. c #422837",
"I. c #392230",
"U. c #341D2B",
"Y. c #311C29",
"T. c #4B2F49",
"R. c #4D2F49",
"E. c #4F3149",
"W. c #503349",
"Q. c #4C2F44",
"!. c #43293A",
"~. c #38212F",
"^. c #301B26",
"/. c #2A1721",
"(. c #28151E",
"). c #482C44",
"_. c #472B42",
"`. c #42283D",
"'. c #3A2233",
"]. c #2A1620",
"[. c #25131A",
"{. c #231218",
"}. c #3D2438",
"|. c #3C2438",
" X c #3D2439",
".X c #3C2337",
"XX c #392133",
"oX c #331D2C",
"OX c #2C1823",
"+X c #27141D",
"@X c #241219",
"#X c #221117",
"$X c #331D2B",
"%X c #321C2B",
"&X c #321D2B",
"*X c #301B29",
"=X c #2D1824",
"-X c #29161F",
";X c #26141B",
":X c #2A1720",
">X c #27141C",
",X c #26131B",
"<X c #251319",
"1X c #231117",
"2X c #241218",
"3X c white",
/* pixels */
"      . X o o O O o o o o o o o o o o o o o o O O o o X .             . X o o O O o o o o o o o o o o o o o o O O o o X .       ",
"                                                                                                                                ",
"    + @ # $ % % % % % % % % % % % % % % % % % % % % $ # @ +         + @ # $ % % % % % % % % % % % % % % % % % % % % $ # @ +     ",
".   @ $ & * = - = = = = = = = = = = = = = = = = - = * ; : @   . .   @ : ; > = - - = = = = = = = = = = = = = = = - = * & $ @   . ",
"X   # & , < 1 2 2 3 3 3 3 3 3 3 3 3 3 3 3 3 3 2 2 1 4 , ; 5   X X   # ; 6 4 1 2 2 3 3 3 3 3 3 3 3 3 3 3 3 3 3 2 2 1 < , & #   X ",
"o   $ * < 7 8 9 9 8 8 8 8 8 8 8 8 8 8 8 8 8 8 9 9 8 7 0 > $   o o   $ > 0 7 8 9 9 8 8 8 8 8 8 8 8 8 8 8 8 8 8 9 9 8 7 < * $   o ",
"o   % = 1 8 q w e r t t t t t t t t t t t t r e w q 8 3 = %   O O   : = y u t i i r t t t t t t t t t t t t r e w q 8 1 = %   o ",
"O   % - 2 9 w p a s d d d d d d d d d d d d s a p w 9 f , %   O O   g h j k l z s d d d d d d d d d d d d d s a p w 9 2 - %   O ",
"O   % = 2 9 e a d x c c c c c c c c c c c c x d a e 9 f , %   O O   v b n m c M x N c c c c c c c c c c c c x d a e 9 2 = %   O ",
"o   % = 3 8 r s x B V C C V V V V V V C C V B x s r Z 2 - %   o o   v A S D C F G V V V V V V V V V V C C V B x s r 8 3 = %   o ",
"o   % = 3 8 t d c V H H H H H H H H H H H H V c d t 8 2 - %   o o   v J K L H P P H H H H H H H H H H H H H V c d t 8 3 = %   o ",
"o   % = 3 8 r d c C H I U H H H H H H U I H C c d r Z 2 - %   o o   v J Y L U P T H H H H H H H H H H U I H C c d r 8 3 = %   o ",
"o   % = 3 8 r d c C H U U H H H H H H U U H C c d r Z 2 , %   o o   v J Y L H P P H H H H H H H H H H U U H C c d r 8 3 = %   o ",
"o   % = 1 8 t d c C H H H H H H H H H H H H C c d t 8 2 - %   o o   v J K L H P P H H H H H H H H H H H H H C c d t 8 1 = %   o ",
"o   % R y u E W Q C H H H H H H H H H H H H C Q W E ! y = :   o o   v J K L H P P H H H H H H H H H H H H H C Q W E u y R %   o ",
"o   v b ~ ^ / N B C H H H H H H H H H H H H C B N / ( ) h v   o o   v J K L H P P H H H H H H H H H H H H H C B N / ^ ~ b v   o ",
"o   v _ ` ' B ] G T H H H H H H H H H H H H T G ] B ' [ b v   o o   v J K L H P P H H H H H H H H H H H H H T G ] B ' ` _ v   o ",
"o   v A { } C G P H H H H H H H H H H H H H H P G C D | A v   o o   v J K L H P P H H H H H H H H H H H H H H P G C } { A v   o ",
"o   v A { D C G  .T H H H H H H H H H H H H T  .G C D S A v   o o   v A K ..H P P H H H H H H H H H H H H H T  .G C D { A v   X ",
"o   v b [ X.Q o.F  .P P P P P P P P P P P P  .F o.Q X.n b v   o o   v A O.+.P @. .P P P P P P P P P P P P P  .F Q Q X.[ b % #.$.",
"o   g h ) k W %.o.G P P P P P P P P P P P P G o.%.W k j h g   o o   v A O.+.P @.@.P P P P P P P P P P P P P G o.%.W k &.= *.=.-.",
"o   : R ;.:.E W Q C H H H H H H H H H H H H C Q W E u y = :   o o   v J Y L H P P H H H H H H H H H H H H H C Q W E :.;.R g   >.",
"o   $ > ,.<.1.k 2.D +.L L ............L L +.D 2.k 1.3.4.> $   o X   5 5.6.7.L 8.+.+...................L L +.D 9.u ! 0.q.w.e.r.t.",
"y.#.u.i.p.a.s.2 ) [ ` | | ` ` ` ` ` ` | | ` [ ) 2 s.d.f.g.u.#.y.h.#.# j.h k.l.` ` ` ` ` ` ` ` ` ` ` ` | | ` [ ;.2 s.z.x.c.v.b.n.",
"m.M.N.B.g.V.C.6 = > b b b b b b b b b b b b > = 6 C.Z.g.B.N.M.m.A.M.S.D.j.F.b b b b b b b b b b b b b b b b G.H.J.6 K.L.P.I.U.Y.",
"T.  R.@ 5 v g v v v 5 5 5 5 5 5 5 5 5 5 5 5 v v v g v 5 @ R.  T.T.    + E.5 5 v W.W.5 5 5 5 5 5 5 5 5 5 5 5 v % *.v Q.!.~.^./.(.",
"r.r.r.r.r.r.r.r.r.r.r.r.r.r.r.r.r.r.r.r.r.r.r.r.r.r.r.r.r.r.r.r.r.r.r.r.r.r.r.r.r.r.r.r.r.r.r.r.r.r.r.r.r.r.r.).)._.`.'.Y.].[.{.",
"b.b.b.}.}.|.|.|.|.|.}.}.}.}.}.}.}.}.}.}.}.}.|.|.|.|.|.}.}.b.b.b.b.b.b.}.}.}.}.|.|.}.}.}.}.}.}.}.}.}.}.}.}.}.}. X X.XXXoXOX+X@X#X",
"$X$X$X$X$X%X%X%X%X&X&X&X&X&X&X&X&X&X&X&X&X&X&X%X%X%X%X$X$X$X$X$X$X$X$X$X$X$X&X&X&X&X&X&X&X&X&X&X&X&X&X&X&X&X&XoXoX%X*X=X-X;X@X{.",
":X:X:X:X:X:X:X:X:X:X:X:X:X:X:X:X:X:X:X:X:X:X:X:X:X:X:X:X:X:X:X:X:X:X:X:X:X:X:X:X:X:X:X:X:X:X:X:X:X:X:X:X:X:X:X:X/.:X-X(.>X,X[.<X",
"[.[.[.[.[.[.[.[.[.[.[.[.[.[.[.[.[.[.[.[.[.[.[.[.[.[.[.[.[.[.[.[.[.[.[.[.[.[.[.[.[.[.[.[.[.[.[.[.[.[.[.[.[.[.[.[.[.[.[.[.[.[.[.[.",
"1X1X1X1X1X1X1X1X1X1X1X1X1X1X1X1X1X1X1X1X1X1X1X1X1X1X1X1X1X1X1X1X1X1X1X1X1X1X1X1X1X1X1X1X1X1X1X1X1X1X1X1X1X1X1X1X1X1X{.2X@X[.[.[.",
"1X1X1X1X1X1X1X1X1X1X1X1X1X1X1X1X1X1X1X1X1X1X1X1X1X1X1X1X1X1X1X1X1X1X1X1X1X1X1X1X1X1X1X1X1X1X1X1X1X1X1X1X1X1X1X1X1X1X{.2X@X[.[.[.",
"[.[.[.[.[.[.[.[.[.[.[.[.[.[.[.[.[.[.[.[.[.[.[.[.[.[.[.[.[.[.[.[.[.[.[.[.[.[.[.[.[.[.[.[.[.[.[.[.[.[.[.[.[.[.[.[.[.[.[.[.[.[.[.[.",
":X:X:X:X:X:X:X:X:X:X:X:X:X:X:X:X:X:X:X:X:X:X:X:X:X:X:X:X:X:X:X:X:X:X:X:X:X:X:X:X:X:X:X:X:X:X:X:X:X:X:X:X:X:X:X:X/.:X-X(.>X,X[.<X",
"$X$X$X$X$X%X%X%X%X&X&X&X&X&X&X&X&X&X&X&X&X&X&X%X%X%X%X$X$X$X$X$X$X$X$X$X$X$X&X&X&X&X&X&X&X&X&X&X&X&X&X&X&X&X&XoXoX%X*X=X-X;X@X{.",
"b.b.b.}.}.|.|.|.|.|.}.}.}.}.}.}.}.}.}.}.}.}.|.|.|.|.|.}.}.b.b.b.b.b.b.}.}.}.}.|.|.}.}.}.}.}.}.}.}.}.}.}.}.}.}. X X.XXXoXOX+X@X#X",
"r.r.r.r.r.r.r.r.r.r.r.r.r.r.r.r.r.r.r.r.r.r.r.r.r.r.r.r.r.r.r.r.r.r.r.r.r.r.r.r.r.r.r.r.r.r.r.r.r.r.r.r.r.r.r.).)._.`.'.Y.].[.{.",
"T.  R.@ 5 v g v v v 5 5 5 5 5 5 5 5 5 5 5 5 v v v g v 5 @ R.  T.T.    + E.5 5 v W.W.5 5 5 5 5 5 5 5 5 5 5 5 v % *.v Q.!.~.^./.(.",
"m.M.N.B.g.V.C.6 = > b b b b b b b b b b b b > = 6 C.Z.g.B.N.M.m.A.M.S.D.j.F.b b b b b b b b b b b b b b b b G.H.J.6 K.L.P.I.U.Y.",
"y.#.u.i.p.a.s.2 ) [ ` | | ` ` ` ` ` ` | | ` [ ) 2 s.d.f.g.u.#.y.h.#.# j.h k.l.` ` ` ` ` ` ` ` ` ` ` ` | | ` [ ;.2 s.z.x.c.v.b.n.",
"o   $ > ,.<.1.k 2.D +.L L ............L L +.D 2.k 1.3.4.> $   o X   5 5.6.7.L 8.+.+...................L L +.D 9.u ! 0.q.w.e.r.t.",
"o   : R ;.:.E W Q C H H H H H H H H H H H H C Q W E u y = :   o o   v J Y L H P P H H H H H H H H H H H H H C Q W E :.;.R g   >.",
"o   g h ) k W %.o.G P P P P P P P P P P P P G o.%.W k j h g   o o   v A O.+.P @.@.P P P P P P P P P P P P P G o.%.W k &.= *.=.-.",
"o   v b [ X.Q o.F  .P P P P P P P P P P P P  .F o.Q X.n b v   o o   v A O.+.P @. .P P P P P P P P P P P P P  .F Q Q X.[ b % #.$.",
"o   v A { D C G  .T H H H H H H H H H H H H T  .G C D S A v   o o   v A K ..H P P H H H H H H H H H H H H H T  .G C D { A v   X ",
"o   v A { } C G P H H H H H H H H H H H H H H P G C D | A v   o o   v J K L H P P H H H H H H H H H H H H H H P G C } { A v   o ",
"o   v _ ` ' B ] G T H H H H H H H H H H H H T G ] B ' [ b v   o o   v J K L H P P H H H H H H H H H H H H H T G ] B ' ` _ v   o ",
"o   v b ~ ^ / N B C H H H H H H H H H H H H C B N / ( ) h v   o o   v J K L H P P H H H H H H H H H H H H H C B N / ^ ~ b v   o ",
"o   % R y u E W Q C H H H H H H H H H H H H C Q W E ! y = :   o o   v J K L H P P H H H H H H H H H H H H H C Q W E u y R %   o ",
"o   % = 1 8 t d c C H H H H H H H H H H H H C c d t 8 2 - %   o o   v J K L H P P H H H H H H H H H H H H H C c d t 8 1 = %   o ",
"o   % = 3 8 r d c C H U U H H H H H H U U H C c d r Z 2 , %   o o   v J Y L H P P H H H H H H H H H H U U H C c d r 8 3 = %   o ",
"o   % = 3 8 r d c C H I U H H H H H H U I H C c d r Z 2 - %   o o   v J Y L U P T H H H H H H H H H H U I H C c d r 8 3 = %   o ",
"o   % = 3 8 t d c V H H H H H H H H H H H H V c d t 8 2 - %   o o   v J K L H P P H H H H H H H H H H H H H V c d t 8 3 = %   o ",
"o   % = 3 8 r s x B V C C V V V V V V C C V B x s r Z 2 - %   o o   v A S D C F G V V V V V V V V V V C C V B x s r 8 3 = %   o ",
"O   % = 2 9 e a d x c c c c c c c c c c c c x d a e 9 f , %   O O   v b n m c M x N c c c c c c c c c c c c x d a e 9 2 = %   O ",
"O   % - 2 9 w p a s d d d d d d d d d d d d s a p w 9 f , %   O O   g h j k l z s d d d d d d d d d d d d d s a p w 9 2 - %   O ",
"o   % = 1 8 q w e r t t t t t t t t t t t t r e w q 8 3 = %   O O   : = y u t i i r t t t t t t t t t t t t r e w q 8 1 = %   o ",
"o   $ * < 7 8 9 9 8 8 8 8 8 8 8 8 8 8 8 8 8 8 9 9 8 7 0 > $   o o   $ > 0 7 8 9 9 8 8 8 8 8 8 8 8 8 8 8 8 8 8 9 9 8 7 < * $   o ",
"X   # & , < 1 2 2 3 3 3 3 3 3 3 3 3 3 3 3 3 3 2 2 1 4 , ; 5   X X   # ; 6 4 1 2 2 3 3 3 3 3 3 3 3 3 3 3 3 3 3 2 2 1 < , & #   X ",
".   @ $ & * = - = = = = = = = = = = = = = = = = - = * ; : @   . .   @ : ; > = - - = = = = = = = = = = = = = = = - = * & $ @   . ",
"    + @ # $ % % % % % % % % % % % % % % % % % % % % $ # @ +         + @ # $ % % % % % % % % % % % % % % % % % % % % $ # @ +     ",
"                                                                                                                                ",
"      . X o o O O o o o o o o o o o o o o o o O O o o X .             . X o o O O o o o o o o o o o o o o o o O O o o X .       "
};
