/* XPM */
static char *result[] = {
/* columns rows colors chars-per-pixel */
"64 64 227 2 ",
"   c #4C2F49",
".  c #4B2E49",
"X  c #4A2E49",
"o  c #4A2D49",
"O  c #4C2F4A",
"+  c #4D2F4B",
"@  c #472B43",
"#  c #3E2538",
"$  c #331D2B",
"%  c #2A1720",
"&  c #25131A",
"*  c #231117",
"=  c #4D304A",
"-  c #4D304B",
";  c #4D2F49",
":  c #4E3049",
">  c #4F3149",
",  c #503249",
"<  c #513349",
"1  c #523349",
"2  c #52334A",
"3  c #52344A",
"4  c #50324A",
"5  c #4F314B",
"6  c #533549",
"7  c #563749",
"8  c #583949",
"9  c #5A3A4A",
"0  c #5B3A4A",
"q  c #5B3B4B",
"w  c #5C3B4B",
"e  c #5A3A49",
"r  c #54364A",
"t  c #4D3049",
"y  c #3D2438",
"u  c #593948",
"i  c #5E3D48",
"p  c #624049",
"a  c #64424A",
"s  c #65434B",
"d  c #66434C",
"f  c #67444D",
"g  c #68444D",
"h  c #67444C",
"j  c #66434B",
"k  c #614049",
"l  c #55364A",
"z  c #654348",
"x  c #6A4749",
"c  c #6D494A",
"v  c #704B4C",
"b  c #714C4D",
"n  c #724C4E",
"m  c #664349",
"M  c #5F3E4A",
"N  c #58384A",
"B  c #583848",
"V  c #613F48",
"C  c #694648",
"Z  c #6F4B49",
"A  c #734D4B",
"S  c #754F4C",
"D  c #77504E",
"F  c #78514F",
"G  c #77504F",
"H  c #76504E",
"J  c #764F4D",
"K  c #734E4B",
"L  c #704B4A",
"P  c #6B4749",
"I  c #63414A",
"U  c #5A3A4B",
"Y  c #503349",
"T  c #3C2438",
"R  c #321D2B",
"E  c #583948",
"W  c #614048",
"Q  c #6A4748",
"!  c #704C49",
"~  c #744F4B",
"^  c #77504D",
"/  c #78514E",
"(  c #79524F",
")  c #76504D",
"_  c #764F4C",
"`  c #76504C",
"'  c #754F4B",
"]  c #6E4A4B",
"[  c #321C2B",
"{  c #704B49",
"}  c #744E4B",
"|  c #79514F",
" . c #77514E",
".. c #5D3C4C",
"X. c #6A4648",
"o. c #754F4D",
"O. c #714C4A",
"+. c #714C4E",
"@. c #68454E",
"#. c #5D3C4D",
"$. c #704C4A",
"%. c #744E4C",
"&. c #6E4A48",
"*. c #6D4A48",
"=. c #724D4E",
"-. c #69464E",
";. c #5E3D4D",
":. c #59394A",
">. c #6D494B",
",. c #724D4B",
"<. c #744F4C",
"1. c #734E4C",
"2. c #6F4A48",
"3. c #6D4947",
"4. c #734D4F",
"5. c #6A464F",
"6. c #6F4A4C",
"7. c #714B4D",
"8. c #724D4A",
"9. c #6F4B48",
"0. c #5C3C4C",
"q. c #64414A",
"w. c #593949",
"e. c #704C48",
"r. c #704B48",
"t. c #472C43",
"y. c #624048",
"u. c #5B3A4B",
"i. c #583849",
"p. c #62414A",
"a. c #5E3D49",
"s. c #6B4748",
"d. c #5F3E49",
"f. c #573849",
"g. c #4E3147",
"h. c #452A41",
"j. c #3B2337",
"k. c #2A1620",
"l. c #4F3249",
"z. c #543549",
"x. c #634149",
"c. c #5E3E48",
"v. c #593A48",
"b. c #523448",
"n. c #4B2E45",
"m. c #43293F",
"M. c #3A2235",
"N. c #311C2A",
"B. c #291620",
"V. c #4E3149",
"C. c #593A49",
"Z. c #563748",
"A. c #523447",
"S. c #4C3046",
"D. c #462B42",
"F. c #3F263C",
"G. c #372133",
"H. c #301B28",
"J. c #29161F",
"K. c #231218",
"L. c #4B2F45",
"P. c #41283E",
"I. c #3B2438",
"U. c #351F30",
"Y. c #2E1A26",
"T. c #28161F",
"R. c #4A2E47",
"E. c #4B2E48",
"W. c #482C45",
"Q. c #452A42",
"!. c #41273E",
"~. c #3C2439",
"^. c #2C1824",
"/. c #28151E",
"(. c #241218",
"). c #472C45",
"_. c #472B45",
"`. c #462B45",
"'. c #472B46",
"]. c #432942",
"[. c #3F263D",
"{. c #3A2337",
"}. c #361F31",
"|. c #311C2B",
" X c #2D1926",
".X c #2A1721",
"XX c #27141D",
"oX c #241219",
"OX c #432941",
"+X c #422941",
"@X c #422841",
"#X c #40263D",
"$X c #351F2F",
"%X c #2F1B28",
"&X c #2C1823",
"*X c #27151D",
"=X c #26141B",
"-X c #251319",
";X c #3F273E",
":X c #40273E",
">X c #372032",
",X c #2B1823",
"<X c #26141C",
"1X c #26131B",
"2X c #3A2336",
"3X c #382133",
"4X c #341E2E",
"5X c #2F1A28",
"6X c #2B1722",
"7X c #27141C",
"8X c #25131B",
"9X c #341E2F",
"0X c #331D2D",
"qX c #301B29",
"wX c #2D1925",
"eX c #2E1A27",
"rX c #321D2C",
"tX c #28151F",
"yX c #3A2236",
"uX c #2F1A27",
"iX c #241319",
"pX c #351F31",
"aX c #362031",
"sX c #3B2338",
"dX c #372033",
"fX c #2D1924",
"gX c white",
/* pixels */
"      . . X o o o o o o o o o o o o o o o o . O +   @ # $ % & * * & % $ # @   + O . o o o o o o o o o o o o o o o o X . .       ",
"                                              = -   @ # $ % & * * & % $ # @   - =                                               ",
"    ; : > , < < 1 2 3 3 3 3 3 3 3 3 3 1 < < , 4 5   @ # $ % & * * & % $ # @   5 4 , < < 1 3 3 3 3 3 3 3 3 3 2 1 < < , > : ;     ",
".   : , 6 7 8 9 0 q w w w w w w w w q 0 e 8 7 r 2 t @ y $ % & * * & % $ y @ t 2 r 7 8 e 0 q w w w w w w w w q 0 9 8 7 6 , :   . ",
".   > 6 u i p a s d f g g f g g g f h j a k i 9 l > @ y $ % & * * & % $ y @ > l 9 i k a j h f g g g f g g f d s a p i u 6 >   . ",
"X   , 7 i z x c v b n n n n n n n n b v c x m M N , @ y $ % & * * & % $ y @ , N M m x c v b n n n n n n n n b v c x z i 7 ,   X ",
"X   < B V C Z A S D F F G D H D D H J S K L P I U Y @ T R % & * * & % R T @ Y U I P L K S J H D D H D G F F D S A Z C V B <   X ",
"o   < E W Q ! ~ ^ / ( ( / ) ) ) ) ) _ ` ' K ] j w < @ T [ % & * * & % [ T @ < w j ] K ' ` _ ) ) ) ) ) / ( ( / ^ ~ ! Q W E <   o ",
"o   < E W Q { } ^ / |  .J } A A A A K ' ` S v h ..< @ T [ % & * * & % [ T @ < ..h v S ` ' K A A A A } J  .| / ^ } { Q W E <   o ",
"o   < B W X.Z K J D D o.A O.{ Z Z { O.K _ J +.@.#.1 @ T [ % & * * & % [ T @ 1 #.@.+.J _ K O.{ Z Z { O.A o.D D J K Z X.W B <   o ",
"o   < 8 p P $.} S J o.%.O.Z &.*.*.&.{ A ) H =.-.;.2 @ T [ % & * * & % [ T @ 2 ;.-.=.H ) A { &.*.*.&.Z O.%.o.J S } $.P p 8 <   o ",
"o   < :.I >.,.<.S %.1.,.$.2.&.3.3.&.Z A ) D 4.5.;.3 @ T [ % & * * & % [ T @ 3 ;.5.4.D ) A Z &.3.3.&.2.$.,.1.%.S <.,.>.I :.<   o ",
"o   2 9 s 6.%.S %.,.O.{ Z &.&.*.3.&.Z K ) D 4.5.;.3 @ T [ % & * * & % [ T @ 3 ;.5.4.D ) K Z &.3.*.&.&.Z { O.,.%.S %.6.s 9 2   o ",
"o   2 q h 7.o.S K O.Z 2.&.&.&.&.&.&.{ A ) H n -.;.2 @ T [ % & * * & % [ T @ 2 ;.-.n H ) A { &.&.&.&.&.&.2.Z O.K S o.7.h q 2   o ",
"o   3 q h 7.o.S 8.Z &.&.&.&.&.&.&.&.Z 8.S o.+.@.#.1 @ T [ % & * * & % [ T @ 1 #.@.+.o.S 8.Z &.&.&.&.&.&.&.&.Z 8.S o.7.h q 3   o ",
"o   2 0 s 6.%.} O.9.&.&.&.&.&.&.&.&.Z O.K 1.6.f 0.< @ T [ % & * * & % [ T @ < 0.f 6.1.K O.Z &.&.&.&.&.&.&.&.9.O.} %.6.s 0 2   o ",
"o   < 9 q.c O.8.! &.&.&.&.&.&.&.&.&.2.! 8.O.>.s q < @ T [ % & * * & % [ T @ < q s >.O.8.! 2.&.&.&.&.&.&.&.&.&.! 8.O.c q.9 <   o ",
"o   < w.p x Z ! 9.&.&.&.&.&.&.&.&.&.&.9.! Z P I U < @ T R % & * * & % R T @ < U I P Z ! 9.&.&.&.&.&.&.&.&.&.&.9.! Z x p w.<   o ",
"o   < 8 W C &.9.9.&.&.&.&.&.&.&.&.&.&.9.9.&.Q I 9 Y @ y R % & * * & % R y @ Y 9 I Q &.9.9.&.&.&.&.&.&.&.&.&.&.9.9.&.C W 8 <   o ",
"o   < 8 W Q &.e.r.9.9.9.9.9.9.9.9.9.9.r.e.&.Q I 9 < t.y $ % & * * & % $ y t.< 9 I Q &.e.r.9.9.9.9.9.9.9.9.9.9.r.e.&.Q W 8 <   o ",
"o   < 8 y.Q 9.e.e.9.9.9.9.9.9.9.9.9.9.e.e.9.Q I u.< t.y $ % & * * & % $ y t.< u.I Q 9.e.e.9.9.9.9.9.9.9.9.9.9.e.e.9.Q y.8 <   o ",
"X   < i.W C &.9.9.&.&.&.&.&.&.&.&.&.&.9.9.&.C p.9 , @ T R % & * * & % R T @ , 9 p.C &.9.9.&.&.&.&.&.&.&.&.&.&.9.9.&.C W i.<   X ",
"X   , 7 a.z C s.Q Q C C C C C C C C Q Q s.C z d.f.g.h.j.[ k.& * * & k.[ j.h.g.f.d.z C s.Q Q C C C C C C C C Q Q s.C z a.7 ,   X ",
". ; l.z.e d.p x.x.p p p p p p p p p p x.x.p c.v.b.n.m.M.N.B.& * * & B.N.M.m.n.b.v.c.p x.x.p p p p p p p p p p x.x.p d.e z.l.; . ",
"O ; V.< z.f.w.C.w.w.w.w.w.w.w.w.w.w.w.e e w.Z.A.S.D.F.G.H.J.& K.K.& J.H.G.F.D.S.A.Z.w.e e w.w.w.w.w.w.w.w.w.w.w.C.w.f.z.< V.; O ",
"    ; : > , Y < < < < < < < < < < < < < < Y g.L.D.P.I.U.Y.T.& K.K.& T.Y.U.I.P.D.L.g.Y < < < < < < < < < < < < < < Y , > : ;     ",
"R.R.R.R.R.R.R.R.R.R.R.R.R.R.R.R.R.R.R.E.E.R.W.Q.!.~.G.[ ^./.& (.(.& /.^.[ G.~.!.Q.W.R.E.E.R.R.R.R.R.R.R.R.R.R.R.R.R.R.R.R.R.R.R.",
").).)._.`.`.`.`.`.`.`.`.`.`.`.`.`.`.`.`.'.`.].[.{.}.|. X.XXX& oXoX& XX.X X|.}.{.[.].`.'.`.`.`.`.`.`.`.`.`.`.`.`.`.`.`.`._.).).).",
"OXOXOXOXOXOX+X+X+X+X+X+X+X+X+X+X+X+XOX].].@X#Xj.$X%X&XB.*X=X& -X-X& =X*XB.&X%X$Xj.#X@X].].OX+X+X+X+X+X+X+X+X+X+X+X+XOXOXOXOXOXOX",
"[.[.[.[.[.[.[.[.[.[.[.[.[.[.[.[.[.[.[.;X:X[.~.>XN.,X/.<X1X& & & & & & 1X<X/.,XN.>X~.[.:X;X[.[.[.[.[.[.[.[.[.[.[.[.[.[.[.[.[.[.[.",
"{.{.{.{.{.{.{.{.{.{.{.{.{.{.{.{.{.{.{.{.{.2X3X4X5X6X/.7X=X8X& & & & 8X=X7X/.6X5X4X3X2X{.{.{.{.{.{.{.{.{.{.{.{.{.{.{.{.{.{.{.{.{.",
"4X4X4X4X4X4X4X4X4X4X4X4X4X4X4X4X4X4X4X9X9X4X0X|.qXY.&X.X/.=X& -X-X& =X/..X&XY.qX|.0X4X9X9X4X4X4X4X4X4X4X4X4X4X4X4X4X4X4X4X4X4X4X",
" X X X X X X X X X X X X X X X X X X XwXwX XeXqXrX0X[ eX6XXX& oXoX& XX6XeX[ 0XrXqXeX XwXwX X X X X X X X X X X X X X X X X X X X",
"/././././././././././././././././././././.tX6X%X9XG.>X0XwX/.& (.(.& /.wX0X>XG.9X%X6XtX/././././././././././././././././././././.",
"& & & & & & & & & & & & & & & & & & & -XoX& T.eXU.yXyXU.eXtX& (.(.& tXeXU.yXyXU.eXT.& oX-X& & & & & & & & & & & & & & & & & & & ",
"oXoXoXoXoXoXoXoXoXoXoXoXoXoXoXoXoXoXoXK.K.oX/.eXU.{.{.}.uXT.& K.K.& T.uX}.{.{.U.eX/.oXK.K.oXoXoXoXoXoXoXoXoXoXoXoXoXoXoXoXoXoXoX",
"iXiXiXiXiXiXiXiXiXiXiXiXiXiXiXiXiXiXoX(.K.-X/.eXU.{.{.}.uXT.& K.K.& T.uX}.{.{.U.eX/.-XK.(.oXiXiXiXiXiXiXiXiXiXiXiXiXiXiXiXiXiXiX",
"& & & & & & & & & & & & & & & & & & & oXoX& /.eXU.2X{.U.eXT.& (.(.& T.eXU.{.2XU.eX/.& oXoX& & & & & & & & & & & & & & & & & & & ",
"& & & & & & & & & & & & & & & & & & & iXoX& T.eXU.{.{.U.eXT.& (.(.& T.eXU.{.{.U.eXT.& oXiX& & & & & & & & & & & & & & & & & & & ",
"& & & & & & & & & & & & & & & & & & & iXoX& T.uXpX{.{.pXuXT.& K.K.& T.uXpX{.{.pXuXT.& oXiX& & & & & & & & & & & & & & & & & & & ",
"& & & & & & & & & & & & & & & & & & & iXoX& T.uX}.{.{.}.uXT.& K.K.& T.uX}.{.{.}.uXT.& oXiX& & & & & & & & & & & & & & & & & & & ",
"& & & & & & & & & & & & & & & & & & & iXoX& tXeXU.yXyXU.eXtX& (.(.& tXeXU.yXyXU.eXtX& oXiX& & & & & & & & & & & & & & & & & & & ",
"& & & & & & & & & & & & & & & & & & & iXoX& /.wX0X>X>X0XwX/.& (.(.& /.wX0X>X>X0XwX/.& oXiX& & & & & & & & & & & & & & & & & & & ",
"& & & & & & & & & & & & & & & & & & & -XiX& *X6XuX[ [ uX6X*X& oXoX& *X6XuX[ [ uX6X*X& iX-X& & & & & & & & & & & & & & & & & & & ",
"& & & & & & & & & & & & & & & & & & & & & & <X/..X&X&X.X/.<X& -X-X& <X/..X&X&X.X/.<X& & & & & & & & & & & & & & & & & & & & & & ",
"& & & & & & & & & & & & & & & & & & & & & & 8X<X*X/./.*X<X8X& & & & 8X<X*X/./.*X<X8X& & & & & & & & & & & & & & & & & & & & & & ",
"& & & & & & & & & & & & & & & & & & & & & & 8X<X*X/./.*X<X8X& & & & 8X<X*X/./.*X<X8X& & & & & & & & & & & & & & & & & & & & & & ",
"& & & & & & & & & & & & & & & & & & & & & & <X/..X&X&X.X/.<X& -X-X& <X/..X&X&X.X/.<X& & & & & & & & & & & & & & & & & & & & & & ",
"& & & & & & & & & & & & & & & & & & & -XiX& *X6XuX[ [ uX6X*X& oXoX& *X6XuX[ [ uX6X*X& iX-X& & & & & & & & & & & & & & & & & & & ",
"& & & & & & & & & & & & & & & & & & & iXoX& /.wX0X>X>X0XwX/.& (.(.& /.wX0X>X>X0XwX/.& oXiX& & & & & & & & & & & & & & & & & & & ",
"& & & & & & & & & & & & & & & & & & & iXoX& T.eXU.yXyXU.eXT.& (.(.& T.eXU.yXyXU.eXT.& oXiX& & & & & & & & & & & & & & & & & & & ",
"& & & & & & & & & & & & & & & & & & & oXoX& J.5XaXsXsXaX5XJ.& K.K.& J.5XaXsXsXaX5XJ.& oXoX& & & & & & & & & & & & & & & & & & & ",
"& & & & & & & & & & & & & & & & & & & oXoX& J.5XaXsXsXaX5XJ.& K.K.& J.5XaXsXsXaX5XJ.& oXoX& & & & & & & & & & & & & & & & & & & ",
"& & & & & & & & & & & & & & & & & & & iXoX& T.eXU.yXyXU.eXT.& (.(.& T.eXU.yXyXU.eXT.& oXiX& & & & & & & & & & & & & & & & & & & ",
"& & & & & & & & & & & & & & & & & & & iXoX& /.wX0XdXdX0XwX/.& (.(.& /.wX0XdXdX0XwX/.& oXiX& & & & & & & & & & & & & & & & & & & ",
"& & & & & & & & & & & & & & & & & & & -XiX& *X6X%XrXrX%X6X*X& oXoX& *X6X%XrXrX%X6X*X& iX-X& & & & & & & & & & & & & & & & & & & ",
"& & & & & & & & & & & & & & & & & & & & & & <XT.6XfXfX6XT.<X& iXiX& <XT.6XfXfX6XT.<X& & & & & & & & & & & & & & & & & & & & & & ",
"& & & & & & & & & & & & & & & & & & & & & & 8X<X*X/./.*X<X8X& & & & 8X<X*X/./.*X<X8X& & & & & & & & & & & & & & & & & & & & & & ",
"& & & & & & & & & & & & & & & & & & & & & & & & & & & & & & & & & & & & & & & & & & & & & & & & & & & & & & & & & & & & & & & & ",
"& & & & & & & & & & & & & & & & & & & & & & & & iXoXoXiX& & & & & & & & iXoXoXiX& & & & & & & & & & & & & & & & & & & & & & & & ",
"& & & & & & & & & & & & & & & & & & & & & & & & -XiXiX-X& & & & & & & & -XiXiX-X& & & & & & & & & & & & & & & & & & & & & & & & ",
"& & & & & & & & & & & & & & & & & & & & & & & & & & & & & & & & & & & & & & & & & & & & & & & & & & & & & & & & & & & & & & & & ",
"& & & & & & & & & & & & & & & & & & & & & & & & & & & & & & & & & & & & & & & & & & & & & & & & & & & & & & & & & & & & & & & & ",
"& & & & & & & & & & & & & & & & & & & & & & & & & & & & & & & & & & & & & & & & & & & & & & & & & & & & & & & & & & & & & & & & "
};
