/* XPM */
static char *result[] = {
/* columns rows colors chars-per-pixel */
"64 64 119 2 ",
"   c #4C2F49",
".  c #4B2E49",
"X  c #4A2E49",
"o  c #4A2D49",
"O  c #492D49",
"+  c #4B2F49",
"@  c #4D3049",
"#  c #4E3049",
"$  c #4E3149",
"%  c #4F3149",
"&  c #503249",
"*  c #513349",
"=  c #523449",
"-  c #53344A",
";  c #523349",
":  c #52344A",
">  c #53354A",
",  c #4F3249",
"<  c #543549",
"1  c #563749",
"2  c #573849",
"3  c #583849",
"4  c #59394A",
"5  c #5A3A4B",
"6  c #5B3A4B",
"7  c #553648",
"8  c #583948",
"9  c #5B3B48",
"0  c #5E3D49",
"q  c #5F3E49",
"w  c #613F4A",
"e  c #62404B",
"r  c #62404C",
"t  c #63414C",
"y  c #61404B",
"u  c #603F4A",
"i  c #5F3E4A",
"p  c #5E3E49",
"a  c #5D3D48",
"s  c #5E3D48",
"d  c #63414D",
"f  c #614048",
"g  c #654249",
"h  c #67444A",
"j  c #69454B",
"k  c #6A464C",
"l  c #6B474D",
"z  c #6C484E",
"x  c #6C484D",
"c  c #68454B",
"v  c #654349",
"b  c #654348",
"n  c #644248",
"m  c #66444A",
"M  c #69464C",
"N  c #674448",
"B  c #6B4749",
"V  c #6D494A",
"C  c #6F4B4B",
"Z  c #714C4C",
"A  c #724C4D",
"S  c #724D4E",
"D  c #734D4E",
"F  c #724C4E",
"G  c #714B4D",
"H  c #6F4A4B",
"J  c #6C4849",
"K  c #6A4748",
"L  c #6B4849",
"P  c #6C494A",
"I  c #6E4A4B",
"U  c #704B4C",
"Y  c #714C4D",
"T  c #734D4F",
"R  c #6F4B49",
"E  c #724D4A",
"W  c #734E4B",
"Q  c #744F4C",
"!  c #754F4D",
"~  c #764F4E",
"^  c #76504E",
"/  c #77504F",
"(  c #734D4C",
")  c #714C4A",
"_  c #6E4A48",
"`  c #6D4948",
"'  c #6D4A48",
"]  c #6E4A49",
"[  c #704B4A",
"{  c #724C4B",
"}  c #734E4C",
"|  c #77504E",
" . c #744E4B",
".. c #754F4B",
"X. c #76504C",
"o. c #76504D",
"O. c #77504D",
"+. c #78514E",
"@. c #78514F",
"#. c #79524F",
"$. c #754F4C",
"%. c #704C49",
"&. c #6F4B48",
"*. c #6F4A48",
"=. c #704B49",
"-. c #714C49",
";. c #744E4C",
":. c #764F4C",
">. c #734D4A",
",. c #704B48",
"<. c #744F4B",
"1. c #724D4B",
"2. c #734D4B",
"3. c #764F4D",
"4. c #724C4A",
"5. c #704C4A",
"6. c #6D4947",
"7. c #744F4D",
"8. c white",
/* pixels */
"        . . . X o o o o O O O O O O O O O O O O O o o o o o o o o o o o o o o o o o o o O O O O O O O O o o o o X . . .         ",
"            + . . . . . . . . . . . . . . . . . . . . . . . . . . . . . . . . . . . . . . . . . . . . . . . . . . +             ",
"          @ @ @ # # # # # # # $ $ # # # $ $ $ # # # # # # # @ @ @ @ @ @ @ @ @ @ # # # # # # $ $ $ $ # # # # # # @ @ @           ",
"      @ # % & * * = = - - - - - - - - - - - - - - - = = ; * * * * * * * * * * * ; = = : - - - > > - - - - = = * * & % # @       ",
".     # , * < 1 2 3 4 4 5 5 6 6 6 5 5 5 5 5 5 5 5 4 4 3 2 2 2 2 2 2 2 2 2 2 2 2 2 3 4 4 5 5 6 6 6 6 5 5 4 4 3 2 1 < * , #     . ",
".   @ % * 7 8 9 0 q w e r t t t t t t t t t t t r y u i p 0 a a a s s s a a a 0 0 i u y r t t d d t t r e w q 0 9 8 7 * % @   . ",
". + @ & < 8 a f g h j k l l z z z z x x z z x l l k c h v b n n n n n n n n n n v m c M l l z z z z l l k j h g f a 8 < & @ + . ",
"X . @ * 1 9 f N B V C Z A S D D D D D D D D D D F G H V J K K K K K K K K K K K L P I U Y S D T T D S A Z C V B N f 9 1 * @ . X ",
"o . # * 2 0 g B R E W Q ! ~ ^ ^ ^ ^ ^ ^ / / / / ^ ! ( ) R _ ` ` ` ` ' ' ` ` ` _ ] [ { } ! ~ ^ | | ^ ~ ! Q W E R B g 0 2 * # . o ",
"o . # = 3 q h V E  ...X.o.o.O.O.O.O.O.| +.@.#.#.+.O.$.E %.&.&._ *.&.&.&.&.&.&.&.=.-.E ;.$.o.O.| | O.o.o.X... .E V h q 3 = # . o ",
"o . # = 4 w j C W ..X.:.$.$.$.$.$.$.$.o.O.+.#.#.#.O.$.>.-.&.&.&.&.&.&.&.&.&.&.&.,.-.E W  .$.$.$.$.$.$.$.:.X...W C j w 4 = # . o ",
"o . # - 4 e k Z Q X.:.<.W 1.E E E E 2. .$.O.+.@.+.O.$.E %.&._ _ _ *.&.&.&.&.&.&.&.=.%.) E E E 1.E E 2.W <.:.X.Q Z k e 4 - # . o ",
"O . # - 5 r l A ! o.$.W ) %.=.R R =.%.) 2.! ^ | | 3.;.E =.*._ _ _ _ _ _ _ _ _ _ _ *.R R =.=.=.=.=.=.%.) W $.o.! A l r 5 - # . O ",
"O . # - 5 t l S ~ o.$.2.%.R _ _ _ _ R =.4.} ! ^ ^ ! ;.1.5.R _ _ _ _ _ _ _ _ _ _ _ _ _ _ _ _ _ _ _ _ R %.1.$.o.~ S l t 5 - # . O ",
"O . $ - 6 t z D ^ O.$.E =._ _ 6.6._ _ R ) 1.;.! ! ! ;.1.) 5.=.R R _ _ _ _ _ _ _ _ _ _ _ _ _ _ ' ' _ _ =.E $.O.^ D z t 6 - # . O ",
"O . $ > 6 d z T | | $.E =._ ' 6.6.' _ *.=.) 1.} ;.;.;.} 2.1.) ) =.R _ _ _ _ _ _ _ _ _ _ _ _ ' 6.6.6._ R E $.O.^ D z t 6 - $ . O ",
"O . $ > 6 d z T | | $.1.=._ ' 6.6._ _ _ R =.) 4.1.2.} ;.;.;.} 1.) R _ _ _ _ _ _ _ _ _ _ _ _ ' 6.6.6._ R E $.O.^ D z t 6 - $ . O ",
"O . $ - 6 t z D ^ O.$.E =._ _ ' ' _ _ _ _ R R =.) 1.} ;.! ! 7.} ) =.*._ _ _ _ _ _ _ _ _ _ _ _ _ ' _ _ =.E $.O.^ D z t 5 - # . O ",
"O . # - 5 t l S ~ o.$.E =._ _ _ _ _ _ _ _ _ _ R =.) 2.7.3.^ ! ;.1.=.*._ _ _ _ _ _ _ _ _ _ _ _ _ _ _ R %.2.$.O.^ D x t 5 - # . O ",
"O . # - 5 r l Y ! $. .E =._ _ _ _ _ _ _ _ _ _ _ R 5.1.;.! ! ! } 1.=.*._ _ _ _ _ _ _ _ _ _ _ _ _ *.R =.)  .o.| ^ D x t 5 - # . O ",
"o . # : 4 y M U } ;.W ) R _ _ _ _ _ _ _ _ _ _ _ *.=.) 2.;.;.;.1.) =.*._ _ _ _ _ _ _ _ _ _ _ _ R =.) 4.2.$.O.+./ D z t 5 - $ . O ",
"o . # = 4 u c I { E E %.R _ _ _ _ _ _ _ _ _ _ _ _ R 5.) 1.1.1.) 5.R _ _ _ _ _ _ _ _ _ _ _ _ R =.) 1.} ! O.+.@./ D z t 5 - $ . O ",
"o . # = 3 i m P [ -.-.=.*._ _ _ _ _ _ _ _ _ _ _ _ *.R =.5.) 5.=.R *._ _ _ _ _ _ _ _ _ _ _ _ R ) 1.;.! ^ +.#.#./ D x t 5 - $ . O ",
"o . # ; 2 0 v L ] =.,.&._ _ _ _ _ _ _ _ _ _ _ _ _ _ *.R R R R R _ _ _ _ _ _ _ _ _ _ _ _ _ R =.4.} ! ^ | @.#.#./ D l t 5 - # . O ",
"o . @ * 2 0 n K _ &.&.&._ _ _ _ _ _ _ _ _ _ _ _ _ _ _ _ _ _ _ _ _ _ _ _ _ _ _ _ _ _ _ *.R =.) 1.;.! ^ | +.#.+.^ F l r 5 - # . O ",
"o . @ * 2 a n K ` &.&.&._ _ _ _ _ _ _ _ _ _ _ _ _ _ _ _ _ _ _ _ _ _ _ _ _ _ _ _ _ *.R =.5.) 1.2.;.! ! 3.O.O.O.! G k y 4 - # . o ",
"o . @ * 2 a n K ` &.&.&._ _ _ _ _ _ _ _ _ _ _ _ _ _ _ _ _ _ _ _ _ _ _ _ _ _ _ _ *.R 5.) 1.2.} } ;.;.;.;.$.$.$.( H c u 4 = # . o ",
"o . @ * 2 a n K ` &.&.&._ _ _ _ _ _ _ _ _ _ _ _ _ _ _ _ _ _ _ _ _ _ _ _ _ _ _ _ R =.) 2.;.7.;.;.} 1.1.E E >.E ) V h i 3 = # . o ",
"o . @ * 2 s n K ' &.&.&._ _ _ _ _ _ _ _ _ _ _ _ _ _ _ _ _ _ _ _ _ _ _ _ _ _ _ _ R 5.1.;.! 3.! ;.2.) 5.=.%.-.%.R J v p 2 ; # . o ",
"o . @ * 2 s n K ' &.&.&._ _ _ _ _ *.*.*.*._ _ _ _ _ _ _ _ _ _ _ _ _ _ _ _ _ _ _ R ) 1.;.! ^ ! ;.1.5.R *.&.&.&._ K b 0 2 * # . o ",
"o . @ * 2 s n K ` &.&.*._ _ _ R R =.=.=.=.R *._ _ _ _ _ _ _ _ _ _ _ _ _ _ _ _ _ R 5.1.;.! ! 7.} ) =._ _ _ &.&.` K n a 2 * @ . o ",
"o . @ * 2 a n K ` *.&._ _ _ R =.) ) 1.1.) 5.R _ _ _ _ _ _ _ _ _ _ _ _ _ _ _ _ _ R =.) 1.} ;.} 1.) R _ _ _ &._ ` K n a 2 * @ . o ",
"o . @ * 2 a n K ` _ &._ _ _ R ) 1.} ;.} 1.) =.R _ _ _ _ _ _ _ _ _ _ _ _ _ _ _ _ _ R 5.) 1.1.) ) =.R _ _ _ &.*.` K n a 2 * @ . o ",
"o . @ * 2 a n K ` &.&._ _ _ =.) } 7.! ! ;.1.5.R _ _ _ _ _ _ _ _ _ _ _ _ _ _ _ _ _ *.R =.=.=.=.R R _ _ _ *.&.&.` K n s 2 * @ . o ",
"o . # * 2 0 b K _ &.&.&.*.R 5.1.;.! ^ ! ;.1.) R _ _ _ _ _ _ _ _ _ _ _ _ _ _ _ _ _ _ _ *.*.*.*._ _ _ _ _ &.&.&.' K n s 2 * @ . o ",
"o . # ; 2 p v J R %.-.%.=.5.) 2.;.! 3.! ;.1.5.R _ _ _ _ _ _ _ _ _ _ _ _ _ _ _ _ _ _ _ _ _ _ _ _ _ _ _ _ &.&.&.' K n s 2 * @ . o ",
"o . # = 3 i h V ) E >.E E 1.1.} ;.;.7.;.2.) =.R _ _ _ _ _ _ _ _ _ _ _ _ _ _ _ _ _ _ _ _ _ _ _ _ _ _ _ _ &.&.&.` K n a 2 * @ . o ",
"o . # = 4 u c H ( $.$.$.;.;.;.;.} } 2.1.) 5.R *._ _ _ _ _ _ _ _ _ _ _ _ _ _ _ _ _ _ _ _ _ _ _ _ _ _ _ _ &.&.&.` K n a 2 * @ . o ",
"o . # - 4 y k G ! O.O.O.3.! ! ;.2.1.) 5.=.R *._ _ _ _ _ _ _ _ _ _ _ _ _ _ _ _ _ _ _ _ _ _ _ _ _ _ _ _ _ &.&.&.` K n a 2 * @ . o ",
"O . # - 5 r l F ^ +.#.+.| ^ ! ;.1.) =.R *._ _ _ _ _ _ _ _ _ _ _ _ _ _ _ _ _ _ _ _ _ _ _ _ _ _ _ _ _ _ _ &.&.&._ K n 0 2 * @ . o ",
"O . # - 5 t l D / #.#.@.| ^ ! } 4.=.R _ _ _ _ _ _ _ _ _ _ _ _ _ R R R R R *._ _ _ _ _ _ _ _ _ _ _ _ _ _ &.,.=.] L v 0 2 ; # . o ",
"O . $ - 5 t x D / #.#.+.^ ! ;.1.) R _ _ _ _ _ _ _ _ _ _ _ _ *.R =.5.) 5.=.R *._ _ _ _ _ _ _ _ _ _ _ _ *.=.-.-.[ P m i 3 = # . o ",
"O . $ - 5 t z D / @.+.O.! } 1.) =.R _ _ _ _ _ _ _ _ _ _ _ _ R 5.) 1.1.1.) 5.R _ _ _ _ _ _ _ _ _ _ _ _ R %.E E { I c u 4 = # . o ",
"O . $ - 5 t z D / +.O.$.2.4.) =.R _ _ _ _ _ _ _ _ _ _ _ _ *.=.) 1.;.;.;.2.) =.*._ _ _ _ _ _ _ _ _ _ _ R ) W ;.} U M y 4 : # . o ",
"O . # - 5 t x D ^ | o. .) =.R *._ _ _ _ _ _ _ _ _ _ _ _ _ *.=.1.} ! ! ! ;.1.5.R _ _ _ _ _ _ _ _ _ _ _ =.E  .$.! Y l r 5 - # . O ",
"O . # - 5 t x D ^ O.$.2.%.R _ _ _ _ _ _ _ _ _ _ _ _ _ _ _ *.=.1.;.! ^ 3.7.2.) =.R _ _ _ _ _ _ _ _ _ _ =.E $.o.~ S l t 5 - # . O ",
"O . # - 5 t z D ^ O.$.E =._ _ ' _ _ _ _ _ _ _ _ _ _ _ _ _ *.=.) } 7.! ! ;.} 1.) =.R R _ _ _ _ ' ' _ _ =.E $.O.^ D z t 6 - $ . O ",
"O . $ - 6 t z D ^ O.$.E R _ 6.6.6.' _ _ _ _ _ _ _ _ _ _ _ _ R ) 1.} ;.;.;.} 2.1.4.) =.R _ _ _ 6.6.' _ =.1.$.| | T z d 6 > $ . O ",
"O . $ - 6 t z D ^ O.$.E R _ 6.6.6.' _ _ _ _ _ _ _ _ _ _ _ _ R =.) ) 1.2.} ;.;.;.} 1.) =.*._ ' 6.6.' _ =.E $.| | T z d 6 > $ . O ",
"O . # - 6 t z D ^ O.$.E =._ _ ' ' _ _ _ _ _ _ _ _ _ _ _ _ _ _ R R =.5.) 1.;.! ! ! ;.1.) R _ _ 6.6._ _ =.E $.O.^ D z t 6 - $ . O ",
"O . # - 5 t l S ~ o.$.1.%.R _ _ _ _ _ _ _ _ _ _ _ _ _ _ _ _ _ _ _ _ R 5.1.;.! ^ ^ ! } 4.=.R _ _ _ _ R %.2.$.o.~ S l t 5 - # . O ",
"O . # - 5 r l A ! o.$.W ) %.=.=.=.=.=.=.R R *._ _ _ _ _ _ _ _ _ _ _ *.=.E ;.3.| | ^ ! 2.) %.=.R R =.%.) W $.o.! A l r 5 - # . O ",
"o . # - 4 e k Z Q X.:.<.W 2.E E 1.E E E ) %.=.&.&.&.&.&.&.&.*._ _ _ &.%.E $.O.+.@.+.O.$. .2.E E E E 1.W <.:.X.Q Z k e 4 - # . o ",
"o . # = 4 w j C W ..X.:.$.$.$.$.$.$.$. .W E -.,.&.&.&.&.&.&.&.&.&.&.&.-.>.$.O.#.#.#.+.O.o.$.$.$.$.$.$.$.:.X...W C j w 4 = # . o ",
"o . # = 3 q h V E  ...X.o.o.O.| | O.o.$.;.E -.=.&.&.&.&.&.&.&.*._ &.&.%.E $.O.+.#.#.@.+.| O.O.O.O.O.o.o.X... .E V h q 3 = # . o ",
"o . # * 2 0 g B R E W Q ! ~ ^ | | ^ ~ ! } { [ ] _ ` ` ` ' ' ` ` ` ` _ R ) ( ! ^ / / / / ^ ^ ^ ^ ^ ^ ~ ! Q W E R B g 0 2 * # . o ",
"X . @ * 1 9 f N B V C Z A S D T T D S Y U I P L K K K K K K K K K K K J V H G F D D D D D D D D D D S A Z C V B N f 9 1 * @ . X ",
". + @ & < 8 a f g h j k l l z z z z l l M c m v n n n n n n n n n n b v h c k l l x z z x x z z z z l l k j h g f a 8 < & @ + . ",
".   @ % * 7 8 9 0 q w e r t t d d t t r y u i 0 0 a a a s s s a a a 0 p i u y r t t t t t t t t t t t r e w q 0 9 8 7 * % @   . ",
".     # , * < 1 2 3 4 4 5 5 6 6 6 6 5 5 4 4 3 2 2 2 2 2 2 2 2 2 2 2 2 2 3 4 4 5 5 5 5 5 5 5 5 6 6 6 5 5 4 4 3 2 1 < * , #     . ",
"      @ # % & * * = = - - - - > > - - - : = = ; * * * * * * * * * * * ; = = - - - - - - - - - - - - - - - = = * * & % # @       ",
"          @ @ @ # # # # # # $ $ $ $ # # # # # # @ @ @ @ @ @ @ @ @ @ # # # # # # # $ $ $ # # # $ $ # # # # # # # @ @ @           ",
"            + . . . . . . . . . . . . . . . . . . . . . . . . . . . . . . . . . . . . . . . . . . . . . . . . . . +             ",
"        . . . X o o o o O O O O O O O O o o o o o o o o o o o o o o o o o o o O O O O O O O O O O O O O o o o o X . . .         "
};
