/* XPM */
static char *result[] = {
/* columns rows colors chars-per-pixel */
"64 64 139 2 ",
"   c #25131A",
".  c #241219",
"X  c #241218",
"o  c #2A1720",
"O  c #331D2B",
"+  c #3E2538",
"@  c #472B43",
"#  c #4C2F49",
"$  c #4D2F4B",
"%  c #4C2F4A",
"&  c #4B2E49",
"*  c #4A2E49",
"=  c #4A2D49",
"-  c #4D304B",
";  c #4D304A",
":  c #4F314B",
">  c #50324A",
",  c #503249",
"<  c #513349",
"1  c #523349",
"2  c #52334A",
"3  c #51334A",
"4  c #4E3149",
"5  c #4D3049",
"6  c #3D2438",
"7  c #52334B",
"8  c #55364A",
"9  c #573749",
"0  c #583849",
"q  c #583949",
"w  c #593949",
"e  c #5A3A4A",
"r  c #5B3B4A",
"t  c #5B3B4B",
"y  c #59394B",
"u  c #56374A",
"i  c #4F3149",
"p  c #5E3E49",
"a  c #614048",
"s  c #624048",
"d  c #624049",
"f  c #64424A",
"g  c #66434B",
"h  c #66434C",
"j  c #63414C",
"k  c #5D3C4B",
"l  c #58394A",
"z  c #603E4A",
"x  c #664348",
"c  c #694648",
"v  c #6A4748",
"b  c #6B4749",
"n  c #6D494A",
"m  c #704B4C",
"M  c #714B4D",
"N  c #6D484D",
"B  c #64414C",
"V  c #5A3A4B",
"C  c #321D2B",
"Z  c #62414A",
"A  c #6E4A48",
"S  c #6F4B48",
"D  c #6D4A48",
"F  c #6F4B49",
"G  c #734D4B",
"H  c #764F4D",
"J  c #76504E",
"K  c #724C4E",
"L  c #67444D",
"P  c #5C3B4B",
"I  c #52344A",
"U  c #3C2438",
"Y  c #63414A",
"T  c #6B4748",
"R  c #704C48",
"E  c #714C49",
"W  c #744F4B",
"Q  c #77514D",
"!  c #78514E",
"~  c #734D4E",
"^  c #68454D",
"/  c #5C3C4B",
"(  c #492D49",
")  c #503349",
"_  c #704B48",
"`  c #6F4A48",
"'  c #704C49",
"]  c #744E4B",
"[  c #77504D",
"{  c #704B49",
"}  c #734E4B",
"|  c #76504D",
" . c #77504E",
".. c #68444D",
"X. c #6A4648",
"o. c #624149",
"O. c #6D4947",
"+. c #714C4A",
"@. c #321C2B",
"#. c #6E494B",
"$. c #724D4A",
"%. c #734D4A",
"&. c #78524E",
"*. c #78514F",
"=. c #5D3C4C",
"-. c #754F4C",
";. c #754F4B",
":. c #714D4A",
">. c #7A534E",
",. c #79524F",
"<. c #5D3C4D",
"1. c #68454E",
"2. c #714C4E",
"3. c #754F4D",
"4. c #734E4C",
"5. c #77514F",
"6. c #5B3B4D",
"7. c #65424E",
"8. c #6D484E",
"9. c #704B4D",
"0. c #6A4749",
"q. c #6C484A",
"w. c #6E4A4C",
"e. c #58384C",
"r. c #5F3D4D",
"t. c #64414D",
"y. c #65424B",
"u. c #67444C",
"i. c #56364A",
"p. c #53354C",
"a. c #57384C",
"s. c #59394A",
"d. c #4D2F49",
"f. c #50324B",
"g. c #51334B",
"h. c #4B2F49",
"j. c #4C2F4B",
"k. c #4B2F4A",
"l. c white",
/* pixels */
"                                                              . X   o O + @ # $ % & * = = = = = = = = * * = = = = = = * & # # # ",
"                                                              . X   o O + @ # - ; # # # # # # # # # # # # # # # # # # # # # # # ",
"                                                              . X   o O + @ # : > , < < < < < < < < < < < < < < 1 2 3 > 4 5 # # ",
"                                                              . X   o O 6 @ 5 7 8 9 0 q q q q q q q q 0 0 q w e r t y u 2 4 # & ",
"                                                              . X   o O 6 @ i 8 e p a s s a a a a a a a a a d f g h j k u > # * ",
"                                                              . X   o O 6 @ , l z x c v v c c c c c c c c c b n m M N B V 3 # = ",
"                                                              . X   o C 6 @ , e Z c A S S A A A A A A A D A F G H J K L P I # = ",
"                                                              . X   o C U @ < e Y T S R R S S S S S S S S S E W Q ! ~ ^ / I # ( ",
"                                                              . X   o C U @ ) e Y v S R _ S S S S S S S ` S ' ] [ ! ~ ^ / I # ( ",
"                                                              . X   o C 6 @ ) e Y v A S S A A A A A A A A A { } |  .K ..P I # = ",
"                                                              . X   o C 6 @ , e Y X.A S S A A A A A A A A A { G | J K ..P I # = ",
"                                                              . X   o C 6 @ , e Y X.A S S A A A A A A A A A { G | J K ..P I # = ",
"                                                              . X   o C 6 @ , e Y X.A S S A A A A A A A A A { G | J K ..P I # = ",
"                                                              . X   o C 6 @ , e Y X.A S S A A A A A A A A A { G | J K ..P I # = ",
"                                                              . X   o C 6 @ , e Y X.A S S A A A A A A A A A { G | J K ..P I # = ",
"                                                              . X   o C 6 @ , e Y X.A S S A A A A A A A A A { G | J K ..P I # = ",
"                                                              . X   o C 6 @ , e Y X.A S S A A A A A A A A A { G | J K ..P I # = ",
"                                                              . X   o C 6 @ , e Y X.A S S A A A A A A A A A { G | J K ..P I # = ",
"                                                              . X   o C 6 @ , e Y X.A S S A A A A A A A A A { G | J K ..P I # = ",
"                                                              . X   o C 6 @ , e Y X.A S S A A A A A A A A A { G | J K ..P I # = ",
"                                                              . X   o C 6 @ , e Y X.A S S A A A A A A A A A { G | J K ..P I # = ",
"                                                              . X   o C 6 @ , e Y X.A S S A A A A A A A A A { G | J K ..P I # = ",
"                                                              . X   o C 6 @ , e Y X.A S S A A A A A A A A A { G | J K ..P I # = ",
"                                                              . X   o C 6 @ , e Y X.A S S A A A A A A A A A { G | J K ..P I # = ",
"                                                              . X   o C 6 @ , e Y X.A S S A A A A A A A A A { G | J K ..P I # = ",
"                                                              . X   o C 6 @ , e Y X.A S S A A A A A A A A A { G | J K ..P I # = ",
"                                                              . X   o C 6 @ , e Y X.A S S A A A A A A A A A { G | J K ..P I # = ",
"                                                              . X   o C 6 @ , e Y X.A S S A A A A A A A A A { G | J K ..P I # = ",
"                                                              . X   o C 6 @ , e Y X.A S S A A A A A A A A A { G | J K ..P I # = ",
"                                                              . X   o C 6 @ , e Y X.A S S A A A A A A A A A { G | J K ..P I # = ",
"                                                              . X   o C 6 @ , e Y X.A S S A A A A A A A A A { G | J K ..P I # = ",
"                                                              . X   o C 6 @ , e Y X.A S S A A A A A A A A A { G | J K ..P I # = ",
"                                                              . X   o C 6 @ , e Y X.A S S A A A A A A A A A { G | J K ..P I # = ",
"                                                              . X   o C 6 @ , e Y X.A S S A A A A A A A A A { G | J K ..P I # = ",
"                                                              . X   o C 6 @ , e Y X.A S S A A A A A A A A A { G | J K ..P I # = ",
"                                                              . X   o C 6 @ , e Y X.A S S A A A A A A A A A { G | J K ..P I # = ",
"                                                              . X   o C 6 @ , e Y X.A S S A A A A A A A A A { G | J K ..P I # = ",
"                                                              . X   o C 6 @ , e Y X.A S S A A A A A A A A A { G | J K ..P I # = ",
"                                                              . X   o C 6 @ , e Y X.A S S A A A A A A A A A { G | J K ..P I # = ",
"                                                              . X   o C 6 @ , e Y X.A S S A A A A A A A A A { G | J K ..P I # = ",
"                                                              . X   o C 6 @ , e Y X.A S S A A A A A A A A A { G | J K ..P I # = ",
"                                                              . X   o C 6 @ , e Y X.A S S A A A A A A A A A { G | J K ..P I # = ",
"                                                              . X   o C 6 @ , e Y X.A S S A A A A A A A A A { G | J K ..P I # = ",
"                                                              . X   o C 6 @ , e Y X.A S S A A A A A A A A A { G | J K ..P I # = ",
"                                                              . X   o C 6 @ , e Y X.A S S A A A A A A A A A { G | J K ..P I # = ",
"                                                              . X   o C 6 @ , e Y X.A S S A A A A A A A A A { G | J K ..P I # = ",
"                                                              . X   o C 6 @ , e Y X.A S S A A A A A A A A A { G | J K ..P I # = ",
"                                                              . X   o C 6 @ , e Y X.A S S A A A A A A A A A { G | J K ..P I # = ",
"                                                              . X   o C 6 @ , e Y X.A S S A A A A A A A A A { G | J K ..P I # = ",
"                                                              . X   o C 6 @ , e Y X.A S S A A A A A A A A A { G | J K ..P I # = ",
"                                                              . X   o C 6 @ , e Y X.A S S A A A A A A A A A { G | J K ..P I # = ",
"                                                              . X   o C 6 @ , e o.c A S S A A A A A A D D A F G | J K ..P I # = ",
"                                                              . X   o C 6 @ , e o.c A S S A A A A A A D O.A F G | J K ..P I # = ",
"                                                              . X   o C 6 @ , e Y v A S S A A A A A A A A A { G | J K ..P I # = ",
"                                                              . X   o C U @ < V f b F ' _ ` A ` F F F F F { +.] [  .K ..P I # = ",
"                                                              . X   o @.U @ < P g #.$.%.E _ S ' +.$.G G G G ] | &.*.~ ^ P I # ( ",
"                                                              . X   o @.U @ < =.^ m -.;.%.' ' :.} -.| | | | [ &.>.,.~ ^ / I # ( ",
"                                                              . X   o @.U @ 1 <.1.2.3.-.$.F F +.4.3.J  . .J  .*.,.5.K L P I # = ",
"                                                              . X   o @.U @ < 6.7.8.9.m n b 0.q.w.M K K K K K ~ ~ K N j y 3 # = ",
"                                                              . X   o O 6 @ , e.r.t.h g f d d Y y.u.L ........^ ^ L j k i.> # * ",
"                                                              . X   o O 6 @ 4 p.a.V t r e w w s.e t P P P P P P / P y i.3 4 # & ",
"                                                              . X   o O + @ d.f.g.3 2 1 < < < < < I I I I I I I I I 3 > 4 5 # # ",
"                                                              . X   o O + @ # - ; # # # # # # # # # # # # # # # # # # # # # # # ",
"                                                              . X   o O + @ h.j.k.= = = = = = = = = = = = = = ( ( = = * & # # # "
};
