/* XPM */
static char *result[] = {
/* columns rows colors chars-per-pixel */
"64 64 139 2 ",
"   c #4C2F49",
".  c #4B2E49",
"X  c #4A2E49",
"o  c #4A2D49",
"O  c #4C2F4A",
"+  c #4D2F4B",
"@  c #472B43",
"#  c #3E2538",
"$  c #331D2B",
"%  c #2A1720",
"&  c #25131A",
"*  c #241218",
"=  c #241219",
"-  c #4D304A",
";  c #4D304B",
":  c #4D3049",
">  c #4E3149",
",  c #50324A",
"<  c #51334A",
"1  c #52334A",
"2  c #523349",
"3  c #513349",
"4  c #503249",
"5  c #4F314B",
"6  c #56374A",
"7  c #59394B",
"8  c #5B3B4B",
"9  c #5B3B4A",
"0  c #5A3A4A",
"q  c #593949",
"w  c #583949",
"e  c #583849",
"r  c #573749",
"t  c #55364A",
"y  c #52334B",
"u  c #3D2438",
"i  c #5D3C4B",
"p  c #63414C",
"a  c #66434C",
"s  c #66434B",
"d  c #64424A",
"f  c #624049",
"g  c #614048",
"h  c #624048",
"j  c #5E3E49",
"k  c #4F3149",
"l  c #5A3A4B",
"z  c #64414C",
"x  c #6D484D",
"c  c #714B4D",
"v  c #704B4C",
"b  c #6D494A",
"n  c #6B4749",
"m  c #694648",
"M  c #6A4748",
"N  c #664348",
"B  c #603E4A",
"V  c #58394A",
"C  c #52344A",
"Z  c #5C3B4B",
"A  c #67444D",
"S  c #724C4E",
"D  c #76504E",
"F  c #764F4D",
"G  c #734D4B",
"H  c #6F4B49",
"J  c #6E4A48",
"K  c #6D4A48",
"L  c #6F4B48",
"P  c #62414A",
"I  c #321D2B",
"U  c #492D49",
"Y  c #5C3C4B",
"T  c #68454D",
"R  c #734D4E",
"E  c #78514E",
"W  c #77514D",
"Q  c #744F4B",
"!  c #714C49",
"~  c #704C48",
"^  c #6B4748",
"/  c #63414A",
"(  c #3C2438",
")  c #77504D",
"_  c #744E4B",
"`  c #704C49",
"'  c #6F4A48",
"]  c #704B48",
"[  c #503349",
"{  c #68444D",
"}  c #77504E",
"|  c #76504D",
" . c #734E4B",
".. c #704B49",
"X. c #6A4648",
"o. c #624149",
"O. c #6D4947",
"+. c #714C4A",
"@. c #78514F",
"#. c #78524E",
"$. c #724D4A",
"%. c #734D4A",
"&. c #6E494B",
"*. c #321C2B",
"=. c #79524F",
"-. c #7A534E",
";. c #754F4C",
":. c #714D4A",
">. c #754F4B",
",. c #5D3C4C",
"<. c #77514F",
"1. c #754F4D",
"2. c #734E4C",
"3. c #714C4E",
"4. c #68454E",
"5. c #5D3C4D",
"6. c #6E4A4C",
"7. c #6C484A",
"8. c #6A4749",
"9. c #704B4D",
"0. c #6D484E",
"q. c #65424E",
"w. c #5B3B4D",
"e. c #56364A",
"r. c #67444C",
"t. c #65424B",
"y. c #64414D",
"u. c #5F3D4D",
"i. c #58384C",
"p. c #59394A",
"a. c #57384C",
"s. c #53354C",
"d. c #51334B",
"f. c #50324B",
"g. c #4D2F49",
"h. c #4B2F4A",
"j. c #4C2F4B",
"k. c #4B2F49",
"l. c white",
/* pixels */
"      . X o o o o o o X X o o o o o o o o X . O +   @ # $ % & * = & & & & & & & & & & & & & & & & & & & & & & & & & & & & & & & ",
"                                              - ;   @ # $ % & * = & & & & & & & & & & & & & & & & & & & & & & & & & & & & & & & ",
"    : > , < 1 2 3 3 3 3 3 3 3 3 3 3 3 3 3 3 4 , 5   @ # $ % & * = & & & & & & & & & & & & & & & & & & & & & & & & & & & & & & & ",
".   > 1 6 7 8 9 0 q w e e w w w w w w w w e r t y : @ u $ % & * = & & & & & & & & & & & & & & & & & & & & & & & & & & & & & & & ",
"X   , 6 i p a s d f g g g g g g g g g h h g j 0 t k @ u $ % & * = & & & & & & & & & & & & & & & & & & & & & & & & & & & & & & & ",
"o   < l z x c v b n m m m m m m m m m M M m N B V 4 @ u $ % & * = & & & & & & & & & & & & & & & & & & & & & & & & & & & & & & & ",
"o   C Z A S D F G H J K J J J J J J J L L J m P 0 4 @ u I % & * = & & & & & & & & & & & & & & & & & & & & & & & & & & & & & & & ",
"U   C Y T R E W Q ! L L L L L L L L L ~ ~ L ^ / 0 3 @ ( I % & * = & & & & & & & & & & & & & & & & & & & & & & & & & & & & & & & ",
"U   C Y T R E ) _ ` L ' L L L L L L L ] ~ L M / 0 [ @ ( I % & * = & & & & & & & & & & & & & & & & & & & & & & & & & & & & & & & ",
"o   C Z { S } |  ...J J J J J J J J J L L J M / 0 [ @ u I % & * = & & & & & & & & & & & & & & & & & & & & & & & & & & & & & & & ",
"o   C Z { S D | G ..J J J J J J J J J L L J X./ 0 4 @ u I % & * = & & & & & & & & & & & & & & & & & & & & & & & & & & & & & & & ",
"o   C Z { S D | G ..J J J J J J J J J L L J X./ 0 4 @ u I % & * = & & & & & & & & & & & & & & & & & & & & & & & & & & & & & & & ",
"o   C Z { S D | G ..J J J J J J J J J L L J X./ 0 4 @ u I % & * = & & & & & & & & & & & & & & & & & & & & & & & & & & & & & & & ",
"o   C Z { S D | G ..J J J J J J J J J L L J X./ 0 4 @ u I % & * = & & & & & & & & & & & & & & & & & & & & & & & & & & & & & & & ",
"o   C Z { S D | G ..J J J J J J J J J L L J X./ 0 4 @ u I % & * = & & & & & & & & & & & & & & & & & & & & & & & & & & & & & & & ",
"o   C Z { S D | G ..J J J J J J J J J L L J X./ 0 4 @ u I % & * = & & & & & & & & & & & & & & & & & & & & & & & & & & & & & & & ",
"o   C Z { S D | G ..J J J J J J J J J L L J X./ 0 4 @ u I % & * = & & & & & & & & & & & & & & & & & & & & & & & & & & & & & & & ",
"o   C Z { S D | G ..J J J J J J J J J L L J X./ 0 4 @ u I % & * = & & & & & & & & & & & & & & & & & & & & & & & & & & & & & & & ",
"o   C Z { S D | G ..J J J J J J J J J L L J X./ 0 4 @ u I % & * = & & & & & & & & & & & & & & & & & & & & & & & & & & & & & & & ",
"o   C Z { S D | G ..J J J J J J J J J L L J X./ 0 4 @ u I % & * = & & & & & & & & & & & & & & & & & & & & & & & & & & & & & & & ",
"o   C Z { S D | G ..J J J J J J J J J L L J X./ 0 4 @ u I % & * = & & & & & & & & & & & & & & & & & & & & & & & & & & & & & & & ",
"o   C Z { S D | G ..J J J J J J J J J L L J X./ 0 4 @ u I % & * = & & & & & & & & & & & & & & & & & & & & & & & & & & & & & & & ",
"o   C Z { S D | G ..J J J J J J J J J L L J X./ 0 4 @ u I % & * = & & & & & & & & & & & & & & & & & & & & & & & & & & & & & & & ",
"o   C Z { S D | G ..J J J J J J J J J L L J X./ 0 4 @ u I % & * = & & & & & & & & & & & & & & & & & & & & & & & & & & & & & & & ",
"o   C Z { S D | G ..J J J J J J J J J L L J X./ 0 4 @ u I % & * = & & & & & & & & & & & & & & & & & & & & & & & & & & & & & & & ",
"o   C Z { S D | G ..J J J J J J J J J L L J X./ 0 4 @ u I % & * = & & & & & & & & & & & & & & & & & & & & & & & & & & & & & & & ",
"o   C Z { S D | G ..J J J J J J J J J L L J X./ 0 4 @ u I % & * = & & & & & & & & & & & & & & & & & & & & & & & & & & & & & & & ",
"o   C Z { S D | G ..J J J J J J J J J L L J X./ 0 4 @ u I % & * = & & & & & & & & & & & & & & & & & & & & & & & & & & & & & & & ",
"o   C Z { S D | G ..J J J J J J J J J L L J X./ 0 4 @ u I % & * = & & & & & & & & & & & & & & & & & & & & & & & & & & & & & & & ",
"o   C Z { S D | G ..J J J J J J J J J L L J X./ 0 4 @ u I % & * = & & & & & & & & & & & & & & & & & & & & & & & & & & & & & & & ",
"o   C Z { S D | G ..J J J J J J J J J L L J X./ 0 4 @ u I % & * = & & & & & & & & & & & & & & & & & & & & & & & & & & & & & & & ",
"o   C Z { S D | G ..J J J J J J J J J L L J X./ 0 4 @ u I % & * = & & & & & & & & & & & & & & & & & & & & & & & & & & & & & & & ",
"o   C Z { S D | G ..J J J J J J J J J L L J X./ 0 4 @ u I % & * = & & & & & & & & & & & & & & & & & & & & & & & & & & & & & & & ",
"o   C Z { S D | G ..J J J J J J J J J L L J X./ 0 4 @ u I % & * = & & & & & & & & & & & & & & & & & & & & & & & & & & & & & & & ",
"o   C Z { S D | G ..J J J J J J J J J L L J X./ 0 4 @ u I % & * = & & & & & & & & & & & & & & & & & & & & & & & & & & & & & & & ",
"o   C Z { S D | G ..J J J J J J J J J L L J X./ 0 4 @ u I % & * = & & & & & & & & & & & & & & & & & & & & & & & & & & & & & & & ",
"o   C Z { S D | G ..J J J J J J J J J L L J X./ 0 4 @ u I % & * = & & & & & & & & & & & & & & & & & & & & & & & & & & & & & & & ",
"o   C Z { S D | G ..J J J J J J J J J L L J X./ 0 4 @ u I % & * = & & & & & & & & & & & & & & & & & & & & & & & & & & & & & & & ",
"o   C Z { S D | G ..J J J J J J J J J L L J X./ 0 4 @ u I % & * = & & & & & & & & & & & & & & & & & & & & & & & & & & & & & & & ",
"o   C Z { S D | G ..J J J J J J J J J L L J X./ 0 4 @ u I % & * = & & & & & & & & & & & & & & & & & & & & & & & & & & & & & & & ",
"o   C Z { S D | G ..J J J J J J J J J L L J X./ 0 4 @ u I % & * = & & & & & & & & & & & & & & & & & & & & & & & & & & & & & & & ",
"o   C Z { S D | G ..J J J J J J J J J L L J X./ 0 4 @ u I % & * = & & & & & & & & & & & & & & & & & & & & & & & & & & & & & & & ",
"o   C Z { S D | G ..J J J J J J J J J L L J X./ 0 4 @ u I % & * = & & & & & & & & & & & & & & & & & & & & & & & & & & & & & & & ",
"o   C Z { S D | G ..J J J J J J J J J L L J X./ 0 4 @ u I % & * = & & & & & & & & & & & & & & & & & & & & & & & & & & & & & & & ",
"o   C Z { S D | G ..J J J J J J J J J L L J X./ 0 4 @ u I % & * = & & & & & & & & & & & & & & & & & & & & & & & & & & & & & & & ",
"o   C Z { S D | G ..J J J J J J J J J L L J X./ 0 4 @ u I % & * = & & & & & & & & & & & & & & & & & & & & & & & & & & & & & & & ",
"o   C Z { S D | G ..J J J J J J J J J L L J X./ 0 4 @ u I % & * = & & & & & & & & & & & & & & & & & & & & & & & & & & & & & & & ",
"o   C Z { S D | G ..J J J J J J J J J L L J X./ 0 4 @ u I % & * = & & & & & & & & & & & & & & & & & & & & & & & & & & & & & & & ",
"o   C Z { S D | G ..J J J J J J J J J L L J X./ 0 4 @ u I % & * = & & & & & & & & & & & & & & & & & & & & & & & & & & & & & & & ",
"o   C Z { S D | G ..J J J J J J J J J L L J X./ 0 4 @ u I % & * = & & & & & & & & & & & & & & & & & & & & & & & & & & & & & & & ",
"o   C Z { S D | G ..J J J J J J J J J L L J X./ 0 4 @ u I % & * = & & & & & & & & & & & & & & & & & & & & & & & & & & & & & & & ",
"o   C Z { S D | G H J K K J J J J J J L L J m o.0 4 @ u I % & * = & & & & & & & & & & & & & & & & & & & & & & & & & & & & & & & ",
"o   C Z { S D | G H J O.K J J J J J J L L J m o.0 4 @ u I % & * = & & & & & & & & & & & & & & & & & & & & & & & & & & & & & & & ",
"o   C Z { S D | G ..J J J J J J J J J L L J M / 0 4 @ u I % & * = & & & & & & & & & & & & & & & & & & & & & & & & & & & & & & & ",
"o   C Z { S } ) _ +...H H H H H ' J ' ] ` H n d l 3 @ ( I % & * = & & & & & & & & & & & & & & & & & & & & & & & & & & & & & & & ",
"U   C Z T R @.#.| _ G G G G $.+.` L ] ! %.$.&.s Z 3 @ ( *.% & * = & & & & & & & & & & & & & & & & & & & & & & & & & & & & & & & ",
"U   C Y T R =.-.#.) | | | | ;. .:.` ` %.>.;.v T ,.3 @ ( *.% & * = & & & & & & & & & & & & & & & & & & & & & & & & & & & & & & & ",
"o   C Z A S <.=.@.} D } } D 1.2.+.H H $.;.1.3.4.5.2 @ ( *.% & * = & & & & & & & & & & & & & & & & & & & & & & & & & & & & & & & ",
"o   < 7 p x S R R S S S S S c 6.7.8.n b v 9.0.q.w.3 @ ( *.% & * = & & & & & & & & & & & & & & & & & & & & & & & & & & & & & & & ",
"X   , e.i p A T T { { { { A r.t./ f f d s a y.u.i.4 @ u $ % & * = & & & & & & & & & & & & & & & & & & & & & & & & & & & & & & & ",
".   > < e.7 Z Y Z Z Z Z Z Z 8 0 p.q q 0 9 8 l a.s.> @ u $ % & * = & & & & & & & & & & & & & & & & & & & & & & & & & & & & & & & ",
"    : > , < C C C C C C C C C 3 3 3 3 3 2 1 < d.f.g.@ # $ % & * = & & & & & & & & & & & & & & & & & & & & & & & & & & & & & & & ",
"                                              - ;   @ # $ % & * = & & & & & & & & & & & & & & & & & & & & & & & & & & & & & & & ",
"      . X o o U U o o o o o o o o o o o o o o h.j.k.@ # $ % & * = & & & & & & & & & & & & & & & & & & & & & & & & & & & & & & & "
};
