/* XPM */
static char *result[] = {
/* columns rows colors chars-per-pixel */
"64 64 222 2 ",
"   c #4C2F49",
".  c #4B2E49",
"X  c #4A2E49",
"o  c #4A2D49",
"O  c #492D49",
"+  c #4D2F49",
"@  c #4E3149",
"#  c #50324A",
"$  c #51334A",
"%  c #52344A",
"&  c #4D3049",
"*  c #55364A",
"=  c #59394B",
"-  c #5C3B4B",
";  c #5C3C4B",
":  c #5A394B",
">  c #56364A",
",  c #5D3C4B",
"<  c #63414C",
"1  c #67444D",
"2  c #68454D",
"3  c #68444D",
"4  c #69454D",
"5  c #64414C",
"6  c #5A3A4B",
"7  c #64424C",
"8  c #6D484D",
"9  c #724C4E",
"0  c #734D4E",
"q  c #57384B",
"w  c #603E4C",
"e  c #6A464D",
"r  c #77514F",
"t  c #79524F",
"y  c #78514F",
"u  c #77504E",
"i  c #76504E",
"p  c #77514E",
"a  c #78514E",
"s  c #724C4D",
"d  c #69464D",
"f  c #603E4B",
"g  c #57374A",
"h  c #704A4E",
"j  c #764F4F",
"k  c #77504D",
"l  c #76504D",
"z  c #734D4C",
"x  c #6D494C",
"c  c #66434C",
"v  c #744E4F",
"b  c #77504F",
"n  c #79514F",
"m  c #744E4B",
"M  c #734D4B",
"N  c #734E4B",
"B  c #724C4B",
"V  c #704B4C",
"C  c #5D3C4C",
"Z  c #754F4D",
"A  c #714C4A",
"S  c #704B49",
"D  c #6F4B49",
"F  c #704B4A",
"G  c #714C4B",
"H  c #724D4C",
"J  c #714C4D",
"K  c #734E4C",
"L  c #6E4A48",
"P  c #724D4A",
"I  c #754F4C",
"U  c #704B4D",
"Y  c #66444C",
"T  c #5B3B4B",
"R  c #52334A",
"E  c #7A524F",
"W  c #724D4B",
"Q  c #6F4A48",
"!  c #6D4A48",
"~  c #6F4B48",
"^  c #744F4B",
"/  c #66434B",
"(  c #5B3B4A",
")  c #714C49",
"_  c #6D494A",
"`  c #64424A",
"'  c #5A3A4A",
"]  c #513349",
"[  c #704C49",
"{  c #6B4749",
"}  c #624049",
"|  c #593949",
" . c #67444C",
".. c #714B4D",
"X. c #694648",
"o. c #614048",
"O. c #583949",
"+. c #65424B",
"@. c #6E4A4C",
"#. c #583849",
"$. c #59394A",
"%. c #63414A",
"&. c #6C484A",
"*. c #6A4749",
"=. c #704B48",
"-. c #734D4A",
";. c #704C48",
":. c #6A4748",
">. c #624048",
",. c #523349",
"<. c #754F4B",
"1. c #6E494B",
"2. c #6A4648",
"3. c #6B4748",
"4. c #654348",
"5. c #5E3D49",
"6. c #563749",
"7. c #503249",
"8. c #57374B",
"9. c #5E3D4C",
"0. c #65424D",
"q. c #65434B",
"w. c #634149",
"e. c #5F3E49",
"r. c #5A3A49",
"t. c #543549",
"y. c #4F3249",
"u. c #4D2F4A",
"i. c #4F314A",
"p. c #5B3A4C",
"a. c #593A49",
"s. c #573849",
"d. c #4C2F4A",
"f. c #503349",
"g. c #4F3149",
"h. c #4E3049",
"j. c #4A2E47",
"k. c #472B44",
"l. c #462B44",
"z. c #452A44",
"x. c #462B45",
"c. c #432940",
"v. c #422940",
"b. c #422840",
"n. c #412840",
"m. c #422841",
"M. c #422941",
"N. c #3F263D",
"B. c #3D253B",
"V. c #3C243A",
"C. c #3B2438",
"Z. c #3A2337",
"A. c #3A2336",
"S. c #3D253A",
"D. c #3C253A",
"F. c #3C253B",
"G. c #372133",
"H. c #351F30",
"J. c #341E2E",
"K. c #331E2E",
"L. c #392236",
"P. c #3B2439",
"I. c #3D253C",
"U. c #3E263C",
"Y. c #382134",
"T. c #301B29",
"R. c #2D1926",
"E. c #2D1925",
"W. c #2F1B29",
"Q. c #3B2338",
"!. c #3E253C",
"~. c #2B1722",
"^. c #28151F",
"/. c #27151D",
"(. c #28151E",
"). c #2B1822",
"_. c #361F31",
"`. c #3E263D",
"'. c #3C2439",
"]. c #321D2C",
"[. c #2D1924",
"{. c #25131A",
"}. c #241319",
"|. c #251319",
" X c #26131B",
".X c #26141C",
"XX c #241219",
"oX c #28161F",
"OX c #2E1A27",
"+X c #351F2F",
"@X c #2E1A26",
"#X c #2A1721",
"$X c #241218",
"%X c #25131B",
"&X c #2C1823",
"*X c #231218",
"=X c #3F273E",
"-X c #341E2F",
";X c #2F1A27",
":X c #311C2B",
">X c #362031",
",X c #301B2A",
"<X c #331D2D",
"1X c #372032",
"2X c #341F2F",
"3X c #3A2236",
"4X c #372033",
"5X c #321C2B",
"6X c #29161F",
"7X c #27141C",
"8X c #2F1B28",
"9X c #311C2A",
"0X c #2C1924",
"qX c #2E1926",
"wX c #2A1720",
"eX c #2F1A28",
"rX c #351F31",
"tX c #2C1824",
"yX c #26141B",
"uX c #2A1722",
"iX c #27141D",
"pX c white",
/* pixels */
"              . X o o O O o o o o o o o o o o o o o o o o o o o o o o o o o o o o o o o o o o o o o o O O o o X .               ",
"                                                                                                                                ",
"            + @ # $ % % % % % % % % % % % % % % % % % % % % % % % % % % % % % % % % % % % % % % % % % % % % $ # @ +             ",
"      . . . & $ * = - ; - - - - - - - - - - - - - - - - - - - - - - - - - - - - - - - - - - - - - - - ; ; - : > $ & . . .       ",
"      . X . @ * , < 1 2 2 3 3 3 3 3 3 3 3 3 3 3 3 3 3 3 3 3 3 3 3 3 3 3 3 3 3 3 3 3 3 3 3 3 3 3 3 3 3 2 4 1 5 , * @ . X .       ",
"      . .   $ 6 7 8 9 0 0 9 9 9 9 9 9 9 9 9 9 9 9 9 9 9 9 9 9 9 9 9 9 9 9 9 9 9 9 9 9 9 9 9 9 9 9 9 9 0 0 9 8 7 6 $   . .       ",
"    + & @ $ q w e 0 r t y u i i i i i i i i i i i i i i i i i i i i i i i i i i i i i i i i i i i i u p a i s d f g $ @ & +     ",
".   @ $ * 6 w 3 h j t t a k l l l l l l l l l l l l l l l l l l l l l l l l l l l l l l l l l l l l l k k l z x c w 6 * $ @   . ",
"X   # * , 7 e h v b n a l m M M M M M M M M M M M M M M M M M M M M M M M M M M M M M M M M M M M M M N N M B V x e 7 C > #   X ",
"o   $ = < 8 0 j b r u Z M A S D D S S S S S S S S S S S S S S S S S S S S S S S S S S S S S S S S S S D D S F G H J 8 5 : $   o ",
"o   % - 1 9 r t n u Z K A D L L L L L L L L L L L L L L L L L L L L L L L L L L L L L L L L L L L L L L L L D P I Z U Y T R   o ",
"O   % ; 2 0 t E a Z K W S Q L ! ! L L L L L L L L L L L L L L L L L L L L L L L L L L L L L L L L L L ! ! L ~ P ^ I V / ( R   o ",
"O   % ; 2 0 y a l M A S D L L L L L L L L L L L L L L L L L L L L L L L L L L L L L L L L L L L L L L L L L Q ) P P _ ` ' ]   o ",
"o   % - 3 9 u k m A D Q L L L L L L L L L L L L L L L L L L L L L L L L L L L L L L L L L L L L L L L L L L L ~ [ D { } | ]   o ",
"o   % T  ...Z I P D L L L L L L L L L L L L L L L L L L L L L L L L L L L L L L L L L L L L L L L L L L L L L ~ ~ L X.o.O.]   o ",
"o   ] ' +.@.z N ) Q L L L L L L L L L L L L L L L L L L L L L L L L L L L L L L L L L L L L L L L L L L L L L ~ ~ L X.o.#.]   X ",
"o   ] $.%.&.A ) S L L L L L L L L L L L L L L L L L L L L L L L L L L L L L L L L L L L L L L L L L L L L L L ~ ~ L X.o.#.]   X ",
"o   ] | } *.D [ ~ L L L L L L L L L L L L L L L L L L L L L L L L L L L L L L L L L L L L L L L L L L L L L L ~ ~ L X.o.O.]   o ",
"o   ] | } { D [ =.Q L L L L L L L L L L L L L L L L L L L L L L L L L L L L L L L L L L L L L L L L L L L L L ~ ~ L X.o.O.]   o ",
"o   ] ' ` _ P -.) =.~ ~ ~ ~ ~ ~ ~ ~ ~ ~ ~ ~ ~ ~ ~ ~ ~ ~ ~ ~ ~ ~ ~ ~ ~ ~ ~ ~ ~ ~ ~ ~ ~ ~ ~ ~ ~ ~ ~ ~ ~ ~ ~ ~ ~ =.;.~ :.>.O.]   o ",
"o   ,.( / V I <.-.[ ~ ~ ~ ~ ~ ~ ~ ~ ~ ~ ~ ~ ~ ~ ~ ~ ~ ~ ~ ~ ~ ~ ~ ~ ~ ~ ~ ~ ~ ~ ~ ~ ~ ~ ~ ~ ~ ~ ~ ~ ~ ~ ~ ~ ~ ;.;.~ :.>.O.]   o ",
"o   R T c U Z I P D L L L L L L L L L L L L L L L L L L L L L L L L L L L L L L L L L L L L L L L L L L L L L ~ ~ L X.o.#.]   X ",
"o   $ 6 5 8 ..V 1.{ 2.X.X.X.X.X.X.X.X.X.X.X.X.X.X.X.X.X.X.X.X.X.X.X.X.X.X.X.X.X.X.X.X.X.X.X.X.X.X.X.X.X.X.X.:.:.3.X.4.5.6.7.  X ",
". + # 8.9.0.3  .q.w.} } } } } } } } } } } } } } } } } } } } } } } } } } } } } } } } } } } } } } } } } } } } } w.w.} e.r.t.y.+ . ",
"  u.i.% 8.p.; - ( ' | | | | | | | | | | | | | | | | | | | | | | | | | | | | | | | | | | | | | | | | | | | | | | a.| s.t.] @ + d.",
"    & @ 7.$ R ,.] ] ] f.f.f.] ] ] ] ] ] ] ] ] ] ] ] ] ] ] ] ] ] ] ] ] ] ] ] ] ] ] ] ] ] ] ] ] ] ] ] ] ] ] ] ] ] ] f.7.g.h.+     ",
"j.j.j.j.j.j.j.j.j.j.j.j.j.j.j.j.j.j.j.j.j.j.j.j.j.j.j.j.j.j.j.j.j.j.j.j.j.j.j.j.j.j.j.j.j.j.j.j.j.j.j.j.j.j.j.j.j.j.j.j.j.j.j.j.",
"k.l.l.l.l.z.z.z.l.x.x.x.x.x.x.x.x.x.x.x.x.x.x.x.x.x.x.x.x.x.x.x.x.x.x.x.x.x.x.x.x.x.x.x.x.x.x.x.x.x.x.x.x.x.x.x.x.x.x.l.l.l.k.k.",
"c.v.v.b.b.n.n.b.m.m.M.M.M.M.M.M.M.M.M.M.M.M.M.M.M.M.M.M.M.M.M.M.M.M.M.M.M.M.M.M.M.M.M.M.M.M.M.M.M.M.M.M.M.M.M.M.M.M.M.M.M.v.v.v.",
"N.N.N.N.N.N.N.N.N.N.N.N.N.N.N.N.N.N.N.N.N.N.N.N.N.N.N.N.N.N.N.N.N.N.N.N.N.N.N.N.N.N.N.N.N.N.N.N.N.N.N.N.N.N.N.N.N.N.N.N.N.N.N.N.",
"B.B.B.B.B.B.B.V.C.Z.Z.A.Z.Z.Z.Z.Z.Z.Z.Z.Z.Z.Z.Z.Z.Z.Z.Z.Z.Z.Z.Z.Z.Z.Z.Z.Z.Z.Z.Z.Z.Z.Z.Z.Z.Z.Z.Z.Z.Z.Z.Z.Z.Z.Z.Z.A.Z.Z.C.V.S.B.B.",
"D.F.B.B.B.B.V.Z.G.H.J.K.K.J.J.J.J.J.J.J.J.J.J.J.J.J.J.J.J.J.J.J.J.J.J.K.K.K.K.K.K.J.J.J.J.J.J.J.J.J.J.J.J.J.J.K.K.J.H.G.L.P.D.B.",
"B.B.B.I.U.I.P.Y.K.T.R.E.E.R.R.R.R.R.R.R.R.R.R.R.R.R.R.R.R.R.R.R.R.R.R.E.E.E.E.E.E.R.R.R.R.R.R.R.R.R.R.R.R.R.R.E.E.R.W.K.G.Q.B.I.",
"B.B.B.I.!.B.Z.H.T.~.^./.(.(.(.(.(.(.(.(.(.(.(.(.(.(.(.(.(.(.(.(.(.(.(.(.^.^.^.^.(.(.(.(.(.(.(.(.(.(.(.(.(.(.(.(./.^.).T._.Z.B.`.",
"B.B.B.D.'.Z.G.].[.(.{.}.|.{.{.{.{.{.{.{.{.{.{.{.{.{.{.{.{.{.{.{.{.{. X.X/.(.(./..X X{.{.{.{.{.{.{.{.{.{.{.{.{.}.XX{.oXOX+XZ.B.`.",
"I.B.'.Z.Y.H.].@X#X.XXX$X$XXXXXXXXXXXXXXXXXXXXXXXXXXXXXXXXXXXXXXX$XXX%X(.#X&X&X#X(.%XXX$XXXXXXXXXXXXXXXXXXXXXXX*X*XXX(.@X+XZ.I.=X",
"U.B.Q.Y.-XT.[.#X/. X}.XXXXXX}.}.}.}.}.}.}.}.}.}.}.}.}.}.}.}.XXXX$X}..X#X;X:X:X;X#X.X}.$XXXXX}.}.}.}.}.}.}.}.XX$X*X|.(.OXH.Z.U.=X",
"`.B.Z.>X,X).(..X X{.{.{.{.{.{.{.{.{.{.{.{.{.{.{.{.{.{.{.{.{.{.}.XX{.(.E.<X1X1X<XE.(.{.XX}.{.{.{.{.{.{.{.{.{.{.XXXX{.(.@X2X3XB.`.",
"`.B.Z.+XOXoX{.XX}.{.{.{.{.{.{.{.{.{.{.{.{.{.{.{.{.{.{.{.{.{.{.XXXX{.(.OXH.3X3XH.OX(.{.XXXX{.{.{.{.{.{.{.{.{.{.}.XX{.(.E.].4X3XQ.",
"=XI.Z.+X@X(.XX*X$XXX}.}.}.}.}.}.}.}.}.}.}.}.}.}.}.}.}.|.{.{.{.XX$X|.(.;X>XQ.Q.>X;X(.|.*X$XXX}.}.}.}.}.}.}.}.}.XXXX{./.~.OX5XK.2X",
"=XU.Z.H.OX(.}.*X$XXXXXXXXXXXXXXXXXXXXXXXXXXXXXXXXXXXXX}.{.{.{.XX$X}.(.OX>XQ.Q.>XOX(.XX*X*XXXXXXXXXXXXXXXXXXXXXXX}.{..X(.#X&XE.R.",
"`.B.3X2X@X(.{.XX}.{.{.{.{.{.{.{.{.{.{.{.{.{.{.{.{.{.{.{.{.{.{.}.XX{.oXOXH.3X3XH.OXoX{.XX}.{.{.{.{.{.{.{.{.{.{.{.{.{.%X.X/.(.oX6X",
"Q.3X4X].E.(. X%X7X(.^.oXoXoXoXoXoXoXoXoXoXoXoXoXoX^.(./..X%X%X X.X(.~.8X-XG.G.-X8X~.oX(.(.(.oXoXoXoXoXoXoX^.(./..X%X%X.X/.(.oX6X",
"2XK.5XOX#X/..X(.~.E.OX;X;XOXOXOXOXOXOXOXOXOXOX;X;XOXE.~.(..X.X(.~.E.8X:X<XK.K.].9X8XOXOXOXOXOXOXOXOXOX;X;XOXE.~.(..X.X(.#X0XqX@X",
"R.E.&XwX/..X/.~.eX<XH._.rXH.H.H.H.H.H.H.H.H.H.rX_.H.<X;X#X/./.~.8X<X-X<X9XeX;XT.].-XH.H.H.H.H.H.H.H.H.rX_.H.<X;X#X/./.#X;X].-XH.",
"6XoX(.7X X X(.0X].4X3XZ.Z.Z.3X3X3X3X3X3X3X3XZ.Z.Z.3X1X5X&X(.(.tX].1XG.J.;X~.~.@X<XG.3XZ.Z.A.3X3X3X3XZ.Z.Z.3X1X5X&X(.(.tX].1XL.Q.",
"6XoX(.7X X X(.0X].4X3XZ.Z.Z.3X3X3X3X3X3X3X3XZ.Z.Z.3X1X5X&X(.(.0X].1X1X].0X(.(.tX5X1X3XZ.Z.Z.3X3X3X3XZ.Z.Z.3X1X5X&X(.(.tX].1X3XQ.",
"@XqX0X#X(..X/.~.eX<XH._.rXH.H.H.H.H.H.H.H.H.H.rX_.H.<X;X#X/./.~.8X<X<XeX#X7X7X#XOX<XH._._.H.H.H.H.H.H.rX_.H.<X;X#X/./.~.eX<XH.>X",
"H.-X].;X~./..X(.~.E.OX;X;XOXOXOXOXOXOXOXOXOXOX;X;XOXE.~.(..X.XoX).E.E.~.(.yXyX(.uXE.OX;X;XOXOXOXOXOXOX;X;XOXE.~.(..X.X^.~.E.OXeX",
"Q.L.1X].E.(. X%X7X(.^.oXoXoXoXoXoXoXoXoXoXoXoXoXoX^.(./..X%X%X.X/.(.(./..X%X%XyXiX(.^.oXoXoXoXoXoXoXoXoXoX^.(./..X%X%X.X/.(.^.6X",
"Q.3X4X].E.(.{.XX|.{.{.{.{.{.{.{.{.{.{.{.{.{.{.{.{.{.{.{.{.{.{.{.{.{.{.{.{.{.{.{.{.{.{.{.{.{.{.{.{.{.{.{.{.{.{.{.{.{.{.{.{.{.{.{.",
">XH.<X8X)./.{.XXXXXXXXXXXXXXXXXXXXXXXXXXXXXXXXXXXXXXXX}.{.{.{.{.}.XXXX}.{.{.{.{.}.XXXXXXXXXXXXXXXXXXXXXXXXXXXX}.{.{.{.{.}.XXXXXX",
"eXOXE.).6X.X{.}.}.}.}.}.}.}.}.}.}.}.}.}.}.}.}.}.}.}.}.|.{.{.{.{.|.}.}.|.{.{.{.{.|.}.}.}.}.}.}.}.}.}.}.}.}.}.}.|.{.{.{.{.|.}.}.XX",
"6X^.(./..X%X{.{.{.{.{.{.{.{.{.{.{.{.{.{.{.{.{.{.{.{.{.{.{.{.{.{.{.{.{.{.{.{.{.{.{.{.{.{.{.{.{.{.{.{.{.{.{.{.{.{.{.{.{.{.{.{.{.{.",
"{.{.{.{.{.{.{.{.{.{.{.{.{.{.{.{.{.{.{.{.{.{.{.{.{.{.{.{.{.{.{.{.{.{.{.{.{.{.{.{.{.{.{.{.{.{.{.{.{.{.{.{.{.{.{.{.{.{.{.{.{.{.{.{.",
"XXXXXX}.{.{.{.{.{.{.{.{.{.{.{.{.{.{.{.{.{.{.{.{.{.{.{.{.{.{.{.{.{.{.{.{.{.{.{.{.{.{.{.{.{.{.{.{.{.{.{.{.{.{.{.{.{.{.{.{.{.{.{.{.",
"XX}.}.|.{.{.{.{.{.{.{.{.{.{.{.{.{.{.{.{.{.{.{.{.{.{.{.{.{.{.{.{.{.{.{.{.{.{.{.{.{.{.{.{.{.{.{.{.{.{.{.{.{.{.{.{.{.{.{.{.{.{.{.{.",
"{.{.{.{.{.{.{.{.{.{.{.{.{.{.{.{.{.{.{.{.{.{.{.{.{.{.{.{.{.{.{.{.{.{.{.{.{.{.{.{.{.{.{.{.{.{.{.{.{.{.{.{.{.{.{.{.{.{.{.{.{.{.{.{.",
"{.{.{.{.{.{.{.{.{.{.{.{.{.{.{.{.{.{.{.{.{.{.{.{.{.{.{.{.{.{.{.{.{.{.{.{.{.{.{.{.{.{.{.{.{.{.{.{.{.{.{.{.{.{.{.{.{.{.{.{.{.{.{.{.",
"{.{.{.{.{.{.{.{.{.{.{.{.{.{.{.{.{.{.{.{.{.{.{.{.{.{.{.{.{.{.{.{.{.{.{.{.{.{.{.{.{.{.{.{.{.{.{.{.{.{.{.{.{.{.{.{.{.{.{.{.{.{.{.{.",
"{.{.{.{.{.{.{.{.{.{.{.{.{.{.{.{.{.{.{.{.{.{.{.{.{.{.{.{.{.{.{.{.{.{.{.{.{.{.{.{.{.{.{.{.{.{.{.{.{.{.{.{.{.{.{.{.{.{.{.{.{.{.{.{.",
"{.{.{.{.{.{.{.{.{.{.{.{.{.{.{.{.{.{.{.{.{.{.{.{.{.{.{.{.{.{.{.{.{.{.{.{.{.{.{.{.{.{.{.{.{.{.{.{.{.{.{.{.{.{.{.{.{.{.{.{.{.{.{.{.",
"{.{.{.{.{.{.{.{.{.{.{.{.{.{.{.{.{.{.{.{.{.{.{.{.{.{.{.{.{.{.{.{.{.{.{.{.{.{.{.{.{.{.{.{.{.{.{.{.{.{.{.{.{.{.{.{.{.{.{.{.{.{.{.{.",
"{.{.{.{.{.{.{.{.{.{.{.{.{.{.{.{.{.{.{.{.{.{.{.{.{.{.{.{.{.{.{.{.{.{.{.{.{.{.{.{.{.{.{.{.{.{.{.{.{.{.{.{.{.{.{.{.{.{.{.{.{.{.{.{."
};
