/* XPM */
static char *result[] = {
/* columns rows colors chars-per-pixel */
"64 64 25 1 ",
"  c #25131A",
". c #28151E",
"X c #2A1721",
"o c #2D1926",
"O c #2F1B28",
"+ c #331E2D",
"@ c #351F30",
"# c #372033",
"$ c #3A2337",
"% c #3E253B",
"& c #40273D",
"* c #452A43",
"= c #4A2E47",
"- c #4B2E49",
"; c #4E3149",
": c #52344A",
"> c #57384A",
", c #5B3A4A",
"< c #6D4947",
"1 c #63414A",
"2 c #69454B",
"3 c #6E4A48",
"4 c #724C4C",
"5 c #76504E",
"6 c #79524F",
/* pixels */
"------------------------------:--------------------------------:",
"-;-;-------------------------------------:----------------------",
";-;;;:::;::>::::::::::::-:-----;:::>:::::::::::::>::,::::::-:---",
"--;:>,,,,,,,,,,,,,,,,,,>:-:---::>>,,,,,,,,,,,,,,,,,,,,,,,,,,::--",
"--;>,122222222221222221,>:----:>,222212221222222221212222,2,::--",
"--:,14446252652544454441>:----:,222665624444544446542622666,,:--",
"--:,24666655556655666542,:----:,266666665555556466646666666,,:--",
"--:,24666655556655555532,:----:,,666626655555556644666666662,:--",
"-;:,246552544545545553<1,;---;>,2666544444444454454444456622,:--",
"--:,24555552424434<333<1,;----:,2666444343433334333334446662,:--",
"--:,245552243322333333<1>:----:,222643<333333333333333346622,:--",
"--:,245525423334<33<33<1>:----:,2626433333333<33333333342622,:--",
"--:,255543333333<33<<<11>:===;:,,5524233333333<3333342436222,:--",
"--:,2455433333333334<<<1>:-==-;,,2452433333<3<3333332433562,,:--",
"-;:,24554432333333<<<<<1,:--=-:,22525223333333<333334252225,::--",
"-;:,24544433333333<43321>:--=-:>,22444433<33333333334422542,,:--",
"--:,256544<<<<3333<4<3<1,:-==-:>1<35333333333333<33333334311&:==",
"--:,26554<<433<3<3333<<1>:-=--:>1<3333333333<333333<333333<11>;=",
"--:,155544333<<3333<<<<1>:----:>1<333333333333333333333333<1>:;=",
"--:,22554433<43333<4<<11>:----:>,<333333333333333333333343<1>:-=",
"--:,226644<333333333<4<1>:-==-:>1<<<33333333<<<333<333<3<<<1,:==",
"-::,256644<333<333333<<1>:-==-:>1<<<<<333333<<3333<<33<<3<11>:;=",
"--:,,56543333<3333<3<<11,:----:>,1<<<12<<<<<2222<<<1<<22<<11>:--",
"--:,2255433333<333<<<<<1>:----;>,1,1111,1111111111111111111,:;--",
"--:,266625223<3333333<<1>:==--;:&1,,>,,,,,>>,>,,>,,,>,,,>>>::;;-",
"--:,,66662253333<333<<<1>;-----;;>::;;;;;;:::::;::;;::;;::;;;;;-",
"--:,2655442533333333<<11,:;=====&===;=&;--===;=;==---=--========",
"-::,,2564442<3333333<<<1,:====**==*=&=;&***********=*****=****=*",
"--:,26664442443<333333<1>:-=&*&****%&**&**************&&**&*&&*&",
"--:,,66644243233333333<1>:==&&&&%%%%&&%%%%%%%%%%%%%%&%&&%&%&&&&&",
"--:,266245223333333333<1>:=**&&&%$$$$$%$$$$$$$$$$$$$$$$$$$%%%%&&",
"--:,266642443333333333<1>:=&&&$@#@@+@+@@@+@++@+@+@++++@+++@@@$%%",
"--:,245553333<33333333<1>:==&%$#+OooooooooooooooooooXoooooO+#$%%",
"--:,2455533333333333331,,:=**%$#OX. . ... ..... ....   ...oO#$%%",
"--:,2455333<333<333333<1>:=*&&$@o.                         o+#$$",
"--:,24555333333333333311>:;=*%$@o.                         XOO@#",
"--:,246553333333333333<1>:=*&&%+X                          .XXoO",
"--:,2455433333<333333<<1,:;*&&$@o                          ....X",
"-;:,245553333<333333<3<1>:**&%#+X.                          ....",
"-;:,2455433333333333<<<1>:;&$@+oX.                        ..Xooo",
"--:,255533333333333333<1>:=%#+o..               .         ..O++@",
"--:,265553333333333333<1>:=$+o.                           .o+@$$",
"--:,22553333333333333<<1>:=&+o. .                          o@#$$",
"--:,25555333333333333<111>&&$Oo..                         .XOO@@",
"--:,22663333333<333333<1,;&&$$+O..                        ..XoOO",
"--:,256653333333333333<1,;:&&$@+X.                          . ..",
"--:,255553<3<33333333<<1,;:&&%#Oo.                          ....",
"--:>22555333333333333<11,:;&$$+oX.                        ...ooo",
"--:,26662552424433333321>:*%$OoXXX        X               .XoO++",
"--:,,66662242424333333<1,:*%+o..                          .o+#%%",
"--:,26556522334233333331,:*%OX                             o+$%%",
"-::,,25522523342333333<1,>&$O                     .       .o+$%%",
"--:,265543333<3333334421,:=$O.                            .O#$%%",
"--:,,6554333333333332421,:=$+X                            .o+%%%",
"--:,26665443333433333321,:&$+X                            .O+%%%",
"--:,26666444444333344441,:=$+.                            .o#$%%",
"--:,22666655555444444442,:*$O.                            .O@$%%",
"--:,256665565554434455421:*%+                             .o@$%%",
"--:,,4554444454432234421,:*%OX                             o#$%%",
"--::,2222222112111111211>;*%+X                            .o@$%%",
"--:::,,,,,,,,,,,,,>,,,,>:;=%+X                            Xo@$%%",
"----:::::::::::::;:;::;;:;*$+X                            Xo@$%%",
"-;-;----:-----------;-;-;;*%O.                            Xo#$%%",
"----------------------;--;*%O                             Xo@$%%"
};
