/* XPM */
static char *result[] = {
/* columns rows colors chars-per-pixel */
"64 64 245 2 ",
"   c #4C2F49",
".  c #4B2E49",
"X  c #4A2E49",
"o  c #4A2D49",
"O  c #492D49",
"+  c #4D3049",
"@  c #4E3149",
"#  c #50324A",
"$  c #51334A",
"%  c #52344A",
"&  c #56364A",
"*  c #59394B",
"=  c #5C3B4B",
"-  c #5C3C4B",
";  c #56374A",
":  c #52334A",
">  c #5A3A4B",
",  c #5D3C4B",
"<  c #63414C",
"1  c #67444D",
"2  c #68454D",
"3  c #68444D",
"4  c #64414C",
"5  c #503249",
"6  c #5D3C4C",
"7  c #6D484D",
"8  c #724C4E",
"9  c #734D4E",
"0  c #64424C",
"q  c #77514F",
"w  c #79524F",
"e  c #78514F",
"r  c #77504E",
"t  c #76504E",
"y  c #67444C",
"u  c #714B4D",
"i  c #78514E",
"p  c #7A534E",
"a  c #78524E",
"s  c #77504D",
"d  c #76504D",
"f  c #79524E",
"g  c #7A534F",
"h  c #744E4F",
"j  c #69464D",
"k  c #523349",
"l  c #5B3B4A",
"z  c #67444B",
"x  c #704B4C",
"c  c #764F4D",
"v  c #77514D",
"b  c #744E4B",
"n  c #734D4B",
"m  c #734D4F",
"M  c #69454D",
"N  c #513349",
"B  c #5A3A4A",
"V  c #65424A",
"C  c #6E494A",
"Z  c #744F4B",
"A  c #734E4B",
"S  c #714C4A",
"D  c #704B49",
"F  c #6F4B49",
"G  c #593949",
"H  c #634149",
"J  c #6B4749",
"K  c #714C49",
"L  c #704C49",
"P  c #6E4A48",
"I  c #724D4A",
"U  c #754F4C",
"Y  c #754F4D",
"T  c #714C4D",
"R  c #583949",
"E  c #624048",
"W  c #694648",
"Q  c #6F4B48",
"!  c #6D4947",
"~  c #6D4A48",
"^  c #6F4A48",
"/  c #734D4C",
"(  c #6F4A4C",
")  c #66434B",
"_  c #614048",
"`  c #6C484A",
"'  c #64424A",
"]  c #624149",
"[  c #5B3B4B",
"{  c #65434B",
"}  c #734E4C",
"|  c #6C494A",
" . c #593A4A",
".. c #63414A",
"X. c #624049",
"o. c #6A4749",
"O. c #6A4748",
"+. c #704C48",
"@. c #704B48",
"#. c #754F4B",
"$. c #744F4C",
"%. c #724D49",
"&. c #734E4A",
"*. c #6E4A4A",
"=. c #65434A",
"-. c #583849",
";. c #563749",
":. c #5E3D49",
">. c #654348",
",. c #6B4748",
"<. c #664348",
"1. c #5F3E49",
"2. c #573849",
"3. c #4D2F49",
"4. c #4F3249",
"5. c #543549",
"6. c #5A3A49",
"7. c #4C2F4A",
"8. c #593A49",
"9. c #543649",
"0. c #4E3049",
"q. c #4F3149",
"w. c #503349",
"e. c #4A2E47",
"r. c #4A2D48",
"t. c #4A2E48",
"y. c #472C45",
"u. c #472B45",
"i. c #462B45",
"p. c #462B44",
"a. c #482C46",
"s. c #492D47",
"d. c #4B2F48",
"f. c #432941",
"g. c #422941",
"h. c #422841",
"j. c #422840",
"k. c #432940",
"l. c #442941",
"z. c #452A43",
"x. c #472C46",
"c. c #4B2E48",
"v. c #3F263D",
"b. c #3F263C",
"n. c #3E263C",
"m. c #41273F",
"M. c #3A2336",
"N. c #3A2337",
"B. c #3B2338",
"V. c #3B2439",
"C. c #3D253B",
"Z. c #452B44",
"A. c #331E2E",
"S. c #341E2E",
"D. c #351F30",
"F. c #372033",
"G. c #392236",
"H. c #3C243A",
"J. c #2C1924",
"K. c #2D1925",
"L. c #2D1926",
"P. c #2F1B29",
"I. c #331D2D",
"U. c #372133",
"Y. c #28151F",
"T. c #28151E",
"R. c #27151D",
"E. c #2B1722",
"W. c #2F1B28",
"Q. c #29161F",
"!. c #28161F",
"~. c #26141C",
"^. c #26131B",
"/. c #25131A",
"(. c #251319",
"). c #241319",
"_. c #2C1824",
"`. c #321C2C",
"'. c #3C2439",
"]. c #40273E",
"[. c #2E1A27",
"{. c #2E1926",
"}. c #2A1721",
"|. c #25131B",
" X c #241219",
".X c #241218",
"XX c #291620",
"oX c #321D2C",
"OX c #372032",
"+X c #3D2439",
"@X c #432840",
"#X c #492D46",
"$X c #59394A",
"%X c #6A4648",
"&X c #341E2F",
"*X c #2F1A27",
"=X c #27141C",
"-X c #321C2B",
";X c #382133",
":X c #40263D",
">X c #482C44",
",X c #26141B",
"<X c #2D1924",
"1X c #351E2E",
"2X c #3E253A",
"3X c #472C43",
"4X c #2A1720",
"5X c #321D2B",
"6X c #3D2438",
"7X c #472B43",
"8X c #231218",
"9X c #321C2A",
"0X c #3C2437",
"qX c #472B42",
"wX c #2A1620",
"eX c #3C2438",
"rX c #2E1A26",
"tX c #341F2F",
"yX c #351F2F",
"uX c #351F31",
"iX c #361F31",
"pX c #3A2236",
"aX c #744E4C",
"sX c #6F4B4C",
"dX c #5B3A4A",
"fX c #6D494A",
"gX c #62414A",
"hX c #331D2B",
"jX c #58394A",
"kX c #603E4A",
"lX c #5E3D48",
"zX c #55364A",
"xX c #5E3E49",
"cX c #613F48",
"vX c #593948",
"bX c #533549",
"nX c #52334B",
"mX c #573749",
"MX c #583848",
"NX c #3E2538",
"BX c #4F314B",
"VX c #4D304B",
"CX c #4D304A",
"ZX c #4D2F4B",
"AX c white",
/* pixels */
"      . X o o O O o o o o o o o o o o o o o o o o o o O O o o X .             . X o o O O o o o o o o o o o o O O o o X .       ",
"                                                                                                                                ",
"    + @ # $ % % % % % % % % % % % % % % % % % % % % % % % % $ # @ +         + @ # $ % % % % % % % % % % % % % % % % $ # @ +     ",
".   @ $ & * = - = = = = = = = = = = = = = = = = = = = = - = * ; : @   . .   @ : ; > = - - = = = = = = = = = = = - = * & $ @   . ",
"X   # & , < 1 2 2 3 3 3 3 3 3 3 3 3 3 3 3 3 3 3 3 3 3 2 2 1 4 , ; 5   X X   # ; 6 4 1 2 2 3 3 3 3 3 3 3 3 3 3 2 2 1 < , & #   X ",
"o   $ * < 7 8 9 9 8 8 8 8 8 8 8 8 8 8 8 8 8 8 8 8 8 8 9 9 8 7 0 > $   o o   $ > 0 7 8 9 9 8 8 8 8 8 8 8 8 8 8 9 9 8 7 < * $   o ",
"o   % = 1 8 q w e r t t t t t t t t t t t t t t t t r e w q 8 3 = %   O O   : = y u t i i r t t t t t t t t r e w q 8 1 = %   o ",
"O   % - 2 9 w p a s d d d d d d d d d d d d d d d d s f g w h j , %   O O   k l z x c v s d d d d d d d d d s a p w 9 2 - %   O ",
"O   % = 2 9 e a d b n n n n n n n n n n n n n n n n b d f e m M , %   O O   N B V C n Z b A n n n n n n n n b d a e 9 2 = %   O ",
"o   % = 3 8 r s b S D F F D D D D D D D D D D F F D S b s r 8 2 - %   o o   N G H J F K L D D D D D D F F D S b s r 8 3 = %   o ",
"o   % = 3 8 t d n D P P P P P P P P P P P P P P P P F I U Y T y = :   o o   N R E W P Q Q P P P P P P P P P D n d t 8 3 = %   o ",
"o   % = 3 8 r d n F P ! ~ P P P P P P P P P P ~ ~ P ^ K A / ( ) l N   o o   N R _ W ~ Q ^ P P P P P P ~ ! P F n d t 8 3 = %   o ",
"o   % = 3 8 r d n F P ~ ~ P P P P P P P P P P P P P P L K S ` ' B N   o o   N R _ W P Q Q P P P P P P ~ ~ P F n d t 8 3 = %   o ",
"o   % = 1 8 t d n F P P P P P P P P P P P P P P P P P Q L F J ] G N   o o   N R E W P Q Q P P P P P P P P P D n d t 8 3 = %   o ",
"o   % [ y u Y U I F P P P P P P P P P P P P P P P P P Q L F J H G N   o o   N R E W P Q Q P P P P P P P P P D n d t 8 3 = %   o ",
"o   N B { ( } A S F P P P P P P P P P P P P P P P P ^ L I S | ' B N   o o   N R E W P Q Q P P P P P P P P P D n d t 8 3 = %   o ",
"o   N  ...` S I L ^ P P P P P P P P P P P P P P P P F S b } ( ) l N   o o   N R E W P Q Q P P P P P P P P P D n d t 8 3 = %   o ",
"o   N G X.o.F L Q P P P P P P P P P P P P P P P P P F I U Y T y = :   o o   N R E W P Q Q P P P P P P P P P D n d t 8 3 = %   o ",
"o   N R _ W P Q Q P P P P P P P P P P P P P P P P P D I U Y T y = :   o o   N R E W P Q Q P P P P P P P P P D n d t 8 3 = %   o ",
"o   N R _ O.P +.@.Q Q Q Q Q Q Q Q Q Q Q Q Q Q Q Q Q D I #.$.x z l :   o o   N R E W P Q Q P P P P P P P P P D n d t 8 3 = %   o ",
"o   N R E O.Q +.+.Q Q Q Q Q Q Q Q Q Q Q Q Q Q Q Q Q @.%.&.I *.=.B N   o o   N R E W P Q Q P P P P P P P P P D n d t 8 3 = %   o ",
"X   N -._ W P Q Q P P P P P P P P P P P P P P P P P P Q D F o.] G N   o o   N R E W P Q Q P P P P P P P P P D n d t 8 3 = %   o ",
"X   5 ;.:.>.W ,.O.O.W W W W W W W W W W W W W W W W O.O.,.W <.1.2.5   o o   N R E W P Q Q P P P P P P P P P D n d t 8 3 = %   o ",
". 3.4.5.6.1.X.H H X.X.X.X.X.X.X.X.X.X.X.X.X.X.X.X.X.X.] ] X.1.6.5.4.  . X   N R E W P Q Q P P P P P P P P P D n d t 8 3 = %   o ",
"7.3.@ N 5.2.G 8.G G G G G G G G G G G G G G G G G G G G G G 2.9.N @   . .   N R E W P Q Q P P P P P P P P P D n d t 8 3 = %   o ",
"    3.0.q.5 w.N N N N N N N N N N N N N N N N N N N N N N w.5 q.0.3.  . .   N R E W P Q Q P P P P P P P P P D n d t 8 3 = %   o ",
"e.e.e.e.e.e.e.e.e.e.e.e.e.e.e.e.e.e.e.e.e.e.e.e.e.e.e.e.e.e.e.e.e.e.e.r.t.  N G E W P Q Q P P P P P P P P P D n d t 8 3 = %   o ",
"y.y.y.u.i.i.i.i.i.i.i.i.i.i.i.i.i.i.i.i.i.i.i.i.i.i.i.i.i.i.i.p.p.p.y.a.s.d.N G X.W P Q Q P P P P P P P P P D n d t 8 3 = %   o ",
"f.f.f.f.f.f.g.g.g.g.g.g.g.g.g.g.g.g.g.g.g.g.g.g.g.g.g.g.g.g.g.h.j.k.l.z.x.c.N G X.W P Q Q P P P P P P P P P D n d t 8 3 = %   o ",
"v.v.v.v.v.v.v.v.v.v.v.v.v.v.v.v.v.v.v.v.v.v.v.v.v.v.v.v.v.v.v.b.n.v.m.f.i.e.N G X.W P Q Q P P P P P P P P P D n d t 8 3 = %   o ",
"M.M.N.N.N.N.N.N.N.N.N.N.N.N.N.N.N.N.N.N.N.N.N.N.N.N.N.N.M.N.N.B.V.C.v.j.Z.e.N G X.W P Q Q P P P P P P P P P D n d t 8 3 = %   o ",
"A.A.A.A.A.S.S.S.S.S.S.S.S.S.S.S.S.S.S.S.S.S.S.S.S.S.S.A.A.S.D.F.G.H.v.h.p.e.N G X.W P Q Q P P P P P P P P P D n d t 8 3 = %   o ",
"J.K.K.K.K.L.L.L.L.L.L.L.L.L.L.L.L.L.L.L.L.L.L.L.L.L.L.K.K.L.P.I.U.V.v.g.i.e.N G X.W P Q Q P P P P P P P P P D n d t 8 3 = %   o ",
"Y.Y.Y.T.T.T.T.T.T.T.T.T.T.T.T.T.T.T.T.T.T.T.T.T.T.T.T.T.R.Y.E.W.D.N.v.h.i.e.N G X.W P Q Q P P P P P P P P P D n d t 8 3 = %   o ",
"Q.!.T.R.~.^./././././././././././././././././././././.(.)./.T._.`.U.'.].z.e.w.G X.W P Q Q P P P P P P P P P D n d t 8 3 = %   o ",
"[.{._.}.T.|. X.X.X X X X X X X X X X X X X X X X X X X.X.X X~.XXL.oXOX+X@X#Xw.$X] %XP Q Q P P P P P P P P P D n d t 8 3 = %   o ",
"D.&XoX*XE.=X)..X X X).).).).).).).).).).).).).).).). X X X).^.R.XXK.-X;X:X>Xw.B ] %XP Q Q P P P P P P P P P D n d t 8 3 = %   o ",
"B.G.OXoXK.T./. X)./././././././././././././././././././././././.,XT.<X1X2X3Xw.B ] %XP Q Q P P P P P P P P P D n d t 8 3 = %   o ",
"B.G.OXoXK.T./. X)././././././././././././././././././././././. X.X/.4X5X6X7X5 B ..%XP Q Q P P P P P P P P P D n d t 8 3 = %   o ",
"D.&XoX*XE.=X)..X X X).).).).).).).).).).).).).).).).).(./././..X8X).Q.9X0XqX5 B ..%XP Q Q P P P P P P P P P D n d t 8 3 = %   o ",
"[.{._.}.T.|. X.X.X X X X X X X X X X X X X X X X X X X)./././..X8X/.wX-X0X7X5 B ..%XP Q Q P P P P P P P P P D n d t 8 3 = %   o ",
"Q.!.T.R.~.^./././././././././././././././././././././././././. X.X/.4X-XeX7X5 B ..%XP Q Q P P P P P P P P P D n d t 8 3 = %   o ",
"!.!.!.!.!.!.!.!.!.!.!.!.!.!.!.!.!.!.!.!.!.!.!.!.!.Y.T.R.~.|./. X.X/.4X5X6X7X5 B ..%XP Q Q P P P P P P P P P D n d t 8 3 = %   o ",
"{.{.rXrX[.[.[.[.[.[.[.[.[.[.[.[.[.[.[.[.[.[.[.*X*X[.K.E.!.~./..X8X/.4X5X6X7X5 B ..%XP Q Q P P P P P P P P P D n d t 8 3 = %   o ",
"tXtXyXD.D.D.D.D.D.D.D.D.D.D.D.D.D.D.D.D.D.D.D.uXiXD.I.W.E.R./.8X8X/.4X5X6X7X5 B ..%XP Q Q P P P P P P P P P D n d t 8 3 = %   o ",
"pXpXpXpXpXpXpXpXpXpXpXpXpXpXpXpXpXpXpXpXpXpXN.N.N.pXF.oX<XT./.8X8X/.4X5X6X7X5 B ..%XP Q Q P P P P P P P P P D n d t 8 3 = %   o ",
"pXpXpXpXpXpXpXpXpXpXpXpXpXpXpXpXpXpXpXpXpXpXN.N.N.pXF.oX<XT./.8X8X/.4X5X6X7X5 B ..%XP Q Q P P P P P P P P P D n d t 8 3 = %   o ",
"D.D.D.D.D.D.D.D.D.D.D.D.D.D.D.D.D.D.D.D.D.D.D.uXiXD.I.W.E.R./.8X8X/.4X5X6X7X5 B ..%XP Q Q P P P P P P P P P D n d t 8 3 = %   o ",
"[.[.[.[.[.[.[.[.[.[.[.[.[.[.[.[.[.[.[.[.[.[.[.*X*X[.K.E.!.~./..X8X/.4X5X6X7X5 B ..%XP Q Q P P P P P P P P P D n d t 8 3 = %   o ",
"!.!.!.!.!.!.!.!.!.!.!.!.!.!.!.!.!.!.!.!.!.!.!.!.!.Y.T.R.~.|./. X.X/.4X5X6X7X5 B ..%XP Q Q P P P P P P P P P D n d t 8 3 = %   o ",
"/././././././././././././././././././././././././././././././. X.X/.4X5X6X7X5 B ..%XP Q Q P P P P P P P P P D n d t 8 3 = %   o ",
" X X X X X X X X X X X X X X X X X X X X X X X X X X X)./././. X.X/.4X5X6X7X5 B ..%XP Q Q P P P P P P P P P D A d r 8 3 = %   o ",
").).).).).).).).).).).).).).).).).).).).).).).).).).).(./././. X.X/.4X5X6X7X5 B ..%XP Q Q P P P P P P P P P D A d r 8 3 = %   o ",
"/././././././././././././././././././././././././././././././. X.X/.4X5X6X7X5 B ..%XP Q Q P P P P P P P P P D n d t 8 1 = %   o ",
"/././././././././././././././././././././././././././././././. X.X/.4X5X6X7Xw.B ..O.P Q Q P P P P P P P P P D I U Y T y [ %   o ",
"/././././././././././././././././././././././././././././././. X.X/.4X5XeX7Xw.B ..O.Q +.@.Q Q Q Q Q Q Q Q Q D I Z aXsX) dXk   o ",
"/././././././././././././././././././././././././././././././. X.X/.4X5XeX7XN B ..,.Q +.+.Q Q Q Q Q Q Q Q Q @.%.&.I fX' B N   o ",
"/././././././././././././././././././././././././././././././. X.X/.4X5X6X7X5 B gXW P Q Q P P P P P P P P P P Q D F o.X.R N   o ",
"/././././././././././././././././././././././././././././././. X.X/.4XhX6X7X5 jXkX<.W O.O.W W W W W W W W W W O.O.W >.lX;.5   X ",
"/././././././././././././././././././././././././././././././. X.X/.4XhX6X7Xq.zXB xX_ E E _ _ _ _ _ _ _ _ _ _ _ E cXlXvXbXq.  . ",
"/././././././././././././././././././././././././././././././. X.X/.4XhX6X7X+ nXzXmX-.R R R R R R R R R R R R R R MX;.bX5 0.  . ",
"/././././././././././././././././././././././././././././././. X.X/.4XhXNX7X  BX# 5 N N N N N N N N N N N N N N N N 5 q.0.3.    ",
"/././././././././././././././././././././././././././././././. X.X/.4XhXNX7X  VXCX                                              ",
"/././././././././././././././././././././././././././././././. X.X/.4XhXNX7X  ZX7.. X o o o o o o o o o o o o o o X X . .       "
};
