/* XPM */
static char *result[] = {
/* columns rows colors chars-per-pixel */
"64 64 226 2 ",
"   c #25131A",
".  c #241219",
"X  c #241218",
"o  c #2A1720",
"O  c #331D2B",
"+  c #3E2538",
"@  c #472B43",
"#  c #4C2F49",
"$  c #4D2F4B",
"%  c #4C2F4A",
"&  c #4B2E49",
"*  c #4A2D49",
"=  c #4A2E49",
"-  c #4D304B",
";  c #4D304A",
":  c #4F314B",
">  c #50324A",
",  c #503249",
"<  c #513349",
"1  c #523349",
"2  c #52344A",
"3  c #52334A",
"4  c #4F3149",
"5  c #4E3049",
"6  c #4D2F49",
"7  c #3D2438",
"8  c #4D3049",
"9  c #54364A",
"0  c #563749",
"q  c #583949",
"w  c #5A3A49",
"e  c #5B3A4A",
"r  c #5B3B4B",
"t  c #5C3B4B",
"y  c #5A3A4A",
"u  c #533549",
"i  c #55364A",
"p  c #5E3D48",
"a  c #614049",
"s  c #64424A",
"d  c #66434B",
"f  c #67444C",
"g  c #67444D",
"h  c #68444D",
"j  c #66434C",
"k  c #65434B",
"l  c #624049",
"z  c #593948",
"x  c #58384A",
"c  c #5F3E4A",
"v  c #664349",
"b  c #6A4749",
"n  c #6D494A",
"m  c #704B4C",
"M  c #714C4D",
"N  c #724C4E",
"B  c #654348",
"V  c #321D2B",
"C  c #3C2438",
"Z  c #503349",
"A  c #5A3A4B",
"S  c #63414A",
"D  c #6B4749",
"F  c #704B4A",
"G  c #734E4B",
"H  c #754F4C",
"J  c #764F4D",
"K  c #76504E",
"L  c #77504E",
"P  c #77504F",
"I  c #78514F",
"U  c #734D4B",
"Y  c #6F4B49",
"T  c #694648",
"R  c #613F48",
"E  c #583848",
"W  c #321C2B",
"Q  c #6E4A4B",
"!  c #754F4B",
"~  c #76504C",
"^  c #764F4C",
"/  c #76504D",
"(  c #78514E",
")  c #79524F",
"_  c #77504D",
"`  c #744F4B",
"'  c #704C49",
"]  c #6A4748",
"[  c #614048",
"{  c #583948",
"}  c #5D3C4C",
"|  c #744E4B",
" . c #77514E",
".. c #79514F",
"X. c #704B49",
"o. c #5D3C4D",
"O. c #68454E",
"+. c #714C4E",
"@. c #714C4A",
"#. c #754F4D",
"$. c #6A4648",
"%. c #5E3D4D",
"&. c #69464E",
"*. c #724D4E",
"=. c #6E4A48",
"-. c #6D4A48",
";. c #744E4C",
":. c #704C4A",
">. c #6A464F",
",. c #734D4F",
"<. c #6D4947",
"1. c #6F4A48",
"2. c #724D4B",
"3. c #734E4C",
"4. c #744F4C",
"5. c #6D494B",
"6. c #59394A",
"7. c #6F4A4C",
"8. c #714B4D",
"9. c #724D4A",
"0. c #5C3C4C",
"q. c #6F4B48",
"w. c #64414A",
"e. c #593949",
"r. c #472C43",
"t. c #704C48",
"y. c #704B48",
"u. c #5B3A4B",
"i. c #624048",
"p. c #62414A",
"a. c #583849",
"s. c #2A1620",
"d. c #3B2337",
"f. c #452A41",
"g. c #4E3147",
"h. c #573849",
"j. c #5F3E49",
"k. c #6B4748",
"l. c #5E3D49",
"z. c #291620",
"x. c #311C2A",
"c. c #3A2235",
"v. c #43293F",
"b. c #4B2E45",
"n. c #523448",
"m. c #593A48",
"M. c #5E3E48",
"N. c #634149",
"B. c #543549",
"V. c #4F3249",
"C. c #29161F",
"Z. c #301B28",
"A. c #372133",
"S. c #3F263C",
"D. c #462B42",
"F. c #4C3046",
"G. c #523447",
"H. c #563748",
"J. c #593A49",
"K. c #4E3149",
"L. c #28161F",
"P. c #2E1A26",
"I. c #351F30",
"U. c #3B2438",
"Y. c #41283E",
"T. c #4B2F45",
"R. c #241319",
"E. c #28151E",
"W. c #2C1824",
"Q. c #3C2439",
"!. c #41273E",
"~. c #452A42",
"^. c #482C45",
"/. c #4A2E47",
"(. c #4B2E48",
"). c #251319",
"_. c #27141D",
"`. c #2A1721",
"'. c #2D1926",
"]. c #311C2B",
"[. c #361F31",
"{. c #3A2337",
"}. c #3F263D",
"|. c #432942",
" X c #462B45",
".X c #472B46",
"XX c #472B45",
"oX c #472C45",
"OX c #26141B",
"+X c #27151D",
"@X c #2C1823",
"#X c #2F1B28",
"$X c #351F2F",
"%X c #40263D",
"&X c #422841",
"*X c #432941",
"=X c #422941",
"-X c #26131B",
";X c #26141C",
":X c #2B1823",
">X c #372032",
",X c #40273E",
"<X c #3F273E",
"1X c #25131B",
"2X c #27141C",
"3X c #2B1722",
"4X c #2F1A28",
"5X c #341E2E",
"6X c #382133",
"7X c #3A2336",
"8X c #301B29",
"9X c #331D2D",
"0X c #341E2F",
"qX c #2E1A27",
"wX c #321D2C",
"eX c #2D1925",
"rX c #28151F",
"tX c #3A2236",
"yX c #2F1A27",
"uX c #231218",
"iX c #351F31",
"pX c #362031",
"aX c #3B2338",
"sX c #372033",
"dX c #2D1924",
"fX c white",
/* pixels */
"                                                              . X   o O + @ # $ % & * * * * * * * * * * * * * * * * = & & # # # ",
"                                                              . X   o O + @ # - ; # # # # # # # # # # # # # # # # # # # # # # # ",
"                                                              . X   o O + @ # : > , < < 1 2 2 2 2 2 2 2 2 2 3 1 < < , 4 5 6 # # ",
"                                                              . X   o O 7 @ 8 3 9 0 q w e r t t t t t t t t r e y q 0 u , 5 # & ",
"                                                              . X   o O 7 @ 4 i y p a s d f g h h h g h h g j k s l p z u 4 # & ",
"                                                              . X   o O 7 @ , x c v b n m M N N N N N N N N M m n b B p 0 , # = ",
"                                                              . X   o V C @ Z A S D F G H J K L L K L P I I L H U Y T R E < # = ",
"                                                              . X   o W C @ < t d Q G ! ~ ^ / / / / / ( ) ) ( _ ` ' ] [ { < # * ",
"                                                              . X   o W C @ < } f m H ~ ! G U U U U | J  ...( _ | X.] [ { < # * ",
"                                                              . X   o W C @ 1 o.O.+.J ^ G @.X.Y Y X.@.U #.L L J G Y $.[ E < # * ",
"                                                              . X   o W C @ 3 %.&.*.K / U X.=.-.-.=.Y @.;.#.J H | :.D l q < # * ",
"                                                              . X   o W C @ 2 %.>.,.L / U Y =.<.<.=.1.:.2.3.;.H 4.2.5.S 6.< # * ",
"                                                              . X   o W C @ 2 %.>.,.L / G Y =.<.-.=.=.Y X.@.2.;.H ;.7.k y 3 # * ",
"                                                              . X   o W C @ 3 %.&.N K / U X.=.=.=.=.=.=.1.Y @.G H #.8.f r 3 # * ",
"                                                              . X   o W C @ 1 o.O.+.#.H 9.Y =.=.=.=.=.=.=.=.Y 9.H #.8.f r 2 # * ",
"                                                              . X   o W C @ < 0.g 7.3.G @.Y =.=.=.=.=.=.=.=.q.@.| ;.7.k e 3 # * ",
"                                                              . X   o W C @ < r k 5.@.9.' 1.=.=.=.=.=.=.=.=.=.' 9.@.n w.y < # * ",
"                                                              . X   o V C @ < A S D Y ' q.=.=.=.=.=.=.=.=.=.=.q.' Y b l e.< # * ",
"                                                              . X   o V 7 @ Z y S ] =.q.q.=.=.=.=.=.=.=.=.=.=.q.q.=.T [ q < # * ",
"                                                              . X   o O 7 r.< y S ] =.t.y.q.q.q.q.q.q.q.q.q.q.y.t.=.] [ q < # * ",
"                                                              . X   o O 7 r.< u.S ] q.t.t.q.q.q.q.q.q.q.q.q.q.t.t.q.] i.q < # * ",
"                                                              . X   o V C @ , y p.T =.q.q.=.=.=.=.=.=.=.=.=.=.q.q.=.T [ a.< # = ",
"                                                              . X   s.W d.f.g.h.j.B T k.] ] T T T T T T T T ] ] k.T B l.0 , # = ",
"                                                              . X   z.x.c.v.b.n.m.M.l N.N.l l l l l l l l l l N.N.l j.w B.V.6 & ",
"                                                              . .   C.Z.A.S.D.F.G.H.e.w w e.e.e.e.e.e.e.e.e.e.e.J.e.h.B.< K.6 % ",
"                                                              . .   L.P.I.U.Y.D.T.g.Z < < < < < < < < < < < < < < Z , 4 5 6 # # ",
"                                                              R..   E.W.W A.Q.!.~.^./.(.(./././././././././././././././././././.",
"                                                              ).).  _.`.'.].[.{.}.|. X.X X X X X X X X X X X X X X X X XXXoXoXoX",
"                                                                    OX+Xz.@X#X$Xd.%X&X|.|.*X=X=X=X=X=X=X=X=X=X=X=X=X*X*X*X*X*X*X",
"                                                                      -X;XE.:Xx.>XQ.}.,X<X}.}.}.}.}.}.}.}.}.}.}.}.}.}.}.}.}.}.}.",
"                                                                    1XOX2XE.3X4X5X6X7X{.{.{.{.{.{.{.{.{.{.{.{.{.{.{.{.{.{.{.{.{.",
"                                                                    OXE.`.@XP.8X].9X5X0X0X5X5X5X5X5X5X5X5X5X5X5X5X5X5X5X5X5X5X5X",
"                                                              ).R.  _.3XqXW 9XwX8XqX'.eXeX'.'.'.'.'.'.'.'.'.'.'.'.'.'.'.'.'.'.'.",
"                                                              R..   E.eX9X>XA.0X#X3XrXE.E.E.E.E.E.E.E.E.E.E.E.E.E.E.E.E.E.E.E.E.",
"                                                              R..   rXqXI.tXtXI.qXL.  . ).                                      ",
"                                                              R..   L.yX[.{.{.I.qXE.. uXuX. . . . . . . . . . . . . . . . . . . ",
"                                                              R..   L.yX[.{.{.I.qXE.).uXX . R.R.R.R.R.R.R.R.R.R.R.R.R.R.R.R.R.R.",
"                                                              R..   L.qXI.{.7XI.qXE.  . .                                       ",
"                                                              R..   L.qXI.{.{.I.qXL.  . R.                                      ",
"                                                              R..   L.yXiX{.{.iXyXL.  . R.                                      ",
"                                                              R..   L.yX[.{.{.[.yXL.  . R.                                      ",
"                                                              R..   rXqXI.tXtXI.qXrX  . R.                                      ",
"                                                              R..   E.eX9X>X>X9XeXE.  . R.                                      ",
"                                                              ).R.  +X3XyXW W yX3X+X  R.).                                      ",
"                                                                    ;XE.`.@X@X`.E.;X                                            ",
"                                                                    1X;X+XE.E.+X;X1X                                            ",
"                                                                    1X;X+XE.E.+X;X1X                                            ",
"                                                                    ;XE.`.@X@X`.E.;X                                            ",
"                                                              ).R.  +X3XyXW W yX3X+X  R.).                                      ",
"                                                              R..   E.eX9X>X>X9XeXE.  . R.                                      ",
"                                                              R..   L.qXI.tXtXI.qXL.  . R.                                      ",
"                                                              . .   C.4XpXaXaXpX4XC.  . .                                       ",
"                                                              . .   C.4XpXaXaXpX4XC.  . .                                       ",
"                                                              R..   L.qXI.tXtXI.qXL.  . R.                                      ",
"                                                              R..   E.eX9XsXsX9XeXE.  . R.                                      ",
"                                                              ).R.  +X3X#XwXwX#X3X+X  R.).                                      ",
"                                                                    ;XL.3XdXdX3XL.;X                                            ",
"                                                                    1X;X+XE.E.+X;X1X                                            ",
"                                                                                                                                ",
"                                                                        R.. . R.                                                ",
"                                                                        ).R.R.).                                                ",
"                                                                                                                                ",
"                                                                                                                                ",
"                                                                                                                                "
};
