/* XPM */
static char *result[] = {
/* columns rows colors chars-per-pixel */
"64 64 226 2 ",
"   c #4C2F49",
".  c #4B2E49",
"X  c #4A2E49",
"o  c #4A2D49",
"O  c #4C2F4A",
"+  c #4D2F4B",
"@  c #472B43",
"#  c #3E2538",
"$  c #331D2B",
"%  c #2A1720",
"&  c #25131A",
"*  c #241218",
"=  c #241219",
"-  c #4D304A",
";  c #4D304B",
":  c #4D2F49",
">  c #4E3049",
",  c #4F3149",
"<  c #503249",
"1  c #513349",
"2  c #523349",
"3  c #52334A",
"4  c #52344A",
"5  c #50324A",
"6  c #4F314B",
"7  c #533549",
"8  c #563749",
"9  c #583949",
"0  c #5A3A4A",
"q  c #5B3A4A",
"w  c #5B3B4B",
"e  c #5C3B4B",
"r  c #5A3A49",
"t  c #54364A",
"y  c #4D3049",
"u  c #3D2438",
"i  c #593948",
"p  c #5E3D48",
"a  c #624049",
"s  c #64424A",
"d  c #65434B",
"f  c #66434C",
"g  c #67444D",
"h  c #68444D",
"j  c #67444C",
"k  c #66434B",
"l  c #614049",
"z  c #55364A",
"x  c #654348",
"c  c #6A4749",
"v  c #6D494A",
"b  c #704B4C",
"n  c #714C4D",
"m  c #724C4E",
"M  c #664349",
"N  c #5F3E4A",
"B  c #58384A",
"V  c #583848",
"C  c #613F48",
"Z  c #694648",
"A  c #6F4B49",
"S  c #734D4B",
"D  c #754F4C",
"F  c #77504E",
"G  c #78514F",
"H  c #77504F",
"J  c #76504E",
"K  c #764F4D",
"L  c #734E4B",
"P  c #704B4A",
"I  c #6B4749",
"U  c #63414A",
"Y  c #5A3A4B",
"T  c #503349",
"R  c #3C2438",
"E  c #321D2B",
"W  c #583948",
"Q  c #614048",
"!  c #6A4748",
"~  c #704C49",
"^  c #744F4B",
"/  c #77504D",
"(  c #78514E",
")  c #79524F",
"_  c #76504D",
"`  c #764F4C",
"'  c #76504C",
"]  c #754F4B",
"[  c #6E4A4B",
"{  c #321C2B",
"}  c #704B49",
"|  c #744E4B",
" . c #79514F",
".. c #77514E",
"X. c #5D3C4C",
"o. c #6A4648",
"O. c #754F4D",
"+. c #714C4A",
"@. c #714C4E",
"#. c #68454E",
"$. c #5D3C4D",
"%. c #704C4A",
"&. c #744E4C",
"*. c #6E4A48",
"=. c #6D4A48",
"-. c #724D4E",
";. c #69464E",
":. c #5E3D4D",
">. c #59394A",
",. c #6D494B",
"<. c #724D4B",
"1. c #744F4C",
"2. c #734E4C",
"3. c #6F4A48",
"4. c #6D4947",
"5. c #734D4F",
"6. c #6A464F",
"7. c #6F4A4C",
"8. c #714B4D",
"9. c #724D4A",
"0. c #6F4B48",
"q. c #5C3C4C",
"w. c #64414A",
"e. c #593949",
"r. c #704C48",
"t. c #704B48",
"y. c #472C43",
"u. c #624048",
"i. c #5B3A4B",
"p. c #583849",
"a. c #62414A",
"s. c #5E3D49",
"d. c #6B4748",
"f. c #5F3E49",
"g. c #573849",
"h. c #4E3147",
"j. c #452A41",
"k. c #3B2337",
"l. c #2A1620",
"z. c #4F3249",
"x. c #543549",
"c. c #634149",
"v. c #5E3E48",
"b. c #593A48",
"n. c #523448",
"m. c #4B2E45",
"M. c #43293F",
"N. c #3A2235",
"B. c #311C2A",
"V. c #291620",
"C. c #4E3149",
"Z. c #593A49",
"A. c #563748",
"S. c #523447",
"D. c #4C3046",
"F. c #462B42",
"G. c #3F263C",
"H. c #372133",
"J. c #301B28",
"K. c #29161F",
"L. c #4B2F45",
"P. c #41283E",
"I. c #3B2438",
"U. c #351F30",
"Y. c #2E1A26",
"T. c #28161F",
"R. c #4A2E47",
"E. c #4B2E48",
"W. c #482C45",
"Q. c #452A42",
"!. c #41273E",
"~. c #3C2439",
"^. c #2C1824",
"/. c #28151E",
"(. c #241319",
"). c #472C45",
"_. c #472B45",
"`. c #462B45",
"'. c #472B46",
"]. c #432942",
"[. c #3F263D",
"{. c #3A2337",
"}. c #361F31",
"|. c #311C2B",
" X c #2D1926",
".X c #2A1721",
"XX c #27141D",
"oX c #251319",
"OX c #432941",
"+X c #422941",
"@X c #422841",
"#X c #40263D",
"$X c #351F2F",
"%X c #2F1B28",
"&X c #2C1823",
"*X c #27151D",
"=X c #26141B",
"-X c #3F273E",
";X c #40273E",
":X c #372032",
">X c #2B1823",
",X c #26141C",
"<X c #26131B",
"1X c #3A2336",
"2X c #382133",
"3X c #341E2E",
"4X c #2F1A28",
"5X c #2B1722",
"6X c #27141C",
"7X c #25131B",
"8X c #341E2F",
"9X c #331D2D",
"0X c #301B29",
"qX c #2D1925",
"wX c #2E1A27",
"eX c #321D2C",
"rX c #28151F",
"tX c #3A2236",
"yX c #231218",
"uX c #2F1A27",
"iX c #351F31",
"pX c #362031",
"aX c #3B2338",
"sX c #372033",
"dX c #2D1924",
"fX c white",
/* pixels */
"      . . X o o o o o o o o o o o o o o o o . O +   @ # $ % & * = & & & & & & & & & & & & & & & & & & & & & & & & & & & & & & & ",
"                                              - ;   @ # $ % & * = & & & & & & & & & & & & & & & & & & & & & & & & & & & & & & & ",
"    : > , < 1 1 2 3 4 4 4 4 4 4 4 4 4 2 1 1 < 5 6   @ # $ % & * = & & & & & & & & & & & & & & & & & & & & & & & & & & & & & & & ",
".   > < 7 8 9 0 q w e e e e e e e e w q r 9 8 t 3 y @ u $ % & * = & & & & & & & & & & & & & & & & & & & & & & & & & & & & & & & ",
".   , 7 i p a s d f g h h g h h h g j k s l p 0 z , @ u $ % & * = & & & & & & & & & & & & & & & & & & & & & & & & & & & & & & & ",
"X   < 8 p x c v b n m m m m m m m m n b v c M N B < @ u $ % & * = & & & & & & & & & & & & & & & & & & & & & & & & & & & & & & & ",
"X   1 V C Z A S D F G G H F J F F J K D L P I U Y T @ R E % & * = & & & & & & & & & & & & & & & & & & & & & & & & & & & & & & & ",
"o   1 W Q ! ~ ^ / ( ) ) ( _ _ _ _ _ ` ' ] L [ k e 1 @ R { % & * = & & & & & & & & & & & & & & & & & & & & & & & & & & & & & & & ",
"o   1 W Q ! } | / (  ...K | S S S S L ] ' D b j X.1 @ R { % & * = & & & & & & & & & & & & & & & & & & & & & & & & & & & & & & & ",
"o   1 V Q o.A L K F F O.S +.} A A } +.L ` K @.#.$.2 @ R { % & * = & & & & & & & & & & & & & & & & & & & & & & & & & & & & & & & ",
"o   1 9 a I %.| D K O.&.+.A *.=.=.*.} S _ J -.;.:.3 @ R { % & * = & & & & & & & & & & & & & & & & & & & & & & & & & & & & & & & ",
"o   1 >.U ,.<.1.D &.2.<.%.3.*.4.4.*.A S _ F 5.6.:.4 @ R { % & * = & & & & & & & & & & & & & & & & & & & & & & & & & & & & & & & ",
"o   3 0 d 7.&.D &.<.+.} A *.*.=.4.*.A L _ F 5.6.:.4 @ R { % & * = & & & & & & & & & & & & & & & & & & & & & & & & & & & & & & & ",
"o   3 w j 8.O.D L +.A 3.*.*.*.*.*.*.} S _ J m ;.:.3 @ R { % & * = & & & & & & & & & & & & & & & & & & & & & & & & & & & & & & & ",
"o   4 w j 8.O.D 9.A *.*.*.*.*.*.*.*.A 9.D O.@.#.$.2 @ R { % & * = & & & & & & & & & & & & & & & & & & & & & & & & & & & & & & & ",
"o   3 q d 7.&.| +.0.*.*.*.*.*.*.*.*.A +.L 2.7.g q.1 @ R { % & * = & & & & & & & & & & & & & & & & & & & & & & & & & & & & & & & ",
"o   1 0 w.v +.9.~ *.*.*.*.*.*.*.*.*.3.~ 9.+.,.d w 1 @ R { % & * = & & & & & & & & & & & & & & & & & & & & & & & & & & & & & & & ",
"o   1 e.a c A ~ 0.*.*.*.*.*.*.*.*.*.*.0.~ A I U Y 1 @ R E % & * = & & & & & & & & & & & & & & & & & & & & & & & & & & & & & & & ",
"o   1 9 Q Z *.0.0.*.*.*.*.*.*.*.*.*.*.0.0.*.! U 0 T @ u E % & * = & & & & & & & & & & & & & & & & & & & & & & & & & & & & & & & ",
"o   1 9 Q ! *.r.t.0.0.0.0.0.0.0.0.0.0.t.r.*.! U 0 1 y.u $ % & * = & & & & & & & & & & & & & & & & & & & & & & & & & & & & & & & ",
"o   1 9 u.! 0.r.r.0.0.0.0.0.0.0.0.0.0.r.r.0.! U i.1 y.u $ % & * = & & & & & & & & & & & & & & & & & & & & & & & & & & & & & & & ",
"X   1 p.Q Z *.0.0.*.*.*.*.*.*.*.*.*.*.0.0.*.Z a.0 < @ R E % & * = & & & & & & & & & & & & & & & & & & & & & & & & & & & & & & & ",
"X   < 8 s.x Z d.! ! Z Z Z Z Z Z Z Z ! ! d.Z x f.g.h.j.k.{ l.& * = & & & & & & & & & & & & & & & & & & & & & & & & & & & & & & & ",
". : z.x.r f.a c.c.a a a a a a a a a a c.c.a v.b.n.m.M.N.B.V.& * = & & & & & & & & & & & & & & & & & & & & & & & & & & & & & & & ",
"O : C.1 x.g.e.Z.e.e.e.e.e.e.e.e.e.e.e.r r e.A.S.D.F.G.H.J.K.& = = & & & & & & & & & & & & & & & & & & & & & & & & & & & & & & & ",
"    : > , < T 1 1 1 1 1 1 1 1 1 1 1 1 1 1 T h.L.F.P.I.U.Y.T.& = = & & & & & & & & & & & & & & & & & & & & & & & & & & & & & & & ",
"R.R.R.R.R.R.R.R.R.R.R.R.R.R.R.R.R.R.R.E.E.R.W.Q.!.~.H.{ ^./.& = (.& & & & & & & & & & & & & & & & & & & & & & & & & & & & & & & ",
").).)._.`.`.`.`.`.`.`.`.`.`.`.`.`.`.`.`.'.`.].[.{.}.|. X.XXX& oXoX& & & & & & & & & & & & & & & & & & & & & & & & & & & & & & & ",
"OXOXOXOXOXOX+X+X+X+X+X+X+X+X+X+X+X+XOX].].@X#Xk.$X%X&XV.*X=X& & & & & & & & & & & & & & & & & & & & & & & & & & & & & & & & & & ",
"[.[.[.[.[.[.[.[.[.[.[.[.[.[.[.[.[.[.[.-X;X[.~.:XB.>X/.,X<X& & & & & & & & & & & & & & & & & & & & & & & & & & & & & & & & & & & ",
"{.{.{.{.{.{.{.{.{.{.{.{.{.{.{.{.{.{.{.{.{.1X2X3X4X5X/.6X=X7X& & & & & & & & & & & & & & & & & & & & & & & & & & & & & & & & & & ",
"3X3X3X3X3X3X3X3X3X3X3X3X3X3X3X3X3X3X3X8X8X3X9X|.0XY.&X.X/.=X& & & & & & & & & & & & & & & & & & & & & & & & & & & & & & & & & & ",
" X X X X X X X X X X X X X X X X X X XqXqX XwX0XeX9X{ wX5XXX& (.oX& & & & & & & & & & & & & & & & & & & & & & & & & & & & & & & ",
"/././././././././././././././././././././.rX5X%X8XH.:X9XqX/.& = (.& & & & & & & & & & & & & & & & & & & & & & & & & & & & & & & ",
"& & & & & & & & & & & & & & & & & & & oX= & T.wXU.tXtXU.wXrX& = (.& & & & & & & & & & & & & & & & & & & & & & & & & & & & & & & ",
"= = = = = = = = = = = = = = = = = = = yXyX= /.wXU.{.{.}.uXT.& = (.& & & & & & & & & & & & & & & & & & & & & & & & & & & & & & & ",
"(.(.(.(.(.(.(.(.(.(.(.(.(.(.(.(.(.(.= * yXoX/.wXU.{.{.}.uXT.& = (.& & & & & & & & & & & & & & & & & & & & & & & & & & & & & & & ",
"& & & & & & & & & & & & & & & & & & & = = & /.wXU.1X{.U.wXT.& = (.& & & & & & & & & & & & & & & & & & & & & & & & & & & & & & & ",
"& & & & & & & & & & & & & & & & & & & (.= & T.wXU.{.{.U.wXT.& = (.& & & & & & & & & & & & & & & & & & & & & & & & & & & & & & & ",
"& & & & & & & & & & & & & & & & & & & (.= & T.uXiX{.{.iXuXT.& = (.& & & & & & & & & & & & & & & & & & & & & & & & & & & & & & & ",
"& & & & & & & & & & & & & & & & & & & (.= & T.uX}.{.{.}.uXT.& = (.& & & & & & & & & & & & & & & & & & & & & & & & & & & & & & & ",
"& & & & & & & & & & & & & & & & & & & (.= & rXwXU.tXtXU.wXrX& = (.& & & & & & & & & & & & & & & & & & & & & & & & & & & & & & & ",
"& & & & & & & & & & & & & & & & & & & (.= & /.qX9X:X:X9XqX/.& = (.& & & & & & & & & & & & & & & & & & & & & & & & & & & & & & & ",
"& & & & & & & & & & & & & & & & & & & oX(.& *X5XuX{ { uX5X*X& (.oX& & & & & & & & & & & & & & & & & & & & & & & & & & & & & & & ",
"& & & & & & & & & & & & & & & & & & & & & & ,X/..X&X&X.X/.,X& & & & & & & & & & & & & & & & & & & & & & & & & & & & & & & & & & ",
"& & & & & & & & & & & & & & & & & & & & & & 7X,X*X/./.*X,X7X& & & & & & & & & & & & & & & & & & & & & & & & & & & & & & & & & & ",
"& & & & & & & & & & & & & & & & & & & & & & 7X,X*X/./.*X,X7X& & & & & & & & & & & & & & & & & & & & & & & & & & & & & & & & & & ",
"& & & & & & & & & & & & & & & & & & & & & & ,X/..X&X&X.X/.,X& & & & & & & & & & & & & & & & & & & & & & & & & & & & & & & & & & ",
"& & & & & & & & & & & & & & & & & & & oX(.& *X5XuX{ { uX5X*X& (.oX& & & & & & & & & & & & & & & & & & & & & & & & & & & & & & & ",
"& & & & & & & & & & & & & & & & & & & (.= & /.qX9X:X:X9XqX/.& = (.& & & & & & & & & & & & & & & & & & & & & & & & & & & & & & & ",
"& & & & & & & & & & & & & & & & & & & (.= & T.wXU.tXtXU.wXT.& = (.& & & & & & & & & & & & & & & & & & & & & & & & & & & & & & & ",
"& & & & & & & & & & & & & & & & & & & = = & K.4XpXaXaXpX4XK.& = = & & & & & & & & & & & & & & & & & & & & & & & & & & & & & & & ",
"& & & & & & & & & & & & & & & & & & & = = & K.4XpXaXaXpX4XK.& = = & & & & & & & & & & & & & & & & & & & & & & & & & & & & & & & ",
"& & & & & & & & & & & & & & & & & & & (.= & T.wXU.tXtXU.wXT.& = (.& & & & & & & & & & & & & & & & & & & & & & & & & & & & & & & ",
"& & & & & & & & & & & & & & & & & & & (.= & /.qX9XsXsX9XqX/.& = (.& & & & & & & & & & & & & & & & & & & & & & & & & & & & & & & ",
"& & & & & & & & & & & & & & & & & & & oX(.& *X5X%XeXeX%X5X*X& (.oX& & & & & & & & & & & & & & & & & & & & & & & & & & & & & & & ",
"& & & & & & & & & & & & & & & & & & & & & & ,XT.5XdXdX5XT.,X& & & & & & & & & & & & & & & & & & & & & & & & & & & & & & & & & & ",
"& & & & & & & & & & & & & & & & & & & & & & 7X,X*X/./.*X,X7X& & & & & & & & & & & & & & & & & & & & & & & & & & & & & & & & & & ",
"& & & & & & & & & & & & & & & & & & & & & & & & & & & & & & & & & & & & & & & & & & & & & & & & & & & & & & & & & & & & & & & & ",
"& & & & & & & & & & & & & & & & & & & & & & & & (.= = (.& & & & & & & & & & & & & & & & & & & & & & & & & & & & & & & & & & & & ",
"& & & & & & & & & & & & & & & & & & & & & & & & oX(.(.oX& & & & & & & & & & & & & & & & & & & & & & & & & & & & & & & & & & & & ",
"& & & & & & & & & & & & & & & & & & & & & & & & & & & & & & & & & & & & & & & & & & & & & & & & & & & & & & & & & & & & & & & & ",
"& & & & & & & & & & & & & & & & & & & & & & & & & & & & & & & & & & & & & & & & & & & & & & & & & & & & & & & & & & & & & & & & ",
"& & & & & & & & & & & & & & & & & & & & & & & & & & & & & & & & & & & & & & & & & & & & & & & & & & & & & & & & & & & & & & & & "
};
