/* XPM */
static char *result[] = {
/* columns rows colors chars-per-pixel */
"64 64 206 2 ",
"   c #4C2F49",
".  c #4B2E49",
"X  c #4A2E49",
"o  c #4A2D49",
"O  c #492D49",
"+  c #4B2E4A",
"@  c #4B2E4B",
"#  c #492D48",
"$  c #442942",
"%  c #3B2337",
"&  c #311C29",
"*  c #28151E",
"=  c #231218",
"-  c #221117",
";  c #251319",
":  c #25131A",
">  c #4D304A",
",  c #4E304B",
"<  c #472B43",
"1  c #3E2538",
"2  c #341D2B",
"3  c #2A1721",
"4  c #241219",
"5  c #4D3049",
"6  c #4E3149",
"7  c #50324A",
"8  c #51334A",
"9  c #52344A",
"0  c #513349",
"q  c #53344B",
"w  c #523349",
"e  c #4D3044",
"r  c #44293B",
"t  c #392230",
"y  c #301B26",
"u  c #2A1620",
"i  c #27141D",
"p  c #26141B",
"a  c #26131B",
"s  c #56364A",
"d  c #59394B",
"f  c #5C3B4B",
"g  c #5C3C4B",
"h  c #5B3B4B",
"j  c #5A3A4A",
"k  c #59394A",
"l  c #593949",
"z  c #563747",
"x  c #4D3040",
"c  c #422837",
"v  c #38212F",
"b  c #2C1823",
"n  c #29161F",
"m  c #27141C",
"M  c #5D3C4B",
"N  c #63414C",
"B  c #67444D",
"V  c #68454D",
"C  c #68444D",
"Z  c #67444C",
"A  c #65424B",
"S  c #63414A",
"D  c #624049",
"F  c #64424A",
"G  c #66444C",
"H  c #66434C",
"J  c #62404A",
"K  c #593946",
"L  c #4E3140",
"P  c #43293A",
"I  c #3A2233",
"U  c #331D2C",
"Y  c #2D1824",
"T  c #241218",
"R  c #6D484D",
"E  c #724C4E",
"W  c #734D4E",
"Q  c #714B4D",
"!  c #6E4A4C",
"~  c #6C484A",
"^  c #6A4749",
"/  c #6B4749",
"(  c #6D494A",
")  c #704B4C",
"_  c #704B4D",
"`  c #6C484D",
"'  c #63414B",
"]  c #583848",
"[  c #4C2F44",
"{  c #42283D",
"}  c #392133",
"|  c #301B29",
" . c #77514F",
".. c #79524F",
"X. c #78514F",
"o. c #77504E",
"O. c #76504E",
"+. c #754F4D",
"@. c #734E4C",
"#. c #714C4A",
"$. c #6F4B49",
"%. c #724D4A",
"&. c #754F4C",
"*. c #714C4D",
"=. c #68454E",
"-. c #5D3C4C",
";. c #472B42",
":. c #3C2337",
">. c #321C2B",
",. c #2A1720",
"<. c #231117",
"1. c #7A534E",
"2. c #78524E",
"3. c #77504D",
"4. c #76504D",
"5. c #734E4B",
"6. c #714D4A",
"7. c #704C49",
"8. c #754F4B",
"9. c #5E3D4D",
"0. c #482C44",
"q. c #3D2439",
"w. c #744E4B",
"e. c #734D4B",
"r. c #6F4B48",
"t. c #704B48",
"y. c #714C49",
"u. c #734D4A",
"i. c #6E4A4B",
"p. c #5C3C4C",
"a. c #704B49",
"s. c #6F4A48",
"d. c #6E4A48",
"f. c #5B3A4B",
"g. c #3D2438",
"h. c #321D2B",
"j. c #6A4748",
"k. c #503249",
"l. c #6D4947",
"z. c #6D4A48",
"x. c #694648",
"c. c #624149",
"v. c #6A4648",
"b. c #503349",
"n. c #78514E",
"m. c #704C48",
"M. c #3C2438",
"N. c #77514D",
"B. c #744F4B",
"V. c #6B4748",
"C. c #764F4D",
"Z. c #62414A",
"A. c #5A3A4B",
"S. c #64414C",
"D. c #6E494A",
"F. c #664348",
"G. c #603F4A",
"H. c #58394A",
"J. c #331D2B",
"K. c #56374A",
"L. c #64424C",
"P. c #67444B",
"I. c #65424A",
"U. c #634149",
"Y. c #624048",
"T. c #614048",
"R. c #624148",
"E. c #5F3E49",
"W. c #5B3B4A",
"Q. c #55364A",
"!. c #4F3149",
"~. c #52334A",
"^. c #583949",
"/. c #573849",
"(. c #52344B",
"). c #4F314B",
"_. c #4D304B",
"`. c #4C2F4A",
"'. c #4D2F4B",
"]. c #4B2F49",
"[. c #4B2F4A",
"{. c #4C2F4B",
"}. c #51334B",
"|. c #50324B",
" X c #4D2F49",
".X c #58384C",
"XX c #53354C",
"oX c #69454D",
"OX c #66434B",
"+X c #65424D",
"@X c #5F3E4D",
"#X c #724D4E",
"$X c #6F4A4C",
"%X c #6D494E",
"&X c #65434E",
"*X c #5C3B4D",
"=X c #714C4E",
"-X c #5D3C4D",
";X c #6E494B",
":X c #6D484E",
">X c #65424E",
",X c #5B3B4D",
"<X c #64414D",
"1X c #5F3D4D",
"2X c #57384C",
"3X c white",
/* pixels */
"      . X o o O O o o o o o o o o o X + @ # $ % & * = - = ; : : : : ; = - = * & % $ # @ + X o o o o o o o o o O O o o X .       ",
"                                      > ,   < 1 2 3 : 4 4 : : : : : : 4 4 : 3 2 1 <   , >                                       ",
"    5 6 7 8 9 9 9 9 9 9 9 9 9 0 0 0 0 9 q w e r t y u i p a : : : : a p i u y t r e w q 9 0 0 0 0 9 9 9 9 9 9 9 9 9 8 7 6 5     ",
".   6 8 s d f g f f f f f f h j k l l j f h z x c v & b n m : 4 4 : m n b & v c x z h f j l l k j h f f f f f f g f d s 8 6   . ",
"X   7 s M N B V V C C C C B Z A S D D F G H J K L P I U Y * : T T : * Y U I P L K J H G F D D S A Z B C C C C V V B N M s 7   X ",
"o   8 d N R E W W E E E E E Q ! ~ ^ / ( ) _ ` ' ] [ { } | n : = = : n | } { [ ] ' ` _ ) ( / ^ ~ ! Q E E E E E W W E R N d 8   o ",
"o   9 f B E  ...X.o.O.o.o.O.+.@.#.$.$.%.&.+.*.=.-.0 ;.:.>.,.: <.<.: ,.>.:.;.0 -.=.*.+.&.%.$.$.#.@.+.O.o.o.O.o.X... .E B f 9   o ",
"O   9 g V W ..1.2.3.4.4.4.4.&.5.6.7.7.%.8.&.Q V 9.q 0.q.U 3 : <.<.: 3 U q.0.q 9.V Q &.8.%.7.7.6.5.&.4.4.4.4.3.2.1...W V g 9   O ",
"O   9 f V W X.2.4.w.e.e.e.e.%.#.7.r.t.y.u.%.i.H p.9 0.q.U ,.: <.<.: ,.U q.0.9 p.H i.%.u.y.t.r.7.#.%.e.e.e.e.w.4.2.X.W V f 9   O ",
"o   9 f C E o.3.w.#.a.$.$.$.$.$.s.d.s.t.7.$./ F f.0 < g.h.,.: <.<.: ,.h.g.< 0 f.F / $.7.t.s.d.s.$.$.$.$.$.a.#.w.3.o.E C f 9   o ",
"o   9 f C E O.4.e.a.d.d.d.d.d.d.d.d.d.r.r.d.j.S j k.< g.h.,.: <.<.: ,.h.g.< k.j S j.d.r.r.d.d.d.d.d.d.d.d.d.a.e.4.O.E C f 9   o ",
"o   9 f C E O.4.e.$.d.l.z.d.d.d.d.d.d.r.r.d.x.c.j k.< g.h.,.: <.<.: ,.h.g.< k.j c.x.d.r.r.d.d.d.d.d.d.z.l.d.$.e.4.O.E C f 9   o ",
"o   9 f C E O.4.e.$.d.z.z.d.d.d.d.d.d.r.r.d.x.c.j k.< g.h.,.: <.<.: ,.h.g.< k.j c.x.d.r.r.d.d.d.d.d.d.z.z.d.$.e.4.O.E C f 9   o ",
"o   9 f C E O.4.e.a.d.d.d.d.d.d.d.d.d.r.r.d.v.S j k.< g.h.,.: <.<.: ,.h.g.< k.j S v.d.r.r.d.d.d.d.d.d.d.d.d.a.e.4.O.E C f 9   o ",
"o   9 f C E O.4.e.a.d.d.d.d.d.d.d.d.d.r.r.d.v.S j k.< g.h.,.: <.<.: ,.h.g.< k.j S v.d.r.r.d.d.d.d.d.d.d.d.d.a.e.4.O.E C f 9   o ",
"o   9 f C E O.4.e.a.d.d.d.d.d.d.d.d.d.r.r.d.v.S j k.< g.h.,.: <.<.: ,.h.g.< k.j S v.d.r.r.d.d.d.d.d.d.d.d.d.a.e.4.O.E C f 9   o ",
"o   9 f C E O.4.e.a.d.d.d.d.d.d.d.d.d.r.r.d.v.S j k.< g.h.,.: <.<.: ,.h.g.< k.j S v.d.r.r.d.d.d.d.d.d.d.d.d.a.e.4.O.E C f 9   o ",
"o   9 f C E O.4.e.a.d.d.d.d.d.d.d.d.d.r.r.d.v.S j k.< g.h.,.: <.<.: ,.h.g.< k.j S v.d.r.r.d.d.d.d.d.d.d.d.d.a.e.4.O.E C f 9   o ",
"o   9 f C E O.4.e.a.d.d.d.d.d.d.d.d.d.r.r.d.v.S j k.< g.h.,.: <.<.: ,.h.g.< k.j S v.d.r.r.d.d.d.d.d.d.d.d.d.a.e.4.O.E C f 9   o ",
"o   9 f C E O.4.e.a.d.d.d.d.d.d.d.d.d.r.r.d.v.S j k.< g.h.,.: <.<.: ,.h.g.< k.j S v.d.r.r.d.d.d.d.d.d.d.d.d.a.e.4.O.E C f 9   o ",
"o   9 f C E O.4.e.a.d.d.d.d.d.d.d.d.d.r.r.d.v.S j k.< g.h.,.: <.<.: ,.h.g.< k.j S v.d.r.r.d.d.d.d.d.d.d.d.d.a.e.4.O.E C f 9   o ",
"o   9 f C E O.4.e.a.d.d.d.d.d.d.d.d.d.r.r.d.v.S j k.< g.h.,.: <.<.: ,.h.g.< k.j S v.d.r.r.d.d.d.d.d.d.d.d.d.a.e.4.O.E C f 9   o ",
"o   9 f C E o.4.5.a.d.d.d.d.d.d.d.d.d.r.r.d.j.S j b.< g.h.,.: <.<.: ,.h.g.< b.j S j.d.r.r.d.d.d.d.d.d.d.d.d.a.5.4.o.E C f 9   o ",
"O   9 g V W n.3.w.7.r.s.r.r.r.r.r.r.r.t.m.r.j.S j b.< M.h.,.: <.<.: ,.h.M.< b.j S j.r.m.t.r.r.r.r.r.r.r.s.r.7.w.3.n.W V g 9   O ",
"O   9 g V W n.N.B.y.r.r.r.r.r.r.r.r.r.m.m.r.V.S j 0 < M.h.,.: <.<.: ,.h.M.< 0 j S V.r.m.m.r.r.r.r.r.r.r.r.r.y.B.N.n.W V g 9   O ",
"o   9 f B E O.C.e.$.d.z.d.d.d.d.d.d.d.r.r.d.x.Z.j k.< g.h.,.: <.<.: ,.h.g.< k.j Z.x.d.r.r.d.d.d.d.d.d.d.z.d.$.e.C.O.E B f 9   o ",
"o   8 A.S.R Q ) D./ x.x.x.x.x.x.x.x.v.j.j.x.F.G.H.k.< g.J.,.: <.<.: ,.J.g.< k.H.G.F.x.j.j.v.x.x.x.x.x.x.x.x./ D.) Q R S.A.8   o ",
"X   7 K.-.L.Z P.I.U.Y.T.T.Y.Y.Y.Y.Y.Y.R.R.T.E.W.Q.!.< g.J.,.: <.<.: ,.J.g.< !.Q.W.E.T.R.R.Y.Y.Y.Y.Y.Y.T.T.Y.U.I.P.Z L.-.K.7   X ",
".   6 ~.K.A.f W.j l ^.^.^.^.^.^.^.^.l l l ^./.Q.(.5 < g.J.,.: <.<.: ,.J.g.< 5 (.Q./.^.l l l ^.^.^.^.^.^.^.^.l j W.f A.K.~.6   . ",
"    5 6 7 8 ~.w 0 0 0 0 0 0 0 0 0 0 0 0 0 0 k.7 ).  < 1 J.,.: <.<.: ,.J.1 <   ).7 k.0 0 0 0 0 0 0 0 0 0 0 0 0 0 w ~.8 7 6 5     ",
"                                              > _.  < 1 J.,.: <.<.: ,.J.1 <   _.>                                               ",
"      . X o O O O o o o o o o o o o o o o o X `.'.].< 1 J.,.: <.<.: ,.J.1 < ].'.`.X o o o o o o o o o o o o o O O O o X .       ",
"      . X o O O O o o o o o o o o o o o o o o [.{.].< 1 J.,.: <.<.: ,.J.1 < ].{.[.o o o o o o o o o o o o o o O O O o X .       ",
"                                              > _.  < 1 J.,.: <.<.: ,.J.1 <   _.>                                               ",
"    5 6 k.8 9 9 9 9 9 9 9 9 ~.0 0 0 0 0 w ~.8 }.|. X< 1 J.,.: <.<.: ,.J.1 <  X|.}.8 ~.w 0 0 0 0 0 ~.9 9 9 9 9 9 9 9 8 k.6 5     ",
".   6 ~.K.A.f M M g g g M g f W.j l l j W.f A..XXX6 < g.J.,.: <.<.: ,.J.g.< 6 XX.XA.f W.j l l j W.f g M g g g M M f A.K.~.6   . ",
"X   7 K.M L.C oXoXV V V V V Z OXF c.U.I.P.Z +X@X.Xk.< g.J.,.: <.<.: ,.J.g.< k..X@X+XZ P.I.U.c.F OXZ V V V V V oXoXC L.M K.7   X ",
"o   8 d S.R E W W #XE #X#XE *.$X~ / / ( ) Q %X&X*X0 < M.>.,.: <.<.: ,.>.M.< 0 *X&X%XQ ) ( / / ~ $X*.E #X#XE #XW W E R S.d 8   o ",
"o   9 f B E  ...X.o.O.o.o.O.+.@.#.$.$.%.&.+.=X=.-Xw < M.>.,.: <.<.: ,.>.M.< w -X=.=X+.&.%.$.$.#.@.+.O.o.o.O.o.X... .E B f 9   o ",
"O   9 g V W ..1.2.3.4.4.4.4.&.5.6.7.7.u.8.&.) V -.0 < M.>.,.: <.<.: ,.>.M.< 0 -.V ) &.8.u.7.7.6.5.&.4.4.4.4.3.2.1...W V g 9   O ",
"O   9 f V W X.2.4.w.e.e.e.e.%.#.7.r.t.y.u.%.;XOXf 0 < M.>.,.: <.<.: ,.>.M.< 0 f OX;X%.u.y.t.r.7.#.%.e.e.e.e.w.4.2.X.W V f 9   O ",
"o   9 f C E o.3.w.#.a.$.$.$.$.$.s.d.s.t.7.$./ F A.0 < M.h.,.: <.<.: ,.h.M.< 0 A.F / $.7.t.s.d.s.$.$.$.$.$.a.#.w.3.o.E C f 9   o ",
"o   9 f C E O.4.e.a.d.d.d.d.d.d.d.d.d.r.r.d.j.S j k.< g.h.,.: <.<.: ,.h.g.< k.j S j.d.r.r.d.d.d.d.d.d.d.d.d.a.e.4.O.E C f 9   o ",
"o   9 f C E O.4.e.$.d.l.z.d.d.d.d.d.d.r.r.d.x.c.j k.< g.h.,.: <.<.: ,.h.g.< k.j c.x.d.r.r.d.d.d.d.d.d.z.l.d.$.e.4.O.E C f 9   o ",
"o   9 f C E O.4.e.$.d.z.z.d.d.d.d.d.d.r.r.d.x.c.j k.< g.h.,.: <.<.: ,.h.g.< k.j c.x.d.r.r.d.d.d.d.d.d.z.z.d.$.e.4.O.E C f 9   o ",
"o   9 f C E O.4.e.a.d.d.d.d.d.d.d.d.d.r.r.d.v.S j k.< g.h.,.: <.<.: ,.h.g.< k.j S v.d.r.r.d.d.d.d.d.d.d.d.d.a.e.4.O.E C f 9   o ",
"o   9 f C E O.4.e.a.d.d.d.d.d.d.d.d.d.r.r.d.v.S j k.< g.h.,.: <.<.: ,.h.g.< k.j S v.d.r.r.d.d.d.d.d.d.d.d.d.a.e.4.O.E C f 9   o ",
"o   9 f C E O.4.e.a.d.d.d.d.d.d.d.d.d.r.r.d.v.S j k.< g.h.,.: <.<.: ,.h.g.< k.j S v.d.r.r.d.d.d.d.d.d.d.d.d.a.e.4.O.E C f 9   o ",
"o   9 f C E O.4.e.a.d.d.d.d.d.d.d.d.d.r.r.d.v.S j k.< g.h.,.: <.<.: ,.h.g.< k.j S v.d.r.r.d.d.d.d.d.d.d.d.d.a.e.4.O.E C f 9   o ",
"o   9 f C E O.4.e.a.d.d.d.d.d.d.d.d.d.r.r.d.v.S j k.< g.h.,.: <.<.: ,.h.g.< k.j S v.d.r.r.d.d.d.d.d.d.d.d.d.a.e.4.O.E C f 9   o ",
"o   9 f C E O.4.e.a.d.d.d.d.d.d.d.d.d.r.r.d.v.S j k.< g.h.,.: <.<.: ,.h.g.< k.j S v.d.r.r.d.d.d.d.d.d.d.d.d.a.e.4.O.E C f 9   o ",
"o   9 f C E O.4.e.$.d.z.z.d.d.d.d.d.d.r.r.d.x.c.j k.< g.h.,.: <.<.: ,.h.g.< k.j c.x.d.r.r.d.d.d.d.d.d.z.z.d.$.e.4.O.E C f 9   o ",
"o   9 f C E O.4.e.$.d.l.z.d.d.d.d.d.d.r.r.d.x.c.j k.< g.h.,.: <.<.: ,.h.g.< k.j c.x.d.r.r.d.d.d.d.d.d.z.l.d.$.e.4.O.E C f 9   o ",
"o   9 f C E O.4.e.a.d.d.d.d.d.d.d.d.d.r.r.d.j.S j k.< g.h.,.: <.<.: ,.h.g.< k.j S j.d.r.r.d.d.d.d.d.d.d.d.d.a.e.4.O.E C f 9   o ",
"o   9 f C E o.3.w.#.a.$.$.$.$.$.s.d.s.t.7.$./ F A.0 < M.h.,.: <.<.: ,.h.M.< 0 A.F / $.7.t.s.d.s.$.$.$.$.$.a.#.w.3.o.E C f 9   o ",
"O   9 f V W X.2.4.w.e.e.e.e.%.#.7.r.t.y.u.%.;XOXf 0 < M.>.,.: <.<.: ,.>.M.< 0 f OX;X%.u.y.t.r.7.#.%.e.e.e.e.w.4.2.X.W V f 9   O ",
"O   9 g V W ..1.2.3.4.4.4.4.&.5.6.7.7.u.8.&.) V -.0 < M.>.,.: <.<.: ,.>.M.< 0 -.V ) &.8.u.7.7.6.5.&.4.4.4.4.3.2.1...W V g 9   O ",
"o   9 f B E  ...X.o.O.o.o.O.+.@.#.$.$.%.&.+.=X=.-Xw < M.>.,.: <.<.: ,.>.M.< w -X=.=X+.&.%.$.$.#.@.+.O.o.o.O.o.X... .E B f 9   o ",
"o   8 d N R E W W E E E E E Q ! ~ ^ / ( ) _ :X>X,X0 < M.>.,.: <.<.: ,.>.M.< 0 ,X>X:X_ ) ( / ^ ~ ! Q E E E E E W W E R N d 8   o ",
"X   7 s M N B V V C C C C B Z A S D D F OXH <X1X.Xk.< g.J.,.: <.<.: ,.J.g.< k..X1X<XH OXF D D S A Z B C C C C V V B N M s 7   X ",
".   6 8 s d f g f f f f f f h j k l l j W.h A.2XXX6 < g.J.,.: <.<.: ,.J.g.< 6 XX2XA.h W.j l l k j h f f f f f f g f d s 8 6   . ",
"    5 6 7 8 9 9 9 9 9 9 9 9 9 0 0 0 0 0 w ~.8 }.|. X< 1 J.,.: <.<.: ,.J.1 <  X|.}.8 ~.w 0 0 0 0 0 9 9 9 9 9 9 9 9 9 8 7 6 5     ",
"                                              > _.  < 1 J.,.: <.<.: ,.J.1 <   _.>                                               ",
"      . X o o O O o o o o o o o o o o o o o o [.{.].< 1 J.,.: <.<.: ,.J.1 < ].{.[.o o o o o o o o o o o o o o O O o o X .       "
};
