/* XPM */
static char *result[] = {
/* columns rows colors chars-per-pixel */
"64 64 172 2 ",
"   c #000000",
".  c #090706",
"X  c #0D0B0A",
"o  c #110D0A",
"O  c #0F120D",
"+  c #13140E",
"@  c #13180F",
"#  c #151410",
"$  c #181612",
"%  c #161A12",
"&  c #191C15",
"*  c #241B14",
"=  c #251E1B",
"-  c #1D2119",
";  c #262217",
":  c #24241A",
">  c #29241E",
",  c #24281B",
"<  c #2B2A1C",
"1  c #362219",
"2  c #3D231B",
"3  c #342F1F",
"4  c #28301F",
"5  c #272820",
"6  c #292C22",
"7  c #2D2622",
"8  c #302722",
"9  c #342A25",
"0  c #342C28",
"q  c #3B2F2A",
"w  c #3A2B25",
"e  c #2C3225",
"r  c #2E3428",
"t  c #353020",
"y  c #333E27",
"u  c #32352A",
"i  c #3C322C",
"p  c #3E392F",
"a  c #3F3430",
"s  c #3E3A32",
"d  c #422A1F",
"f  c #5F2B1E",
"g  c #612E1F",
"h  c #6C2C1B",
"j  c #7F311B",
"k  c #452E25",
"l  c #4B2F27",
"z  c #462F28",
"x  c #522E24",
"c  c #463626",
"v  c #4B3224",
"b  c #43332B",
"n  c #4A3229",
"m  c #443D2F",
"M  c #4C3C2A",
"N  c #553126",
"B  c #563528",
"V  c #593729",
"C  c #55392B",
"Z  c #5B3A2B",
"A  c #433733",
"S  c #453B35",
"D  c #483D37",
"F  c #612F20",
"G  c #653B26",
"H  c #37432B",
"J  c #39432D",
"K  c #4C432E",
"L  c #5C422F",
"P  c #444036",
"I  c #4D4631",
"U  c #454D34",
"Y  c #4D4832",
"T  c #4B443A",
"R  c #434E39",
"E  c #4E4C3E",
"W  c #5D4633",
"Q  c #554E36",
"!  c #5D4935",
"~  c #534E39",
"^  c #584F38",
"/  c #465537",
"(  c #475638",
")  c #49543C",
"_  c #4C5B3D",
"`  c #5B533A",
"'  c #5D5B3E",
"]  c #54513B",
"[  c #794026",
"{  c #77442E",
"}  c #78452F",
"|  c #604B36",
" . c #624C39",
".. c #655337",
"X. c #62553D",
"o. c #635B3E",
"O. c #69523D",
"+. c #656F3E",
"@. c #524E42",
"#. c #4F5B43",
"$. c #535444",
"%. c #535C45",
"&. c #5D5941",
"*. c #5A5F4A",
"=. c #645740",
"-. c #665D42",
";. c #6E5E45",
":. c #5C6644",
">. c #5D6A46",
",. c #5B654C",
"<. c #5D694D",
"1. c #546444",
"2. c #5E734A",
"3. c #5E6A50",
"4. c #666244",
"5. c #696346",
"6. c #616C47",
"7. c #66654A",
"8. c #6C664B",
"9. c #656C4D",
"0. c #6B694D",
"q. c #726B4A",
"w. c #61754C",
"e. c #636753",
"r. c #646C52",
"t. c #6A6E52",
"y. c #647353",
"u. c #6B7355",
"i. c #667953",
"p. c #697A56",
"a. c #6B745C",
"s. c #6C7C5B",
"d. c #707657",
"f. c #717953",
"g. c #737658",
"h. c #757C5C",
"j. c #707C60",
"k. c #82432A",
"l. c #895E41",
"z. c #8B6243",
"x. c #8B7959",
"c. c #927655",
"v. c #6B814C",
"b. c #6F815D",
"n. c #758854",
"m. c #71815E",
"M. c #7D8A53",
"N. c #738361",
"B. c #788765",
"V. c #778B61",
"C. c #7A8A64",
"Z. c #7A8B68",
"A. c #7E9267",
"S. c #8E825D",
"D. c #878161",
"F. c #838D67",
"G. c #888967",
"H. c #848B6B",
"J. c #948B67",
"K. c #938E69",
"L. c #839C60",
"P. c #83916C",
"I. c #8A936F",
"U. c #95916B",
"Y. c #8D9671",
"T. c #8E9A72",
"R. c #909C73",
"E. c #95AC6F",
"W. c #95AE70",
"Q. c #A2AD89",
"!. c #A9B78A",
"~. c None",
/* pixels */
"~.~.~.~.~.~.~.~.~.~.~.~.~.~.~.~.~.~.~.~.~.~.~.~.~.~.~.~.~.~.~.~.~.~.~.~.~.~.~.~.~.~.~.~.~.~.~.~.~.~.~.~.~.~.~.~.~.~.~.~.~.~.~.~.",
"~.~.~.~.~.~.~.~.~.~.~.~.~.~.~.~.~.~.~.~.~.~.~.~.~.~.~.~.~.~.~.~.~.~.~.~.~.~.~.~.~.~.~.~.~.~.~.~.~.~.~.~.~.~.~.~.~.~.~.~.~.~.~.~.",
"~.~.~.~.~.~.~.~.~.~.~.~.~.~.~.~.~.~.~.~.~.~.~.~.~.~.~.~.~.~.~.~.~.~.~.~.~.~.~.~.~.~.~.~.~.~.~.~.~.~.~.~.~.~.~.~.~.~.~.~.~.~.~.~.",
"~.~.~.~.~.~.~.~.~.~.~.~.~.~.~.~.~.~.~.~.~.~.~.~.~.~.~.~.~.~.~.~.~.~.~.~.~.~.~.~.~.~.~.~.~.~.~.~.~.~.~.~.~.~.~.~.~.~.~.~.~.~.~.~.",
"~.~.~.~.~.~.~.~.~.~.~.~.~.~.~.~.~.~.~.~.~.~.~.~.~.~.~.~.~.~.~.~.~.~.~.~.~.~.~.~.~.~.~.~.~.~.~.~.~.~.~.~.~.~.~.~.~.~.~.~.~.~.~.~.",
"~.~.~.~.~.~.~.~.~.~.~.~.~.~.~.~.~.~.~.~.~.~.~.~.~.~.~.~.~.~.~.~.~.~.~.~.~.~.~.~.~.~.~.~.~.~.~.~.~.~.~.~.~.~.~.~.~.~.~.~.~.~.~.~.",
"~.~.~.~.~.~.~.~.~.~.~.~.~.~.~.~.~.~.~.~.~.~.~.~.~.~.~.~.~.~.~.~.~.~.~.~.~.~.~.~.~.~.~.~.~.~.~.~.~.~.~.~.~.~.~.~.~.~.~.~.~.~.~.~.",
"~.~.~.~.~.~.~.~.~.~.~.~.~.~.~.~.~.~.~.~.~.~.~.~.~.~.~.~.~.~.~.~.~.~.~.~.~.~.~.~.~.~.~.~.~.~.~.~.~.~.~.~.~.~.~.~.~.~.~.~.~.~.~.~.",
"~.~.~.~.~.~.~.~.~.~.~.~.~.~.~.~.~.~.~.~.~.~.~.~.~.~.~.~.~.~.~.~.~.~.~.~.~.~.~.~.~.~.~.~.~.~.~.~.~.~.~.~.~.~.~.~.~.~.~.~.~.~.~.~.",
"~.~.~.~.~.~.~.~.~.~.~.~.~.~.~.~.~.~.~.~.~.~.~.~.~.~.~.~.~.~.~.~.~.~.~.~.~.~.~.~.~.~.~.~.~.~.~.~.~.~.~.~.~.~.~.~.~.~.~.~.~.~.~.~.",
"~.~.~.~.~.~.~.~.~.~.~.~.~.~.~.~.~.~.~.~.~.~.~.~.    .       .       ~.~.~.~.~.~.~.~.~.~.~.~.~.~.~.~.~.~.~.~.~.~.~.~.~.~.~.~.~.~.",
"~.~.~.~.~.~.~.~.~.~.~.~.~.~.~.~.~.~.~.~.~.~.~.~.o o o o o o o o o o ~.~.~.~.~.~.~.~.~.~.~.~.~.~.~.~.~.~.~.~.~.~.~.~.~.~.~.~.~.~.",
"~.~.~.~.~.~.~.~.~.~.~.~.~.~.~.~.~.~.~.~.~.~.  o 2 d d 2 2 2 d d k 2 o   ~.~.~.~.~.~.~.~.~.~.~.~.~.~.~.~.~.~.~.~.~.~.~.~.~.~.~.~.",
"~.~.~.~.~.~.~.~.~.~.~.~.~.~.~.~.~.~.~.~.~.~.o * v Z x x x N V L | M , @ ~.~.~.~.~.~.~.~.~.~.~.~.~.~.~.~.~.~.~.~.~.~.~.~.~.~.~.~.",
"~.~.~.~.~.~.~.~.~.~.~.~.~.~.~.~.~.~.~.~.  o 1 v V V N x x N V L o.:._ H +   ~.~.~.~.~.~.~.~.~.~.~.~.~.~.~.~.~.~.~.~.~.~.~.~.~.~.",
"~.~.~.~.~.~.~.~.~.~.~.~.~.~.~.~.~.~.~.~.o * M | L V N x N B L ` >.2.w._ 4 + ~.~.~.~.~.~.~.~.~.~.~.~.~.~.~.~.~.~.~.~.~.~.~.~.~.~.",
"~.~.~.~.~.~.~.~.~.~.~.~.~.~.~.~.~.~.  o 1 M ' ' W C N x N L ' >.2.2.2.2._ J %   ~.~.~.~.~.~.~.~.~.~.~.~.~.~.~.~.~.~.~.~.~.~.~.~.",
"~.~.~.~.~.~.~.~.~.~.~.~.~.~.~.~.~.~.  + v X.>.:.! V N B W ` >.2.2.2.2.w.i.( %   ~.~.~.~.~.~.~.~.~.~.~.~.~.~.~.~.~.~.~.~.~.~.~.~.",
"~.~.~.~.~.~.~.~.~.~.~.~.~.~.~.~.~.~.  % U 6.w.:.! C C W -.9.2.2.2.2.2.2.w.( %   ~.~.~.~.~.~.~.~.~.~.~.~.~.~.~.~.~.~.~.~.~.~.~.~.",
"~.~.~.~.~.~.~.~.~.~.~.~.~.~.~.~.~.~.  % ( w.w.:.! Z ! =.y.i.y.2.2.2.2.2.w./ %   ~.~.~.~.~.~.~.~.~.~.~.~.~.~.~.~.~.~.~.~.~.~.~.~.",
"~.~.~.~.~.~.~.~.~.~.~.~.~.~.~.~.~.~.  % ( w.i.6.! | ;.a.s.s.i.y.w.w.w.w.w./ @   ~.~.~.~.~.~.~.~.~.~.~.~.~.~.~.~.~.~.~.~.~.~.~.~.",
"~.~.~.~.~.~.~.~.~.~.~.~.~.~.~.~.~.~.  % ( i.s.0.! ! t.N.N.m.s.s.s.i.y.w.w./ %   ~.~.~.~.~.~.~.~.~.~.~.~.~.~.~.~.~.~.~.~.~.~.~.~.",
"~.~.~.~.~.~.~.~.~.~.~.~.~.~.~.~.~.~.  & _ b.m.u.!  .u.N.N.N.N.j.m.s.p.w.w.( %   ~.~.~.~.~.~.~.~.~.~.~.~.~.~.~.~.~.~.~.~.~.~.~.~.",
"~.~.~.~.~.~.~.~.~.~.~.~.~.~.~.~.~.~.  + J _ %.%.` =.7.r.,.%.1.%.1.,.y.s.i.( %   ~.~.~.~.~.~.~.~.~.~.~.~.~.~.~.~.~.~.~.~.~.~.~.~.",
"~.~.~.~.~.~.~.~.~.~.~.~.~.~.~.~.~.~.  . O # % 6 *.0.=.I > % % % % r ,.b.i.( %   ~.~.~.~.~.~.~.~.~.~.~.~.~.~.~.~.~.~.~.~.~.~.~.~.",
"~.~.~.~.~.~.~.~.~.~.~.~.~.~.~.~.~.~.  X : 5 , y 3.u. .v < , 6 , & r 3.p.1.H %   ~.~.~.~.~.~.~.~.~.~.~.~.~.~.~.~.~.~.~.~.~.~.~.~.",
"~.~.~.~.~.~.~.~.~.~.~.~.~.~.~.~.~.~.  : a.I.n.v.b.u. .W 6.n.I.H.r.,.s.<.e + ~.~.~.~.~.~.~.~.~.~.~.~.~.~.~.~.~.~.~.~.~.~.~.~.~.~.",
"~.~.~.~.~.~.~.~.~.~.~.~.~.~.~.~.~.~.  6 H.!.W.L.n.t.! ..M.W.!.Q.P.N.N.%.&   ~.~.~.~.~.~.~.~.~.~.~.~.~.~.~.~.~.~.~.~.~.~.~.~.~.~.",
"~.~.~.~.~.~.~.~.~.~.~.~.~.~.~.~.~.~.  - <.P.A.V.N.t.|  .d.A.P.P.B.N.N.1.-   ~.~.~.~.~.~.~.~.~.~.~.~.~.~.~.~.~.~.~.~.~.~.~.~.~.~.",
"~.~.~.~.~.~.~.~.~.~.~.~.~.~.~.~.~.~.  & ) p.s.m.N.u.=.=.7.t.t.t.s.m.m.#.%   ~.~.~.~.~.~.~.~.~.~.~.~.~.~.~.~.~.~.~.~.~.~.~.~.~.~.",
"~.~.~.~.~.~.~.~.~.~.~.~.~.~.~.~.~.~.  & #.s.s.h.N.s.u.7.X.! ! =.a.b.p._ %   ~.~.~.~.~.~.~.~.~.~.~.~.~.~.~.~.~.~.~.~.~.~.~.~.~.~.",
"~.~.~.~.~.~.~.~.~.~.~.~.~.~.~.~.~.~.  & _ s.C.B.N.N.Z.h.=. .O.;.0.y.>.U : X ~.~.~.~.~.~.~.~.~.~.~.~.~.~.~.~.~.~.~.~.~.~.~.~.~.~.",
"~.~.~.~.~.~.~.~.~.~.~.~.~.~.~.~.~.~.  % ( m.T.R.B.B.T.Y.h.g.H.x.;.! P S u > X   ~.~.~.~.~.~.~.~.~.~.~.~.~.~.~.~.~.~.~.~.~.~.~.~.",
"~.~.~.~.~.~.~.~.~.~.~.~.~.~.~.~.~.~.  @ H >.F.R.P.F.J.J.H.P.U.x. .n z a S q & X ~.~.~.~.~.~.~.~.~.~.~.~.~.~.~.~.~.~.~.~.~.~.~.~.",
"~.~.~.~.~.~.~.~.~.~.~.~.~.~.~.~.~.~.~.~.+ e :.C.T.J.l.z.K.U.z.{ C i q i A A q 7 X   ~.~.~.~.~.~.~.~.~.~.~.~.~.~.~.~.~.~.~.~.~.~.",
"~.~.~.~.~.~.~.~.~.~.~.~.~.~.~.~.~.~.~.~.  + J y.P.S.k.k.c.c.{ f z i i a A S D 0 #   ~.~.~.~.~.~.~.~.~.~.~.~.~.~.~.~.~.~.~.~.~.~.",
"~.~.~.~.~.~.~.~.~.~.~.~.~.~.~.~.~.~.~.~.  X 9 ) i.q.[ j k.} V z q i i i A D D 0 O   ~.~.~.~.~.~.~.~.~.~.~.~.~.~.~.~.~.~.~.~.~.~.",
"~.~.~.~.~.~.~.~.~.~.~.~.~.~.~.~.~.~.~.~.  o u @._ ` G h h f z i i i i i A D S 0 o   ~.~.~.~.~.~.~.~.~.~.~.~.~.~.~.~.~.~.~.~.~.~.",
"~.~.~.~.~.~.~.~.~.~.~.~.~.~.~.~.~.~.~.~.  & $.r.E S n v l z q q q i i i A S D 0 O   ~.~.~.~.~.~.~.~.~.~.~.~.~.~.~.~.~.~.~.~.~.~.",
"~.~.~.~.~.~.~.~.~.~.~.~.~.~.~.~.~.~.~.~.  & %.r.P q n n b i i i q a D D D D S 0 o   ~.~.~.~.~.~.~.~.~.~.~.~.~.~.~.~.~.~.~.~.~.~.",
"~.~.~.~.~.~.~.~.~.~.~.~.~.~.~.~.~.~.~.~.  # s E A z F F z q i i q S ,.,.@.A A 0 o   ~.~.~.~.~.~.~.~.~.~.~.~.~.~.~.~.~.~.~.~.~.~.",
"~.~.~.~.~.~.~.~.~.~.~.~.~.~.~.~.~.~.~.~.  o 0 S a z g g z q 0 i S $.a.r.@.A A 0 O   ~.~.~.~.~.~.~.~.~.~.~.~.~.~.~.~.~.~.~.~.~.~.",
"~.~.~.~.~.~.~.~.~.~.~.~.~.~.~.~.~.~.~.~.  X 9 S A A k k w 9 9 m $.y.s.r.@.A A 0 o   ~.~.~.~.~.~.~.~.~.~.~.~.~.~.~.~.~.~.~.~.~.~.",
"~.~.~.~.~.~.~.~.~.~.~.~.~.~.~.~.~.~.~.~.  X 0 D D a 7 > 8 9 9 S 3.s.r.%.T A D 0 O   ~.~.~.~.~.~.~.~.~.~.~.~.~.~.~.~.~.~.~.~.~.~.",
"~.~.~.~.~.~.~.~.~.~.~.~.~.~.~.~.~.~.~.~.  O 0 D D 0 $ # > 9 8 P 3.y.) S S S S 0 o   ~.~.~.~.~.~.~.~.~.~.~.~.~.~.~.~.~.~.~.~.~.~.",
"~.~.~.~.~.~.~.~.~.~.~.~.~.~.~.~.~.~.~.~.  o 0 D S 0 X . = 9 9 p %.$.p 9 b S D 0 o   ~.~.~.~.~.~.~.~.~.~.~.~.~.~.~.~.~.~.~.~.~.~.",
"~.~.~.~.~.~.~.~.~.~.~.~.~.~.~.~.~.~.~.~.  o 0 A S 9 X . = 9 9 0 p p 9 9 a D S 0 O   ~.~.~.~.~.~.~.~.~.~.~.~.~.~.~.~.~.~.~.~.~.~.",
"~.~.~.~.~.~.~.~.~.~.~.~.~.~.~.~.~.~.~.~.  # s @.$.P : * 9 b b p i i b m T @.@.s #   ~.~.~.~.~.~.~.~.~.~.~.~.~.~.~.~.~.~.~.~.~.~.",
"~.~.~.~.~.~.~.~.~.~.~.~.~.~.~.~.~.~.~.~.  & #.j.j.r.@.Y ! ^ ^ ^ ^ ` ^ ' r.g.s.%.&   ~.~.~.~.~.~.~.~.~.~.~.~.~.~.~.~.~.~.~.~.~.~.",
"~.~.~.~.~.~.~.~.~.~.~.~.~.~.~.~.~.~.~.~.  & $.3.,.,.-.-.+.o.=.o.o.o.o.8.g.N.j.%.&   ~.~.~.~.~.~.~.~.~.~.~.~.~.~.~.~.~.~.~.~.~.~.",
"~.~.~.~.~.~.~.~.~.~.~.~.~.~.~.~.~.~.~.~.~.~.& - - 9 Q -.o.o.` ` o.o.o.-.7.7.7.Y $   ~.~.~.~.~.~.~.~.~.~.~.~.~.~.~.~.~.~.~.~.~.~.",
"~.~.~.~.~.~.~.~.~.~.~.~.~.~.~.~.~.~.~.~.~.~.      $ Y 5.-.o.o.o.o.5.5.-.-.` K t #   ~.~.~.~.~.~.~.~.~.~.~.~.~.~.~.~.~.~.~.~.~.~.",
"~.~.~.~.~.~.~.~.~.~.~.~.~.~.~.~.~.~.~.~.~.~.~.~.  $ ~ 8.4.+.5.8.8.q.8.8.o.K ; o ~.~.~.~.~.~.~.~.~.~.~.~.~.~.~.~.~.~.~.~.~.~.~.~.",
"~.~.~.~.~.~.~.~.~.~.~.~.~.~.~.~.~.~.~.~.~.~.~.~.  $ S ` X.=.8.8.8.8.8.-.Y 3 o   ~.~.~.~.~.~.~.~.~.~.~.~.~.~.~.~.~.~.~.~.~.~.~.~.",
"~.~.~.~.~.~.~.~.~.~.~.~.~.~.~.~.~.~.~.~.~.~.~.~.~.~.% < Y o.-.-.-.-.-.Y : + ~.~.~.~.~.~.~.~.~.~.~.~.~.~.~.~.~.~.~.~.~.~.~.~.~.~.",
"~.~.~.~.~.~.~.~.~.~.~.~.~.~.~.~.~.~.~.~.~.~.~.~.~.~.  o 3 K ' 5.5.=.Y t o   ~.~.~.~.~.~.~.~.~.~.~.~.~.~.~.~.~.~.~.~.~.~.~.~.~.~.",
"~.~.~.~.~.~.~.~.~.~.~.~.~.~.~.~.~.~.~.~.~.~.~.~.~.~.~.~.X , #.a.p.%.< X ~.~.~.~.~.~.~.~.~.~.~.~.~.~.~.~.~.~.~.~.~.~.~.~.~.~.~.~.",
"~.~.~.~.~.~.~.~.~.~.~.~.~.~.~.~.~.~.~.~.~.~.~.~.~.~.~.~.& r ,.N.m.%.&   ~.~.~.~.~.~.~.~.~.~.~.~.~.~.~.~.~.~.~.~.~.~.~.~.~.~.~.~.",
"~.~.~.~.~.~.~.~.~.~.~.~.~.~.~.~.~.~.~.~.~.~.~.~.~.~.  & ) y.m.B.N.%.&   ~.~.~.~.~.~.~.~.~.~.~.~.~.~.~.~.~.~.~.~.~.~.~.~.~.~.~.~.",
"~.~.~.~.~.~.~.~.~.~.~.~.~.~.~.~.~.~.~.~.~.~.~.~.~.~.  & #.a.a.y.3.R %   ~.~.~.~.~.~.~.~.~.~.~.~.~.~.~.~.~.~.~.~.~.~.~.~.~.~.~.~.",
"~.~.~.~.~.~.~.~.~.~.~.~.~.~.~.~.~.~.~.~.~.~.~.~.~.~.  X , r r r e - X   ~.~.~.~.~.~.~.~.~.~.~.~.~.~.~.~.~.~.~.~.~.~.~.~.~.~.~.~.",
"~.~.~.~.~.~.~.~.~.~.~.~.~.~.~.~.~.~.~.~.~.~.~.~.~.~.~.~.~.~.~.~.~.~.~.~.~.~.~.~.~.~.~.~.~.~.~.~.~.~.~.~.~.~.~.~.~.~.~.~.~.~.~.~.",
"~.~.~.~.~.~.~.~.~.~.~.~.~.~.~.~.~.~.~.~.~.~.~.~.~.~.~.~.~.~.~.~.~.~.~.~.~.~.~.~.~.~.~.~.~.~.~.~.~.~.~.~.~.~.~.~.~.~.~.~.~.~.~.~.",
"~.~.~.~.~.~.~.~.~.~.~.~.~.~.~.~.~.~.~.~.~.~.~.~.~.~.~.~.~.~.~.~.~.~.~.~.~.~.~.~.~.~.~.~.~.~.~.~.~.~.~.~.~.~.~.~.~.~.~.~.~.~.~.~."
};
