/* XPM */
static char *result[] = {
/* columns rows colors chars-per-pixel */
"64 64 171 2 ",
"   c #000000",
".  c #0E0C0A",
"X  c #120D0A",
"o  c #0F120D",
"O  c #13150E",
"+  c #13180F",
"@  c #141311",
"#  c #191613",
"$  c #161A12",
"%  c #191C16",
"&  c #261B13",
"*  c #1E2219",
"=  c #252217",
"-  c #24241B",
";  c #29231F",
":  c #23281B",
">  c #2B291C",
",  c #362219",
"<  c #3D231B",
"1  c #342F1F",
"2  c #28301F",
"3  c #2C2320",
"4  c #272820",
"5  c #292C22",
"6  c #312622",
"7  c #332A26",
"8  c #352C28",
"9  c #3A2F2A",
"0  c #3A2B25",
"q  c #2C3225",
"w  c #2E3428",
"e  c #303225",
"r  c #3A3127",
"t  c #333E27",
"y  c #35342A",
"u  c #3C322C",
"i  c #31382B",
"p  c #3E382B",
"a  c #3E3A32",
"s  c #3E3633",
"d  c #422A1F",
"f  c #5F2B1E",
"g  c #612E1F",
"h  c #6C2C1B",
"j  c #7F311B",
"k  c #452D25",
"l  c #4B2F27",
"z  c #522E24",
"x  c #463626",
"c  c #4B3224",
"v  c #44322B",
"b  c #4A3229",
"n  c #423A2F",
"m  c #4C3C2A",
"M  c #553126",
"N  c #563528",
"B  c #593729",
"V  c #55392B",
"C  c #5B3A2B",
"Z  c #413631",
"A  c #453B34",
"S  c #483D37",
"D  c #612F20",
"F  c #653B26",
"G  c #37432B",
"H  c #39432D",
"J  c #4E402F",
"K  c #5C422F",
"L  c #464133",
"P  c #4D4632",
"I  c #454D34",
"U  c #4D4932",
"Y  c #494339",
"T  c #434E39",
"R  c #4E4B3D",
"E  c #5D4633",
"W  c #564E37",
"Q  c #5D4935",
"!  c #50473F",
"~  c #534C3A",
"^  c #584F38",
"/  c #465537",
"(  c #475638",
")  c #4A543C",
"_  c #4C5B3D",
"`  c #54543B",
"'  c #5C543A",
"]  c #5D5B3E",
"[  c #794026",
"{  c #77442E",
"}  c #78452F",
"|  c #604B36",
" . c #624C39",
".. c #62553D",
"X. c #645C3E",
"o. c #67533A",
"O. c #656F3E",
"+. c #4C4340",
"@. c #534D43",
"#. c #4F5B43",
"$. c #525443",
"%. c #535C45",
"&. c #5D5941",
"*. c #5A5F4A",
"=. c #645740",
"-. c #655C42",
";. c #6E5E45",
":. c #5C6644",
">. c #5D6A46",
",. c #5A654C",
"<. c #5D694D",
"1. c #546444",
"2. c #5E734A",
"3. c #5F6D51",
"4. c #666144",
"5. c #696345",
"6. c #616C47",
"7. c #66654A",
"8. c #6D664B",
"9. c #656C4D",
"0. c #6C6A4F",
"q. c #726B4A",
"w. c #61754C",
"e. c #646C52",
"r. c #6A6E52",
"t. c #647353",
"y. c #6B7355",
"u. c #667953",
"i. c #697A56",
"p. c #6B735B",
"a. c #6C7B5B",
"s. c #717657",
"d. c #717953",
"f. c #737658",
"g. c #757C5C",
"h. c #707C60",
"j. c #82432A",
"k. c #895E41",
"l. c #8B6243",
"z. c #8B7959",
"x. c #927655",
"c. c #6B814C",
"v. c #6F815D",
"b. c #758854",
"n. c #71815E",
"m. c #7D8A53",
"M. c #728361",
"N. c #788765",
"B. c #778B61",
"V. c #7A8A64",
"C. c #7A8B68",
"Z. c #7E9267",
"A. c #8E825D",
"S. c #878161",
"D. c #838D67",
"F. c #888967",
"G. c #848B6B",
"H. c #948B67",
"J. c #938E69",
"K. c #839C60",
"L. c #83916C",
"P. c #8A936F",
"I. c #95916B",
"U. c #8D9671",
"Y. c #8E9A72",
"T. c #909C73",
"R. c #95AC6F",
"E. c #95AE70",
"W. c #A2AD89",
"Q. c #A9B78A",
"!. c None",
/* pixels */
"!.!.!.!.!.!.!.!.!.!.!.!.!.!.!.!.!.!.!.!.!.!.!.!.!.!.!.!.!.!.!.!.!.!.!.!.!.!.!.!.!.!.!.!.!.!.!.!.!.!.!.!.!.!.!.!.!.!.!.!.!.!.!.!.",
"!.!.!.!.!.!.!.!.!.!.!.!.!.!.!.!.!.!.!.!.!.!.!.!.!.!.!.!.!.!.!.!.!.!.!.!.!.!.!.!.!.!.!.!.!.!.!.!.!.!.!.!.!.!.!.!.!.!.!.!.!.!.!.!.",
"!.!.!.!.!.!.!.!.!.!.!.!.!.!.!.!.!.!.!.!.!.!.!.!.!.!.!.!.!.!.!.!.!.!.!.!.!.!.!.!.!.!.!.!.!.!.!.!.!.!.!.!.!.!.!.!.!.!.!.!.!.!.!.!.",
"!.!.!.!.!.!.!.!.!.!.!.!.!.!.!.!.!.!.!.!.!.!.!.!.!.!.!.!.!.!.!.!.!.!.!.!.!.!.!.!.!.!.!.!.!.!.!.!.!.!.!.!.!.!.!.!.!.!.!.!.!.!.!.!.",
"!.!.!.!.!.!.!.!.!.!.!.!.!.!.!.!.!.!.!.!.!.!.!.!.!.!.!.!.!.!.!.!.!.!.!.!.!.!.!.!.!.!.!.!.!.!.!.!.!.!.!.!.!.!.!.!.!.!.!.!.!.!.!.!.",
"!.!.!.!.!.!.!.!.!.!.!.!.!.!.!.!.!.!.!.!.!.!.!.!.!.!.!.!.!.!.!.!.!.!.!.!.!.!.!.!.!.!.!.!.!.!.!.!.!.!.!.!.!.!.!.!.!.!.!.!.!.!.!.!.",
"!.!.!.!.!.!.!.!.!.!.!.!.!.!.!.!.!.!.!.!.!.!.!.!.!.!.!.!.!.!.!.!.!.!.!.!.!.!.!.!.!.!.!.!.!.!.!.!.!.!.!.!.!.!.!.!.!.!.!.!.!.!.!.!.",
"!.!.!.!.!.!.!.!.!.!.!.!.!.!.!.!.!.!.!.!.!.!.!.!.!.!.!.!.!.!.!.!.!.!.!.!.!.!.!.!.!.!.!.!.!.!.!.!.!.!.!.!.!.!.!.!.!.!.!.!.!.!.!.!.",
"!.!.!.!.!.!.!.!.!.!.!.!.!.!.!.!.!.!.!.!.!.!.!.!.!.!.!.!.!.!.!.!.!.!.!.!.!.!.!.!.!.!.!.!.!.!.!.!.!.!.!.!.!.!.!.!.!.!.!.!.!.!.!.!.",
"!.!.!.!.!.!.!.!.!.!.!.!.!.!.!.!.!.!.!.!.!.!.!.!.!.!.!.!.!.!.!.!.!.!.!.!.!.!.!.!.!.!.!.!.!.!.!.!.!.!.!.!.!.!.!.!.!.!.!.!.!.!.!.!.",
"!.!.!.!.!.!.!.!.!.!.!.!.!.!.!.!.!.!.!.!.!.!.!.!.                    !.!.!.!.!.!.!.!.!.!.!.!.!.!.!.!.!.!.!.!.!.!.!.!.!.!.!.!.!.!.",
"!.!.!.!.!.!.!.!.!.!.!.!.!.!.!.!.!.!.!.!.!.!.!.!.X X X X X X X X X X !.!.!.!.!.!.!.!.!.!.!.!.!.!.!.!.!.!.!.!.!.!.!.!.!.!.!.!.!.!.",
"!.!.!.!.!.!.!.!.!.!.!.!.!.!.!.!.!.!.!.!.!.!.  X < d d < d < d k k , X   !.!.!.!.!.!.!.!.!.!.!.!.!.!.!.!.!.!.!.!.!.!.!.!.!.!.!.!.",
"!.!.!.!.!.!.!.!.!.!.!.!.!.!.!.!.!.!.!.!.!.!.X & M C c f z M B F | m = + !.!.!.!.!.!.!.!.!.!.!.!.!.!.!.!.!.!.!.!.!.!.!.!.!.!.!.!.",
"!.!.!.!.!.!.!.!.!.!.!.!.!.!.!.!.!.!.!.!.  X , c B C M z d M B E X.:._ G +   !.!.!.!.!.!.!.!.!.!.!.!.!.!.!.!.!.!.!.!.!.!.!.!.!.!.",
"!.!.!.!.!.!.!.!.!.!.!.!.!.!.!.!.!.!.!.!.X & m Q E B z l M N K ' >.w.w._ 2 + !.!.!.!.!.!.!.!.!.!.!.!.!.!.!.!.!.!.!.!.!.!.!.!.!.!.",
"!.!.!.!.!.!.!.!.!.!.!.!.!.!.!.!.!.!.  X , m ' ] Q B z z N E ] >.2.2.2.2._ G %   !.!.!.!.!.!.!.!.!.!.!.!.!.!.!.!.!.!.!.!.!.!.!.!.",
"!.!.!.!.!.!.!.!.!.!.!.!.!.!.!.!.!.!.  O x ..6.>.Q B M N E ' >.2.2.2.2.w.w.( +   !.!.!.!.!.!.!.!.!.!.!.!.!.!.!.!.!.!.!.!.!.!.!.!.",
"!.!.!.!.!.!.!.!.!.!.!.!.!.!.!.!.!.!.  $ I 6.w.:.Q B B E =.9.2.2.2.2.2.w.w.( +   !.!.!.!.!.!.!.!.!.!.!.!.!.!.!.!.!.!.!.!.!.!.!.!.",
"!.!.!.!.!.!.!.!.!.!.!.!.!.!.!.!.!.!.  $ ( w.w.:.Q C | =.e.i.t.2.2.2.2.w.w.( %   !.!.!.!.!.!.!.!.!.!.!.!.!.!.!.!.!.!.!.!.!.!.!.!.",
"!.!.!.!.!.!.!.!.!.!.!.!.!.!.!.!.!.!.  $ ( w.u.6.Q Q 7.p.a.a.i.t.w.w.w.w.w./ %   !.!.!.!.!.!.!.!.!.!.!.!.!.!.!.!.!.!.!.!.!.!.!.!.",
"!.!.!.!.!.!.!.!.!.!.!.!.!.!.!.!.!.!.  $ ( u.a.0.Q  .r.M.M.v.a.i.a.i.t.w.w./ +   !.!.!.!.!.!.!.!.!.!.!.!.!.!.!.!.!.!.!.!.!.!.!.!.",
"!.!.!.!.!.!.!.!.!.!.!.!.!.!.!.!.!.!.  % _ a.n.r.Q Q r.M.M.M.M.M.n.a.u.t.w.( $   !.!.!.!.!.!.!.!.!.!.!.!.!.!.!.!.!.!.!.!.!.!.!.!.",
"!.!.!.!.!.!.!.!.!.!.!.!.!.!.!.!.!.!.  O H _ 1.%.^ =.8.e.,.1.%.%.1.,.t.i.w./ %   !.!.!.!.!.!.!.!.!.!.!.!.!.!.!.!.!.!.!.!.!.!.!.!.",
"!.!.!.!.!.!.!.!.!.!.!.!.!.!.!.!.!.!.    o @ $ q %.0.X.V ; $ $ $ $ w ,.a.u.( %   !.!.!.!.!.!.!.!.!.!.!.!.!.!.!.!.!.!.!.!.!.!.!.!.",
"!.!.!.!.!.!.!.!.!.!.!.!.!.!.!.!.!.!.  . - 4 * G <.y. .x > : 5 4 % w 3.i.1.G $   !.!.!.!.!.!.!.!.!.!.!.!.!.!.!.!.!.!.!.!.!.!.!.!.",
"!.!.!.!.!.!.!.!.!.!.!.!.!.!.!.!.!.!.  ; p.U.b.c.v.y. .Q 6.b.P.G.e.,.a.<.q + !.!.!.!.!.!.!.!.!.!.!.!.!.!.!.!.!.!.!.!.!.!.!.!.!.!.",
"!.!.!.!.!.!.!.!.!.!.!.!.!.!.!.!.!.!.  5 G.Q.R.K.b.r.Q o.m.E.Q.W.L.M.M.%.%   !.!.!.!.!.!.!.!.!.!.!.!.!.!.!.!.!.!.!.!.!.!.!.!.!.!.",
"!.!.!.!.!.!.!.!.!.!.!.!.!.!.!.!.!.!.  * <.L.Z.B.M.r.Q  .s.Z.L.L.N.M.M.%.%   !.!.!.!.!.!.!.!.!.!.!.!.!.!.!.!.!.!.!.!.!.!.!.!.!.!.",
"!.!.!.!.!.!.!.!.!.!.!.!.!.!.!.!.!.!.  % _ i.h.v.M.y.=...7.r.r.r.a.M.v.1.%   !.!.!.!.!.!.!.!.!.!.!.!.!.!.!.!.!.!.!.!.!.!.!.!.!.!.",
"!.!.!.!.!.!.!.!.!.!.!.!.!.!.!.!.!.!.  % #.a.v.g.v.a.y.8...Q Q =.p.v.i.( %   !.!.!.!.!.!.!.!.!.!.!.!.!.!.!.!.!.!.!.!.!.!.!.!.!.!.",
"!.!.!.!.!.!.!.!.!.!.!.!.!.!.!.!.!.!.  % ) a.B.N.M.M.C.g.-. .o.;.0.t.>.I * . !.!.!.!.!.!.!.!.!.!.!.!.!.!.!.!.!.!.!.!.!.!.!.!.!.!.",
"!.!.!.!.!.!.!.!.!.!.!.!.!.!.!.!.!.!.  $ ( n.Y.Y.N.N.Y.U.g.f.F.z.;.Q Y n u ; .   !.!.!.!.!.!.!.!.!.!.!.!.!.!.!.!.!.!.!.!.!.!.!.!.",
"!.!.!.!.!.!.!.!.!.!.!.!.!.!.!.!.!.!.  + G >.D.T.G.D.J.J.G.P.I.z. .b v u A 9 # . !.!.!.!.!.!.!.!.!.!.!.!.!.!.!.!.!.!.!.!.!.!.!.!.",
"!.!.!.!.!.!.!.!.!.!.!.!.!.!.!.!.!.!.!.!.+ q :.V.Y.J.j.x.I.I.k.} V u 9 Z A Z u 3 .   !.!.!.!.!.!.!.!.!.!.!.!.!.!.!.!.!.!.!.!.!.!.",
"!.!.!.!.!.!.!.!.!.!.!.!.!.!.!.!.!.!.!.!.  O H t.L.A.j.j.x.z.{ z l u u u Z A S 8 o   !.!.!.!.!.!.!.!.!.!.!.!.!.!.!.!.!.!.!.!.!.!.",
"!.!.!.!.!.!.!.!.!.!.!.!.!.!.!.!.!.!.!.!.  . 7 ) u.q.[ j j.} B l 9 u u u A S S 8 X   !.!.!.!.!.!.!.!.!.!.!.!.!.!.!.!.!.!.!.!.!.!.",
"!.!.!.!.!.!.!.!.!.!.!.!.!.!.!.!.!.!.!.!.  o y @._ ' F h h g l 9 u u 9 s Z S S 8 o   !.!.!.!.!.!.!.!.!.!.!.!.!.!.!.!.!.!.!.!.!.!.",
"!.!.!.!.!.!.!.!.!.!.!.!.!.!.!.!.!.!.!.!.  % $.e.~ n b c l l 9 u u 9 u u Z A A 8 X   !.!.!.!.!.!.!.!.!.!.!.!.!.!.!.!.!.!.!.!.!.!.",
"!.!.!.!.!.!.!.!.!.!.!.!.!.!.!.!.!.!.!.!.  % %.e.Y 9 b b 9 s u u 9 Z A S S S A 8 o   !.!.!.!.!.!.!.!.!.!.!.!.!.!.!.!.!.!.!.!.!.!.",
"!.!.!.!.!.!.!.!.!.!.!.!.!.!.!.!.!.!.!.!.  @ A R Z l M g l u u 9 9 A ,.,.R A S 8 .   !.!.!.!.!.!.!.!.!.!.!.!.!.!.!.!.!.!.!.!.!.!.",
"!.!.!.!.!.!.!.!.!.!.!.!.!.!.!.!.!.!.!.!.  . ; 9 u b g g k 9 9 p A $.p.r.+.Z A 9 % . !.!.!.!.!.!.!.!.!.!.!.!.!.!.!.!.!.!.!.!.!.!.",
"!.!.!.!.!.!.!.!.!.!.!.!.!.!.!.!.!.!.!.!.!.!.. # 8 Z k k 0 7 0 p %.t.a.3.A 9 Z Z 9 3 X   !.!.!.!.!.!.!.!.!.!.!.!.!.!.!.!.!.!.!.!.",
"!.!.!.!.!.!.!.!.!.!.!.!.!.!.!.!.!.!.!.!.!.!.  . 8 A 9 9 7 7 7 A <.a.e.$.p 9 Z A S 8 o   !.!.!.!.!.!.!.!.!.!.!.!.!.!.!.!.!.!.!.!.",
"!.!.!.!.!.!.!.!.!.!.!.!.!.!.!.!.!.!.!.!.!.!.  X 7 A A u 8 7 7 A 3.e.) p 8 9 Z S S 8 o   !.!.!.!.!.!.!.!.!.!.!.!.!.!.!.!.!.!.!.!.",
"!.!.!.!.!.!.!.!.!.!.!.!.!.!.!.!.!.!.!.!.!.!.  . 8 A A Z 8 6 6 p $.$.u 6 6 8 Z A A 8 X   !.!.!.!.!.!.!.!.!.!.!.!.!.!.!.!.!.!.!.!.",
"!.!.!.!.!.!.!.!.!.!.!.!.!.!.!.!.!.!.!.!.!.!.  X 8 A S n 7 ; ; 7 y y 6 6 6 8 p A A 8 .   !.!.!.!.!.!.!.!.!.!.!.!.!.!.!.!.!.!.!.!.",
"!.!.!.!.!.!.!.!.!.!.!.!.!.!.!.!.!.!.!.!.!.!.  @ Z @.@.Y n r r r r r r r v A R @.@.s @   !.!.!.!.!.!.!.!.!.!.!.!.!.!.!.!.!.!.!.!.",
"!.!.!.!.!.!.!.!.!.!.!.!.!.!.!.!.!.!.!.!.!.!.  % %.h.p.e.] W W W ^ ^ ^ ^ ' &.e.a.h.#.%   !.!.!.!.!.!.!.!.!.!.!.!.!.!.!.!.!.!.!.!.",
"!.!.!.!.!.!.!.!.!.!.!.!.!.!.!.!.!.!.!.!.!.!.  % $.3.h.f.5.X.X.X.X.-.X.X.X.5.s.p.e.$.%   !.!.!.!.!.!.!.!.!.!.!.!.!.!.!.!.!.!.!.!.",
"!.!.!.!.!.!.!.!.!.!.!.!.!.!.!.!.!.!.!.!.!.!.!.!.% e $.8.4.X...' X.X.X.X.X.-.4.` w % !.!.!.!.!.!.!.!.!.!.!.!.!.!.!.!.!.!.!.!.!.!.",
"!.!.!.!.!.!.!.!.!.!.!.!.!.!.!.!.!.!.!.!.!.!.!.!.  O P 4.4.X...X.-.4.4.-.X.X.^ p X   !.!.!.!.!.!.!.!.!.!.!.!.!.!.!.!.!.!.!.!.!.!.",
"!.!.!.!.!.!.!.!.!.!.!.!.!.!.!.!.!.!.!.!.!.!.!.!.  $ ~ q.4.-.5.8.8.8.8.5.X.' ! 9 o   !.!.!.!.!.!.!.!.!.!.!.!.!.!.!.!.!.!.!.!.!.!.",
"!.!.!.!.!.!.!.!.!.!.!.!.!.!.!.!.!.!.!.!.!.!.!.!.  # L W U W -.0.q.8.8.-.P A R s @   !.!.!.!.!.!.!.!.!.!.!.!.!.!.!.!.!.!.!.!.!.!.",
"!.!.!.!.!.!.!.!.!.!.!.!.!.!.!.!.!.!.!.!.!.!.!.!.!.!.# # # > W 4.4.-.-.P ; 4 @.+.#   !.!.!.!.!.!.!.!.!.!.!.!.!.!.!.!.!.!.!.!.!.!.",
"!.!.!.!.!.!.!.!.!.!.!.!.!.!.!.!.!.!.!.!.!.!.!.!.!.!.      O U 5.5.X.U 1 . @ s A #   !.!.!.!.!.!.!.!.!.!.!.!.!.!.!.!.!.!.!.!.!.!.",
"!.!.!.!.!.!.!.!.!.!.!.!.!.!.!.!.!.!.!.!.!.!.!.!.!.!.!.!.  $ #.i.y.%.> . !.!.# # !.!.!.!.!.!.!.!.!.!.!.!.!.!.!.!.!.!.!.!.!.!.!.!.",
"!.!.!.!.!.!.!.!.!.!.!.!.!.!.!.!.!.!.!.!.!.!.!.!.!.!.!.!.% w ,.M.v.%.%   !.!.    !.!.!.!.!.!.!.!.!.!.!.!.!.!.!.!.!.!.!.!.!.!.!.!.",
"!.!.!.!.!.!.!.!.!.!.!.!.!.!.!.!.!.!.!.!.!.!.!.!.!.!.  % $.3.h.N.M.#.%   !.!.!.!.!.!.!.!.!.!.!.!.!.!.!.!.!.!.!.!.!.!.!.!.!.!.!.!.",
"!.!.!.!.!.!.!.!.!.!.!.!.!.!.!.!.!.!.!.!.!.!.!.!.!.!.  % #.a.p.t.3.T $   !.!.!.!.!.!.!.!.!.!.!.!.!.!.!.!.!.!.!.!.!.!.!.!.!.!.!.!.",
"!.!.!.!.!.!.!.!.!.!.!.!.!.!.!.!.!.!.!.!.!.!.!.!.!.!.  . : i w q q * .   !.!.!.!.!.!.!.!.!.!.!.!.!.!.!.!.!.!.!.!.!.!.!.!.!.!.!.!.",
"!.!.!.!.!.!.!.!.!.!.!.!.!.!.!.!.!.!.!.!.!.!.!.!.!.!.!.!.!.!.!.!.!.!.!.!.!.!.!.!.!.!.!.!.!.!.!.!.!.!.!.!.!.!.!.!.!.!.!.!.!.!.!.!.",
"!.!.!.!.!.!.!.!.!.!.!.!.!.!.!.!.!.!.!.!.!.!.!.!.!.!.!.!.!.!.!.!.!.!.!.!.!.!.!.!.!.!.!.!.!.!.!.!.!.!.!.!.!.!.!.!.!.!.!.!.!.!.!.!.",
"!.!.!.!.!.!.!.!.!.!.!.!.!.!.!.!.!.!.!.!.!.!.!.!.!.!.!.!.!.!.!.!.!.!.!.!.!.!.!.!.!.!.!.!.!.!.!.!.!.!.!.!.!.!.!.!.!.!.!.!.!.!.!.!."
};
