/* XPM */
static char *result[] = {
/* columns rows colors chars-per-pixel */
"64 64 174 2 ",
"   c #000000",
".  c #0D0C0A",
"X  c #120D0B",
"o  c #0F120D",
"O  c #13150E",
"+  c #13180F",
"@  c #151311",
"#  c #181613",
"$  c #161A12",
"%  c #191C15",
"&  c #1B1F18",
"*  c #261B13",
"=  c #1D2119",
"-  c #24251C",
";  c #29231E",
":  c #23281B",
">  c #2B291C",
",  c #252216",
"<  c #362219",
"1  c #3D231C",
"2  c #342F1F",
"3  c #28301F",
"4  c #2D2421",
"5  c #272820",
"6  c #292C22",
"7  c #302723",
"8  c #332A26",
"9  c #342B28",
"0  c #3A2F2A",
"q  c #2C3325",
"w  c #2E3428",
"e  c #313226",
"r  c #3A3127",
"t  c #333E27",
"y  c #34362A",
"u  c #3C322C",
"i  c #31382B",
"p  c #3B392D",
"a  c #3E3531",
"s  c #3E3B33",
"d  c #422A1F",
"f  c #5E2B1D",
"g  c #6C2C1B",
"h  c #7F311B",
"j  c #452D24",
"k  c #4B2F26",
"l  c #522E24",
"z  c #463626",
"x  c #4B3325",
"c  c #42312B",
"v  c #4D362C",
"b  c #473F2F",
"n  c #4C3C2A",
"m  c #553126",
"M  c #563528",
"N  c #593729",
"B  c #55392B",
"V  c #5B3A2B",
"C  c #433731",
"Z  c #453B35",
"A  c #493D36",
"S  c #513930",
"D  c #622F20",
"F  c #693722",
"G  c #673C27",
"H  c #6C3926",
"J  c #36422A",
"K  c #38432D",
"L  c #4E402F",
"P  c #5C422F",
"I  c #464036",
"U  c #4C4533",
"Y  c #434C33",
"T  c #4D4932",
"R  c #4B443C",
"E  c #4D4B3D",
"W  c #434E39",
"Q  c #5D4633",
"!  c #554D37",
"~  c #5D4A35",
"^  c #50463E",
"/  c #554E38",
"(  c #465537",
")  c #475638",
"_  c #4A553C",
"`  c #4D5B3E",
"'  c #5E543A",
"]  c #5D5B3D",
"[  c #794126",
"{  c #77442E",
"}  c #78452F",
"|  c #614B36",
" . c #624C39",
".. c #665237",
"X. c #62553D",
"o. c #645C3E",
"O. c #69523D",
"+. c #656F3E",
"@. c #534D43",
"#. c #4F5B43",
"$. c #565142",
"%. c #5C5741",
"&. c #535C45",
"*. c #5F5940",
"=. c #5A5848",
"-. c #645740",
";. c #645D42",
":. c #6E5E45",
">. c #556345",
",. c #5C6644",
"<. c #5C6A46",
"1. c #546048",
"2. c #5B644C",
"3. c #5B6A4C",
"4. c #5E734A",
"5. c #5D6B51",
"6. c #666346",
"7. c #696245",
"8. c #616C47",
"9. c #66654A",
"0. c #6D664B",
"q. c #656C4D",
"w. c #6D694D",
"e. c #746E49",
"r. c #61754C",
"t. c #646C52",
"y. c #6A6E52",
"u. c #647452",
"i. c #6B7355",
"p. c #667953",
"a. c #687A56",
"s. c #6B745C",
"d. c #6C7C5B",
"f. c #707657",
"g. c #737658",
"h. c #737B5E",
"j. c #717953",
"k. c #717C60",
"l. c #82432A",
"z. c #895E41",
"x. c #8B6243",
"c. c #8B7959",
"v. c #927655",
"b. c #6B814C",
"n. c #6F815D",
"m. c #758854",
"M. c #71815E",
"N. c #7D8A53",
"B. c #728361",
"V. c #788765",
"C. c #778B61",
"Z. c #7B8A64",
"A. c #7A8B68",
"S. c #7E9267",
"D. c #8E825D",
"F. c #878161",
"G. c #838D67",
"H. c #888967",
"J. c #848B6B",
"K. c #948B67",
"L. c #938E69",
"P. c #829067",
"I. c #82916D",
"U. c #8A936F",
"Y. c #839C60",
"T. c #95916B",
"R. c #8D9671",
"E. c #8E9A72",
"W. c #909C73",
"Q. c #95AC6F",
"!. c #95AE70",
"~. c #A2AD89",
"^. c #A9B78A",
"/. c None",
/* pixels */
"/./././././././././././././././././././././././././././././././././././././././././././././././././././././././././././././././.",
"/./././././././././././././././././././././././././././././././././././././././././././././././././././././././././././././././.",
"/./././././././././././././././././././././././././././././././././././././././././././././././././././././././././././././././.",
"/./././././././././././././././././././././././././././././././././././././././././././././././././././././././././././././././.",
"/./././././././././././././././././././././././././././././././././././././././././././././././././././././././././././././././.",
"/./././././././././././././././././././././././././././././././././././././././././././././././././././././././././././././././.",
"/./././././././././././././././././././././././././././././././././././././././././././././././././././././././././././././././.",
"/./././././././././././././././././././././././././././././././././././././././././././././././././././././././././././././././.",
"/./././././././././././././././././././././././././././././././././././././././././././././././././././././././././././././././.",
"/./././././././././././././././././././././././././././././././././././././././././././././././././././././././././././././././.",
"/./././././././././././././././././././././././././././././././././././././././././././././././././././././././././././././././.",
"/./././././././././././././././././././././././././././././././././././././././././././././././././././././././././././././././.",
"/./././././././././././././././././././././././././././././././././././././././././././././././././././././././././././././././.",
"/./././././././././././././././././././././././././././././././././././././././././././././././././././././././././././././././.",
"/./././././././././././././././././././././.                    /./././././././././././././././././././././././././././././././.",
"/./././././././././././././././././././././.X X X X X X X X O X /./././././././././././././././././././././././././././././././.",
"/./././././././././././././././././././.  X < d 1 1 1 1 d j d < X   /./././././././././././././././././././././././././././././.",
"/./././././././././././././././././././.X * x V M l l l B G Q L - O /./././././././././././././././././././././././././././././.",
"/./././././././././././././././././.  X < x N N m l l l N Q ] ,.` K $   /./././././././././././././././././././././././././././.",
"/./././././././././././././././././.X * n | Q N m l l M Q ' ,.r.r.` > + /./././././././././././././././././././././././././././.",
"/./././././././././././././././.  X < n ' ] ~ N l l N P ] <.4.4.r.<.` J +   /./././././././././././././././././././././././././.",
"/./././././././././././././././.  X z o.<.,.~ N l M Q ' <.4.4.4.4.r.r.) %   /./././././././././././././././././././././././././.",
"/./././././././././././././././.  $ Y 8.4.,.~ V M Q ;.q.r.4.4.4.4.r.r.) %   /./././././././././././././././././././././././././.",
"/./././././././././././././././.  $ ) r.r.,.Q P Q ;.t.p.u.r.4.4.4.r.r.) *   /./././././././././././././././././././././././././.",
"/./././././././././././././././.  $ ) p.p.9.~ Q 6.i.h.d.p.u.u.u.r.4.r.( +   /./././././././././././././././././././././././././.",
"/./././././././././././././././.  $ ) p.d.q.~ ~ i.B.B.n.d.d.d.p.r.r.r.( +   /./././././././././././././././././././././././././.",
"/./././././././././././././././.  $ ` d.M.y.|  .i.B.B.B.M.M.M.d.a.p.r.( $   /./././././././././././././././././././././././././.",
"/./././././././././././././././.  O K &.&.&.' -.9.t.2.&.1.#.1.2.p.a.p.( $   /./././././././././././././././././././././././././.",
"/./././././././././././././././.  . o % $ q &.w.-.L > $ $ $ $ w 3.n.p.) =   /./././././././././././././././././././././././././.",
"/./././././././././././././././.  . * 5 = i 3.i...x > : 6 - & w 3.a.>.K +   /./././././././././././././././././././././././././.",
"/./././././././././././././././.  - s.U.m.b.n.y.~ ~ +.m.U.J.t.2.d.3.q + /./././././././././././././././././././././././././././.",
"/./././././././././././././././.  6 J.^.!.Y.C.i.~ O.N.Q.^.~.I.B.B.&.%   /./././././././././././././././././././././././././././.",
"/./././././././././././././././.  = 3.G.Z.C.B.y.~  .j.A.I.J.V.B.B.1.&       /./././././././././././././././././././././././././.",
"/./././././././././././././././.  % _ d.n.n.M.i.-.X.0.y.i.y.d.B.n.>.: . . . /./././././././././././././././././././././././././.",
"/./././././././././././././././.  % _ d.d.B.M.h.i.9.-.~ ~ -.i.M.a.>.p < 8 4 .   /./././././././././././././././././././././././.",
"/./././././././././././././././.  % ` n.V.V.B.B.A.k.;.~ O.:.y.t.3._ Z p Z 0 % X /./././././././././././././././././././././././.",
"/./././././././././././././././.  $ ) M.R.E.C.V.W.R.h.g.J.c.6.~ I Z a C C C 0 4 X   /./././././././././././././././././././././.",
"/./././././././././././././././.  + K <.P.E.P.G.K.K.J.J.L.c. .v c 0 0 0 Z Z Z 9 o   /./././././././././././././././././././././.",
"/./././././././././././././././././.O q >.S.W.T.l.z.T.T.x.{ B c 0 0 0 a Z Z Z 9 @   /./././././././././././././././././././././.",
"/./././././././././././././././././.  o J 4.I.T.l.l.v.v.{ g c 0 u c 0 a Z Z A 9 X   /./././././././././././././././././././././.",
"/./././././././././././././././././././.+ q <.e.H h l.} V k 0 u u 0 0 a C Z Z 9 X   /./././././././././././././././././././././.",
"/./././././././././././././././././././.  + K ] G g g D c 0 a u 0 C Z R A Z A 9 o   /./././././././././././././././././././././.",
"/./././././././././././././././././././.  o p I v k k k c u 0 u 0 Z 2.2.R A Z 9 X   /./././././././././././././././././././././.",
"/./././././././././././././././././././.  O 9 Z C 0 0 0 0 0 0 c Z @.2.2.R Z Z 9 o   /./././././././././././././././././././././.",
"/./././././././././././././././././././.  . 9 Z Z a 9 8 r 8 8 Z &.2.E Z Z Z A 9 X   /./././././././././././././././././././././.",
"/./././././././././././././././././././.  X 9 A Z C k r 8 4 2 u &.&.u 8 c Z Z 9 X   /./././././././././././././././././././././.",
"/./././././././././././././././././././.  X 9 Z Z S D f 1 ; ; 8 r r 7 7 s A Z 9 o   /./././././././././././././././././././././.",
"/./././././././././././././././././././.  . 9 Z Z S H F x r r r r r r p C Z Z 9 X   /./././././././././././././././././././././.",
"/./././././././././././././././././././.  X 9 Z Z A  ...' ! / / / / / T Z Z Z 8 X   /./././././././././././././././././././././.",
"/./././././././././././././././././././.  @ Z @.@.@.o.;.;.o.o.o.o.o.;.;.$.@.@.s @   /./././././././././././././././././././././.",
"/./././././././././././././././././././.  & &.k.s.i.6.o.o.o.X.' o.o.;.6.y.s.s.&.&   /./././././././././././././././././././././.",
"/./././././././././././././././././././.  & W 2.5.2.6.:.o.o.o.o.;.:.;.0.h.k.k.#.&   /./././././././././././././././././././././.",
"/./././././././././././././././././././././.& = & e ] 0.7.o.7.0.0.0.0.0.9.;.=.s @   /./././././././././././././././././././././.",
"/./././././././././././././././././././././.      @ I / T ! ;.0.0.0.0.-.I Z @.a X   /./././././././././././././././././././././.",
"/./././././././././././././././././././././././././.# # # > ! 7.+.7.;.! * 5 @.@.#   /./././././././././././././././././././././.",
"/./././././././././././././././././././././././././.      + T 6.;.] L 2 . @ a Z #   /./././././././././././././././././././././.",
"/./././././././././././././././././././././././././././.  @ #.a.i.&.> . /./.# # /./././././././././././././././././././././././.",
"/./././././././././././././././././././././././././././.& w 2.B.n.&.%   /./.    /./././././././././././././././././././././././.",
"/./././././././././././././././././././././././././.  & #.5.k.V.B.&.%   /./././././././././././././././././././././././././././.",
"/./././././././././././././././././././././././././.  $ #.s.s.u.5.W $   /./././././././././././././././././././././././././././.",
"/./././././././././././././././././././././././././.  . : i w q q = .   /./././././././././././././././././././././././././././.",
"/./././././././././././././././././././././././././././././././././././././././././././././././././././././././././././././././.",
"/./././././././././././././././././././././././././././././././././././././././././././././././././././././././././././././././.",
"/./././././././././././././././././././././././././././././././././././././././././././././././././././././././././././././././."
};
