/* XPM */
static char *result[] = {
/* columns rows colors chars-per-pixel */
"64 64 181 2 ",
"   c #000000",
".  c #090706",
"X  c #0A0807",
"o  c #0E0C0B",
"O  c #160300",
"+  c #180602",
"@  c #120907",
"#  c #120D0B",
"$  c #0F120D",
"%  c #14140D",
"&  c #13180F",
"*  c #151411",
"=  c #161A12",
"-  c #191C15",
";  c #1C1613",
":  c #231C15",
">  c #241D19",
",  c #3C1E18",
"<  c #1E221A",
"1  c #25251B",
"2  c #2A231E",
"3  c #23281B",
"4  c #2B2A1C",
"5  c #2D2116",
"6  c #312016",
"7  c #362219",
"8  c #3D231B",
"9  c #342F1F",
"0  c #3D2B1F",
"q  c #28301F",
"w  c #2C2421",
"e  c #272820",
"r  c #292C22",
"t  c #332A25",
"y  c #352C28",
"u  c #392F2B",
"i  c #352A25",
"p  c #2C3225",
"a  c #2F3629",
"s  c #363121",
"d  c #393225",
"f  c #34352A",
"g  c #3C312C",
"h  c #3C392E",
"j  c #333E27",
"k  c #3E3A32",
"l  c #48160B",
"z  c #422A1F",
"x  c #5F2C1E",
"c  c #5F301D",
"v  c #6C2C1B",
"b  c #60301D",
"n  c #7F311B",
"m  c #452D24",
"M  c #4B2F27",
"N  c #522E24",
"B  c #4C3225",
"V  c #42302A",
"C  c #4A352A",
"Z  c #453E2B",
"A  c #4C3C2A",
"S  c #463626",
"D  c #553126",
"F  c #563528",
"G  c #593729",
"H  c #54392B",
"J  c #5B3A2B",
"K  c #413631",
"L  c #453B35",
"P  c #483D35",
"I  c #513D30",
"U  c #663B26",
"Y  c #37432B",
"T  c #38432D",
"R  c #4D432F",
"E  c #41462E",
"W  c #5C422F",
"Q  c #434030",
"!  c #4D4631",
"~  c #4E4832",
"^  c #4B443B",
"/  c #434D3A",
"(  c #4F4C3F",
")  c #464C32",
"_  c #5D4633",
"`  c #534C36",
"'  c #5D4935",
"]  c #564F39",
"[  c #465537",
"{  c #475539",
"}  c #4A563B",
"|  c #4D5B3E",
" . c #5D543A",
".. c #55583F",
"X. c #5D5B3E",
"o. c #55563C",
"O. c #784026",
"+. c #76442D",
"@. c #78452F",
"#. c #604B36",
"$. c #624C39",
"%. c #665237",
"&. c #62543C",
"*. c #6B553C",
"=. c #635B3E",
"-. c #656F3E",
";. c #524D42",
":. c #4F5B43",
">. c #555243",
",. c #535C45",
"<. c #585A46",
"1. c #595E49",
"2. c #645740",
"3. c #655C42",
"4. c #6C5E44",
"5. c #556345",
"6. c #5C6645",
"7. c #5D6A46",
"8. c #546048",
"9. c #5A664C",
"0. c #5D6A4E",
"q. c #5E734A",
"w. c #5E6B51",
"e. c #666346",
"r. c #6A6145",
"t. c #65654B",
"y. c #6D664B",
"u. c #656C4D",
"i. c #6C694D",
"p. c #616C47",
"a. c #736E49",
"s. c #61754C",
"d. c #6A744F",
"f. c #656D53",
"g. c #6A6E53",
"h. c #726F54",
"j. c #647452",
"k. c #6B7355",
"l. c #667953",
"z. c #687A56",
"x. c #6B745C",
"c. c #6C7C5B",
"v. c #737658",
"b. c #747B5C",
"n. c #717953",
"m. c #717C61",
"M. c #82432A",
"N. c #895E41",
"B. c #8B6243",
"V. c #8B7959",
"C. c #927655",
"Z. c #6B814C",
"A. c #6F815D",
"S. c #758854",
"D. c #71815E",
"F. c #7D8A53",
"G. c #738361",
"H. c #788765",
"J. c #778B61",
"K. c #7A8A64",
"L. c #7A8B68",
"P. c #7E9267",
"I. c #8E825D",
"U. c #878161",
"Y. c #838D67",
"T. c #888967",
"R. c #848B6B",
"E. c #948B67",
"W. c #938E69",
"Q. c #83916C",
"!. c #8A936F",
"~. c #839C60",
"^. c #95916B",
"/. c #8E9A72",
"(. c #8D9671",
"). c #909C73",
"_. c #95AC6F",
"`. c #95AE70",
"'. c #A2AD89",
"]. c #A9B78A",
"[. c None",
/* pixels */
"[.[.[.[.[.[.[.[.[.[.[.[.[.[.[.[.[.[.[.[.[.[.[.[.[.[.[.[.[.[.[.[.[.[.[.[.[.[.[.[.[.[.[.[.[.[.[.[.[.[.[.[.[.[.[.[.[.[.[.[.[.[.[.[.",
"[.[.[.[.[.[.[.[.[.[.[.[.[.[.[.[.[.[.[.[.[.[.[.[.[.[.[.[.[.[.[.[.[.[.[.[.[.[.[.[.[.[.[.[.[.[.[.[.[.[.[.[.[.[.[.[.[.[.[.[.[.[.[.[.",
"[.[.[.[.[.[.[.[.[.[.[.[.[.[.[.[.[.[.[.[.[.[.[.[.[.[.[.[.[.[.[.[.[.[.[.[.[.[.[.[.[.[.[.[.[.[.[.[.[.[.[.[.[.[.[.[.[.[.[.[.[.[.[.[.",
"[.[.[.[.[.[.[.[.[.[.[.[.[.[.[.[.[.[.[.[.[.[.[.[.[.[.[.[.[.[.[.[.[.[.[.[.[.[.[.[.[.[.[.[.[.[.[.[.[.[.[.[.[.[.[.[.[.[.[.[.[.[.[.[.",
"[.[.[.[.[.[.[.[.[.[.[.[.[.[.[.[.[.[.[.[.[.[.[.[.[.[.[.[.[.[.[.[.[.[.[.[.[.[.[.[.[.[.[.[.[.[.[.[.[.[.[.[.[.[.[.[.[.[.[.[.[.[.[.[.",
"[.[.[.[.[.[.[.[.[.[.[.[.[.[.[.[.[.[.[.[.[.[.[.[.[.[.[.[.[.[.[.[.[.[.[.[.[.[.[.[.[.[.[.[.[.[.[.[.[.[.[.[.[.[.[.[.[.[.[.[.[.[.[.[.",
"[.[.[.[.[.[.[.[.[.[.[.[.[.[.[.[.[.[.[.[.[.[.[.[.[.[.[.[.[.[.[.[.[.[.[.[.[.[.[.[.[.[.[.[.[.[.[.[.[.[.[.[.[.[.[.[.[.[.[.[.[.[.[.[.",
"[.[.[.[.[.[.[.[.[.[.[.[.[.[.[.[.[.[.[.[.[.[.[.[.[.[.[.[.[.[.[.[.[.[.[.[.[.[.[.[.[.[.[.[.[.[.[.[.[.[.[.[.[.[.[.[.[.[.[.[.[.[.[.[.",
"[.[.[.[.[.[.[.[.[.[.[.[.[.[.[.[.[.[.[.[.[.[.[.[.[.[.[.[.[.[.[.[.[.[.[.[.[.[.[.[.[.[.[.[.[.[.[.[.[.[.[.[.[.[.[.[.[.[.[.[.[.[.[.[.",
"[.[.[.[.[.[.[.[.[.[.[.[.[.[.[.[.[.[.[.[.[.[.[.[.[.[.[.[.[.[.[.[.[.[.[.[.[.[.[.[.[.[.[.[.[.[.[.[.[.[.[.[.[.[.[.[.[.[.[.[.[.[.[.[.",
"[.[.[.[.[.[.[.[.[.[.[.[.[.[.[.[.[.[.[.[.[.[.[.[.[.[.[.[.[.[.[.[.[.[.[.[.[.[.[.[.[.[.[.[.[.[.[.[.[.[.[.[.[.[.[.[.[.[.[.[.[.[.[.[.",
"[.[.[.[.[.[.[.[.[.[.[.[.[.[.[.[.[.[.[.[.[.[.[.[.[.[.[.[.[.[.[.[.[.[.[.[.[.[.[.[.[.[.[.[.[.[.[.[.[.[.[.[.[.[.[.[.[.[.[.[.[.[.[.[.",
"[.[.[.[.[.[.[.[.[.[.[.[.[.[.[.[.[.[.[.[.[.[.                    [.[.[.[.[.[.[.[.[.[.[.[.[.[.[.[.[.[.[.[.[.[.[.[.[.[.[.[.[.[.[.[.",
"[.[.[.[.[.[.[.[.[.[.[.[.[.[.[.[.[.[.[.[.[.[.# @ % @ @ @ + % % + [.[.[.[.[.[.[.[.[.[.[.[.[.[.[.[.[.[.[.[.[.[.[.[.[.[.[.[.[.[.[.[.",
"[.[.[.[.[.[.[.[.[.[.[.[.[.[.[.[.[.[.[.[.  # 7 m z 8 z 8 z z z 7 @   [.[.[.[.[.[.[.[.[.[.[.[.[.[.[.[.[.[.[.[.[.[.[.[.[.[.[.[.[.[.",
"[.[.[.[.[.[.[.[.[.[.[.[.[.[.[.[.[.[.[.[.@ : B J N N N N J W _ R 4 % [.[.[.[.[.[.[.[.[.[.[.[.[.[.[.[.[.[.[.[.[.[.[.[.[.[.[.[.[.[.",
"[.[.[.[.[.[.[.[.[.[.[.[.[.[.[.[.[.[.  # 7 B F J D N N D G _ X.7.| Y &   [.[.[.[.[.[.[.[.[.[.[.[.[.[.[.[.[.[.[.[.[.[.[.[.[.[.[.[.",
"[.[.[.[.[.[.[.[.[.[.[.[.[.[.[.[.[.[.@ : A #.W G D N N F W  .7.q.s.| q & [.[.[.[.[.[.[.[.[.[.[.[.[.[.[.[.[.[.[.[.[.[.[.[.[.[.[.[.",
"[.[.[.[.[.[.[.[.[.[.[.[.[.[.[.[.  @ 7 A X.X._ G N N F W X.7.7.q.s.7.| Y =   [.[.[.[.[.[.[.[.[.[.[.[.[.[.[.[.[.[.[.[.[.[.[.[.[.[.",
"[.[.[.[.[.[.[.[.[.[.[.[.[.[.[.[.  % S &.7.6.' G D F W  .7.q.q.q.q.q.l.{ =   [.[.[.[.[.[.[.[.[.[.[.[.[.[.[.[.[.[.[.[.[.[.[.[.[.[.",
"[.[.[.[.[.[.[.[.[.[.[.[.[.[.[.[.  = ) p.s.6.' J F _ <.u.q.q.q.q.q.q.s.[ =   [.[.[.[.[.[.[.[.[.[.[.[.[.[.[.[.[.[.[.[.[.[.[.[.[.[.",
"[.[.[.[.[.[.[.[.[.[.[.[.[.[.[.[.  & [ s.s.6._ W ' 2.g.z.j.q.q.q.q.q.s.[ =   [.[.[.[.[.[.[.[.[.[.[.[.[.[.[.[.[.[.[.[.[.[.[.[.[.[.",
"[.[.[.[.[.[.[.[.[.[.[.[.[.[.[.[.  = [ l.l.p._ #.t.k.c.c.z.j.j.j.q.s.s.[ &   [.[.[.[.[.[.[.[.[.[.[.[.[.[.[.[.[.[.[.[.[.[.[.[.[.[.",
"[.[.[.[.[.[.[.[.[.[.[.[.[.[.[.[.  = [ l.c.u._ #.k.G.G.D.c.c.c.z.l.s.s.[ -   [.[.[.[.[.[.[.[.[.[.[.[.[.[.[.[.[.[.[.[.[.[.[.[.[.[.",
"[.[.[.[.[.[.[.[.[.[.[.[.[.[.[.[.  - | A.A.g._ $.k.G.G.G.G.D.G.c.l.l.s.[ &   [.[.[.[.[.[.[.[.[.[.[.[.[.[.[.[.[.[.[.[.[.[.[.[.[.[.",
"[.[.[.[.[.[.[.[.[.[.[.[.[.[.[.[.  & T :.,.,. .&.t.f.9.,.,.,.,.9.j.l.l.{ =   [.[.[.[.[.[.[.[.[.[.[.[.[.[.[.[.[.[.[.[.[.[.[.[.[.[.",
"[.[.[.[.[.[.[.[.[.[.[.[.[.[.[.[.  . $ = = p <.i.*.R 1 - = = * a 9.A.l.[ =   [.[.[.[.[.[.[.[.[.[.[.[.[.[.[.[.[.[.[.[.[.[.[.[.[.[.",
"[.[.[.[.[.[.[.[.[.[.[.[.[.[.[.[.  X 1 4 3 Y 0.k.$.B 4 3 r e - a 0.z.5.Y &   [.[.[.[.[.[.[.[.[.[.[.[.[.[.[.[.[.[.[.[.[.[.[.[.[.[.",
"[.[.[.[.[.[.[.[.[.[.[.[.[.[.[.[.  1 x.!.S.l.A.g.' ' -.S.!.R.f.9.c.0.a % [.[.[.[.[.[.[.[.[.[.[.[.[.[.[.[.[.[.[.[.[.[.[.[.[.[.[.[.",
"[.[.[.[.[.[.[.[.[.[.[.[.[.[.[.[.  r R.]._.~.J.g.' %.F._.].'.Q.G.D.8.=   [.[.[.[.[.[.[.[.[.[.[.[.[.[.[.[.[.[.[.[.[.[.[.[.[.[.[.[.",
"[.[.[.[.[.[.[.[.[.[.[.[.[.[.[.[.  < w.R.P.S.H.g.' $.n.P.Q.P.H.G.G.8.-       [.[.[.[.[.[.[.[.[.[.[.[.[.[.[.[.[.[.[.[.[.[.[.[.[.[.",
"[.[.[.[.[.[.[.[.[.[.[.[.[.[.[.[.  - } c.c.D.D.k.3.&.t.g.g.k.c.G.A.8.3 o o % [.[.[.[.[.[.[.[.[.[.[.[.[.[.[.[.[.[.[.[.[.[.[.[.[.[.",
"[.[.[.[.[.[.[.[.[.[.[.[.[.[.[.[.  - | z.A.b.D.b.k.y.2.' _ 2.k.G.z.5.h w t w o   [.[.[.[.[.[.[.[.[.[.[.[.[.[.[.[.[.[.[.[.[.[.[.[.",
"[.[.[.[.[.[.[.[.[.[.[.[.[.[.[.[.  - | A.H.K.D.D.L.m.2.$.*.4.g.g.6...Q K L y #   [.[.[.[.[.[.[.[.[.[.[.[.[.[.[.[.[.[.[.[.[.[.[.[.",
"[.[.[.[.[.[.[.[.[.[.[.[.[.[.[.[.  = { D././.H.H./.(.b.v.T.V.4.' ! L L L L y $   [.[.[.[.[.[.[.[.[.[.[.[.[.[.[.[.[.[.[.[.[.[.[.[.",
"[.[.[.[.[.[.[.[.[.[.[.[.[.[.[.[.  & Y 6.Y./.Q.Y.W.W.R.Q.W.V.$.C g g k L L y #   [.[.[.[.[.[.[.[.[.[.[.[.[.[.[.[.[.[.[.[.[.[.[.[.",
"[.[.[.[.[.[.[.[.[.[.[.[.[.[.[.[.[.[.& p 6.K.).E.N.N.W.^.B.@.G u u K L L P y $   [.[.[.[.[.[.[.[.[.[.[.[.[.[.[.[.[.[.[.[.[.[.[.[.",
"[.[.[.[.[.[.[.[.[.[.[.[.[.[.[.[.[.[.  % E d.Q.I.M.M.C.V.@.N M u u g K L P y $   [.[.[.[.[.[.[.[.[.[.[.[.[.[.[.[.[.[.[.[.[.[.[.[.",
"[.[.[.[.[.[.[.[.[.[.[.[.[.[.[.[.[.[.  # 0  .l.a.n n M.@.G M u g g K L L L y o   [.[.[.[.[.[.[.[.[.[.[.[.[.[.[.[.[.[.[.[.[.[.[.[.",
"[.[.[.[.[.[.[.[.[.[.[.[.[.[.[.[.[.[.  @ , H o.<.U v v b V g u g g g L L L y *   [.[.[.[.[.[.[.[.[.[.[.[.[.[.[.[.[.[.[.[.[.[.[.[.",
"[.[.[.[.[.[.[.[.[.[.[.[.[.[.[.[.[.[.  @ , B P L C M M M g g g d u K K L L y $   [.[.[.[.[.[.[.[.[.[.[.[.[.[.[.[.[.[.[.[.[.[.[.[.",
"[.[.[.[.[.[.[.[.[.[.[.[.[.[.[.[.[.[.o : C I d w y u g u g g Q L K K L K g w o   [.[.[.[.[.[.[.[.[.[.[.[.[.[.[.[.[.[.[.[.[.[.[.[.",
"[.[.[.[.[.[.[.[.[.[.[.[.[.[.[.[.  o e L 3.<.2 % w i y i t k ,.1.P L L u ; o [.[.[.[.[.[.[.[.[.[.[.[.[.[.[.[.[.[.[.[.[.[.[.[.[.[.",
"[.[.[.[.[.[.[.[.[.[.[.[.[.[.[.[.  # t ;.f.,.- . ; 2 t t t L f.f.;.L L y $   [.[.[.[.[.[.[.[.[.[.[.[.[.[.[.[.[.[.[.[.[.[.[.[.[.[.",
"[.[.[.[.[.[.[.[.[.[.[.[.[.[.[.[.  o y ;.;.k *   . % 2 i t L w.k.;.L L y o   [.[.[.[.[.[.[.[.[.[.[.[.[.[.[.[.[.[.[.[.[.[.[.[.[.[.",
"[.[.[.[.[.[.[.[.[.[.[.[.[.[.[.[.  o y L L y *     . > t w g :.<.^ L L y *   [.[.[.[.[.[.[.[.[.[.[.[.[.[.[.[.[.[.[.[.[.[.[.[.[.[.",
"[.[.[.[.[.[.[.[.[.[.[.[.[.[.[.[.  * y L L y o     . > w w t d h K L L y o   [.[.[.[.[.[.[.[.[.[.[.[.[.[.[.[.[.[.[.[.[.[.[.[.[.[.",
"[.[.[.[.[.[.[.[.[.[.[.[.[.[.[.[.  o y L L y $   % : t d d d d g K L L u > o [.[.[.[.[.[.[.[.[.[.[.[.[.[.[.[.[.[.[.[.[.[.[.[.[.[.",
"[.[.[.[.[.[.[.[.[.[.[.[.[.[.[.[.  o y L L y o # d ~ ` ] ] ] ] ` P K L L Z s %   [.[.[.[.[.[.[.[.[.[.[.[.[.[.[.[.[.[.[.[.[.[.[.[.",
"[.[.[.[.[.[.[.[.[.[.[.[.[.[.[.[.  * k >.>.k * * ! r.r.=.=.=.=.=.;.;.;.>. .Z %   [.[.[.[.[.[.[.[.[.[.[.[.[.[.[.[.[.[.[.[.[.[.[.[.",
"[.[.[.[.[.[.[.[.[.[.[.[.[.[.[.[.  - ,.m.m.>.- * A -.=.=. . .=.e.g.x.v.g.3.Q %   [.[.[.[.[.[.[.[.[.[.[.[.[.[.[.[.[.[.[.[.[.[.[.[.",
"[.[.[.[.[.[.[.[.[.[.[.[.[.[.[.[.  - ;.w.w./ * * ~ r.r.=.=.=.=.i.b.H.D.f.` s %   [.[.[.[.[.[.[.[.[.[.[.[.[.[.[.[.[.[.[.[.[.[.[.[.",
"[.[.[.[.[.[.[.[.[.[.[.[.[.[.[.[.[.[.- < < =   ; ] y.r.3.r.y.y.i.h.h.i.~ e o [.[.[.[.[.[.[.[.[.[.[.[.[.[.[.[.[.[.[.[.[.[.[.[.[.[.",
"[.[.[.[.[.[.[.[.[.[.[.[.[.[.[.[.[.[.          - L  .%.*.r.y.y.y.y.2.~ s *   [.[.[.[.[.[.[.[.[.[.[.[.[.[.[.[.[.[.[.[.[.[.[.[.[.[.",
"[.[.[.[.[.[.[.[.[.[.[.[.[.[.[.[.[.[.[.[.[.[.[.[.* 6 b +.*.r.r.r.3.~ 1 # [.[.[.[.[.[.[.[.[.[.[.[.[.[.[.[.[.[.[.[.[.[.[.[.[.[.[.[.",
"[.[.[.[.[.[.[.[.[.[.[.[.[.[.[.[.[.[.[.[.[.[.[.[.  + l b %.e.e.X.~ s #   [.[.[.[.[.[.[.[.[.[.[.[.[.[.[.[.[.[.[.[.[.[.[.[.[.[.[.[.",
"[.[.[.[.[.[.[.[.[.[.[.[.[.[.[.[.[.[.[.[.[.[.[.[.[.[.O 1 ..k.z.,.4 # [.[.[.[.[.[.[.[.[.[.[.[.[.[.[.[.[.[.[.[.[.[.[.[.[.[.[.[.[.[.",
"[.[.[.[.[.[.[.[.[.[.[.[.[.[.[.[.[.[.[.[.[.[.[.[.[.[.= a 0.G.D.:.-   [.[.[.[.[.[.[.[.[.[.[.[.[.[.[.[.[.[.[.[.[.[.[.[.[.[.[.[.[.[.",
"[.[.[.[.[.[.[.[.[.[.[.[.[.[.[.[.[.[.[.[.[.[.[.[.  - :.w.m.H.G.:.-   [.[.[.[.[.[.[.[.[.[.[.[.[.[.[.[.[.[.[.[.[.[.[.[.[.[.[.[.[.[.",
"[.[.[.[.[.[.[.[.[.[.[.[.[.[.[.[.[.[.[.[.[.[.[.[.  - :.x.x.j.w./ =   [.[.[.[.[.[.[.[.[.[.[.[.[.[.[.[.[.[.[.[.[.[.[.[.[.[.[.[.[.[.",
"[.[.[.[.[.[.[.[.[.[.[.[.[.[.[.[.[.[.[.[.[.[.[.[.  o e a a p p < X   [.[.[.[.[.[.[.[.[.[.[.[.[.[.[.[.[.[.[.[.[.[.[.[.[.[.[.[.[.[.",
"[.[.[.[.[.[.[.[.[.[.[.[.[.[.[.[.[.[.[.[.[.[.[.[.[.[.[.[.[.[.[.[.[.[.[.[.[.[.[.[.[.[.[.[.[.[.[.[.[.[.[.[.[.[.[.[.[.[.[.[.[.[.[.[.",
"[.[.[.[.[.[.[.[.[.[.[.[.[.[.[.[.[.[.[.[.[.[.[.[.[.[.[.[.[.[.[.[.[.[.[.[.[.[.[.[.[.[.[.[.[.[.[.[.[.[.[.[.[.[.[.[.[.[.[.[.[.[.[.[.",
"[.[.[.[.[.[.[.[.[.[.[.[.[.[.[.[.[.[.[.[.[.[.[.[.[.[.[.[.[.[.[.[.[.[.[.[.[.[.[.[.[.[.[.[.[.[.[.[.[.[.[.[.[.[.[.[.[.[.[.[.[.[.[.[."
};
