/* XPM */
static char *result[] = {
/* columns rows colors chars-per-pixel */
"64 64 181 2 ",
"   c #000000",
".  c #0A0807",
"X  c #0E0C0A",
"o  c #120D0A",
"O  c #1A0602",
"+  c #0F120D",
"@  c #14140D",
"#  c #1A160F",
"$  c #13180F",
"%  c #151311",
"&  c #161A12",
"*  c #1A1C16",
"=  c #1D1D19",
"-  c #1C1714",
";  c #241C14",
":  c #261F1B",
">  c #2E1E14",
",  c #1D2119",
"<  c #23231B",
"1  c #2A231E",
"2  c #222818",
"3  c #2D2A19",
"4  c #362219",
"5  c #3C221B",
"6  c #28301F",
"7  c #2A2421",
"8  c #272821",
"9  c #2B2C23",
"0  c #332A24",
"q  c #352C28",
"w  c #392F2A",
"e  c #2D3425",
"r  c #363121",
"t  c #3D3927",
"y  c #37302D",
"u  c #3C312C",
"i  c #333E27",
"p  c #3D3630",
"a  c #3E3A31",
"s  c #5D1F0F",
"d  c #422A1F",
"f  c #5E2C1D",
"g  c #6C2C1B",
"h  c #6F331E",
"j  c #7F311B",
"k  c #452D24",
"l  c #4B2F26",
"z  c #522E24",
"x  c #463527",
"c  c #4B3224",
"v  c #43322B",
"b  c #4A3329",
"n  c #453F2A",
"m  c #4C3C2A",
"M  c #553126",
"N  c #563528",
"B  c #593729",
"V  c #553A2A",
"C  c #5B3A2B",
"Z  c #423632",
"A  c #443B34",
"S  c #483C37",
"D  c #453D39",
"F  c #493D38",
"G  c #663B26",
"H  c #713F27",
"J  c #37432B",
"K  c #39442D",
"L  c #3E4835",
"P  c #46422E",
"I  c #4B432F",
"U  c #5C422F",
"Y  c #474137",
"T  c #4C4532",
"R  c #454D33",
"E  c #4E4932",
"W  c #4C463B",
"Q  c #4F4A3E",
"!  c #564033",
"~  c #5D4633",
"^  c #544C35",
"/  c #5D4934",
"(  c #554B3D",
")  c #465537",
"_  c #475638",
"`  c #4A553C",
"'  c #4C5B3D",
"]  c #54543C",
"[  c #5C553B",
"{  c #5D5A3D",
"}  c #794026",
"|  c #77442E",
" . c #78452F",
".. c #614B35",
"X. c #624C39",
"o. c #665337",
"O. c #62553C",
"+. c #635B3E",
"@. c #69523D",
"#. c #656F3E",
"$. c #4E4540",
"%. c #524B44",
"&. c #574D49",
"*. c #4A5340",
"=. c #4F5C42",
"-. c #565445",
";. c #535D46",
":. c #5B5941",
">. c #5E534E",
",. c #575E4A",
"<. c #5B5F4B",
"1. c #645740",
"2. c #655C42",
"3. c #6C5E44",
"4. c #605550",
"5. c #546345",
"6. c #5C6644",
"7. c #5D6A46",
"8. c #5A664C",
"9. c #5D6A4D",
"0. c #556149",
"q. c #5E734A",
"w. c #5F6550",
"e. c #5D6950",
"r. c #656244",
"t. c #696345",
"y. c #66654B",
"u. c #6C674B",
"i. c #646D4C",
"p. c #6C694D",
"a. c #616C47",
"s. c #726B4B",
"d. c #61754C",
"f. c #656D52",
"g. c #6B6E52",
"h. c #647552",
"j. c #6C7255",
"k. c #667953",
"l. c #697A56",
"z. c #6C745D",
"x. c #6C7C5B",
"c. c #707657",
"v. c #737658",
"b. c #757C5C",
"n. c #717953",
"m. c #737E61",
"M. c #82432A",
"N. c #895E41",
"B. c #8B6243",
"V. c #8B7959",
"C. c #927655",
"Z. c #6B814C",
"A. c #6F815D",
"S. c #758854",
"D. c #71815E",
"F. c #7D8A53",
"G. c #738361",
"H. c #788765",
"J. c #778B61",
"K. c #7A8A64",
"L. c #7A8B68",
"P. c #7E9267",
"I. c #8E825D",
"U. c #878161",
"Y. c #838D67",
"T. c #888967",
"R. c #848B6B",
"E. c #948B67",
"W. c #938E69",
"Q. c #83916D",
"!. c #8A936F",
"~. c #839C60",
"^. c #95916B",
"/. c #8E9A72",
"(. c #8D9671",
"). c #909C73",
"_. c #95AC6F",
"`. c #95AE70",
"'. c #A2AD89",
"]. c #A9B78A",
"[. c None",
/* pixels */
"[.[.[.[.[.[.[.[.[.[.[.[.[.[.[.[.[.[.[.[.[.[.[.[.[.[.[.[.[.[.[.[.[.[.[.[.[.[.[.[.[.[.[.[.[.[.[.[.[.[.[.[.[.[.[.[.[.[.[.[.[.[.[.[.",
"[.[.[.[.[.[.[.[.[.[.[.[.[.[.[.[.[.[.[.[.[.[.[.[.[.[.[.[.[.[.[.[.[.[.[.[.[.[.[.[.[.[.[.[.[.[.[.[.[.[.[.[.[.[.[.[.[.[.[.[.[.[.[.[.",
"[.[.[.[.[.[.[.[.[.[.[.[.[.[.[.[.[.[.[.[.[.[.[.[.[.[.[.[.[.[.[.[.[.[.[.[.[.[.[.[.[.[.[.[.[.[.[.[.[.[.[.[.[.[.[.[.[.[.[.[.[.[.[.[.",
"[.[.[.[.[.[.[.[.[.[.[.[.[.[.[.[.[.[.[.[.[.[.[.[.[.[.[.[.[.[.[.[.[.[.[.[.[.[.[.[.[.[.[.[.[.[.[.[.[.[.[.[.[.[.[.[.[.[.[.[.[.[.[.[.",
"[.[.[.[.[.[.[.[.[.[.[.[.[.[.[.[.[.[.[.[.[.[.[.[.[.[.[.[.[.[.[.[.[.[.[.[.[.[.[.[.[.[.[.[.[.[.[.[.[.[.[.[.[.[.[.[.[.[.[.[.[.[.[.[.",
"[.[.[.[.[.[.[.[.[.[.[.[.[.[.[.[.[.[.[.[.[.[.[.[.[.[.[.[.[.[.[.[.[.[.[.[.[.[.[.[.[.[.[.[.[.[.[.[.[.[.[.[.[.[.[.[.[.[.[.[.[.[.[.[.",
"[.[.[.[.[.[.[.[.[.[.[.[.[.[.[.[.[.[.[.[.[.[.[.[.[.[.[.[.[.[.[.[.[.[.[.[.[.[.[.[.[.[.[.[.[.[.[.[.[.[.[.[.[.[.[.[.[.[.[.[.[.[.[.[.",
"[.[.[.[.[.[.[.[.[.[.[.[.[.[.[.[.[.[.[.[.[.[.[.[.[.[.[.[.[.[.[.[.[.[.[.[.[.[.[.[.[.[.[.[.[.[.[.[.[.[.[.[.[.[.[.[.[.[.[.[.[.[.[.[.",
"[.[.[.[.[.[.[.[.[.[.[.[.[.[.[.[.[.[.[.[.[.[.[.[.[.[.[.[.[.[.[.[.[.[.[.[.[.[.[.[.[.[.[.[.[.[.[.[.[.[.[.[.[.[.[.[.[.[.[.[.[.[.[.[.",
"[.[.[.[.[.[.[.[.[.[.[.[.[.[.[.[.[.[.[.[.[.[.[.[.[.[.[.[.[.[.[.[.[.[.[.[.[.[.[.[.[.[.[.[.[.[.[.[.[.[.[.[.[.[.[.[.[.[.[.[.[.[.[.[.",
"[.[.[.[.[.[.[.[.[.[.[.[.[.[.[.[.[.[.[.[.                    [.[.[.[.[.[.[.[.[.[.[.[.[.[.[.[.[.[.[.[.[.[.[.[.[.[.[.[.[.[.[.[.[.[.",
"[.[.[.[.[.[.[.[.[.[.[.[.[.[.[.[.[.[.[.[.o o o o O o o o o o [.[.[.[.[.[.[.[.[.[.[.[.[.[.[.[.[.[.[.[.[.[.[.[.[.[.[.[.[.[.[.[.[.[.",
"[.[.[.[.[.[.[.[.[.[.[.[.[.[.[.[.[.[.  o 4 d 5 5 5 d d k d 4 o   [.[.[.[.[.[.[.[.[.[.[.[.[.[.[.[.[.[.[.[.[.[.[.[.[.[.[.[.[.[.[.[.",
"[.[.[.[.[.[.[.[.[.[.[.[.[.[.[.[.[.[.o ; m C M z z N C G ~ I 3 @ [.[.[.[.[.[.[.[.[.[.[.[.[.[.[.[.[.[.[.[.[.[.[.[.[.[.[.[.[.[.[.[.",
"[.[.[.[.[.[.[.[.[.[.[.[.[.[.[.[.  o 4 c B C M z z M B ~ { 6.' J @   [.[.[.[.[.[.[.[.[.[.[.[.[.[.[.[.[.[.[.[.[.[.[.[.[.[.[.[.[.[.",
"[.[.[.[.[.[.[.[.[.[.[.[.[.[.[.[.o ; m ..U B z z z N ! [ 7.d.d.' 6 @ [.[.[.[.[.[.[.[.[.[.[.[.[.[.[.[.[.[.[.[.[.[.[.[.[.[.[.[.[.[.",
"[.[.[.[.[.[.[.[.[.[.[.[.[.[.  o 4 m { { / V M f M ! { 7.7.d.q.7.' K &   [.[.[.[.[.[.[.[.[.[.[.[.[.[.[.[.[.[.[.[.[.[.[.[.[.[.[.[.",
"[.[.[.[.[.[.[.[.[.[.[.[.[.[.  @ x O.7.6./ B z m ~ { a.q.q.q.q.d.d._ &   [.[.[.[.[.[.[.[.[.[.[.[.[.[.[.[.[.[.[.[.[.[.[.[.[.[.[.[.",
"[.[.[.[.[.[.[.[.[.[.[.[.[.[.  & R a.d.6./ C B U :.i.e.q.q.q.q.d.d._ &   [.[.[.[.[.[.[.[.[.[.[.[.[.[.[.[.[.[.[.[.[.[.[.[.[.[.[.[.",
"[.[.[.[.[.[.[.[.[.[.[.[.[.[.  & ) d.d.r./ C / 1.h.k.h.h.d.d.q.q.d._ &   [.[.[.[.[.[.[.[.[.[.[.[.[.[.[.[.[.[.[.[.[.[.[.[.[.[.[.[.",
"[.[.[.[.[.[.[.[.[.[.[.[.[.[.  & _ d.k.y./ / y.j.x.x.l.h.h.h.q.d.d._ $   [.[.[.[.[.[.[.[.[.[.[.[.[.[.[.[.[.[.[.[.[.[.[.[.[.[.[.[.",
"[.[.[.[.[.[.[.[.[.[.[.[.[.[.  & _ k.x.i./ / j.G.G.G.x.l.x.l.h.d.d._ ,   [.[.[.[.[.[.[.[.[.[.[.[.[.[.[.[.[.[.[.[.[.[.[.[.[.[.[.[.",
"[.[.[.[.[.[.[.[.[.[.[.[.[.[.  * ' A.D.g./ / j.G.G.G.G.G.A.x.h.h.d._ $   [.[.[.[.[.[.[.[.[.[.[.[.[.[.[.[.[.[.[.[.[.[.[.[.[.[.[.[.",
"[.[.[.[.[.[.[.[.[.[.[.[.[.[.  & K =.0.-.[ O.u.f.8.=.=.=.0.8.h.x.k._ &   [.[.[.[.[.[.[.[.[.[.[.[.[.[.[.[.[.[.[.[.[.[.[.[.[.[.[.[.",
"[.[.[.[.[.[.[.[.[.[.[.[.[.[.    + & & 9 ;.p.1.V 1 & & & & e 8.A.k._ &   [.[.[.[.[.[.[.[.[.[.[.[.[.[.[.[.[.[.[.[.[.[.[.[.[.[.[.[.",
"[.[.[.[.[.[.[.[.[.[.[.[.[.[.  X < 8 , J 9.j.X.m 3 2 9 8 = e e.l.5.J &   [.[.[.[.[.[.[.[.[.[.[.[.[.[.[.[.[.[.[.[.[.[.[.[.[.[.[.[.",
"[.[.[.[.[.[.[.[.[.[.[.[.[.[.  < z.!.S.Z.A.g.X./ a.S.!.L.f.8.x.8.e $ [.[.[.[.[.[.[.[.[.[.[.[.[.[.[.[.[.[.[.[.[.[.[.[.[.[.[.[.[.[.",
"[.[.[.[.[.[.[.[.[.[.[.[.[.[.  9 R.].`.~.J.g./ o.I.`.].'.Q.G.A.0.,   [.[.[.[.[.[.[.[.[.[.[.[.[.[.[.[.[.[.[.[.[.[.[.[.[.[.[.[.[.[.",
"[.[.[.[.[.[.[.[.[.[.[.[.[.[.  , 9.R.P.J.G.g./ X.k.P.Q.Q.H.G.G.0.*   [.[.[.[.[.[.[.[.[.[.[.[.[.[.[.[.[.[.[.[.[.[.[.[.[.[.[.[.[.[.",
"[.[.[.[.[.[.[.[.[.[.[.[.[.[.  * ` l.x.A.A.j.1.O.a.g.g.j.x.A.D.=.*   [.[.[.[.[.[.[.[.[.[.[.[.[.[.[.[.[.[.[.[.[.[.[.[.[.[.[.[.[.[.",
"[.[.[.[.[.[.[.[.[.[.[.[.[.[.  * =.l.x.b.G.x.z.y.o./ ~ 1.z.A.l.` &   [.[.[.[.[.[.[.[.[.[.[.[.[.[.[.[.[.[.[.[.[.[.[.[.[.[.[.[.[.[.",
"[.[.[.[.[.[.[.[.[.[.[.[.[.[.  & ' x.L.L.G.G.L.b.2.X.@.3.g.g.7.R < X [.[.[.[.[.[.[.[.[.[.[.[.[.[.[.[.[.[.[.[.[.[.[.[.[.[.[.[.[.[.",
"[.[.[.[.[.[.[.[.[.[.[.[.[.[.  & _ D././.H.L./.(.b.v.T.U.3./ S A y 1 X   [.[.[.[.[.[.[.[.[.[.[.[.[.[.[.[.[.[.[.[.[.[.[.[.[.[.[.[.",
"[.[.[.[.[.[.[.[.[.[.[.[.[.[.  & J 7.Y./.R.Y.E.E.Y.R.^.C.X.c u Z A y - X [.[.[.[.[.[.[.[.[.[.[.[.[.[.[.[.[.[.[.[.[.[.[.[.[.[.[.[.",
"[.[.[.[.[.[.[.[.[.[.[.[.[.[.[.[.$ e 7.J./.W.N.B.^.^.B. .V v w Z A Z y 1 X   [.[.[.[.[.[.[.[.[.[.[.[.[.[.[.[.[.[.[.[.[.[.[.[.[.[.",
"[.[.[.[.[.[.[.[.[.[.[.[.[.[.[.[.  + P h.Q.I.M.M.C.C. .z k w u w A A F q o   [.[.[.[.[.[.[.[.[.[.[.[.[.[.[.[.[.[.[.[.[.[.[.[.[.[.",
"[.[.[.[.[.[.[.[.[.[.[.[.[.[.[.[.  X r ` h.s.} j M. .N k v w p Z Z D F q +   [.[.[.[.[.[.[.[.[.[.[.[.[.[.[.[.[.[.[.[.[.[.[.[.[.[.",
"[.[.[.[.[.[.[.[.[.[.[.[.[.[.[.[.  X 4 A ` [ G g g g v p w w w Z A Z w 7 o   [.[.[.[.[.[.[.[.[.[.[.[.[.[.[.[.[.[.[.[.[.[.[.[.[.[.",
"[.[.[.[.[.[.[.[.[.[.[.[.[.[.[.[.  o 4 b A m b l l l w u w Z p A S w = X [.[.[.[.[.[.[.[.[.[.[.[.[.[.[.[.[.[.[.[.[.[.[.[.[.[.[.[.",
"[.[.[.[.[.[.[.[.[.[.[.[.[.[.[.[.  % v V Z w p w p u u w w p Z A S q X   [.[.[.[.[.[.[.[.[.[.[.[.[.[.[.[.[.[.[.[.[.[.[.[.[.[.[.[.",
"[.[.[.[.[.[.[.[.[.[.[.[.[.[.[.[.  * -.y.Y w u u u u w u u u Z S A q X   [.[.[.[.[.[.[.[.[.[.[.[.[.[.[.[.[.[.[.[.[.[.[.[.[.[.[.[.",
"[.[.[.[.[.[.[.[.[.[.[.[.[.[.[.[.X 8 ,.w.a 9 w w u w w v S Y S A S q X   [.[.[.[.[.[.[.[.[.[.[.[.[.[.[.[.[.[.[.[.[.[.[.[.[.[.[.[.",
"[.[.[.[.[.[.[.[.[.[.[.[.[.[.  X 1 p W A - % 7 w 0 0 0 A ;.<.W A S q o   [.[.[.[.[.[.[.[.[.[.[.[.[.[.[.[.[.[.[.[.[.[.[.[.[.[.[.[.",
"[.[.[.[.[.[.[.[.[.[.[.[.[.[.  o q S S q o . - 1 9 0 0 A i.f.%.A S q +   [.[.[.[.[.[.[.[.[.[.[.[.[.[.[.[.[.[.[.[.[.[.[.[.[.[.[.[.",
"[.[.[.[.[.[.[.[.[.[.[.[.[.[.  X q F S q o   . % 1 0 0 A e.f.Q A A q o   [.[.[.[.[.[.[.[.[.[.[.[.[.[.[.[.[.[.[.[.[.[.[.[.[.[.[.[.",
"[.[.[.[.[.[.[.[.[.[.[.[.[.[.X - w Z w 7 X     . : 0 0 v ;.<.W A Z 7 X   [.[.[.[.[.[.[.[.[.[.[.[.[.[.[.[.[.[.[.[.[.[.[.[.[.[.[.[.",
"[.[.[.[.[.[.[.[.[.[.[.[.  X 7 w Z q * X [.[.  . < 0 0 u Y W D Z p : X   [.[.[.[.[.[.[.[.[.[.[.[.[.[.[.[.[.[.[.[.[.[.[.[.[.[.[.[.",
"[.[.[.[.[.[.[.[.[.[.[.[.  % a -.&.a %   [.[.% ; 0 u t A W %.%.$.A 0 - @ [.[.[.[.[.[.[.[.[.[.[.[.[.[.[.[.[.[.[.[.[.[.[.[.[.[.[.[.",
"[.[.[.[.[.[.[.[.[.[.[.[.  & ;.m.m.;.&     % t E ^ ^ ^ { f.z.x.g.{ ^ I r @   [.[.[.[.[.[.[.[.[.[.[.[.[.[.[.[.[.[.[.[.[.[.[.[.[.[.",
"[.[.[.[.[.[.[.[.[.[.[.[.  = *.e.e.` =     # ^ +.+.+.[ 2.j.b.m.c.t.+.+.n @   [.[.[.[.[.[.[.[.[.[.[.[.[.[.[.[.[.[.[.[.[.[.[.[.[.[.",
"[.[.[.[.[.[.[.[.[.[.[.[.[.[.= = , = [.[.  # T r.+.[ [ +.r.u.u.y.2.+.O.n @   [.[.[.[.[.[.[.[.[.[.[.[.[.[.[.[.[.[.[.[.[.[.[.[.[.[.",
"[.[.[.[.[.[.[.[.[.[.[.[.[.[.        [.[.  @ T 2.+.[ [ [ 2.3.2.3.t.{ ^ 3 @   [.[.[.[.[.[.[.[.[.[.[.[.[.[.[.[.[.[.[.[.[.[.[.[.[.[.",
"[.[.[.[.[.[.[.[.[.[.[.[.[.[.[.[.[.[.[.[.  @ I 2.+.+.[ [ t.u.u.u.s.( 1 o [.[.[.[.[.[.[.[.[.[.[.[.[.[.[.[.[.[.[.[.[.[.[.[.[.[.[.[.",
"[.[.[.[.[.[.[.[.[.[.[.[.[.[.[.[.[.[.[.[.@ 3 ^ 2.+.o./ ~ ^ [ 2.u.g.:.e $ [.[.[.[.[.[.[.[.[.[.[.[.[.[.[.[.[.[.[.[.[.[.[.[.[.[.[.[.",
"[.[.[.[.[.[.[.[.[.[.[.[.[.[.[.[.[.[.  @ t ^ O.+.+.o.H g 3 1 E #.i.i.5.L &   [.[.[.[.[.[.[.[.[.[.[.[.[.[.[.[.[.[.[.[.[.[.[.[.[.[.",
"[.[.[.[.[.[.[.[.[.[.[.[.[.[.[.[.[.[.  @ P 1.1.] E I h s O X r P ) 5.l.;.=   [.[.[.[.[.[.[.[.[.[.[.[.[.[.[.[.[.[.[.[.[.[.[.[.[.[.",
"[.[.[.[.[.[.[.[.[.[.[.[.[.[.[.[.[.[.  + p %.%.A < # [.[.[.[.@ @ @ e h.e.,   [.[.[.[.[.[.[.[.[.[.[.[.[.[.[.[.[.[.[.[.[.[.[.[.[.[.",
"[.[.[.[.[.[.[.[.[.[.[.[.[.[.[.[.[.[.% 7 S %.$.y o   [.[.[.[.      * *.*.=   [.[.[.[.[.[.[.[.[.[.[.[.[.[.[.[.[.[.[.[.[.[.[.[.[.[.",
"[.[.[.[.[.[.[.[.[.[.[.[.[.[.[.[.  % A &.>.>.%.y o   [.[.[.[.[.[.[.[., * [.[.[.[.[.[.[.[.[.[.[.[.[.[.[.[.[.[.[.[.[.[.[.[.[.[.[.[.",
"[.[.[.[.[.[.[.[.[.[.[.[.[.[.[.[.  % D >.>.&.S 7 X   [.[.[.[.[.[.[.[.    [.[.[.[.[.[.[.[.[.[.[.[.[.[.[.[.[.[.[.[.[.[.[.[.[.[.[.[.",
"[.[.[.[.[.[.[.[.[.[.[.[.[.[.[.[.  X = 7 7 7 = % .   [.[.[.[.[.[.[.[.    [.[.[.[.[.[.[.[.[.[.[.[.[.[.[.[.[.[.[.[.[.[.[.[.[.[.[.[.",
"[.[.[.[.[.[.[.[.[.[.[.[.[.[.[.[.[.[.[.[.[.[.[.[.[.[.[.[.[.[.[.[.[.[.[.[.[.[.[.[.[.[.[.[.[.[.[.[.[.[.[.[.[.[.[.[.[.[.[.[.[.[.[.[.",
"[.[.[.[.[.[.[.[.[.[.[.[.[.[.[.[.[.[.[.[.[.[.[.[.[.[.[.[.[.[.[.[.[.[.[.[.[.[.[.[.[.[.[.[.[.[.[.[.[.[.[.[.[.[.[.[.[.[.[.[.[.[.[.[.",
"[.[.[.[.[.[.[.[.[.[.[.[.[.[.[.[.[.[.[.[.[.[.[.[.[.[.[.[.[.[.[.[.[.[.[.[.[.[.[.[.[.[.[.[.[.[.[.[.[.[.[.[.[.[.[.[.[.[.[.[.[.[.[.[."
};
