/* XPM */
static char *result[] = {
/* columns rows colors chars-per-pixel */
"64 64 188 2 ",
"   c #000000",
".  c #0A0807",
"X  c #0E0C0B",
"o  c #090706",
"O  c #150603",
"+  c #110D0B",
"@  c #170906",
"#  c #0F120D",
"$  c #14130D",
"%  c #13180F",
"&  c #151411",
"*  c #161A12",
"=  c #1A1D16",
"-  c #1E1D19",
";  c #1C1613",
":  c #27170E",
">  c #27180F",
",  c #241B14",
"<  c #231D19",
"1  c #2D1D12",
"2  c #1E221A",
"3  c #24241C",
"4  c #2A231E",
"5  c #222818",
"6  c #2C291C",
"7  c #362219",
"8  c #3C221B",
"9  c #28301F",
"0  c #2B2422",
"q  c #272820",
"w  c #2A2B22",
"e  c #332723",
"r  c #332A26",
"t  c #352C28",
"y  c #392F2B",
"u  c #392C26",
"i  c #2D3325",
"p  c #353020",
"a  c #3A3225",
"s  c #37332A",
"d  c #3C322C",
"f  c #3C392E",
"g  c #333E27",
"h  c #3E3A32",
"j  c #4B1E11",
"k  c #581F10",
"l  c #422A1F",
"z  c #552214",
"x  c #5F2D1D",
"c  c #6C2C1B",
"v  c #7F311B",
"b  c #442D24",
"n  c #4B2F27",
"m  c #522E24",
"M  c #4B3224",
"N  c #42302A",
"B  c #4B352A",
"V  c #433D29",
"C  c #4C3C2A",
"Z  c #463626",
"A  c #553126",
"S  c #563528",
"D  c #593729",
"F  c #55392B",
"G  c #5B3A2B",
"H  c #423732",
"J  c #453B35",
"K  c #483D33",
"L  c #453E3A",
"P  c #493F38",
"I  c #523D30",
"U  c #693A28",
"Y  c #703E29",
"T  c #37432B",
"R  c #38432D",
"E  c #3E4934",
"W  c #47412E",
"Q  c #4B442E",
"!  c #5C422F",
"~  c #464036",
"^  c #4B4332",
"/  c #4F4A35",
"(  c #4A433A",
")  c #4E493E",
"_  c #454D37",
"`  c #524730",
"'  c #5D4633",
"]  c #534C35",
"[  c #5D4935",
"{  c #5C453B",
"}  c #504F3F",
"|  c #465537",
" . c #475638",
".. c #4A563B",
"X. c #4D5B3E",
"o. c #56523B",
"O. c #5D553A",
"+. c #5D5B3D",
"@. c #52593F",
"#. c #794026",
"$. c #77442E",
"%. c #78452F",
"&. c #614C35",
"*. c #624C39",
"=. c #61553D",
"-. c #6A533B",
";. c #635A3E",
":. c #655337",
">. c #656F3E",
",. c #524C43",
"<. c #574D49",
"1. c #4A5340",
"2. c #4F5C42",
"3. c #555343",
"4. c #545C45",
"5. c #5B5A43",
"6. c #5E534F",
"7. c #5F5550",
"8. c #645740",
"9. c #645C41",
"0. c #6C5E44",
"q. c #61524C",
"w. c #556345",
"e. c #5C6645",
"r. c #5D6A46",
"t. c #556149",
"y. c #5B654C",
"u. c #5D6A4E",
"i. c #5E734A",
"p. c #5E6B51",
"a. c #696347",
"s. c #65654C",
"d. c #6C664B",
"f. c #656C4D",
"g. c #6C6A4F",
"h. c #636646",
"j. c #726C4C",
"k. c #61754C",
"l. c #606750",
"z. c #636D53",
"x. c #6A6E52",
"c. c #726F54",
"v. c #647551",
"b. c #6B7254",
"n. c #667953",
"m. c #687A56",
"M. c #6C735D",
"N. c #6C7C5B",
"B. c #747558",
"V. c #747B5C",
"C. c #737655",
"Z. c #727B61",
"A. c #88321B",
"S. c #82422A",
"D. c #895E41",
"F. c #8B6243",
"G. c #8B7959",
"H. c #927655",
"J. c #6B814C",
"K. c #6F815D",
"L. c #758854",
"P. c #71815E",
"I. c #7D8A53",
"U. c #738361",
"Y. c #788465",
"T. c #778B61",
"R. c #7A8A64",
"E. c #7A8B68",
"W. c #7E9267",
"Q. c #8E825D",
"!. c #878161",
"~. c #838D67",
"^. c #888967",
"/. c #848B6B",
"(. c #948B67",
"). c #938E69",
"_. c #83926D",
"`. c #8A936F",
"'. c #839C60",
"]. c #95916B",
"[. c #8E9A72",
"{. c #8D9671",
"}. c #909C73",
"|. c #95AC6F",
" X c #95AE70",
".X c #A2AD89",
"XX c #A9B78A",
"oX c None",
/* pixels */
"oXoXoXoXoXoXoXoXoXoXoXoXoXoXoXoXoXoXoXoXoXoXoXoXoXoXoXoXoXoXoXoXoXoXoXoXoXoXoXoXoXoXoXoXoXoXoXoXoXoXoXoXoXoXoXoXoXoXoXoXoXoXoXoX",
"oXoXoXoXoXoXoXoXoXoXoXoXoXoXoXoXoXoXoXoXoXoXoXoXoXoXoXoXoXoXoXoXoXoXoXoXoXoXoXoXoXoXoXoXoXoXoXoXoXoXoXoXoXoXoXoXoXoXoXoXoXoXoXoX",
"oXoXoXoXoXoXoXoXoXoXoXoXoXoXoXoXoXoXoXoXoXoXoXoXoXoXoXoXoXoXoXoXoXoXoXoXoXoXoXoXoXoXoXoXoXoXoXoXoXoXoXoXoXoXoXoXoXoXoXoXoXoXoXoX",
"oXoXoXoXoXoXoXoXoXoXoXoXoXoXoXoXoXoXoXoXoXoXoXoXoXoXoXoXoXoXoXoXoXoXoXoXoXoXoXoXoXoXoXoXoXoXoXoXoXoXoXoXoXoXoXoXoXoXoXoXoXoXoXoX",
"oXoXoXoXoXoXoXoXoXoXoXoXoXoXoXoXoXoXoXoXoXoXoXoXoXoXoXoXoXoXoXoXoXoXoXoXoXoXoXoXoXoXoXoXoXoXoXoXoXoXoXoXoXoXoXoXoXoXoXoXoXoXoXoX",
"oXoXoXoXoXoXoXoXoXoXoXoXoXoXoXoXoXoXoXoXoXoXoXoXoXoXoXoXoXoXoXoXoXoXoXoXoXoXoXoXoXoXoXoXoXoXoXoXoXoXoXoXoXoXoXoXoXoXoXoXoXoXoXoX",
"oXoXoXoXoXoXoXoXoXoXoXoXoXoXoXoXoXoXoXoXoXoXoXoXoXoXoXoXoXoXoXoXoXoXoXoXoXoXoXoXoXoXoXoXoXoXoXoXoXoXoXoXoXoXoXoXoXoXoXoXoXoXoXoX",
"oXoXoXoXoXoXoXoXoXoXoXoXoXoXoXoXoXoXoXoXoXoXoXoXoXoXoXoXoXoXoXoXoXoXoXoXoXoXoXoXoXoXoXoXoXoXoXoXoXoXoXoXoXoXoXoXoXoXoXoXoXoXoXoX",
"oXoXoXoXoXoXoXoXoXoXoXoXoXoXoXoXoXoXoXoXoXoXoXoXoXoXoXoXoXoXoXoXoXoXoXoXoXoXoXoXoXoXoXoXoXoXoXoXoXoXoXoXoXoXoXoXoXoXoXoXoXoXoXoX",
"oXoXoXoXoXoXoXoXoXoXoXoXoXoXoXoXoXoXoXoXoXoXoXoXoXoXoXoXoXoXoXoXoXoXoXoXoXoXoXoXoXoXoXoXoXoXoXoXoXoXoXoXoXoXoXoXoXoXoXoXoXoXoXoX",
"oXoXoXoXoXoXoXoXoXoXoXoXoXoXoXoXoXoXoXoXoXoXoXoXoXoXoXoXoXoXoXoXoXoXoXoXoXoXoXoXoXoXoXoXoXoXoXoXoXoXoXoXoXoXoXoXoXoXoXoXoXoXoXoX",
"oXoXoXoXoXoXoXoXoXoXoXoXoXoXoXoXoXoXoXoXoXoXoXoXoXoXoXoXoXoXoXoXoXoXoXoXoXoXoXoXoXoXoXoXoXoXoXoXoXoXoXoXoXoXoXoXoXoXoXoXoXoXoXoX",
"oXoXoXoXoXoXoXoXoXoXoXoXoXoXoXoXoXoXoXoXoXoX                    oXoXoXoXoXoXoXoXoXoXoXoXoXoXoXoXoXoXoXoXoXoXoXoXoXoXoXoXoXoXoXoX",
"oXoXoXoXoXoXoXoXoXoXoXoXoXoXoXoXoXoXoXoXoXoX+ + $ @ @ + $ @ @ @ oXoXoXoXoXoXoXoXoXoXoXoXoXoXoXoXoXoXoXoXoXoXoXoXoXoXoXoXoXoXoXoX",
"oXoXoXoXoXoXoXoXoXoXoXoXoXoXoXoXoXoXoXoX  + 7 b 8 8 8 8 l l l 7 +   oXoXoXoXoXoXoXoXoXoXoXoXoXoXoXoXoXoXoXoXoXoXoXoXoXoXoXoXoXoX",
"oXoXoXoXoXoXoXoXoXoXoXoXoXoXoXoXoXoXoXoX@ > M G A m m A D ! &.Q 3 % oXoXoXoXoXoXoXoXoXoXoXoXoXoXoXoXoXoXoXoXoXoXoXoXoXoXoXoXoXoX",
"oXoXoXoXoXoXoXoXoXoXoXoXoXoXoXoXoXoX  + 7 M D G A m m m D ' +.e.X.T %   oXoXoXoXoXoXoXoXoXoXoXoXoXoXoXoXoXoXoXoXoXoXoXoXoXoXoXoX",
"oXoXoXoXoXoXoXoXoXoXoXoXoXoXoXoXoXoX@ , C [ ! D M x m S ! O.r.i.k.X.9 % oXoXoXoXoXoXoXoXoXoXoXoXoXoXoXoXoXoXoXoXoXoXoXoXoXoXoXoX",
"oXoXoXoXoXoXoXoXoXoXoXoXoXoXoXoX  @ 7 C +.+.' D A n S ! +.r.i.i.k.i.X.R *   oXoXoXoXoXoXoXoXoXoXoXoXoXoXoXoXoXoXoXoXoXoXoXoXoXoX",
"oXoXoXoXoXoXoXoXoXoXoXoXoXoXoXoX  $ Z O.r.e.[ D A S ! O.e.i.i.i.i.i.k. .*   oXoXoXoXoXoXoXoXoXoXoXoXoXoXoXoXoXoXoXoXoXoXoXoXoXoX",
"oXoXoXoXoXoXoXoXoXoXoXoXoXoXoXoX  * _ k.i.e.[ G S ' 5.f.k.i.i.i.i.i.k. .*   oXoXoXoXoXoXoXoXoXoXoXoXoXoXoXoXoXoXoXoXoXoXoXoXoXoX",
"oXoXoXoXoXoXoXoXoXoXoXoXoXoXoXoX  % | k.k.r.[ G { 8.x.m.v.i.i.i.i.i.k. .*   oXoXoXoXoXoXoXoXoXoXoXoXoXoXoXoXoXoXoXoXoXoXoXoXoXoX",
"oXoXoXoXoXoXoXoXoXoXoXoXoXoXoXoX  *  .k.n.h.[ [ s.b.N.N.m.v.v.v.i.i.k.| *   oXoXoXoXoXoXoXoXoXoXoXoXoXoXoXoXoXoXoXoXoXoXoXoXoXoX",
"oXoXoXoXoXoXoXoXoXoXoXoXoXoXoXoX  * ..n.N.f.[ &.M.U.U.N.N.N.N.m.v.k.k.| *   oXoXoXoXoXoXoXoXoXoXoXoXoXoXoXoXoXoXoXoXoXoXoXoXoXoX",
"oXoXoXoXoXoXoXoXoXoXoXoXoXoXoXoX  = X.N.U.b.[ { b.U.U.U.U.U.U.N.n.v.k. .%   oXoXoXoXoXoXoXoXoXoXoXoXoXoXoXoXoXoXoXoXoXoXoXoXoXoX",
"oXoXoXoXoXoXoXoXoXoXoXoXoXoXoXoX  $ R 2.2.5.o.8.d.z.y.4.4.4.2.y.v.m.v. .2   oXoXoXoXoXoXoXoXoXoXoXoXoXoXoXoXoXoXoXoXoXoXoXoXoXoX",
"oXoXoXoXoXoXoXoXoXoXoXoXoXoXoXoX  o # * * w 5.x.-.` 3 * * * = i u.N.m. .*   oXoXoXoXoXoXoXoXoXoXoXoXoXoXoXoXoXoXoXoXoXoXoXoXoXoX",
"oXoXoXoXoXoXoXoXoXoXoXoXoXoXoXoX  . 3 w 5 g u.C.*.M 6 5 w q = i u.m.w.T %   oXoXoXoXoXoXoXoXoXoXoXoXoXoXoXoXoXoXoXoXoXoXoXoXoXoX",
"oXoXoXoXoXoXoXoXoXoXoXoXoXoXoXoX  3 M.`.L.n.L.b.{ [ >.L.`./.z.y.m.u.i % oXoXoXoXoXoXoXoXoXoXoXoXoXoXoXoXoXoXoXoXoXoXoXoXoXoXoXoX",
"oXoXoXoXoXoXoXoXoXoXoXoXoXoXoXoX  w /.XX|.'.P.x.[ :.I.|.XX.X_.U.U.4.=   oXoXoXoXoXoXoXoXoXoXoXoXoXoXoXoXoXoXoXoXoXoXoXoXoXoXoXoX",
"oXoXoXoXoXoXoXoXoXoXoXoXoXoXoXoX  2 u.~.W.P.T.x.&.&.C.W._.W.Y.U.U.t.2       oXoXoXoXoXoXoXoXoXoXoXoXoXoXoXoXoXoXoXoXoXoXoXoXoXoX",
"oXoXoXoXoXoXoXoXoXoXoXoXoXoXoXoX  = ..N.N.P.U.b.;.=.s.b.x.b.N.U.K.t.3 X X X oXoXoXoXoXoXoXoXoXoXoXoXoXoXoXoXoXoXoXoXoXoXoXoXoXoX",
"oXoXoXoXoXoXoXoXoXoXoXoXoXoXoXoX  * X.m.K.Z.Z.N.b.d.=.{ { 8.b.K.m.w.f 0 r 4 X   oXoXoXoXoXoXoXoXoXoXoXoXoXoXoXoXoXoXoXoXoXoXoXoX",
"oXoXoXoXoXoXoXoXoXoXoXoXoXoXoXoX  = X.K.R.R.U.U.E.V.8.*.-.0.x.x.e.X.~ H J t +   oXoXoXoXoXoXoXoXoXoXoXoXoXoXoXoXoXoXoXoXoXoXoXoX",
"oXoXoXoXoXoXoXoXoXoXoXoXoXoXoXoX  *  .P.{.[.T.R.[.[.V.C.^.Q.0.{ ^ J J J L t X   oXoXoXoXoXoXoXoXoXoXoXoXoXoXoXoXoXoXoXoXoXoXoXoX",
"oXoXoXoXoXoXoXoXoXoXoXoXoXoXoXoX  % T e.~.[._.~.(.)._./.).G.*.B d d H J J t +   oXoXoXoXoXoXoXoXoXoXoXoXoXoXoXoXoXoXoXoXoXoXoXoX",
"oXoXoXoXoXoXoXoXoXoXoXoXoXoXoXoXoXoX% i e.R.}.).D.F.).].F.$.F y d N J J L t +   oXoXoXoXoXoXoXoXoXoXoXoXoXoXoXoXoXoXoXoXoXoXoXoX",
"oXoXoXoXoXoXoXoXoXoXoXoXoXoXoXoXoXoX  % W v._.Q.S.S.H.H.$.x n s y y J J K t +   oXoXoXoXoXoXoXoXoXoXoXoXoXoXoXoXoXoXoXoXoXoXoXoX",
"oXoXoXoXoXoXoXoXoXoXoXoXoXoXoXoXoXoX  X s 4.n.j.#.v S.%.D n y y y d J J L t X   oXoXoXoXoXoXoXoXoXoXoXoXoXoXoXoXoXoXoXoXoXoXoXoX",
"oXoXoXoXoXoXoXoXoXoXoXoXoXoXoXoXoXoX  + e ^ @.O.U c c x b d d f L ( J J J t #   oXoXoXoXoXoXoXoXoXoXoXoXoXoXoXoXoXoXoXoXoXoXoXoX",
"oXoXoXoXoXoXoXoXoXoXoXoXoXoXoXoXoXoX  + 7 B K K B n n b d d d ~ 7.y.) J J t +   oXoXoXoXoXoXoXoXoXoXoXoXoXoXoXoXoXoXoXoXoXoXoXoX",
"oXoXoXoXoXoXoXoXoXoXoXoXoXoXoXoXoXoXX , B I u e t y d y y d J ,.l.f.) H y 0 X   oXoXoXoXoXoXoXoXoXoXoXoXoXoXoXoXoXoXoXoXoXoXoXoX",
"oXoXoXoXoXoXoXoXoXoXoXoXoXoXoXoX  X q J l.3.3 + 4 u t t t V 4.y.3.) L y - X oXoXoXoXoXoXoXoXoXoXoXoXoXoXoXoXoXoXoXoXoXoXoXoXoXoX",
"oXoXoXoXoXoXoXoXoXoXoXoXoXoXoXoX  + r ,.x.4.= o ; 4 e t e J p.z.) J J r X   oXoXoXoXoXoXoXoXoXoXoXoXoXoXoXoXoXoXoXoXoXoXoXoXoXoX",
"oXoXoXoXoXoXoXoXoXoXoXoXoXoXoXoX  + t P ,.h &   o $ 4 t e ~ z.z.,.H J t +   oXoXoXoXoXoXoXoXoXoXoXoXoXoXoXoXoXoXoXoXoXoXoXoXoXoX",
"oXoXoXoXoXoXoXoXoXoXoXoXoXoXoXoX  # t J J t +     o < e w f 3.4.( J J t X   oXoXoXoXoXoXoXoXoXoXoXoXoXoXoXoXoXoXoXoXoXoXoXoXoXoX",
"oXoXoXoXoXoXoXoXoXoXoXoXoXoXoXoX  # t J J t #     o , 0 0 e d f H J J t X   oXoXoXoXoXoXoXoXoXoXoXoXoXoXoXoXoXoXoXoXoXoXoXoXoXoX",
"oXoXoXoXoXoXoXoXoXoXoXoXoXoXoXoX  + r L J t X o # , e d a a y y H J J y < $ oXoXoXoXoXoXoXoXoXoXoXoXoXoXoXoXoXoXoXoXoXoXoXoXoXoX",
"oXoXoXoXoXoXoXoXoXoXoXoXoXoXoXoX  X t L J r + + p ` ] ] ] ] ] ` K H J H Q a $   oXoXoXoXoXoXoXoXoXoXoXoXoXoXoXoXoXoXoXoXoXoXoXoX",
"oXoXoXoXoXoXoXoXoXoXoXoXoXoXoXoX  & h 3.<.h & $ ^ 0.;.;.=.=.>.=.3.,.,.3.9.Q ;   oXoXoXoXoXoXoXoXoXoXoXoXoXoXoXoXoXoXoXoXoXoXoXoX",
"oXoXoXoXoXoXoXoXoXoXoXoXoXoXoXoX  = 4.Z.Z.4.= & Q a.;.+.O.O.O.a.x.M.M.b.h.Q $   oXoXoXoXoXoXoXoXoXoXoXoXoXoXoXoXoXoXoXoXoXoXoXoX",
"oXoXoXoXoXoXoXoXoXoXoXoXoXoXoXoX  = ..p.p._ & # Q ;.;.=.O.O.;.d.V.Y.Y.b.o.p $   oXoXoXoXoXoXoXoXoXoXoXoXoXoXoXoXoXoXoXoXoXoXoXoX",
"oXoXoXoXoXoXoXoXoXoXoXoXoXoXoXoXoXoX= 2 2 &   ; Q >.;.+.O.=.a.g.c.B.B.5.6 X oXoXoXoXoXoXoXoXoXoXoXoXoXoXoXoXoXoXoXoXoXoXoXoXoXoX",
"oXoXoXoXoXoXoXoXoXoXoXoXoXoXoXoXoXoX        $ 6 ` ;.;.O.Q W / O.9.d.d.o.w * oXoXoXoXoXoXoXoXoXoXoXoXoXoXoXoXoXoXoXoXoXoXoXoXoXoX",
"oXoXoXoXoXoXoXoXoXoXoXoXoXoXoXoXoXoXoXoX  # a ] ;.;.;./ 5 $ $ 6 / 9.8.9.4.E =   oXoXoXoXoXoXoXoXoXoXoXoXoXoXoXoXoXoXoXoXoXoXoXoX",
"oXoXoXoXoXoXoXoXoXoXoXoXoXoXoXoXoXoXoXoX  $ K 8.-.&.` Z : O   + p V V ] b.t.=   oXoXoXoXoXoXoXoXoXoXoXoXoXoXoXoXoXoXoXoXoXoXoXoX",
"oXoXoXoXoXoXoXoXoXoXoXoXoXoXoXoXoXoXoXoX  & h { #.x 1 > j z oXoX$ $ $ i z.y.2   oXoXoXoXoXoXoXoXoXoXoXoXoXoXoXoXoXoXoXoXoXoXoXoX",
"oXoXoXoXoXoXoXoXoXoXoXoXoXoXoXoXoXoXoXoX& q L I U z @ @ k A.oXoX      = 1.1.-   oXoXoXoXoXoXoXoXoXoXoXoXoXoXoXoXoXoXoXoXoXoXoXoX",
"oXoXoXoXoXoXoXoXoXoXoXoXoXoXoXoXoXoX  & H <.7.6.{ y +   oXoXoXoXoXoXoXoX- = oXoXoXoXoXoXoXoXoXoXoXoXoXoXoXoXoXoXoXoXoXoXoXoXoXoX",
"oXoXoXoXoXoXoXoXoXoXoXoXoXoXoXoXoXoX  & L 7.6.<.L r X   oXoXoXoXoXoXoXoX    oXoXoXoXoXoXoXoXoXoXoXoXoXoXoXoXoXoXoXoXoXoXoXoXoXoX",
"oXoXoXoXoXoXoXoXoXoXoXoXoXoXoXoXoXoX  . - 0 0 q - & o   oXoXoXoXoXoXoXoX    oXoXoXoXoXoXoXoXoXoXoXoXoXoXoXoXoXoXoXoXoXoXoXoXoXoX",
"oXoXoXoXoXoXoXoXoXoXoXoXoXoXoXoXoXoXoXoXoXoXoXoXoXoXoXoXoXoXoXoXoXoXoXoXoXoXoXoXoXoXoXoXoXoXoXoXoXoXoXoXoXoXoXoXoXoXoXoXoXoXoXoX",
"oXoXoXoXoXoXoXoXoXoXoXoXoXoXoXoXoXoXoXoXoXoXoXoXoXoXoXoXoXoXoXoXoXoXoXoXoXoXoXoXoXoXoXoXoXoXoXoXoXoXoXoXoXoXoXoXoXoXoXoXoXoXoXoX",
"oXoXoXoXoXoXoXoXoXoXoXoXoXoXoXoXoXoXoXoXoXoXoXoXoXoXoXoXoXoXoXoXoXoXoXoXoXoXoXoXoXoXoXoXoXoXoXoXoXoXoXoXoXoXoXoXoXoXoXoXoXoXoXoX"
};
