/* XPM */
static char *result[] = {
/* columns rows colors chars-per-pixel */
"64 64 173 2 ",
"   c #060603",
".  c #080704",
"X  c #0A0805",
"o  c #140F0C",
"O  c #15110E",
"+  c #19130F",
"@  c #161514",
"#  c #1B1511",
"$  c #171817",
"%  c #1D1914",
"&  c #161819",
"*  c #1A1B1B",
"=  c #211B16",
"-  c #251D19",
";  c #2A1E1B",
":  c #23251C",
">  c #2C221D",
",  c #32231F",
"<  c #2E2523",
"1  c #2E2B25",
"2  c #222729",
"3  c #262928",
"4  c #322521",
"5  c #352926",
"6  c #3B2A25",
"7  c #3C2D29",
"8  c #3C332B",
"9  c #383126",
"0  c #2B3337",
"q  c #3C3332",
"w  c #32363A",
"e  c #422E2A",
"r  c #402C27",
"t  c #44322D",
"y  c #49322D",
"u  c #443C2F",
"i  c #443532",
"p  c #4C3632",
"a  c #453D36",
"s  c #4C3A35",
"d  c #493E3A",
"f  c #453B38",
"g  c #533A35",
"h  c #553E39",
"j  c #583F3A",
"k  c #4D4536",
"l  c #46433B",
"z  c #4C433A",
"x  c #53433A",
"c  c #5C433E",
"v  c #62403C",
"b  c #343E45",
"n  c #413E40",
"m  c #3B454C",
"M  c #3D484E",
"N  c #4F4840",
"B  c #40474E",
"V  c #43494D",
"C  c #404246",
"Z  c #5E4641",
"A  c #534D44",
"S  c #5B4A44",
"D  c #5F4F48",
"F  c #525644",
"G  c #575249",
"H  c #5A564B",
"J  c #5A5D4B",
"K  c #565947",
"L  c #444C52",
"P  c #44535C",
"I  c #4C555C",
"U  c #50575D",
"Y  c #614641",
"T  c #6A4743",
"R  c #634A45",
"E  c #6A4E47",
"W  c #674D48",
"Q  c #6A4E49",
"!  c #714E4A",
"~  c #65534D",
"^  c #73554E",
"/  c #635752",
"(  c #695B54",
")  c #6C5E58",
"_  c #765952",
"`  c #7A5C55",
"'  c #56624C",
"]  c #5D604E",
"[  c #5E6853",
"{  c #646D56",
"}  c #6E615B",
"|  c #656F58",
" . c #74635C",
".. c #7D615A",
"X. c #6B745E",
"o. c #495760",
"O. c #4C5A63",
"+. c #505C65",
"@. c #5D5F61",
"#. c #5A6163",
"$. c #55616A",
"%. c #58646D",
"&. c #62686A",
"*. c #6F7763",
"=. c #747C67",
"-. c #757D69",
";. c #666D70",
":. c #8D5654",
">. c #875F59",
",. c #845B54",
"<. c #925B58",
"1. c #84665D",
"2. c #88635B",
"3. c #886A5F",
"4. c #8D6C62",
"5. c #926C64",
"6. c #8F7066",
"7. c #917167",
"8. c #95746A",
"9. c #9B766C",
"0. c #97796F",
"q. c #9A786C",
"w. c #9F7F73",
"e. c #A8766E",
"r. c #B0736E",
"t. c #A27D72",
"y. c #B37570",
"u. c #9E8779",
"i. c #9F8D7D",
"p. c #A48175",
"a. c #A18F7F",
"s. c #AE897C",
"d. c #B28B7E",
"f. c #9C938B",
"g. c #B78D81",
"h. c #A69486",
"j. c #A89687",
"k. c #A99A8C",
"l. c #B79184",
"z. c #BC9184",
"x. c #BF9689",
"c. c #A79C90",
"v. c #B2A295",
"b. c #B9A99E",
"n. c #B5A89C",
"m. c #B8ABA0",
"M. c #C19487",
"N. c #C29789",
"B. c #CC978B",
"V. c #C4998B",
"C. c #CA9D8E",
"Z. c #CCA193",
"A. c #C6AB98",
"S. c #C8AD99",
"D. c #D1A495",
"F. c #D1A897",
"G. c #DBAC9D",
"H. c #D2A898",
"J. c #C4B19C",
"K. c #C7B4A0",
"L. c #C9B7A4",
"P. c #CEBBA9",
"I. c #D1BEAC",
"U. c #E4B5A5",
"Y. c #E8B7A7",
"T. c #E7B8A8",
"R. c #E8B8A8",
"E. c #D6C4B3",
"W. c #D8C7B7",
"Q. c #DCCBBC",
"!. c #DFCFC0",
"~. c #E0D0C1",
"^. c None",
/* pixels */
"^.^.^.^.^.^.^.^.^.^.^.^.^.^.^.^.^.^.^.^.^.^.^.^.^.^.^.^.^.^.^.^.^.^.^.^.^.^.^.^.^.^.^.^.^.^.^.^.^.^.^.^.^.^.^.^.^.^.^.^.^.^.^.^.",
"^.^.^.^.^.^.^.^.^.^.^.^.^.^.^.^.^.^.^.^.^.^.^.^.^.^.^.^.^.^.^.^.^.^.^.^.^.^.^.^.^.^.^.^.^.^.^.^.^.^.^.^.^.^.^.^.^.^.^.^.^.^.^.^.",
"^.^.^.^.^.^.^.^.^.^.^.^.^.^.^.^.^.^.^.^.^.^.^.^.^.^.^.^.^.^.^.^.^.^.^.^.^.^.^.^.^.^.^.^.^.^.^.^.^.^.^.^.^.^.^.^.^.^.^.^.^.^.^.^.",
"^.^.^.^.^.^.^.^.^.^.^.^.^.^.^.^.^.^.^.^.^.^.^.^.^.^.^.^.^.^.^.^.^.^.^.^.^.^.^.^.^.^.^.^.^.^.^.^.^.^.^.^.^.^.^.^.^.^.^.^.^.^.^.^.",
"^.^.^.^.^.^.^.^.^.^.^.^.^.^.^.^.^.^.^.^.^.^.^.^.^.^.^.^.^.^.^.^.^.^.^.^.^.^.^.^.^.^.^.^.^.^.^.^.^.^.^.^.^.^.^.^.^.^.^.^.^.^.^.^.",
"^.^.^.^.^.^.^.^.^.^.^.^.^.^.^.^.^.^.^.^.^.^.^.^.^.^.^.^.^.^.^.^.^.^.^.^.^.^.^.^.^.^.^.^.^.^.^.^.^.^.^.^.^.^.^.^.^.^.^.^.^.^.^.^.",
"^.^.^.^.^.^.^.^.^.^.^.^.^.^.^.^.^.^.^.^.^.^.^.^.^.^.^.^.^.^.^.^.^.^.^.^.^.^.^.^.^.^.^.^.^.^.^.^.^.^.^.^.^.^.^.^.^.^.^.^.^.^.^.^.",
"^.^.^.^.^.^.^.^.^.^.^.^.^.^.^.^.^.^.^.^.^.^.^.^.^.^.^.^.^.^.^.^.^.^.^.^.^.^.^.^.^.^.^.^.^.^.^.^.^.^.^.^.^.^.^.^.^.^.^.^.^.^.^.^.",
"^.^.^.^.^.^.^.^.^.^.^.^.^.^.^.^.^.^.^.^.^.^.^.^.^.^.^.^.^.^.^.^.^.^.^.^.^.^.^.^.^.^.^.^.^.^.^.^.^.^.^.^.^.^.^.^.^.^.^.^.^.^.^.^.",
"^.^.^.^.^.^.^.^.^.^.^.^.^.^.^.^.^.^.^.^.^.^.^.^.^.^.^.^.^.^.^.^.^.^.^.^.^.^.^.^.^.^.^.^.^.^.^.^.^.^.^.^.^.^.^.^.^.^.^.^.^.^.^.^.",
"^.^.^.^.^.^.^.^.^.^.^.^.^.^.^.^.^.^.^.^.^.^.^.^.^.^.^.^.X X X X ^.^.^.^.X X ^.^.^.^.^.^.^.^.^.^.^.^.^.^.^.^.^.^.^.^.^.^.^.^.^.^.",
"^.^.^.^.^.^.^.^.^.^.^.^.^.^.^.^.^.^.^.^.^.^.^.^.^.^.^.^.+ # + + ^.^.^.^.+ + ^.^.^.^.^.^.^.^.^.^.^.^.^.^.^.^.^.^.^.^.^.^.^.^.^.^.",
"^.^.^.^.^.^.^.^.^.^.^.^.^.^.^.^.^.^.^.^.^.^.X X X X X + , 6 6 , + X . + , , + . ^.^.^.^.^.^.^.^.^.^.^.^.^.^.^.^.^.^.^.^.^.^.^.^.",
"^.^.^.^.^.^.^.^.^.^.^.^.^.^.^.^.^.^.^.^.^.^.+ + # # + ; t h g y ; + + ; y y ; + ^.^.^.^.^.^.^.^.^.^.^.^.^.^.^.^.^.^.^.^.^.^.^.^.",
"^.^.^.^.^.^.^.^.^.^.^.^.^.^.^.^.^.^.^.^.X = , r 6 6 6 e h Y Y x e 6 6 e j h t , + X ^.^.^.^.^.^.^.^.^.^.^.^.^.^.^.^.^.^.^.^.^.^.",
"^.^.^.^.^.^.^.^.^.^.^.^.^.^.^.^.^.^.^.^.. + , e p g g j Y W R Y j g g g Y Y j t > # ^.^.^.^.^.^.^.^.^.^.^.^.^.^.^.^.^.^.^.^.^.^.",
"^.^.^.^.^.^.^.^.^.^.^.^.^.^.^.^.^.^.^.^.^.^.O ; s v S v R R W Y Z Z Z Z R Y Z c h 7 # . ^.^.^.^.^.^.^.^.^.^.^.^.^.^.^.^.^.^.^.^.",
"^.^.^.^.^.^.^.^.^.^.^.^.^.^.^.^.^.^.^.^.^.^.# 4 h W W R R R Y R R R W R R R R W W h > + ^.^.^.^.^.^.^.^.^.^.^.^.^.^.^.^.^.^.^.^.",
"^.^.^.^.^.^.^.^.^.^.^.^.^.^.^.^.^.^.^.^.X % t h S R W R R W R W R R R R R R R W W c t , + X ^.^.^.^.^.^.^.^.^.^.^.^.^.^.^.^.^.^.",
"^.^.^.^.^.^.^.^.^.^.^.^.^.^.^.^.^.^.^.^.X % s W R R R R c c c S Y R Z Z Y R R R R Z g r - + ^.^.^.^.^.^.^.^.^.^.^.^.^.^.^.^.^.^.",
"^.^.^.^.^.^.^.^.^.^.^.^.^.^.^.^.^.^.^.^.X % s W W R R c g g p x Z Z g g Z R R R R Z g y e , # X ^.^.^.^.^.^.^.^.^.^.^.^.^.^.^.^.",
"^.^.^.^.^.^.^.^.^.^.^.^.^.^.^.^.^.^.^.^.# ; s Y R R Y R E v g g Z W W W R R Y R R Z h p e , + X ^.^.^.^.^.^.^.^.^.^.^.^.^.^.^.^.",
"^.^.^.^.^.^.^.^.^.^.^.^.^.^.^.^.^.^.X # , e p j Y R v _ t.8.v p j ` t.t._ Y R R R R Y s > # ^.^.^.^.^.^.^.^.^.^.^.^.^.^.^.^.^.^.",
"^.^.^.^.^.^.^.^.^.^.^.^.^.^.^.^.^.^.X # 4 r y g c E _ 8.V.M.2.R Y ` z.V.8._ W Y R W R s %   ^.^.^.^.^.^.^.^.^.^.^.^.^.^.^.^.^.^.",
"^.^.^.^.^.^.^.^.^.^.^.^.^.^.^.^.^.^.^.^.# - 6 g c _ t.N.D.D.z.9.^ ` g.D.V.t.` Z Y W W s %   ^.^.^.^.^.^.^.^.^.^.^.^.^.^.^.^.^.^.",
"^.^.^.^.^.^.^.^.^.^.^.^.^.^.^.^.^.^.^.^.  # r h c ,.z.C.s.s.Z.V.8.5.V.C.d.q.1._ R Z R h 4 % ^.^.^.^.^.^.^.^.^.^.^.^.^.^.^.^.^.^.",
"^.^.^.^.^.^.^.^.^.^.^.^.^.^.^.^.^.^.^.^.  # p Y Y ` z.s.S R l.G.V.V.H.z.R c q.t.W g Z Z j e % X ^.^.^.^.^.^.^.^.^.^.^.^.^.^.^.^.",
"^.^.^.^.^.^.^.^.^.^.^.^.^.^.^.^.^.^.^.^.# < h W ! 5.x.t.5 8 s.U.G.U.Y.s.7 6 t.M.,.v Z Z j q % X ^.^.^.^.^.^.^.^.^.^.^.^.^.^.^.^.",
"^.^.^.^.^.^.^.^.^.^.^.^.^.^.^.^.^.^.X # 6 s Z ! <.y.B.t.t p g.T.Y.U.T.s.i t p.B.r.:.T p > % ^.^.^.^.^.^.^.^.^.^.^.^.^.^.^.^.^.^.",
"^.^.^.^.^.^.^.^.^.^.^.^.^.^.^.^.^.^.X # 6 p j ! <.y.B.g.^ _ x.T.U.Y.T.x._ ^ d.B.r.:.T r # X ^.^.^.^.^.^.^.^.^.^.^.^.^.^.^.^.^.^.",
"^.^.^.^.^.^.^.^.^.^.^.^.^.^.^.^.^.^.^.^.# ; p Z T >.z.D.x.V.G.U.U.Y.U.G.V.V.D.z.>.T Z e # X ^.^.^.^.^.^.^.^.^.^.^.^.^.^.^.^.^.^.",
"^.^.^.^.^.^.^.^.^.^.^.^.^.^.^.^.^.^.^.^.X # 5 t p W 9.V.G.Y.U.U.U.U.U.Y.Y.G.N.q.Q p i 6 # X ^.^.^.^.^.^.^.^.^.^.^.^.^.^.^.^.^.^.",
"^.^.^.^.^.^.^.^.^.^.^.^.^.^.^.^.^.^.^.^.^.^.# ; t Z W 4.V.U.U.U.U.U.U.U.U.N.3.Q c i ; # ^.^.^.^.^.^.^.^.^.^.^.^.^.^.^.^.^.^.^.^.",
"^.^.^.^.^.^.^.^.^.^.^.^.^.^.^.^.^.^.^.^.^.^.  # 6 y p R 4.d.D.U.U.P.U.D.d.3.T g t 5 # X ^.^.^.^.^.^.^.^.^.^.^.^.^.^.^.^.^.^.^.^.",
"^.^.^.^.^.^.^.^.^.^.^.^.^.^.^.^.^.^.^.^.^.^.^.^.# ; y p 6 S s.G.G.G.G.d.Y e p e ; # ^.^.^.^.^.^.^.^.^.^.^.^.^.^.^.^.^.^.^.^.^.^.",
"^.^.^.^.^.^.^.^.^.^.^.^.^.^.^.^.^.^.^.^.^.^.^.^.X % s a = 8 p.D.D.D.D.t.8 = a a % X ^.^.^.^.^.^.^.^.^.^.^.^.^.^.^.^.^.^.^.^.^.^.",
"^.^.^.^.^.^.^.^.^.^.^.^.^.^.^.^.^.^.^.^.^.^.^.^.X : F H 9 d u.A.A.A.A.u.x 9 J F : . ^.^.^.^.^.^.^.^.^.^.^.^.^.^.^.^.^.^.^.^.^.^.",
"^.^.^.^.^.^.^.^.^.^.^.^.^.^.^.^.^.^.^.^.^.^.^.^.  : ' { z D h.L.K.K.J.i.S z { ' : . ^.^.^.^.^.^.^.^.^.^.^.^.^.^.^.^.^.^.^.^.^.^.",
"^.^.^.^.^.^.^.^.^.^.^.^.^.^.^.^.^.^.^.^.^.^.^.^.  : ' { A ( v.W.E.I.K.h.~ A | ' : . ^.^.^.^.^.^.^.^.^.^.^.^.^.^.^.^.^.^.^.^.^.^.",
"^.^.^.^.^.^.^.^.^.^.^.^.^.^.^.^.^.^.^.^.^.^.^.^.O 1 [ X.A  .b.!.!.W.P.j.( A X.[ 1 o ^.^.^.^.^.^.^.^.^.^.^.^.^.^.^.^.^.^.^.^.^.^.",
"^.^.^.^.^.^.^.^.^.^.^.^.^.^.^.^.^.^.^.^.^.^.X O = a *.-.G ) b.!.!.Q.W.v.) G -.*.f - o X ^.^.^.^.^.^.^.^.^.^.^.^.^.^.^.^.^.^.^.^.",
"^.^.^.^.^.^.^.^.^.^.^.^.^.^.^.^.^.^.^.^.^.^.X O 4 A =.-.G ) v.W.Q.!.!.m.) G -.-.N < o X ^.^.^.^.^.^.^.^.^.^.^.^.^.^.^.^.^.^.^.^.",
"^.^.^.^.^.^.^.^.^.^.^.^.^.^.^.^.^.^.^.^.^.^.X @ 7 A *.X.A ( h.P.W.!.!.b.) G X.X.z ; O X ^.^.^.^.^.^.^.^.^.^.^.^.^.^.^.^.^.^.^.^.",
"^.^.^.^.^.^.^.^.^.^.^.^.^.^.^.^.^.^.^.^.^.^.O - q A J J A ( j.I.E.W.!.m.) N J K 8 ; % # ^.^.^.^.^.^.^.^.^.^.^.^.^.^.^.^.^.^.^.^.",
"^.^.^.^.^.^.^.^.^.^.^.^.^.^.^.^.^.^.^.^.X # 1 q f d f a a  .b.W.P.P.Q.m. .d f 8 - % 1 1 $ X ^.^.^.^.^.^.^.^.^.^.^.^.^.^.^.^.^.^.",
"^.^.^.^.^.^.^.^.^.^.^.^.^.^.^.^.^.^.^.^.X - S  . .~ i 7 t ~ f.m.c.c.m.f./ i 7 > o - S S - X ^.^.^.^.^.^.^.^.^.^.^.^.^.^.^.^.^.^.",
"^.^.^.^.^.^.^.^.^.^.^.^.^.^.^.^.^.^.^.^.  5 0.Z.Z.p.c 5 7 d U ;.&.&.&.@.d 6 6 > o 5 7.4.5 X ^.^.^.^.^.^.^.^.^.^.^.^.^.^.^.^.^.^.",
"^.^.^.^.^.^.^.^.^.^.^.^.^.^.^.^.^.^.^.^.  8 7.l.l.0.S q i b L P P P P L b f i 1 @ 4 1.3.7   ^.^.^.^.^.^.^.^.^.^.^.^.^.^.^.^.^.^.",
"^.^.^.^.^.^.^.^.^.^.^.^.^.^.^.^.^.^.^.^.^.^.8 t t q m V I U +.+.+.+.+.+.U I L w $ O 4 7 ^.^.^.^.^.^.^.^.^.^.^.^.^.^.^.^.^.^.^.^.",
"^.^.^.^.^.^.^.^.^.^.^.^.^.^.^.^.^.^.^.^.^.^.      & m O.$.%.%.$.$.$.$.%.%.$.P b * .     ^.^.^.^.^.^.^.^.^.^.^.^.^.^.^.^.^.^.^.^.",
"^.^.^.^.^.^.^.^.^.^.^.^.^.^.^.^.^.^.^.^.^.^.^.^.  & w P $.$.%.$.O.O.$.%.%.+.o.m * . ^.^.^.^.^.^.^.^.^.^.^.^.^.^.^.^.^.^.^.^.^.^.",
"^.^.^.^.^.^.^.^.^.^.^.^.^.^.^.^.^.^.^.^.^.^.^.^.. * m O.$.%.$.I m m I $.%.$.P b * . ^.^.^.^.^.^.^.^.^.^.^.^.^.^.^.^.^.^.^.^.^.^.",
"^.^.^.^.^.^.^.^.^.^.^.^.^.^.^.^.^.^.^.^.^.^.^.^.. * B %.%.+.O.M 2 2 m O.$.$.I b * . ^.^.^.^.^.^.^.^.^.^.^.^.^.^.^.^.^.^.^.^.^.^.",
"^.^.^.^.^.^.^.^.^.^.^.^.^.^.^.^.^.^.^.^.^.^.^.^.X * B [ #.U M 0 @ @ 0 M O.O.o.b $ . ^.^.^.^.^.^.^.^.^.^.^.^.^.^.^.^.^.^.^.^.^.^.",
"^.^.^.^.^.^.^.^.^.^.^.^.^.^.^.^.^.^.^.^.^.^.^.^.X : l G H l 3 $ ^.^.& 2 M I P m * X ^.^.^.^.^.^.^.^.^.^.^.^.^.^.^.^.^.^.^.^.^.^.",
"^.^.^.^.^.^.^.^.^.^.^.^.^.^.^.^.^.^.^.^.^.^.^.^.X % 9 u a 9 + . ^.^.. * w B M w $ X ^.^.^.^.^.^.^.^.^.^.^.^.^.^.^.^.^.^.^.^.^.^.",
"^.^.^.^.^.^.^.^.^.^.^.^.^.^.^.^.^.^.^.^.^.^.^.^.^.^.% % % % ^.^.^.^.X @ < q q < @ X ^.^.^.^.^.^.^.^.^.^.^.^.^.^.^.^.^.^.^.^.^.^.",
"^.^.^.^.^.^.^.^.^.^.^.^.^.^.^.^.^.^.^.^.^.^.^.^.^.^.. X . X ^.^.^.^.X + , 8 t > + X ^.^.^.^.^.^.^.^.^.^.^.^.^.^.^.^.^.^.^.^.^.^.",
"^.^.^.^.^.^.^.^.^.^.^.^.^.^.^.^.^.^.^.^.^.^.^.^.^.^.^.^.^.^.^.^.^.^.X # 8 x k 8 # X ^.^.^.^.^.^.^.^.^.^.^.^.^.^.^.^.^.^.^.^.^.^.",
"^.^.^.^.^.^.^.^.^.^.^.^.^.^.^.^.^.^.^.^.^.^.^.^.^.^.^.^.^.^.^.^.^.^.X % 8 k k 8 % X ^.^.^.^.^.^.^.^.^.^.^.^.^.^.^.^.^.^.^.^.^.^.",
"^.^.^.^.^.^.^.^.^.^.^.^.^.^.^.^.^.^.^.^.^.^.^.^.^.^.^.^.^.^.^.^.^.^.^.O : > : : O ^.^.^.^.^.^.^.^.^.^.^.^.^.^.^.^.^.^.^.^.^.^.^.",
"^.^.^.^.^.^.^.^.^.^.^.^.^.^.^.^.^.^.^.^.^.^.^.^.^.^.^.^.^.^.^.^.^.^.^.^.^.^.^.^.^.^.^.^.^.^.^.^.^.^.^.^.^.^.^.^.^.^.^.^.^.^.^.^.",
"^.^.^.^.^.^.^.^.^.^.^.^.^.^.^.^.^.^.^.^.^.^.^.^.^.^.^.^.^.^.^.^.^.^.^.^.^.^.^.^.^.^.^.^.^.^.^.^.^.^.^.^.^.^.^.^.^.^.^.^.^.^.^.^.",
"^.^.^.^.^.^.^.^.^.^.^.^.^.^.^.^.^.^.^.^.^.^.^.^.^.^.^.^.^.^.^.^.^.^.^.^.^.^.^.^.^.^.^.^.^.^.^.^.^.^.^.^.^.^.^.^.^.^.^.^.^.^.^.^."
};
