/* XPM */
static char *result[] = {
/* columns rows colors chars-per-pixel */
"64 64 174 2 ",
"   c #060603",
".  c #080704",
"X  c #0A0805",
"o  c #140F0C",
"O  c #15110E",
"+  c #19130F",
"@  c #161514",
"#  c #1B1511",
"$  c #171817",
"%  c #1D1914",
"&  c #161819",
"*  c #1A1B1B",
"=  c #211B16",
"-  c #251D19",
";  c #2A1E1B",
":  c #23251C",
">  c #2C221D",
",  c #32231F",
"<  c #2E2523",
"1  c #2E2B25",
"2  c #222729",
"3  c #262928",
"4  c #322521",
"5  c #352926",
"6  c #3B2A25",
"7  c #3C2D29",
"8  c #3C332B",
"9  c #383126",
"0  c #2B3337",
"q  c #3C3332",
"w  c #32363A",
"e  c #422E2A",
"r  c #402C27",
"t  c #44322D",
"y  c #49322D",
"u  c #443C2F",
"i  c #443532",
"p  c #4C3632",
"a  c #453D36",
"s  c #4C3A35",
"d  c #463C38",
"f  c #493E3B",
"g  c #533A35",
"h  c #553E39",
"j  c #583F3A",
"k  c #4D4536",
"l  c #46433B",
"z  c #4C433A",
"x  c #53433A",
"c  c #5C433E",
"v  c #62403C",
"b  c #343E45",
"n  c #413E40",
"m  c #3B454C",
"M  c #3D484E",
"N  c #4E4740",
"B  c #4F4841",
"V  c #40474E",
"C  c #43494D",
"Z  c #404246",
"A  c #5E4641",
"S  c #534D44",
"D  c #5B4A44",
"F  c #5F4F48",
"G  c #525644",
"H  c #575249",
"J  c #5A564B",
"K  c #5A5D4B",
"L  c #565947",
"P  c #444C52",
"I  c #44535C",
"U  c #4C555C",
"Y  c #50575D",
"T  c #614641",
"R  c #6A4743",
"E  c #634A45",
"W  c #6A4E47",
"Q  c #674D48",
"!  c #6A4E49",
"~  c #714E4A",
"^  c #65534D",
"/  c #73554E",
"(  c #635752",
")  c #695B54",
"_  c #6C5E58",
"`  c #765952",
"'  c #7A5C55",
"]  c #56624C",
"[  c #5D604E",
"{  c #5E6853",
"}  c #646D56",
"|  c #6E615B",
" . c #656F58",
".. c #74635C",
"X. c #7D615A",
"o. c #6B745E",
"O. c #495760",
"+. c #4C5A63",
"@. c #505C65",
"#. c #5D5F61",
"$. c #5A6163",
"%. c #55616A",
"&. c #58646D",
"*. c #62686A",
"=. c #6F7763",
"-. c #747C67",
";. c #757D69",
":. c #666D70",
">. c #8D5654",
",. c #875F59",
"<. c #845B54",
"1. c #925B58",
"2. c #84665D",
"3. c #88635B",
"4. c #886A5F",
"5. c #8D6C62",
"6. c #926C64",
"7. c #8F7066",
"8. c #917167",
"9. c #95746A",
"0. c #9B766C",
"q. c #97796F",
"w. c #9A786C",
"e. c #9F7F73",
"r. c #A8766E",
"t. c #B0736E",
"y. c #A27D72",
"u. c #B37570",
"i. c #9E8779",
"p. c #9F8D7D",
"a. c #A48175",
"s. c #A18F7F",
"d. c #AE897C",
"f. c #B28B7E",
"g. c #9C938B",
"h. c #B78D81",
"j. c #A69486",
"k. c #A89687",
"l. c #A99A8C",
"z. c #B79184",
"x. c #BC9184",
"c. c #BF9689",
"v. c #A79C90",
"b. c #B2A295",
"n. c #B9A99E",
"m. c #B5A89C",
"M. c #B8ABA0",
"N. c #C19487",
"B. c #C29789",
"V. c #CC978B",
"C. c #C4998B",
"Z. c #CA9D8E",
"A. c #CCA193",
"S. c #C6AB98",
"D. c #C8AD99",
"F. c #D1A495",
"G. c #D1A897",
"H. c #DBAC9D",
"J. c #D2A898",
"K. c #C4B19C",
"L. c #C7B4A0",
"P. c #C9B7A4",
"I. c #CEBBA9",
"U. c #D1BEAC",
"Y. c #E4B5A5",
"T. c #E8B7A7",
"R. c #E7B8A8",
"E. c #E8B8A8",
"W. c #D6C4B3",
"Q. c #D8C7B7",
"!. c #DCCBBC",
"~. c #DFCFC0",
"^. c #E0D0C1",
"/. c None",
/* pixels */
"/./././././././././././././././././././././././././././././././././././././././././././././././././././././././././././././././.",
"/./././././././././././././././././././././././././././././././././././././././././././././././././././././././././././././././.",
"/./././././././././././././././././././././././././././././././././././././././././././././././././././././././././././././././.",
"/./././././././././././././././././././././././././././././././././././././././././././././././././././././././././././././././.",
"/./././././././././././././././././././././././././././././././././././././././././././././././././././././././././././././././.",
"/./././././././././././././././././././././././././././././././././././././././././././././././././././././././././././././././.",
"/./././././././././././././././././././././././././././././././././././././././././././././././././././././././././././././././.",
"/./././././././././././././././././././././././././././././././././././././././././././././././././././././././././././././././.",
"/./././././././././././././././././././././././././././././././././././././././././././././././././././././././././././././././.",
"/./././././././././././././././././././././././././././././././././././././././././././././././././././././././././././././././.",
"/./././././././././././././././././././././././././././.X X X X /./././.X X /./././././././././././././././././././././././././.",
"/./././././././././././././././././././././././././././.+ # + + /./././.+ + /./././././././././././././././././././././././././.",
"/./././././././././././././././././././././.X X X X X + , 6 6 , + X . + , , + . /./././././././././././././././././././././././.",
"/./././././././././././././././././././././.+ + # # + ; t h g y ; + + ; y y ; + /./././././././././././././././././././././././.",
"/./././././././././././././././././././.X = , r 6 6 6 e h T T x e 6 6 e j h t , + X /./././././././././././././././././././././.",
"/./././././././././././././././././././.. + , e p g g j T Q E T j g g g T T j t > # /./././././././././././././././././././././.",
"/./././././././././././././././././././././.O ; s v D v E E Q T A A A A E T A c h 7 # . /./././././././././././././././././././.",
"/./././././././././././././././././././././.# 4 h Q Q E E E T E E E Q E E E E Q Q h > + /./././././././././././././././././././.",
"/./././././././././././././././././././.X % t h D E Q E E Q E Q E E E E E E E Q Q c t , + X /./././././././././././././././././.",
"/./././././././././././././././././././.X % s Q E E E E c c c D T E A A T E E E E A g r - + /./././././././././././././././././.",
"/./././././././././././././././././././.X % s Q Q E E c g g p x A A g g A E E E E A g y e , # X /./././././././././././././././.",
"/./././././././././././././././././././.# ; s T E E T E W v g g A Q Q Q E E T E E A h p e , + X /./././././././././././././././.",
"/./././././././././././././././././.X # , e p j T E v ` y.9.v p j ' y.y.` T E E E E T s > # /./././././././././././././././././.",
"/./././././././././././././././././.X # 4 r y g c W ` 9.C.N.3.E T ' x.C.9.` Q T E Q E s %   /./././././././././././././././././.",
"/./././././././././././././././././././.# - 6 g c ` y.B.F.F.x.0./ ' h.F.C.y.' A T Q Q s %   /./././././././././././././././././.",
"/./././././././././././././././././././.  # r h c <.x.Z.d.d.A.C.9.6.C.Z.f.w.2.` E A E h 4 % /./././././././././././././././././.",
"/./././././././././././././././././././.  # p T T ' x.d.D E z.H.C.C.J.x.E c w.y.Q g A A j e % X /./././././././././././././././.",
"/./././././././././././././././././././.# < h Q ~ 6.c.y.5 8 d.Y.H.Y.T.d.7 6 y.N.<.v A A j q % X /./././././././././././././././.",
"/./././././././././././././././././.X # 6 s A ~ 1.u.V.y.t p h.R.T.Y.R.d.i t a.V.t.>.R p > % /./././././././././././././././././.",
"/./././././././././././././././././.X # 6 p j ~ 1.u.V.h./ ` c.R.Y.T.R.c.` / f.V.t.>.R r # X /./././././././././././././././././.",
"/./././././././././././././././././././.# ; p A R ,.x.F.c.C.H.Y.Y.T.Y.H.C.C.F.x.,.R A e # X /./././././././././././././././././.",
"/./././././././././././././././././././.X # 5 t p Q 0.C.H.T.Y.Y.Y.Y.Y.T.T.H.B.w.! p i 6 # X /./././././././././././././././././.",
"/./././././././././././././././././././././.+ > i c W 5.C.Y.Y.Y.Y.Y.Y.Y.Y.B.4.! c y ; # /./././././././././././././././././././.",
"/./././././././././././././././././././././.  # 6 y p E 4.f.A.Y.Y.I.Y.F.f.4.R g i 5 # X /./././././././././././././././././././.",
"/./././././././././././././././././././././././.# ; y p 7 T f.H.H.H.H.f.E r p e ; # /./././././././././././././././././././././.",
"/./././././././././././././././././././././././.X % a a = t e.G.F.F.F.y.8 = d d % X /./././././././././././././././././././././.",
"/./././././././././././././././././././././././.X : G J 8 s i.D.D.D.D.i.x 9 K G :   /./././././././././././././././././././././.",
"/./././././././././././././././././././././././.  : ] } l F j.P.L.L.K.p.D z } ] :   /./././././././././././././././././././././.",
"/./././././././././././././././././././././././.. : ] } S ) b.Q.Q.W.L.s.( z } ] : X /./././././././././././././././././././././.",
"/./././././././././././././././././././././././.o 1 { o.S | n.^.!.Q.I.k.) H o.{ 1 o /./././././././././././././././././././././.",
"/./././././././././././././././././././././.X O - a =.;.H | n.~.~.!.Q.b._ H ;.=.a = o X /./././././././././././././././././././.",
"/./././././././././././././././././././././.X O 4 z -.;.H _ b.Q.!.!.^.M._ H ;.;.S < + X /./././././././././././././././././././.",
"/./././././././././././././././././././././.X o > z  .=.S ) k.I.Q.~.~.n.| H o.=.S 7 # X /./././././././././././././././././././.",
"/./././././././././././././././././././././.# % ; q L K B ) l.I.W.Q.~.n.| z K [ S q - O /./././././././././././././././././././.",
"/./././././././././././././././././././.X # 1 1 % = 8 d f | m.W.I.I.!.n...f a d d d q 1 @ X /./././././././././././././././././.",
"/./././././././././././././././././././.X - D D - o > 7 t ( g.n.v.v.M.g.( i 5 i ^ ....D - X /./././././././././././././././././.",
"/./././././././././././././././././././.  5 7.8.5 o ; 7 7 d #.:.*.*.*.$.d 7 5 A y.A.A.q.5   /./././././././././././././././././.",
"/./././././././././././././././././././.  5 5.2.5 O 3 q d n P I I I I P n q q D e.z.z.7.7   /./././././././././././././././././.",
"/./././././././././././././././././././././.6 4 O $ w P U Y @.@.@.+.@.+.U U P Z i 8 t 8 /./././././././././././././././././././.",
"/./././././././././././././././././././././.. . X * b +.%.&.%.%.%.%.&.&.&.%.U b &       /./././././././././././././././././././.",
"/./././././././././././././././././././././././.X * b U %.&.&.@.+.+.%.&.&.%.I b &   /./././././././././././././././././././././.",
"/./././././././././././././././././././././././.X & b O.%.&.%.+.m m U %.&.%.+.m * X /./././././././././././././././././././././.",
"/./././././././././././././././././././././././.. & b O.%.%.+.M 2 2 m +.%.&.%.M * X /./././././././././././././././././././././.",
"/./././././././././././././././././././././././.X * b U @.O.M 0 @ @ 0 M Y $.$.C : X /./././././././././././././././././././././.",
"/./././././././././././././././././././././././.. * m I O.M 2 @ /./.& 3 l J J l % X /./././././././././././././././././././././.",
"/./././././././././././././././././././././././.X $ 0 C V w $ . /./.. # 9 u u 9 % X /./././././././././././././././././././././.",
"/./././././././././././././././././././././././.X @ < 8 q < @ X /./././.% % % # /./././././././././././././././././././././././.",
"/./././././././././././././././././././././././.X + < e 8 , + X /./././.X X X . /./././././././././././././././././././././././.",
"/./././././././././././././././././././././././.X % u k k 8 # X /./././././././././././././././././././././././././././././././.",
"/./././././././././././././././././././././././.X # 8 k k 8 % X /./././././././././././././././././././././././././././././././.",
"/././././././././././././././././././././././././.O : : > : O /././././././././././././././././././././././././././././././././.",
"/./././././././././././././././././././././././././././././././././././././././././././././././././././././././././././././././.",
"/./././././././././././././././././././././././././././././././././././././././././././././././././././././././././././././././.",
"/./././././././././././././././././././././././././././././././././././././././././././././././././././././././././././././././."
};
