/* XPM */
static char *result[] = {
/* columns rows colors chars-per-pixel */
"64 64 168 2 ",
"   c #070603",
".  c #080704",
"X  c #0A0905",
"o  c #0F0C09",
"O  c #130F0C",
"+  c #15110E",
"@  c #19130F",
"#  c #1B1512",
"$  c #1F1815",
"%  c #1D1E1F",
"&  c #211916",
"*  c #261D19",
"=  c #291E1B",
"-  c #26201D",
";  c #2C221E",
":  c #32231F",
">  c #1D2224",
",  c #2F2220",
"<  c #332522",
"1  c #362925",
"2  c #3B2A25",
"3  c #332C29",
"4  c #3D2E2A",
"5  c #373129",
"6  c #3D312D",
"7  c #3D3330",
"8  c #432B25",
"9  c #422E2A",
"0  c #45322D",
"q  c #4B332D",
"w  c #433633",
"e  c #4C3632",
"r  c #463B35",
"t  c #4C3A34",
"y  c #4A3D39",
"u  c #593730",
"i  c #533A35",
"p  c #553E39",
"a  c #583F3A",
"s  c #583934",
"d  c #6E2E23",
"f  c #6E352C",
"g  c #743127",
"h  c #70382F",
"j  c #7A3228",
"k  c #6C3C36",
"l  c #47423A",
"z  c #4C423C",
"x  c #56413C",
"c  c #5C433E",
"v  c #64443E",
"b  c #74453D",
"n  c #7D493E",
"m  c #353B41",
"M  c #37444C",
"N  c #4F4840",
"B  c #5E4641",
"V  c #534D44",
"C  c #5D4A42",
"Z  c #5F4F49",
"A  c #555147",
"S  c #565149",
"D  c #59554D",
"F  c #595C4A",
"G  c #614741",
"H  c #634A45",
"J  c #6C4B45",
"K  c #674D48",
"L  c #6A4E49",
"P  c #6A4744",
"I  c #714E4A",
"U  c #6B504A",
"Y  c #72534E",
"T  c #6A5B55",
"R  c #665A55",
"E  c #765750",
"W  c #765953",
"Q  c #7D5F58",
"!  c #5F614F",
"~  c #626C55",
"^  c #6F625C",
"/  c #646F58",
"(  c #71645E",
")  c #7E6058",
"_  c #67715A",
"`  c #6A735D",
"'  c #5E6062",
"]  c #636B6D",
"[  c #737A66",
"{  c #757E6A",
"}  c #676F72",
"|  c #87362A",
" . c #8C3D33",
".. c #8B4A3E",
"X. c #854539",
"o. c #894B40",
"O. c #944E41",
"+. c #885248",
"@. c #9D564E",
"#. c #875F59",
"$. c #895954",
"%. c #905957",
"&. c #935C59",
"*. c #A25E59",
"=. c #87655B",
"-. c #986A5E",
";. c #A96658",
":. c #A36859",
">. c #8F6660",
",. c #8D6C63",
"<. c #926F66",
"1. c #927267",
"2. c #947369",
"3. c #9B766B",
"4. c #9D796E",
"5. c #9F7F72",
"6. c #A66E60",
"7. c #AA6E61",
"8. c #A97062",
"9. c #AD7A6D",
"0. c #B1756C",
"q. c #B07467",
"w. c #A27C71",
"e. c #9E8778",
"r. c #A78679",
"t. c #B28B7D",
"y. c #BC8C7D",
"u. c #B3907D",
"i. c #9C938C",
"p. c #AA8F84",
"a. c #B98F82",
"s. c #B28E81",
"d. c #AA998A",
"f. c #A59485",
"g. c #B79183",
"h. c #BB9285",
"j. c #B89986",
"k. c #BF9688",
"l. c #BE9E8C",
"z. c #A99F93",
"x. c #B5A699",
"c. c #B6A79A",
"v. c #B4ABA1",
"b. c #BCAEA2",
"n. c #BDB0A4",
"m. c #C19689",
"M. c #CC978A",
"N. c #C4998B",
"B. c #CB9A8B",
"V. c #CD9F90",
"C. c #C0A08E",
"Z. c #CEA092",
"A. c #C6AD9A",
"S. c #C8AD9B",
"D. c #D2A596",
"F. c #D4AA9A",
"G. c #DBAB9C",
"H. c #C9B09C",
"J. c #CEB3A4",
"K. c #D1B5A5",
"L. c #D1B7A8",
"P. c #D2BBA9",
"I. c #E4B5A5",
"U. c #E7B8A7",
"Y. c #E8B8A7",
"T. c #E8B8A8",
"R. c #D8C4B4",
"E. c None",
/* pixels */
"E.E.E.E.E.E.E.E.E.E.E.E.E.E.E.E.E.E.E.E.E.E.E.E.E.E.E.E.E.E.E.E.E.E.E.E.E.E.E.E.E.E.E.E.E.E.E.E.E.E.E.E.E.E.E.E.E.E.E.E.E.E.E.E.",
"E.E.E.E.E.E.E.E.E.E.E.E.E.E.E.E.E.E.E.E.E.E.E.E.E.E.E.E.E.E.E.E.E.E.E.E.E.E.E.E.E.E.E.E.E.E.E.E.E.E.E.E.E.E.E.E.E.E.E.E.E.E.E.E.",
"E.E.E.E.E.E.E.E.E.E.E.E.E.E.E.E.E.E.E.E.E.E.E.E.E.E.E.E.E.E.E.E.E.E.E.E.E.E.E.E.E.E.E.E.E.E.E.E.E.E.E.E.E.E.E.E.E.E.E.E.E.E.E.E.",
"E.E.E.E.E.E.E.E.E.E.E.E.E.E.E.E.E.E.E.E.E.E.E.E.E.E.E.E.E.E.E.E.E.E.E.E.E.E.E.E.E.E.E.E.E.E.E.E.E.E.E.E.E.E.E.E.E.E.E.E.E.E.E.E.",
"E.E.E.E.E.E.E.E.E.E.E.E.E.E.E.E.E.E.E.E.E.E.E.E.E.E.E.E.E.E.E.E.E.E.E.E.E.E.E.E.E.E.E.E.E.E.E.E.E.E.E.E.E.E.E.E.E.E.E.E.E.E.E.E.",
"E.E.E.E.E.E.E.E.E.E.E.E.E.E.E.E.E.E.E.E.E.E.E.E.E.E.E.E.E.E.E.E.E.E.E.E.E.E.E.E.E.E.E.E.E.E.E.E.E.E.E.E.E.E.E.E.E.E.E.E.E.E.E.E.",
"E.E.E.E.E.E.E.E.E.E.E.E.E.E.E.E.E.E.E.E.E.E.E.E.E.E.E.E.E.E.E.E.E.E.E.E.E.E.E.E.E.E.E.E.E.E.E.E.E.E.E.E.E.E.E.E.E.E.E.E.E.E.E.E.",
"E.E.E.E.E.E.E.E.E.E.E.E.E.E.E.E.E.E.E.E.E.E.E.E.E.E.E.E.E.E.E.E.E.E.E.E.E.E.E.E.E.E.E.E.E.E.E.E.E.E.E.E.E.E.E.E.E.E.E.E.E.E.E.E.",
"E.E.E.E.E.E.E.E.E.E.E.E.E.E.E.E.E.E.E.E.E.E.E.E.E.E.E.E.E.E.E.E.E.E.E.E.E.E.E.E.E.E.E.E.E.E.E.E.E.E.E.E.E.E.E.E.E.E.E.E.E.E.E.E.",
"E.E.E.E.E.E.E.E.E.E.E.E.E.E.E.E.E.E.E.E.E.E.E.E.E.E.E.E.E.E.E.E.E.E.E.E.E.E.E.E.E.E.E.E.E.E.E.E.E.E.E.E.E.E.E.E.E.E.E.E.E.E.E.E.",
"E.E.E.E.E.E.E.E.E.E.E.E.E.E.E.E.E.E.E.E.E.E.E.E.E.E.E.E.E.E.E.E.E.E.E.E.E.E.E.E.E.E.E.E.E.E.E.E.E.E.E.E.E.E.E.E.E.E.E.E.E.E.E.E.",
"E.E.E.E.E.E.E.E.E.E.E.E.E.E.E.E.E.E.E.E.E.E.E.E.E.E.E.E.E.E.E.E.E.E.E.E.E.E.E.E.E.E.E.E.E.E.E.E.E.E.E.E.E.E.E.E.E.E.E.E.E.E.E.E.",
"E.E.E.E.E.E.E.E.E.E.E.E.E.E.E.E.E.E.E.E.E.E.E.E.E.E.E.E.E.E.E.E.E.E.E.E.E.E.E.E.E.E.E.E.E.E.E.E.E.E.E.E.E.E.E.E.E.E.E.E.E.E.E.E.",
"E.E.E.E.E.E.E.E.E.E.E.E.E.E.E.E.E.E.E.E.E.E.E.E.E.E.E.E.E.E.E.E.E.E.E.E.E.E.E.E.E.E.E.E.E.E.E.E.E.E.E.E.E.E.E.E.E.E.E.E.E.E.E.E.",
"E.E.E.E.E.E.E.E.E.E.E.E.E.E.E.E.E.E.E.E.E.E.E.E.E.E.E.E.E.E.E.E.E.E.E.E.E.E.E.E.E.E.E.E.E.E.E.E.E.E.E.E.E.E.E.E.E.E.E.E.E.E.E.E.",
"E.E.E.E.E.E.E.E.E.E.E.E.E.E.E.E.E.E.E.E.E.E.E.E.E.E.E.E.E.E.E.E.E.E.E.E.E.E.E.E.E.E.E.E.E.E.E.E.E.E.E.E.E.E.E.E.E.E.E.E.E.E.E.E.",
"E.E.E.E.E.E.E.E.E.E.E.E.E.E.E.E.E.E.E.E.E.E.E.E.E.E.E.E.E.E.E.E.E.E.E.E.E.E.E.E.E.E.E.E.E.E.E.E.E.E.E.E.E.E.E.E.E.E.E.E.E.E.E.E.",
"E.E.E.E.E.E.E.E.E.E.E.E.E.E.E.E.E.E.E.E.E.E.E.E.E.E.E.E.E.E.E.E.E.E.E.E.E.E.E.E.E.E.E.E.E.E.E.E.E.E.E.E.E.E.E.E.E.E.E.E.E.E.E.E.",
"E.E.E.E.E.E.E.E.E.E.E.E.E.E.E.E.E.E.E.E.E.E.E.E.E.E.E.E.E.E.E.E.E.E.E.E.E.E.E.E.E.E.E.E.E.E.E.E.E.E.E.E.E.E.E.E.E.E.E.E.E.E.E.E.",
"E.E.E.E.E.E.E.E.E.E.E.E.E.E.E.E.E.E.E.E.E.E.E.E.E.E.E.E.E.E.E.E.E.E.E.E.E.E.E.E.E.E.E.E.E.E.E.E.E.E.E.E.E.E.E.E.E.E.E.E.E.E.E.E.",
"E.E.E.E.E.E.E.E.E.E.E.E.E.E.E.E.E.E.E.E.E.E.E.E.E.E.E.E.E.E.E.E.E.E.E.E.E.E.E.E.E.E.E.E.E.E.E.E.E.E.E.E.E.E.E.E.E.E.E.E.E.E.E.E.",
"E.E.E.E.E.E.E.E.E.E.E.E.E.E.E.E.E.E.E.E.E.E.E.E.E.E.E.E.E.E.E.E.E.E.E.E.E.E.E.E.E.E.E.E.E.E.E.E.E.E.E.E.E.E.E.E.E.E.E.E.E.E.E.E.",
"E.E.E.E.E.E.E.E.E.E.E.E.E.E.E.E.E.E.E.E.E.E.E.E.E.E.E.E.X X X X E.E.E.E.X X E.E.E.E.E.E.E.E.E.E.E.E.E.E.E.E.E.E.E.E.E.E.E.E.E.E.",
"E.E.E.E.E.E.E.E.E.E.E.E.E.E.E.E.E.E.E.E.E.E.E.E.E.E.E.E.@ # @ @ E.E.E.E.@ @ E.E.E.E.E.E.E.E.E.E.E.E.E.E.E.E.E.E.E.E.E.E.E.E.E.E.",
"E.E.E.E.E.E.E.E.E.E.E.E.E.E.E.E.E.E.E.E.E.E.X X X X X @ : 2 2 : #     @ : : @   E.E.E.E.E.E.E.E.E.E.E.E.E.E.E.E.E.E.E.E.E.E.E.E.",
"E.E.E.E.E.E.E.E.E.E.E.E.E.E.E.E.E.E.E.E.E.E.# # @ # @ = 0 p s 0 = @ @ * q q = @ E.E.E.E.E.E.E.E.E.E.E.E.E.E.E.E.E.E.E.E.E.E.E.E.",
"E.E.E.E.E.E.E.E.E.E.E.E.E.E.E.E.E.E.E.E.X # < 2 2 2 2 9 p G G p 9 2 2 9 p a 9 : @ . E.E.E.E.E.E.E.E.E.E.E.E.E.E.E.E.E.E.E.E.E.E.",
"E.E.E.E.E.E.E.E.E.E.E.E.E.E.E.E.E.E.E.E.X @ : 9 e i s a B H K B a i i p G G a 0 ; # E.E.E.E.E.E.E.E.E.E.E.E.E.E.E.E.E.E.E.E.E.E.",
"E.E.E.E.E.E.E.E.E.E.E.E.E.E.E.E.E.E.E.E.E.E.+ = e G c G G K H H B B B B H G G c p 6 #   E.E.E.E.E.E.E.E.E.E.E.E.E.E.E.E.E.E.E.E.",
"E.E.E.E.E.E.E.E.E.E.E.E.E.E.E.E.E.E.E.E.E.E.# < p K K H H H H H H H K H H H H K K p ; + E.E.E.E.E.E.E.E.E.E.E.E.E.E.E.E.E.E.E.E.",
"E.E.E.E.E.E.E.E.E.E.E.E.E.E.E.E.E.E.E.E.X $ 4 x B K H H H H K H H H H H H H H H K x 0 : @ X E.E.E.E.E.E.E.E.E.E.E.E.E.E.E.E.E.E.",
"E.E.E.E.E.E.E.E.E.E.E.E.E.E.E.E.E.E.E.E.. & t L K G H G c c c B G H B B H H H H K c p 8 * @ E.E.E.E.E.E.E.E.E.E.E.E.E.E.E.E.E.E.",
"E.E.E.E.E.E.E.E.E.E.E.E.E.E.E.E.E.E.E.E.  * t K K G H c p e i p B G p p v H H H H B i q 9 < @ X E.E.E.E.E.E.E.E.E.E.E.E.E.E.E.E.",
"E.E.E.E.E.E.E.E.E.E.E.E.E.E.E.E.E.E.E.E.@ = t G G K G K K v i e B c u u c K H H H B p e 9 : # X E.E.E.E.E.E.E.E.E.E.E.E.E.E.E.E.",
"E.E.E.E.E.E.E.E.E.E.E.E.E.E.E.E.E.E.X @ : 9 e p G H G W 4.3.v e c v f f v H H H H G B e = @ E.E.E.E.E.E.E.E.E.E.E.E.E.E.E.E.E.E.",
"E.E.E.E.E.E.E.E.E.E.E.E.E.E.E.E.E.E.X # < 8 9 i c L E 2.m.h.=.J H J ....b v G H H K K t &   E.E.E.E.E.E.E.E.E.E.E.E.E.E.E.E.E.E.",
"E.E.E.E.E.E.E.E.E.E.E.E.E.E.E.E.E.E.E.E.# * 2 i c W w.m.V.V.a.3.Y Y 9.q...h v H H K K t #   E.E.E.E.E.E.E.E.E.E.E.E.E.E.E.E.E.E.",
"E.E.E.E.E.E.E.E.E.E.E.E.E.E.E.E.E.E.E.E.  # 8 p c ) a.G.G.G.G.N.1.1.N.M.;...b v c B H p < & E.E.E.E.E.E.E.E.E.E.E.E.E.E.E.E.E.E.",
"E.E.E.E.E.E.E.E.E.E.E.E.E.E.E.E.E.E.E.E.  # e B B Q a.G.I.I.I.F.m.m.F.G.M.q...f u p B C x 0 $ . E.E.E.E.E.E.E.E.E.E.E.E.E.E.E.E.",
"E.E.E.E.E.E.E.E.E.E.E.E.E.E.E.E.E.E.E.E.# ; p L Y >.a.V.g.h.F.I.G.G.I.G.t.-.X.j k v B B x 0 & X E.E.E.E.E.E.E.E.E.E.E.E.E.E.E.E.",
"E.E.E.E.E.E.E.E.E.E.E.E.E.E.E.E.E.E.X & 2 e c I &.0.M.r.B H h.U.U.I.U.h.H 8 d X.@.%.J q ; & E.E.E.E.E.E.E.E.E.E.E.E.E.E.E.E.E.E.",
"E.E.E.E.E.E.E.E.E.E.E.E.E.E.E.E.E.E.X # 2 e c L %.0.M.t.C H k.T.U.U.U.h.K q X.@.*.%.P 0 # . E.E.E.E.E.E.E.E.E.E.E.E.E.E.E.E.E.E.",
"E.E.E.E.E.E.E.E.E.E.E.E.E.E.E.E.E.E.E.E.# = e c v #.h.Z.g.h.G.I.U.I.U.F.k.t.y.9.$.P c 9 # . E.E.E.E.E.E.E.E.E.E.E.E.E.E.E.E.E.E.",
"E.E.E.E.E.E.E.E.E.E.E.E.E.E.E.E.E.E.E.E.. # < e i U 4.N.K.Y.I.I.I.I.I.U.Y.G.B.4.L t 0 1 # X E.E.E.E.E.E.E.E.E.E.E.E.E.E.E.E.E.E.",
"E.E.E.E.E.E.E.E.E.E.E.E.E.E.E.E.E.E.E.E.E.E.# = q c U =.m.I.I.I.I.U.Y.I.I.M.,.U c 0 ; # E.E.E.E.E.E.E.E.E.E.E.E.E.E.E.E.E.E.E.E.",
"E.E.E.E.E.E.E.E.E.E.E.E.E.E.E.E.E.E.E.E.E.E.. @ : 0 e K -.t.D.I.I.K.K.Z.t.=.H e w < + . E.E.E.E.E.E.E.E.E.E.E.E.E.E.E.E.E.E.E.E.",
"E.E.E.E.E.E.E.E.E.E.E.E.E.E.E.E.E.E.E.E.E.E.. o + - q e 2 C t.D.G.G.G.t.K 4 e q = + X X E.E.E.E.E.E.E.E.E.E.E.E.E.E.E.E.E.E.E.E.",
"E.E.E.E.E.E.E.E.E.E.E.E.E.E.E.E.E.E.E.E.E.E.# # # ; z r & 6 e.D.D.D.F.r.4 & r z ; # $ # E.E.E.E.E.E.E.E.E.E.E.E.E.E.E.E.E.E.E.E.",
"E.E.E.E.E.E.E.E.E.E.E.E.E.E.E.E.E.E.E.E.X # 3 7 7 y ! D 5 z e.A.H.H.H.e.z 5 F ! r 7 7 3 # X E.E.E.E.E.E.E.E.E.E.E.E.E.E.E.E.E.E.",
"E.E.E.E.E.E.E.E.E.E.E.E.E.E.E.E.E.E.E.E.X # 7 z z V _ ~ l Z f.A.j.u.u.3.c l ~ _ S z z 7 # X E.E.E.E.E.E.E.E.E.E.E.E.E.E.E.E.E.E.",
"E.E.E.E.E.E.E.E.E.E.E.E.E.E.E.E.E.E.E.E.. # 7 N N S _ ~ z ^ x.S.6.....n p V _ _ S N N 7 # X E.E.E.E.E.E.E.E.E.E.E.E.E.E.E.E.E.E.",
"E.E.E.E.E.E.E.E.E.E.E.E.E.E.E.E.E.E.E.E.# , 7 r w V ` ` c ] b.L.9.O.| g s A ` ` V w r 7 , # E.E.E.E.E.E.E.E.E.E.E.E.E.E.E.E.E.E.",
"E.E.E.E.E.E.E.E.E.E.E.E.E.E.E.E.E.E.X # 3 7 7 4 7 N [ { Z ^ c.R.P.y...j s D { [ N 4 6 7 7 3 # X E.E.E.E.E.E.E.E.E.E.E.E.E.E.E.E.",
"E.E.E.E.E.E.E.E.E.E.E.E.E.E.E.E.E.E.X # 6 w 1 < < z { { S T x.R.K.m.8.+.v D { [ N < , 1 w 6 # . E.E.E.E.E.E.E.E.E.E.E.E.E.E.E.E.",
"E.E.E.E.E.E.E.E.E.E.E.E.E.E.E.E.E.E.. + < 3 & # , l _ ` A R d.l.8.;.m.p.U A ` _ y , # & 3 < @ . E.E.E.E.E.E.E.E.E.E.E.E.E.E.E.E.",
"E.E.E.E.E.E.E.E.E.E.E.E.E.E.E.E.E.E.O $ < < + + ; r F F N T d.l.:.7.K.n.] N ! D r , + + , < $ + E.E.E.E.E.E.E.E.E.E.E.E.E.E.E.E.",
"E.E.E.E.E.E.E.E.E.E.E.E.E.E.E.E.X + * , 2 , + + , 7 w r y ^ c.P.l.C.R.n.( l r r 6 , + + , 2 , * + X E.E.E.E.E.E.E.E.E.E.E.E.E.E.",
"E.E.E.E.E.E.E.E.E.E.E.E.E.E.E.E.X & t c 6 - + + * , 1 4 w R i.v.z.z.c.i.R 7 4 1 < * + + * 4 x t & X E.E.E.E.E.E.E.E.E.E.E.E.E.E.",
"E.E.E.E.E.E.E.E.E.E.E.E.E.E.E.E.  < ,.,.6 O E.E.+ $ < 4 4 l ' } } ] } ' y 4 2 < $ + E.E.O 6 ,.,.1   E.E.E.E.E.E.E.E.E.E.E.E.E.E.",
"E.E.E.E.E.E.E.E.E.E.E.E.E.E.E.E.  2 1.1.1   E.E.X + = 1 < 3 m M M M M m 3 < 1 * + X E.E.  1 1.2.2   E.E.E.E.E.E.E.E.E.E.E.E.E.E.",
"E.E.E.E.E.E.E.E.E.E.E.E.E.E.E.E.E.* t r $ X E.E.X o # $ # $ % > > > > % % $ # # o X E.E.X & r t * E.E.E.E.E.E.E.E.E.E.E.E.E.E.E.",
"E.E.E.E.E.E.E.E.E.E.E.E.E.E.E.E.E.E.E.E.E.E.E.E.E.E.E.E.E.E.E.E.E.E.E.E.E.E.E.E.E.E.E.E.E.E.E.E.E.E.E.E.E.E.E.E.E.E.E.E.E.E.E.E.",
"E.E.E.E.E.E.E.E.E.E.E.E.E.E.E.E.E.E.E.E.E.E.E.E.E.E.E.E.E.E.E.E.E.E.E.E.E.E.E.E.E.E.E.E.E.E.E.E.E.E.E.E.E.E.E.E.E.E.E.E.E.E.E.E.",
"E.E.E.E.E.E.E.E.E.E.E.E.E.E.E.E.E.E.E.E.E.E.E.E.E.E.E.E.E.E.E.E.E.E.E.E.E.E.E.E.E.E.E.E.E.E.E.E.E.E.E.E.E.E.E.E.E.E.E.E.E.E.E.E."
};
