/* XPM */
static char *result[] = {
/* columns rows colors chars-per-pixel */
"64 64 119 2 ",
"   c black",
".  c #090706",
"X  c #0A0807",
"o  c #0C0A09",
"O  c #100706",
"+  c #110807",
"@  c #130C09",
"#  c #14140E",
"$  c #18160F",
"%  c #151412",
"&  c #1D1715",
"*  c #161A12",
"=  c #191C15",
"-  c #1D1D19",
";  c #201E16",
":  c #251E1A",
">  c #301914",
",  c #1D2019",
"<  c #252217",
"1  c #26231A",
"2  c #28231B",
"3  c #362219",
"4  c #3D221A",
"5  c #28301F",
"6  c #2D2522",
"7  c #2D2D22",
"8  c #312723",
"9  c #342A25",
"0  c #372E28",
"q  c #392E2A",
"w  c #353020",
"e  c #343228",
"r  c #3C322C",
"t  c #3F392F",
"y  c #3D3632",
"u  c #3F3B30",
"i  c #432A1F",
"p  c #542F24",
"a  c #463626",
"s  c #40362E",
"d  c #433E2F",
"f  c #4C3F2C",
"g  c #553025",
"h  c #583427",
"j  c #563528",
"k  c #593629",
"l  c #573C2C",
"z  c #5A3A2B",
"x  c #413731",
"c  c #433E33",
"v  c #483D33",
"b  c #443C39",
"n  c #37432B",
"m  c #38432C",
"M  c #3E4734",
"N  c #3E4832",
"B  c #46402E",
"V  c #4B442E",
"C  c #5A422F",
"Z  c #464036",
"A  c #4A4434",
"S  c #4F4B34",
"D  c #4B433D",
"F  c #444C39",
"G  c #554332",
"H  c #5C4432",
"J  c #534E36",
"K  c #5E4A35",
"L  c #524C3E",
"P  c #465537",
"I  c #475638",
"U  c #48553A",
"Y  c #4C5B3D",
"T  c #575035",
"R  c #5C543A",
"E  c #55583C",
"W  c #5D5A3D",
"Q  c #604A37",
"!  c #624D39",
"~  c #61553C",
"^  c #645B3E",
"/  c #554B46",
"(  c #4F5140",
")  c #4E5A41",
"_  c #545242",
"`  c #565C45",
"'  c #5E534F",
"]  c #5A5F4A",
"[  c #635740",
"{  c #645C40",
"}  c #665A55",
"|  c #576444",
" . c #5C6442",
".. c #5C6C46",
"X. c #5C644C",
"o. c #5E684E",
"O. c #5E734B",
"+. c #5C6850",
"@. c #666246",
"#. c #626947",
"$. c #626748",
"%. c #68664A",
"&. c #656B4C",
"*. c #61754D",
"=. c #656E55",
"-. c #6A6E52",
";. c #657453",
":. c #6C7355",
">. c #677854",
",. c #697A57",
"<. c #6A765A",
"1. c #6D7D5B",
"2. c #727C5C",
"3. c #6F805E",
"4. c #70805F",
"5. c #738362",
"6. c #778867",
"7. c #7B8A6A",
"8. c None",
/* pixels */
"8.8.8.8.8.8.8.8.8.8.8.8.8.8.8.8.8.8.8.8.8.8.8.8.8.8.8.8.8.8.8.8.8.8.8.8.8.8.8.8.8.8.8.8.8.8.8.8.8.8.8.8.8.8.8.8.8.8.8.8.8.8.8.8.",
"8.8.8.8.8.8.8.8.8.8.8.8.8.8.8.8.8.8.8.8.8.8.8.8.8.8.8.8.8.8.8.8.8.8.8.8.8.8.8.8.8.8.8.8.8.8.8.8.8.8.8.8.8.8.8.8.8.8.8.8.8.8.8.8.",
"8.8.8.8.8.8.8.8.8.8.8.8.8.8.8.8.8.8.8.8.8.8.8.8.8.8.8.8.8.8.8.8.8.8.8.8.8.8.8.8.8.8.8.8.8.8.8.8.8.8.8.8.8.8.8.8.8.8.8.8.8.8.8.8.",
"8.8.8.8.8.8.8.8.8.8.8.8.8.8.8.8.8.8.8.8.8.8.8.8.8.8.8.8.8.8.8.8.8.8.8.8.8.8.8.8.8.8.8.8.8.8.8.8.8.8.8.8.8.8.8.8.8.8.8.8.8.8.8.8.",
"8.8.8.8.8.8.8.8.8.8.8.8.8.8.8.8.8.8.8.8.8.8.8.8.8.8.8.8.8.8.8.8.8.8.8.8.8.8.8.8.8.8.8.8.8.8.8.8.8.8.8.8.8.8.8.8.8.8.8.8.8.8.8.8.",
"8.8.8.8.8.8.8.8.8.8.8.8.8.8.8.8.8.8.8.8.8.8.8.8.8.8.8.8.8.8.8.8.8.8.8.8.8.8.8.8.8.8.8.8.8.8.8.8.8.8.8.8.8.8.8.8.8.8.8.8.8.8.8.8.",
"8.8.8.8.8.8.8.8.8.8.8.8.8.8.8.8.8.8.8.8.8.8.8.8.8.8.8.8.8.8.8.8.8.8.8.8.8.8.8.8.8.8.8.8.8.8.8.8.8.8.8.8.8.8.8.8.8.8.8.8.8.8.8.8.",
"8.8.8.8.8.8.8.8.8.8.8.8.8.8.8.8.8.8.8.8.8.8.8.8.8.8.8.8.8.8.8.8.8.8.8.8.8.8.8.8.8.8.8.8.8.8.8.8.8.8.8.8.8.8.8.8.8.8.8.8.8.8.8.8.",
"8.8.8.8.8.8.8.8.8.8.8.8.8.8.8.8.8.8.8.8.8.8.8.8.8.8.8.8.8.8.8.8.8.8.8.8.8.8.8.8.8.8.8.8.8.8.8.8.8.8.8.8.8.8.8.8.8.8.8.8.8.8.8.8.",
"8.8.8.8.8.8.8.8.8.8.8.8.8.8.8.8.8.8.8.8.8.8.8.8.8.8.8.8.8.8.8.8.8.8.8.8.8.8.8.8.8.8.8.8.8.8.8.8.8.8.8.8.8.8.8.8.8.8.8.8.8.8.8.8.",
"8.8.8.8.8.8.8.8.8.8.8.8.8.8.8.8.8.8.8.8.8.8.8.8.8.8.                    8.8.8.8.8.8.8.8.8.8.8.8.8.8.8.8.8.8.8.8.8.8.8.8.8.8.8.8.",
"8.8.8.8.8.8.8.8.8.8.8.8.8.8.8.8.8.8.8.8.8.8.8.8.8.8.@ @ @ @ @ @ @ @ @ @ 8.8.8.8.8.8.8.8.8.8.8.8.8.8.8.8.8.8.8.8.8.8.8.8.8.8.8.8.",
"8.8.8.8.8.8.8.8.8.8.8.8.8.8.8.8.8.8.8.8.8.8.8.8.  @ 3 i 4 4 4 4 4 > 4 > O   8.8.8.8.8.8.8.8.8.8.8.8.8.8.8.8.8.8.8.8.8.8.8.8.8.8.",
"8.8.8.8.8.8.8.8.8.8.8.8.8.8.8.8.8.8.8.8.8.8.8.8.$ 1 V H k h p p h z l a < # 8.8.8.8.8.8.8.8.8.8.8.8.8.8.8.8.8.8.8.8.8.8.8.8.8.8.",
"8.8.8.8.8.8.8.8.8.8.8.8.8.8.8.8.8.8.8.8.8.8.  # n Y  .W G h p p h C R | Y n #   8.8.8.8.8.8.8.8.8.8.8.8.8.8.8.8.8.8.8.8.8.8.8.8.",
"8.8.8.8.8.8.8.8.8.8.8.8.8.8.8.8.8.8.8.8.8.8.* 5 Y *.*. .K k h h C ~ #.*.*.Y 5 * 8.8.8.8.8.8.8.8.8.8.8.8.8.8.8.8.8.8.8.8.8.8.8.8.",
"8.8.8.8.8.8.8.8.8.8.8.8.8.8.8.8.8.8.8.8.  * n Y ..O.O...K z k G W ..O.O.*...Y m *   8.8.8.8.8.8.8.8.8.8.8.8.8.8.8.8.8.8.8.8.8.8.",
"8.8.8.8.8.8.8.8.8.8.8.8.8.8.8.8.8.8.8.8.  * I *.O.O.O. .K z K W #.*.O.O.O.*.*.I *   8.8.8.8.8.8.8.8.8.8.8.8.8.8.8.8.8.8.8.8.8.8.",
"8.8.8.8.8.8.8.8.8.8.8.8.8.8.8.8.8.8.8.8.  * I *.*.O.O. .K H { &.;.*.O.O.O.*.*.I *   8.8.8.8.8.8.8.8.8.8.8.8.8.8.8.8.8.8.8.8.8.8.",
"8.8.8.8.8.8.8.8.8.8.8.8.8.8.8.8.8.8.8.8.  * I *.O.O.O.$.K K &.,.,.:.*.O.O.O.O.P *   8.8.8.8.8.8.8.8.8.8.8.8.8.8.8.8.8.8.8.8.8.8.",
"8.8.8.8.8.8.8.8.8.8.8.8.8.8.8.8.8.8.8.8.  * I *.*.*.;.$.K K -.3.3.1.>.;.O.*.*.P *   8.8.8.8.8.8.8.8.8.8.8.8.8.8.8.8.8.8.8.8.8.8.",
"8.8.8.8.8.8.8.8.8.8.8.8.8.8.8.8.8.8.8.8.  * I *.*.*.>.&.K K -.5.3.3.1.>.*.O.*.P *   8.8.8.8.8.8.8.8.8.8.8.8.8.8.8.8.8.8.8.8.8.8.",
"8.8.8.8.8.8.8.8.8.8.8.8.8.8.8.8.8.8.8.8.  * P *.>.,.1.-.K ! =.2.3.5.1.1.,.>.*.P *   8.8.8.8.8.8.8.8.8.8.8.8.8.8.8.8.8.8.8.8.8.8.",
"8.8.8.8.8.8.8.8.8.8.8.8.8.8.8.8.8.8.8.8.  * I >.,.<.=.%.[ [ <.5.3.3.3.3.,.,.>.I *   8.8.8.8.8.8.8.8.8.8.8.8.8.8.8.8.8.8.8.8.8.8.",
"8.8.8.8.8.8.8.8.8.8.8.8.8.8.8.8.8.8.8.8.  = Y ,.3.:.[ ~ %.:.2.5.5.1.5.3.1.1.1.) *   8.8.8.8.8.8.8.8.8.8.8.8.8.8.8.8.8.8.8.8.8.8.",
"8.8.8.8.8.8.8.8.8.8.8.8.8.8.8.8.8.8.8.8.  = Y <.:.%.~ [ <.5.5.2.5.5.1.5.5.1.,.) =   8.8.8.8.8.8.8.8.8.8.8.8.8.8.8.8.8.8.8.8.8.8.",
"8.8.8.8.8.8.8.8.8.8.8.8.8.8.8.8.8.8.8.8.  = Y :.[ [ %.:.2.6.6.5.5.5.2.1.5.3.1.) =   8.8.8.8.8.8.8.8.8.8.8.8.8.8.8.8.8.8.8.8.8.8.",
"8.8.8.8.8.8.8.8.8.8.8.8.8.8.8.8.8.8.8.8.  = ) &.K ! -.5.6.7.6.6.6.6.5.5.1.1.,.) =   8.8.8.8.8.8.8.8.8.8.8.8.8.8.8.8.8.8.8.8.8.8.",
"8.8.8.8.8.8.8.8.8.8.8.8.8.8.8.8.8.8.8.8.  = ) &.K Q =.5.7.7.6.7.6.6.5.1.5.3.1.) =   8.8.8.8.8.8.8.8.8.8.8.8.8.8.8.8.8.8.8.8.8.8.",
"8.8.8.8.8.8.8.8.8.8.8.8.8.8.8.8.8.8.8.8.  , Y &.K ! =.1.<.=.=.<.=.<.1.3.1.3.,.Y =   8.8.8.8.8.8.8.8.8.8.8.8.8.8.8.8.8.8.8.8.8.8.",
"8.8.8.8.8.8.8.8.8.8.8.8.8.8.8.8.8.8.8.8.  * I #.K ! :.<._ c c v b _ ;.5.,.,.>.I *   8.8.8.8.8.8.8.8.8.8.8.8.8.8.8.8.8.8.8.8.8.8.",
"8.8.8.8.8.8.8.8.8.8.8.8.8.8.8.8.8.8.8.8.  * N E G G { ] t 8 8 8 8 t ` =.o.X.| N *   8.8.8.8.8.8.8.8.8.8.8.8.8.8.8.8.8.8.8.8.8.8.",
"8.8.8.8.8.8.8.8.8.8.8.8.8.8.8.8.8.8.8.8.  o 9 s r r d s 0 9 9 9 8 0 s Z u d t 7 @   8.8.8.8.8.8.8.8.8.8.8.8.8.8.8.8.8.8.8.8.8.8.",
"8.8.8.8.8.8.8.8.8.8.8.8.8.8.8.8.8.8.8.8.  o 1 9 9 9 9 9 9 9 9 9 9 9 9 9 9 9 9 1 o   8.8.8.8.8.8.8.8.8.8.8.8.8.8.8.8.8.8.8.8.8.8.",
"8.8.8.8.8.8.8.8.8.8.8.8.8.8.8.8.8.8.8.8.  o : 0 9 9 9 9 9 9 9 9 9 9 9 9 9 9 9 : o   8.8.8.8.8.8.8.8.8.8.8.8.8.8.8.8.8.8.8.8.8.8.",
"8.8.8.8.8.8.8.8.8.8.8.8.8.8.8.8.8.8.8.8.  o : 9 9 9 9 9 9 9 9 9 9 9 9 9 9 0 9 : o   8.8.8.8.8.8.8.8.8.8.8.8.8.8.8.8.8.8.8.8.8.8.",
"8.8.8.8.8.8.8.8.8.8.8.8.8.8.8.8.8.8.8.8.  o 2 0 9 9 9 0 9 9 9 9 9 9 9 9 9 9 0 : o   8.8.8.8.8.8.8.8.8.8.8.8.8.8.8.8.8.8.8.8.8.8.",
"8.8.8.8.8.8.8.8.8.8.8.8.8.8.8.8.8.8.8.8.  o : 9 9 9 9 9 9 9 9 9 0 9 9 9 9 9 0 : o   8.8.8.8.8.8.8.8.8.8.8.8.8.8.8.8.8.8.8.8.8.8.",
"8.8.8.8.8.8.8.8.8.8.8.8.8.8.8.8.8.8.8.8.  X : 9 9 9 9 9 9 9 9 9 9 9 9 9 9 9 9 : o   8.8.8.8.8.8.8.8.8.8.8.8.8.8.8.8.8.8.8.8.8.8.",
"8.8.8.8.8.8.8.8.8.8.8.8.8.8.8.8.8.8.8.8.  X : 9 9 9 9 9 9 9 9 9 9 9 9 9 9 9 8 : o   8.8.8.8.8.8.8.8.8.8.8.8.8.8.8.8.8.8.8.8.8.8.",
"8.8.8.8.8.8.8.8.8.8.8.8.8.8.8.8.8.8.8.8.  o : 9 8 8 9 9 9 9 9 9 8 9 9 9 8 8 9 : .   8.8.8.8.8.8.8.8.8.8.8.8.8.8.8.8.8.8.8.8.8.8.",
"8.8.8.8.8.8.8.8.8.8.8.8.8.8.8.8.8.8.8.8.  o : 8 6 8 9 0 0 9 9 r s c r 8 : : 6 6 # . 8.8.8.8.8.8.8.8.8.8.8.8.8.8.8.8.8.8.8.8.8.8.",
"8.8.8.8.8.8.8.8.8.8.8.8.8.8.8.8.8.8.8.8.  o : 8 8 8 0 r 0 0 q c ] ] c 2 # @ : 6 2 & o   8.8.8.8.8.8.8.8.8.8.8.8.8.8.8.8.8.8.8.8.",
"8.8.8.8.8.8.8.8.8.8.8.8.8.8.8.8.8.8.8.8.  . : 9 8 9 q q q x v / $.X.Z 8 o X : 9 9 : o   8.8.8.8.8.8.8.8.8.8.8.8.8.8.8.8.8.8.8.8.",
"8.8.8.8.8.8.8.8.8.8.8.8.8.8.8.8.8.8.8.8.  o : 8 8 9 0 r r Z X.X./ v x 6 o X : 8 9 : o   8.8.8.8.8.8.8.8.8.8.8.8.8.8.8.8.8.8.8.8.",
"8.8.8.8.8.8.8.8.8.8.8.8.8.8.8.8.8.8.8.8.  o : 6 8 9 0 x Z _ :.:._ Z x 6 o . : 8 6 : o   8.8.8.8.8.8.8.8.8.8.8.8.8.8.8.8.8.8.8.8.",
"8.8.8.8.8.8.8.8.8.8.8.8.8.8.8.8.8.8.8.8.  X : 6 8 9 r D X.<.4.4.<.X.D 9 o . : 6 8 : o   8.8.8.8.8.8.8.8.8.8.8.8.8.8.8.8.8.8.8.8.",
"8.8.8.8.8.8.8.8.8.8.8.8.8.8.8.8.8.8.8.8.  # 7 x s s v _ =.2.2.2.2.=._ s : ; e c c 7 o   8.8.8.8.8.8.8.8.8.8.8.8.8.8.8.8.8.8.8.8.",
"8.8.8.8.8.8.8.8.8.8.8.8.8.8.8.8.8.8.8.8.  * F X.R T R ` @.%.%.%.%.@.^ R S S ` X.+.F *   8.8.8.8.8.8.8.8.8.8.8.8.8.8.8.8.8.8.8.8.",
"8.8.8.8.8.8.8.8.8.8.8.8.8.8.8.8.8.8.8.8.  * M ` { { { ^ ^ ^ ^ ^ ^ ^ ^ { { ^ ` ` ) M =   8.8.8.8.8.8.8.8.8.8.8.8.8.8.8.8.8.8.8.8.",
"8.8.8.8.8.8.8.8.8.8.8.8.8.8.8.8.8.8.8.8.8.8.* 7 K @.{ ^ ^ ^ ~ R ^ ^ ^ { @.J 5 = - * 8.8.8.8.8.8.8.8.8.8.8.8.8.8.8.8.8.8.8.8.8.8.",
"8.8.8.8.8.8.8.8.8.8.8.8.8.8.8.8.8.8.8.8.8.8.  # V ^ ^ ^ ^ T V V R ^ ^ ^ ^ V $       8.8.8.8.8.8.8.8.8.8.8.8.8.8.8.8.8.8.8.8.8.8.",
"8.8.8.8.8.8.8.8.8.8.8.8.8.8.8.8.8.8.8.8.8.8.  % V ^ ~ R R V < < V ~ R ~ ^ V $   8.8.8.8.8.8.8.8.8.8.8.8.8.8.8.8.8.8.8.8.8.8.8.8.",
"8.8.8.8.8.8.8.8.8.8.8.8.8.8.8.8.8.8.8.8.8.8.  * S %.@.E S w # @ w V T ^ ^ V $   8.8.8.8.8.8.8.8.8.8.8.8.8.8.8.8.8.8.8.8.8.8.8.8.",
"8.8.8.8.8.8.8.8.8.8.8.8.8.8.8.8.8.8.8.8.8.8.  - | 5.2.X.5 @ 8.8.# < S ^ @.V %   8.8.8.8.8.8.8.8.8.8.8.8.8.8.8.8.8.8.8.8.8.8.8.8.",
"8.8.8.8.8.8.8.8.8.8.8.8.8.8.8.8.8.8.8.8.8.8.  , X.7.7.=.=   8.8.  # B ~ [ B %   8.8.8.8.8.8.8.8.8.8.8.8.8.8.8.8.8.8.8.8.8.8.8.8.",
"8.8.8.8.8.8.8.8.8.8.8.8.8.8.8.8.8.8.8.8.8.8.  , +.7.7.+.-   8.8.  # t L L r @   8.8.8.8.8.8.8.8.8.8.8.8.8.8.8.8.8.8.8.8.8.8.8.8.",
"8.8.8.8.8.8.8.8.8.8.8.8.8.8.8.8.8.8.8.8.8.8.  - ) +.+.( -   8.8.  # y / / y %   8.8.8.8.8.8.8.8.8.8.8.8.8.8.8.8.8.8.8.8.8.8.8.8.",
"8.8.8.8.8.8.8.8.8.8.8.8.8.8.8.8.8.8.8.8.8.8.8.8.= , , , 8.8.8.8.  % D } } / %   8.8.8.8.8.8.8.8.8.8.8.8.8.8.8.8.8.8.8.8.8.8.8.8.",
"8.8.8.8.8.8.8.8.8.8.8.8.8.8.8.8.8.8.8.8.8.8.8.8.        8.8.8.8.  % b ' ' b %   8.8.8.8.8.8.8.8.8.8.8.8.8.8.8.8.8.8.8.8.8.8.8.8.",
"8.8.8.8.8.8.8.8.8.8.8.8.8.8.8.8.8.8.8.8.8.8.8.8.        8.8.8.8.  o - 6 : - o   8.8.8.8.8.8.8.8.8.8.8.8.8.8.8.8.8.8.8.8.8.8.8.8.",
"8.8.8.8.8.8.8.8.8.8.8.8.8.8.8.8.8.8.8.8.8.8.8.8.8.8.8.8.8.8.8.8.8.8.8.8.8.8.8.8.8.8.8.8.8.8.8.8.8.8.8.8.8.8.8.8.8.8.8.8.8.8.8.8.",
"8.8.8.8.8.8.8.8.8.8.8.8.8.8.8.8.8.8.8.8.8.8.8.8.8.8.8.8.8.8.8.8.8.8.8.8.8.8.8.8.8.8.8.8.8.8.8.8.8.8.8.8.8.8.8.8.8.8.8.8.8.8.8.8.",
"8.8.8.8.8.8.8.8.8.8.8.8.8.8.8.8.8.8.8.8.8.8.8.8.8.8.8.8.8.8.8.8.8.8.8.8.8.8.8.8.8.8.8.8.8.8.8.8.8.8.8.8.8.8.8.8.8.8.8.8.8.8.8.8."
};
