/* XPM */
static char *result[] = {
/* columns rows colors chars-per-pixel */
"64 64 124 2 ",
"   c #000000",
".  c #090707",
"X  c #0A0807",
"o  c #0C0A09",
"O  c #100706",
"+  c #110807",
"@  c #120C09",
"#  c #13140E",
"$  c #18160F",
"%  c #151411",
"&  c #1D1715",
"*  c #161B12",
"=  c #191C14",
"-  c #1E1B19",
";  c #251E1A",
":  c #301914",
">  c #1C2019",
",  c #252217",
"<  c #26231A",
"1  c #29221D",
"2  c #362219",
"3  c #3D221A",
"4  c #332E1F",
"5  c #28301F",
"6  c #2D2522",
"7  c #2E2D23",
"8  c #312723",
"9  c #342A25",
"0  c #372E28",
"q  c #392E29",
"w  c #353020",
"e  c #383323",
"r  c #3C322C",
"t  c #3F392F",
"y  c #3D3632",
"u  c #3F3A30",
"i  c #432A1F",
"p  c #542F24",
"a  c #463626",
"s  c #40362F",
"d  c #423C2D",
"f  c #4C3F2C",
"g  c #553025",
"h  c #583427",
"j  c #563528",
"k  c #593629",
"l  c #573C2C",
"z  c #5A3A2B",
"x  c #413731",
"c  c #433E33",
"v  c #493E34",
"b  c #443C39",
"n  c #37432B",
"m  c #38432C",
"M  c #3C4533",
"N  c #3F4931",
"B  c #46402E",
"V  c #4B442E",
"C  c #5A422F",
"Z  c #474036",
"A  c #4C4532",
"S  c #4F4B34",
"D  c #4B433D",
"F  c #454D3A",
"G  c #554332",
"H  c #5C4432",
"J  c #524B34",
"K  c #5E4A35",
"L  c #524C3E",
"P  c #465537",
"I  c #47543A",
"U  c #485739",
"Y  c #4C5B3D",
"T  c #575035",
"R  c #515039",
"E  c #5D543A",
"W  c #55583C",
"Q  c #5D5A3D",
"!  c #604A37",
"~  c #624D39",
"^  c #62533D",
"/  c #645B3E",
"(  c #554B46",
")  c #4F5140",
"_  c #4D5A40",
"`  c #555342",
"'  c #545C45",
"]  c #5E534F",
"[  c #5A5F4A",
"{  c #635740",
"}  c #645C40",
"|  c #685F41",
" . c #665A55",
".. c #576444",
"X. c #5C6442",
"o. c #5C6C46",
"O. c #5C644C",
"+. c #5F694F",
"@. c #5E734B",
"#. c #666246",
"$. c #686244",
"%. c #626947",
"&. c #626748",
"*. c #68664B",
"=. c #656B4C",
"-. c #6A684A",
";. c #61754D",
":. c #606450",
">. c #646D54",
",. c #6A6F51",
"<. c #657453",
"1. c #6C7355",
"2. c #677854",
"3. c #697A57",
"4. c #6B765A",
"5. c #6D7D5B",
"6. c #747E5F",
"7. c #757F60",
"8. c #6F805E",
"9. c #70805F",
"0. c #738363",
"q. c #778867",
"w. c #7A8A6A",
"e. c None",
/* pixels */
"e.e.e.e.e.e.e.e.e.e.e.e.e.e.e.e.e.e.e.e.e.e.e.e.e.e.e.e.e.e.e.e.e.e.e.e.e.e.e.e.e.e.e.e.e.e.e.e.e.e.e.e.e.e.e.e.e.e.e.e.e.e.e.e.",
"e.e.e.e.e.e.e.e.e.e.e.e.e.e.e.e.e.e.e.e.e.e.e.e.e.e.e.e.e.e.e.e.e.e.e.e.e.e.e.e.e.e.e.e.e.e.e.e.e.e.e.e.e.e.e.e.e.e.e.e.e.e.e.e.",
"e.e.e.e.e.e.e.e.e.e.e.e.e.e.e.e.e.e.e.e.e.e.e.e.e.e.e.e.e.e.e.e.e.e.e.e.e.e.e.e.e.e.e.e.e.e.e.e.e.e.e.e.e.e.e.e.e.e.e.e.e.e.e.e.",
"e.e.e.e.e.e.e.e.e.e.e.e.e.e.e.e.e.e.e.e.e.e.e.e.e.e.e.e.e.e.e.e.e.e.e.e.e.e.e.e.e.e.e.e.e.e.e.e.e.e.e.e.e.e.e.e.e.e.e.e.e.e.e.e.",
"e.e.e.e.e.e.e.e.e.e.e.e.e.e.e.e.e.e.e.e.e.e.e.e.e.e.e.e.e.e.e.e.e.e.e.e.e.e.e.e.e.e.e.e.e.e.e.e.e.e.e.e.e.e.e.e.e.e.e.e.e.e.e.e.",
"e.e.e.e.e.e.e.e.e.e.e.e.e.e.e.e.e.e.e.e.e.e.e.e.e.e.e.e.e.e.e.e.e.e.e.e.e.e.e.e.e.e.e.e.e.e.e.e.e.e.e.e.e.e.e.e.e.e.e.e.e.e.e.e.",
"e.e.e.e.e.e.e.e.e.e.e.e.e.e.e.e.e.e.e.e.e.e.e.e.e.e.e.e.e.e.e.e.e.e.e.e.e.e.e.e.e.e.e.e.e.e.e.e.e.e.e.e.e.e.e.e.e.e.e.e.e.e.e.e.",
"e.e.e.e.e.e.e.e.e.e.e.e.e.e.e.e.e.e.e.e.e.e.e.e.e.e.e.e.e.e.e.e.e.e.e.e.e.e.e.e.e.e.e.e.e.e.e.e.e.e.e.e.e.e.e.e.e.e.e.e.e.e.e.e.",
"e.e.e.e.e.e.e.e.e.e.e.e.e.e.e.e.e.e.e.e.e.e.e.e.e.e.e.e.e.e.e.e.e.e.e.e.e.e.e.e.e.e.e.e.e.e.e.e.e.e.e.e.e.e.e.e.e.e.e.e.e.e.e.e.",
"e.e.e.e.e.e.e.e.e.e.e.e.e.e.e.e.e.e.e.e.e.e.e.e.e.e.e.e.e.e.e.e.e.e.e.e.e.e.e.e.e.e.e.e.e.e.e.e.e.e.e.e.e.e.e.e.e.e.e.e.e.e.e.e.",
"e.e.e.e.e.e.e.e.e.e.e.e.e.e.e.e.e.e.e.e.e.e.e.e.e.e.                    e.e.e.e.e.e.e.e.e.e.e.e.e.e.e.e.e.e.e.e.e.e.e.e.e.e.e.e.",
"e.e.e.e.e.e.e.e.e.e.e.e.e.e.e.e.e.e.e.e.e.e.e.e.e.e.@ @ @ @ @ @ @ @ @ @ e.e.e.e.e.e.e.e.e.e.e.e.e.e.e.e.e.e.e.e.e.e.e.e.e.e.e.e.",
"e.e.e.e.e.e.e.e.e.e.e.e.e.e.e.e.e.e.e.e.e.e.e.e.  @ 2 i 3 3 3 3 3 3 3 : O   e.e.e.e.e.e.e.e.e.e.e.e.e.e.e.e.e.e.e.e.e.e.e.e.e.e.",
"e.e.e.e.e.e.e.e.e.e.e.e.e.e.e.e.e.e.e.e.e.e.e.e.$ < V H z g p p g g l a , # e.e.e.e.e.e.e.e.e.e.e.e.e.e.e.e.e.e.e.e.e.e.e.e.e.e.",
"e.e.e.e.e.e.e.e.e.e.e.e.e.e.e.e.e.e.e.e.e.e.  # m Y X.Q H h p p h C Q ..Y n #   e.e.e.e.e.e.e.e.e.e.e.e.e.e.e.e.e.e.e.e.e.e.e.e.",
"e.e.e.e.e.e.e.e.e.e.e.e.e.e.e.e.e.e.e.e.e.e.* 5 Y ;.;.X.K z g j C E %.;.;.Y 5 * e.e.e.e.e.e.e.e.e.e.e.e.e.e.e.e.e.e.e.e.e.e.e.e.",
"e.e.e.e.e.e.e.e.e.e.e.e.e.e.e.e.e.e.e.e.  * n Y o.@.@.X.K z k G Q o.@.@.@.o.Y m *   e.e.e.e.e.e.e.e.e.e.e.e.e.e.e.e.e.e.e.e.e.e.",
"e.e.e.e.e.e.e.e.e.e.e.e.e.e.e.e.e.e.e.e.  * U ;.@.@.@.o.K l H Q %.;.@.@.@.;.;.U *   e.e.e.e.e.e.e.e.e.e.e.e.e.e.e.e.e.e.e.e.e.e.",
"e.e.e.e.e.e.e.e.e.e.e.e.e.e.e.e.e.e.e.e.  * U ;.;.@.@.X.K H } =.<.;.@.@.@.;.;.U *   e.e.e.e.e.e.e.e.e.e.e.e.e.e.e.e.e.e.e.e.e.e.",
"e.e.e.e.e.e.e.e.e.e.e.e.e.e.e.e.e.e.e.e.  * P ;.@.@.;.X.K K =.5.5.2.;.@.@.@.;.P *   e.e.e.e.e.e.e.e.e.e.e.e.e.e.e.e.e.e.e.e.e.e.",
"e.e.e.e.e.e.e.e.e.e.e.e.e.e.e.e.e.e.e.e.  * P ;.@.@.2.%.K K ,.8.5.5.2.<.@.;.;.P *   e.e.e.e.e.e.e.e.e.e.e.e.e.e.e.e.e.e.e.e.e.e.",
"e.e.e.e.e.e.e.e.e.e.e.e.e.e.e.e.e.e.e.e.  * U @.@.<.3.=.K K ,.0.0.8.5.<.;.;.@.P *   e.e.e.e.e.e.e.e.e.e.e.e.e.e.e.e.e.e.e.e.e.e.",
"e.e.e.e.e.e.e.e.e.e.e.e.e.e.e.e.e.e.e.e.  * P ;.<.2.5.,.K ! ,.8.0.9.8.5.2.<.;.P *   e.e.e.e.e.e.e.e.e.e.e.e.e.e.e.e.e.e.e.e.e.e.",
"e.e.e.e.e.e.e.e.e.e.e.e.e.e.e.e.e.e.e.e.  * U 2.3.4.1.*.{ { 1.8.8.9.8.5.5.2.2.U *   e.e.e.e.e.e.e.e.e.e.e.e.e.e.e.e.e.e.e.e.e.e.",
"e.e.e.e.e.e.e.e.e.e.e.e.e.e.e.e.e.e.e.e.  = Y 3.8.1.{ ^ *.4.4.6.8.9.0.5.8.5.5.U *   e.e.e.e.e.e.e.e.e.e.e.e.e.e.e.e.e.e.e.e.e.e.",
"e.e.e.e.e.e.e.e.e.e.e.e.e.e.e.e.e.e.e.e.  = Y 3.1.*.^ { 4.7.0.0.0.0.5.0.0.5.5._ =   e.e.e.e.e.e.e.e.e.e.e.e.e.e.e.e.e.e.e.e.e.e.",
"e.e.e.e.e.e.e.e.e.e.e.e.e.e.e.e.e.e.e.e.  = Y <.{ ^ *.4.7.q.q.0.0.0.7.8.0.8.5.Y =   e.e.e.e.e.e.e.e.e.e.e.e.e.e.e.e.e.e.e.e.e.e.",
"e.e.e.e.e.e.e.e.e.e.e.e.e.e.e.e.e.e.e.e.  = ` =.! ! ,.0.q.q.w.q.q.q.0.5.5.5.5.Y =   e.e.e.e.e.e.e.e.e.e.e.e.e.e.e.e.e.e.e.e.e.e.",
"e.e.e.e.e.e.e.e.e.e.e.e.e.e.e.e.e.e.e.e.  = _ =.! ! ,.0.q.q.w.w.w.q.0.8.0.9.5._ *   e.e.e.e.e.e.e.e.e.e.e.e.e.e.e.e.e.e.e.e.e.e.",
"e.e.e.e.e.e.e.e.e.e.e.e.e.e.e.e.e.e.e.e.  > _ =.K ~ 1.6.4.>.>.4.>.4.5.0.5.5.3.Y =   e.e.e.e.e.e.e.e.e.e.e.e.e.e.e.e.e.e.e.e.e.e.",
"e.e.e.e.e.e.e.e.e.e.e.e.e.e.e.e.e.e.e.e.  * U %.K ~ 1.<.) Z c c c ) <.0.5.5.2.U *   e.e.e.e.e.e.e.e.e.e.e.e.e.e.e.e.e.e.e.e.e.e.",
"e.e.e.e.e.e.e.e.e.e.e.e.e.e.e.e.e.e.e.e.  * N W G G #.' y 8 9 8 8 y ' =.O.....N *   e.e.e.e.e.e.e.e.e.e.e.e.e.e.e.e.e.e.e.e.e.e.",
"e.e.e.e.e.e.e.e.e.e.e.e.e.e.e.e.e.e.e.e.  @ 8 s r r x d q 9 9 9 8 q t c c d d 7 o   e.e.e.e.e.e.e.e.e.e.e.e.e.e.e.e.e.e.e.e.e.e.",
"e.e.e.e.e.e.e.e.e.e.e.e.e.e.e.e.e.e.e.e.  o < 9 9 9 9 9 9 9 9 9 9 9 9 9 8 9 9 ; o   e.e.e.e.e.e.e.e.e.e.e.e.e.e.e.e.e.e.e.e.e.e.",
"e.e.e.e.e.e.e.e.e.e.e.e.e.e.e.e.e.e.e.e.  o ; 0 9 9 9 9 9 9 9 9 9 9 9 9 9 9 9 ; .   e.e.e.e.e.e.e.e.e.e.e.e.e.e.e.e.e.e.e.e.e.e.",
"e.e.e.e.e.e.e.e.e.e.e.e.e.e.e.e.e.e.e.e.  o ; 0 9 9 9 9 9 9 9 9 9 9 9 9 9 0 9 1 # o e.e.e.e.e.e.e.e.e.e.e.e.e.e.e.e.e.e.e.e.e.e.",
"e.e.e.e.e.e.e.e.e.e.e.e.e.e.e.e.e.e.e.e.  o ; 9 0 9 9 9 9 9 9 9 9 9 9 9 9 9 9 8 1 & .   e.e.e.e.e.e.e.e.e.e.e.e.e.e.e.e.e.e.e.e.",
"e.e.e.e.e.e.e.e.e.e.e.e.e.e.e.e.e.e.e.e.  o 1 9 9 9 9 9 9 0 9 9 9 9 9 9 9 9 9 9 9 ; o   e.e.e.e.e.e.e.e.e.e.e.e.e.e.e.e.e.e.e.e.",
"e.e.e.e.e.e.e.e.e.e.e.e.e.e.e.e.e.e.e.e.  o ; 9 9 9 9 9 9 9 9 9 9 9 9 9 9 9 9 9 9 ; o   e.e.e.e.e.e.e.e.e.e.e.e.e.e.e.e.e.e.e.e.",
"e.e.e.e.e.e.e.e.e.e.e.e.e.e.e.e.e.e.e.e.  o ; 9 9 9 9 9 9 9 9 9 9 9 9 9 9 9 9 8 8 ; o   e.e.e.e.e.e.e.e.e.e.e.e.e.e.e.e.e.e.e.e.",
"e.e.e.e.e.e.e.e.e.e.e.e.e.e.e.e.e.e.e.e.  o ; 9 6 8 8 9 9 9 9 9 9 8 9 9 8 8 8 9 8 ; o   e.e.e.e.e.e.e.e.e.e.e.e.e.e.e.e.e.e.e.e.",
"e.e.e.e.e.e.e.e.e.e.e.e.e.e.e.e.e.e.e.e.  o & ; 6 8 9 0 q 9 9 e u c r 8 ; ; ; ; 8 ; o   e.e.e.e.e.e.e.e.e.e.e.e.e.e.e.e.e.e.e.e.",
"e.e.e.e.e.e.e.e.e.e.e.e.e.e.e.e.e.e.e.e.e.e.X # ; 9 q q q q q c [ O.c 6 # . . # ; ; o   e.e.e.e.e.e.e.e.e.e.e.e.e.e.e.e.e.e.e.e.",
"e.e.e.e.e.e.e.e.e.e.e.e.e.e.e.e.e.e.e.e.e.e.  . ; 9 q r q s c ( &.O.Z 1 o     o ; 1 # . e.e.e.e.e.e.e.e.e.e.e.e.e.e.e.e.e.e.e.e.",
"e.e.e.e.e.e.e.e.e.e.e.e.e.e.e.e.e.e.e.e.e.e.  o ; 9 q r q c [ +.( c s 6 o     o ; 8 6 & .   e.e.e.e.e.e.e.e.e.e.e.e.e.e.e.e.e.e.",
"e.e.e.e.e.e.e.e.e.e.e.e.e.e.e.e.e.e.e.e.e.e.  o ; 9 r x Z ` 4.4.` c d 6 @     o ; 9 8 ; o   e.e.e.e.e.e.e.e.e.e.e.e.e.e.e.e.e.e.",
"e.e.e.e.e.e.e.e.e.e.e.e.e.e.e.e.e.e.e.e.e.e.  o ; 9 t D :.6.0.0.5.:.( 6 o     o ; 6 8 ; o   e.e.e.e.e.e.e.e.e.e.e.e.e.e.e.e.e.e.",
"e.e.e.e.e.e.e.e.e.e.e.e.e.e.e.e.e.e.e.e.e.e.  o 1 s v ( ,.7.6.6.7.1.( r < @ . o 7 c c 7 o   e.e.e.e.e.e.e.e.e.e.e.e.e.e.e.e.e.e.",
"e.e.e.e.e.e.e.e.e.e.e.e.e.e.e.e.e.e.e.e.e.e.  # d E E { $.-.-.-.-.#./ E J e o # F +.+.F *   e.e.e.e.e.e.e.e.e.e.e.e.e.e.e.e.e.e.",
"e.e.e.e.e.e.e.e.e.e.e.e.e.e.e.e.e.e.e.e.e.e.  $ V / $./ / / / / / / / / $.V * # M _ ' M =   e.e.e.e.e.e.e.e.e.e.e.e.e.e.e.e.e.e.",
"e.e.e.e.e.e.e.e.e.e.e.e.e.e.e.e.e.e.e.e.e.e.  % V $./ / / / Q ^ / / / $./ J $ . # = = = e.e.e.e.e.e.e.e.e.e.e.e.e.e.e.e.e.e.e.e.",
"e.e.e.e.e.e.e.e.e.e.e.e.e.e.e.e.e.e.e.e.e.e.  = J -.-.$./ T V V E / / / / V $           e.e.e.e.e.e.e.e.e.e.e.e.e.e.e.e.e.e.e.e.",
"e.e.e.e.e.e.e.e.e.e.e.e.e.e.e.e.e.e.e.e.e.e.  - ' 0.0.4.#.V , , V ^ Q E / V *   e.e.e.e.e.e.e.e.e.e.e.e.e.e.e.e.e.e.e.e.e.e.e.e.",
"e.e.e.e.e.e.e.e.e.e.e.e.e.e.e.e.e.e.e.e.e.e.  > +.w.w.4.R 4 o # 4 V J / / V $   e.e.e.e.e.e.e.e.e.e.e.e.e.e.e.e.e.e.e.e.e.e.e.e.",
"e.e.e.e.e.e.e.e.e.e.e.e.e.e.e.e.e.e.e.e.e.e.  > +.w.w.+.7 o e.e.@ < J / $.V %   e.e.e.e.e.e.e.e.e.e.e.e.e.e.e.e.e.e.e.e.e.e.e.e.",
"e.e.e.e.e.e.e.e.e.e.e.e.e.e.e.e.e.e.e.e.e.e.  = F +.>.) =   e.e.  # B / { B $   e.e.e.e.e.e.e.e.e.e.e.e.e.e.e.e.e.e.e.e.e.e.e.e.",
"e.e.e.e.e.e.e.e.e.e.e.e.e.e.e.e.e.e.e.e.e.e.e.e.= > > = e.e.e.e.  # r ( L r #   e.e.e.e.e.e.e.e.e.e.e.e.e.e.e.e.e.e.e.e.e.e.e.e.",
"e.e.e.e.e.e.e.e.e.e.e.e.e.e.e.e.e.e.e.e.e.e.e.e.        e.e.e.e.  # y ( ( y %   e.e.e.e.e.e.e.e.e.e.e.e.e.e.e.e.e.e.e.e.e.e.e.e.",
"e.e.e.e.e.e.e.e.e.e.e.e.e.e.e.e.e.e.e.e.e.e.e.e.e.e.e.e.e.e.e.e.  % D  . .D %   e.e.e.e.e.e.e.e.e.e.e.e.e.e.e.e.e.e.e.e.e.e.e.e.",
"e.e.e.e.e.e.e.e.e.e.e.e.e.e.e.e.e.e.e.e.e.e.e.e.e.e.e.e.e.e.e.e.  % b ] ] b %   e.e.e.e.e.e.e.e.e.e.e.e.e.e.e.e.e.e.e.e.e.e.e.e.",
"e.e.e.e.e.e.e.e.e.e.e.e.e.e.e.e.e.e.e.e.e.e.e.e.e.e.e.e.e.e.e.e.  o - 6 6 - .   e.e.e.e.e.e.e.e.e.e.e.e.e.e.e.e.e.e.e.e.e.e.e.e.",
"e.e.e.e.e.e.e.e.e.e.e.e.e.e.e.e.e.e.e.e.e.e.e.e.e.e.e.e.e.e.e.e.e.e.e.e.e.e.e.e.e.e.e.e.e.e.e.e.e.e.e.e.e.e.e.e.e.e.e.e.e.e.e.e.",
"e.e.e.e.e.e.e.e.e.e.e.e.e.e.e.e.e.e.e.e.e.e.e.e.e.e.e.e.e.e.e.e.e.e.e.e.e.e.e.e.e.e.e.e.e.e.e.e.e.e.e.e.e.e.e.e.e.e.e.e.e.e.e.e.",
"e.e.e.e.e.e.e.e.e.e.e.e.e.e.e.e.e.e.e.e.e.e.e.e.e.e.e.e.e.e.e.e.e.e.e.e.e.e.e.e.e.e.e.e.e.e.e.e.e.e.e.e.e.e.e.e.e.e.e.e.e.e.e.e."
};
