/* XPM */
static char *_51710911314[] = {
/* columns rows colors chars-per-pixel */
"64 64 121 2 ",
"   c None",
".  c black",
"X  c #090706",
"o  c #0A0807",
"O  c #0C0A09",
"+  c #100706",
"@  c #110807",
"#  c #130B09",
"$  c #14140E",
"%  c #18160F",
"&  c #161513",
"*  c #191614",
"=  c #161A12",
"-  c #181C14",
";  c #1C1F18",
":  c #201E16",
">  c #251E1A",
",  c #301914",
"<  c #25241B",
"1  c #2A251D",
"2  c #2B291E",
"3  c #362219",
"4  c #3D221A",
"5  c #28301F",
"6  c #2E2522",
"7  c #2E2D22",
"8  c #312723",
"9  c #342A25",
"0  c #372E28",
"q  c #392E2A",
"w  c #2E3428",
"e  c #3B3625",
"r  c #343228",
"t  c #3C322C",
"y  c #3F392F",
"u  c #3F3933",
"i  c #432A1F",
"p  c #542F24",
"a  c #463626",
"s  c #41372D",
"d  c #413B2F",
"f  c #4C3F2C",
"g  c #553025",
"h  c #583427",
"j  c #563528",
"k  c #593629",
"l  c #573C2C",
"z  c #5A3A2B",
"x  c #413731",
"c  c #433E33",
"v  c #37432B",
"b  c #38432C",
"n  c #3E4734",
"m  c #3E4832",
"M  c #4B442F",
"N  c #5A422F",
"B  c #474136",
"V  c #4B4335",
"C  c #4D4B34",
"Z  c #4C453C",
"A  c #444C39",
"S  c #554332",
"D  c #5C4432",
"F  c #534D35",
"G  c #5E4A35",
"H  c #504F3F",
"J  c #465537",
"K  c #475638",
"L  c #4A563A",
"P  c #4C5B3D",
"I  c #5C553D",
"U  c #55583C",
"Y  c #5D5A3D",
"T  c #604A37",
"R  c #624D39",
"E  c #62533D",
"W  c #4F4643",
"Q  c #504743",
"!  c #524943",
"~  c #4E5341",
"^  c #4E5A41",
"/  c #525342",
"(  c #5B5544",
")  c #555D45",
"_  c #5A5F4A",
"`  c #625740",
"'  c #655C41",
"]  c #685F47",
"[  c #576444",
"{  c #5C6442",
"}  c #5C6C46",
"|  c #5C634C",
" . c #5E684E",
".. c #5E734B",
"X. c #696144",
"o. c #626947",
"O. c #626748",
"+. c #6A654A",
"@. c #656B4C",
"#. c #6F684C",
"$. c #71694F",
"%. c #61754D",
"&. c #6B6055",
"*. c #656E55",
"=. c #6B6E52",
"-. c #6F625D",
";. c #716A50",
":. c #70635E",
">. c #657453",
",. c #6C7355",
"<. c #677854",
"1. c #697A57",
"2. c #6A765A",
"3. c #6D7D5B",
"4. c #727155",
"5. c #747E5F",
"6. c #6F805E",
"7. c #70805F",
"8. c #738362",
"9. c #778867",
"0. c #798869",
/* pixels */
"                                                                                                                                ",
"                                                                                                                                ",
"                                                                                                                                ",
"                                                                                                                                ",
"                                                                                                                                ",
"                                                                                                                                ",
"                                                                                                                                ",
"                                                                                                                                ",
"                                                                                                                                ",
"                                                                                                                                ",
"                                            . . . . . . . . . .                                                                 ",
"                                            # $ # # # # # # # @                                                                 ",
"                                        . @ 3 i i , i 4 4 4 4 , + .                                                             ",
"                                        $ 1 M D k p p p g k l a < $                                                             ",
"                                    . = v P { Y D h p p h N I [ P v = .                                                         ",
"                                    $ 5 P %.%.{ G l p h N I { %.%.P 5 $                                                         ",
"                                . = b P ..%...{ G l k N Y } ........P b = .                                                     ",
"                                . = K %.......{ G l D I o.%.......%.%.K = .                                                     ",
"                                . = K %.%.....{ D D ' *.>.>.......%.%.K = .                                                     ",
"                                . = J %...%.%.{ G G @.1.1.1.%.........K = .                                                     ",
"                                . = K ....%.<.o.G G *.5.7.1.<.>...%.%.J = .                                                     ",
"                                . = K %.%.%.1.@.G T =.8.7.6.1.2.%.%...J = .                                                     ",
"                                . = J ..>.<.3.=.G G >.8.7.7.3.3.<.<.%.K = .                                                     ",
"                                . = K <.1.<.,.+.` ` ,.7.8.7.7.6.1.<.<.K = .                                                     ",
"                                . - P 1.3.,.` ` +.,.3.5.5.7.7.5.6.3.1.L - .                                                     ",
"                                . - ^ 1.,.+.` ` ,.8.8.5.8.3.7.7.7.7.3.^ - .                                                     ",
"                                . - P ,.` ` +.,.5.9.9.8.9.8.7.7.7.7.1.P - .                                                     ",
"                                . - P @.G G =.9.9.0.0.0.9.9.8.7.7.6.3.P - .                                                     ",
"                                . - ^ @.G G =.8.9.0.0.0.0.0.8.7.7.7.3.^ - .                                                     ",
"                                . - P o.T R =.3.2.*.*.*.*.2.3.7.7.6.1.P - .                                                     ",
"                                . = K o.G R ,.,.~ c c c c ! *.7.3.1.<.K = .                                                     ",
"                                . = A U S S O.) u 6 9 9 9 u ) *. .[ [ m $ .                                                     ",
"                                . # 9 s e s d s 0 9 9 9 8 0 u c d B d 9 $ .                                                     ",
"                                . O < 9 9 9 9 9 9 9 9 9 9 9 9 9 9 9 9 > O .                                                     ",
"                                . O > 9 9 9 9 9 9 9 9 9 9 9 9 9 2 9 9 > O .                                                     ",
"                                . O > 9 9 9 9 9 9 9 9 9 9 9 9 9 9 9 0 > O .                                                     ",
"                                . O > 0 0 9 9 9 9 9 9 9 9 9 9 9 9 9 0 > O .                                                     ",
"                                . O > 9 9 9 9 9 9 9 9 9 9 9 9 9 9 9 9 > O .                                                     ",
"                                . O > 9 9 9 9 9 9 9 9 9 9 9 9 9 9 9 9 > O .                                                     ",
"                                . O > 9 9 9 9 9 9 9 9 0 9 9 9 9 9 9 8 > O .                                                     ",
"                                . O > 6 6 8 9 9 9 9 9 9 9 9 9 9 8 8 8 > O .                                                     ",
"                                X $ 6 6 > > 8 0 q 9 9 q x u q 9 8 6 8 > O .                                                     ",
"                            . O * > 8 > $ $ 6 t t q 0 B _ _ c q 8 8 9 : O .                                                     ",
"                            . O > 9 9 > X O 6 t t y c !  ._ B q 9 8 8 > O .                                                     ",
"                            . O : 9 6 > X O 8 q t c _ | ! c y 0 9 6 8 > O .                                                     ",
"                            . O > 8 8 > X O 6 x c ( 2.2./ c u t 9 8 8 > O .                                                     ",
"                            . O > 8 6 > X O 8 W | 2.8.5.2.| Z t 9 8 8 : O .                                                     ",
"                            . O 7 c c 0 ; > x ( 2.5.5.5.5.,.( B y t u 7 O .                                                     ",
"                            . * A  . .) C F ( +.;.4.4.4.;.;.&.' I I | A = .                                                     ",
"                            . = n ^ ) ) E X.#.$.#.;.$.;.$.$.#.#.X.Y ) n = .                                                     ",
"                                - - - 2 F X.#.#.=.#.;.4.=.$.$.#.X.F 7 =                                                         ",
"                                . . . % C X.+.#.#.+.I I X.#.#.+.X.M $ .                                                         ",
"                                    . % M X.X.X.X.F 2 2 F X.X.X.' M $ .                                                         ",
"                                    . = M X.E I F e # $ e F E ] ] V & .                                                         ",
"                                    . % M ' ' C 1 $     $ 1 ! &.&.Z = .                                                         ",
"                                    . % C +.+.A % .     . * Q :.:.Q * .                                                         ",
"                                    . - L 2.1.^ - .     . * W :.:.Q * .                                                         ",
"                                    . ; [ 8.8.) ; .     . * u Q ! x * .                                                         ",
"                                    . ; | 0.0.| ; .         * * * *                                                             ",
"                                    . - ~ 2.3.~ - .         . . . .                                                             ",
"                                    . O 6 w w 6 O .         . . . .                                                             ",
"                                                                                                                                ",
"                                                                                                                                ",
"                                                                                                                                "
};
