/* XPM */
static char *result[] = {
/* columns rows colors chars-per-pixel */
"64 64 168 2 ",
"   c #060603",
".  c #090704",
"X  c #0A0805",
"o  c #120E0B",
"O  c #15110E",
"+  c #19130F",
"@  c #161514",
"#  c #1B1511",
"$  c #1E1814",
"%  c #191A1A",
"&  c #211B16",
"*  c #261C19",
"=  c #2A1E1A",
"-  c #26201B",
";  c #2C221E",
":  c #32231F",
">  c #2D2524",
",  c #2F2826",
"<  c #222729",
"1  c #24292B",
"2  c #322522",
"3  c #372A25",
"4  c #3B2A25",
"5  c #3C2E2A",
"6  c #393227",
"7  c #373129",
"8  c #3E322B",
"9  c #2B3337",
"0  c #3C3332",
"q  c #32363A",
"w  c #33383C",
"e  c #3C393C",
"r  c #402C27",
"t  c #422E2A",
"y  c #45322D",
"u  c #49322D",
"i  c #453532",
"p  c #4C3632",
"a  c #453B34",
"s  c #4C3B35",
"d  c #473B39",
"f  c #493E3B",
"g  c #533A35",
"h  c #553E39",
"j  c #583F3A",
"k  c #4C4435",
"l  c #4A4239",
"z  c #56413C",
"x  c #5C433E",
"c  c #62403C",
"v  c #343E44",
"b  c #354046",
"n  c #3C464D",
"m  c #3E484F",
"M  c #3F4D56",
"N  c #3F4E58",
"B  c #4F4941",
"V  c #40474D",
"C  c #41484E",
"Z  c #5E4641",
"A  c #544F46",
"S  c #5D4B45",
"D  c #5F4F48",
"F  c #575249",
"G  c #5A5C4B",
"H  c #404E58",
"J  c #47555E",
"K  c #49565F",
"L  c #614641",
"P  c #6A4743",
"I  c #634A45",
"U  c #6A4E47",
"Y  c #674D48",
"T  c #6A4E49",
"R  c #714E4A",
"E  c #64554E",
"W  c #73554E",
"Q  c #635753",
"!  c #695B54",
"~  c #6C5E58",
"^  c #765952",
"/  c #7A5C55",
"(  c #745E58",
")  c #636D56",
"_  c #6E615B",
"`  c #75625C",
"'  c #7E6158",
"]  c #69725C",
"[  c #485760",
"{  c #4D5A63",
"}  c #525F67",
"|  c #5E5F61",
" . c #525F68",
".. c #546169",
"X. c #58646C",
"o. c #62696B",
"O. c #727A65",
"+. c #757D69",
"@. c #666D71",
"#. c #8D5654",
"$. c #875F59",
"%. c #845B54",
"&. c #905956",
"*. c #935C59",
"=. c #87675F",
"-. c #88635B",
";. c #8D6C62",
":. c #926C64",
">. c #8F7066",
",. c #927067",
"<. c #937369",
"1. c #9B766C",
"2. c #96786D",
"3. c #9A786C",
"4. c #9F7F73",
"5. c #A07A6F",
"6. c #AF726C",
"7. c #B0736E",
"8. c #A27D72",
"9. c #B37570",
"0. c #9E8779",
"q. c #9F8D7D",
"w. c #AC8679",
"e. c #A18F7F",
"r. c #AE897C",
"t. c #A58074",
"y. c #B28B7E",
"u. c #9D938B",
"i. c #B48D80",
"p. c #A69486",
"a. c #A89687",
"s. c #AA9888",
"d. c #BC9184",
"f. c #BF9689",
"g. c #B79184",
"h. c #A79C90",
"j. c #B2A295",
"k. c #B9A99E",
"l. c #B5A89C",
"z. c #B8ABA0",
"x. c #C19487",
"c. c #C1978A",
"v. c #CC978B",
"b. c #C4998B",
"n. c #CA9D8E",
"m. c #C99F92",
"M. c #CDA092",
"N. c #C6AB98",
"B. c #C8AD99",
"V. c #D1A495",
"C. c #D1A897",
"Z. c #D2A898",
"A. c #DBAC9D",
"S. c #C4B19C",
"D. c #C7B4A0",
"F. c #C9B7A4",
"G. c #CEBBA9",
"H. c #D1BEAC",
"J. c #E4B5A5",
"K. c #E8B7A7",
"L. c #E7B8A8",
"P. c #E8B8A8",
"I. c #D6C4B3",
"U. c #D8C7B7",
"Y. c #DCCBBC",
"T. c #DFCFC0",
"R. c #E0D0C1",
"E. c None",
/* pixels */
"E.E.E.E.E.E.E.E.E.E.E.E.E.E.E.E.E.E.E.E.E.E.E.E.E.E.E.E.E.E.E.E.E.E.E.E.E.E.E.E.E.E.E.E.E.E.E.E.E.E.E.E.E.E.E.E.E.E.E.E.E.E.E.E.",
"E.E.E.E.E.E.E.E.E.E.E.E.E.E.E.E.E.E.E.E.E.E.E.E.E.E.E.E.E.E.E.E.E.E.E.E.E.E.E.E.E.E.E.E.E.E.E.E.E.E.E.E.E.E.E.E.E.E.E.E.E.E.E.E.",
"E.E.E.E.E.E.E.E.E.E.E.E.E.E.E.E.E.E.E.E.E.E.E.E.E.E.E.E.E.E.E.E.E.E.E.E.E.E.E.E.E.E.E.E.E.E.E.E.E.E.E.E.E.E.E.E.E.E.E.E.E.E.E.E.",
"E.E.E.E.E.E.E.E.E.E.E.E.E.E.E.E.E.E.E.E.E.E.E.E.E.E.E.E.E.E.E.E.E.E.E.E.E.E.E.E.E.E.E.E.E.E.E.E.E.E.E.E.E.E.E.E.E.E.E.E.E.E.E.E.",
"E.E.E.E.E.E.E.E.E.E.E.E.E.E.E.E.E.E.E.E.E.E.E.E.E.E.E.E.E.E.E.E.E.E.E.E.E.E.E.E.E.E.E.E.E.E.E.E.E.E.E.E.E.E.E.E.E.E.E.E.E.E.E.E.",
"E.E.E.E.E.E.E.E.E.E.E.E.E.E.E.E.E.E.E.E.E.E.E.E.E.E.E.E.E.E.E.E.E.E.E.E.E.E.E.E.E.E.E.E.E.E.E.E.E.E.E.E.E.E.E.E.E.E.E.E.E.E.E.E.",
"E.E.E.E.E.E.E.E.E.E.E.E.E.E.E.E.E.E.E.E.E.E.E.E.E.E.E.E.E.E.E.E.E.E.E.E.E.E.E.E.E.E.E.E.E.E.E.E.E.E.E.E.E.E.E.E.E.E.E.E.E.E.E.E.",
"E.E.E.E.E.E.E.E.E.E.E.E.E.E.E.E.E.E.E.E.E.E.E.E.E.E.E.E.E.E.E.E.E.E.E.E.E.E.E.E.E.E.E.E.E.E.E.E.E.E.E.E.E.E.E.E.E.E.E.E.E.E.E.E.",
"E.E.E.E.E.E.E.E.E.E.E.E.E.E.E.E.E.E.E.E.E.E.E.E.E.E.E.E.X X X X E.E.E.E.X X E.E.E.E.E.E.E.E.E.E.E.E.E.E.E.E.E.E.E.E.E.E.E.E.E.E.",
"E.E.E.E.E.E.E.E.E.E.E.E.E.E.E.E.E.E.E.E.E.E.E.E.E.E.E.E.# # # + E.E.E.E.+ + E.E.E.E.E.E.E.E.E.E.E.E.E.E.E.E.E.E.E.E.E.E.E.E.E.E.",
"E.E.E.E.E.E.E.E.E.E.E.E.E.E.E.E.E.E.E.E.E.E.X X X X . + : 4 4 : + . X + : : + . E.E.E.E.E.E.E.E.E.E.E.E.E.E.E.E.E.E.E.E.E.E.E.E.",
"E.E.E.E.E.E.E.E.E.E.E.E.E.E.E.E.E.E.E.E.E.E.# # # # + * y j g y = + + = u y * O E.E.E.E.E.E.E.E.E.E.E.E.E.E.E.E.E.E.E.E.E.E.E.E.",
"E.E.E.E.E.E.E.E.E.E.E.E.E.E.E.E.E.E.E.E.X # 2 4 4 4 4 t h L L h t 4 4 t j j y : + . E.E.E.E.E.E.E.E.E.E.E.E.E.E.E.E.E.E.E.E.E.E.",
"E.E.E.E.E.E.E.E.E.E.E.E.E.E.E.E.E.E.E.E.X + : t g g g j L I I L j g g h L L j y ; $ E.E.E.E.E.E.E.E.E.E.E.E.E.E.E.E.E.E.E.E.E.E.",
"E.E.E.E.E.E.E.E.E.E.E.E.E.E.E.E.E.E.E.E.E.E.O = s Z x c I I I I c S x L I I Z x h 5 # . E.E.E.E.E.E.E.E.E.E.E.E.E.E.E.E.E.E.E.E.",
"E.E.E.E.E.E.E.E.E.E.E.E.E.E.E.E.E.E.E.E.E.E.# 2 h I Y Y I I I I I I I Y I I I Y Y h ; O E.E.E.E.E.E.E.E.E.E.E.E.E.E.E.E.E.E.E.E.",
"E.E.E.E.E.E.E.E.E.E.E.E.E.E.E.E.E.E.E.E.X $ y h L I I I I I Y I I I I I I I I I Y x u : + . E.E.E.E.E.E.E.E.E.E.E.E.E.E.E.E.E.E.",
"E.E.E.E.E.E.E.E.E.E.E.E.E.E.E.E.E.E.E.E.. $ s Y I I I I Z x x c I I Z Z Z I I I I L g r * + E.E.E.E.E.E.E.E.E.E.E.E.E.E.E.E.E.E.",
"E.E.E.E.E.E.E.E.E.E.E.E.E.E.E.E.E.E.E.E.. & s Y I I I x g g g j Z Z g g Z I I I I Z g u r : # X E.E.E.E.E.E.E.E.E.E.E.E.E.E.E.E.",
"E.E.E.E.E.E.E.E.E.E.E.E.E.E.E.E.E.E.E.E.# = s L I I I I T L p p x I Y U I I I I I Z z u y : # X E.E.E.E.E.E.E.E.E.E.E.E.E.E.E.E.",
"E.E.E.E.E.E.E.E.E.E.E.E.E.E.E.E.E.E.X + 2 t p j S I L ^ 5.1.I u x / 8.5.^ Z L I I I L s ; # E.E.E.E.E.E.E.E.E.E.E.E.E.E.E.E.E.E.",
"E.E.E.E.E.E.E.E.E.E.E.E.E.E.E.E.E.E.X # 2 r u g x Y ^ <.b.x.-.I L / d.b.1./ Y I I I I s $ . E.E.E.E.E.E.E.E.E.E.E.E.E.E.E.E.E.E.",
"E.E.E.E.E.E.E.E.E.E.E.E.E.E.E.E.E.E.E.E.+ = 4 g x ^ 8.x.V.V.d.1.W / i.V.b.8.^ Z I I Y s # . E.E.E.E.E.E.E.E.E.E.E.E.E.E.E.E.E.E.",
"E.E.E.E.E.E.E.E.E.E.E.E.E.E.E.E.E.E.E.E.. + r g x -.d.n.w.y.M.c.,.:.b.m.y.1.=.^ I Z I h 2 & E.E.E.E.E.E.E.E.E.E.E.E.E.E.E.E.E.E.",
"E.E.E.E.E.E.E.E.E.E.E.E.E.E.E.E.E.E.E.E.  # p Z Z / f.r.S I g.A.b.b.A.g.I z 3.5.Y g Z Z j i $ . E.E.E.E.E.E.E.E.E.E.E.E.E.E.E.E.",
"E.E.E.E.E.E.E.E.E.E.E.E.E.E.E.E.E.E.E.E.# 2 h Y R :.x.8.3 5 r.L.A.A.L.r.5 3 t.d.%.c Z Z j 5 $ X E.E.E.E.E.E.E.E.E.E.E.E.E.E.E.E.",
"E.E.E.E.E.E.E.E.E.E.E.E.E.E.E.E.E.E.X # 3 p Z R *.9.v.8.t i i.L.K.K.K.y.y y t.v.6.#.P p > # E.E.E.E.E.E.E.E.E.E.E.E.E.E.E.E.E.E.",
"E.E.E.E.E.E.E.E.E.E.E.E.E.E.E.E.E.E.X # 3 p x U &.7.v.i.W ^ f.L.P.K.P.c.^ ^ y.v.7.#.P t # . E.E.E.E.E.E.E.E.E.E.E.E.E.E.E.E.E.E.",
"E.E.E.E.E.E.E.E.E.E.E.E.E.E.E.E.E.E.E.E.# ; p Z P $.d.V.f.c.A.J.J.L.J.A.b.f.V.d.-.P j t # . E.E.E.E.E.E.E.E.E.E.E.E.E.E.E.E.E.E.",
"E.E.E.E.E.E.E.E.E.E.E.E.E.E.E.E.E.E.E.E.. # 3 y p T 1.c.A.K.J.J.J.J.J.J.P.A.b.3.T p p 3 # X E.E.E.E.E.E.E.E.E.E.E.E.E.E.E.E.E.E.",
"E.E.E.E.E.E.E.E.E.E.E.E.E.E.E.E.E.E.E.E.E.E.# = p Z U ;.b.J.J.J.J.J.J.J.J.v.;.T x y = # E.E.E.E.E.E.E.E.E.E.E.E.E.E.E.E.E.E.E.E.",
"E.E.E.E.E.E.E.E.E.E.E.E.E.E.E.E.E.E.E.E.E.E.. # 3 t p P ;.i.V.J.A.J.J.V.y.=.I s i 3 # X E.E.E.E.E.E.E.E.E.E.E.E.E.E.E.E.E.E.E.E.",
"E.E.E.E.E.E.E.E.E.E.E.E.E.E.E.E.E.E.E.E.E.E.E.E.# = y p 4 I y.A.A.A.A.r.I 4 s y = # E.E.E.E.E.E.E.E.E.E.E.E.E.E.E.E.E.E.E.E.E.E.",
"E.E.E.E.E.E.E.E.E.E.E.E.E.E.E.E.E.E.E.E.E.E.E.E.o * k d & 5 0.M.C.M.C.0.5 & s s - O E.E.E.E.E.E.E.E.E.E.E.E.E.E.E.E.E.E.E.E.E.E.",
"E.E.E.E.E.E.E.E.E.E.E.E.E.E.E.E.E.E.E.E.E.E.X + * 8 G G 7 k 0.N.N.N.B.0.k 7 G G 8 * o X E.E.E.E.E.E.E.E.E.E.E.E.E.E.E.E.E.E.E.E.",
"E.E.E.E.E.E.E.E.E.E.E.E.E.E.E.E.E.E.E.E.E.E.X o > l ) ) l Y a.F.F.S.S.e.D l ) ) f : + X E.E.E.E.E.E.E.E.E.E.E.E.E.E.E.E.E.E.E.E.",
"E.E.E.E.E.E.E.E.E.E.E.E.E.E.E.E.E.E.E.E.E.E.X @ ; l ) ) B ! j.U.I.I.D.e.E B ) ) f ; o . E.E.E.E.E.E.E.E.E.E.E.E.E.E.E.E.E.E.E.E.",
"E.E.E.E.E.E.E.E.E.E.E.E.E.E.E.E.E.E.E.E.E.E.O # ; l ] ] A _ k.R.T.U.G.a.! A ] ] l > & o E.E.E.E.E.E.E.E.E.E.E.E.E.E.E.E.E.E.E.E.",
"E.E.E.E.E.E.E.E.E.E.E.E.E.E.E.E.E.E.E.E.. O * 2 5 l O.O.F _ k.T.Y.Y.U.j.~ F +.O.l 3 2 = @ X E.E.E.E.E.E.E.E.E.E.E.E.E.E.E.E.E.E.",
"E.E.E.E.E.E.E.E.E.E.E.E.E.E.E.E.E.E.E.E.. @ 2 5 5 l O.+.F ~ j.U.Y.T.T.k._ F +.O.l 5 8 2 O X E.E.E.E.E.E.E.E.E.E.E.E.E.E.E.E.E.E.",
"E.E.E.E.E.E.E.E.E.E.E.E.E.E.E.E.E.E.E.E.X # 7 d 5 l ] ] F ! a.G.U.T.T.k._ F ] ] l 5 d 7 #   E.E.E.E.E.E.E.E.E.E.E.E.E.E.E.E.E.E.",
"E.E.E.E.E.E.E.E.E.E.E.E.E.E.E.E.E.E.E.E.@ * 0 d 5 a G G B ! s.G.I.U.T.k._ l G G a 8 d 0 - O E.E.E.E.E.E.E.E.E.E.E.E.E.E.E.E.E.E.",
"E.E.E.E.E.E.E.E.E.E.E.E.E.E.E.E.E.E.X # 2 0 d d y 5 i a d _ l.I.G.H.U.z._ d d i 5 5 d d 0 , @ X E.E.E.E.E.E.E.E.E.E.E.E.E.E.E.E.",
"E.E.E.E.E.E.E.E.E.E.E.E.E.E.E.E.E.E.. * S ` ( D 5 > 2 5 0 Q u.z.h.h.z.u.Q i 5 3 2 5 D ( ` S * . E.E.E.E.E.E.E.E.E.E.E.E.E.E.E.E.",
"E.E.E.E.E.E.E.E.E.E.E.E.E.E.E.E.E.E.  3 2.M.f.>.8 # ; 5 5 l | @.o.o.o.o.f 4 5 ; # 5 ;.c.M.2.5   E.E.E.E.E.E.E.E.E.E.E.E.E.E.E.E.",
"E.E.E.E.E.E.E.E.E.E.E.E.E.E.E.E.E.E.  8 >.i.w.' ; O , 0 0 e m M N N M n e 0 0 , @ 2 ' w.i.>.7 . E.E.E.E.E.E.E.E.E.E.E.E.E.E.E.E.",
"E.E.E.E.E.E.E.E.E.E.E.E.E.E.E.E.E.E.E.E.7 y 8 > O % q C m m M M H H N H m V V w @ O > 8 8 8 E.E.E.E.E.E.E.E.E.E.E.E.E.E.E.E.E.E.",
"E.E.E.E.E.E.E.E.E.E.E.E.E.E.E.E.E.E.E.E.        X % b J J J J J J J J J J [ J v % . .       E.E.E.E.E.E.E.E.E.E.E.E.E.E.E.E.E.E.",
"E.E.E.E.E.E.E.E.E.E.E.E.E.E.E.E.E.E.E.E.E.E.E.E.X % b K } ..} ............{ J b % X E.E.E.E.E.E.E.E.E.E.E.E.E.E.E.E.E.E.E.E.E.E.",
"E.E.E.E.E.E.E.E.E.E.E.E.E.E.E.E.E.E.E.E.E.E.E.E.X % b K ..X...........X.....J v % X E.E.E.E.E.E.E.E.E.E.E.E.E.E.E.E.E.E.E.E.E.E.",
"E.E.E.E.E.E.E.E.E.E.E.E.E.E.E.E.E.E.E.E.E.E.E.E.. % b J ..X.X...K [ ..X.X...K v % X E.E.E.E.E.E.E.E.E.E.E.E.E.E.E.E.E.E.E.E.E.E.",
"E.E.E.E.E.E.E.E.E.E.E.E.E.E.E.E.E.E.E.E.E.E.E.E.. % b K ......K n n K ......J v % X E.E.E.E.E.E.E.E.E.E.E.E.E.E.E.E.E.E.E.E.E.E.",
"E.E.E.E.E.E.E.E.E.E.E.E.E.E.E.E.E.E.E.E.E.E.E.E.. % b K ....{ n < < n { ....K b % . E.E.E.E.E.E.E.E.E.E.E.E.E.E.E.E.E.E.E.E.E.E.",
"E.E.E.E.E.E.E.E.E.E.E.E.E.E.E.E.E.E.E.E.E.E.E.E.X % b K } K n 9 @ @ 9 n K } [ b % . E.E.E.E.E.E.E.E.E.E.E.E.E.E.E.E.E.E.E.E.E.E.",
"E.E.E.E.E.E.E.E.E.E.E.E.E.E.E.E.E.E.E.E.E.E.E.E.. % b J K n 1 @ E.E.% < n K J b % . E.E.E.E.E.E.E.E.E.E.E.E.E.E.E.E.E.E.E.E.E.E.",
"E.E.E.E.E.E.E.E.E.E.E.E.E.E.E.E.E.E.E.E.E.E.E.E.. @ q C m q % . E.E.  % q C V q % X E.E.E.E.E.E.E.E.E.E.E.E.E.E.E.E.E.E.E.E.E.E.",
"E.E.E.E.E.E.E.E.E.E.E.E.E.E.E.E.E.E.E.E.E.E.E.E.. O > 0 0 , # X E.E.X O , 0 0 > O   E.E.E.E.E.E.E.E.E.E.E.E.E.E.E.E.E.E.E.E.E.E.",
"E.E.E.E.E.E.E.E.E.E.E.E.E.E.E.E.E.E.E.E.E.E.E.E.$ - 3 4 3 = o X E.E.X O = 4 5 2 - $ E.E.E.E.E.E.E.E.E.E.E.E.E.E.E.E.E.E.E.E.E.E.",
"E.E.E.E.E.E.E.E.E.E.E.E.E.E.E.E.E.E.E.E.E.E.X $ 6 k k s 4 = O X E.E.X O = 6 s k k 6 $ X E.E.E.E.E.E.E.E.E.E.E.E.E.E.E.E.E.E.E.E.",
"E.E.E.E.E.E.E.E.E.E.E.E.E.E.E.E.E.E.E.E.E.E.X $ 6 k k a 4 = O X E.E.X O * 3 a k k 6 $ X E.E.E.E.E.E.E.E.E.E.E.E.E.E.E.E.E.E.E.E.",
"E.E.E.E.E.E.E.E.E.E.E.E.E.E.E.E.E.E.E.E.E.E.X O & ; ; - $ + o X E.E.X o + & * ; ; & O X E.E.E.E.E.E.E.E.E.E.E.E.E.E.E.E.E.E.E.E.",
"E.E.E.E.E.E.E.E.E.E.E.E.E.E.E.E.E.E.E.E.E.E.E.E.E.E.E.E.E.E.E.E.E.E.E.E.E.E.E.E.E.E.E.E.E.E.E.E.E.E.E.E.E.E.E.E.E.E.E.E.E.E.E.E.",
"E.E.E.E.E.E.E.E.E.E.E.E.E.E.E.E.E.E.E.E.E.E.E.E.E.E.E.E.E.E.E.E.E.E.E.E.E.E.E.E.E.E.E.E.E.E.E.E.E.E.E.E.E.E.E.E.E.E.E.E.E.E.E.E.",
"E.E.E.E.E.E.E.E.E.E.E.E.E.E.E.E.E.E.E.E.E.E.E.E.E.E.E.E.E.E.E.E.E.E.E.E.E.E.E.E.E.E.E.E.E.E.E.E.E.E.E.E.E.E.E.E.E.E.E.E.E.E.E.E."
};
