/* XPM */
static char *result[] = {
/* columns rows colors chars-per-pixel */
"34 16 2 1 ",
"  c #FA8072",
". c None",
/* pixels */
"    ..........................    ",
"  ..............................  ",
"..................................",
"..................................",
"..................................",
"..................................",
"..................................",
"..................................",
"..................................",
"..................................",
"..................................",
"..................................",
"..................................",
"..................................",
"  ..............................  ",
"    ..........................    "
};
