/* XPM */
static char *result[] = {
/* columns rows colors chars-per-pixel */
"64 64 191 2 ",
"   c #060502",
".  c #080704",
"X  c #0A0805",
"o  c #0F0C09",
"O  c #130E0C",
"+  c #16110E",
"@  c #19120F",
"#  c #171413",
"$  c #1B1512",
"%  c #1D1814",
"&  c #1B1C1C",
"*  c #171818",
"=  c #240F0A",
"-  c #221B17",
";  c #251D1A",
":  c #2A1E1B",
">  c #2F1411",
",  c #381812",
"<  c #26211A",
"1  c #2C221D",
"2  c #32231F",
"3  c #222324",
"4  c #2E2524",
"5  c #2C2A26",
"6  c #262A2C",
"7  c #282D2F",
"8  c #332623",
"9  c #362925",
"0  c #3A2A26",
"q  c #3C2D2A",
"w  c #332B28",
"e  c #3D322B",
"r  c #383228",
"t  c #382F30",
"y  c #2E363A",
"u  c #3C3232",
"i  c #32363A",
"p  c #393A3A",
"a  c #64251B",
"s  c #422E2A",
"d  c #44312D",
"f  c #4A332D",
"g  c #443431",
"h  c #4A3531",
"j  c #453B33",
"k  c #4B3934",
"l  c #453A38",
"z  c #483C39",
"x  c #533A36",
"c  c #5C3832",
"v  c #553E39",
"b  c #593F3B",
"n  c #682C23",
"m  c #702F26",
"M  c #6B342B",
"N  c #71372E",
"B  c #753C33",
"V  c #683C34",
"C  c #4B4336",
"Z  c #4B413A",
"A  c #504537",
"S  c #54413B",
"D  c #5B423D",
"F  c #49503F",
"G  c #64433C",
"H  c #68453F",
"J  c #7E493E",
"K  c #393F42",
"L  c #423F41",
"P  c #3C464C",
"I  c #3E494F",
"U  c #394043",
"Y  c #41484F",
"T  c #424548",
"R  c #5E4641",
"E  c #514B42",
"W  c #5C4B44",
"Q  c #554E48",
"!  c #555045",
"~  c #56524A",
"^  c #5C534B",
"/  c #5B5B4C",
"(  c #444D53",
")  c #43525B",
"_  c #4A5359",
"`  c #475156",
"'  c #545A5F",
"]  c #614641",
"[  c #634A45",
"{  c #6A4B46",
"}  c #6C4E48",
"|  c #684640",
" . c #714F4A",
".. c #63524C",
"X. c #675853",
"o. c #755B53",
"O. c #785A54",
"+. c #735751",
"@. c #79534B",
"#. c #5B624D",
"$. c #5E6650",
"%. c #61614F",
"&. c #636552",
"*. c #636C55",
"=. c #6A6857",
"-. c #73635D",
";. c #69705A",
":. c #667059",
">. c #495761",
",. c #4D5A63",
"<. c #515C64",
"1. c #5D5E60",
"2. c #55626A",
"3. c #59666E",
"4. c #5C6971",
"5. c #5B6770",
"6. c #636A6D",
"7. c #6E7362",
"8. c #777B65",
"9. c #666E71",
"0. c #833D32",
"q. c #833428",
"w. c #8F4A3C",
"e. c #85493E",
"r. c #93493D",
"t. c #824E44",
"y. c #81554D",
"u. c #8F5855",
"i. c #905956",
"p. c #80635A",
"a. c #88635B",
"s. c #88695F",
"d. c #9D6455",
"f. c #A26A5D",
"g. c #AA6759",
"h. c #8C6C62",
"j. c #8F7667",
"k. c #927569",
"l. c #9A766B",
"z. c #9C796E",
"x. c #96786D",
"c. c #9E7D71",
"v. c #AC786A",
"b. c #B0736E",
"n. c #A27D72",
"m. c #A66B66",
"M. c #76806B",
"N. c #9F8879",
"B. c #A38174",
"V. c #A88276",
"C. c #AB8579",
"Z. c #A2897A",
"A. c #AD887B",
"S. c #B28B7D",
"D. c #B8877B",
"F. c #B2907D",
"G. c #998E87",
"H. c #9C928A",
"J. c #A98F83",
"K. c #B38E81",
"L. c #B88E81",
"P. c #A69585",
"I. c #BD9385",
"U. c #BD9E8C",
"Y. c #BB9787",
"T. c #AB9F92",
"R. c #B4A598",
"E. c #B4ABA1",
"W. c #BEAFA3",
"Q. c #BEB1A4",
"!. c #C39385",
"~. c #C2978A",
"^. c #C1998B",
"/. c #CC9B8E",
"(. c #CA9485",
"). c #C79E91",
"_. c #CFA294",
"`. c #C6AC9A",
"'. c #C8AE9B",
"]. c #D3A495",
"[. c #D3A999",
"{. c #DAAB9C",
"}. c #D6A798",
"|. c #C9B09C",
" X c #CEB3A4",
".X c #D1B9A8",
"XX c #E4B4A4",
"oX c #EABAA9",
"OX c #E8B8A7",
"+X c #D8C4B4",
"@X c None",
/* pixels */
"@X@X@X@X@X@X@X@X@X@X@X@X@X@X@X@X@X@X@X@X@X@X@X@X@X@X@X@X@X@X@X@X@X@X@X@X@X@X@X@X@X@X@X@X@X@X@X@X@X@X@X@X@X@X@X@X@X@X@X@X@X@X@X@X",
"@X@X@X@X@X@X@X@X@X@X@X@X@X@X@X@X@X@X@X@X@X@X@X@X@X@X@X@X@X@X@X@X@X@X@X@X@X@X@X@X@X@X@X@X@X@X@X@X@X@X@X@X@X@X@X@X@X@X@X@X@X@X@X@X",
"@X@X@X@X@X@X@X@X@X@X@X@X@X@X@X@X@X@X@X@X@X@X@X@X@X@X@X@X@X@X@X@X@X@X@X@X@X@X@X@X@X@X@X@X@X@X@X@X@X@X@X@X@X@X@X@X@X@X@X@X@X@X@X@X",
"@X@X@X@X@X@X@X@X@X@X@X@X@X@X@X@X@X@X@X@X@X@X@X@X@X@X@X@X@X@X@X@X@X@X@X@X@X@X@X@X@X@X@X@X@X@X@X@X@X@X@X@X@X@X@X@X@X@X@X@X@X@X@X@X",
"@X@X@X@X@X@X@X@X@X@X@X@X@X@X@X@X@X@X@X@X@X@X@X@X@X@X@X@X@X@X@X@X@X@X@X@X@X@X@X@X@X@X@X@X@X@X@X@X@X@X@X@X@X@X@X@X@X@X@X@X@X@X@X@X",
"@X@X@X@X@X@X@X@X@X@X@X@X@X@X@X@X@X@X@X@X@X@X@X@X@X@X@X@X@X@X@X@X@X@X@X@X@X@X@X@X@X@X@X@X@X@X@X@X@X@X@X@X@X@X@X@X@X@X@X@X@X@X@X@X",
"@X@X@X@X@X@X@X@X@X@X@X@X@X@X@X@X@X@X@X@X@X@X@X@X@X@X@X@X@X@X@X@X@X@X@X@X@X@X@X@X@X@X@X@X@X@X@X@X@X@X@X@X@X@X@X@X@X@X@X@X@X@X@X@X",
"@X@X@X@X@X@X@X@X@X@X@X@X@X@X@X@X@X@X@X@X@X@X@X@X@X@X@X@X@X@X@X@X@X@X@X@X@X@X@X@X@X@X@X@X@X@X@X@X@X@X@X@X@X@X@X@X@X@X@X@X@X@X@X@X",
"@X@X@X@X@X@X@X@X@X@X@X@X@X@X@X@X@X@X@X@X@X@X@X@X@X@X@X@X@X@X@X@X@X@X@X@X@X@X@X@X@X@X@X@X@X@X@X@X@X@X@X@X@X@X@X@X@X@X@X@X@X@X@X@X",
"@X@X@X@X@X@X@X@X@X@X@X@X@X@X@X@X@X@X@X@X@X@X@X@X@X@X@X@X@X@X@X@X@X@X@X@X@X@X@X@X@X@X@X@X@X@X@X@X@X@X@X@X@X@X@X@X@X@X@X@X@X@X@X@X",
"@X@X@X@X@X@X@X@X@X@X@X@X@X@X@X@X@X@X@X@X@X@X@X@X@X@X@X@X@X@X@X@X@X@X@X@X@X@X@X@X@X@X@X@X@X@X@X@X@X@X@X@X@X@X@X@X@X@X@X@X@X@X@X@X",
"@X@X@X@X@X@X@X@X@X@X@X@X@X@X@X@X@X@X@X@X@X@X@X@X@X@X@X@X@X@X@X@X@X@X@X@X@X@X@X@X@X@X@X@X@X@X@X@X@X@X@X@X@X@X@X@X@X@X@X@X@X@X@X@X",
"@X@X@X@X@X@X@X@X@X@X@X@X@X@X@X@X@X@X@X@X@X@X@X@X@X@X@X@X@X@XX X @X@X. X X X @X@X@X@X@X@X@X@X@X@X@X@X@X@X@X@X@X@X@X@X@X@X@X@X@X@X",
"@X@X@X@X@X@X@X@X@X@X@X@X@X@X@X@X@X@X@X@X@X@X@X@X@X@X@X@X@X@X@ @ @X@X@ @ $ @ @X@X@X@X@X@X@X@X@X@X@X@X@X@X@X@X@X@X@X@X@X@X@X@X@X@X",
"@X@X@X@X@X@X@X@X@X@X@X@X@X@X@X@X@X@X@X@X@X@X@X@X@X@XX X . # 2 8 @ O 2 s 0 2 @ . X X @X@X@X@X@X@X@X@X@X@X@X@X@X@X@X@X@X@X@X@X@X@X",
"@X@X@X@X@X@X@X@X@X@X@X@X@X@X@X@X@X@X@X@X@X@X@X@X@X@X$ - % 1 f s : ; s v v f : @ $ @ @X@X@X@X@X@X@X@X@X@X@X@X@X@X@X@X@X@X@X@X@X@X",
"@X@X@X@X@X@X@X@X@X@X@X@X@X@X@X@X@X@X@X@X@X@X@X@XX $ 0 h k x R b s s b ] ] b h f s : $ . . . @X@X@X@X@X@X@X@X@X@X@X@X@X@X@X@X@X@X",
"@X@X@X@X@X@X@X@X@X@X@X@X@X@X@X@X@X@X@X@X@X@X@X@XX $ 0 h R [ [ ] b b R [ [ ] | L c f ; # % % @X@X@X@X@X@X@X@X@X@X@X@X@X@X@X@X@X@X",
"@X@X@X@X@X@X@X@X@X@X@X@X@X@X@X@X@X@X@X@X@X@X@X@X@X@X# 2 v ..[ [ R R [ [ ] [ [ ] R b s s s 0 $ . @X@X@X@X@X@X@X@X@X@X@X@X@X@X@X@X",
"@X@X@X@X@X@X@X@X@X@X@X@X@X@X@X@X@X@X@X@X@X@X@X@X@X@X@ 1 v [ [ [ [ [ [ [ [ [ ] ..[ R x k b s % X @X@X@X@X@X@X@X@X@X@X@X@X@X@X@X@X",
"@X@X@X@X@X@X@X@X@X@X@X@X@X@X@X@X@X@X@X@X@X@X@X@X. $ 9 k D ..[ [ [ [ [ [ [ [ [ [ [ R b b b s % X @X@X@X@X@X@X@X@X@X@X@X@X@X@X@X@X",
"@X@X@X@X@X@X@X@X@X@X@X@X@X@X@X@X@X@X@X@X@X@X@X@X. % f D D D D G [ [ [ [ [ [ [ [ [ [ R b b d % . @X@X@X@X@X@X@X@X@X@X@X@X@X@X@X@X",
"@X@X@X@X@X@X@X@X@X@X@X@X@X@X@X@X@X@X@X@X@X@X@X@X. % k D S x x x R [ [ [ [ [ [ [ [ [ R R D s = . @X@X@X@X@X@X@X@X@X@X@X@X@X@X@X@X",
"@X@X@X@X@X@X@X@X@X@X@X@X@X@X@X@X@X@X@X@X@X@X@X@X@ 1 S { } G x h R [ ] R R [ [ [ [ [ ] R v g : @ @X@X@X@X@X@X@X@X@X@X@X@X@X@X@X@X",
"@X@X@X@X@X@X@X@X@X@X@X@X@X@X@X@X@X@X@X@X@X@XX @ 2 f D O.n.l.G h R R v x R [ [ [ [ ] R b k h s 2 $ X @X@X@X@X@X@X@X@X@X@X@X@X@X@X",
"@X@X@X@X@X@X@X@X@X@X@X@X@X@X@X@X@X@X@X@X@X@XX $ 2 d b p.I.^.a.{ ] R c x ] [ [ [ [ ] R x h f s 2 # X @X@X@X@X@X@X@X@X@X@X@X@X@X@X",
"@X@X@X@X@X@X@X@X@X@X@X@X@X@X@X@X@X@X@X@X@X@X@X@X# : k p.I.].!.z.+.V N N [ [ [ [ [ [ { L x 0 ; @ @X@X@X@X@X@X@X@X@X@X@X@X@X@X@X@X",
"@X@X@X@X@X@X@X@X@X@X@X@X@X@X@X@X@X@X@X@X@X@X@X@X  ; R h.l.A./.~.l.@.M n V | ] [ ] ] | ] c s ; $ @X@X@X@X@X@X@X@X@X@X@X@X@X@X@X@X",
"@X@X@X@X@X@X@X@X@X@X@X@X@X@X@X@X@X@X@X@X@X@X@X@X  8 h.z.D W C.}._.z.f , n B | R x x R ] b k d 0 $ X @X@X@X@X@X@X@X@X@X@X@X@X@X@X",
"@X@X@X@X@X@X@X@X@X@X@X@X@X@X@X@X@X@X@X@X@X@X@X@XO k C.V.0 0 B.XXoXK.g = a 0.y.+.{ | [ ] b x h 0 $ X @X@X@X@X@X@X@X@X@X@X@X@X@X@X",
"@X@X@X@X@X@X@X@X@X@X@X@X@X@X@X@X@X@X@X@X@X@XX @ 2 [ S.V.d d A.OXoXK.k > a r.b.A.m.i. .R D h : - @X@X@X@X@X@X@X@X@X@X@X@X@X@X@X@X",
"@X@X@X@X@X@X@X@X@X@X@X@X@X@X@X@X@X@X@X@X@X@XX + 1 | S.L.o.o.^.oXoX^.O.V e.g.(./.b.i.} R b s $ X @X@X@X@X@X@X@X@X@X@X@X@X@X@X@X@X",
"@X@X@X@X@X@X@X@X@X@X@X@X@X@X@X@X@X@X@X@X@X@X@X@X+ h V.}.^.^.{.XXOX{.~.L.D.(.].!.i.] R L G h $ X @X@X@X@X@X@X@X@X@X@X@X@X@X@X@X@X",
"@X@X@X@X@X@X@X@X@X@X@X@X@X@X@X@X@X@X@X@X@X@X@X@X  8 p.S.{.oXXXXXXXOXOXXX{.].!.l.} k v k h 0 $ X @X@X@X@X@X@X@X@X@X@X@X@X@X@X@X@X",
"@X@X@X@X@X@X@X@X@X@X@X@X@X@X@X@X@X@X@X@X@X@X@X@X@X@X8 [ K.XXXXXXXXXXOXXX{.~.a.} b b b f : # @X@X@X@X@X@X@X@X@X@X@X@X@X@X@X@X@X@X",
"@X@X@X@X@X@X@X@X@X@X@X@X@X@X@X@X@X@X@X@X@X@X@X@X@X@X  2 -.S.].XX.XXXXX].L.h.| k x x h 0 @ . @X@X@X@X@X@X@X@X@X@X@X@X@X@X@X@X@X@X",
"@X@X@X@X@X@X@X@X@X@X@X@X@X@X@X@X@X@X@X@X@X@X@X@X@X@X@X@X8 [ A.{.}.{.{.S.[ q h x b g : # @X@X@X@X@X@X@X@X@X@X@X@X@X@X@X@X@X@X@X@X",
"@X@X@X@X@X@X@X@X@X@X@X@X@X@X@X@X@X@X@X@X@X@X@X@X@X@X@X@XX e N.].}.'.[.B.q ; j W b 0 $ . @X@X@X@X@X@X@X@X@X@X@X@X@X@X@X@X@X@X@X@X",
"@X@X@X@X@X@X@X@X@X@X@X@X@X@X@X@X@X@X@X@X@X@X@X@X@X@XX + ; S Z.`.`.`.|.Z.Z r / #.Z 8 # X @X@X@X@X@X@X@X@X@X@X@X@X@X@X@X@X@X@X@X@X",
"@X@X@X@X@X@X@X@X@X@X@X@X@X@X@X@X@X@X@X@X@X@X@X@X@X@XX + : W P.`.Y.S.F.k.R Z *.*.Z : O X @X@X@X@X@X@X@X@X@X@X@X@X@X@X@X@X@X@X@X@X",
"@X@X@X@X@X@X@X@X@X@X@X@X@X@X@X@X@X@X@X@X@X@X@X@X@X@XX O : ..R.`.d.w.w.J b E :.*.z 1 O X @X@X@X@X@X@X@X@X@X@X@X@X@X@X@X@X@X@X@X@X",
"@X@X@X@X@X@X@X@X@X@X@X@X@X@X@X@X@X@X@X@X@X@X@X@X@X@X$ & 8 ..R..Xv.w.q.m x ~ 7.;.Z 4 - O @X@X@X@X@X@X@X@X@X@X@X@X@X@X@X@X@X@X@X@X",
"@X@X@X@X@X@X@X@X@X@X@X@X@X@X@X@X@X@X@X@X@X@X@X@XX $ w e 9 ..R.+X.XS.w.m x ^ 8.8.Z 8 8 ; + X @X@X@X@X@X@X@X@X@X@X@X@X@X@X@X@X@X@X",
"@X@X@X@X@X@X@X@X@X@X@X@X@X@X@X@X@X@X@X@X@X@X@X@XX $ u l q ..T.+X XY.f.t.R ~ 7.7.Q j d 8 # X @X@X@X@X@X@X@X@X@X@X@X@X@X@X@X@X@X@X",
"@X@X@X@X@X@X@X@X@X@X@X@X@X@X@X@X@X@X@X@X@X@X@X@X. $ u z q W P.U.f.f.I.P.X.S Q / $./ E w # X @X@X@X@X@X@X@X@X@X@X@X@X@X@X@X@X@X@X",
"@X@X@X@X@X@X@X@X@X@X@X@X@X@X@X@X@X@X@X@X@X@X@X@X# ; u g q W P.U.d.f. XQ.-.z g E ;.;.~ u ; @ @X@X@X@X@X@X@X@X@X@X@X@X@X@X@X@X@X@X",
"@X@X@X@X@X@X@X@X@X@X@X@X@X@X@X@X@X@X@X@X@X@XX $ 4 u u q w ..R..XY.U.+XQ.7.l t z $.*.E l u 5 $ X @X@X@X@X@X@X@X@X@X@X@X@X@X@X@X@X",
"@X@X@X@X@X@X@X@X@X@X@X@X@X@X@X@X@X@X@X@X@X@X. ; R ..k 0 8 W G.E.T.T.R.H...g 0 l #.;.=.o.O.W ; X @X@X@X@X@X@X@X@X@X@X@X@X@X@X@X@X",
"@X@X@X@X@X@X@X@X@X@X@X@X@X@X@X@X@X@X@X@X@X@XX 9 h.c.D 9 9 j 1.9.6.6.9.1.z q 0 j #.8.Z.I.).x.q   @X@X@X@X@X@X@X@X@X@X@X@X@X@X@X@X",
"@X@X@X@X@X@X@X@X@X@X@X@X@X@X@X@X@X@X@X@X@X@X  r h.s.k 8 u U ( ) I ) ) ( T u u p F &.j.C.S.j.q . @X@X@X@X@X@X@X@X@X@X@X@X@X@X@X@X",
"@X@X@X@X@X@X@X@X@X@X@X@X@X@X@X@X@X@X@X@X@X@X@X@X0 8 % 3 T ' ,.,.>.>.,.<.' _ ( K 5 1 w e d e @X@X@X@X@X@X@X@X@X@X@X@X@X@X@X@X@X@X",
"@X@X@X@X@X@X@X@X@X@X@X@X@X@X@X@X@X@X@X@X@X@X@X@X      3 ( 5.4.' P P <.3.5.<.,.U *           @X@X@X@X@X@X@X@X@X@X@X@X@X@X@X@X@X@X",
"@X@X@X@X@X@X@X@X@X@X@X@X@X@X@X@X@X@X@X@X@X@X@X@X@X@X. 3 Y 4.4.` 6 6 ) 3.3.2.2.( &   @X@X@X@X@X@X@X@X@X@X@X@X@X@X@X@X@X@X@X@X@X@X",
"@X@X@X@X@X@X@X@X@X@X@X@X@X@X@X@X@X@X@X@X@X@X@X@X@X@X  3 U _ <.` 6 3 K ) <.2.2.( 7 * @X@X@X@X@X@X@X@X@X@X@X@X@X@X@X@X@X@X@X@X@X@X",
"@X@X@X@X@X@X@X@X@X@X@X@X@X@X@X@X@X@X@X@X@X@X@X@X@X@X@X@X& 7 I ) I y 3 7 I >._ ) P y * X @X@X@X@X@X@X@X@X@X@X@X@X@X@X@X@X@X@X@X@X",
"@X@X@X@X@X@X@X@X@X@X@X@X@X@X@X@X@X@X@X@X@X@X@X@X@X@X@X@X  # i Y ( i # # i I I I I p * X @X@X@X@X@X@X@X@X@X@X@X@X@X@X@X@X@X@X@X@X",
"@X@X@X@X@X@X@X@X@X@X@X@X@X@X@X@X@X@X@X@X@X@X@X@X@X@X@X@X  + 5 e u 4 # + 4 t t e u 8 # X @X@X@X@X@X@X@X@X@X@X@X@X@X@X@X@X@X@X@X@X",
"@X@X@X@X@X@X@X@X@X@X@X@X@X@X@X@X@X@X@X@X@X@X@X@X@X@X@X@X% < 8 0 0 : + + 8 e e 0 9 : O X @X@X@X@X@X@X@X@X@X@X@X@X@X@X@X@X@X@X@X@X",
"@X@X@X@X@X@X@X@X@X@X@X@X@X@X@X@X@X@X@X@X@X@X@X@X@X@X. % r C C C q : O $ e A C k q : @ X @X@X@X@X@X@X@X@X@X@X@X@X@X@X@X@X@X@X@X@X",
"@X@X@X@X@X@X@X@X@X@X@X@X@X@X@X@X@X@X@X@X@X@X@X@X@X@X. % r C C C 9 ; O $ r C A j 0 ; O X @X@X@X@X@X@X@X@X@X@X@X@X@X@X@X@X@X@X@X@X",
"@X@X@X@X@X@X@X@X@X@X@X@X@X@X@X@X@X@X@X@X@X@X@X@X@X@XX @ < < 1 < % @ o + < 1 < < - + O X @X@X@X@X@X@X@X@X@X@X@X@X@X@X@X@X@X@X@X@X",
"@X@X@X@X@X@X@X@X@X@X@X@X@X@X@X@X@X@X@X@X@X@X@X@X@X@X@X@X@X@X@X@X@X@X@X@X@X@X@X@X@X@X@X@X@X@X@X@X@X@X@X@X@X@X@X@X@X@X@X@X@X@X@X@X",
"@X@X@X@X@X@X@X@X@X@X@X@X@X@X@X@X@X@X@X@X@X@X@X@X@X@X@X@X@X@X@X@X@X@X@X@X@X@X@X@X@X@X@X@X@X@X@X@X@X@X@X@X@X@X@X@X@X@X@X@X@X@X@X@X",
"@X@X@X@X@X@X@X@X@X@X@X@X@X@X@X@X@X@X@X@X@X@X@X@X@X@X@X@X@X@X@X@X@X@X@X@X@X@X@X@X@X@X@X@X@X@X@X@X@X@X@X@X@X@X@X@X@X@X@X@X@X@X@X@X"
};
