/* XPM */
static char *result[] = {
/* columns rows colors chars-per-pixel */
"64 64 185 2 ",
"   c #050502",
".  c #080704",
"X  c #0A0906",
"o  c #130E0B",
"O  c #15110E",
"+  c #19130F",
"@  c #1B1512",
"#  c #1E1813",
"$  c #1B1C1B",
"%  c #131210",
"&  c #240F0A",
"*  c #221A16",
"=  c #261D19",
"-  c #291E1B",
";  c #2F1411",
":  c #381812",
">  c #2C211D",
",  c #24211B",
"<  c #32231F",
"1  c #1C2123",
"2  c #202222",
"3  c #2F2421",
"4  c #262A2B",
"5  c #292C2D",
"6  c #332622",
"7  c #362925",
"8  c #3A2A26",
"9  c #372D2C",
"0  c #3B2D2A",
"q  c #3D322C",
"w  c #373129",
"e  c #3D3433",
"r  c #3C3D3F",
"t  c #30393B",
"y  c #64251B",
"u  c #422E2A",
"i  c #44312D",
"p  c #4A332D",
"a  c #443532",
"s  c #4A3531",
"d  c #443A36",
"f  c #4C3934",
"g  c #473B38",
"h  c #493E3B",
"j  c #533A36",
"k  c #5C3832",
"l  c #553E39",
"z  c #593F3B",
"x  c #652D23",
"c  c #6F2C23",
"v  c #702F26",
"b  c #6B342B",
"n  c #71372E",
"m  c #683C34",
"M  c #753C33",
"N  c #4B4336",
"B  c #4C423B",
"V  c #4D483D",
"C  c #54433B",
"Z  c #5A423D",
"A  c #64433C",
"S  c #68453F",
"D  c #7E493E",
"F  c #2C3D46",
"G  c #313F45",
"H  c #413E40",
"J  c #3B4246",
"K  c #3C474D",
"L  c #324249",
"P  c #354650",
"I  c #474948",
"U  c #5E4641",
"Y  c #554A45",
"T  c #5C4B45",
"R  c #564F48",
"E  c #565149",
"W  c #5C534C",
"Q  c #585A49",
"!  c #434C52",
"~  c #504E50",
"^  c #495157",
"/  c #43515B",
"(  c #4D575D",
")  c #4D585E",
"_  c #51565B",
"`  c #5A5C5E",
"'  c #51585F",
"]  c #614641",
"[  c #634A45",
"{  c #6A4B46",
"}  c #6C4E48",
"|  c #654A44",
" . c #714F4A",
".. c #62534D",
"X. c #79534B",
"o. c #675853",
"O. c #755B53",
"+. c #785A54",
"@. c #735751",
"#. c #61614F",
"$. c #636C55",
"%. c #696F5C",
"&. c #73635D",
"*. c #68705A",
"=. c #4D5A62",
"-. c #505C64",
";. c #5D5E61",
":. c #55626B",
">. c #59666E",
",. c #5B6870",
"<. c #636A6D",
"1. c #6E7562",
"2. c #727A65",
"3. c #666E71",
"4. c #833428",
"5. c #833D32",
"6. c #8F4A3C",
"7. c #85493E",
"8. c #93493D",
"9. c #824E44",
"0. c #81554D",
"q. c #8F5855",
"w. c #905956",
"e. c #80635A",
"r. c #88635B",
"t. c #9D6455",
"y. c #A26A5D",
"u. c #AA6759",
"i. c #8B6B61",
"p. c #95766B",
"a. c #99766B",
"s. c #9C796E",
"d. c #907167",
"f. c #967A71",
"g. c #A66B66",
"h. c #AC786A",
"j. c #B0736E",
"k. c #A27D72",
"l. c #76806B",
"z. c #9F8879",
"x. c #A38174",
"c. c #A88276",
"v. c #AC8679",
"b. c #A7897B",
"n. c #B28B7D",
"m. c #B8877B",
"M. c #B2907D",
"N. c #988E87",
"B. c #9C928A",
"V. c #A98F83",
"C. c #B38E81",
"Z. c #B88E81",
"A. c #A69585",
"S. c #BD9385",
"D. c #BD9E8C",
"F. c #B99688",
"G. c #AB9F92",
"H. c #BD9C92",
"J. c #B2A295",
"K. c #B7A79B",
"L. c #B4ABA1",
"P. c #BEAFA3",
"I. c #BEB1A4",
"U. c #C39385",
"Y. c #C2978A",
"T. c #C1998B",
"R. c #CC9B8E",
"E. c #CA9485",
"W. c #C79D90",
"Q. c #CFA294",
"!. c #C6AC9A",
"~. c #C8AE9B",
"^. c #D3A495",
"/. c #D3A999",
"(. c #DAAB9C",
"). c #D6A798",
"_. c #C9B09C",
"`. c #CEB3A4",
"'. c #D1B9A8",
"]. c #E4B4A4",
"[. c #E7B8A7",
"{. c #E8B8A7",
"}. c #EABAA9",
"|. c #D8C4B4",
" X c None",
/* pixels */
" X X X X X X X X X X X X X X X X X X X X X X X X X X X X X X X X X X X X X X X X X X X X X X X X X X X X X X X X X X X X X X X X",
" X X X X X X X X X X X X X X X X X X X X X X X X X X X X X X X X X X X X X X X X X X X X X X X X X X X X X X X X X X X X X X X X",
" X X X X X X X X X X X X X X X X X X X X X X X X X X X X X X X X X X X X X X X X X X X X X X X X X X X X X X X X X X X X X X X X",
" X X X X X X X X X X X X X X X X X X X X X X X X X X X X X X X X X X X X X X X X X X X X X X X X X X X X X X X X X X X X X X X X",
" X X X X X X X X X X X X X X X X X X X X X X X X X X X X X X X X X X X X X X X X X X X X X X X X X X X X X X X X X X X X X X X X",
" X X X X X X X X X X X X X X X X X X X X X X X X X X X X X X X X X X X X X X X X X X X X X X X X X X X X X X X X X X X X X X X X",
" X X X X X X X X X X X X X X X X X X X X X X X X X X X X X X X X X X X X X X X X X X X X X X X X X X X X X X X X X X X X X X X X",
" X X X X X X X X X X X X X X X X X X X X X X X X X X X X X X X X X X X X X X X X X X X X X X X X X X X X X X X X X X X X X X X X",
" X X X X X X X X X X X X X X X X X X X X X X X X X X X X X X X X X X X X X X X X X X X X X X X X X X X X X X X X X X X X X X X X",
" X X X X X X X X X X X X X X X X X X X X X X X X X X X X X X X X X X X X X X X X X X X X X X X X X X X X X X X X X X X X X X X X",
" X X X X X X X X X X X X X X X X X X X X X X X X X X X X X X X X X X X X X X X X X X X X X X X X X X X X X X X X X X X X X X X X",
" X X X X X X X X X X X X X X X X X X X X X X X X X X X X X X X X X X X X X X X X X X X X X X X X X X X X X X X X X X X X X X X X",
" X X X X X X X X X X X X X X X X X X X X X X X X X X X X X X X X X X X X X X X X X X X X X X X X X X X X X X X X X X X X X X X X",
" X X X X X X X X X X X X X X X X X X X X X X X X X X X X X X X X X X X X X X X X X X X X X X X X X X X X X X X X X X X X X X X X",
" X X X X X X X X X X X X X X X X X X X X X X X X X X X X X X X X X X X X X X X X X X X X X X X X X X X X X X X X X X X X X X X X",
" X X X X X X X X X X X X X X X X X X X X X X X X X X X X X X X X X X X X X X X X X X X X X X X X X X X X X X X X X X X X X X X X",
" X X X X X X X X X X X X X X X X X X X X X X X X X X X X X X X X X X X X X X X X X X X X X X X X X X X X X X X X X X X X X X X X",
" X X X X X X X X X X X X X X X X X X X X X X X X X X X X X X X X X X X X X X X X X X X X X X X X X X X X X X X X X X X X X X X X",
" X X X X X X X X X X X X X X X X X X X X X X X X X X X X X XX X  X XX X X X  X X X X X X X X X X X X X X X X X X X X X X X X X X",
" X X X X X X X X X X X X X X X X X X X X X X X X X X X X X X@ +  X X+ @ + @  X X X X X X X X X X X X X X X X X X X X X X X X X X",
" X X X X X X X X X X X X X X X X X X X X X X X X X XX X . + < 6 + + < 8 8 < + X X X  X X X X X X X X X X X X X X X X X X X X X X",
" X X X X X X X X X X X X X X X X X X X X X X X X X X@ * @ > p p - = u j z u - @ @ +  X X X X X X X X X X X X X X X X X X X X X X",
" X X X X X X X X X X X X X X X X X X X X X X X XX @ 7 s f l U l u p z A ] C s 0 8 < + X X X  X X X X X X X X X X X X X X X X X X",
" X X X X X X X X X X X X X X X X X X X X X X X XX @ 7 f U [ [ T l l U [ [ [ U Z k i = @ @ @  X X X X X X X X X X X X X X X X X X",
" X X X X X X X X X X X X X X X X X X X X X X X X X X@ > l [ [ [ U U [ [ [ [ [ ] ] l p 8 u 8 @ X  X X X X X X X X X X X X X X X X",
" X X X X X X X X X X X X X X X X X X X X X X X X X X+ > l [ [ [ [ [ [ [ [ [ [ [ [ U l f l i @ X  X X X X X X X X X X X X X X X X",
" X X X X X X X X X X X X X X X X X X X X X X X XX @ 7 f U [ | [ [ [ [ [ [ [ [ [ [ ] l l l a @ X  X X X X X X X X X X X X X X X X",
" X X X X X X X X X X X X X X X X X X X X X X X XX @ p Z Z U U U [ [ [ [ [ [ [ [ [ [ Z l z u @ X  X X X X X X X X X X X X X X X X",
" X X X X X X X X X X X X X X X X X X X X X X X X. @ f Z l f f k ] [ [ ] [ [ [ [ [ [ U U Z u @ .  X X X X X X X X X X X X X X X X",
" X X X X X X X X X X X X X X X X X X X X X X X X@ 3 l } } S f j U [ T U [ [ [ [ [ [ [ U z i - +  X X X X X X X X X X X X X X X X",
" X X X X X X X X X X X X X X X X X X X X X XX + < p Z +.k.a.A f z ] l l T [ [ [ [ [ U k j p u < @ X  X X X X X X X X X X X X X X",
" X X X X X X X X X X X X X X X X X X X X X XX @ < u z &.S.U.r.| ] U k k ] [ [ [ [ [ Z j f i u < @ X  X X X X X X X X X X X X X X",
" X X X X X X X X X X X X X X X X X X X X X X X X+ > f e.S.^.U.s.@.m n n S [ [ [ [ ] ] H k u = +  X X X X X X X X X X X X X X X X",
" X X X X X X X X X X X X X X X X X X X X X X X X  = [ r.a.n.R.T.f.X.b x m ] ] [ U ] [ ] k i - @  X X X X X X X X X X X X X X X X",
" X X X X X X X X X X X X X X X X X X X X X X X X  7 d.a.C T v.).Q.s.s : x M | Z j l T ] z j s 7 @ X  X X X X X X X X X X X X X X",
" X X X X X X X X X X X X X X X X X X X X X X X X+ s c.x.0 0 k.].}.C.i & y 5.0.+.{ A ] ] H m s 7 @ X  X X X X X X X X X X X X X X",
" X X X X X X X X X X X X X X X X X X X X X XX + > | M.c.i p v.{.}.Z.f ; y 8.j.m.g.q.} ] z a - @  X X X X X X X X X X X X X X X X",
" X X X X X X X X X X X X X X X X X X X X X XX + > S n.Z.@.O.T.}.}.T.+.A 7.u.E.R.j.w.} T Z p @ X  X X X X X X X X X X X X X X X X",
" X X X X X X X X X X X X X X X X X X X X X X X XO f c.^.Y.T.(.[.[.(.Y.m.m.U.^.Z.w.] U z z i @ X  X X X X X X X X X X X X X X X X",
" X X X X X X X X X X X X X X X X X X X X X X X X  7 e.n.).[.[.].].[.}.].(.^.U.a.{ j l j a 7 @ X  X X X X X X X X X X X X X X X X",
" X X X X X X X X X X X X X X X X X X X X X X X X X X6 T C.].].[.].].}.].].S.i.} C l l s - @  X X X X X X X X X X X X X X X X X X",
" X X X X X X X X X X X X X X X X X X X X X X X X X X  6 e.n.).(.].'.].^.M.r.| j l j s 7 @ .  X X X X X X X X X X X X X X X X X X",
" X X X X X X X X X X X X X X X X X X X X X X X X X X X X6 T n.(.(.).(.m.[ q s C z a - @  X X X X X X X X X X X X X X X X X X X X",
" X X X X X X X X X X X X X X X X X X X X X X X X X X X XX i z.^./././.k.q # d Z l 8 @ .  X X X X X X X X X X X X X X X X X X X X",
" X X X X X X X X X X X X X X X X X X X X X X X X X XX o * C b.!.!.~._.z.B w Q $.h 6 @ X  X X X X X X X X X X X X X X X X X X X X",
" X X X X X X X X X X X X X X X X X X X X X X X X X XX O - T A.!.F.M.M.p.Y N $.$.N - o X  X X X X X X X X X X X X X X X X X X X X",
" X X X X X X X X X X X X X X X X X X X X X X X X X XX o > ..J.!.t.6.6.D Z Y $.$.h - O X  X X X X X X X X X X X X X X X X X X X X",
" X X X X X X X X X X X X X X X X X X X X X X X X X XO @ 3 ..L.`.h.6.4.v k E *.*.N 6 * o  X X X X X X X X X X X X X X X X X X X X",
" X X X X X X X X X X X X X X X X X X X X X X X XX O = 6 6 ..K.|.'.m.9.c j W 2.1.B 7 6 = + X  X X X X X X X X X X X X X X X X X X",
" X X X X X X X X X X X X X X X X X X X X X X X XX @ 6 0 8 ..G.|.`.S.u.9.H W 1.1.V 0 0 6 + X  X X X X X X X X X X X X X X X X X X",
" X X X X X X X X X X X X X X X X X X X X X X X X. @ q d 0 T A.D.g.t.S.V.+.Y R R B a q > + X  X X X X X X X X X X X X X X X X X X",
" X X X X X X X X X X X X X X X X X X X X X X X XX @ 9 a 0 T A.D.t.y.`.I.&.f g g h h e 3 + X  X X X X X X X X X X X X X X X X X X",
" X X X X X X X X X X X X X X X X X X X X X X X XX % 3 8 9 ..J.'.D.D.|.P.&.d 0 i g H h 0 @ X  X X X X X X X X X X X X X X X X X X",
" X X X X X X X X X X X X X X X X X X X X X X X XX * f C u Y N.L.G.G.L.B.o.a 9 a [ O.O.T , .  X X X X X X X X X X X X X X X X X X",
" X X X X X X X X X X X X X X X X X X X X X X X X. 6 i.p.z f ` 3.<.<.3.;.H 8 7 z p.F.W.f.7    X X X X X X X X X X X X X X X X X X",
" X X X X X X X X X X X X X X X X X X X X X X X X  0 i.d.T G ! / K / / ! H e e Y f.F.H.f.q O  X X X X X X X X X X X X X X X X X X",
" X X X X X X X X X X X X X X X X X X X X X X X X X X0 d ~ -.-.=.=.=.=.-.' ^ ! ! ^ ` ;.~ 9 * O X  X X X X X X X X X X X X X X X X",
" X X X X X X X X X X X X X X X X X X X X X X X X X X  $ ! ,.,.=.K P -.>.>.-.-./ L F L r q 6 + X  X X X X X X X X X X X X X X X X",
" X X X X X X X X X X X X X X X X X X X X X X X X X X. $ ! >.,.^ 4 4 / >.>.>.-.=.P L V V V i # .  X X X X X X X X X X X X X X X X",
" X X X X X X X X X X X X X X X X X X X X X X X X X XX $ J =.=.J @ $ G ' ( ( ( / F t N N N q # .  X X X X X X X X X X X X X X X X",
" X X X X X X X X X X X X X X X X X X X X X X X X X XX % 2 5 5 2 o O 2 5 5 5 5 4 1 2 , , , = O  X X X X X X X X X X X X X X X X X",
" X X X X X X X X X X X X X X X X X X X X X X X X X X X X X X X X X X X X X X X X X X X X X X X X X X X X X X X X X X X X X X X X",
" X X X X X X X X X X X X X X X X X X X X X X X X X X X X X X X X X X X X X X X X X X X X X X X X X X X X X X X X X X X X X X X X",
" X X X X X X X X X X X X X X X X X X X X X X X X X X X X X X X X X X X X X X X X X X X X X X X X X X X X X X X X X X X X X X X X"
};
