/* XPM */
static char *result[] = {
/* columns rows colors chars-per-pixel */
"64 64 93 2 ",
"   c #060502",
".  c #090604",
"X  c #0A0805",
"o  c #0E0B08",
"O  c #130E0B",
"+  c #15110D",
"@  c #18120F",
"#  c #121515",
"$  c #1C1512",
"%  c #1E1C15",
"&  c #201A16",
"*  c #251D1B",
"=  c #1F2017",
"-  c #24241B",
";  c #2C211D",
":  c #2F2320",
">  c #242A26",
",  c #292A22",
"<  c #332522",
"1  c #372925",
"2  c #392926",
"3  c #352E2F",
"4  c #3C2C29",
"5  c #323729",
"6  c #3C332B",
"7  c #242D33",
"8  c #372F30",
"9  c #233137",
"0  c #243138",
"q  c #2B393E",
"w  c #3B3331",
"e  c #3A3E32",
"r  c #393E3E",
"t  c #422F2C",
"y  c #43322E",
"u  c #443330",
"i  c #4A3632",
"p  c #433A32",
"a  c #4E3935",
"s  c #503B36",
"d  c #533E39",
"f  c #3A4033",
"g  c #404736",
"h  c #4A4135",
"j  c #424937",
"k  c #4C453B",
"l  c #4C483C",
"z  c #55413B",
"x  c #5A423E",
"c  c #55483F",
"v  c #2F3840",
"b  c #303940",
"n  c #3B4444",
"m  c #374749",
"M  c #3D444A",
"N  c #3B4D4D",
"B  c #424C4F",
"V  c #5F4641",
"C  c #5B4A41",
"Z  c #5A4C4A",
"A  c #4C5444",
"S  c #43524D",
"D  c #555645",
"F  c #535F47",
"G  c #535C4D",
"H  c #54575B",
"J  c #56595C",
"K  c #604742",
"L  c #634A45",
"P  c #664D48",
"I  c #684E49",
"U  c #645249",
"Y  c #6C5B4C",
"T  c #57624B",
"R  c #5B634D",
"E  c #5A6554",
"W  c #596956",
"Q  c #5B6B58",
"!  c #636551",
"~  c #6A6056",
"^  c #626E54",
"/  c #637055",
"(  c #67745B",
")  c #69775C",
"_  c #6B7A5D",
"`  c #6F7C63",
"'  c #707E65",
"]  c #9F847C",
"[  c #819175",
"{  c #A88478",
"}  c #AE8B7C",
"|  c #A48B81",
" . c None",
/* pixels */
" . . . . . . . . . . . . . . . . . . . . . . . . . . . . . . . . . . . . . . . . . . . . . . . . . . . . . . . . . . . . . . . .",
" . . . . . . . . . . . . . . . . . . . . . . . . . . . . . . . . . . . . . . . . . . . . . . . . . . . . . . . . . . . . . . . .",
" . . . . . . . . . . . . . . . . . . . . . . . . . . . . . . . . . . . . . . . . . . . . . . . . . . . . . . . . . . . . . . . .",
" . . . . . . . . . . . . . . . . . . . . . . . . . . . . . . . . . . . . . . . . . . . . . . . . . . . . . . . . . . . . . . . .",
" . . . . . . . . . . . . . . . . . . . . . . . . . . . . . . . . . . . . . . . . . . . . . . . . . . . . . . . . . . . . . . . .",
" . . . . . . . . . . . . . . . . . . . . . . . . . . . . . . . . . . . . . . . . . . . . . . . . . . . . . . . . . . . . . . . .",
" . . . . . . . . . . . . . . . . . . . . . . . . . . . . . . . . . . . . . . . . . . . . . . . . . . . . . . . . . . . . . . . .",
" . . . . . . . . . . . . . . . . . . . . . . . . . . . . . . . . . . . . . . . . . . . . . . . . . . . . . . . . . . . . . . . .",
" . . . . . . . . . . . . . . . . . . . . . . . . . . . . . . . . . . . . . . . . . . . . . . . . . . . . . . . . . . . . . . . .",
" . . . . . . . . . . . . . . . . . . . . . . . . . . . . . . . . . . . . . . . . . . . . . . . . . . . . . . . . . . . . . . . .",
" . . . . . . . . . . . . . . . . . . . . . . . . . . . . . . . . . . . . . . . . . . . . . . . . . . . . . . . . . . . . . . . .",
" . . . . . . . . . . . . . . . . . . . . . . . . . . . . . . . . . . . . . . . . . . . . . . . . . . . . . . . . . . . . . . . .",
" . . . . . . . . . . . . . . . . . . . . . . . . . . . . . . . . . . . . . . . . . . . . . . . . . . . . . . . . . . . . . . . .",
" . . . . . . . . . . . . . . . . . . . . . . . . . . . . . . . . . . . . . . . . . . . . . . . . . . . . . . . . . . . . . . . .",
" . . . . . . . . . . . . . . . . . . . . . . . . . . . . . . . . . . . . . . . . . . . . . . . . . . . . . . . . . . . . . . . .",
" . . . . . . . . . . . . . . . . . . . . . . . . . . . . . . . . . . . . . . . . . . . . . . . . . . . . . . . . . . . . . . . .",
" . . . . . . . . . . . . . . . . . . . . . . . . . . . . . . . . . . . . . . . . . . . . . . . . . . . . . . . . . . . . . . . .",
" . . . . . . . . . . . . . . . . . . . . . . . . . . . . . . . . . . . . . . . . . . . . . . . . . . . . . . . . . . . . . . . .",
" . . . . . . . . . . . . . . . . . . . . . . . . . . . . . . . . . . . . . . . . . . . . . . . . . . . . . . . . . . . . . . . .",
" . . . . . . . . . . . . . . . . . . . . . . . . . . . . . . . . . . . . . . . . . . . . . . . . . . . . . . . . . . . . . . . .",
" . . . . . . . . . . . . . . . . . . . . . . . . . . . . . . . . . . . . . . . . . . . . . . . . . . . . . . . . . . . . . . . .",
" . . . . . . . . . . . . . . . . . . . . . . . . . . . . . . . . . . . . . . . . . . . . . . . . . . . . . . . . . . . . . . . .",
" . . . . . . . . . . . . . . . . . . . . . . . . . . . . . . . . . . . . . . . . . . . . . . . . . . . . . . . . . . . . . . . .",
" . . . . . . . . . . . . . . . . . . . . . . . . . . . . . . . . . . . . . . . . . . . . . . . . . . . . . . . . . . . . . . . .",
" . . . . . . . . . . . . . . . . . . . . . . . . . . . . . . . . . . . . . . . . . . . . . . . . . . . . . . . . . . . . . . . .",
" . . . . . . . . . . . . . . . . . . . . . . . . . . . . . . . . . . . . . . . . . . . . . . . . . . . . . . . . . . . . . . . .",
" . . . . . . . . . . . . . . . . . . . . . . . . . . . . . . . . . . . . . . . . . . . . . . . . . . . . . . . . . . . . . . . .",
" . . . . . . . . . . . . . . . . . . . . . . . . . . . . . . . . . . . . . . . . . . . . . . . . . . . . . . . . . . . . . . . .",
" . . . . . . . . . . . . . . . . . . . . . . . . . . . . . . . . . . . . . . . . . . . . . . . . . . . . . . . . . . . . . . . .",
" . . . . . . . . . . . . . . . . . . . . . . . . . . . . . . . . . . . . . . . . . . . . . . . . . . . . . . . . . . . . . . . .",
" . . . . . . . . . . . . . . . . . . . . . . . . . . . . . . . . . . . . . . . . . . . . . . . . . . . . . . . . . . . . . . . .",
" . . . . . . . . . . . . . . . . . . . . . . . . . . . . . . . . . . . . . . . . . . . . . . . . . . . . . . . . . . . . . . . .",
" . . . . . . . . . . . . . . . . . . . . . . . . . . . . . . . . . . . . . . . . . . . . . . . . . . . . . . . . . . . . . . . .",
" . . . . . . . . . . . . . . . . . . . . . . . . . . . . . . . . . . . . . . . . . . . . . . . . . . . . . . . . . . . . . . . .",
" . . . . . . . . . . . . . . . . . . . . . . . . . . . . . . . . . . . . . . . . . . . . . . . . . . . . . . . . . . . . . . . .",
" . . . . . . . . . . . . . . . . . . . . . . . . . . . . . . . . . . . . . . . . . . . . . . . . . . . . . . . . . . . . . . . .",
" . . . . . . . . . . . . . . . . . . . . . . . . . . . . . . . . . . . . . . . . . . . . . . . . . . . . . . . . . . . . . . . .",
" . . . . . . . . . . . . . . . . . . . . . . . . . . . . . . . . . . . . . . . . . . . . . . . . . . . . . . . . . . . . . . . .",
" . . . . . . . . . . . . . . . . . . . . . . . . . . . . . . . . . . . . . . . . . . . . . . . . . . . . . . . . . . . . . . . .",
" . . . . . . . . . . . . . . . . . . . . . . . . . . . . . . . . . . . . . . . . . . . . . . . . . . . . . . . . . . . . . . . .",
" . . . . . . . . . . . . . . . . . . . . . . . . . . . . . . . . . . . . . . . . . . . . . . . . . . . . . . . . . . . . . . . .",
" . . . . . . . . . . . . . . . . . . . . . . . . . . . . . . . . . . . . . . . . . . . . . . . . . . . . . . . . . . . . . . . .",
" . . . . . . . . . . . . . . . .X X X X  . . . . . . . . . . . . . . . . . . . . . . . . . . . . . . . . . . . . . . . . . . . .",
" . . . . . . . . . . . . . . . .$ $ $ $  . . . . . . . . . . . . . . . . . . . . . . . . . . . . . . . . . . . . . . . . . . . .",
" . . . . . . . .. . o . . . . $ 1 i y 2 $ X  . . . . . . . . . . . . . . . . . . . . . . . . . . . . . . . . . . . . . . . . . .",
" . . . . . . . .@ & & $ & $ $ : i d i < $ X  . . . . . . . . . . . . . . . . . . . . . . . . . . . . . . . . . . . . . . . . . .",
" . . . . . .. $ 2 t t t t t t i d d ; @ o X  . . . . . . . . . . . . . . . . . . . . . . . . . . . . . . . . . . . . . . . . . .",
" . . . . . .$ ; a d V V d d d x K s : $ $ $  . . . . . . . . . . . . . . . . . . . . . . . . . . . . . . . . . . . . . . . . . .",
" . . . .X $ 1 i d K V V V V V V V x a i y < $ .  . . . .. . . X . .  . . . . . . . . . . . . . . . . . . . . . . . . . . . . . .",
" . . . .X $ 1 a V K K K K K K V K K L K V i * @  . . . ., , - - , ,  . . . . . . . . . . . . . . . . . . . . . . . . . . . . . .",
" . . . . . .$ : d P K K L P L L P L K K K d i 1 $     , E ( T T ( E ,    . . . . . . . . . . . . . . . . . . . . . . . . . . . .",
" . . . . . .$ < d P L K P P L L P P K K K K K a ; & & e ` [ _ _ [ ` f %  . . . . . . . . . . . . . . . . . . . . . . . . . . . .",
" . . . .X & y z Z L L L V K K K K K L K K P L K z k A T ) ' _ ) ` ) R f %    . . . . . . . . . . . . . . . . . . . . . . . . . .",
" . . . .. & s P P L L L K V V V K K K P P I I L P U ! ! ! G T R ^ ( _ T 5 =  . . . . . . . . . . . . . . . . . . . . . . . . . .",
" . . . .  $ a P K K P P L V K V V V K K P P I L x V C c h p p l R ( ) / T g - . X X X X X X  . . . . . . . . . . . . . . . . . .",
" . . . .$ < d C K K L L L V L L K K K K K P L L V d s i t 2 y l G W W W Q A > # # # # # + +  . . . . . . . . . . . . . . . . . .",
" . .X & y d x V K K K K L I L L K K V K K K L I Z V i 4 2 p D G S N N N N m q 0 9 9 9 7 ; & + X  . . . . . . . . . . . . . . . .",
" . .X & d I P K K V K L I I I L K K K K K K L I P V u 2 2 p D G n q v b b b b M H H N b 6 * + X  . . . . . . . . . . . . . . . .",
" . .X $ a P P L K K V K P I L P V V K K K K K L L x u 4 4 4 p p w w 3 w 3 3 3 Z { | ~ k z 6 $ .  . . . . . . . . . . . . . . . .",
" . .X $ y d z z d d d d x x d d d d d d d d d d d i 4 < < < < < < < < < < < : x { } Y h h 6 % .  . . . . . . . . . . . . . . . .",
" . . .+ * ; ; ; ; ; ; ; ; ; ; ; : * : : * : * ; * * & & & $ $ $ $ $ $ $ & $ $ : z z 6 - - & +  . . . . . . . . . . . . . . . . .",
" . . . . . . . . . . . . . . . . . . . . . . . . . . . . . . . . . . . . . . . . . . . . . . . . . . . . . . . . . . . . . . . .",
" . . . . . . . . . . . . . . . . . . . . . . . . . . . . . . . . . . . . . . . . . . . . . . . . . . . . . . . . . . . . . . . .",
" . . . . . . . . . . . . . . . . . . . . . . . . . . . . . . . . . . . . . . . . . . . . . . . . . . . . . . . . . . . . . . . ."
};
