/* XPM */
static char *result[] = {
/* columns rows colors chars-per-pixel */
"64 64 174 2 ",
"   c black",
".  c #090706",
"X  c #0A0807",
"o  c #0D0B0A",
"O  c #100706",
"+  c #110907",
"@  c #110D0B",
"#  c #14130E",
"$  c #18160F",
"%  c #14180F",
"&  c #151411",
"*  c #181610",
"=  c #161B12",
"-  c #191C15",
";  c #1E1B19",
":  c #241610",
">  c #241D15",
",  c #261F1B",
"<  c #301A14",
"1  c #1C2019",
"2  c #222316",
"3  c #29231D",
"4  c #27291F",
"5  c #25231B",
"6  c #36231A",
"7  c #3D221B",
"8  c #28311F",
"9  c #292523",
"0  c #272821",
"q  c #2C2E21",
"w  c #342A26",
"e  c #342C28",
"r  c #3B2F2A",
"t  c #392B25",
"y  c #2C3124",
"u  c #323123",
"i  c #333E27",
"p  c #37352B",
"a  c #3C322C",
"s  c #3E392F",
"d  c #3E3531",
"f  c #3E3A32",
"g  c #43291F",
"h  c #5E2B1E",
"j  c #602D1F",
"k  c #6C2C1B",
"l  c #7F311B",
"z  c #452D25",
"x  c #4A2F25",
"c  c #532E24",
"v  c #453527",
"b  c #42342C",
"n  c #4B332A",
"m  c #443F2F",
"M  c #4D3B2C",
"N  c #553126",
"B  c #553629",
"V  c #593629",
"C  c #5A3B2B",
"Z  c #433732",
"A  c #443B34",
"S  c #483B35",
"D  c #443C39",
"F  c #493D38",
"G  c #612F20",
"H  c #633121",
"J  c #653B26",
"K  c #38432C",
"L  c #37442C",
"P  c #3D4132",
"I  c #46402E",
"U  c #4B452F",
"Y  c #56402E",
"T  c #5A422F",
"R  c #454136",
"E  c #4D4631",
"W  c #414A34",
"Q  c #4B433C",
"!  c #4C4A3D",
"~  c #564033",
"^  c #5D4532",
"/  c #534C36",
"(  c #5D4A35",
")  c #524A3D",
"_  c #594E38",
"`  c #465537",
"'  c #4C5035",
"]  c #475638",
"[  c #4A543B",
"{  c #4B5A3D",
"}  c #53543C",
"|  c #5B533A",
" . c #5D5A3D",
".. c #515A3D",
"X. c #794026",
"o. c #77442E",
"O. c #78452F",
"+. c #604A37",
"@. c #654C39",
"#. c #62533D",
"$. c #645B3E",
"%. c #544C45",
"&. c #4D5A41",
"*. c #545343",
"=. c #535C45",
"-. c #5B5942",
";. c #5E534F",
":. c #575E4A",
">. c #595E49",
",. c #635740",
"<. c #655C41",
"1. c #6D5D45",
"2. c #665A55",
"3. c #536144",
"4. c #5E6644",
"5. c #5E6A46",
"6. c #5C644D",
"7. c #5D6B4D",
"8. c #5E734B",
"9. c #5D6950",
"0. c #666043",
"q. c #696144",
"w. c #616D47",
"e. c #66644A",
"r. c #6A664B",
"t. c #636C4B",
"y. c #6D6A4E",
"u. c #716B4C",
"i. c #62744D",
"p. c #646D53",
"a. c #6B6F52",
"s. c #647451",
"d. c #6C7355",
"f. c #667A53",
"g. c #697B56",
"h. c #677558",
"j. c #6F7658",
"k. c #6D7D5C",
"l. c #707657",
"z. c #737D57",
"x. c #707D5D",
"c. c #707A60",
"v. c #82432A",
"b. c #895E41",
"n. c #8B6243",
"m. c #8B7959",
"M. c #927655",
"N. c #6B824C",
"B. c #6E815D",
"V. c #748653",
"C. c #71815E",
"Z. c #738362",
"A. c #788765",
"S. c #778A60",
"D. c #7A8A65",
"F. c #7D8C69",
"G. c #7D9267",
"H. c #8E825D",
"J. c #81985D",
"K. c #878160",
"L. c #848D69",
"P. c #878D69",
"I. c #938B67",
"U. c #948F69",
"Y. c #83916C",
"T. c #88906D",
"R. c #839C60",
"E. c #94906A",
"W. c #899073",
"Q. c #8E9A73",
"!. c #95AC6F",
"~. c #A1AB87",
"^. c #A9B689",
"/. c None",
/* pixels */
"/./././././././././././././././././././././././././././././././././././././././././././././././././././././././././././././././.",
"/./././././././././././././././././././././././././././././././././././././././././././././././././././././././././././././././.",
"/./././././././././././././././././././././././././././././././././././././././././././././././././././././././././././././././.",
"/./././././././././././././././././././././././././././././././././././././././././././././././././././././././././././././././.",
"/./././././././././././././././././././././././././././././././././././././././././././././././././././././././././././././././.",
"/./././././././././././././././././././././././././././././././././././././././././././././././././././././././././././././././.",
"/./././././././././././././././././././././././././././././././././././././././././././././././././././././././././././././././.",
"/./././././././././././././././././././././././././././././././././././././././././././././././././././././././././././././././.",
"/./././././././././././././././././././././././././././././././././././././././././././././././././././././././././././././././.",
"/./././././././././././././././././././././././././././././././././././././././././././././././././././././././././././././././.",
"/./././././././././././././././././././././././././..                   /./././././././././././././././././././././././././././.",
"/./././././././././././././././././././././././././.@ @ @ @ O O @ @ @ + /./././././././././././././././././././././././././././.",
"/./././././././././././././././././././././././.  @ 6 g g 7 7 g g 7 7 < O   /./././././././././././././././././././././././././.",
"/./././././././././././././././././././././././.@ < M ^ V N g N c h N z 2 % /./././././././././././././././././././././././././.",
"/./././././././././././././././././././././.  @ 6 U  . .^ V N g c c B Y ' L %   /./././././././././././././././././././././././.",
"/./././././././././././././././././././././.O : g +.4.5.+.V N c c N T | w...8 % /./././././././././././././././././././././././.",
"/./././././././././././././././././././.  + < z B ( 4.4.( B N c N T  .5.8.8.3.L =   /./././././././././././././././././././././.",
"/./././././././././././././././././././.  + 7 N V ( 4.4.( V N N T  .5.8.8.8.8.] =   /./././././././././././././././././././././.",
"/./././././././././././././././././././.  + < V V ( 4.4.( V B T <.t.8.8.8.8.i.] =   /./././././././././././././././././././././.",
"/./././././././././././././././././././.  + g V T | 5.e.( T +.$.s.g.i.8.8.8.8.` =   /./././././././././././././././././././././.",
"/./././././././././././././././././././.  + g ^  .5.s.t.^ +.e.h.k.k.f.s.8.8.i.` =   /./././././././././././././././././././././.",
"/./././././././././././././././././././.  $ v #.w.f.g.t.( +.d.Z.Z.k.k.g.s.i.i.` =   /./././././././././././././././././././././.",
"/./././././././././././././././././././.  % U w.f.g.B.d.+.( a.Z.C.C.C.k.g.f.i.] =   /./././././././././././././././././././././.",
"/./././././././././././././././././././.  = ] i.=.&.=.-._ #.r.j.x.g.6.=.&.3.8.] =   /./././././././././././././././././././././.",
"/./././././././././././././././././././.  - { 3.y % & y =.y.#.<.j.9.y & % y 3.{ -   /./././././././././././././././././././././.",
"/./././././././././././././././././././.  - &.7.P 4 1 i 7.d.+.+.h.9.L 2 4 P 7.&.-   /./././././././././././././././././././././.",
"/./././././././././././././././././././.  - { C.W.T.V.N.B.a.+.( a.B.N.V.T.W.C.{ =   /./././././././././././././././././././././.",
"/./././././././././././././././././././.  - &.F.~.^.!.J.A.d.,.,.e.z.J.!.^.~.D.&.-   /./././././././././././././././././././././.",
"/./././././././././././././././././././.  - =.A.Y.Y.G.A.B.k.d.e.#.<.z.G.Y.Y.A.=.-   /./././././././././././././././././././././.",
"/./././././././././././././././././././.  1 3.C.B.C.x.x.C.Z.C.h.,.#.e.d.x.C.B.=.1   /./././././././././././././././././././././.",
"/./././././././././././././././././././.  = ] g.B.k.C.x.C.C.x.k.d.e.| ,.h.C.g.&.=   /./././././././././././././././././././././.",
"/./././././././././././././././././././.  = W 7.g.Z.A.D.Z.Z.A.F.Z.j.1.1.y.s.8.P &   /./././././././././././././././././././././.",
"/./././././././././././././././././././.  @ p } w.C.Q.Q.A.A.Q.Q.D.A.W.K.q._ ) p &   /./././././././././././././././././././././.",
"/./././././././././././././././././././.  @ e Q ..i.P.Q.Y.L.I.I.L.L.E.m.@.B S e @   /./././././././././././././././././././././.",
"/./././././././././././././././././././.  @ e D A ' i.S.Q.I.b.n.I.U.n.l B Z S e @   /./././././././././././././././././././././.",
"/./././././././././././././././././././.  @ e Z a A } i.Y.H.v.v.M.M.O.N z d Z e #   /./././././././././././././././././././././.",
"/./././././././././././././././././././.  # e Z Z a A ! i.u.X.l v.O.V z r d Z e @   /./././././././././././././././././././././.",
"/./././././././././././././././././././.  @ w Z a r a m { | J k k N z r a d Z e #   /./././././././././././././././././././././.",
"/./././././././././././././././././././.  + 7 n r a r p f A n x c z r a r d S e @   /./././././././././././././././././././././.",
"/./././././././././././././././././././.  @ n ~ b r a a r r n n r Z R A a d Z e @   /./././././././././././././././././././././.",
"/./././././././././././././././././././.  - =.e.F t a a p z j j z R 6.:.A e Z e o   /./././././././././././././././././././././.",
"/./././././././././././././././././././.o 9 :.6.p , t r r z h G B *.h.p.R r A w @   /./././././././././././././././././././././.",
"/./././././././././././././././././.  o 9 d %.f ; # 9 e e t t M *.h.k.9.! Z Z e &   /./././././././././././././././././././././.",
"/./././././././././././././././././.  # t F F 9 o X , t t w w A 9.g.p.:.Q D D e o   /./././././././././././././././././././././.",
"/./././././././././././././././././.  @ e D S e @ X , w w w w R 9.s.! A A A S e o   /./././././././././././././././././././././.",
"/./././././././././././././././././.  o e S S e o X , t 6 w 9 s =.=.p t d A A e @   /./././././././././././././././././././././.",
"/./././././././././././././././././.  @ e D Z w o X 2 w t w w u d s t t Z A S w #   /./././././././././././././././././././././.",
"/./././././././././././././././././.  & f %.*.D 5 > u b s a v s a a a m ! %.%.f &   /./././././././././././././././././././././.",
"/./././././././././././././././././.  - =.c.c.p.} / / _ _ _ _ _ _ _ _ -.p.c.c.=.;   /./././././././././././././././././././././.",
"/./././././././././././././././././.  - &.9.9.6.<.<.$.$.q.$.0.$.$.$.$.r.d.j.p.&.-   /./././././././././././././././././././././.",
"/./././././././././././././././././././.- ; 1 y _ q.<.$.$.$. .$.$.$.<.0.e.} u - /./././././././././././././././././././././././.",
"/./././././././././././././././././././.      $ U $.q.$.$._ U U $.q.q.1.q.E $   /./././././././././././././././././././././././.",
"/./././././././././././././././././././././.  & U 0.$.$.$.U 2 3 } u.u.y.u.) %   /./././././././././././././././././././././././.",
"/./././././././././././././././././././././.  * U 0.$.| Y u o $ m -.r.y.y.) =   /./././././././././././././././././././././././.",
"/./././././././././././././././././././././.  * U $.q./ 2 # /./.* q ..i.f.` -   /./././././././././././././././././././././././.",
"/./././././././././././././././././././././.  & I $.$.m %   /./.  = ] f.f.] -   /./././././././././././././././././././././././.",
"/./././././././././././././././././././././.  & a Q %.p #   /./.  - &.B.B.3.-   /./././././././././././././././././././././././.",
"/./././././././././././././././././././././.  & d %.%.a &   /./.  - W =.3.P -   /./././././././././././././././././././././././.",
"/./././././././././././././././././././././.  & Q 2.2.%.&   /./././.- - ; - /./././././././././././././././././././././././././.",
"/./././././././././././././././././././././.  & D ;.;.D &   /./././.        /./././././././././././././././././././././././././.",
"/./././././././././././././././././././././.  X ; 9 9 ; X   /./././.        /./././././././././././././././././././././././././.",
"/./././././././././././././././././././././././././././././././././././././././././././././././././././././././././././././././.",
"/./././././././././././././././././././././././././././././././././././././././././././././././././././././././././././././././.",
"/./././././././././././././././././././././././././././././././././././././././././././././././././././././././././././././././."
};
