/* XPM */
static char *_21710911260[] = {
/* columns rows colors chars-per-pixel */
"64 64 176 2 ",
"   c None",
".  c #000000",
"X  c #090706",
"o  c #0A0807",
"O  c #0E0C0B",
"+  c #100706",
"@  c #110907",
"#  c #120C0A",
"$  c #14130E",
"%  c #18160F",
"&  c #14180F",
"*  c #151411",
"=  c #191711",
"-  c #161B12",
";  c #1A1C15",
":  c #1E1B19",
">  c #221511",
",  c #241D15",
"<  c #241C19",
"1  c #301A14",
"2  c #1E221A",
"3  c #222316",
"4  c #2A241C",
"5  c #27291F",
"6  c #36231A",
"7  c #3D221B",
"8  c #28311F",
"9  c #2B2421",
"0  c #282921",
"q  c #362722",
"w  c #332A26",
"e  c #342C28",
"r  c #3A2F2B",
"t  c #3B2C27",
"y  c #2B3124",
"u  c #343020",
"i  c #383423",
"p  c #333E27",
"a  c #36332A",
"s  c #3B322C",
"d  c #3E3632",
"f  c #3E3A31",
"g  c #43291F",
"h  c #42241D",
"j  c #5D2B1D",
"k  c #602F1F",
"l  c #6C2C1B",
"z  c #7F311B",
"x  c #442C24",
"c  c #4B2D24",
"v  c #432F29",
"b  c #532E24",
"n  c #493225",
"m  c #44332B",
"M  c #4B342A",
"N  c #443F2F",
"B  c #4C3B2B",
"V  c #453626",
"C  c #553126",
"Z  c #553629",
"A  c #593629",
"S  c #5A3B2B",
"D  c #433631",
"F  c #453B34",
"G  c #483A35",
"H  c #443C39",
"J  c #5A3E30",
"K  c #543E32",
"L  c #693723",
"P  c #663B26",
"I  c #38432C",
"U  c #37442C",
"Y  c #3D4132",
"T  c #46402E",
"R  c #4B452F",
"E  c #56402E",
"W  c #5A422F",
"Q  c #464036",
"!  c #4D4631",
"~  c #424B32",
"^  c #4F4D37",
"/  c #4B443C",
"(  c #4D4B3D",
")  c #434C3B",
"_  c #5D4432",
"`  c #524B34",
"'  c #5D4A35",
"]  c #544C3B",
"[  c #5B4B38",
"{  c #465537",
"}  c #4C5035",
"|  c #475638",
" . c #4B543B",
".. c #4C5A3D",
"X. c #55503C",
"o. c #5C543A",
"O. c #51583F",
"+. c #5D5A3D",
"@. c #794026",
"#. c #77442E",
"$. c #78452F",
"%. c #604A37",
"&. c #654C39",
"*. c #665036",
"=. c #62533D",
"-. c #635B3E",
";. c #544D45",
":. c #4F5744",
">. c #4D5A40",
",. c #545444",
"<. c #5B5740",
"1. c #535C45",
"2. c #5E534F",
"3. c #5A5D4B",
"4. c #625540",
"5. c #655C41",
"6. c #6B5D43",
"7. c #665A55",
"8. c #536144",
"9. c #5E6644",
"0. c #5E6A46",
"q. c #5C634C",
"w. c #5D6B4C",
"e. c #5E734B",
"r. c #5D6951",
"t. c #696144",
"y. c #616D47",
"u. c #66644B",
"i. c #69654C",
"p. c #636C4B",
"a. c #6B694C",
"s. c #726A4D",
"d. c #62744D",
"f. c #6B6E53",
"g. c #666B53",
"h. c #647551",
"j. c #6C7355",
"k. c #667954",
"l. c #697B56",
"z. c #6F775B",
"x. c #6D7D5C",
"c. c #707657",
"v. c #737D57",
"b. c #707D5D",
"n. c #727B61",
"m. c #82432A",
"M. c #895E41",
"N. c #8B6243",
"B. c #8A7959",
"V. c #927655",
"C. c #6B824C",
"Z. c #6F815D",
"A. c #748653",
"S. c #71815E",
"D. c #738361",
"F. c #788765",
"G. c #778A60",
"H. c #7A8A65",
"J. c #7D8C69",
"K. c #7D9267",
"L. c #8E825D",
"P. c #81985D",
"I. c #878160",
"U. c #848D69",
"Y. c #878D69",
"T. c #938B67",
"R. c #948F69",
"E. c #83916C",
"W. c #88906D",
"Q. c #839C60",
"!. c #94906A",
"~. c #899073",
"^. c #8E9A73",
"/. c #95AC6F",
"(. c #A1AB87",
"). c #A9B689",
/* pixels */
"                                                                                                                                ",
"                                                                                                                                ",
"                                                                                                                                ",
"                                                                                                                                ",
"                                                                                                                                ",
"                                                                                                                                ",
"                                                                                                                                ",
"                                                                                                                                ",
"                                                                                                                                ",
"                                                                                                                                ",
"                                                                                                                                ",
"                                                                                                                                ",
"                                                    . . . . . . . . . .                                                         ",
"                                                    # # # @ # # # # @ #                                                         ",
"                                                . # 7 g 7 7 7 6 h h 1 1 @ .                                                     ",
"                                                # , B ' S C b b b b A g 1 -                                                     ",
"                                            . # 6 B +.+._ A C b g C A E | U & .                                                 ",
"                                            + > n %.9.9.' A b b C A W +.y...8 &                                                 ",
"                                        . + 1 g Z ' 9.9.' A b b C W +.0.d.0.8.U - .                                             ",
"                                        . + h C A ' 9.9.' A C Z W =.0.e.e.e.d.| - .                                             ",
"                                        . # h b A ' 9.9.' S Z _ -.p.d.e.e.d.d.| - .                                             ",
"                                        . # h A _ o.0.9.' S _ 5.h.l.d.e.e.e.e.| - .                                             ",
"                                        . # h W +.0.d.u.' ' u.j.x.x.k.h.e.e.d.{ - .                                             ",
"                                        . $ V =.w.k.l.a.' %.j.D.D.x.x.l.h.d.d.{ - .                                             ",
"                                        . - ~ p.h.x.Z.f.' %.f.D.D.x.S.x.l.k.h.{ - .                                             ",
"                                        . - | e.8...1.1.o.=.i.j.x.l.w.:.>.8.w.| - .                                             ",
"                                        . ; ..8.y $ & y 3.a.4.5.z.r.y - & y 8.>.- .                                             ",
"                                        . ; >.w.Y 5 3 p r.f.%.%.j.w.p 3 5 Y w.>.2 .                                             ",
"                                        . ; ..D.~.W.A.C.Z.j.' ' j.Z.C.A.E.~.D...; .                                             ",
"                                        . ; >.J.(.)./.Q.S.j.5.=.u.v.P./.).(.J.>.; .                                             ",
"                                        . ; 1.D.E.E.K.G.S.x.j.i.=.-.b.K.E.E.F.1.; .                                             ",
"                                        . 2 8.Z.Z.x.x.b.S.D.D.j.=.=.u.j.b.S.S.>.; .                                             ",
"                                        . - | l.Z.b.b.x.S.S.S.l.j.i.=.4.j.Z.l...; .                                             ",
"                                        . & ~ w.k.S.H.H.D.D.H.H.D.z.6.6.a.f.e.Y * .                                             ",
"                                        . $ s ,.w.Z.^.^.F.F.^.^.H.D.W.L.6.[ ] a * .                                             ",
"                                        . O e Q O.h.U.^.E.U.T.R.U.U.R.B.&.M F w # .                                             ",
"                                        . # w G F  .d.H.^.R.m.V.R.R.N.#.Z D D e O .                                             ",
"                                        o > r D s D X.d.W.L.m.m.V.V.#.k M d F e * .                                             ",
"                                    . + 1 h c M v s N  .h.s.@.z m.$.A v D H F e O .                                             ",
"                                    . $ m J C c v s a D O.o.P l l k v s D G G e # .                                             ",
"                                    . ; ,.i.J c v s s s F F M c c x r d D G H e # .                                             ",
"                                    . ; 1.f.4.K m r s r r a r a r D G Q F F H e # .                                             ",
"                                    . * f 3.f.7.F t r s s s s s r F q.u./ F G e * .                                             ",
"                                    . # w / 3.>.a 4 w r r r r s F :.q.q.;.d r 4 O .                                             ",
"                                    . O e d 0 ; O * 4 r e a w f 1.q.( F F a : O                                                 ",
"                                    O ; r e O . . o < w w 6 g B ,.1.f a D w O .                                                 ",
"                                . O 9 d H w # . . o < q 4 7 j k V f d m F w O .                                                 ",
"                                . # w G F w O X # , 0 i a M L L n s / ;.;.f * .                                                 ",
"                                . $ w H H w # # i ^ ` [ X.' *.*.[ +.g.z.n.1.; .                                                 ",
"                                . * d ;.,.f # % ! t.t.5.5.-.5.-.-.i.c.D.n.8.; .                                                 ",
"                                . ; 1.n.n.1.; $ R t.-.5.-.-.=.+.-.t.t.a.a.] = .                                                 ",
"                                . ;  .r.r.) * * R -.t.-.-.o.R R +.t.t.t.t.! = .                                                 ",
"                                    ; 2 2 - X * R -.-.-.-.R 3 4 X.s.s.s.s.] = .                                                 ",
"                                    . . . . . = R t.-.o.! u # & N X.X.] X.N = .                                                 ",
"                                            . = R t.5.` 4 $     = ; ; ; ; =                                                     ",
"                                            . * T -.-.N $ .     . . . . . .                                                     ",
"                                            . * s / ;.s $ .                                                                     ",
"                                            . * d ;.;.s $ .                                                                     ",
"                                            . * / 7.7.;.* .                                                                     ",
"                                            . * H 2.2.H * .                                                                     ",
"                                            . o : 9 9 : o .                                                                     ",
"                                                                                                                                ",
"                                                                                                                                ",
"                                                                                                                                "
};
