/* XPM */
static char *result[] = {
/* columns rows colors chars-per-pixel */
"64 64 174 2 ",
"   c #000000",
".  c #080606",
"X  c #0C0B09",
"o  c #100706",
"O  c #110907",
"+  c #120C0A",
"@  c #13130E",
"#  c #14180F",
"$  c #151411",
"%  c #161B11",
"&  c #1A1D15",
"*  c #1E1B19",
"=  c #241610",
"-  c #241C16",
";  c #231E19",
":  c #301A14",
">  c #1C2019",
",  c #222316",
"<  c #29231D",
"1  c #27291F",
"2  c #36231A",
"3  c #3D221B",
"4  c #28311F",
"5  c #2B2522",
"6  c #272821",
"7  c #2E2B22",
"8  c #362723",
"9  c #332A26",
"0  c #342C28",
"q  c #3A2E2A",
"w  c #2C3124",
"e  c #343020",
"r  c #393127",
"t  c #333E27",
"y  c #36342A",
"u  c #3C332C",
"i  c #3E3631",
"p  c #3E3A32",
"a  c #43291F",
"s  c #5D291C",
"d  c #602F1F",
"f  c #6C2B1A",
"g  c #7F311B",
"h  c #442C24",
"j  c #4B2D24",
"k  c #422F29",
"l  c #532E24",
"z  c #453527",
"x  c #4A3326",
"c  c #44352E",
"v  c #4B352A",
"b  c #443F2F",
"n  c #4C3B2B",
"m  c #553126",
"M  c #553629",
"N  c #593629",
"B  c #5A3B2B",
"V  c #423632",
"C  c #443B34",
"Z  c #483C35",
"A  c #443C39",
"S  c #493D38",
"D  c #503E32",
"F  c #693723",
"G  c #643624",
"H  c #37442C",
"J  c #38442C",
"K  c #3D4132",
"L  c #46402E",
"P  c #4B452F",
"I  c #56402E",
"U  c #5A422F",
"Y  c #4B4233",
"T  c #424B32",
"R  c #4F4832",
"E  c #4A413E",
"W  c #4C4A3D",
"Q  c #444136",
"!  c #5D4532",
"~  c #544D36",
"^  c #5D4B35",
"/  c #544C3B",
"(  c #584636",
")  c #465537",
"_  c #475638",
"`  c #4B543C",
"'  c #4B5A3C",
"]  c #4C5035",
"[  c #51543C",
"{  c #5C543A",
"}  c #5D5A3D",
"|  c #525C3E",
" . c #794026",
".. c #77442E",
"X. c #78452E",
"o. c #604A37",
"O. c #654C39",
"+. c #665036",
"@. c #62533D",
"#. c #645C3E",
"$. c #4E4F40",
"%. c #544D45",
"&. c #4D5A40",
"*. c #545242",
"=. c #5A5542",
"-. c #535B44",
";. c #5E5D47",
":. c #5E534F",
">. c #575E4A",
",. c #595F49",
"<. c #635740",
"1. c #645C41",
"2. c #6B5D44",
"3. c #665A55",
"4. c #536144",
"5. c #5E6644",
"6. c #5E6A46",
"7. c #5C634C",
"8. c #5D6B4C",
"9. c #5E734B",
"0. c #5C6850",
"q. c #676347",
"w. c #6A6043",
"e. c #616D47",
"r. c #66644B",
"t. c #6A664B",
"y. c #636C4B",
"u. c #6B694E",
"i. c #716B4D",
"p. c #62744D",
"a. c #68764F",
"s. c #6B6F53",
"d. c #647451",
"f. c #6C7355",
"g. c #667954",
"h. c #697B56",
"j. c #6F775B",
"k. c #6D7D5C",
"l. c #727053",
"z. c #737D57",
"x. c #717B5E",
"c. c #707A60",
"v. c #82432A",
"b. c #895E41",
"n. c #8B6243",
"m. c #8B7959",
"M. c #927655",
"N. c #6B824C",
"B. c #6F815D",
"V. c #748653",
"C. c #71815E",
"Z. c #738362",
"A. c #788765",
"S. c #778A60",
"D. c #7A8A65",
"F. c #7D8C69",
"G. c #7D9267",
"H. c #8E825D",
"J. c #81985D",
"K. c #878160",
"L. c #848D69",
"P. c #878D69",
"I. c #938B67",
"U. c #948F69",
"Y. c #83916C",
"T. c #88906D",
"R. c #839C60",
"E. c #94906A",
"W. c #899073",
"Q. c #8E9A73",
"!. c #95AC6F",
"~. c #A1AB87",
"^. c #A9B689",
"/. c None",
/* pixels */
"/./././././././././././././././././././././././././././././././././././././././././././././././././././././././././././././././.",
"/./././././././././././././././././././././././././././././././././././././././././././././././././././././././././././././././.",
"/./././././././././././././././././././././././././././././././././././././././././././././././././././././././././././././././.",
"/./././././././././././././././././././././././././././././././././././././././././././././././././././././././././././././././.",
"/./././././././././././././././././././././././././././././././././././././././././././././././././././././././././././././././.",
"/./././././././././././././././././././././././././././././././././././././././././././././././././././././././././././././././.",
"/./././././././././././././././././././././././././././././././././././././././././././././././././././././././././././././././.",
"/./././././././././././././././././././././././././././././././././././././././././././././././././././././././././././././././.",
"/./././././././././././././././././././././././././././././././././././././././././././././././././././././././././././././././.",
"/./././././././././././././././././././././././././././././././././././././././././././././././././././././././././././././././.",
"/./././././././././././././././././././././././././././././././././././././././././././././././././././././././././././././././.",
"/./././././././././././././././././././././././././././././././././././././././././././././././././././././././././././././././.",
"/./././././././././././././././././././././././././././././././././././././././././././././././././././././././././././././././.",
"/./././././././././././././././././././././././././././././././././././././././././././././././././././././././././././././././.",
"/./././././././././././././././././././././././././.              .     /./././././././././././././././././././././././././././.",
"/./././././././././././././././././././././././././.+ + + O + O + + O O /./././././././././././././././././././././././././././.",
"/./././././././././././././././././././././././.  + 2 a a 3 2 3 3 3 3 : O   /./././././././././././././././././././././././././.",
"/./././././././././././././././././././././././.O - P ! B s m j l m m a , # /./././././././././././././././././././././././././.",
"/./././././././././././././././././././././.  + 2 n } } U M m s l l N I ] H #   /./././././././././././././././././././././././.",
"/./././././././././././././././././././././.o = x ^ 5.5.^ B m j l M U { 9.| 4 # /./././././././././././././././././././././././.",
"/./././././././././././././././././././.  O : a M ^ 5.5.^ N l l M U } 5.p.6.' H %   /./././././././././././././././././././././.",
"/./././././././././././././././././././.  + a m N ^ 5.5.^ N m M U @.6.9.9.9.p._ %   /./././././././././././././././././././././.",
"/./././././././././././././././././././.  O : m N ^ 5.5.^ N N ( 1.y.p.9.9.p.p._ %   /./././././././././././././././././././././.",
"/./././././././././././././././././././.  O a N ! { 6.6.^ B ^ <.d.h.p.9.9.9.p._ %   /./././././././././././././././././././././.",
"/./././././././././././././././././././.  + a U } e.p.y.^ o.2.f.k.k.g.d.9.9.p._ %   /./././././././././././././././././././././.",
"/./././././././././././././././././././.  @ x @.e.g.h.y.! o.s.Z.Z.k.k.h.d.p.9.) %   /./././././././././././././././././././././.",
"/./././././././././././././././././././.  # T e.f.h.Z.s.o.o.s.Z.Z.C.C.C.h.g.d._ %   /./././././././././././././././././././././.",
"/./././././././././././././././././././.  & _ 9.4.' -.-.{ @.t.j.k.f.0.&.&.4.9._ &   /./././././././././././././././././././././.",
"/./././././././././././././././././././.  & ' 4.w @ # w -.u.@.1.j.8.w % @ w 4.' &   /./././././././././././././././././././././.",
"/./././././././././././././././././././.  & -.8.K 1 > t 8.l.o.o.f.0.t > 6 K 8.&.&   /./././././././././././././././././././././.",
"/./././././././././././././././././././.  & ' x.W.Y.V.N.B.f.o.o.s.B.N.V.Y.W.C.&.&   /./././././././././././././././././././././.",
"/./././././././././././././././././././.  & -.F.~.^.!.R.C.h.#.@.r.z.R.!.^.~.F.&.&   /./././././././././././././././././././././.",
"/./././././././././././././././././././.  & &.A.F.Y.G.S.Z.c.f.t.@.#.z.G.Y.Y.A.-.&   /./././././././././././././././././././././.",
"/./././././././././././././././././././.  & 4.B.Z.B.c.C.C.C.C.f.@.@.r.f.k.Z.Z.&.&   /./././././././././././././././././././././.",
"/./././././././././././././././././././.  & ' h.B.C.C.c.C.C.C.k.f.r.@.@.f.B.h.' &   /./././././././././././././././././././././.",
"/./././././././././././././././././././.  % T 8.h.C.A.A.Z.C.D.D.A.j.w.2.u.f.9.K $   /./././././././././././././././././././././.",
"/./././././././././././././././././././.  @ r *.8.C.T.Q.A.A.Q.Q.A.A.T.P.2.^ / y @   /./././././././././././././././././././././.",
"/./././././././././././././././././././.  + 8 Y ' d.T.Q.Y.P.I.I.L.P.U.m.O.n C 0 @   /./././././././././././././././././././././.",
"/./././././././././././././././././././.  + 3 v Z ` a.V.Q.I.b.b.I.U.n.X.N k C 9 X   /./././././././././././././././././././././.",
"/./././././././././././././././././././.  O 3 j k V ' f.T.H.X.v.M.M.g l k i C 0 $   /./././././././././././././././././././././.",
"/./././././././././././././././././././.  + : l z i p ` d.i. .g v...N k q i C 0 +   /./././././././././././././././././././././.",
"/./././././././././././././././././././.  @ x ( c r q V ' { G f f G D S u i V 0 +   /./././././././././././././././././././././.",
"/./././././././././././././././././././.  & *.r.S 9 q c b b v j j Z 1.>.C q V 0 @   /./././././././././././././././././././././.",
"/./././././././././././././././././././.X 5 >.0.u < 9 q q q q u C $.0.7.C q V 0 +   /./././././././././././././././././././././.",
"/./././././././././././././././././.  + 5 i W C * + 5 9 9 9 9 p -.7.W C b V C 9 +   /./././././././././././././././././././././.",
"/./././././././././././././././././.  + 0 S S 7 X . ; 9 8 8 a n -.*.u 9 i S S 9 +   /./././././././././././././././././././././.",
"/./././././././././././././././././.  + 0 S S 9 X . ; 2 5 3 s d v y 5 9 u S C 0 +   /./././././././././././././././././././././.",
"/./././././././././././././././././.  X 9 S C q , & 8 y y x F F x r r u V C S 0 @   /./././././././././././././././././././././.",
"/./././././././././././././././././.  @ 9 A S C Y R ~ [ ~ { +.+.^ ~ ~ ~ C A A 0 @   /./././././././././././././././././././././.",
"/./././././././././././././././././.  $ i %.%.*.1.1.#.#.#.#.#.#.#.2.#.} %.%.$.p $   /./././././././././././././././././././././.",
"/./././././././././././././././././.  & *.k.c.f.q.#.#.2.#.#.@.} #.#.#.q.s.c.c.-.&   /./././././././././././././././././././././.",
"/./././././././././././././././././.  & $.0.0.7.q.#.#.#.#.{ P P } w.2.t.x.c.d.$.&   /./././././././././././././././././././././.",
"/./././././././././././././././././././.& > > e ~ #.#.#.#.P , < { i.u.i.l.1.y & /./././././././././././././././././././././././.",
"/./././././././././././././././././././.      @ P w.#.{ R 2 @ @ C =.t.f.l.` $   /./././././././././././././././././././././././.",
"/./././././././././././././././././././././.  $ P q.#.~ 1 @ /./.@ w | a.f._ %   /./././././././././././././././././././././././.",
"/./././././././././././././././././././././.  $ L #.#.b @   /./.  @ H _ _ J %   /./././././././././././././././././././././././.",
"/./././././././././././././././././././././.  $ u %.W i @   /./././.% % % % /./././././././././././././././././././././././././.",
"/./././././././././././././././././././././.  $ i %.%.i $   /./././.        /./././././././././././././././././././././././././.",
"/./././././././././././././././././././././.  $ S 3.3.E $   /./././././././././././././././././././././././././././././././././.",
"/./././././././././././././././././././././.  $ A :.:.S $   /./././././././././././././././././././././././././././././././././.",
"/./././././././././././././././././././././.  X * 5 5 * .   /./././././././././././././././././././././././././././././././././.",
"/./././././././././././././././././././././././././././././././././././././././././././././././././././././././././././././././.",
"/./././././././././././././././././././././././././././././././././././././././././././././././././././././././././././././././.",
"/./././././././././././././././././././././././././././././././././././././././././././././././././././././././././././././././."
};
