/* XPM */
static char *_51710911272[] = {
/* columns rows colors chars-per-pixel */
"64 64 175 2 ",
"   c None",
".  c black",
"X  c #090606",
"o  c #0E0C0A",
"O  c #100706",
"+  c #110907",
"@  c #120C0A",
"#  c #1A0B07",
"$  c #14130E",
"%  c #18160F",
"&  c #14180F",
"*  c #151511",
"=  c #191613",
"-  c #161B12",
";  c #191D15",
":  c #1C1F18",
">  c #241610",
",  c #241D15",
"<  c #241C1A",
"1  c #301A14",
"2  c #1C2019",
"3  c #222316",
"4  c #23251C",
"5  c #29261A",
"6  c #27291F",
"7  c #322117",
"8  c #36231A",
"9  c #3D221A",
"0  c #28311F",
"q  c #2B2421",
"w  c #2F2C24",
"e  c #332A25",
"r  c #352C28",
"t  c #3A2F2A",
"y  c #2C3124",
"u  c #2E3428",
"i  c #323123",
"p  c #333E27",
"a  c #37352B",
"s  c #3C322C",
"d  c #3D382E",
"f  c #3E3A33",
"g  c #3C3633",
"h  c #43291F",
"j  c #5C2A1D",
"k  c #6C2C1B",
"l  c #62321F",
"z  c #7F311B",
"x  c #452E26",
"c  c #4C2E25",
"v  c #532E24",
"b  c #453527",
"n  c #41332C",
"m  c #4C342A",
"M  c #4C3C2A",
"N  c #553126",
"B  c #553629",
"V  c #593629",
"C  c #5A3B2B",
"Z  c #423631",
"A  c #443B34",
"S  c #483B35",
"D  c #493D38",
"F  c #533D36",
"G  c #663B26",
"H  c #733F30",
"J  c #38442C",
"K  c #3D4132",
"L  c #4B452F",
"P  c #56402E",
"I  c #5A422F",
"U  c #454036",
"Y  c #4D4731",
"T  c #424B32",
"R  c #4C4A34",
"E  c #4B453B",
"W  c #4E4F3E",
"Q  c #454C39",
"!  c #554033",
"~  c #5D4532",
"^  c #534C35",
"/  c #5D4A35",
"(  c #5F473F",
")  c #524B39",
"_  c #5A4D39",
"`  c #465537",
"'  c #4C5035",
"]  c #475638",
"[  c #4C543C",
"{  c #4C5A3D",
"}  c #55543C",
"|  c #5B533A",
" . c #51583F",
".. c #5D5A3D",
"X. c #794026",
"o. c #75432D",
"O. c #78452F",
"+. c #604A37",
"@. c #654C39",
"#. c #62533D",
"$. c #645B3E",
"%. c #524B43",
"&. c #4C5642",
"*. c #4D5A40",
"=. c #545343",
"-. c #535C45",
";. c #5D5941",
":. c #5A5F49",
">. c #635740",
",. c #655D41",
"<. c #6D5B43",
"1. c #71574F",
"2. c #725D45",
"3. c #6A5A54",
"4. c #536144",
"5. c #5E6644",
"6. c #5E6A46",
"7. c #566249",
"8. c #5A644C",
"9. c #5D6B4D",
"0. c #5E734B",
"q. c #5E6950",
"w. c #666043",
"e. c #696245",
"r. c #616D47",
"t. c #66644B",
"y. c #69654A",
"u. c #636C4B",
"i. c #6D694E",
"p. c #716B4C",
"a. c #62744D",
"s. c #626752",
"d. c #656D53",
"f. c #6A6F52",
"g. c #647352",
"h. c #6C7355",
"j. c #667954",
"k. c #697B56",
"l. c #6B765A",
"z. c #6D7D5C",
"x. c #707657",
"c. c #737D57",
"v. c #707D5D",
"b. c #707A60",
"n. c #82432A",
"m. c #895E41",
"M. c #8B6243",
"N. c #8B7959",
"B. c #927655",
"V. c #6B824C",
"C. c #6F815D",
"Z. c #748653",
"A. c #71815E",
"S. c #738362",
"D. c #788765",
"F. c #778A60",
"G. c #7A8A65",
"H. c #7C8B69",
"J. c #7D9267",
"K. c #8E825D",
"L. c #81985D",
"P. c #878160",
"I. c #848D69",
"U. c #878D69",
"Y. c #938B67",
"T. c #948F69",
"R. c #83916C",
"E. c #88906D",
"W. c #839C60",
"Q. c #94906A",
"!. c #899073",
"~. c #8E9A73",
"^. c #95AC6F",
"/. c #A1AB87",
"(. c #A9B689",
/* pixels */
"                                                                                                                                ",
"                                                                                                                                ",
"                                                                                                                                ",
"                                                                                                                                ",
"                                                                                                                                ",
"                                                                                                                                ",
"                                                                                                                                ",
"                                                                                                                                ",
"                                                                                                                                ",
"                                                                                                                                ",
"                                                            . . . . . . . . . .                                                 ",
"                                                            $ # # @ # + @ @ @ O                                                 ",
"                                                        . @ 8 h 9 9 9 9 9 9 9 1 O .                                             ",
"                                                        + , M ~ C N v v v v B h 3 &                                             ",
"                                                    . @ 8 L ....~ B v v v v N P ^ J & .                                         ",
"                                                    O > c / 6.5._ B N v v B I #.r.{ 0 &                                         ",
"                                                . + 1 h N +.5.5./ V v v B ! ..6.0.0.{ J * .                                     ",
"                                                . + h N V / 5.5./ V v B I ..6.0.0.0.a.{ - .                                     ",
"                                                . + 9 N V / 5.5._ V V ~ ,.u.0.0.0.0.a.] - .                                     ",
"                                                . + 9 V I #.6.5./ C / >.g.j.g.0.0.0.0.] - .                                     ",
"                                                . # h I ..6.a.t./ +.e.h.z.z.j.g.0.a.a.] - .                                     ",
"                                                . % b ..r.j.k.u./ +.h.S.S.C.l.k.a.a.0.] - .                                     ",
"                                                . - T r.j.k.C.h./ +.f.S.S.A.A.C.V.j.a.] - .                                     ",
"                                                . - ] 9.4.*.*.-.| #.t.l.z.l.8.4.&.4.0.] - .                                     ",
"                                                . ; { 4.y & * y :.y.#.,.x.9.u * $ y 4.{ - .                                     ",
"                                                . ; *.9.K q 2 J q.h.+.+.f.q.J 3 y K 8.*.2 .                                     ",
"                                                . ; *.S.!.E.Z.V.A.h.+.+.f.A.V.Z.E.!.S.&.- .                                     ",
"                                                . ; { H./.(.^.W.A.h.$.#.y.V.J.^.(./.H.*.- .                                     ",
"                                                . ; -.F.R.R.J.F.S.z.l.y.#.$.c.J.R.J.D.-.; .                                     ",
"                                                . ; 4.C.A.z.z.z.A.z.S.h.$.#.e.h.z.A.S.-.2 .                                     ",
"                                                . - { k.C.z.z.z.b.A.v.z.l.t.#.>.h.C.V.{ - .                                     ",
"                                                . * T 9.j.S.H.H.S.S.G.H.S.l.<.<.i.d.9.T * .                                     ",
"                                                . @ a  .r.Z.E.~.D.D.~.~.D.S.E.K.1./ ) s $ .                                     ",
"                                                . o e E -.g.U.~.R.I.T.T.I.I.T.N.@.m S e o .                                     ",
"                                                . @ r S A [ a.G.~.Y.n.B.T.Q.M.o.m Z A e @ .                                     ",
"                                                . @ r n n Z [ g.R.K.n.n.B.B.O.j x g A r @ .                                     ",
"                                                . @ e v n t A W j.p.X.z n.O.V x t s S r @ .                                     ",
"                                                . @ 1 c n s t A  ...G k k j x s s Z S e @ .                                     ",
"                                                . + h v n t t s Z A m x c x s t s s S r * .                                     ",
"                                                . $ x F n t s s t s t s t d U U s g A r o .                                     ",
"                                                . ; =.t.A t t t s t s t t A 8.:.A s A e o .                                     ",
"                                                . : -.s.U t t t t t t s A =.l.9.a q s a ; o                                     ",
"                                                . * g %.A s t r e e e A -.d.k.8.4 * r Z g q o .                                 ",
"                                                . o w D S d r r e e e A q.z.g.Q * o r D D r @ .                                 ",
"                                                . @ r S S n r e e e e U 6.g.W e o o r S D r * .                                 ",
"                                                . o r A S d t e e 8 e b -.-.d < X o e S D e @ .                                 ",
"                                                . @ r D S s r e e e e e d d t < X o e S A r o .                                 ",
"                                                . * f %.=.E A n d n d d s s n i < 4 A =.%.f * .                                 ",
"                                                . 2 -.b.z.d.;._ ^ | ^ ^ ^ | | ^ Y } d.b.b.&.; .                                 ",
"                                                . 2 &.d.z.x.e.,.,.$.,.$.,.,.,.,.,.,.8.q.q.[ : .                                 ",
"                                                    ; u } y.<.,.$.$.$.$.$.,.$.w.,.} i 2 : :                                     ",
"                                                    . * Y e.e.<.e.$.L L | $.$.,.,.L $ . . .                                     ",
"                                                    . = ) p.p.p.p.} 5 3 L $.$.,.,.L $ .                                         ",
"                                                    . = E y.2.#.#.L $ + i L / ,.,.Y % .                                         ",
"                                                    . * d @.H l 7 *     $ 5 ^ w.,.L % .                                         ",
"                                                    . * g %.H j # .     . & Y y.y.R = .                                         ",
"                                                    . = D 3.1.F = .     . ; [ h.l.*.; .                                         ",
"                                                    . = g %.%.A = .     . ; 7.S.S.-.; .                                         ",
"                                                        = < ; *         . 2 8.H.H.7.2 .                                         ",
"                                                        . . . .         . - &.l.z.&.; .                                         ",
"                                                        . . . .         . o 4 u u q o .                                         ",
"                                                                                                                                ",
"                                                                                                                                ",
"                                                                                                                                "
};
