/* XPM */
static char *result[] = {
/* columns rows colors chars-per-pixel */
"64 64 166 2 ",
"   c #000000",
".  c #090606",
"X  c #0E0C0B",
"o  c #100706",
"O  c #110907",
"+  c #120C0A",
"@  c #14130E",
"#  c #18160F",
"$  c #14180F",
"%  c #141611",
"&  c #191711",
"*  c #161B12",
"=  c #1A1B15",
"-  c #1C1F18",
";  c #241610",
":  c #231C15",
">  c #231B18",
",  c #301A14",
"<  c #1E221A",
"1  c #222316",
"2  c #22261D",
"3  c #29241B",
"4  c #27291F",
"5  c #36231A",
"6  c #3D221B",
"7  c #28311F",
"8  c #2B2320",
"9  c #322622",
"0  c #332A26",
"q  c #342C28",
"w  c #3A2F2A",
"e  c #2B3124",
"r  c #2E3428",
"t  c #343020",
"y  c #3A3126",
"u  c #333E27",
"i  c #36342A",
"p  c #3B322C",
"a  c #3C382E",
"s  c #3D3A32",
"d  c #43291F",
"f  c #5E2B1E",
"g  c #6D2815",
"h  c #6C2C1B",
"j  c #7F2F19",
"k  c #7F311B",
"l  c #462E26",
"z  c #4B2F25",
"x  c #532E24",
"c  c #453527",
"v  c #44332C",
"b  c #4C342B",
"n  c #423B2E",
"m  c #4C3C2A",
"M  c #553126",
"N  c #553629",
"B  c #593629",
"V  c #5A3B2B",
"C  c #423732",
"Z  c #443A34",
"A  c #483C36",
"S  c #553E31",
"D  c #663B26",
"F  c #38432C",
"G  c #37442C",
"H  c #3D4132",
"J  c #4B452F",
"K  c #56402E",
"L  c #5A422F",
"P  c #464136",
"I  c #4B4333",
"U  c #424B32",
"Y  c #4D4B35",
"T  c #4B453B",
"R  c #484C3C",
"E  c #5D4532",
"W  c #554D36",
"Q  c #5D4A35",
"!  c #514C3B",
"~  c #5B4B38",
"^  c #465537",
"/  c #4C5035",
"(  c #475638",
")  c #4C543C",
"_  c #4C5A3D",
"`  c #54513C",
"'  c #5C543A",
"]  c #5D5A3D",
"[  c #794026",
"{  c #77442E",
"}  c #78452F",
"|  c #604A37",
" . c #654C39",
".. c #62533D",
"X. c #635B3E",
"o. c #524D42",
"O. c #4C5642",
"+. c #4D5A40",
"@. c #535444",
"#. c #535C45",
"$. c #5C5840",
"%. c #5B5949",
"&. c #635740",
"*. c #655D41",
"=. c #6B5D43",
"-. c #536144",
";. c #5E6644",
":. c #5E6A46",
">. c #5B634C",
",. c #5D6B4C",
"<. c #5E734B",
"1. c #5D6951",
"2. c #6A6245",
"3. c #616D47",
"4. c #66644A",
"5. c #69664A",
"6. c #636C4B",
"7. c #6B694C",
"8. c #726A4D",
"9. c #61744D",
"0. c #616752",
"q. c #666B54",
"w. c #6B6E53",
"e. c #647550",
"r. c #6C7355",
"t. c #667954",
"y. c #697B56",
"u. c #6C775C",
"i. c #6D7D5C",
"p. c #707657",
"a. c #737D57",
"s. c #707D5D",
"d. c #727B61",
"f. c #82432A",
"g. c #895E41",
"h. c #8B6243",
"j. c #8B7959",
"k. c #927655",
"l. c #6B824C",
"z. c #6F815D",
"x. c #748653",
"c. c #71815E",
"v. c #738361",
"b. c #788765",
"n. c #778A60",
"m. c #7A8A65",
"M. c #7C8B69",
"N. c #7D9267",
"B. c #8E825D",
"V. c #81985D",
"C. c #878160",
"Z. c #848B67",
"A. c #848D69",
"S. c #8A8E6A",
"D. c #938B67",
"F. c #948F69",
"G. c #839C60",
"H. c #83916C",
"J. c #88906D",
"K. c #94906A",
"L. c #899073",
"P. c #8E9A73",
"I. c #95AC6F",
"U. c #A1AB87",
"Y. c #A9B689",
"T. c None",
/* pixels */
"T.T.T.T.T.T.T.T.T.T.T.T.T.T.T.T.T.T.T.T.T.T.T.T.T.T.T.T.T.T.T.T.T.T.T.T.T.T.T.T.T.T.T.T.T.T.T.T.T.T.T.T.T.T.T.T.T.T.T.T.T.T.T.T.",
"T.T.T.T.T.T.T.T.T.T.T.T.T.T.T.T.T.T.T.T.T.T.T.T.T.T.T.T.T.T.T.T.T.T.T.T.T.T.T.T.T.T.T.T.T.T.T.T.T.T.T.T.T.T.T.T.T.T.T.T.T.T.T.T.",
"T.T.T.T.T.T.T.T.T.T.T.T.T.T.T.T.T.T.T.T.T.T.T.T.T.T.T.T.T.T.T.T.T.T.T.T.T.T.T.T.T.T.T.T.T.T.T.T.T.T.T.T.T.T.T.T.T.T.T.T.T.T.T.T.",
"T.T.T.T.T.T.T.T.T.T.T.T.T.T.T.T.T.T.T.T.T.T.T.T.T.T.T.T.T.T.T.T.T.T.T.T.T.T.T.T.T.T.T.T.T.T.T.T.T.T.T.T.T.T.T.T.T.T.T.T.T.T.T.T.",
"T.T.T.T.T.T.T.T.T.T.T.T.T.T.T.T.T.T.T.T.T.T.T.T.T.T.T.T.T.T.T.T.T.T.T.T.T.T.T.T.T.T.T.T.T.T.T.T.T.T.T.T.T.T.T.T.T.T.T.T.T.T.T.T.",
"T.T.T.T.T.T.T.T.T.T.T.T.T.T.T.T.T.T.T.T.T.T.T.T.T.T.T.T.T.T.T.T.T.T.T.T.T.T.T.T.T.T.T.T.T.T.T.T.T.T.T.T.T.T.T.T.T.T.T.T.T.T.T.T.",
"T.T.T.T.T.T.T.T.T.T.T.T.T.T.T.T.T.T.T.T.T.T.T.T.T.T.T.T.T.T.T.T.T.T.T.T.T.T.T.T.T.T.T.T.T.T.T.T.T.T.T.T.T.T.T.T.T.T.T.T.T.T.T.T.",
"T.T.T.T.T.T.T.T.T.T.T.T.T.T.T.T.T.T.T.T.T.T.T.T.T.T.T.T.T.T.T.T.T.T.T.T.T.T.T.T.T.T.T.T.T.T.T.T.T.T.T.T.T.T.T.T.T.T.T.T.T.T.T.T.",
"T.T.T.T.T.T.T.T.T.T.T.T.T.T.T.T.T.T.T.T.T.T.T.T.T.T.T.T.T.T.T.T.T.T.T.T.T.T.T.T.T.T.T.T.T.T.T.T.T.T.T.T.T.T.T.T.T.T.T.T.T.T.T.T.",
"T.T.T.T.T.T.T.T.T.T.T.T.T.T.T.T.T.T.T.T.T.T.T.T.T.T.T.T.T.T.T.T.T.T.T.T.T.T.T.T.T.T.T.T.T.T.T.T.T.T.T.T.T.T.T.T.T.T.T.T.T.T.T.T.",
"T.T.T.T.T.T.T.T.T.T.T.T.T.T.T.T.T.T.T.T.T.T.T.T.T.T.T.T.T.T.T.T.T.T.T.T.T.T.T.T.T.T.T.T.T.T.T.T.T.T.T.T.T.T.T.T.T.T.T.T.T.T.T.T.",
"T.T.T.T.T.T.T.T.T.T.T.T.T.T.T.T.T.T.T.T.T.T.T.T.T.T.T.T.T.T.T.T.T.T.T.T.T.T.T.T.T.T.T.T.T.T.T.T.T.T.T.T.T.T.T.T.T.T.T.T.T.T.T.T.",
"T.T.T.T.T.T.T.T.T.T.T.T.T.T.T.T.T.T.T.T.T.T.T.T.T.T.T.T.T.T.                .   T.T.T.T.T.T.T.T.T.T.T.T.T.T.T.T.T.T.T.T.T.T.T.T.",
"T.T.T.T.T.T.T.T.T.T.T.T.T.T.T.T.T.T.T.T.T.T.T.T.T.T.T.T.T.T.@ + + + O o O + O O T.T.T.T.T.T.T.T.T.T.T.T.T.T.T.T.T.T.T.T.T.T.T.T.",
"T.T.T.T.T.T.T.T.T.T.T.T.T.T.T.T.T.T.T.T.T.T.T.T.T.T.T.T.  + 5 d d 6 , d d 6 6 , o   T.T.T.T.T.T.T.T.T.T.T.T.T.T.T.T.T.T.T.T.T.T.",
"T.T.T.T.T.T.T.T.T.T.T.T.T.T.T.T.T.T.T.T.T.T.T.T.T.T.T.T.O ; J E B x M M x x M d 3 @ T.T.T.T.T.T.T.T.T.T.T.T.T.T.T.T.T.T.T.T.T.T.",
"T.T.T.T.T.T.T.T.T.T.T.T.T.T.T.T.T.T.T.T.T.T.T.T.T.T.  + 5 m ] ] E B x x x x N K / G $   T.T.T.T.T.T.T.T.T.T.T.T.T.T.T.T.T.T.T.T.",
"T.T.T.T.T.T.T.T.T.T.T.T.T.T.T.T.T.T.T.T.T.T.T.T.T.T.O ; z | 3.;.Q N M x x N L ] 3._ 7 $ T.T.T.T.T.T.T.T.T.T.T.T.T.T.T.T.T.T.T.T.",
"T.T.T.T.T.T.T.T.T.T.T.T.T.T.T.T.T.T.T.T.T.T.T.T.  + , d M | ;.;.Q N x x M L ] :.9.:._ G *   T.T.T.T.T.T.T.T.T.T.T.T.T.T.T.T.T.T.",
"T.T.T.T.T.T.T.T.T.T.T.T.T.T.T.T.T.T.T.T.T.T.T.T.  o d M B Q ;.;.Q B M N E ' :.<.<.<.9.( *   T.T.T.T.T.T.T.T.T.T.T.T.T.T.T.T.T.T.",
"T.T.T.T.T.T.T.T.T.T.T.T.T.T.T.T.T.T.T.T.T.T.T.T.  + d M B Q ;.;.Q B B L &.q.<.<.<.<.9.( *   T.T.T.T.T.T.T.T.T.T.T.T.T.T.T.T.T.T.",
"T.T.T.T.T.T.T.T.T.T.T.T.T.T.T.T.T.T.T.T.T.T.T.T.  + 6 M E ' :.;.Q K | X.e.t.e.<.<.<.<.( *   T.T.T.T.T.T.T.T.T.T.T.T.T.T.T.T.T.T.",
"T.T.T.T.T.T.T.T.T.T.T.T.T.T.T.T.T.T.T.T.T.T.T.T.  + d E ] :.e.6.Q Q 2.r.i.i.t.t.<.<.9.( *   T.T.T.T.T.T.T.T.T.T.T.T.T.T.T.T.T.T.",
"T.T.T.T.T.T.T.T.T.T.T.T.T.T.T.T.T.T.T.T.T.T.T.T.  + c ] 6.e.y.6.Q Q r.v.c.z.i.l.t.9.<.( *   T.T.T.T.T.T.T.T.T.T.T.T.T.T.T.T.T.T.",
"T.T.T.T.T.T.T.T.T.T.T.T.T.T.T.T.T.T.T.T.T.T.T.T.  $ U 6.e.y.z.w.Q | w.v.v.d.v.i.y.t.9.( *   T.T.T.T.T.T.T.T.T.T.T.T.T.T.T.T.T.T.",
"T.T.T.T.T.T.T.T.T.T.T.T.T.T.T.T.T.T.T.T.T.T.T.T.  * ( <.-.+.-.#.~ &.5.u.s.y.,.+._ -.,.( *   T.T.T.T.T.T.T.T.T.T.T.T.T.T.T.T.T.T.",
"T.T.T.T.T.T.T.T.T.T.T.T.T.T.T.T.T.T.T.T.T.T.T.T.  = _ -.e $ % e %.7.&.&.r.,.r % @ e -.+.=   T.T.T.T.T.T.T.T.T.T.T.T.T.T.T.T.T.T.",
"T.T.T.T.T.T.T.T.T.T.T.T.T.T.T.T.T.T.T.T.T.T.T.T.  = #.,.H 8 < u ,.r.| | r.,.G < 4 H ,.+.<   T.T.T.T.T.T.T.T.T.T.T.T.T.T.T.T.T.T.",
"T.T.T.T.T.T.T.T.T.T.T.T.T.T.T.T.T.T.T.T.T.T.T.T.  = _ v.L.J.x.l.c.w.| Q w.z.l.x.J.L.v.O.=   T.T.T.T.T.T.T.T.T.T.T.T.T.T.T.T.T.T.",
"T.T.T.T.T.T.T.T.T.T.T.T.T.T.T.T.T.T.T.T.T.T.T.T.  * +.M.U.Y.I.G.c.r.&...4.a.V.I.Y.U.M.+.=   T.T.T.T.T.T.T.T.T.T.T.T.T.T.T.T.T.T.",
"T.T.T.T.T.T.T.T.T.T.T.T.T.T.T.T.T.T.T.T.T.T.T.T.  = #.v.H.H.N.n.c.c.r.4...X.a.N.H.H.b.-.=   T.T.T.T.T.T.T.T.T.T.T.T.T.T.T.T.T.T.",
"T.T.T.T.T.T.T.T.T.T.T.T.T.T.T.T.T.T.T.T.T.T.T.T.  < -.z.i.s.s.c.c.c.v.r.&...4.r.i.z.z.+.<   T.T.T.T.T.T.T.T.T.T.T.T.T.T.T.T.T.T.",
"T.T.T.T.T.T.T.T.T.T.T.T.T.T.T.T.T.T.T.T.T.T.T.T.  * _ y.i.c.c.s.c.v.s.i.r.4...&.w.v.y._ *   T.T.T.T.T.T.T.T.T.T.T.T.T.T.T.T.T.T.",
"T.T.T.T.T.T.T.T.T.T.T.T.T.T.T.T.T.T.T.T.T.T.T.T.  % U :.y.c.b.b.v.v.m.m.v.u.=.=.w.w.,.U %   T.T.T.T.T.T.T.T.T.T.T.T.T.T.T.T.T.T.",
"T.T.T.T.T.T.T.T.T.T.T.T.T.T.T.T.T.T.T.T.T.T.T.T.  @ i @.:.c.P.P.b.b.P.P.b.b.S.C.=.| T w @   T.T.T.T.T.T.T.T.T.T.T.T.T.T.T.T.T.T.",
"T.T.T.T.T.T.T.T.T.T.T.T.T.T.T.T.T.T.T.T.T.T.T.T.  X 9 I ` 9.S.P.H.Z.D.D.A.A.K.j. .b A 0 X   T.T.T.T.T.T.T.T.T.T.T.T.T.T.T.T.T.T.",
"T.T.T.T.T.T.T.T.T.T.T.T.T.T.T.T.T.T.T.T.T.T.T.T.  O 6 b C ! 9.m.P.F.h.h.F.F.h.} N C A q X   T.T.T.T.T.T.T.T.T.T.T.T.T.T.T.T.T.T.",
"T.T.T.T.T.T.T.T.T.T.T.T.T.T.T.T.T.T.T.T.T.T.T.T.  @ c S v v ) 9.J.C.f.f.k.k.} f v p C w > X T.T.T.T.T.T.T.T.T.T.T.T.T.T.T.T.T.T.",
"T.T.T.T.T.T.T.T.T.T.T.T.T.T.T.T.T.T.T.T.T.T.T.T.  - @.5.S l C O.t.8.k k f.} B l p p C s p 8 X   T.T.T.T.T.T.T.T.T.T.T.T.T.T.T.T.",
"T.T.T.T.T.T.T.T.T.T.T.T.T.T.T.T.T.T.T.T.T.T.T.T.  = @.w.&.S v Z _ ' D h h M l w p s C A A q @   T.T.T.T.T.T.T.T.T.T.T.T.T.T.T.T.",
"T.T.T.T.T.T.T.T.T.T.T.T.T.T.T.T.T.T.T.T.T.T.T.T.  % s %.q.=.A p n n b z z l w p w p Z A A q X   T.T.T.T.T.T.T.T.T.T.T.T.T.T.T.T.",
"T.T.T.T.T.T.T.T.T.T.T.T.T.T.T.T.T.T.T.T.T.T.T.T.  X 0 o.q.1.A p y p p p w a P P C p C A A q X   T.T.T.T.T.T.T.T.T.T.T.T.T.T.T.T.",
"T.T.T.T.T.T.T.T.T.T.T.T.T.T.T.T.T.T.T.T.T.T.T.T.  @ q A o.o.p w p w p p p P >.%.Z p C A A q @   T.T.T.T.T.T.T.T.T.T.T.T.T.T.T.T.",
"T.T.T.T.T.T.T.T.T.T.T.T.T.T.T.T.T.T.T.T.T.T.T.T.  @ 8 p s C p w w p w p Z ` >.#.i > 0 p Z q X   T.T.T.T.T.T.T.T.T.T.T.T.T.T.T.T.",
"T.T.T.T.T.T.T.T.T.T.T.T.T.T.T.T.T.T.T.T.T.T.T.T.T.T.X = w C w q 0 0 q Z #.>.! i = . X = p q X   T.T.T.T.T.T.T.T.T.T.T.T.T.T.T.T.",
"T.T.T.T.T.T.T.T.T.T.T.T.T.T.T.T.T.T.T.T.T.T.T.T.T.T.  X 0 C v q 0 9 8 a #.#.a : .     X q w = X T.T.T.T.T.T.T.T.T.T.T.T.T.T.T.T.",
"T.T.T.T.T.T.T.T.T.T.T.T.T.T.T.T.T.T.T.T.T.T.T.T.T.T.  + 0 C C w 0 3 5 9 p p 9 = .     @ q Z p 8 X   T.T.T.T.T.T.T.T.T.T.T.T.T.T.",
"T.T.T.T.T.T.T.T.T.T.T.T.T.T.T.T.T.T.T.T.T.T.T.T.T.T.  % s o.@.T n y w w y y y 0 > @   + q A A q +   T.T.T.T.T.T.T.T.T.T.T.T.T.T.",
"T.T.T.T.T.T.T.T.T.T.T.T.T.T.T.T.T.T.T.T.T.T.T.T.T.T.  = @.d.u.q.X.W W W W W ' W W y + X q A Z 0 +   T.T.T.T.T.T.T.T.T.T.T.T.T.T.",
"T.T.T.T.T.T.T.T.T.T.T.T.T.T.T.T.T.T.T.T.T.T.T.T.T.T.  = -.c.v.p.2.X.X.X.*.*.*.*.2.I % X s @.@.s %   T.T.T.T.T.T.T.T.T.T.T.T.T.T.",
"T.T.T.T.T.T.T.T.T.T.T.T.T.T.T.T.T.T.T.T.T.T.T.T.T.T.  * W 7.7.5.*.X.] X.*.*.*.*.*.J % = @.d.d.@.=   T.T.T.T.T.T.T.T.T.T.T.T.T.T.",
"T.T.T.T.T.T.T.T.T.T.T.T.T.T.T.T.T.T.T.T.T.T.T.T.T.T.  & I 2.2.=.*.] J J ' X.X.*.*.J + % O.1.1.O.=   T.T.T.T.T.T.T.T.T.T.T.T.T.T.",
"T.T.T.T.T.T.T.T.T.T.T.T.T.T.T.T.T.T.T.T.T.T.T.T.T.T.  * W 8.8.8.8.` 3 1 J X.X.*.*.J $ . = < < = T.T.T.T.T.T.T.T.T.T.T.T.T.T.T.T.",
"T.T.T.T.T.T.T.T.T.T.T.T.T.T.T.T.T.T.T.T.T.T.T.T.T.T.  & A ! ` ~ ' J @ X t J ..*.*.J #           T.T.T.T.T.T.T.T.T.T.T.T.T.T.T.T.",
"T.T.T.T.T.T.T.T.T.T.T.T.T.T.T.T.T.T.T.T.T.T.T.T.T.T.T.T.* = = = = * T.T.@ 1 W *.X.J #   T.T.T.T.T.T.T.T.T.T.T.T.T.T.T.T.T.T.T.T.",
"T.T.T.T.T.T.T.T.T.T.T.T.T.T.T.T.T.T.T.T.T.T.T.T.T.T.T.T.            T.T.  $ J 5.7.Y *   T.T.T.T.T.T.T.T.T.T.T.T.T.T.T.T.T.T.T.T.",
"T.T.T.T.T.T.T.T.T.T.T.T.T.T.T.T.T.T.T.T.T.T.T.T.T.T.T.T.T.T.T.T.T.T.T.T.  = ) u.t.O.=   T.T.T.T.T.T.T.T.T.T.T.T.T.T.T.T.T.T.T.T.",
"T.T.T.T.T.T.T.T.T.T.T.T.T.T.T.T.T.T.T.T.T.T.T.T.T.T.T.T.T.T.T.T.T.T.T.T.  = -.v.v.-.=   T.T.T.T.T.T.T.T.T.T.T.T.T.T.T.T.T.T.T.T.",
"T.T.T.T.T.T.T.T.T.T.T.T.T.T.T.T.T.T.T.T.T.T.T.T.T.T.T.T.T.T.k k T.T.T.T.  = >.M.M.>.<   T.T.T.T.T.T.T.T.T.T.T.T.T.T.T.T.T.T.T.T.",
"T.T.T.T.T.T.T.T.T.T.T.T.T.T.T.T.T.T.T.T.T.T.T.T.T.T.T.T.T.T.g g T.T.T.T.  = O.u.u.O.=   T.T.T.T.T.T.T.T.T.T.T.T.T.T.T.T.T.T.T.T.",
"T.T.T.T.T.T.T.T.T.T.T.T.T.T.T.T.T.T.T.T.T.T.T.T.T.T.T.T.T.T.T.T.T.T.T.T.  X 2 r r 8 X   T.T.T.T.T.T.T.T.T.T.T.T.T.T.T.T.T.T.T.T.",
"T.T.T.T.T.T.T.T.T.T.T.T.T.T.T.T.T.T.T.T.T.T.T.T.T.T.T.T.T.T.T.T.T.T.T.T.T.T.T.T.T.T.T.T.T.T.T.T.T.T.T.T.T.T.T.T.T.T.T.T.T.T.T.T.",
"T.T.T.T.T.T.T.T.T.T.T.T.T.T.T.T.T.T.T.T.T.T.T.T.T.T.T.T.T.T.T.T.T.T.T.T.T.T.T.T.T.T.T.T.T.T.T.T.T.T.T.T.T.T.T.T.T.T.T.T.T.T.T.T.",
"T.T.T.T.T.T.T.T.T.T.T.T.T.T.T.T.T.T.T.T.T.T.T.T.T.T.T.T.T.T.T.T.T.T.T.T.T.T.T.T.T.T.T.T.T.T.T.T.T.T.T.T.T.T.T.T.T.T.T.T.T.T.T.T."
};
