/* XPM */
static char *result[] = {
/* columns rows colors chars-per-pixel */
"64 64 178 2 ",
"   c #000000",
".  c #0D0C0A",
"X  c #150704",
"o  c #120907",
"O  c #1B0905",
"+  c #110C0A",
"@  c #1D0E09",
"#  c #14130E",
"$  c #14180F",
"%  c #151511",
"&  c #191512",
"*  c #161B12",
"=  c #191D15",
"-  c #1C1F18",
";  c #241610",
":  c #271D14",
">  c #301A14",
",  c #222316",
"<  c #22261D",
"1  c #28261B",
"2  c #27291F",
"3  c #36231A",
"4  c #3D221A",
"5  c #28311F",
"6  c #2D2420",
"7  c #322723",
"8  c #332A25",
"9  c #342B28",
"0  c #392E2A",
"q  c #2B3124",
"w  c #2E3428",
"e  c #323123",
"r  c #3A3127",
"t  c #333E27",
"y  c #36342A",
"u  c #3C342D",
"i  c #3F3531",
"p  c #3E3A32",
"a  c #4A1A0C",
"s  c #591F10",
"d  c #43291F",
"f  c #582011",
"g  c #5E2C1F",
"h  c #532417",
"j  c #6C2B1A",
"k  c #602313",
"l  c #7F311B",
"z  c #432C23",
"x  c #4A2C24",
"c  c #422E28",
"v  c #522E24",
"b  c #453527",
"n  c #4B342B",
"m  c #443D2F",
"M  c #4C3C2A",
"N  c #42342C",
"B  c #553126",
"V  c #583427",
"C  c #563528",
"Z  c #593629",
"A  c #51392E",
"S  c #5A3C2C",
"D  c #433731",
"F  c #453B35",
"G  c #4A3D34",
"H  c #523E31",
"J  c #5A3E31",
"K  c #553F38",
"L  c #613021",
"P  c #663B26",
"I  c #723E2F",
"U  c #38442C",
"Y  c #3D4132",
"T  c #4B442E",
"R  c #56402E",
"E  c #5A422F",
"W  c #4C4336",
"Q  c #424B32",
"!  c #4C4A34",
"~  c #464239",
"^  c #4B443C",
"/  c #4E4D3E",
"(  c #5D4532",
")  c #554C36",
"_  c #5D4A35",
"`  c #594139",
"'  c #564D39",
"]  c #5B4B38",
"[  c #465537",
"{  c #475638",
"}  c #4B553D",
"|  c #4C5A3D",
" . c #4C5035",
".. c #57563E",
"X. c #5C543A",
"o. c #53593F",
"O. c #5D5A3D",
"+. c #794026",
"@. c #78442E",
"#. c #77432D",
"$. c #604A37",
"%. c #674E3B",
"&. c #774630",
"*. c #62533D",
"=. c #645B3E",
"-. c #534C42",
";. c #4C5642",
":. c #4D5A40",
">. c #535442",
",. c #535C45",
"<. c #5E5E47",
"1. c #5C5C4A",
"2. c #5B5541",
"3. c #635740",
"4. c #645C41",
"5. c #6D5D45",
"6. c #635D48",
"7. c #6B5249",
"8. c #536144",
"9. c #5E6644",
"0. c #5E6A46",
"q. c #5A644D",
"w. c #5D6B4D",
"e. c #5E734B",
"r. c #5F6550",
"t. c #666245",
"y. c #6A6145",
"u. c #616D47",
"i. c #65644A",
"p. c #69654A",
"a. c #636C4B",
"s. c #6B684D",
"d. c #716B4D",
"f. c #61744C",
"g. c #636D53",
"h. c #6A6E54",
"j. c #657352",
"k. c #6C7355",
"l. c #667954",
"z. c #697B56",
"x. c #6C775C",
"c. c #6D7D5C",
"v. c #727456",
"b. c #737D57",
"n. c #727C5C",
"m. c #717A60",
"M. c #82432A",
"N. c #895E41",
"B. c #8B6243",
"V. c #8B7959",
"C. c #927655",
"Z. c #6B824C",
"A. c #6F815D",
"S. c #748653",
"D. c #71815E",
"F. c #738362",
"G. c #788765",
"H. c #778A60",
"J. c #7A8A65",
"K. c #7C8B69",
"L. c #7D9267",
"P. c #8E825D",
"I. c #81985D",
"U. c #878160",
"Y. c #848D69",
"T. c #878D69",
"R. c #938B67",
"E. c #948F69",
"W. c #84916C",
"Q. c #88906D",
"!. c #839C60",
"~. c #94906A",
"^. c #899073",
"/. c #8E9A73",
"(. c #95AC6F",
"). c #A1AB87",
"_. c #A9B689",
"`. c None",
/* pixels */
"`.`.`.`.`.`.`.`.`.`.`.`.`.`.`.`.`.`.`.`.`.`.`.`.`.`.`.`.`.`.`.`.`.`.`.`.`.`.`.`.`.`.`.`.`.`.`.`.`.`.`.`.`.`.`.`.`.`.`.`.`.`.`.`.",
"`.`.`.`.`.`.`.`.`.`.`.`.`.`.`.`.`.`.`.`.`.`.`.`.`.`.`.`.`.`.`.`.`.`.`.`.`.`.`.`.`.`.`.`.`.`.`.`.`.`.`.`.`.`.`.`.`.`.`.`.`.`.`.`.",
"`.`.`.`.`.`.`.`.`.`.`.`.`.`.`.`.`.`.`.`.`.`.`.`.`.`.`.`.`.`.`.`.`.`.`.`.`.`.`.`.`.`.`.`.`.`.`.`.`.`.`.`.`.`.`.`.`.`.`.`.`.`.`.`.",
"`.`.`.`.`.`.`.`.`.`.`.`.`.`.`.`.`.`.`.`.`.`.`.`.`.`.`.`.`.`.`.`.`.`.`.`.`.`.`.`.`.`.`.`.`.`.`.`.`.`.`.`.`.`.`.`.`.`.`.`.`.`.`.`.",
"`.`.`.`.`.`.`.`.`.`.`.`.`.`.`.`.`.`.`.`.`.`.`.`.`.`.`.`.`.`.`.`.`.`.`.`.`.`.`.`.`.`.`.`.`.`.`.`.`.`.`.`.`.`.`.`.`.`.`.`.`.`.`.`.",
"`.`.`.`.`.`.`.`.`.`.`.`.`.`.`.`.`.`.`.`.`.`.`.`.`.`.`.`.`.`.`.`.`.`.`.`.`.`.`.`.`.`.`.`.`.`.`.`.`.`.`.`.`.`.`.`.`.`.`.`.`.`.`.`.",
"`.`.`.`.`.`.`.`.`.`.`.`.`.`.`.`.`.`.`.`.`.`.`.`.`.`.`.`.`.`.`.`.`.`.`.`.`.`.`.`.`.`.`.`.`.`.`.`.`.`.`.`.`.`.`.`.`.`.`.`.`.`.`.`.",
"`.`.`.`.`.`.`.`.`.`.`.`.`.`.`.`.`.`.`.`.`.`.`.`.`.`.`.`.`.`.`.`.`.`.`.`.`.`.`.`.`.`.`.`.`.`.`.`.`.`.`.`.`.`.`.`.`.`.`.`.`.`.`.`.",
"`.`.`.`.`.`.`.`.`.`.`.`.`.`.`.`.`.`.`.`.`.`.`.`.`.`.`.`.`.`.`.`.`.`.`.`.`.`.`.`.`.`.`.`.`.`.`.`.`.`.`.`.`.`.`.`.`.`.`.`.`.`.`.`.",
"`.`.`.`.`.`.`.`.`.`.`.`.`.`.`.`.`.`.`.`.`.`.`.`.`.`.`.`.`.`.`.`.`.`.`.`.`.`.`.`.`.`.`.`.`.`.`.`.`.`.`.`.`.`.`.`.`.`.`.`.`.`.`.`.",
"`.`.`.`.`.`.`.`.`.`.`.`.`.`.`.`.`.`.`.`.`.`.`.`.`.`.`.`.`.`.`.`.`.`.`.`.`.`.`.`.`.`.`.`.`.`.`.`.`.`.`.`.`.`.`.`.`.`.`.`.`.`.`.`.",
"`.`.`.`.`.`.`.`.`.`.`.`.`.`.`.`.`.`.`.`.`.`.`.`.`.`.`.`.`.`.`.`.`.`.`.`.`.`.`.`.`.`.`.`.`.`.`.`.`.`.`.`.`.`.`.`.`.`.`.`.`.`.`.`.",
"`.`.`.`.`.`.`.`.`.`.`.`.`.`.`.`.`.`.`.`.`.`.`.`.`.`.`.`.                    `.`.`.`.`.`.`.`.`.`.`.`.`.`.`.`.`.`.`.`.`.`.`.`.`.`.",
"`.`.`.`.`.`.`.`.`.`.`.`.`.`.`.`.`.`.`.`.`.`.`.`.`.`.`.`.o o # o o + o o + o `.`.`.`.`.`.`.`.`.`.`.`.`.`.`.`.`.`.`.`.`.`.`.`.`.`.",
"`.`.`.`.`.`.`.`.`.`.`.`.`.`.`.`.`.`.`.`.`.`.`.`.`.`.  + 3 d 4 4 4 4 4 4 d > o   `.`.`.`.`.`.`.`.`.`.`.`.`.`.`.`.`.`.`.`.`.`.`.`.",
"`.`.`.`.`.`.`.`.`.`.`.`.`.`.`.`.`.`.`.`.`.`.`.`.`.`.o : T ( Z B B v B v B d : $ `.`.`.`.`.`.`.`.`.`.`.`.`.`.`.`.`.`.`.`.`.`.`.`.",
"`.`.`.`.`.`.`.`.`.`.`.`.`.`.`.`.`.`.`.`.`.`.`.`.  o 3 M O.O._ C B v g B Z R  .U $   `.`.`.`.`.`.`.`.`.`.`.`.`.`.`.`.`.`.`.`.`.`.",
"`.`.`.`.`.`.`.`.`.`.`.`.`.`.`.`.`.`.`.`.`.`.`.`.o ; x $.0.0._ Z B x x C E X.e.| 5 $ `.`.`.`.`.`.`.`.`.`.`.`.`.`.`.`.`.`.`.`.`.`.",
"`.`.`.`.`.`.`.`.`.`.`.`.`.`.`.`.`.`.`.`.`.`.  o > d C _ 0.9._ V B v C E O.0.f.0.| U *   `.`.`.`.`.`.`.`.`.`.`.`.`.`.`.`.`.`.`.`.",
"`.`.`.`.`.`.`.`.`.`.`.`.`.`.`.`.`.`.`.`.`.`.  o 4 B Z _ 9.9._ V B C E X.0.e.e.e.f.{ *   `.`.`.`.`.`.`.`.`.`.`.`.`.`.`.`.`.`.`.`.",
"`.`.`.`.`.`.`.`.`.`.`.`.`.`.`.`.`.`.`.`.`.`.  o 4 B Z _ 9.9._ S C ( 4.a.e.e.e.f.f.{ *   `.`.`.`.`.`.`.`.`.`.`.`.`.`.`.`.`.`.`.`.",
"`.`.`.`.`.`.`.`.`.`.`.`.`.`.`.`.`.`.`.`.`.`.  + 4 C ( X.u.9._ S E =.j.z.j.e.e.e.f.{ *   `.`.`.`.`.`.`.`.`.`.`.`.`.`.`.`.`.`.`.`.",
"`.`.`.`.`.`.`.`.`.`.`.`.`.`.`.`.`.`.`.`.`.`.  + d ( O.0.j.i._ $.i.k.c.c.l.f.e.e.e.{ *   `.`.`.`.`.`.`.`.`.`.`.`.`.`.`.`.`.`.`.`.",
"`.`.`.`.`.`.`.`.`.`.`.`.`.`.`.`.`.`.`.`.`.`.  @ b X.u.l.z.a._ $.h.F.F.c.A.z.l.f.f.{ *   `.`.`.`.`.`.`.`.`.`.`.`.`.`.`.`.`.`.`.`.",
"`.`.`.`.`.`.`.`.`.`.`.`.`.`.`.`.`.`.`.`.`.`.  $ Q u.f.c.D.k._ _ k.F.F.D.F.A.z.z.f.[ *   `.`.`.`.`.`.`.`.`.`.`.`.`.`.`.`.`.`.`.`.",
"`.`.`.`.`.`.`.`.`.`.`.`.`.`.`.`.`.`.`.`.`.`.  * | e.,.| ,.,.] 3.p.k.c.x.q.:.;.8.e.} *   `.`.`.`.`.`.`.`.`.`.`.`.`.`.`.`.`.`.`.`.",
"`.`.`.`.`.`.`.`.`.`.`.`.`.`.`.`.`.`.`.`.`.`.  = | 8.q $ % q ,.p.3.4.k.r.w % $ q 8.| =   `.`.`.`.`.`.`.`.`.`.`.`.`.`.`.`.`.`.`.`.",
"`.`.`.`.`.`.`.`.`.`.`.`.`.`.`.`.`.`.`.`.`.`.  = :.w.Y 2 , t a.k.$.$.k.w.U , < Y w.:.=   `.`.`.`.`.`.`.`.`.`.`.`.`.`.`.`.`.`.`.`.",
"`.`.`.`.`.`.`.`.`.`.`.`.`.`.`.`.`.`.`.`.`.`.  = | F.^.Q.S.Z.A.h._ $.h.A.Z.S.Y.Q.F.| =   `.`.`.`.`.`.`.`.`.`.`.`.`.`.`.`.`.`.`.`.",
"`.`.`.`.`.`.`.`.`.`.`.`.`.`.`.`.`.`.`.`.`.`.  = >.K.)._.(.!.H.k.3.*.i.b.L.(._.).K.:.*   `.`.`.`.`.`.`.`.`.`.`.`.`.`.`.`.`.`.`.`.",
"`.`.`.`.`.`.`.`.`.`.`.`.`.`.`.`.`.`.`.`.`.`.  = 8.G.W.W.J.H.F.c.k.p.*.3.S.L.W.W.G.,.=   `.`.`.`.`.`.`.`.`.`.`.`.`.`.`.`.`.`.`.`.",
"`.`.`.`.`.`.`.`.`.`.`.`.`.`.`.`.`.`.`.`.`.`.  - ,.A.A.c.A.D.A.D.F.k.3.*.i.k.A.A.A.8.=   `.`.`.`.`.`.`.`.`.`.`.`.`.`.`.`.`.`.`.`.",
"`.`.`.`.`.`.`.`.`.`.`.`.`.`.`.`.`.`.`.`.`.`.  * | z.c.D.D.n.D.D.D.c.k.i.*.3.k.D.z.| =   `.`.`.`.`.`.`.`.`.`.`.`.`.`.`.`.`.`.`.`.",
"`.`.`.`.`.`.`.`.`.`.`.`.`.`.`.`.`.`.`.`.`.`.  % Y w.z.n.G.G.F.D.G.K.G.k.5.5.s.j.w.Y %   `.`.`.`.`.`.`.`.`.`.`.`.`.`.`.`.`.`.`.`.",
"`.`.`.`.`.`.`.`.`.`.`.`.`.`.`.`.`.`.`.`.`.`.  # y >.w.S././.G.G././.K.F.Q.V.5.] -.u %   `.`.`.`.`.`.`.`.`.`.`.`.`.`.`.`.`.`.`.`.",
"`.`.`.`.`.`.`.`.`.`.`.`.`.`.`.`.`.`.`.`.`.`.  + 8 ! o.j.W./.Y.T.R.R.Y.Y.E.V.%.H F 9 .   `.`.`.`.`.`.`.`.`.`.`.`.`.`.`.`.`.`.`.`.",
"`.`.`.`.`.`.`.`.`.`.`.`.`.`.`.`.`.`.`.`.`.`.  + 4 A W >.f.J./.R.N.N.E.E.B.@.J G F 9 +   `.`.`.`.`.`.`.`.`.`.`.`.`.`.`.`.`.`.`.`.",
"`.`.`.`.`.`.`.`.`.`.`.`.`.`.`.`.`.`.`.`.`.`.  o 4 x n G o.f.Q.P.M.M.C.C.&.B B F ~ 9 +   `.`.`.`.`.`.`.`.`.`.`.`.`.`.`.`.`.`.`.`.",
"`.`.`.`.`.`.`.`.`.`.`.`.`.`.`.`.`.`.`.`.`.`.  + > v v n m / f.d.I l M.@.Z c D F F 9 #   `.`.`.`.`.`.`.`.`.`.`.`.`.`.`.`.`.`.`.`.",
"`.`.`.`.`.`.`.`.`.`.`.`.`.`.`.`.`.`.`.`.`.`.  @ n J B x c m | X.P j j L H ~ F F F 9 .   `.`.`.`.`.`.`.`.`.`.`.`.`.`.`.`.`.`.`.`.",
"`.`.`.`.`.`.`.`.`.`.`.`.`.`.`.`.`.`.`.`.`.`.  = ,.p.J x 0 0 D G n x x H 1.r.-.F F 9 .   `.`.`.`.`.`.`.`.`.`.`.`.`.`.`.`.`.`.`.`.",
"`.`.`.`.`.`.`.`.`.`.`.`.`.`.`.`.`.`.`.`.`.`.  = >.g.3.K c 0 0 0 0 u F >.j.k.-.i F 9 +   `.`.`.`.`.`.`.`.`.`.`.`.`.`.`.`.`.`.`.`.",
"`.`.`.`.`.`.`.`.`.`.`.`.`.`.`.`.`.`.`.`.`.`.  % i 1.h.6.F 8 0 8 8 p ,.j.x.g.-.F F 9 #   `.`.`.`.`.`.`.`.`.`.`.`.`.`.`.`.`.`.`.`.",
"`.`.`.`.`.`.`.`.`.`.`.`.`.`.`.`.`.`.`.`.`.`.  + 9 -.g.r.F 8 8 7 8 Y r.x.g.,.^ F F 9 #   `.`.`.`.`.`.`.`.`.`.`.`.`.`.`.`.`.`.`.`.",
"`.`.`.`.`.`.`.`.`.`.`.`.`.`.`.`.`.`.`.`.`.`.  + 8 G -.^ u 8 8 8 8 F w.j./ p D F F 9 .   `.`.`.`.`.`.`.`.`.`.`.`.`.`.`.`.`.`.`.`.",
"`.`.`.`.`.`.`.`.`.`.`.`.`.`.`.`.`.`.`.`.`.`.  . 0 F F D 8 7 7 7 2 u >.o.u 8 D F F 9 #   `.`.`.`.`.`.`.`.`.`.`.`.`.`.`.`.`.`.`.`.",
"`.`.`.`.`.`.`.`.`.`.`.`.`.`.`.`.`.`.`.`.`.`.  + 9 F F u 8 1 1 6 3 8 u y 7 8 D F F 9 +   `.`.`.`.`.`.`.`.`.`.`.`.`.`.`.`.`.`.`.`.",
"`.`.`.`.`.`.`.`.`.`.`.`.`.`.`.`.`.`.`.`.`.`.  + 9 F F D N 0 r r y r r 0 r y D F F 9 +   `.`.`.`.`.`.`.`.`.`.`.`.`.`.`.`.`.`.`.`.",
"`.`.`.`.`.`.`.`.`.`.`.`.`.`.`.`.`.`.`.`.`.`.  # 9 F F F ) ' ' X.' X.' ' ' ) G F F 9 +   `.`.`.`.`.`.`.`.`.`.`.`.`.`.`.`.`.`.`.`.",
"`.`.`.`.`.`.`.`.`.`.`.`.`.`.`.`.`.`.`.`.`.`.  # p -.-.-.=.=.=.=.=.=.=.=.4.3.>.-.-.p %   `.`.`.`.`.`.`.`.`.`.`.`.`.`.`.`.`.`.`.`.",
"`.`.`.`.`.`.`.`.`.`.`.`.`.`.`.`.`.`.`.`.`.`.  - ,.m.m.h.t.=.4.4.=.O.=.=.4.t.k.c.m.,.=   `.`.`.`.`.`.`.`.`.`.`.`.`.`.`.`.`.`.`.`.",
"`.`.`.`.`.`.`.`.`.`.`.`.`.`.`.`.`.`.`.`.`.`.  - ;.j.m.m.s.y.y.X.T T X.=.=.p.k.b.r.;.=   `.`.`.`.`.`.`.`.`.`.`.`.`.`.`.`.`.`.`.`.",
"`.`.`.`.`.`.`.`.`.`.`.`.`.`.`.`.`.`.`.`.`.`.`.`.= y 6.v.d.d.d...1 , T =.=.=.s.X.w = `.`.`.`.`.`.`.`.`.`.`.`.`.`.`.`.`.`.`.`.`.`.",
"`.`.`.`.`.`.`.`.`.`.`.`.`.`.`.`.`.`.`.`.`.`.`.`.  + ^ p.6.6.2.F # . 3 T =.=.=.T #   `.`.`.`.`.`.`.`.`.`.`.`.`.`.`.`.`.`.`.`.`.`.",
"`.`.`.`.`.`.`.`.`.`.`.`.`.`.`.`.`.`.`.`.`.`.`.`.  + i -.-.F 6 & `.`.# 1 ! =.4.T #   `.`.`.`.`.`.`.`.`.`.`.`.`.`.`.`.`.`.`.`.`.`.",
"`.`.`.`.`.`.`.`.`.`.`.`.`.`.`.`.`.`.`.`.`.`.`.`.  % p -.` c +   `.`.  $ ! p.s.! &   `.`.`.`.`.`.`.`.`.`.`.`.`.`.`.`.`.`.`.`.`.`.",
"`.`.`.`.`.`.`.`.`.`.`.`.`.`.`.`.`.`.`.`.`.`.`.`.  % -.7.I h O X f f X * } k.c.} =   `.`.`.`.`.`.`.`.`.`.`.`.`.`.`.`.`.`.`.`.`.`.",
"`.`.`.`.`.`.`.`.`.`.`.`.`.`.`.`.`.`.`.`.`.`.`.`.  % i K g a X @ k s X = 8.F.F.,.=   `.`.`.`.`.`.`.`.`.`.`.`.`.`.`.`.`.`.`.`.`.`.",
"`.`.`.`.`.`.`.`.`.`.`.`.`.`.`.`.`.`.`.`.`.`.`.`.`.`.& & @ O `.`.`.`.  : q.K.K.q.-   `.`.`.`.`.`.`.`.`.`.`.`.`.`.`.`.`.`.`.`.`.`.",
"`.`.`.`.`.`.`.`.`.`.`.`.`.`.`.`.`.`.`.`.`.`.`.`.`.`.        `.`.`.`.  - ;.x.x.;.=   `.`.`.`.`.`.`.`.`.`.`.`.`.`.`.`.`.`.`.`.`.`.",
"`.`.`.`.`.`.`.`.`.`.`.`.`.`.`.`.`.`.`.`.`.`.`.`.`.`.        `.`.`.`.  . < w w < .   `.`.`.`.`.`.`.`.`.`.`.`.`.`.`.`.`.`.`.`.`.`.",
"`.`.`.`.`.`.`.`.`.`.`.`.`.`.`.`.`.`.`.`.`.`.`.`.`.`.`.`.`.`.`.`.`.`.`.`.`.`.`.`.`.`.`.`.`.`.`.`.`.`.`.`.`.`.`.`.`.`.`.`.`.`.`.`.",
"`.`.`.`.`.`.`.`.`.`.`.`.`.`.`.`.`.`.`.`.`.`.`.`.`.`.`.`.`.`.`.`.`.`.`.`.`.`.`.`.`.`.`.`.`.`.`.`.`.`.`.`.`.`.`.`.`.`.`.`.`.`.`.`.",
"`.`.`.`.`.`.`.`.`.`.`.`.`.`.`.`.`.`.`.`.`.`.`.`.`.`.`.`.`.`.`.`.`.`.`.`.`.`.`.`.`.`.`.`.`.`.`.`.`.`.`.`.`.`.`.`.`.`.`.`.`.`.`.`."
};
