/* XPM */
static char *result[] = {
/* columns rows colors chars-per-pixel */
"64 64 181 2 ",
"   c #000000",
".  c #0C0807",
"X  c #0D0B0A",
"o  c #0F0705",
"O  c #100706",
"+  c #110907",
"@  c #120C09",
"#  c #14130E",
"$  c #14180F",
"%  c #151411",
"&  c #191511",
"*  c #161B12",
"=  c #191C15",
"-  c #1D1D19",
";  c #22130E",
":  c #241D15",
">  c #251E1B",
",  c #2A1812",
"<  c #301A14",
"1  c #1E221A",
"2  c #232316",
"3  c #27241C",
"4  c #29231D",
"5  c #27291F",
"6  c #2D291E",
"7  c #36221A",
"8  c #3D231B",
"9  c #28311F",
"0  c #2A2523",
"q  c #272820",
"w  c #2F2820",
"e  c #312722",
"r  c #332A26",
"t  c #342C28",
"y  c #3A2F2B",
"u  c #2C3124",
"i  c #373323",
"p  c #333E27",
"a  c #3D322C",
"s  c #3E392F",
"d  c #3A3524",
"f  c #3D3532",
"g  c #3E3A31",
"h  c #43251D",
"j  c #43291F",
"k  c #5B281B",
"l  c #6F301D",
"z  c #7E301A",
"x  c #432B22",
"c  c #4D2D23",
"v  c #532E24",
"b  c #41362C",
"n  c #4A322B",
"m  c #433D2D",
"M  c #4C3D2B",
"N  c #453626",
"B  c #553126",
"V  c #543428",
"C  c #593629",
"Z  c #563B2E",
"A  c #5A3B2B",
"S  c #443631",
"D  c #493631",
"F  c #443B34",
"G  c #443C39",
"H  c #483E32",
"J  c #523D30",
"K  c #602D20",
"L  c #683926",
"P  c #6D3F2B",
"I  c #783F25",
"U  c #763C26",
"Y  c #38442C",
"T  c #37442C",
"R  c #3D4132",
"E  c #4A432D",
"W  c #56402E",
"Q  c #5A422F",
"!  c #444030",
"~  c #4B4532",
"^  c #464C33",
"/  c #474238",
"(  c #4B423C",
")  c #444E3A",
"_  c #4E4A39",
"`  c #5D4532",
"'  c #534C35",
"]  c #5D4A35",
"[  c #584F38",
"{  c #534E3E",
"}  c #465537",
"|  c #475638",
" . c #4A533C",
".. c #4C5A3D",
"X. c #4C5035",
"o. c #53533E",
"O. c #5C543B",
"+. c #5C5A3D",
"@. c #515E3F",
"#. c #79452F",
"$. c #77452F",
"%. c #604A37",
"&. c #6F4B30",
"*. c #684E3B",
"=. c #754D33",
"-. c #62533D",
";. c #635B3E",
":. c #544B43",
">. c #4D5A40",
",. c #565246",
"<. c #5C5641",
"1. c #525B45",
"2. c #5A5944",
"3. c #5E534F",
"4. c #5B5C4B",
"5. c #625540",
"6. c #655D41",
"7. c #6C5E45",
"8. c #635C48",
"9. c #665A55",
"0. c #536144",
"q. c #5E6644",
"w. c #5E6A46",
"e. c #57644A",
"r. c #5C664C",
"t. c #5D6B4D",
"y. c #5E734B",
"u. c #5D6A51",
"i. c #6A6145",
"p. c #66644A",
"a. c #69644A",
"s. c #636C4B",
"d. c #6B694E",
"f. c #616D47",
"g. c #726A4C",
"h. c #62744D",
"j. c #6B6E54",
"k. c #666B56",
"l. c #736E52",
"z. c #647551",
"x. c #6C7355",
"c. c #667954",
"v. c #697B56",
"b. c #6F7658",
"n. c #6D7D5C",
"m. c #737D57",
"M. c #727E5D",
"N. c #737C61",
"B. c #813F27",
"V. c #82442A",
"C. c #895E41",
"Z. c #8B6243",
"A. c #8C7A5A",
"S. c #927655",
"D. c #6B824C",
"F. c #6F825D",
"G. c #748653",
"H. c #71815E",
"J. c #738362",
"K. c #788765",
"L. c #778A60",
"P. c #7A8A65",
"I. c #7D8C69",
"U. c #7D9267",
"Y. c #8E815C",
"T. c #81985D",
"R. c #888161",
"E. c #848D69",
"W. c #878D69",
"Q. c #938B67",
"!. c #948F69",
"~. c #83916C",
"^. c #88906D",
"/. c #839C60",
"(. c #94906A",
"). c #899073",
"_. c #8E9A73",
"`. c #95AC6F",
"'. c #A1AB87",
"]. c #A9B689",
"[. c None",
/* pixels */
"[.[.[.[.[.[.[.[.[.[.[.[.[.[.[.[.[.[.[.[.[.[.[.[.[.[.[.[.[.[.[.[.[.[.[.[.[.[.[.[.[.[.[.[.[.[.[.[.[.[.[.[.[.[.[.[.[.[.[.[.[.[.[.[.",
"[.[.[.[.[.[.[.[.[.[.[.[.[.[.[.[.[.[.[.[.[.[.[.[.[.[.[.[.[.[.[.[.[.[.[.[.[.[.[.[.[.[.[.[.[.[.[.[.[.[.[.[.[.[.[.[.[.[.[.[.[.[.[.[.",
"[.[.[.[.[.[.[.[.[.[.[.[.[.[.[.[.[.[.[.[.[.[.[.[.[.[.[.[.[.[.[.[.[.[.[.[.[.[.[.[.[.[.[.[.[.[.[.[.[.[.[.[.[.[.[.[.[.[.[.[.[.[.[.[.",
"[.[.[.[.[.[.[.[.[.[.[.[.[.[.[.[.[.[.[.[.[.[.[.[.[.[.[.[.[.[.[.[.[.[.[.[.[.[.[.[.[.[.[.[.[.[.[.[.[.[.[.[.[.[.[.[.[.[.[.[.[.[.[.[.",
"[.[.[.[.[.[.[.[.[.[.[.[.[.[.[.[.[.[.[.[.[.[.[.[.[.[.[.[.[.[.[.[.[.[.[.[.[.[.[.[.[.[.[.[.[.[.[.[.[.[.[.[.[.[.[.[.[.[.[.[.[.[.[.[.",
"[.[.[.[.[.[.[.[.[.[.[.[.[.[.[.[.[.[.[.[.[.[.[.[.[.[.[.[.[.[.[.[.[.[.[.[.[.[.[.[.[.[.[.[.[.[.[.[.[.[.[.[.[.[.[.[.[.[.[.[.[.[.[.[.",
"[.[.[.[.[.[.[.[.[.[.[.[.[.[.[.[.[.[.[.[.[.[.[.[.[.[.[.[.[.[.[.[.[.[.[.[.[.[.[.[.[.[.[.[.[.[.[.[.[.[.[.[.[.[.[.[.[.[.[.[.[.[.[.[.",
"[.[.[.[.[.[.[.[.[.[.[.[.[.[.[.[.[.[.[.[.[.[.[.[.[.[.[.[.[.[.[.[.[.[.[.[.[.[.[.[.[.[.[.[.[.[.[.[.[.[.[.[.[.[.[.[.[.[.[.[.[.[.[.[.",
"[.[.[.[.[.[.[.[.[.[.[.[.[.[.[.[.[.[.[.[.[.[.[.[.[.[.[.[.[.[.[.[.[.[.[.[.[.[.[.[.[.[.[.[.[.[.[.[.[.[.[.[.[.[.[.[.[.[.[.[.[.[.[.[.",
"[.[.[.[.[.[.[.[.[.[.[.[.[.[.[.[.[.[.[.[.[.[.[.[.[.[.[.[.[.[.[.[.[.[.[.[.[.[.[.[.[.[.[.[.[.[.[.[.[.[.[.[.[.[.[.[.[.[.[.[.[.[.[.[.",
"[.[.[.[.[.[.[.[.[.[.[.[.[.[.[.[.[.[.[.[.[.[.[.[.[.[.[.[.[.[.[.[.[.[.[.[.[.[.[.[.[.[.[.[.[.[.[.[.[.[.[.[.[.[.[.[.[.[.[.[.[.[.[.[.",
"[.[.[.[.[.[.[.[.[.[.[.[.[.[.[.[.[.[.[.[.[.[.[.[.[.[.[.[.[.[.[.[.[.[.[.[.[.[.[.[.[.[.[.[.[.[.[.[.[.[.[.[.[.[.[.[.[.[.[.[.[.[.[.[.",
"[.[.[.[.[.[.[.[.[.[.[.[.[.[.[.[.[.[.[.[.[.[.[.[.[.[.[.[.[.[.[.[.[.[.[.[.[.[.[.[.[.[.[.[.[.[.[.[.[.[.[.[.[.[.[.[.[.[.[.[.[.[.[.[.",
"[.[.[.[.[.[.[.[.[.[.[.[.[.[.[.[.[.[.[.[.[.[.[.[.[.[.[.[.[.[.[.[.[.[.[.[.[.[.[.[.[.[.[.[.[.[.[.[.[.[.[.[.[.[.[.[.[.[.[.[.[.[.[.[.",
"[.[.[.[.[.[.[.[.[.[.[.[.[.[.[.[.[.[.[.[.[.[.[.[.[.[.[.[.                    [.[.[.[.[.[.[.[.[.[.[.[.[.[.[.[.[.[.[.[.[.[.[.[.[.[.",
"[.[.[.[.[.[.[.[.[.[.[.[.[.[.[.[.[.[.[.[.[.[.[.[.[.[.[.[.@ @ @ O @ @ @ @ @ @ [.[.[.[.[.[.[.[.[.[.[.[.[.[.[.[.[.[.[.[.[.[.[.[.[.[.",
"[.[.[.[.[.[.[.[.[.[.[.[.[.[.[.[.[.[.[.[.[.[.[.[.[.[.  @ 7 j 8 8 8 8 8 8 8 < o   [.[.[.[.[.[.[.[.[.[.[.[.[.[.[.[.[.[.[.[.[.[.[.[.",
"[.[.[.[.[.[.[.[.[.[.[.[.[.[.[.[.[.[.[.[.[.[.[.[.[.[.@ : M ] A B B c k v C x 2 $ [.[.[.[.[.[.[.[.[.[.[.[.[.[.[.[.[.[.[.[.[.[.[.[.",
"[.[.[.[.[.[.[.[.[.[.[.[.[.[.[.[.[.[.[.[.[.[.[.[.  @ 7 M +.+.Q A B v v v C W X.T $   [.[.[.[.[.[.[.[.[.[.[.[.[.[.[.[.[.[.[.[.[.[.",
"[.[.[.[.[.[.[.[.[.[.[.[.[.[.[.[.[.[.[.[.[.[.[.[.+ ; c %.q.q.] A B c v C Q O.w...9 $ [.[.[.[.[.[.[.[.[.[.[.[.[.[.[.[.[.[.[.[.[.[.",
"[.[.[.[.[.[.[.[.[.[.[.[.[.[.[.[.[.[.[.[.[.[.  + < j C ] q.q.] C v c B Q +.w.y.y...T *   [.[.[.[.[.[.[.[.[.[.[.[.[.[.[.[.[.[.[.[.",
"[.[.[.[.[.[.[.[.[.[.[.[.[.[.[.[.[.[.[.[.[.[.  @ 8 B C ] q.q.] C B C Q O.w.y.y.h.h.| *   [.[.[.[.[.[.[.[.[.[.[.[.[.[.[.[.[.[.[.[.",
"[.[.[.[.[.[.[.[.[.[.[.[.[.[.[.[.[.[.[.[.[.[.  @ 8 v C ] q.q.] C C ` 6.s.h.y.y.h.h.| *   [.[.[.[.[.[.[.[.[.[.[.[.[.[.[.[.[.[.[.[.",
"[.[.[.[.[.[.[.[.[.[.[.[.[.[.[.[.[.[.[.[.[.[.  @ 8 C ` O.w.q.] A ] 5.z.v.h.y.y.y.y.| *   [.[.[.[.[.[.[.[.[.[.[.[.[.[.[.[.[.[.[.[.",
"[.[.[.[.[.[.[.[.[.[.[.[.[.[.[.[.[.[.[.[.[.[.  @ j Q ;.w.z.s.] ] p.x.n.n.c.z.y.y.y.| *   [.[.[.[.[.[.[.[.[.[.[.[.[.[.[.[.[.[.[.[.",
"[.[.[.[.[.[.[.[.[.[.[.[.[.[.[.[.[.[.[.[.[.[.  # N -.f.c.v.s.] ] j.J.J.n.n.v.z.z.h.} *   [.[.[.[.[.[.[.[.[.[.[.[.[.[.[.[.[.[.[.[.",
"[.[.[.[.[.[.[.[.[.[.[.[.[.[.[.[.[.[.[.[.[.[.  $ ^ f.h.n.F.j.%.] x.J.J.n.J.F.v.c.z.} *   [.[.[.[.[.[.[.[.[.[.[.[.[.[.[.[.[.[.[.[.",
"[.[.[.[.[.[.[.[.[.[.[.[.[.[.[.[.[.[.[.[.[.[.  * | y.0...1.2.O.-.a.b.n.v.e.>.>.1.y.| *   [.[.[.[.[.[.[.[.[.[.[.[.[.[.[.[.[.[.[.[.",
"[.[.[.[.[.[.[.[.[.[.[.[.[.[.[.[.[.[.[.[.[.[.  = ..0.u $ % u 1.d.5.6.b.t.u % $ u 0.>.=   [.[.[.[.[.[.[.[.[.[.[.[.[.[.[.[.[.[.[.[.",
"[.[.[.[.[.[.[.[.[.[.[.[.[.[.[.[.[.[.[.[.[.[.  = >.t.g 5 1 p u.x.%.] x.t.T 1 5 R w.1.=   [.[.[.[.[.[.[.[.[.[.[.[.[.[.[.[.[.[.[.[.",
"[.[.[.[.[.[.[.[.[.[.[.[.[.[.[.[.[.[.[.[.[.[.  = >.J.).^.G.D.G.x.%.] j.F.D.G.~.).J. .=   [.[.[.[.[.[.[.[.[.[.[.[.[.[.[.[.[.[.[.[.",
"[.[.[.[.[.[.[.[.[.[.[.[.[.[.[.[.[.[.[.[.[.[.  = >.I.'.].`.T.L.x.5.-.p.m.T.`.].'.E...=   [.[.[.[.[.[.[.[.[.[.[.[.[.[.[.[.[.[.[.[.",
"[.[.[.[.[.[.[.[.[.[.[.[.[.[.[.[.[.[.[.[.[.[.  = >.K.~.~.I.L.H.n.x.a.-.6.m.U.^.~.K.1.=   [.[.[.[.[.[.[.[.[.[.[.[.[.[.[.[.[.[.[.[.",
"[.[.[.[.[.[.[.[.[.[.[.[.[.[.[.[.[.[.[.[.[.[.  = 0.n.J.n.M.n.F.J.J.x.5.<.p.j.n.J.F.0.=   [.[.[.[.[.[.[.[.[.[.[.[.[.[.[.[.[.[.[.[.",
"[.[.[.[.[.[.[.[.[.[.[.[.[.[.[.[.[.[.[.[.[.[.  & ..c.n.J.J.n.N.F.n.n.x.p.-.5.x.J.v...*   [.[.[.[.[.[.[.[.[.[.[.[.[.[.[.[.[.[.[.[.",
"[.[.[.[.[.[.[.[.[.[.[.[.[.[.[.[.[.[.[.[.[.[.O : ^ t.c.J.K.K.J.J.I.I.J.b.7.7.d.t.@.T *   [.[.[.[.[.[.[.[.[.[.[.[.[.[.[.[.[.[.[.[.",
"[.[.[.[.[.[.[.[.[.[.[.[.[.[.[.[.[.[.[.[.  o < y ! o.t.F.^._.K.K._._.K.K.W.R.7.M 3 % [.[.[.[.[.[.[.[.[.[.[.[.[.[.[.[.[.[.[.[.[.[.",
"[.[.[.[.[.[.[.[.[.[.[.[.[.[.[.[.[.[.[.[.o ; h V D ( o.h.W._.W.W.Q.Q.E.W.!.A.*.r @   [.[.[.[.[.[.[.[.[.[.[.[.[.[.[.[.[.[.[.[.[.[.",
"[.[.[.[.[.[.[.[.[.[.[.[.[.[.[.[.[.[.  + < h c V n G !  .h.T._.Q.C.C.!.(.Z.#.A e X   [.[.[.[.[.[.[.[.[.[.[.[.[.[.[.[.[.[.[.[.[.[.",
"[.[.[.[.[.[.[.[.[.[.[.[.[.[.[.[.[.[.1 3 x v v n S f a S ..h.^.Y.V.B.S.S.#.k 8 > X   [.[.[.[.[.[.[.[.[.[.[.[.[.[.[.[.[.[.[.[.[.[.",
"[.[.[.[.[.[.[.[.[.[.[.[.[.[.[.[.  -  .2.Z c n D S a y b S  .z.g.I z V.#.C 8 & X [.[.[.[.[.[.[.[.[.[.[.[.[.[.[.[.[.[.[.[.[.[.[.[.",
"[.[.[.[.[.[.[.[.[.[.[.[.[.[.[.[.  = 1.j.<.J y t y a y a a S  .+.&.I l B n 0 X   [.[.[.[.[.[.[.[.[.[.[.[.[.[.[.[.[.[.[.[.[.[.[.[.",
"[.[.[.[.[.[.[.[.[.[.[.[.[.[.[.[.  % g 4.k.4.0 & r y a a y f s _ p.7.Z n S r X       [.[.[.[.[.[.[.[.[.[.[.[.[.[.[.[.[.[.[.[.[.[.",
"[.[.[.[.[.[.[.[.[.[.[.[.[.[.[.[.  X r :.k.1.= . 4 y a x y a F { a.7./ S G y - X X X [.[.[.[.[.[.[.[.[.[.[.[.[.[.[.[.[.[.[.[.[.[.",
"[.[.[.[.[.[.[.[.[.[.[.[.[.[.[.[.  @ y G :.g @ X 4 y r r r F 1.p.=.$.Z S F S t r t 0 X   [.[.[.[.[.[.[.[.[.[.[.[.[.[.[.[.[.[.[.[.",
"[.[.[.[.[.[.[.[.[.[.[.[.[.[.[.[.  @ y H G r X X > r r r e s 1.5.L k y r r f :.,.,.g %   [.[.[.[.[.[.[.[.[.[.[.[.[.[.[.[.[.[.[.[.",
"[.[.[.[.[.[.[.[.[.[.[.[.[.[.[.[.  X t G G r X . > r r r e y s b x 7 & X X q e.N.N.1.=   [.[.[.[.[.[.[.[.[.[.[.[.[.[.[.[.[.[.[.[.",
"[.[.[.[.[.[.[.[.[.[.[.[.[.[.[.[.  X t F G r X X 6 b b d b s N b a t : X   % ) u.u. .=   [.[.[.[.[.[.[.[.[.[.[.[.[.[.[.[.[.[.[.[.",
"[.[.[.[.[.[.[.[.[.[.[.[.[.[.[.[.  X t G G r X # m O.[ [ O.[ [ [ [ [ ' i #   * 1 1 1 [.[.[.[.[.[.[.[.[.[.[.[.[.[.[.[.[.[.[.[.[.[.",
"[.[.[.[.[.[.[.[.[.[.[.[.[.[.[.[.  % g ,.:.s # # E i.6.6.;.;.;.;.6.6.6.' 6 X         [.[.[.[.[.[.[.[.[.[.[.[.[.[.[.[.[.[.[.[.[.[.",
"[.[.[.[.[.[.[.[.[.[.[.[.[.[.[.[.  - 1.N.N.1.& # ~ 6.i.;.;.;.-.+.;.6.6.;.' i X   [.[.[.[.[.[.[.[.[.[.[.[.[.[.[.[.[.[.[.[.[.[.[.[.",
"[.[.[.[.[.[.[.[.[.[.[.[.[.[.[.[.  - ) u.u. .- # d ' +.;.;.;.+.O.;.;.;.;.i.' 6 & [.[.[.[.[.[.[.[.[.[.[.[.[.[.[.[.[.[.[.[.[.[.[.[.",
"[.[.[.[.[.[.[.[.[.[.[.[.[.[.[.[.[.[.- 1 1 1 [.[.# 4 ' ;.;.;.;.;.;.O.;.;.;.;.O.H &   [.[.[.[.[.[.[.[.[.[.[.[.[.[.[.[.[.[.[.[.[.[.",
"[.[.[.[.[.[.[.[.[.[.[.[.[.[.[.[.[.[.        [.[.# 6 [ i.i.5.' E E E [ ;.6.a.l.o.&   [.[.[.[.[.[.[.[.[.[.[.[.[.[.[.[.[.[.[.[.[.[.",
"[.[.[.[.[.[.[.[.[.[.[.[.[.[.[.[.[.[.[.[.[.[.  & E <.a.g.g.<.6 # # 2 E ;.i.g.l.o.=   [.[.[.[.[.[.[.[.[.[.[.[.[.[.[.[.[.[.[.[.[.[.",
"[.[.[.[.[.[.[.[.[.[.[.[.[.[.[.[.[.[.[.[.[.[.  & ~ a.a.8.<.! &     $ ^ i.l.j.5.! &   [.[.[.[.[.[.[.[.[.[.[.[.[.[.[.[.[.[.[.[.[.[.",
"[.[.[.[.[.[.[.[.[.[.[.[.[.[.[.[.[.[.[.[.[.[.  % f :.:.G 5 & [.[.  = 1.m.M.r.i % [.[.[.[.[.[.[.[.[.[.[.[.[.[.[.[.[.[.[.[.[.[.[.[.",
"[.[.[.[.[.[.[.[.[.[.[.[.[.[.[.[.[.[.[.[.[.[.  % f :.:.y @   [.[.  = ) e.e.) *   [.[.[.[.[.[.[.[.[.[.[.[.[.[.[.[.[.[.[.[.[.[.[.[.",
"[.[.[.[.[.[.[.[.[.[.[.[.[.[.[.[.[.[.[.[.[.[.  % :.9.9.:.%   [.[.[.[.= 1 = = [.[.[.[.[.[.[.[.[.[.[.[.[.[.[.[.[.[.[.[.[.[.[.[.[.[.",
"[.[.[.[.[.[.[.[.[.[.[.[.[.[.[.[.[.[.[.[.[.[.  % f 3.3.G %   [.[.[.[.        [.[.[.[.[.[.[.[.[.[.[.[.[.[.[.[.[.[.[.[.[.[.[.[.[.[.",
"[.[.[.[.[.[.[.[.[.[.[.[.[.[.[.[.[.[.[.[.[.[.  X - 0 0 - X   [.[.[.[.        [.[.[.[.[.[.[.[.[.[.[.[.[.[.[.[.[.[.[.[.[.[.[.[.[.[.",
"[.[.[.[.[.[.[.[.[.[.[.[.[.[.[.[.[.[.[.[.[.[.[.[.[.[.[.[.[.[.[.[.[.[.[.[.[.[.[.[.[.[.[.[.[.[.[.[.[.[.[.[.[.[.[.[.[.[.[.[.[.[.[.[.",
"[.[.[.[.[.[.[.[.[.[.[.[.[.[.[.[.[.[.[.[.[.[.[.[.[.[.[.[.[.[.[.[.[.[.[.[.[.[.[.[.[.[.[.[.[.[.[.[.[.[.[.[.[.[.[.[.[.[.[.[.[.[.[.[.",
"[.[.[.[.[.[.[.[.[.[.[.[.[.[.[.[.[.[.[.[.[.[.[.[.[.[.[.[.[.[.[.[.[.[.[.[.[.[.[.[.[.[.[.[.[.[.[.[.[.[.[.[.[.[.[.[.[.[.[.[.[.[.[.[."
};
