/* XPM */
static char *result[] = {
/* columns rows colors chars-per-pixel */
"64 64 183 2 ",
"   c #000000",
".  c #0B0706",
"X  c #0C0807",
"o  c #0D0B0A",
"O  c #100706",
"+  c #110907",
"@  c #120C09",
"#  c #14130E",
"$  c #19170F",
"%  c #14180F",
"&  c #151411",
"*  c #191611",
"=  c #161B12",
"-  c #1A1C16",
";  c #1D1D19",
":  c #22130E",
">  c #251E15",
",  c #251E1B",
"<  c #2A1812",
"1  c #301A14",
"2  c #1D2119",
"3  c #222316",
"4  c #27231C",
"5  c #29241C",
"6  c #27291F",
"7  c #2C291E",
"8  c #36231A",
"9  c #3D231B",
"0  c #28311F",
"q  c #272720",
"w  c #2A2422",
"e  c #312722",
"r  c #332A26",
"t  c #362D28",
"y  c #392F2B",
"u  c #2C3124",
"i  c #3B3725",
"p  c #333E27",
"a  c #343028",
"s  c #3C322C",
"d  c #3E392F",
"f  c #3D3531",
"g  c #3E3A31",
"h  c #43251D",
"j  c #43291F",
"k  c #5A281B",
"l  c #6F301D",
"z  c #7E301A",
"x  c #442B21",
"c  c #4D2D23",
"v  c #532E24",
"b  c #41362C",
"n  c #4A322B",
"m  c #433E2E",
"M  c #4C3D2B",
"N  c #453626",
"B  c #553126",
"V  c #543428",
"C  c #593629",
"Z  c #553B2E",
"A  c #5A3B2B",
"S  c #443631",
"D  c #493631",
"F  c #443B34",
"G  c #483C36",
"H  c #443C39",
"J  c #513D30",
"K  c #602D20",
"L  c #6F3D25",
"P  c #723D26",
"I  c #783F25",
"U  c #38442C",
"Y  c #37442C",
"T  c #3D4132",
"R  c #49442E",
"E  c #44402B",
"W  c #5A422F",
"Q  c #56402E",
"!  c #444030",
"~  c #4B4731",
"^  c #464C33",
"/  c #474238",
"(  c #4A423C",
")  c #444E3A",
"_  c #4D4A3B",
"`  c #4E4831",
"'  c #5D4532",
"]  c #524C34",
"[  c #5D4A35",
"{  c #564F38",
"}  c #584F38",
"|  c #465537",
" . c #475638",
".. c #4A533D",
"X. c #4C5A3D",
"o. c #4C5035",
"O. c #53533E",
"+. c #5B533A",
"@. c #5D5A3D",
"#. c #515E3F",
"$. c #75432C",
"%. c #79452F",
"&. c #624C35",
"*. c #684E3B",
"=. c #704A30",
"-. c #695337",
";. c #62533D",
":. c #6B5539",
">. c #635B3E",
",. c #695D3F",
"<. c #544B43",
"1. c #4D5A40",
"2. c #555245",
"3. c #5C5641",
"4. c #535B44",
"5. c #5A5944",
"6. c #5E534F",
"7. c #5B5C4A",
"8. c #625540",
"9. c #655C41",
"0. c #6C5D45",
"q. c #635C48",
"w. c #665A55",
"e. c #536144",
"r. c #5E6644",
"t. c #5E6A46",
"y. c #57644A",
"u. c #5C664C",
"i. c #5D6B4D",
"p. c #5E734B",
"a. c #5D6950",
"s. c #6A6145",
"d. c #66644A",
"f. c #69644A",
"g. c #636C4B",
"h. c #6B694E",
"j. c #646745",
"k. c #726A4C",
"l. c #62744D",
"z. c #646E54",
"x. c #6B6E54",
"c. c #736E52",
"v. c #647452",
"b. c #6C7355",
"n. c #667954",
"m. c #697B56",
"M. c #6F7658",
"N. c #6D7D5C",
"B. c #737D57",
"V. c #727E5D",
"C. c #737C62",
"Z. c #813F27",
"A. c #82442A",
"S. c #895E41",
"D. c #8B6243",
"F. c #8C7A5A",
"G. c #927655",
"H. c #6B824C",
"J. c #6F825D",
"K. c #748653",
"L. c #71815E",
"P. c #738362",
"I. c #788765",
"U. c #778A60",
"Y. c #7A8A65",
"T. c #7D8C69",
"R. c #7D9267",
"E. c #8E815C",
"W. c #81985D",
"Q. c #848D69",
"!. c #878966",
"~. c #938B67",
"^. c #948F69",
"/. c #83916C",
"(. c #88906D",
"). c #839C60",
"_. c #94906A",
"`. c #899073",
"'. c #8E9A73",
"]. c #95AC6F",
"[. c #A1AB87",
"{. c #A9B689",
"}. c None",
/* pixels */
"}.}.}.}.}.}.}.}.}.}.}.}.}.}.}.}.}.}.}.}.}.}.}.}.}.}.}.}.}.}.}.}.}.}.}.}.}.}.}.}.}.}.}.}.}.}.}.}.}.}.}.}.}.}.}.}.}.}.}.}.}.}.}.}.",
"}.}.}.}.}.}.}.}.}.}.}.}.}.}.}.}.}.}.}.}.}.}.}.}.}.}.}.}.}.}.}.}.}.}.}.}.}.}.}.}.}.}.}.}.}.}.}.}.}.}.}.}.}.}.}.}.}.}.}.}.}.}.}.}.",
"}.}.}.}.}.}.}.}.}.}.}.}.}.}.}.}.}.}.}.}.}.}.}.}.}.}.}.}.}.}.}.}.}.}.}.}.}.}.}.}.}.}.}.}.}.}.}.}.}.}.}.}.}.}.}.}.}.}.}.}.}.}.}.}.",
"}.}.}.}.}.}.}.}.}.}.}.}.}.}.}.}.}.}.}.}.}.}.}.}.}.}.}.}.}.}.}.}.}.}.}.}.}.}.}.}.}.}.}.}.}.}.}.}.}.}.}.}.}.}.}.}.}.}.}.}.}.}.}.}.",
"}.}.}.}.}.}.}.}.}.}.}.}.}.}.}.}.}.}.}.}.}.}.}.}.}.}.}.}.}.}.}.}.}.}.}.}.}.}.}.}.}.}.}.}.}.}.}.}.}.}.}.}.}.}.}.}.}.}.}.}.}.}.}.}.",
"}.}.}.}.}.}.}.}.}.}.}.}.}.}.}.}.}.}.}.}.}.}.}.}.}.}.}.}.}.}.}.}.}.}.}.}.}.}.}.}.}.}.}.}.}.}.}.}.}.}.}.}.}.}.}.}.}.}.}.}.}.}.}.}.",
"}.}.}.}.}.}.}.}.}.}.}.}.}.}.}.}.}.}.}.}.}.}.}.}.}.}.}.}.}.}.}.}.}.}.}.}.}.}.}.}.}.}.}.}.}.}.}.}.}.}.}.}.}.}.}.}.}.}.}.}.}.}.}.}.",
"}.}.}.}.}.}.}.}.}.}.}.}.}.}.}.}.}.}.}.}.}.}.}.}.}.}.}.}.}.}.}.}.}.}.}.}.}.}.}.}.}.}.}.}.}.}.}.}.}.}.}.}.}.}.}.}.}.}.}.}.}.}.}.}.",
"}.}.}.}.}.}.}.}.}.}.}.}.}.}.}.}.}.}.}.}.}.}.}.}.}.}.}.}.}.}.}.}.}.}.}.}.}.}.}.}.}.}.}.}.}.}.}.}.}.}.}.}.}.}.}.}.}.}.}.}.}.}.}.}.",
"}.}.}.}.}.}.}.}.}.}.}.}.}.}.}.}.}.}.}.}.}.}.}.}.}.}.}.}.}.}.}.}.}.}.}.}.}.}.}.}.}.}.}.}.}.}.}.}.}.}.}.}.}.}.}.}.}.}.}.}.}.}.}.}.",
"}.}.}.}.}.}.}.}.}.}.}.}.}.}.}.}.}.}.}.}.}.}.}.}.}.}.}.}.}.}.}.}.}.}.}.}.}.}.}.}.}.}.}.}.}.}.}.}.}.}.}.}.}.}.}.}.}.}.}.}.}.}.}.}.",
"}.}.}.}.}.}.}.}.}.}.}.}.}.}.}.}.}.}.}.}.}.}.}.}.}.}.}.}.}.}.}.}.}.}.}.}.}.}.}.}.}.}.}.}.}.}.}.}.}.}.}.}.}.}.}.}.}.}.}.}.}.}.}.}.",
"}.}.}.}.}.}.}.}.}.}.}.}.}.}.}.}.}.}.}.}.}.}.}.}.}.}.}.}.                    }.}.}.}.}.}.}.}.}.}.}.}.}.}.}.}.}.}.}.}.}.}.}.}.}.}.",
"}.}.}.}.}.}.}.}.}.}.}.}.}.}.}.}.}.}.}.}.}.}.}.}.}.}.}.}.@ @ @ @ @ @ @ + @ + }.}.}.}.}.}.}.}.}.}.}.}.}.}.}.}.}.}.}.}.}.}.}.}.}.}.",
"}.}.}.}.}.}.}.}.}.}.}.}.}.}.}.}.}.}.}.}.}.}.}.}.}.}.  @ 8 j 9 8 9 9 9 h 9 1 O   }.}.}.}.}.}.}.}.}.}.}.}.}.}.}.}.}.}.}.}.}.}.}.}.",
"}.}.}.}.}.}.}.}.}.}.}.}.}.}.}.}.}.}.}.}.}.}.}.}.}.}.@ 1 R W C B v v v v B x 3 $ }.}.}.}.}.}.}.}.}.}.}.}.}.}.}.}.}.}.}.}.}.}.}.}.",
"}.}.}.}.}.}.}.}.}.}.}.}.}.}.}.}.}.}.}.}.}.}.}.}.  @ 8 M @.@.W A B v k v C Q o.Y %   }.}.}.}.}.}.}.}.}.}.}.}.}.}.}.}.}.}.}.}.}.}.",
"}.}.}.}.}.}.}.}.}.}.}.}.}.}.}.}.}.}.}.}.}.}.}.}.X < c [ r.r.' A B c c C W @.t.X.0 % }.}.}.}.}.}.}.}.}.}.}.}.}.}.}.}.}.}.}.}.}.}.",
"}.}.}.}.}.}.}.}.}.}.}.}.}.}.}.}.}.}.}.}.}.}.  + 1 j C [ r.r.[ A B c C W @.t.l.t.X.Y =   }.}.}.}.}.}.}.}.}.}.}.}.}.}.}.}.}.}.}.}.",
"}.}.}.}.}.}.}.}.}.}.}.}.}.}.}.}.}.}.}.}.}.}.  @ 9 B C [ r.r.[ A B C W @.t.p.p.p.l. .=   }.}.}.}.}.}.}.}.}.}.}.}.}.}.}.}.}.}.}.}.",
"}.}.}.}.}.}.}.}.}.}.}.}.}.}.}.}.}.}.}.}.}.}.  @ 9 B C [ r.r.[ C C ' 5.g.p.p.p.p.l. .=   }.}.}.}.}.}.}.}.}.}.}.}.}.}.}.}.}.}.}.}.",
"}.}.}.}.}.}.}.}.}.}.}.}.}.}.}.}.}.}.}.}.}.}.  @ 9 C W +.j.u.[ A ' 8.v.m.n.p.p.p.l. .=   }.}.}.}.}.}.}.}.}.}.}.}.}.}.}.}.}.}.}.}.",
"}.}.}.}.}.}.}.}.}.}.}.}.}.}.}.}.}.}.}.}.}.}.  @ j W @.t.v.g.[ &.d.b.N.N.n.l.p.p.p. .=   }.}.}.}.}.}.}.}.}.}.}.}.}.}.}.}.}.}.}.}.",
"}.}.}.}.}.}.}.}.}.}.}.}.}.}.}.}.}.}.}.}.}.}.  # N +.g.n.m.g.[ &.b.P.P.V.J.m.n.l.l. .=   }.}.}.}.}.}.}.}.}.}.}.}.}.}.}.}.}.}.}.}.",
"}.}.}.}.}.}.}.}.}.}.}.}.}.}.}.}.}.}.}.}.}.}.  = ^ g.l.m.J.b.[ &.b.J.P.V.C.L.m.n.l. .=   }.}.}.}.}.}.}.}.}.}.}.}.}.}.}.}.}.}.}.}.",
"}.}.}.}.}.}.}.}.}.}.}.}.}.}.}.}.}.}.}.}.}.}.  =  .l.e.4.4.4.} ;.f.b.N.m.i.1.1.1.p. .=   }.}.}.}.}.}.}.}.}.}.}.}.}.}.}.}.}.}.}.}.",
"}.}.}.}.}.}.}.}.}.}.}.}.}.}.}.}.}.}.}.}.}.}.  = X.e.0 % % u 4.f.8.q.b.i.u = & u e.X.-   }.}.}.}.}.}.}.}.}.}.}.}.}.}.}.}.}.}.}.}.",
"}.}.}.}.}.}.}.}.}.}.}.}.}.}.}.}.}.}.}.}.}.}.  - 1.u.T 6 3 Y i.x.&.[ b.z.Y 2 q T i.1.-   }.}.}.}.}.}.}.}.}.}.}.}.}.}.}.}.}.}.}.}.",
"}.}.}.}.}.}.}.}.}.}.}.}.}.}.}.}.}.}.}.}.}.}.  - X.P.`.(.K.H.J.x.&.[ x.J.H.K./.(.P.X.-   }.}.}.}.}.}.}.}.}.}.}.}.}.}.}.}.}.}.}.}.",
"}.}.}.}.}.}.}.}.}.}.}.}.}.}.}.}.}.}.}.}.}.}.  = 1.T.[.{.].).U.b.8.;.d.B.R.].{.[.T.1.-   }.}.}.}.}.}.}.}.}.}.}.}.}.}.}.}.}.}.}.}.",
"}.}.}.}.}.}.}.}.}.}.}.}.}.}.}.}.}.}.}.}.}.}.  ; 4.I././.T.U.P.N.b.f.;.8.K.R././.U.4.;   }.}.}.}.}.}.}.}.}.}.}.}.}.}.}.}.}.}.}.}.",
"}.}.}.}.}.}.}.}.}.}.}.}.}.}.}.}.}.}.}.}.}.}.  ; e.L.N.J.N.L.J.P.C.m.8.;.d.b.J.J.J.4.-   }.}.}.}.}.}.}.}.}.}.}.}.}.}.}.}.}.}.}.}.",
"}.}.}.}.}.}.}.}.}.}.}.}.}.}.}.}.}.}.}.}.}.}.  *  .m.J.L.V.L.V.L.L.N.b.d.8.8.b.L.m.X.=   }.}.}.}.}.}.}.}.}.}.}.}.}.}.}.}.}.}.}.}.",
"}.}.}.}.}.}.}.}.}.}.}.}.}.}.}.}.}.}.}.}.}.}.@ < | t.v.L.I.I.P.P.Y.Y.P.M.0.0.h.z.X.Y =   }.}.}.}.}.}.}.}.}.}.}.}.}.}.}.}.}.}.}.}.",
"}.}.}.}.}.}.}.}.}.}.}.}.}.}.}.}.}.}.}.}.  + 1 r G O.i.L.'.'.U.I.'.'.I.I.(.F.0.M 4 = }.}.}.}.}.}.}.}.}.}.}.}.}.}.}.}.}.}.}.}.}.}.",
"}.}.}.}.}.}.}.}.}.}.}.}.}.}.}.}.}.}.}.}.X : x V D / O.l./.'./.!.~.~.Q.Q._.F.*.r @   }.}.}.}.}.}.}.}.}.}.}.}.}.}.}.}.}.}.}.}.}.}.",
"}.}.}.}.}.}.}.}.}.}.}.}.}.}.}.}.}.}.  O 1 h c v D S F ..l.Y.'.~.S.S.^.^.D.%.Z e o   }.}.}.}.}.}.}.}.}.}.}.}.}.}.}.}.}.}.}.}.}.}.",
"}.}.}.}.}.}.}.}.}.}.}.}.}.}.}.}.}.}.- 5 x v v n S S s b O.v./.E.A.Z.G.G.%.k 9 , o   }.}.}.}.}.}.}.}.}.}.}.}.}.}.}.}.}.}.}.}.}.}.",
"}.}.}.}.}.}.}.}.}.}.}.}.}.}.}.}.  ; ..5.Z v n S S s s d b ..l.k.I Z.A.%.C r * o }.}.}.}.}.}.}.}.}.}.}.}.}.}.}.}.}.}.}.}.}.}.}.}.",
"}.}.}.}.}.}.}.}.}.}.}.}.}.}.}.}.  ; 4.x.8.J s t y s s y s m ..@.=.z l K n w o   }.}.}.}.}.}.}.}.}.}.}.}.}.}.}.}.}.}.}.}.}.}.}.}.",
"}.}.}.}.}.}.}.}.}.}.}.}.}.}.}.}.  & g 7.x.2.q * e b y b y b g _ s.0.J n S r o       }.}.}.}.}.}.}.}.}.}.}.}.}.}.}.}.}.}.}.}.}.}.",
"}.}.}.}.}.}.}.}.}.}.}.}.}.}.}.}.  o w <.x.4.- X 5 s y y y y g <.v.z.( f F y ; o o o }.}.}.}.}.}.}.}.}.}.}.}.}.}.}.}.}.}.}.}.}.}.",
"}.}.}.}.}.}.}.}.}.}.}.}.}.}.}.}.  @ t ( <.g & . , t t t r S 4.z.N.z._ F H f y t r w @   }.}.}.}.}.}.}.}.}.}.}.}.}.}.}.}.}.}.}.}.",
"}.}.}.}.}.}.}.}.}.}.}.}.}.}.}.}.  o t H H t o X 4 r r 9 r F g.N.z.4.g t r f _ 2.2.g &   }.}.}.}.}.}.}.}.}.}.}.}.}.}.}.}.}.}.}.}.",
"}.}.}.}.}.}.}.}.}.}.}.}.}.}.}.}.  o r G H t o o , t r r e F z.z._ t - o o q 7.C.C.4.;   }.}.}.}.}.}.}.}.}.}.}.}.}.}.}.}.}.}.}.}.",
"}.}.}.}.}.}.}.}.}.}.}.}.}.}.}.}.o ; y F s , X o , r r r e d 4.4.f , .     - ..a.u.1.;   }.}.}.}.}.}.}.}.}.}.}.}.}.}.}.}.}.}.}.}.",
"}.}.}.}.}.}.}.}.}.}.}.}.}.}.  o w s F y ; o   o 4 r r e r t d d t > .   }.}.; 2 ; ; }.}.}.}.}.}.}.}.}.}.}.}.}.}.}.}.}.}.}.}.}.}.",
"}.}.}.}.}.}.}.}.}.}.}.}.}.}.  @ t H H r o     o 7 b b b b b i i d a > % }.}.        }.}.}.}.}.}.}.}.}.}.}.}.}.}.}.}.}.}.}.}.}.}.",
"}.}.}.}.}.}.}.}.}.}.}.}.}.}.  # u H H r o     # m +.+.} } +.{ [ +.{ ] i #   }.}.}.}.}.}.}.}.}.}.}.}.}.}.}.}.}.}.}.}.}.}.}.}.}.}.",
"}.}.}.}.}.}.}.}.}.}.}.}.}.}.  & f <.2.g &     = ` 0.,.>.j.>.>.>.-.:.,.] 5 # }.}.}.}.}.}.}.}.}.}.}.}.}.}.}.}.}.}.}.}.}.}.}.}.}.}.",
"}.}.}.}.}.}.}.}.}.}.}.}.}.}.  - 2.C.C.4.;     * ` ,.s.>.>.>.@.&.L $.:.@.] i #   }.}.}.}.}.}.}.}.}.}.}.}.}.}.}.}.}.}.}.}.}.}.}.}.",
"}.}.}.}.}.}.}.}.}.}.}.}.}.}.  ; 1.a.a.1.;     & i ] @.>.>.;.>.&.L P -.>.s.] 7 & }.}.}.}.}.}.}.}.}.}.}.}.}.}.}.}.}.}.}.}.}.}.}.}.",
"}.}.}.}.}.}.}.}.}.}.}.}.}.}.}.}.; 2 2 ; }.}.}.}.# 3 ] 9.>.>.>.;.&.&.>.>.9.>.+.F *   }.}.}.}.}.}.}.}.}.}.}.}.}.}.}.}.}.}.}.}.}.}.",
"}.}.}.}.}.}.}.}.}.}.}.}.}.}.}.}.        }.}.}.}.$ 7 { s.s.>.] R E R +.>.9.f.c.{ -   }.}.}.}.}.}.}.}.}.}.}.}.}.}.}.}.}.}.}.}.}.}.",
"}.}.}.}.}.}.}.}.}.}.}.}.}.}.}.}.}.}.}.}.}.}.  * m 3.f.c.k.+.q $ # 3 R >.s.k.c.+.-   }.}.}.}.}.}.}.}.}.}.}.}.}.}.}.}.}.}.}.}.}.}.",
"}.}.}.}.}.}.}.}.}.}.}.}.}.}.}.}.}.}.}.}.}.}.  * ] f.q.q.3.F *     $ R j.c.x.3.m *   }.}.}.}.}.}.}.}.}.}.}.}.}.}.}.}.}.}.}.}.}.}.",
"}.}.}.}.}.}.}.}.}.}.}.}.}.}.}.}.}.}.}.}.}.}.  & S <.<.g 6 * }.}.  * 4.V.L.u.r $ }.}.}.}.}.}.}.}.}.}.}.}.}.}.}.}.}.}.}.}.}.}.}.}.",
"}.}.}.}.}.}.}.}.}.}.}.}.}.}.}.}.}.}.}.}.}.}.  & f <.<.f @   }.}.  2 ) y.y.) =   }.}.}.}.}.}.}.}.}.}.}.}.}.}.}.}.}.}.}.}.}.}.}.}.",
"}.}.}.}.}.}.}.}.}.}.}.}.}.}.}.}.}.}.}.}.}.}.  * <.6.w.<.&   }.}.}.}.- 2 - - }.}.}.}.}.}.}.}.}.}.}.}.}.}.}.}.}.}.}.}.}.}.}.}.}.}.",
"}.}.}.}.}.}.}.}.}.}.}.}.}.}.}.}.}.}.}.}.}.}.  & H 6.6.H &   }.}.}.}.        }.}.}.}.}.}.}.}.}.}.}.}.}.}.}.}.}.}.}.}.}.}.}.}.}.}.",
"}.}.}.}.}.}.}.}.}.}.}.}.}.}.}.}.}.}.}.}.}.}.  o ; w w ; X   }.}.}.}.        }.}.}.}.}.}.}.}.}.}.}.}.}.}.}.}.}.}.}.}.}.}.}.}.}.}.",
"}.}.}.}.}.}.}.}.}.}.}.}.}.}.}.}.}.}.}.}.}.}.}.}.}.}.}.}.}.}.}.}.}.}.}.}.}.}.}.}.}.}.}.}.}.}.}.}.}.}.}.}.}.}.}.}.}.}.}.}.}.}.}.}.",
"}.}.}.}.}.}.}.}.}.}.}.}.}.}.}.}.}.}.}.}.}.}.}.}.}.}.}.}.}.}.}.}.}.}.}.}.}.}.}.}.}.}.}.}.}.}.}.}.}.}.}.}.}.}.}.}.}.}.}.}.}.}.}.}.",
"}.}.}.}.}.}.}.}.}.}.}.}.}.}.}.}.}.}.}.}.}.}.}.}.}.}.}.}.}.}.}.}.}.}.}.}.}.}.}.}.}.}.}.}.}.}.}.}.}.}.}.}.}.}.}.}.}.}.}.}.}.}.}.}."
};
