/* XPM */
static char *result[] = {
/* columns rows colors chars-per-pixel */
"64 64 187 2 ",
"   c #000000",
".  c #0C0707",
"X  c #0E0A07",
"o  c #0D0B0A",
"O  c #150704",
"+  c #190703",
"@  c #110907",
"#  c #180804",
"$  c #120C0A",
"%  c #0F120C",
"&  c #14130D",
"*  c #18160F",
"=  c #12180F",
"-  c #151311",
";  c #161A12",
":  c #191C15",
">  c #1D1D19",
",  c #22130F",
"<  c #35190F",
"1  c #231F18",
"2  c #2F1A14",
"3  c #301B14",
"4  c #1D2119",
"5  c #242217",
"6  c #25221C",
"7  c #2B251B",
"8  c #24291A",
"9  c #2D2A19",
"0  c #342018",
"q  c #3D221B",
"w  c #312C1D",
"e  c #262120",
"r  c #2A2523",
"t  c #272820",
"y  c #2A2C22",
"u  c #3C2721",
"i  c #332925",
"p  c #3E2821",
"a  c #362D29",
"s  c #3A2E2A",
"d  c #2C3224",
"f  c #333027",
"g  c #3C3726",
"h  c #37312C",
"j  c #3C322C",
"k  c #3E392F",
"l  c #333E27",
"z  c #3E3A32",
"x  c #48180C",
"c  c #46160A",
"v  c #5C1E0F",
"b  c #5C1F10",
"n  c #43251D",
"m  c #42291F",
"M  c #572819",
"N  c #522115",
"B  c #452C22",
"V  c #4C2D24",
"C  c #532E24",
"Z  c #463827",
"A  c #41342B",
"S  c #4D342C",
"D  c #443E2B",
"F  c #4E3B2F",
"G  c #493525",
"H  c #553126",
"J  c #5D3721",
"K  c #553529",
"L  c #593629",
"P  c #5B3A2B",
"I  c #543B2D",
"U  c #423530",
"Y  c #443B33",
"T  c #453D39",
"R  c #493E35",
"E  c #533E31",
"W  c #6B3B27",
"Q  c #693B28",
"!  c #36422B",
"~  c #38442D",
"^  c #4B442E",
"/  c #46462E",
"(  c #56412E",
")  c #5B412F",
"_  c #464136",
"`  c #4C4533",
"'  c #464D34",
"]  c #4A433B",
"[  c #4B4E3A",
"{  c #4E4C36",
"}  c #5C4531",
"|  c #534C34",
" . c #5E4A34",
".. c #534A38",
"X. c #465537",
"o. c #4B5135",
"O. c #47553A",
"+. c #4B543B",
"@. c #4C5B3C",
"#. c #56563E",
"$. c #5D543A",
"%. c #5D5A3D",
"&. c #794126",
"*. c #604C37",
"=. c #614C39",
"-. c #764933",
";. c #61543D",
":. c #635B3E",
">. c #655337",
",. c #656E3E",
"<. c #4E4540",
"1. c #534B43",
"2. c #564C48",
"3. c #495440",
"4. c #4E5B41",
"5. c #525242",
"6. c #5B5442",
"7. c #535C46",
"8. c #5D5A44",
"9. c #5E534E",
"0. c #5C5A4A",
"q. c #5F5450",
"w. c #614F40",
"e. c #645540",
"r. c #655D41",
"t. c #6E5D45",
"y. c #5C6645",
"u. c #5E6A46",
"i. c #5A654C",
"p. c #5C6A4C",
"a. c #546444",
"s. c #5F724A",
"d. c #5D6951",
"f. c #626142",
"g. c #696144",
"h. c #616A47",
"j. c #64644C",
"k. c #6A644B",
"l. c #636C4B",
"z. c #6B6A4E",
"x. c #726A4C",
"c. c #62744D",
"v. c #616651",
"b. c #636C53",
"n. c #6B6E53",
"m. c #647552",
"M. c #6B7355",
"N. c #667953",
"B. c #697B56",
"V. c #6E735A",
"C. c #6D7D5C",
"Z. c #727B5F",
"A. c #777957",
"S. c #707A60",
"D. c #81331D",
"F. c #84442B",
"G. c #895E41",
"H. c #8C6344",
"J. c #8B7556",
"K. c #957654",
"L. c #6B814C",
"P. c #6F815D",
"I. c #70815E",
"U. c #788854",
"Y. c #738361",
"T. c #788765",
"R. c #778B60",
"E. c #7A8A65",
"W. c #7D9266",
"Q. c #8E815C",
"!. c #888261",
"~. c #838B6B",
"^. c #878D69",
"/. c #938B67",
"(. c #928E69",
"). c #83916B",
"_. c #88916D",
"`. c #839C60",
"'. c #96916B",
"]. c #8E9A73",
"[. c #8B9470",
"{. c #94AB6E",
"}. c #96AF71",
"|. c #A2AC88",
" X c #A8B588",
".X c #AAB88A",
"XX c None",
/* pixels */
"XXXXXXXXXXXXXXXXXXXXXXXXXXXXXXXXXXXXXXXXXXXXXXXXXXXXXXXXXXXXXXXXXXXXXXXXXXXXXXXXXXXXXXXXXXXXXXXXXXXXXXXXXXXXXXXXXXXXXXXXXXXXXXXX",
"XXXXXXXXXXXXXXXXXXXXXXXXXXXXXXXXXXXXXXXXXXXXXXXXXXXXXXXXXXXXXXXXXXXXXXXXXXXXXXXXXXXXXXXXXXXXXXXXXXXXXXXXXXXXXXXXXXXXXXXXXXXXXXXX",
"XXXXXXXXXXXXXXXXXXXXXXXXXXXXXXXXXXXXXXXXXXXXXXXXXXXXXXXXXXXXXXXXXXXXXXXXXXXXXXXXXXXXXXXXXXXXXXXXXXXXXXXXXXXXXXXXXXXXXXXXXXXXXXXX",
"XXXXXXXXXXXXXXXXXXXXXXXXXXXXXXXXXXXXXXXXXXXXXXXXXXXXXXXXXXXXXXXXXXXXXXXXXXXXXXXXXXXXXXXXXXXXXXXXXXXXXXXXXXXXXXXXXXXXXXXXXXXXXXXX",
"XXXXXXXXXXXXXXXXXXXXXXXXXXXXXXXXXXXXXXXXXXXXXXXXXXXXXXXXXXXXXXXXXXXXXXXXXXXXXXXXXXXXXXXXXXXXXXXXXXXXXXXXXXXXXXXXXXXXXXXXXXXXXXXX",
"XXXXXXXXXXXXXXXXXXXXXXXXXXXXXXXXXXXXXXXXXXXXXXXXXXXXXXXXXXXXXXXXXXXXXXXXXXXXXXXXXXXXXXXXXXXXXXXXXXXXXXXXXXXXXXXXXXXXXXXXXXXXXXXX",
"XXXXXXXXXXXXXXXXXXXXXXXXXXXXXXXXXXXXXXXXXXXXXXXXXXXXXXXXXXXXXXXXXXXXXXXXXXXXXXXXXXXXXXXXXXXXXXXXXXXXXXXXXXXXXXXXXXXXXXXXXXXXXXXX",
"XXXXXXXXXXXXXXXXXXXXXXXXXXXXXXXXXXXXXXXXXXXXXXXXXXXXXXXXXXXXXXXXXXXXXXXXXXXXXXXXXXXXXXXXXXXXXXXXXXXXXXXXXXXXXXXXXXXXXXXXXXXXXXXX",
"XXXXXXXXXXXXXXXXXXXXXXXXXXXXXXXXXXXXXXXXXXXXXXXXXXXXXXXXXXXXXXXXXXXXXXXXXXXXXXXXXXXXXXXXXXXXXXXXXXXXXXXXXXXXXXXXXXXXXXXXXXXXXXXX",
"XXXXXXXXXXXXXXXXXXXXXXXXXXXXXXXXXXXXXXXXXXXXXXXXXXXXXXXXXXXXXXXXXXXXXXXXXXXXXXXXXXXXXXXXXXXXXXXXXXXXXXXXXXXXXXXXXXXXXXXXXXXXXXXX",
"XXXXXXXXXXXXXXXXXXXXXXXXXXXXXXXXXXXXXXXXXXXXXXXXXXXXXXXXXXXXXXXXXXXXXXXXXXXXXXXXXXXXXXXXXXXXXXXXXXXXXXXXXXXXXXXXXXXXXXXXXXXXXXXX",
"XXXXXXXXXXXXXXXXXXXXXXXXXXXXXXXXXXXXXXXXXXXXXXXXXXXXXXXXXXXXXXXXXXXXXXXXXXXXXXXXXXXXXXXXXXXXXXXXXXXXXXXXXXXXXXXXXXXXXXXXXXXXXXXX",
"XXXXXXXXXXXXXXXXXXXXXXXXXXXXXXXXXXXXXXXXXXXXXXXXXXXXXXXXXXXXXXXXXXXXXXXXXXXXXXXXXXXXXXXXXXXXXXXXXXXXXXXXXXXXXXXXXXXXXXXXXXXXXXXX",
"XXXXXXXXXXXXXXXXXXXXXXXXXXXXXXXXXXXXXXXXXXXXXXXXXXXXXXXXXXXXXXXXXXXXXXXXXXXXXXXXXXXXXXXXXXXXXXXXXXXXXXXXXXXXXXXXXXXXXXXXXXXXXXXX",
"XXXXXXXXXXXXXXXXXXXXXXXXXXXXXXXXXXXXXXXXXXXXXXXXXXXXXXXXXXXX                    XXXXXXXXXXXXXXXXXXXXXXXXXXXXXXXXXXXXXXXXXXXXXXXX",
"XXXXXXXXXXXXXXXXXXXXXXXXXXXXXXXXXXXXXXXXXXXXXXXXXXXXXXXXXXXX; ; & $ $ $ $ # $ @ XXXXXXXXXXXXXXXXXXXXXXXXXXXXXXXXXXXXXXXXXXXXXXXX",
"XXXXXXXXXXXXXXXXXXXXXXXXXXXXXXXXXXXXXXXXXXXXXXXXXXXXXXXX  ; ! ' Z m q q q q q 3 @   XXXXXXXXXXXXXXXXXXXXXXXXXXXXXXXXXXXXXXXXXXXX",
"XXXXXXXXXXXXXXXXXXXXXXXXXXXXXXXXXXXXXXXXXXXXXXXXXXXXXXXX. 5 { ,. .P H C C C H B 1 = XXXXXXXXXXXXXXXXXXXXXXXXXXXXXXXXXXXXXXXXXXXX",
"XXXXXXXXXXXXXXXXXXXXXXXXXXXXXXXXXXXXXXXXXXXXXXXXXXXX  @ 3 B )  .) L H C C C L ( o.! =   XXXXXXXXXXXXXXXXXXXXXXXXXXXXXXXXXXXXXXXX",
"XXXXXXXXXXXXXXXXXXXXXXXXXXXXXXXXXXXXXXXXXXXXXXXXXXXX@ , n C L P } ) K C C C K  .h.@.d = XXXXXXXXXXXXXXXXXXXXXXXXXXXXXXXXXXXXXXXX",
"XXXXXXXXXXXXXXXXXXXXXXXXXXXXXXXXXXXXXXXXXXXXXXXX  @ 3 n V H L } %.%.) K C H K  .h.u.@.~ =   XXXXXXXXXXXXXXXXXXXXXXXXXXXXXXXXXXXX",
"XXXXXXXXXXXXXXXXXXXXXXXXXXXXXXXXXXXXXXXXXXXXXXXX  $ n C C K ) #.h.u. .L H K } $.h.c.c.X.:   XXXXXXXXXXXXXXXXXXXXXXXXXXXXXXXXXXXX",
"XXXXXXXXXXXXXXXXXXXXXXXXXXXXXXXXXXXXXXXXXXXXXXXX  @ q C L ) %.u.s.y. .K P } y.p.s.s.c.X.;   XXXXXXXXXXXXXXXXXXXXXXXXXXXXXXXXXXXX",
"XXXXXXXXXXXXXXXXXXXXXXXXXXXXXXXXXXXXXXXXXXXXXXXX  $ q L ) $.u.m.c.u.:. .P  .z.L.N.N.s.X.:   XXXXXXXXXXXXXXXXXXXXXXXXXXXXXXXXXXXX",
"XXXXXXXXXXXXXXXXXXXXXXXXXXXXXXXXXXXXXXXXXXXXXXXX  $ n ) %.u.m.m.c.m.M.g. .=.n.C.N.m.c.X.:   XXXXXXXXXXXXXXXXXXXXXXXXXXXXXXXXXXXX",
"XXXXXXXXXXXXXXXXXXXXXXXXXXXXXXXXXXXXXXXXXXXXXXXX  & Z ;.p.m.N.B.B.P.Y.M.=. .M.S.C.C.N.O.:   XXXXXXXXXXXXXXXXXXXXXXXXXXXXXXXXXXXX",
"XXXXXXXXXXXXXXXXXXXXXXXXXXXXXXXXXXXXXXXXXXXXXXXX  ; ' h.m.B.P.S.I.Y.Y.M.=. .n.I.P.P.C.4.:   XXXXXXXXXXXXXXXXXXXXXXXXXXXXXXXXXXXX",
"XXXXXXXXXXXXXXXXXXXXXXXXXXXXXXXXXXXXXXXXXXXXXXXX  = X.N.B.m.i.a.7.a.7.7.$.;.z.b.i.7.4.! %   XXXXXXXXXXXXXXXXXXXXXXXXXXXXXXXXXXXX",
"XXXXXXXXXXXXXXXXXXXXXXXXXXXXXXXXXXXXXXXXXXXXXXXX  : O.N.I.p.d : ; : ; y 7.z.;.( 7 : ; % .   XXXXXXXXXXXXXXXXXXXXXXXXXXXXXXXXXXXX",
"XXXXXXXXXXXXXXXXXXXXXXXXXXXXXXXXXXXXXXXXXXXXXXXX  = ~ a.B.p.d > t y 4 l p.V.=.G 9 8 y 6 o   XXXXXXXXXXXXXXXXXXXXXXXXXXXXXXXXXXXX",
"XXXXXXXXXXXXXXXXXXXXXXXXXXXXXXXXXXXXXXXXXXXXXXXXXXXX= d p.B.i.b.~._.U.L.I.n.=.*.h.U.[.V.6   XXXXXXXXXXXXXXXXXXXXXXXXXXXXXXXXXXXX",
"XXXXXXXXXXXXXXXXXXXXXXXXXXXXXXXXXXXXXXXXXXXXXXXXXXXX  : 7.Y.Y.).|. X}.`.U.n.} >.U.}. X~.y   XXXXXXXXXXXXXXXXXXXXXXXXXXXXXXXXXXXX",
"XXXXXXXXXXXXXXXXXXXXXXXXXXXXXXXXXXXXXXXXXXXXXXXXXXXX  : 7.Y.I.T.W.).W.T.Y.M. . .A.W.).d.4   XXXXXXXXXXXXXXXXXXXXXXXXXXXXXXXXXXXX",
"XXXXXXXXXXXXXXXXXXXXXXXXXXXXXXXXXXXXXXXXXXXXXXXXXXXX  : 7.I.Y.I.S.S.C.I.I.M.r.6.j.M.N.@.:   XXXXXXXXXXXXXXXXXXXXXXXXXXXXXXXXXXXX",
"XXXXXXXXXXXXXXXXXXXXXXXXXXXXXXXXXXXXXXXXXXXXXXXX      : @.N.Z.I.I.S.P.I.Y.C.M.k.=.;.l.4.:   XXXXXXXXXXXXXXXXXXXXXXXXXXXXXXXXXXXX",
"XXXXXXXXXXXXXXXXXXXXXXXXXXXXXXXXXXXXXXXXXXXXXXXX$ $ o 5 ' p.N.I.T.E.Y.Y.T.E.Y.V.k.t.k.+.;   XXXXXXXXXXXXXXXXXXXXXXXXXXXXXXXXXXXX",
"XXXXXXXXXXXXXXXXXXXXXXXXXXXXXXXXXXXXXXXXXXXX  @ 3 q i h Y [ p.I.].].Y.R.].].E.T.^.!.t.Z &   XXXXXXXXXXXXXXXXXXXXXXXXXXXXXXXXXXXX",
"XXXXXXXXXXXXXXXXXXXXXXXXXXXXXXXXXXXXXXXXXXXX  @ q H F U s Y +.c.).]._.^././.~.~.'.J.} 0 $   XXXXXXXXXXXXXXXXXXXXXXXXXXXXXXXXXXXX",
"XXXXXXXXXXXXXXXXXXXXXXXXXXXXXXXXXXXXXXXXXXXX  @ q C H S A j z 5.c.E.]./.G.G./.'.H.W 3 $ XXXXXXXXXXXXXXXXXXXXXXXXXXXXXXXXXXXXXXXX",
"XXXXXXXXXXXXXXXXXXXXXXXXXXXXXXXXXXXXXXXXXXXX> 6 B C V V s s s Y #.c.).Q.F.F.K.J.W c +   XXXXXXXXXXXXXXXXXXXXXXXXXXXXXXXXXXXXXXXX",
"XXXXXXXXXXXXXXXXXXXXXXXXXXXXXXXXXXXXXXXX  > 3.7.I V B A j j s j k +.c.x.F.D.F.W < + XXXXXXXXXXXXXXXXXXXXXXXXXXXXXXXXXXXXXXXXXXXX",
"XXXXXXXXXXXXXXXXXXXXXXXXXXXXXXXXXXXXXXXX  : 7.n.w.I U s j j j s a Y y.,.J N v x +   XXXXXXXXXXXXXXXXXXXXXXXXXXXXXXXXXXXXXXXXXXXX",
"XXXXXXXXXXXXXXXXXXXXXXXXXXXXXXXXXXXXXXXX  - Y 0.n.v.] j j s j j h _ v.y.r # + O XXXXXXXXXXXXXXXXXXXXXXXXXXXXXXXXXXXXXXXXXXXXXXXX",
"XXXXXXXXXXXXXXXXXXXXXXXXXXXXXXXXXXXXXXXX  $ i <.b.v.R s s s s j Y 1.v.5.2 + o o XXXXXXXXXXXXXXXXXXXXXXXXXXXXXXXXXXXXXXXXXXXXXXXX",
"XXXXXXXXXXXXXXXXXXXXXXXXXXXXXXXXXXXXXXXX  o a ] <.] j i a a i A 7.i.5.F M N u e $   XXXXXXXXXXXXXXXXXXXXXXXXXXXXXXXXXXXXXXXXXXXX",
"XXXXXXXXXXXXXXXXXXXXXXXXXXXXXXXXXXXXXXXX  $ a T Y U s i w i i k 7.7.h q Q -.w.z -   XXXXXXXXXXXXXXXXXXXXXXXXXXXXXXXXXXXXXXXXXXXX",
"XXXXXXXXXXXXXXXXXXXXXXXXXXXXXXXXXXXXXXXX  o a Y R U a i i i i a A f & 7 8.A.S.7.:   XXXXXXXXXXXXXXXXXXXXXXXXXXXXXXXXXXXXXXXXXXXX",
"XXXXXXXXXXXXXXXXXXXXXXXXXXXXXXXXXXXXXXXX  $ i Y Y U A g k A k k A i : y i.Z.M.+.:   XXXXXXXXXXXXXXXXXXXXXXXXXXXXXXXXXXXXXXXXXXXX",
"XXXXXXXXXXXXXXXXXXXXXXXXXXXXXXXXXXXXXXXX  $ i Y Y R ..$.$. .$...| ^ ^ | f.#.d ; XXXXXXXXXXXXXXXXXXXXXXXXXXXXXXXXXXXXXXXXXXXXXXXX",
"XXXXXXXXXXXXXXXXXXXXXXXXXXXXXXXXXXXXXXXX  - z 2.2.5.r.:.t.:.:.:.:.%.:.:.f.( 7 & XXXXXXXXXXXXXXXXXXXXXXXXXXXXXXXXXXXXXXXXXXXXXXXX",
"XXXXXXXXXXXXXXXXXXXXXXXXXXXXXXXXXXXXXXXX  : 7.S.Z.M.k.:.,.;.:.:.:.:.>.%.:.%.| g &   XXXXXXXXXXXXXXXXXXXXXXXXXXXXXXXXXXXXXXXXXXXX",
"XXXXXXXXXXXXXXXXXXXXXXXXXXXXXXXXXXXXXXXX  : 3.d.d.7.{ | ;.:.r.r.:.:.;.$.:.:.g.^ *   XXXXXXXXXXXXXXXXXXXXXXXXXXXXXXXXXXXXXXXXXXXX",
"XXXXXXXXXXXXXXXXXXXXXXXXXXXXXXXXXXXXXXXXXXXX4 4 > : * 5 ^ :.:.:.:.:.:.;.%.:.:.| *   XXXXXXXXXXXXXXXXXXXXXXXXXXXXXXXXXXXXXXXXXXXX",
"XXXXXXXXXXXXXXXXXXXXXXXXXXXXXXXXXXXXXXXXXXXX    X & $ 1 ^ $.:.g.g.g.g.%.^ D ^ g *   XXXXXXXXXXXXXXXXXXXXXXXXXXXXXXXXXXXXXXXXXXXX",
"XXXXXXXXXXXXXXXXXXXXXXXXXXXXXXXXXXXXXXXXXXXX  o w D D ^ | :.g.z.k.n.x.$.7 * & * XXXXXXXXXXXXXXXXXXXXXXXXXXXXXXXXXXXXXXXXXXXXXXXX",
"XXXXXXXXXXXXXXXXXXXXXXXXXXXXXXXXXXXXXXXXXXXX  * / %.,...^ ^ 8.k.t.r.6.D -       XXXXXXXXXXXXXXXXXXXXXXXXXXXXXXXXXXXXXXXXXXXXXXXX",
"XXXXXXXXXXXXXXXXXXXXXXXXXXXXXXXXXXXXXXXXXXXX  ; o.c.c.@.8 1 Y 2.2.Y 6 - XXXXXXXXXXXXXXXXXXXXXXXXXXXXXXXXXXXXXXXXXXXXXXXXXXXXXXXX",
"XXXXXXXXXXXXXXXXXXXXXXXXXXXXXXXXXXXXXXXXXXXX  ; ! @.O.! % o a <.1.T e - XXXXXXXXXXXXXXXXXXXXXXXXXXXXXXXXXXXXXXXXXXXXXXXXXXXXXXXX",
"XXXXXXXXXXXXXXXXXXXXXXXXXXXXXXXXXXXXXXXXXXXXXXXX= : : %   - h 1.q.q.2.z -   XXXXXXXXXXXXXXXXXXXXXXXXXXXXXXXXXXXXXXXXXXXXXXXXXXXX",
"XXXXXXXXXXXXXXXXXXXXXXXXXXXXXXXXXXXXXXXXXXXXXXXX          o a T 1.q.q.T -   XXXXXXXXXXXXXXXXXXXXXXXXXXXXXXXXXXXXXXXXXXXXXXXXXXXX",
"XXXXXXXXXXXXXXXXXXXXXXXXXXXXXXXXXXXXXXXXXXXXXXXX          . - > e r r > o   XXXXXXXXXXXXXXXXXXXXXXXXXXXXXXXXXXXXXXXXXXXXXXXXXXXX",
"XXXXXXXXXXXXXXXXXXXXXXXXXXXXXXXXXXXXXXXXXXXXXXXXXXXXXXXXXXXXXXXXXXXXXXXXXXXXXXXXXXXXXXXXXXXXXXXXXXXXXXXXXXXXXXXXXXXXXXXXXXXXXXXX",
"XXXXXXXXXXXXXXXXXXXXXXXXXXXXXXXXXXXXXXXXXXXXXXXXXXXXXXXXXXXXXXXXXXXXXXXXXXXXXXXXXXXXXXXXXXXXXXXXXXXXXXXXXXXXXXXXXXXXXXXXXXXXXXXX",
"XXXXXXXXXXXXXXXXXXXXXXXXXXXXXXXXXXXXXXXXXXXXXXXXXXXXXXXXXXXXXXXXXXXXXXXXXXXXXXXXXXXXXXXXXXXXXXXXXXXXXXXXXXXXXXXXXXXXXXXXXXXXXXXX"
};
