/* XPM */
static char *result[] = {
/* columns rows colors chars-per-pixel */
"64 64 188 2 ",
"   c #000000",
".  c #0B0504",
"X  c #0C0807",
"o  c #0D0C0A",
"O  c #150603",
"+  c #1A0602",
"@  c #110907",
"#  c #1B0905",
"$  c #120C09",
"%  c #0F120C",
"&  c #14130D",
"*  c #18160F",
"=  c #12180F",
"-  c #141411",
";  c #161A11",
":  c #191C16",
">  c #1D1D19",
",  c #1C1716",
"<  c #22130F",
"1  c #35190F",
"2  c #201A14",
"3  c #241E1A",
"4  c #2F1A14",
"5  c #301B14",
"6  c #1E2119",
"7  c #242217",
"8  c #24231C",
"9  c #2A251C",
"0  c #24291A",
"q  c #2D2A19",
"w  c #322419",
"e  c #3D221B",
"r  c #282422",
"t  c #272820",
"y  c #2B2B21",
"u  c #332A25",
"i  c #362D29",
"p  c #3A2F2A",
"a  c #2C3324",
"s  c #373222",
"d  c #3A3625",
"f  c #37302C",
"g  c #3C322C",
"h  c #3E392F",
"j  c #333E27",
"k  c #3E3A31",
"l  c #48180C",
"z  c #46160A",
"x  c #5C1E0F",
"c  c #551E10",
"v  c #5C1F10",
"b  c #43251D",
"n  c #42291F",
"m  c #5D2112",
"M  c #732A16",
"N  c #452C22",
"B  c #4C2D24",
"V  c #532E24",
"C  c #463827",
"Z  c #41342B",
"A  c #4D342C",
"S  c #443D2A",
"D  c #493525",
"F  c #553126",
"G  c #5E3721",
"H  c #553529",
"J  c #593629",
"K  c #5B3A2B",
"L  c #543B2D",
"P  c #443732",
"I  c #433C33",
"U  c #483C37",
"Y  c #453E3A",
"T  c #533E31",
"R  c #6B3B27",
"E  c #6F3829",
"W  c #713621",
"Q  c #703F2B",
"!  c #36422B",
"~  c #38442D",
"^  c #4B432E",
"/  c #46452E",
"(  c #56412E",
")  c #5B412F",
"_  c #454135",
"`  c #4D4631",
"'  c #464D34",
"]  c #4E4831",
"[  c #4B443B",
"{  c #434C3A",
"}  c #4B4E3A",
"|  c #5C4531",
" . c #544C34",
".. c #5E4A34",
"X. c #5A443A",
"o. c #504F3F",
"O. c #465537",
"+. c #4B5135",
"@. c #475738",
"#. c #4B533C",
"$. c #4C5B3C",
"%. c #5D543A",
"&. c #5D5A3D",
"*. c #57533D",
"=. c #794126",
"-. c #604C37",
";. c #614C39",
":. c #61543D",
">. c #625B3E",
",. c #655337",
"<. c #656E3E",
"1. c #4D4440",
"2. c #504743",
"3. c #524B42",
"4. c #495440",
"5. c #4E5B41",
"6. c #555345",
"7. c #535C46",
"8. c #5C534E",
"9. c #5B5A47",
"0. c #645540",
"q. c #655D41",
"w. c #6C5E43",
"e. c #6B5F49",
"r. c #6E554D",
"t. c #725D45",
"y. c #675751",
"u. c #5C6645",
"i. c #5E6A46",
"p. c #5A654B",
"a. c #5C6A4C",
"s. c #556346",
"d. c #5F724A",
"f. c #5E6A51",
"g. c #616140",
"h. c #696143",
"j. c #616A47",
"k. c #65634C",
"l. c #6B654B",
"z. c #636C4B",
"x. c #6E694E",
"c. c #736C48",
"v. c #62744D",
"b. c #636C52",
"n. c #6B6E53",
"m. c #626752",
"M. c #647552",
"N. c #6B7355",
"B. c #667953",
"V. c #697B56",
"C. c #6E735A",
"Z. c #6D7D5C",
"A. c #727953",
"S. c #737C62",
"D. c #802F19",
"F. c #81331D",
"G. c #84442B",
"H. c #895E41",
"J. c #8C6344",
"K. c #8B7556",
"L. c #957654",
"P. c #6B814C",
"I. c #6F815D",
"U. c #70815E",
"Y. c #788854",
"T. c #738361",
"R. c #788765",
"E. c #778B60",
"W. c #7A8A65",
"Q. c #7D9266",
"!. c #8E815C",
"~. c #888261",
"^. c #838B6B",
"/. c #878D69",
"(. c #938B67",
"). c #928E69",
"_. c #83916B",
"`. c #88916D",
"'. c #839C60",
"]. c #96916B",
"[. c #8E9A73",
"{. c #8B9470",
"}. c #94AB6E",
"|. c #96AF71",
" X c #A2AC88",
".X c #A8B588",
"XX c #AAB88A",
"oX c None",
/* pixels */
"oXoXoXoXoXoXoXoXoXoXoXoXoXoXoXoXoXoXoXoXoXoXoXoXoXoXoXoXoXoXoXoXoXoXoXoXoXoXoXoXoXoXoXoXoXoXoXoXoXoXoXoXoXoXoXoXoXoXoXoXoXoXoXoX",
"oXoXoXoXoXoXoXoXoXoXoXoXoXoXoXoXoXoXoXoXoXoXoXoXoXoXoXoXoXoXoXoXoXoXoXoXoXoXoXoXoXoXoXoXoXoXoXoXoXoXoXoXoXoXoXoXoXoXoXoXoXoXoXoX",
"oXoXoXoXoXoXoXoXoXoXoXoXoXoXoXoXoXoXoXoXoXoXoXoXoXoXoXoXoXoXoXoXoXoXoXoXoXoXoXoXoXoXoXoXoXoXoXoXoXoXoXoXoXoXoXoXoXoXoXoXoXoXoXoX",
"oXoXoXoXoXoXoXoXoXoXoXoXoXoXoXoXoXoXoXoXoXoXoXoXoXoXoXoXoXoXoXoXoXoXoXoXoXoXoXoXoXoXoXoXoXoXoXoXoXoXoXoXoXoXoXoXoXoXoXoXoXoXoXoX",
"oXoXoXoXoXoXoXoXoXoXoXoXoXoXoXoXoXoXoXoXoXoXoXoXoXoXoXoXoXoXoXoXoXoXoXoXoXoXoXoXoXoXoXoXoXoXoXoXoXoXoXoXoXoXoXoXoXoXoXoXoXoXoXoX",
"oXoXoXoXoXoXoXoXoXoXoXoXoXoXoXoXoXoXoXoXoXoXoXoXoXoXoXoXoXoXoXoXoXoXoXoXoXoXoXoXoXoXoXoXoXoXoXoXoXoXoXoXoXoXoXoXoXoXoXoXoXoXoXoX",
"oXoXoXoXoXoXoXoXoXoXoXoXoXoXoXoXoXoXoXoXoXoXoXoXoXoXoXoXoXoXoXoXoXoXoXoXoXoXoXoXoXoXoXoXoXoXoXoXoXoXoXoXoXoXoXoXoXoXoXoXoXoXoXoX",
"oXoXoXoXoXoXoXoXoXoXoXoXoXoXoXoXoXoXoXoXoXoXoXoXoXoXoXoXoXoXoXoXoXoXoXoXoXoXoXoXoXoXoXoXoXoXoXoXoXoXoXoXoXoXoXoXoXoXoXoXoXoXoXoX",
"oXoXoXoXoXoXoXoXoXoXoXoXoXoXoXoXoXoXoXoXoXoXoXoXoXoXoXoXoXoXoXoXoXoXoXoXoXoXoXoXoXoXoXoXoXoXoXoXoXoXoXoXoXoXoXoXoXoXoXoXoXoXoXoX",
"oXoXoXoXoXoXoXoXoXoXoXoXoXoXoXoXoXoXoXoXoXoXoXoXoXoXoXoXoXoXoXoXoXoXoXoXoXoXoXoXoXoXoXoXoXoXoXoXoXoXoXoXoXoXoXoXoXoXoXoXoXoXoXoX",
"oXoXoXoXoXoXoXoXoXoXoXoXoXoXoXoXoXoXoXoXoXoXoXoXoXoXoXoXoXoXoXoXoXoXoXoXoXoXoXoXoXoXoXoXoXoXoXoXoXoXoXoXoXoXoXoXoXoXoXoXoXoXoXoX",
"oXoXoXoXoXoXoXoXoXoXoXoXoXoXoXoXoXoXoXoXoXoXoXoXoXoXoXoXoXoXoXoXoXoXoXoXoXoXoXoXoXoXoXoXoXoXoXoXoXoXoXoXoXoXoXoXoXoXoXoXoXoXoXoX",
"oXoXoXoXoXoXoXoXoXoXoXoXoXoXoXoXoXoXoXoXoXoXoXoXoXoXoXoXoXoX                    oXoXoXoXoXoXoXoXoXoXoXoXoXoXoXoXoXoXoXoXoXoXoXoX",
"oXoXoXoXoXoXoXoXoXoXoXoXoXoXoXoXoXoXoXoXoXoXoXoXoXoXoXoXoXoX; ; * $ $ @ $ $ $ $ oXoXoXoXoXoXoXoXoXoXoXoXoXoXoXoXoXoXoXoXoXoXoXoX",
"oXoXoXoXoXoXoXoXoXoXoXoXoXoXoXoXoXoXoXoXoXoXoXoXoXoXoXoX  = ~ +.D n b e e e e 5 @   oXoXoXoXoXoXoXoXoXoXoXoXoXoXoXoXoXoXoXoXoXoX",
"oXoXoXoXoXoXoXoXoXoXoXoXoXoXoXoXoXoXoXoXoXoXoXoXoXoXoXoXX 7 +.>...J F V V V F N 3 = oXoXoXoXoXoXoXoXoXoXoXoXoXoXoXoXoXoXoXoXoXoX",
"oXoXoXoXoXoXoXoXoXoXoXoXoXoXoXoXoXoXoXoXoXoXoXoXoXoX  X 5 N ( -.( J F V V F J ( +.~ =   oXoXoXoXoXoXoXoXoXoXoXoXoXoXoXoXoXoXoXoX",
"oXoXoXoXoXoXoXoXoXoXoXoXoXoXoXoXoXoXoXoXoXoXoXoXoXoX@ < b F J K ..) H F B F J ..j.$.a = oXoXoXoXoXoXoXoXoXoXoXoXoXoXoXoXoXoXoXoX",
"oXoXoXoXoXoXoXoXoXoXoXoXoXoXoXoXoXoXoXoXoXoXoXoX  @ 5 b B V J ) &.&.) H V V J | j.d.$.~ ;   oXoXoXoXoXoXoXoXoXoXoXoXoXoXoXoXoXoX",
"oXoXoXoXoXoXoXoXoXoXoXoXoXoXoXoXoXoXoXoXoXoXoXoX  @ b V V J ) &.i.i...J F H | :.i.d.v.@.;   oXoXoXoXoXoXoXoXoXoXoXoXoXoXoXoXoXoX",
"oXoXoXoXoXoXoXoXoXoXoXoXoXoXoXoXoXoXoXoXoXoXoXoX  $ b V H ( &.p.d.i.| K K | q.z.d.d.d.@.;   oXoXoXoXoXoXoXoXoXoXoXoXoXoXoXoXoXoX",
"oXoXoXoXoXoXoXoXoXoXoXoXoXoXoXoXoXoXoXoXoXoXoXoX  $ e J | %.i.M.d.j.&...T ;.b.V.v.v.d.@.;   oXoXoXoXoXoXoXoXoXoXoXoXoXoXoXoXoXoX",
"oXoXoXoXoXoXoXoXoXoXoXoXoXoXoXoXoXoXoXoXoXoXoXoX  $ n ) &.i.v.M.M.M.N.q.....b.Z.V.M.v.@.;   oXoXoXoXoXoXoXoXoXoXoXoXoXoXoXoXoXoX",
"oXoXoXoXoXoXoXoXoXoXoXoXoXoXoXoXoXoXoXoXoXoXoXoX  & D &.i.M.V.Z.Z.Z.T.N.....N.I.I.P.B.$.;   oXoXoXoXoXoXoXoXoXoXoXoXoXoXoXoXoXoX",
"oXoXoXoXoXoXoXoXoXoXoXoXoXoXoXoXoXoXoXoXoXoXoXoX  ; ' j.M.V.Z.U.Z.T.T.N.-.-.n.T.U.U.Z.5.:   oXoXoXoXoXoXoXoXoXoXoXoXoXoXoXoXoXoX",
"oXoXoXoXoXoXoXoXoXoXoXoXoXoXoXoXoXoXoXoXoXoXoXoX  ; O.B.V.M.p.7.s.7.7.7.%.:.l.z.p.s.5.! -   oXoXoXoXoXoXoXoXoXoXoXoXoXoXoXoXoXoX",
"oXoXoXoXoXoXoXoXoXoXoXoXoXoXoXoXoXoXoXoXoXoXoXoX  = @.B.U.p.a ; : - : a 9.n.0.( 9 ; - - .   oXoXoXoXoXoXoXoXoXoXoXoXoXoXoXoXoXoX",
"oXoXoXoXoXoXoXoXoXoXoXoXoXoXoXoXoXoXoXoXoXoXoXoX  = ~ s.V.f.a > t y 6 j a.N.;.D q 0 y 8 X   oXoXoXoXoXoXoXoXoXoXoXoXoXoXoXoXoXoX",
"oXoXoXoXoXoXoXoXoXoXoXoXoXoXoXoXoXoXoXoXoXoXoXoXoXoX= a a.V.p.b.^.`.Y.P.U.N.....<.Y.`.C.8   oXoXoXoXoXoXoXoXoXoXoXoXoXoXoXoXoXoX",
"oXoXoXoXoXoXoXoXoXoXoXoXoXoXoXoXoXoXoXoXoXoXoXoXoXoX  : 7.T.T._. X X|.'.Y.n...,.Y.|.XX^.y   oXoXoXoXoXoXoXoXoXoXoXoXoXoXoXoXoXoX",
"oXoXoXoXoXoXoXoXoXoXoXoXoXoXoXoXoXoXoXoXoXoXoXoXoXoX  : s.T.T.R.^._.Q.E.T.N...;.A.Q.^.f.6   oXoXoXoXoXoXoXoXoXoXoXoXoXoXoXoXoXoX",
"oXoXoXoXoXoXoXoXoXoXoXoXoXoXoXoXoXoXoXoXoXoXoXoXoXoX  6 7.I.T.U.U.Z.Z.U.U.N.0.0.k.N.V.$.:   oXoXoXoXoXoXoXoXoXoXoXoXoXoXoXoXoXoX",
"oXoXoXoXoXoXoXoXoXoXoXoXoXoXoXoXoXoXoXoXoXoXoXoX      ; @.V.U.U.Z.Z.Z.T.Z.S.N.k.;.0.b.$.:   oXoXoXoXoXoXoXoXoXoXoXoXoXoXoXoXoXoX",
"oXoXoXoXoXoXoXoXoXoXoXoXoXoXoXoXoXoXoXoXoXoXoXoX$ $ $ 8 ' i.B.U.R.W.T.T.R.Q.T.C.l.w.l.#.;   oXoXoXoXoXoXoXoXoXoXoXoXoXoXoXoXoXoX",
"oXoXoXoXoXoXoXoXoXoXoXoXoXoXoXoXoXoXoXoXoXoX  @ 5 e u f I } i.U.[.[.R.R.[.[.R.R./.~.t.D &   oXoXoXoXoXoXoXoXoXoXoXoXoXoXoXoXoXoX",
"oXoXoXoXoXoXoXoXoXoXoXoXoXoXoXoXoXoXoXoXoXoX  @ 5 H A P g I #.M._.[.^.^.(.(./.^.].K.| w $   oXoXoXoXoXoXoXoXoXoXoXoXoXoXoXoXoXoX",
"oXoXoXoXoXoXoXoXoXoXoXoXoXoXoXoXoXoXoXoXoXoX  @ b V F A Z p P } v.W.[.(.J.J.).].J.R 5 @ oXoXoXoXoXoXoXoXoXoXoXoXoXoXoXoXoXoXoXoX",
"oXoXoXoXoXoXoXoXoXoXoXoXoXoXoXoXoXoXoXoXoXoX: 9 N V B N Z p p I #.v._.!.=.G.L.K.R z O   oXoXoXoXoXoXoXoXoXoXoXoXoXoXoXoXoXoXoXoX",
"oXoXoXoXoXoXoXoXoXoXoXoXoXoXoXoXoXoXoXoX  > 4.8.L B N Z g g g g S o.v.c.=.F.G.R 5 + oXoXoXoXoXoXoXoXoXoXoXoXoXoXoXoXoXoXoXoXoXoX",
"oXoXoXoXoXoXoXoXoXoXoXoXoXoXoXoXoXoXoXoX  : 7.n.0.T P g g g g p p _ s.g.R x x l #   oXoXoXoXoXoXoXoXoXoXoXoXoXoXoXoXoXoXoXoXoXoX",
"oXoXoXoXoXoXoXoXoXoXoXoXoXoXoXoXoXoXoXoX  & k 9.n.m.U p g g g p p _ b.u.9 O + + oXoXoXoXoXoXoXoXoXoXoXoXoXoXoXoXoXoXoXoXoXoXoXoX",
"oXoXoXoXoXoXoXoXoXoXoXoXoXoXoXoXoXoXoXoX  o u 3.n.b.Y p p p g g I o.k.7.r o X o oXoXoXoXoXoXoXoXoXoXoXoXoXoXoXoXoXoXoXoXoXoXoXoX",
"oXoXoXoXoXoXoXoXoXoXoXoXoXoXoXoXoXoXoXoX  o u Y 2.[ Z u u u u I 7.p.3.I i u u r o   oXoXoXoXoXoXoXoXoXoXoXoXoXoXoXoXoXoXoXoXoXoX",
"oXoXoXoXoXoXoXoXoXoXoXoXoXoXoXoXoXoXoXoXo > p P p u u u u u u I f.a.k u [ 6.6.k -   oXoXoXoXoXoXoXoXoXoXoXoXoXoXoXoXoXoXoXoXoXoX",
"oXoXoXoXoXoXoXoXoXoXoXoXoXoXoXoXoXoX  $ r g P f , - r u u u u _ b.s.8 8 7.S.S.7.:   oXoXoXoXoXoXoXoXoXoXoXoXoXoXoXoXoXoXoXoXoXoX",
"oXoXoXoXoXoXoXoXoXoXoXoXoXoXoXoXoXoX  % u U Y i o X 3 u u u u k 7.{ = = { b.f.#.>   oXoXoXoXoXoXoXoXoXoXoXoXoXoXoXoXoXoXoXoXoXoX",
"oXoXoXoXoXoXoXoXoXoXoXoXoXoXoXoXoXoX  o u U U u o X 8 u u w u f h u o   - 6 6 > oXoXoXoXoXoXoXoXoXoXoXoXoXoXoXoXoXoXoXoXoXoXoXoX",
"oXoXoXoXoXoXoXoXoXoXoXoXoXoXoXoXoXoX  - k 6.6.k & $ y Z Z Z Z Z g u 7 & = $     oXoXoXoXoXoXoXoXoXoXoXoXoXoXoXoXoXoXoXoXoXoXoXoX",
"oXoXoXoXoXoXoXoXoXoXoXoXoXoXoXoXoXoX  : 7.S.S.7.: $ S *.%.%. . .] ( ` ` ] s o   oXoXoXoXoXoXoXoXoXoXoXoXoXoXoXoXoXoXoXoXoXoXoXoX",
"oXoXoXoXoXoXoXoXoXoXoXoXoXoXoXoXoXoX  > } f.f.{ - & ` q.h.>.q.>.&.&.>.>.<. .9 = oXoXoXoXoXoXoXoXoXoXoXoXoXoXoXoXoXoXoXoXoXoXoXoX",
"oXoXoXoXoXoXoXoXoXoXoXoXoXoXoXoXoXoXoXoX> 6 6 ;   * ] h.h.q.h.>.>.>.&.,.:.:. .d =   oXoXoXoXoXoXoXoXoXoXoXoXoXoXoXoXoXoXoXoXoXoX",
"oXoXoXoXoXoXoXoXoXoXoXoXoXoXoXoXoXoXoXoX          & s  .,.>.>.q.>.>.&.,.>.q.h.] *   oXoXoXoXoXoXoXoXoXoXoXoXoXoXoXoXoXoXoXoXoXoX",
"oXoXoXoXoXoXoXoXoXoXoXoXoXoXoXoXoXoXoXoXoXoXoXoX    o 7 ^ >.>.>.>.>.>.>.,.>.h.] *   oXoXoXoXoXoXoXoXoXoXoXoXoXoXoXoXoXoXoXoXoXoX",
"oXoXoXoXoXoXoXoXoXoXoXoXoXoXoXoXoXoXoXoXoXoXoXoX& * & 7 / >.q.q.h.h.h.%.^ S ^ d *   oXoXoXoXoXoXoXoXoXoXoXoXoXoXoXoXoXoXoXoXoXoX",
"oXoXoXoXoXoXoXoXoXoXoXoXoXoXoXoXoXoXoXoXoXoX  & s S S ^  .>.h.x.x.x.x.*.9 & * = oXoXoXoXoXoXoXoXoXoXoXoXoXoXoXoXoXoXoXoXoXoXoXoX",
"oXoXoXoXoXoXoXoXoXoXoXoXoXoXoXoXoXoXoXoXoXoX  = ^ g.>.*.^ ^ 9.h.e.e.t...2   O # oXoXoXoXoXoXoXoXoXoXoXoXoXoXoXoXoXoXoXoXoXoXoXoX",
"oXoXoXoXoXoXoXoXoXoXoXoXoXoXoXoXoXoXoXoXoXoX  ; +.v.v.$.0 3 Y 2.3.X.Q W oXoXc m oXoXoXoXoXoXoXoXoXoXoXoXoXoXoXoXoXoXoXoXoXoXoXoX",
"oXoXoXoXoXoXoXoXoXoXoXoXoXoXoXoXoXoXoXoXoXoX  ; ~ $.@.j % o i 2.2.X.E E oXoXM D.oXoXoXoXoXoXoXoXoXoXoXoXoXoXoXoXoXoXoXoXoXoXoXoX",
"oXoXoXoXoXoXoXoXoXoXoXoXoXoXoXoXoXoXoXoXoXoXoXoX= : ; =   - f 2.8.y.r.T 2 . oXoXoXoXoXoXoXoXoXoXoXoXoXoXoXoXoXoXoXoXoXoXoXoXoXoX",
"oXoXoXoXoXoXoXoXoXoXoXoXoXoXoXoXoXoXoXoXoXoXoXoX          $ i Y 6.8.8.Y -   oXoXoXoXoXoXoXoXoXoXoXoXoXoXoXoXoXoXoXoXoXoXoXoXoXoX",
"oXoXoXoXoXoXoXoXoXoXoXoXoXoXoXoXoXoXoXoXoXoXoXoX          X - > r r r > X   oXoXoXoXoXoXoXoXoXoXoXoXoXoXoXoXoXoXoXoXoXoXoXoXoXoX",
"oXoXoXoXoXoXoXoXoXoXoXoXoXoXoXoXoXoXoXoXoXoXoXoXoXoXoXoXoXoXoXoXoXoXoXoXoXoXoXoXoXoXoXoXoXoXoXoXoXoXoXoXoXoXoXoXoXoXoXoXoXoXoXoX",
"oXoXoXoXoXoXoXoXoXoXoXoXoXoXoXoXoXoXoXoXoXoXoXoXoXoXoXoXoXoXoXoXoXoXoXoXoXoXoXoXoXoXoXoXoXoXoXoXoXoXoXoXoXoXoXoXoXoXoXoXoXoXoXoX",
"oXoXoXoXoXoXoXoXoXoXoXoXoXoXoXoXoXoXoXoXoXoXoXoXoXoXoXoXoXoXoXoXoXoXoXoXoXoXoXoXoXoXoXoXoXoXoXoXoXoXoXoXoXoXoXoXoXoXoXoXoXoXoXoX"
};
