/* XPM */
static char *_61710911244[] = {
/* columns rows colors chars-per-pixel */
"64 64 119 2 ",
"   c None",
".  c #000000",
"X  c #090706",
"o  c #0A0807",
"O  c #0D0B0A",
"+  c #100706",
"@  c #110807",
"#  c #120D0B",
"$  c #14140E",
"%  c #18160F",
"&  c #151311",
"*  c #191613",
"=  c #161A11",
"-  c #1A1C15",
";  c #1D1C19",
":  c #251E1A",
">  c #301914",
",  c #1E2119",
"<  c #25241C",
"1  c #29221D",
"2  c #2B291D",
"3  c #362219",
"4  c #3D221A",
"5  c #28301F",
"6  c #272720",
"7  c #2B2421",
"8  c #2E2A22",
"9  c #302622",
"0  c #342A25",
"q  c #352C28",
"w  c #392E2A",
"e  c #3B3625",
"r  c #3C322D",
"t  c #3C392E",
"y  c #3E3531",
"u  c #3F3B32",
"i  c #432A1F",
"p  c #542F24",
"a  c #463626",
"s  c #44362C",
"d  c #433F2F",
"f  c #4D3F2D",
"g  c #553025",
"h  c #583427",
"j  c #563528",
"k  c #593629",
"l  c #573C2C",
"z  c #5A3A2B",
"x  c #423732",
"c  c #453B35",
"v  c #483C37",
"b  c #443C39",
"n  c #483D38",
"m  c #37432B",
"M  c #38442C",
"N  c #3E4733",
"B  c #47412F",
"V  c #5A422F",
"C  c #454136",
"Z  c #4C4632",
"A  c #404A35",
"S  c #4A4A32",
"D  c #4A443C",
"F  c #4F4E3F",
"G  c #5C4432",
"H  c #534D35",
"J  c #5D4935",
"K  c #534D3D",
"L  c #465537",
"P  c #485336",
"I  c #475638",
"U  c #48543C",
"Y  c #4C5B3C",
"T  c #55523D",
"R  c #5C543C",
"E  c #5E5A3D",
"W  c #64543F",
"Q  c #615A3E",
"!  c #534C44",
"~  c #4E5A41",
"^  c #555245",
"/  c #5B5640",
"(  c #525A44",
")  c #5E534F",
"_  c #5A5F4A",
"`  c #635740",
"'  c #655C42",
"]  c #685F43",
"[  c #665A56",
"{  c #556147",
"}  c #5C6442",
"|  c #5C6C46",
" . c #5C654D",
".. c #5E734B",
"X. c #5D6950",
"o. c #676644",
"O. c #6A6245",
"+. c #656449",
"@. c #6A644B",
"#. c #646B4C",
"$. c #6E684D",
"%. c #70694F",
"&. c #61754D",
"*. c #626D53",
"=. c #6B6D52",
"-. c #726C51",
";. c #657353",
":. c #6B7456",
">. c #677855",
",. c #697A57",
"<. c #697558",
"1. c #6D7D5B",
"2. c #717054",
"3. c #727B5C",
"4. c #737C62",
"5. c #6F805E",
"6. c #70815F",
"7. c #738362",
"8. c #798969",
/* pixels */
"                                                                                                                                ",
"                                                                                                                                ",
"                                                                                                                                ",
"                                                                                                                                ",
"                                                                                                                                ",
"                                                                                                                                ",
"                                                                                                                                ",
"                                                                                                                                ",
"                                                                                                                                ",
"                                                                                                                                ",
"                                                                                                                                ",
"                                                                                                                                ",
"                                            . . . . . . . . . .                                                                 ",
"                                            # # # @ @ # # @ @ @                                                                 ",
"                                        . @ 3 i i > i 4 4 4 > > @ .                                                             ",
"                                        $ 2 l G z p p p g z z a < $                                                             ",
"                                    . $ m Y } } G h g g h V E } Y M $ .                                                         ",
"                                    = 5 Y &.&.} J z g h V R | &.&.Y 5 =                                                         ",
"                                . = m Y | &...} J z j V E } ....&...Y M = .                                                     ",
"                                . = I &.....&.} J l G W | &.........&.I = .                                                     ",
"                                . = I &.......} J J ' *.;.;.........&.I = .                                                     ",
"                                . = L &.....&.} J J #.,.,.>.&.........I = .                                                     ",
"                                . = L ..&.&.>.#.J J ;.5.5.1.>.;.......I = .                                                     ",
"                                . = L &.&.&.>.#.J J =.6.6.5.1.<.&.&...I = .                                                     ",
"                                . = I &.;.>.5.=.J J =.7.6.6.1.1.,.>.&.L = .                                                     ",
"                                . = I >.,.,.:.@.` ' :.7.7.7.7.1.1.>.>.I = .                                                     ",
"                                . = Y ,.3.:.` W $.4.7.7.7.7.6.6.5.5.,.I = .                                                     ",
"                                . - ~ ,.:.@.W ' 3.8.8.8.8.8.7.6.6.6.5.Y - .                                                     ",
"                                . , ~ ;.' W $.1.7.8.8.8.8.8.7.7.7.7.5.~ - .                                                     ",
"                                . = ~ #.l a U X.*.<.<.=.*.*. .{ { { ~ N = .                                                     ",
"                                . , Y { 2 # = 6 y C C b b t < - - - - =                                                         ",
"                                . - N A , o X # : 0 0 0 0 1 # X X o o o                                                         ",
"                                    = < 9 9 7 : 9 2 0 0 0 3 1 : < : : : X .                                                     ",
"                                    . O q b w 0 0 0 0 0 0 0 0 0 0 0 q 1 $ o                                                     ",
"                                    . # q x w 0 0 0 0 0 0 0 0 0 0 q 0 0 9 : O .                                                 ",
"                                    . # 0 b r q 0 0 q 0 0 0 0 0 0 0 0 w r 9 * O                                                 ",
"                                    . # 0 b c s w 0 0 0 0 0 0 0 0 0 0 q w w 0 : O .                                             ",
"                                    . O 7 w x x w 9 0 0 0 0 0 0 0 0 0 q r r r 0 * O                                             ",
"                                        O ; r x w 0 0 0 0 0 0 0 0 9 0 0 r r x x r 7 O .                                         ",
"                                        . # 0 s r w 0 0 0 0 0 w t s w 0 7 0 x v b 0 & .                                         ",
"                                    . . . O q b x x 0 0 0 0 0 t ( ( u 1 & * q v v q # .                                         ",
"                                    O # # ; w v v x w q 0 0 0 C #.*.C : o O 0 v v q # .                                         ",
"                                . O 7 0 0 0 x b v b r w w w q C *.=.D 1 o # q v b q # .                                         ",
"                                . & u ^ ^ ! y 0 0 q w r w s v !  . .C 1 O O q v b q # .                                         ",
"                                . - ( 4.4.( 7 O O * 0 r w C _ X.! b x 7 O # q b v q O .                                         ",
"                                . - ~ X.X.~ ; . . O 7 s b ^ <.<.( c s 1 O o 1 r b q ; O                                         ",
"                                    , , , ;     . o 1 C  .:.1.1.;._ b 1 O . O ; r x r 7 O .                                     ",
"                                    . . . .     * < r ! *.3.3.3.3.=.T q # . . O 0 b v 0 # .                                     ",
"                                            . % d / ' ] =.-.-.-.2.=.@.Z * . . O 0 b b q # .                                     ",
"                                            $ 2 R -.-.=.%.%.-.$.-.-.-.R - . . & u ^ ^ y & .                                     ",
"                                        . $ e H ] -.-.%.%.%.%.%.%.-.-.T - . . - ( 4.4.^ - .                                     ",
"                                        $ 2 H O.%.%.-.-.%.%.%.%.%.@./ B * . . ; ~ X.X.~ - .                                     ",
"                                    . % e H Q O.%.-.-.%.@.O.$.-.-./ 0 $         * , , -                                         ",
"                                    . % Z O.Q O.@.] / H Z H ] %.%.T 2 #         . . . .                                         ",
"                                    . % Z ] O.Q ] H 8 * $ 2 H O.O.Q H e $ .                                                     ",
"                                    . $ e H Q O.@.S $ . . $ e H R W Q d & .                                                     ",
"                                        $ 2 Y &.&.L * .     & : x K ! r # .                                                     ",
"                                        . $ M I Y M = .     . & y ! ! r & .                                                     ",
"                                            = = = =         . & n [ [ ! * .                                                     ",
"                                            . . . .         . & b ) ) b & .                                                     ",
"                                            . . . .         . O ; 7 7 ; X .                                                     ",
"                                                                                                                                ",
"                                                                                                                                ",
"                                                                                                                                "
};
