/* XPM */
static char *result[] = {
/* columns rows colors chars-per-pixel */
"64 64 186 2 ",
"   c #000000",
".  c #0B0605",
"X  c #0C0807",
"o  c #0E0B0A",
"O  c #100706",
"+  c #110907",
"@  c #120C09",
"#  c #1C0804",
"$  c #14130D",
"%  c #18160F",
"&  c #14180F",
"*  c #151411",
"=  c #191612",
"-  c #161A12",
";  c #1A1C15",
":  c #1E1C19",
">  c #240D07",
",  c #28120C",
"<  c #251E15",
"1  c #261E1B",
"2  c #2A1812",
"3  c #301A14",
"4  c #1D2119",
"5  c #232216",
"6  c #2C2016",
"7  c #27231C",
"8  c #29241D",
"9  c #27291F",
"0  c #2E2B1F",
"q  c #36231A",
"w  c #3D231B",
"e  c #3D281F",
"r  c #28311F",
"t  c #292422",
"y  c #282922",
"u  c #312722",
"i  c #342A25",
"p  c #352D29",
"a  c #3A2F2B",
"s  c #2C3124",
"d  c #3B3726",
"f  c #333E27",
"g  c #343028",
"h  c #3C322C",
"j  c #3E392F",
"k  c #363222",
"l  c #3D3531",
"z  c #3E3A31",
"x  c #511D10",
"c  c #43251D",
"v  c #43291F",
"b  c #4E2214",
"n  c #5D2B1D",
"m  c #682615",
"M  c #6F301D",
"N  c #7E301A",
"B  c #442B21",
"V  c #4D2D23",
"C  c #472F28",
"Z  c #532E24",
"A  c #41362C",
"S  c #4B332B",
"D  c #433D2C",
"F  c #4C3D2B",
"G  c #453626",
"H  c #553126",
"J  c #543428",
"K  c #593629",
"L  c #553B2E",
"P  c #5A3B2B",
"I  c #433632",
"U  c #493631",
"Y  c #423B33",
"T  c #443C39",
"R  c #493E38",
"E  c #483E32",
"W  c #523D31",
"Q  c #773D25",
"!  c #38442C",
"~  c #37442C",
"^  c #3D4132",
"/  c #4A442E",
"(  c #5A422F",
")  c #56402E",
"_  c #444030",
"`  c #4D4730",
"'  c #464C33",
"]  c #4F4B35",
"[  c #474238",
"{  c #4A423C",
"}  c #454D3A",
"|  c #4D4A3B",
" . c #5D4532",
".. c #534C34",
"X. c #5D4A35",
"o. c #584F38",
"O. c #534D39",
"+. c #465537",
"@. c #475638",
"#. c #4A533C",
"$. c #4C5A3D",
"%. c #4C5035",
"&. c #53533D",
"*. c #5C543A",
"=. c #5C5A3D",
"-. c #515E3F",
";. c #79452F",
":. c #77452F",
">. c #604A37",
",. c #684E3B",
"<. c #704A30",
"1. c #62533D",
"2. c #635B3E",
"3. c #544B43",
"4. c #4D5A40",
"5. c #565245",
"6. c #5C5641",
"7. c #535B45",
"8. c #5A5A45",
"9. c #5E534F",
"0. c #5D5B4B",
"q. c #635540",
"w. c #655D40",
"e. c #6B5E43",
"r. c #635C48",
"t. c #665A55",
"y. c #536144",
"u. c #5E6644",
"i. c #5E6A46",
"p. c #57644B",
"a. c #5A644C",
"s. c #5D6B4D",
"d. c #5E734B",
"f. c #5D6950",
"g. c #6A6144",
"h. c #66644A",
"j. c #6A644B",
"k. c #636C4B",
"l. c #6C6A4E",
"z. c #616D47",
"x. c #716A4D",
"c. c #62744D",
"v. c #636D54",
"b. c #6C6F54",
"n. c #746D52",
"m. c #647452",
"M. c #6C7355",
"N. c #667954",
"B. c #697B56",
"V. c #6F7658",
"C. c #6D7D5C",
"Z. c #737D57",
"A. c #717758",
"S. c #727C61",
"D. c #813F27",
"F. c #82442A",
"G. c #895E41",
"H. c #8B6243",
"J. c #8C7A5A",
"K. c #927655",
"L. c #6B824C",
"P. c #6F825D",
"I. c #748653",
"U. c #71815E",
"Y. c #738361",
"T. c #788765",
"R. c #778A60",
"E. c #7A8A65",
"W. c #7D8C69",
"Q. c #7D9267",
"!. c #8E815C",
"~. c #81985D",
"^. c #848D69",
"/. c #878966",
"(. c #938B67",
"). c #948F69",
"_. c #83916C",
"`. c #88906D",
"'. c #839C60",
"]. c #94906A",
"[. c #899073",
"{. c #8E9A73",
"}. c #95AC6F",
"|. c #A1AB87",
" X c #A9B689",
".X c None",
/* pixels */
".X.X.X.X.X.X.X.X.X.X.X.X.X.X.X.X.X.X.X.X.X.X.X.X.X.X.X.X.X.X.X.X.X.X.X.X.X.X.X.X.X.X.X.X.X.X.X.X.X.X.X.X.X.X.X.X.X.X.X.X.X.X.X.X",
".X.X.X.X.X.X.X.X.X.X.X.X.X.X.X.X.X.X.X.X.X.X.X.X.X.X.X.X.X.X.X.X.X.X.X.X.X.X.X.X.X.X.X.X.X.X.X.X.X.X.X.X.X.X.X.X.X.X.X.X.X.X.X.X",
".X.X.X.X.X.X.X.X.X.X.X.X.X.X.X.X.X.X.X.X.X.X.X.X.X.X.X.X.X.X.X.X.X.X.X.X.X.X.X.X.X.X.X.X.X.X.X.X.X.X.X.X.X.X.X.X.X.X.X.X.X.X.X.X",
".X.X.X.X.X.X.X.X.X.X.X.X.X.X.X.X.X.X.X.X.X.X.X.X.X.X.X.X.X.X.X.X.X.X.X.X.X.X.X.X.X.X.X.X.X.X.X.X.X.X.X.X.X.X.X.X.X.X.X.X.X.X.X.X",
".X.X.X.X.X.X.X.X.X.X.X.X.X.X.X.X.X.X.X.X.X.X.X.X.X.X.X.X.X.X.X.X.X.X.X.X.X.X.X.X.X.X.X.X.X.X.X.X.X.X.X.X.X.X.X.X.X.X.X.X.X.X.X.X",
".X.X.X.X.X.X.X.X.X.X.X.X.X.X.X.X.X.X.X.X.X.X.X.X.X.X.X.X.X.X.X.X.X.X.X.X.X.X.X.X.X.X.X.X.X.X.X.X.X.X.X.X.X.X.X.X.X.X.X.X.X.X.X.X",
".X.X.X.X.X.X.X.X.X.X.X.X.X.X.X.X.X.X.X.X.X.X.X.X.X.X.X.X.X.X.X.X.X.X.X.X.X.X.X.X.X.X.X.X.X.X.X.X.X.X.X.X.X.X.X.X.X.X.X.X.X.X.X.X",
".X.X.X.X.X.X.X.X.X.X.X.X.X.X.X.X.X.X.X.X.X.X.X.X.X.X.X.X.X.X.X.X.X.X.X.X.X.X.X.X.X.X.X.X.X.X.X.X.X.X.X.X.X.X.X.X.X.X.X.X.X.X.X.X",
".X.X.X.X.X.X.X.X.X.X.X.X.X.X.X.X.X.X.X.X.X.X.X.X.X.X.X.X.X.X.X.X.X.X.X.X.X.X.X.X.X.X.X.X.X.X.X.X.X.X.X.X.X.X.X.X.X.X.X.X.X.X.X.X",
".X.X.X.X.X.X.X.X.X.X.X.X.X.X.X.X.X.X.X.X.X.X.X.X.X.X.X.X.X.X.X.X.X.X.X.X.X.X.X.X.X.X.X.X.X.X.X.X.X.X.X.X.X.X.X.X.X.X.X.X.X.X.X.X",
".X.X.X.X.X.X.X.X.X.X.X.X.X.X.X.X.X.X.X.X.X.X.X.X.X.X.X.X                    .X.X.X.X.X.X.X.X.X.X.X.X.X.X.X.X.X.X.X.X.X.X.X.X.X.X",
".X.X.X.X.X.X.X.X.X.X.X.X.X.X.X.X.X.X.X.X.X.X.X.X.X.X.X.X@ @ @ + @ @ @ @ @ + .X.X.X.X.X.X.X.X.X.X.X.X.X.X.X.X.X.X.X.X.X.X.X.X.X.X",
".X.X.X.X.X.X.X.X.X.X.X.X.X.X.X.X.X.X.X.X.X.X.X.X.X.X  @ q v w w w w w w w 3 +   .X.X.X.X.X.X.X.X.X.X.X.X.X.X.X.X.X.X.X.X.X.X.X.X",
".X.X.X.X.X.X.X.X.X.X.X.X.X.X.X.X.X.X.X.X.X.X.X.X.X.X@ 6 F X.P H Z Z Z Z H v 5 & .X.X.X.X.X.X.X.X.X.X.X.X.X.X.X.X.X.X.X.X.X.X.X.X",
".X.X.X.X.X.X.X.X.X.X.X.X.X.X.X.X.X.X.X.X.X.X.X.X  o q F =.=.( K H n V H K ( %.~ &   .X.X.X.X.X.X.X.X.X.X.X.X.X.X.X.X.X.X.X.X.X.X",
".X.X.X.X.X.X.X.X.X.X.X.X.X.X.X.X.X.X.X.X.X.X.X.Xo , V X.u.i.X.K H Z V J ( *.z.$.r & .X.X.X.X.X.X.X.X.X.X.X.X.X.X.X.X.X.X.X.X.X.X",
".X.X.X.X.X.X.X.X.X.X.X.X.X.X.X.X.X.X.X.X.X.X  + 3 v J X.u.z.X.P Z Z J ( =.i.d.i.$.! -   .X.X.X.X.X.X.X.X.X.X.X.X.X.X.X.X.X.X.X.X",
".X.X.X.X.X.X.X.X.X.X.X.X.X.X.X.X.X.X.X.X.X.X  @ c H K X.u.u.X.K H J  .*.i.d.d.c.c.@.-   .X.X.X.X.X.X.X.X.X.X.X.X.X.X.X.X.X.X.X.X",
".X.X.X.X.X.X.X.X.X.X.X.X.X.X.X.X.X.X.X.X.X.X  @ w H K X.u.u.X.K J  .w.k.d.d.d.d.c.@.-   .X.X.X.X.X.X.X.X.X.X.X.X.X.X.X.X.X.X.X.X",
".X.X.X.X.X.X.X.X.X.X.X.X.X.X.X.X.X.X.X.X.X.X  @ w K ( *.u.u.X.P X.q.m.N.N.d.d.d.c.@.-   .X.X.X.X.X.X.X.X.X.X.X.X.X.X.X.X.X.X.X.X",
".X.X.X.X.X.X.X.X.X.X.X.X.X.X.X.X.X.X.X.X.X.X  @ c ( =.i.m.h.X.X.h.M.C.C.N.m.d.d.d.@.-   .X.X.X.X.X.X.X.X.X.X.X.X.X.X.X.X.X.X.X.X",
".X.X.X.X.X.X.X.X.X.X.X.X.X.X.X.X.X.X.X.X.X.X  $ G 2.z.N.B.l.X.>.M.U.Y.U.C.N.N.c.c.@.4   .X.X.X.X.X.X.X.X.X.X.X.X.X.X.X.X.X.X.X.X",
".X.X.X.X.X.X.X.X.X.X.X.X.X.X.X.X.X.X.X.X.X.X  % ' z.N.B.P.v.X.X.M.Y.U.P.U.P.N.N.d.+.&   .X.X.X.X.X.X.X.X.X.X.X.X.X.X.X.X.X.X.X.X",
".X.X.X.X.X.X.X.X.X.X.X.X.X.X.X.X.X.X.X.X.X.X  ; @.s.y.4.7.7.*.1.h.M.S.B.a.7.$.y.d.@.4   .X.X.X.X.X.X.X.X.X.X.X.X.X.X.X.X.X.X.X.X",
".X.X.X.X.X.X.X.X.X.X.X.X.X.X.X.X.X.X.X.X.X.X  ; $.y.s & - s 8.l.q.w.V.a.s - & s y.4.;   .X.X.X.X.X.X.X.X.X.X.X.X.X.X.X.X.X.X.X.X",
".X.X.X.X.X.X.X.X.X.X.X.X.X.X.X.X.X.X.X.X.X.X  ; 4.s.^ 9 4 f s.M.>.X.M.s.~ 4 9 ^ s.4.;   .X.X.X.X.X.X.X.X.X.X.X.X.X.X.X.X.X.X.X.X",
".X.X.X.X.X.X.X.X.X.X.X.X.X.X.X.X.X.X.X.X.X.X  ; $.Y.[.`.I.L.P.b.>.X.b.P.L.I._.[.Y.$.;   .X.X.X.X.X.X.X.X.X.X.X.X.X.X.X.X.X.X.X.X",
".X.X.X.X.X.X.X.X.X.X.X.X.X.X.X.X.X.X.X.X.X.X  ; 4.W.|. X}.'.R.M.q.q.j.A.~.}. X|.W.4.-   .X.X.X.X.X.X.X.X.X.X.X.X.X.X.X.X.X.X.X.X",
".X.X.X.X.X.X.X.X.X.X.X.X.X.X.X.X.X.X.X.X.X.X  ; 7.T.^._.Q.R.Y.C.M.h.1.w.Z.Q._._.R.7.;   .X.X.X.X.X.X.X.X.X.X.X.X.X.X.X.X.X.X.X.X",
".X.X.X.X.X.X.X.X.X.X.X.X.X.X.X.X.X.X.X.X.X.X  ; 4.P.Y.P.C.C.C.Y.Y.M.q.1.h.M.C.Y.U.7.4   .X.X.X.X.X.X.X.X.X.X.X.X.X.X.X.X.X.X.X.X",
".X.X.X.X.X.X.X.X.X.X.X.X.X.X.X.X.X.X.X.X.X.X  - $.B.P.C.Y.C.Y.C.C.C.M.h.1.1.M.P.B.$.-   .X.X.X.X.X.X.X.X.X.X.X.X.X.X.X.X.X.X.X.X",
".X.X.X.X.X.X.X.X.X.X.X.X.X.X.X.X.X.X.X.X.X.X+ 5 ' s.N.U.T.T.Y.Y.T.W.Y.V.e.e.b.k.-.~ -   .X.X.X.X.X.X.X.X.X.X.X.X.X.X.X.X.X.X.X.X",
".X.X.X.X.X.X.X.X.X.X.X.X.X.X.X.X.X.X.X.X  O 3 a _ &.i.U.{.{.E.R.{.{.W.Y.`./.e.L 7 - .X.X.X.X.X.X.X.X.X.X.X.X.X.X.X.X.X.X.X.X.X.X",
".X.X.X.X.X.X.X.X.X.X.X.X.X.X.X.X.X.X.X.XX > c J U [ &.m.^.{._./.(.).^.^.).K.,.i @   .X.X.X.X.X.X.X.X.X.X.X.X.X.X.X.X.X.X.X.X.X.X",
".X.X.X.X.X.X.X.X.X.X.X.X.X.X.X.X.X.X  O 3 c V Z U Y Y #.c.I.{.(.G.G.).).H.:.K u o   .X.X.X.X.X.X.X.X.X.X.X.X.X.X.X.X.X.X.X.X.X.X",
".X.X.X.X.X.X.X.X.X.X.X.X.X.X.X.X.X.X; 8 B Z J S U I h Y &.N._.!.;.D.K.K.:.n w 1 X   .X.X.X.X.X.X.X.X.X.X.X.X.X.X.X.X.X.X.X.X.X.X",
".X.X.X.X.X.X.X.X.X.X.X.X.X.X.X.X  : $.8.W V S U I h h h j #.m.x.Q N F.;.K u = .     .X.X.X.X.X.X.X.X.X.X.X.X.X.X.X.X.X.X.X.X.X.X",
".X.X.X.X.X.X.X.X.X.X.X.X.X.X.X.X  ; 7.b.q.W h p p h h h a Y &.=.<.Q Q n C i = @ @ o .X.X.X.X.X.X.X.X.X.X.X.X.X.X.X.X.X.X.X.X.X.X",
".X.X.X.X.X.X.X.X.X.X.X.X.X.X.X.X  * l 0.v.8.t = i h h h h h j | e.e.W C I l p i p t o   .X.X.X.X.X.X.X.X.X.X.X.X.X.X.X.X.X.X.X.X",
".X.X.X.X.X.X.X.X.X.X.X.X.X.X.X.X  o t 3.0.#.* X t a a a a h Y 5.M.v.{ l I R 3.5.5.z *   .X.X.X.X.X.X.X.X.X.X.X.X.X.X.X.X.X.X.X.X",
".X.X.X.X.X.X.X.X.X.X.X.X.X.X.X.X  o p l y - . X 8 a i i i I 7.v.C.v.3.z Y 3.v.S.S.4.;   .X.X.X.X.X.X.X.X.X.X.X.X.X.X.X.X.X.X.X.X",
".X.X.X.X.X.X.X.X.X.X.X.X.X.X.X.Xo : a p o     o 1 i i i i E f.B.f.7.z i i z 5.f.p.4.:   .X.X.X.X.X.X.X.X.X.X.X.X.X.X.X.X.X.X.X.X",
".X.X.X.X.X.X.X.X.X.X.X.X.X.X  o t h I p @     X 7 i i i i Y f.m.3.p ; o o * ; 4 4 : .X.X.X.X.X.X.X.X.X.X.X.X.X.X.X.X.X.X.X.X.X.X",
".X.X.X.X.X.X.X.X.X.X.X.X.X.X  @ p R T p $     o 1 i i i u j 8.7.j 1 X               .X.X.X.X.X.X.X.X.X.X.X.X.X.X.X.X.X.X.X.X.X.X",
".X.X.X.X.X.X.X.X.X.X.X.X.X.X  o p T R p $     o 1 i i i i p j j p : .   .X.X.X.X.X.X.X.X.X.X.X.X.X.X.X.X.X.X.X.X.X.X.X.X.X.X.X.X",
".X.X.X.X.X.X.X.X.X.X.X.X.X.Xo : a I h t o     o i d A A d d G d j k < $ .X.X.X.X.X.X.X.X.X.X.X.X.X.X.X.X.X.X.X.X.X.X.X.X.X.X.X.X",
".X.X.X.X.X.X.X.X.X.X.X.X  o t a I p : X .X.X  * j *.*.o.*.o.o.o.o.o...d $   .X.X.X.X.X.X.X.X.X.X.X.X.X.X.X.X.X.X.X.X.X.X.X.X.X.X",
".X.X.X.X.X.X.X.X.X.X.X.X  * z 5.5.z $   .X.X  = ` e.w.w.w.w.2.2.2.w.g...8 $ .X.X.X.X.X.X.X.X.X.X.X.X.X.X.X.X.X.X.X.X.X.X.X.X.X.X",
".X.X.X.X.X.X.X.X.X.X.X.X  ; 7.S.C.7.;   .X.X  = ` g.g.2.w.2.2.1.2.e.2.2...d $   .X.X.X.X.X.X.X.X.X.X.X.X.X.X.X.X.X.X.X.X.X.X.X.X",
".X.X.X.X.X.X.X.X.X.X.X.X  : 4.f.f.#.:   .X.X  * d ..2.2.2.2.*.=.2.2.2.e.2...8 $ .X.X.X.X.X.X.X.X.X.X.X.X.X.X.X.X.X.X.X.X.X.X.X.X",
".X.X.X.X.X.X.X.X.X.X.X.X.X.X; : 4 : .X.X.X.X.X.X$ 0 ..2.e.2.2.2.=.2.2.2.g.=...d $   .X.X.X.X.X.X.X.X.X.X.X.X.X.X.X.X.X.X.X.X.X.X",
".X.X.X.X.X.X.X.X.X.X.X.X.X.X        .X.X.X.X.X.X  $ / 2.2.2.2.*./ / *.2.2.2.g.` =   .X.X.X.X.X.X.X.X.X.X.X.X.X.X.X.X.X.X.X.X.X.X",
".X.X.X.X.X.X.X.X.X.X.X.X.X.X.X.X.X.X.X.X.X.X.X.X  $ _ w.w.w.g...5 5 / 1.2.g.x.O.=   .X.X.X.X.X.X.X.X.X.X.X.X.X.X.X.X.X.X.X.X.X.X",
".X.X.X.X.X.X.X.X.X.X.X.X.X.X.X.X.X.X.X.X.X.X.X.X* 0 o.e.g.w...k @ $ G 2.w.j.x.o.;   .X.X.X.X.X.X.X.X.X.X.X.X.X.X.X.X.X.X.X.X.X.X",
".X.X.X.X.X.X.X.X.X.X.X.X.X.X.X.X.X.X.X.X.X.X  = _ 6.j.l.x.6.0 o   % / 2.j.x.n.&.;   .X.X.X.X.X.X.X.X.X.X.X.X.X.X.X.X.X.X.X.X.X.X",
".X.X.X.X.X.X.X.X.X.X.X.X.X.X.X.X.X.X.X.X.X.X  = ..j.j.r.6._ *     - %.l.n.l.6.D =   .X.X.X.X.X.X.X.X.X.X.X.X.X.X.X.X.X.X.X.X.X.X",
".X.X.X.X.X.X.X.X.X.X.X.X.X.X.X.X.X.X.X.X.X.X  * I 5.3.T 8 = .X.X  ; 7.U.Y.a.s % .X.X.X.X.X.X.X.X.X.X.X.X.X.X.X.X.X.X.X.X.X.X.X.X",
".X.X.X.X.X.X.X.X.X.X.X.X.X.X.X.X.X.X.X.X.X.X  * z 3.3.l $   .X.X# 6 ' p.a.} =   .X.X.X.X.X.X.X.X.X.X.X.X.X.X.X.X.X.X.X.X.X.X.X.X",
".X.X.X.X.X.X.X.X.X.X.X.X.X.X.X.X.X.X.X.X.X.X  ; { t.t.{ *   .X.Xm b 6 4 4 ; .X.X.X.X.X.X.X.X.X.X.X.X.X.X.X.X.X.X.X.X.X.X.X.X.X.X",
".X.X.X.X.X.X.X.X.X.X.X.X.X.X.X.X.X.X.X.X.X.X  * T 9.9.T *   .X.Xm x #       .X.X.X.X.X.X.X.X.X.X.X.X.X.X.X.X.X.X.X.X.X.X.X.X.X.X",
".X.X.X.X.X.X.X.X.X.X.X.X.X.X.X.X.X.X.X.X.X.X  o : t t : X   .X.X, > .       .X.X.X.X.X.X.X.X.X.X.X.X.X.X.X.X.X.X.X.X.X.X.X.X.X.X",
".X.X.X.X.X.X.X.X.X.X.X.X.X.X.X.X.X.X.X.X.X.X.X.X.X.X.X.X.X.X.X.X.X.X.X.X.X.X.X.X.X.X.X.X.X.X.X.X.X.X.X.X.X.X.X.X.X.X.X.X.X.X.X.X",
".X.X.X.X.X.X.X.X.X.X.X.X.X.X.X.X.X.X.X.X.X.X.X.X.X.X.X.X.X.X.X.X.X.X.X.X.X.X.X.X.X.X.X.X.X.X.X.X.X.X.X.X.X.X.X.X.X.X.X.X.X.X.X.X",
".X.X.X.X.X.X.X.X.X.X.X.X.X.X.X.X.X.X.X.X.X.X.X.X.X.X.X.X.X.X.X.X.X.X.X.X.X.X.X.X.X.X.X.X.X.X.X.X.X.X.X.X.X.X.X.X.X.X.X.X.X.X.X.X"
};
