/* XPM */
static char *result[] = {
/* columns rows colors chars-per-pixel */
"64 64 178 2 ",
"   c #000000",
".  c #090707",
"X  c #0E0C0A",
"o  c #100706",
"O  c #110907",
"+  c #120C0A",
"@  c #14130E",
"#  c #18160F",
"$  c #14180F",
"%  c #151411",
"&  c #181610",
"*  c #161B11",
"=  c #1A1C15",
"-  c #1E1B19",
";  c #221511",
":  c #241D15",
">  c #241D1A",
",  c #301A14",
"<  c #1E221A",
"1  c #222316",
"2  c #27201C",
"3  c #2A241C",
"4  c #27291F",
"5  c #36231A",
"6  c #3D221A",
"7  c #28311F",
"8  c #2B2421",
"9  c #2A2C21",
"0  c #312723",
"q  c #332A25",
"w  c #392C26",
"e  c #342C28",
"r  c #3B2F2B",
"t  c #2B3124",
"y  c #343020",
"u  c #393226",
"i  c #333E27",
"p  c #36332A",
"a  c #3C322C",
"s  c #3E3632",
"d  c #3D3A32",
"f  c #43291F",
"g  c #42241D",
"h  c #5E2C1E",
"j  c #602D1F",
"k  c #6C2C1B",
"l  c #7F311B",
"z  c #452D25",
"x  c #4B2D25",
"c  c #432F29",
"v  c #532E24",
"b  c #44322B",
"n  c #4A332A",
"m  c #443F2F",
"M  c #4D3B2C",
"N  c #453626",
"B  c #553126",
"V  c #553629",
"C  c #593629",
"Z  c #5A3B2B",
"A  c #443531",
"S  c #443B34",
"D  c #483A35",
"F  c #443C39",
"G  c #5A3E30",
"H  c #543E32",
"J  c #612F20",
"K  c #633121",
"L  c #653B26",
"P  c #37442C",
"I  c #38442C",
"U  c #3D4132",
"Y  c #46402E",
"T  c #4B452E",
"R  c #56402E",
"E  c #5A422F",
"W  c #464135",
"Q  c #4D4631",
"!  c #424B32",
"~  c #4F4D37",
"^  c #464639",
"/  c #4B443C",
"(  c #434C3B",
")  c #5D4432",
"_  c #544C35",
"`  c #5D4A35",
"'  c #554D3A",
"]  c #5B4B38",
"[  c #465537",
"{  c #475638",
"}  c #4B543B",
"|  c #4B5A3C",
" . c #4C5035",
".. c #5C543B",
"X. c #525A3F",
"o. c #5D5A3D",
"O. c #51513B",
"+. c #794026",
"@. c #77442E",
"#. c #78452F",
"$. c #604A37",
"%. c #654C39",
"&. c #62533D",
"*. c #645C3E",
"=. c #534C43",
"-. c #4F5744",
";. c #4D5A40",
":. c #535443",
">. c #5C5741",
",. c #535C45",
"<. c #5E534F",
"1. c #5A5E4A",
"2. c #595944",
"3. c #625540",
"4. c #655C41",
"5. c #6B5D43",
"6. c #665A55",
"7. c #536144",
"8. c #5E6644",
"9. c #5E6A46",
"0. c #5B634C",
"q. c #5D6B4D",
"w. c #5E734B",
"e. c #5F6550",
"r. c #5E6951",
"t. c #696043",
"y. c #616D47",
"u. c #66644B",
"i. c #6A664C",
"p. c #636C4B",
"a. c #6C694C",
"s. c #656145",
"d. c #716B4C",
"f. c #62744D",
"g. c #656D53",
"h. c #6B6E53",
"j. c #657353",
"k. c #6B7354",
"l. c #667954",
"z. c #697B56",
"x. c #6F775B",
"c. c #6D7D5C",
"v. c #707051",
"b. c #737D57",
"n. c #707D5D",
"m. c #727B61",
"M. c #82432A",
"N. c #895E41",
"B. c #8B6243",
"V. c #8A7959",
"C. c #927655",
"Z. c #6B824C",
"A. c #6F815D",
"S. c #748653",
"D. c #71815E",
"F. c #738362",
"G. c #788765",
"H. c #778A60",
"J. c #7A8A65",
"K. c #7D8C69",
"L. c #7D9267",
"P. c #8E825D",
"I. c #81985D",
"U. c #878160",
"Y. c #848D69",
"T. c #878D69",
"R. c #938B67",
"E. c #948F69",
"W. c #83916C",
"Q. c #88906D",
"!. c #839C60",
"~. c #94906A",
"^. c #899073",
"/. c #8E9A73",
"(. c #95AC6F",
"). c #A1AB87",
"_. c #A9B689",
"`. c None",
/* pixels */
"`.`.`.`.`.`.`.`.`.`.`.`.`.`.`.`.`.`.`.`.`.`.`.`.`.`.`.`.`.`.`.`.`.`.`.`.`.`.`.`.`.`.`.`.`.`.`.`.`.`.`.`.`.`.`.`.`.`.`.`.`.`.`.`.",
"`.`.`.`.`.`.`.`.`.`.`.`.`.`.`.`.`.`.`.`.`.`.`.`.`.`.`.`.`.`.`.`.`.`.`.`.`.`.`.`.`.`.`.`.`.`.`.`.`.`.`.`.`.`.`.`.`.`.`.`.`.`.`.`.",
"`.`.`.`.`.`.`.`.`.`.`.`.`.`.`.`.`.`.`.`.`.`.`.`.`.`.`.`.`.`.`.`.`.`.`.`.`.`.`.`.`.`.`.`.`.`.`.`.`.`.`.`.`.`.`.`.`.`.`.`.`.`.`.`.",
"`.`.`.`.`.`.`.`.`.`.`.`.`.`.`.`.`.`.`.`.`.`.`.`.`.`.`.`.`.`.`.`.`.`.`.`.`.`.`.`.`.`.`.`.`.`.`.`.`.`.`.`.`.`.`.`.`.`.`.`.`.`.`.`.",
"`.`.`.`.`.`.`.`.`.`.`.`.`.`.`.`.`.`.`.`.`.`.`.`.`.`.`.`.`.`.`.`.`.`.`.`.`.`.`.`.`.`.`.`.`.`.`.`.`.`.`.`.`.`.`.`.`.`.`.`.`.`.`.`.",
"`.`.`.`.`.`.`.`.`.`.`.`.`.`.`.`.`.`.`.`.`.`.`.`.`.`.`.`.`.`.`.`.`.`.`.`.`.`.`.`.`.`.`.`.`.`.`.`.`.`.`.`.`.`.`.`.`.`.`.`.`.`.`.`.",
"`.`.`.`.`.`.`.`.`.`.`.`.`.`.`.`.`.`.`.`.`.`.`.`.`.`.`.`.`.`.`.`.`.`.`.`.`.`.`.`.`.`.`.`.`.`.`.`.`.`.`.`.`.`.`.`.`.`.`.`.`.`.`.`.",
"`.`.`.`.`.`.`.`.`.`.`.`.`.`.`.`.`.`.`.`.`.`.`.`.`.`.`.`.`.`.`.`.`.`.`.`.`.`.`.`.`.`.`.`.`.`.`.`.`.`.`.`.`.`.`.`.`.`.`.`.`.`.`.`.",
"`.`.`.`.`.`.`.`.`.`.`.`.`.`.`.`.`.`.`.`.`.`.`.`.`.`.`.`.`.`.`.`.`.`.`.`.`.`.`.`.`.`.`.`.`.`.`.`.`.`.`.`.`.`.`.`.`.`.`.`.`.`.`.`.",
"`.`.`.`.`.`.`.`.`.`.`.`.`.`.`.`.`.`.`.`.`.`.`.`.`.`.`.`.`.`.`.`.`.`.`.`.`.`.`.`.`.`.`.`.`.`.`.`.`.`.`.`.`.`.`.`.`.`.`.`.`.`.`.`.",
"`.`.`.`.`.`.`.`.`.`.`.`.`.`.`.`.`.`.`.`.`.`.`.`.`.`.                    `.`.`.`.`.`.`.`.`.`.`.`.`.`.`.`.`.`.`.`.`.`.`.`.`.`.`.`.",
"`.`.`.`.`.`.`.`.`.`.`.`.`.`.`.`.`.`.`.`.`.`.`.`.`.`.+ + + + O O + + + O `.`.`.`.`.`.`.`.`.`.`.`.`.`.`.`.`.`.`.`.`.`.`.`.`.`.`.`.",
"`.`.`.`.`.`.`.`.`.`.`.`.`.`.`.`.`.`.`.`.`.`.`.`.  + 5 f 6 6 6 6 g 6 6 , o   `.`.`.`.`.`.`.`.`.`.`.`.`.`.`.`.`.`.`.`.`.`.`.`.`.`.",
"`.`.`.`.`.`.`.`.`.`.`.`.`.`.`.`.`.`.`.`.`.`.`.`.+ , M ` C B B v v v B f 1 $ `.`.`.`.`.`.`.`.`.`.`.`.`.`.`.`.`.`.`.`.`.`.`.`.`.`.",
"`.`.`.`.`.`.`.`.`.`.`.`.`.`.`.`.`.`.`.`.`.`.  O 5 T o.o.E C v v v v C R  .P $   `.`.`.`.`.`.`.`.`.`.`.`.`.`.`.`.`.`.`.`.`.`.`.`.",
"`.`.`.`.`.`.`.`.`.`.`.`.`.`.`.`.`.`.`.`.`.`.o ; x ` 8.8.` C B v v V E &.y.X.7 $ `.`.`.`.`.`.`.`.`.`.`.`.`.`.`.`.`.`.`.`.`.`.`.`.",
"`.`.`.`.`.`.`.`.`.`.`.`.`.`.`.`.`.`.`.`.  O , z V ` 8.8.` C v v B E o.9.w.w.7.P *   `.`.`.`.`.`.`.`.`.`.`.`.`.`.`.`.`.`.`.`.`.`.",
"`.`.`.`.`.`.`.`.`.`.`.`.`.`.`.`.`.`.`.`.  O 6 B C ` 8.8.` C v V E ..9.w.w.w.w.{ *   `.`.`.`.`.`.`.`.`.`.`.`.`.`.`.`.`.`.`.`.`.`.",
"`.`.`.`.`.`.`.`.`.`.`.`.`.`.`.`.`.`.`.`.  O 6 B C ` 8.8.` Z C E s.y.f.w.w.w.f.{ *   `.`.`.`.`.`.`.`.`.`.`.`.`.`.`.`.`.`.`.`.`.`.",
"`.`.`.`.`.`.`.`.`.`.`.`.`.`.`.`.`.`.`.`.  O g C E ..9.u.` R ` *.j.z.f.w.w.w.w.[ *   `.`.`.`.`.`.`.`.`.`.`.`.`.`.`.`.`.`.`.`.`.`.",
"`.`.`.`.`.`.`.`.`.`.`.`.`.`.`.`.`.`.`.`.  + f ) o.9.j.p.` ) u.k.c.c.l.j.w.w.f.{ *   `.`.`.`.`.`.`.`.`.`.`.`.`.`.`.`.`.`.`.`.`.`.",
"`.`.`.`.`.`.`.`.`.`.`.`.`.`.`.`.`.`.`.`.  @ N &.y.l.z.p.$.` k.D.D.n.z.z.j.f.f.{ *   `.`.`.`.`.`.`.`.`.`.`.`.`.`.`.`.`.`.`.`.`.`.",
"`.`.`.`.`.`.`.`.`.`.`.`.`.`.`.`.`.`.`.`.  $ T y.j.z.c.h.$.` k.F.F.c.F.c.z.l.f.{ *   `.`.`.`.`.`.`.`.`.`.`.`.`.`.`.`.`.`.`.`.`.`.",
"`.`.`.`.`.`.`.`.`.`.`.`.`.`.`.`.`.`.`.`.  * { w.7.;.,.2...3.i.x.c.z.q.,.;.7.w.{ *   `.`.`.`.`.`.`.`.`.`.`.`.`.`.`.`.`.`.`.`.`.`.",
"`.`.`.`.`.`.`.`.`.`.`.`.`.`.`.`.`.`.`.`.  = | 7.t @ * t 2.a.3.4.x.0.t % @ t 7.| *   `.`.`.`.`.`.`.`.`.`.`.`.`.`.`.`.`.`.`.`.`.`.",
"`.`.`.`.`.`.`.`.`.`.`.`.`.`.`.`.`.`.`.`.  = ;.q.U 9 < i q.k.` $.k.r.P 1 4 U q.;.<   `.`.`.`.`.`.`.`.`.`.`.`.`.`.`.`.`.`.`.`.`.`.",
"`.`.`.`.`.`.`.`.`.`.`.`.`.`.`.`.`.`.`.`.  = | D.^.Q.S.Z.A.h.$.) k.A.Z.S.Q.^.F.| =   `.`.`.`.`.`.`.`.`.`.`.`.`.`.`.`.`.`.`.`.`.`.",
"`.`.`.`.`.`.`.`.`.`.`.`.`.`.`.`.`.`.`.`.  = ;.K.)._.(.I.G.k.3.>.u.b.I.(._.).K.;.=   `.`.`.`.`.`.`.`.`.`.`.`.`.`.`.`.`.`.`.`.`.`.",
"`.`.`.`.`.`.`.`.`.`.`.`.`.`.`.`.`.`.`.`.  = ,.G.W.W.L.H.F.c.x.u.&.*.b.K.W.W.G.-.=   `.`.`.`.`.`.`.`.`.`.`.`.`.`.`.`.`.`.`.`.`.`.",
"`.`.`.`.`.`.`.`.`.`.`.`.`.`.`.`.`.`.`.`.  < 7.D.D.A.m.c.D.D.D.k.3.&.u.k.c.D.D.7.=   `.`.`.`.`.`.`.`.`.`.`.`.`.`.`.`.`.`.`.`.`.`.",
"`.`.`.`.`.`.`.`.`.`.`.`.`.`.`.`.`.`.`.`.  * { z.c.D.c.c.D.c.D.c.k.u.&.3.k.A.z.| *   `.`.`.`.`.`.`.`.`.`.`.`.`.`.`.`.`.`.`.`.`.`.",
"`.`.`.`.`.`.`.`.`.`.`.`.`.`.`.`.`.`.`.`.  * ! q.z.D.J.J.F.F.J.K.G.x.5.5.h.j.w.U *   `.`.`.`.`.`.`.`.`.`.`.`.`.`.`.`.`.`.`.`.`.`.",
"`.`.`.`.`.`.`.`.`.`.`.`.`.`.`.`.`.`.`.`.  + p :.q.S././.H.H././.G.F.T.U.5.] ' p @   `.`.`.`.`.`.`.`.`.`.`.`.`.`.`.`.`.`.`.`.`.`.",
"`.`.`.`.`.`.`.`.`.`.`.`.`.`.`.`.`.`.`.`.  X q / X.j.Y./.T.Y.R.E.Y.T.E.V.%.V D e @   `.`.`.`.`.`.`.`.`.`.`.`.`.`.`.`.`.`.`.`.`.`.",
"`.`.`.`.`.`.`.`.`.`.`.`.`.`.`.`.`.`.`.`.  X e D S O.f.J./.E.N.N.E.~.B.@.M b D e X   `.`.`.`.`.`.`.`.`.`.`.`.`.`.`.`.`.`.`.`.`.`.",
"`.`.`.`.`.`.`.`.`.`.`.`.`.`.`.`.`.`.`.`.O ; w A r m } f.Q.P.M.M.C.C.#.h z s S e @   `.`.`.`.`.`.`.`.`.`.`.`.`.`.`.`.`.`.`.`.`.`.",
"`.`.`.`.`.`.`.`.`.`.`.`.`.`.`.`.`.`.  O , z x x c a S O.j.d.+.l M.#.C n A D D e @   `.`.`.`.`.`.`.`.`.`.`.`.`.`.`.`.`.`.`.`.`.`.",
"`.`.`.`.`.`.`.`.`.`.`.`.`.`.`.`.`.`.  % n G v x r r a s } ..L k k B z a A F F e +   `.`.`.`.`.`.`.`.`.`.`.`.`.`.`.`.`.`.`.`.`.`.",
"`.`.`.`.`.`.`.`.`.`.`.`.`.`.`.`.`.`.  = :.i.H x c a a a S m n x v x r a s D D e X   `.`.`.`.`.`.`.`.`.`.`.`.`.`.`.`.`.`.`.`.`.`.",
"`.`.`.`.`.`.`.`.`.`.`.`.`.`.`.`.`.`.  - -.h.3.H b r a a r r b b r s W ^ F D F e @   `.`.`.`.`.`.`.`.`.`.`.`.`.`.`.`.`.`.`.`.`.`.",
"`.`.`.`.`.`.`.`.`.`.`.`.`.`.`.`.`.`.  @ s 1.h.u.S e w a a z h J x F 1.0./ S F e X   `.`.`.`.`.`.`.`.`.`.`.`.`.`.`.`.`.`.`.`.`.`.",
"`.`.`.`.`.`.`.`.`.`.`.`.`.`.`.`.`.`.  + q / 1.-.p 3 e a a z h K M :.j.k.=.A a 3 +   `.`.`.`.`.`.`.`.`.`.`.`.`.`.`.`.`.`.`.`.`.`.",
"`.`.`.`.`.`.`.`.`.`.`.`.`.`.`.`.`.`.  X e s 9 = X & 3 w e w z M ,.g.c.g.=.e - X `.`.`.`.`.`.`.`.`.`.`.`.`.`.`.`.`.`.`.`.`.`.`.`.",
"`.`.`.`.`.`.`.`.`.`.`.`.`.`.`.`.`.`.X - a e X     O 2 e q q 0 S r.c.g.1./ q X   `.`.`.`.`.`.`.`.`.`.`.`.`.`.`.`.`.`.`.`.`.`.`.`.",
"`.`.`.`.`.`.`.`.`.`.`.`.`.`.`.`.  X 8 r F e X     X 2 e q q 9 W r.j.:./ F e X   `.`.`.`.`.`.`.`.`.`.`.`.`.`.`.`.`.`.`.`.`.`.`.`.",
"`.`.`.`.`.`.`.`.`.`.`.`.`.`.`.`.  + e D F q @     . > q q 0 0 a :.1.:.=.=.s %   `.`.`.`.`.`.`.`.`.`.`.`.`.`.`.`.`.`.`.`.`.`.`.`.",
"`.`.`.`.`.`.`.`.`.`.`.`.`.`.`.`.  + e F F e X     . : 0 8 8 3 q p ^ e.x.m.,.=   `.`.`.`.`.`.`.`.`.`.`.`.`.`.`.`.`.`.`.`.`.`.`.`.",
"`.`.`.`.`.`.`.`.`.`.`.`.`.`.`.`.  % S :.:.s %   + : 0 u a u u w w W g.F.F.2.=   `.`.`.`.`.`.`.`.`.`.`.`.`.`.`.`.`.`.`.`.`.`.`.`.",
"`.`.`.`.`.`.`.`.`.`.`.`.`.`.`.`.  = ,.m.m.-.= X u ~ _ _ .._ _ .._ ..s.a.a._ =   `.`.`.`.`.`.`.`.`.`.`.`.`.`.`.`.`.`.`.`.`.`.`.`.",
"`.`.`.`.`.`.`.`.`.`.`.`.`.`.`.`.  = -.r.r.( % # T t.t.4.*.*.*.*.*.*.*.*.*.T @   `.`.`.`.`.`.`.`.`.`.`.`.`.`.`.`.`.`.`.`.`.`.`.`.",
"`.`.`.`.`.`.`.`.`.`.`.`.`.`.`.`.`.`.= < - * . # Q t.4.4.*.*.*.*.*.4.*.4.*.T #   `.`.`.`.`.`.`.`.`.`.`.`.`.`.`.`.`.`.`.`.`.`.`.`.",
"`.`.`.`.`.`.`.`.`.`.`.`.`.`.`.`.`.`.          & Q 4.4.4.*...Y T *.t.t.t.t.Q &   `.`.`.`.`.`.`.`.`.`.`.`.`.`.`.`.`.`.`.`.`.`.`.`.",
"`.`.`.`.`.`.`.`.`.`.`.`.`.`.`.`.`.`.`.`.`.`.  & Q *.*.*.*.T 1 3 ..d.a.d.d._ =   `.`.`.`.`.`.`.`.`.`.`.`.`.`.`.`.`.`.`.`.`.`.`.`.",
"`.`.`.`.`.`.`.`.`.`.`.`.`.`.`.`.`.`.`.`.`.`.  & T t.t...Q y X # d >.u.k.v.O.=   `.`.`.`.`.`.`.`.`.`.`.`.`.`.`.`.`.`.`.`.`.`.`.`.",
"`.`.`.`.`.`.`.`.`.`.`.`.`.`.`.`.`.`.`.`.`.`.  & T 4.t.Q 1 @ `.`.# 7 X.k.j.} =   `.`.`.`.`.`.`.`.`.`.`.`.`.`.`.`.`.`.`.`.`.`.`.`.",
"`.`.`.`.`.`.`.`.`.`.`.`.`.`.`.`.`.`.`.`.`.`.  % Y *.*.Y $   `.`.  $ P { { P *   `.`.`.`.`.`.`.`.`.`.`.`.`.`.`.`.`.`.`.`.`.`.`.`.",
"`.`.`.`.`.`.`.`.`.`.`.`.`.`.`.`.`.`.`.`.`.`.  % b =./ s @   `.`.`.`.* * * * `.`.`.`.`.`.`.`.`.`.`.`.`.`.`.`.`.`.`.`.`.`.`.`.`.`.",
"`.`.`.`.`.`.`.`.`.`.`.`.`.`.`.`.`.`.`.`.`.`.  % s =.=.s %   `.`.`.`.        `.`.`.`.`.`.`.`.`.`.`.`.`.`.`.`.`.`.`.`.`.`.`.`.`.`.",
"`.`.`.`.`.`.`.`.`.`.`.`.`.`.`.`.`.`.`.`.`.`.  % =.6.6./ %   `.`.`.`.`.`.`.`.`.`.`.`.`.`.`.`.`.`.`.`.`.`.`.`.`.`.`.`.`.`.`.`.`.`.",
"`.`.`.`.`.`.`.`.`.`.`.`.`.`.`.`.`.`.`.`.`.`.  % F <.<.F %   `.`.`.`.`.`.`.`.`.`.`.`.`.`.`.`.`.`.`.`.`.`.`.`.`.`.`.`.`.`.`.`.`.`.",
"`.`.`.`.`.`.`.`.`.`.`.`.`.`.`.`.`.`.`.`.`.`.  . - 8 8 - .   `.`.`.`.`.`.`.`.`.`.`.`.`.`.`.`.`.`.`.`.`.`.`.`.`.`.`.`.`.`.`.`.`.`.",
"`.`.`.`.`.`.`.`.`.`.`.`.`.`.`.`.`.`.`.`.`.`.`.`.`.`.`.`.`.`.`.`.`.`.`.`.`.`.`.`.`.`.`.`.`.`.`.`.`.`.`.`.`.`.`.`.`.`.`.`.`.`.`.`.",
"`.`.`.`.`.`.`.`.`.`.`.`.`.`.`.`.`.`.`.`.`.`.`.`.`.`.`.`.`.`.`.`.`.`.`.`.`.`.`.`.`.`.`.`.`.`.`.`.`.`.`.`.`.`.`.`.`.`.`.`.`.`.`.`.",
"`.`.`.`.`.`.`.`.`.`.`.`.`.`.`.`.`.`.`.`.`.`.`.`.`.`.`.`.`.`.`.`.`.`.`.`.`.`.`.`.`.`.`.`.`.`.`.`.`.`.`.`.`.`.`.`.`.`.`.`.`.`.`.`."
};
