/* XPM */
static char *result[] = {
/* columns rows colors chars-per-pixel */
"64 64 173 2 ",
"   c black",
".  c #0B0909",
"X  c #100706",
"o  c #110907",
"O  c #120C0A",
"+  c #1D0904",
"@  c #13130E",
"#  c #19110B",
"$  c #14180F",
"%  c #151511",
"&  c #161B12",
"*  c #191D15",
"=  c #1E1B19",
"-  c #241610",
";  c #2A1912",
":  c #271D14",
">  c #301A14",
",  c #222316",
"<  c #29261B",
"1  c #27291F",
"2  c #36231A",
"3  c #3D221A",
"4  c #28311F",
"5  c #2C2421",
"6  c #2C2E21",
"7  c #322723",
"8  c #332A25",
"9  c #342B28",
"0  c #392E2A",
"q  c #2B3124",
"w  c #303225",
"e  c #3A3127",
"r  c #333E27",
"t  c #36342A",
"y  c #3C342D",
"u  c #3E3531",
"i  c #3E3A31",
"p  c #43291F",
"a  c #5E2C1E",
"s  c #602111",
"d  c #6C2B1A",
"f  c #6E321D",
"g  c #7F311B",
"h  c #4A2C24",
"j  c #422E28",
"k  c #452B21",
"l  c #522E24",
"z  c #453527",
"x  c #4E3925",
"c  c #4B342B",
"v  c #433B2F",
"b  c #4C3C2A",
"n  c #42342C",
"m  c #553126",
"M  c #583427",
"N  c #563528",
"B  c #593629",
"V  c #51392E",
"C  c #5A3C2C",
"Z  c #433731",
"A  c #453B35",
"S  c #4A3D34",
"D  c #443C39",
"F  c #523E31",
"G  c #5A3E31",
"H  c #613021",
"J  c #663B26",
"K  c #38432C",
"L  c #37442C",
"P  c #3D4132",
"I  c #46402E",
"U  c #4A442E",
"Y  c #56402E",
"T  c #5A422F",
"R  c #4C4136",
"E  c #414A34",
"W  c #464239",
"Q  c #4B433C",
"!  c #4E4D3C",
"~  c #5D4532",
"^  c #554D37",
"/  c #5D4A35",
"(  c #544C3A",
")  c #5B4B38",
"_  c #465537",
"`  c #4B5236",
"'  c #475638",
"]  c #4A553C",
"[  c #4B5A3D",
"{  c #57563E",
"}  c #5C543B",
"|  c #525A3E",
" . c #5D5A3D",
".. c #794026",
"X. c #75422B",
"o. c #78442E",
"O. c #614C36",
"+. c #674E3B",
"@. c #774630",
"#. c #695337",
"$. c #62533D",
"%. c #645B3E",
"&. c #524C43",
"*. c #4D5A41",
"=. c #535442",
"-. c #535C45",
";. c #5E5942",
":. c #5E534F",
">. c #5C5C4A",
",. c #635740",
"<. c #645C41",
"1. c #6B5D44",
"2. c #665A56",
"3. c #536144",
"4. c #5E6644",
"5. c #5E6A46",
"6. c #5B654D",
"7. c #5D6B4D",
"8. c #5E734B",
"9. c #5F6550",
"0. c #666245",
"q. c #6A6246",
"w. c #616D47",
"e. c #66644A",
"r. c #6A664B",
"t. c #636C4B",
"y. c #6D6B4E",
"u. c #716B4D",
"i. c #62744D",
"p. c #636D53",
"a. c #6A6E54",
"s. c #657352",
"d. c #6C7355",
"f. c #667A53",
"g. c #697B56",
"h. c #6F775B",
"j. c #6D7D5C",
"k. c #727356",
"l. c #737D57",
"z. c #727B5D",
"x. c #707960",
"c. c #82432A",
"v. c #895E41",
"b. c #8B6243",
"n. c #8B7959",
"m. c #927655",
"M. c #6B824C",
"N. c #6E815D",
"B. c #748653",
"V. c #71815E",
"C. c #738362",
"Z. c #788765",
"A. c #778A60",
"S. c #7A8A65",
"D. c #7D8C69",
"F. c #7D9267",
"G. c #8E825D",
"H. c #81985D",
"J. c #878160",
"K. c #848D69",
"L. c #878D69",
"P. c #938B67",
"I. c #948F69",
"U. c #839C60",
"Y. c #84916C",
"T. c #88906D",
"R. c #94906A",
"E. c #899073",
"W. c #8E9A73",
"Q. c #95AC6F",
"!. c #A1AB87",
"~. c #A9B689",
"^. c None",
/* pixels */
"^.^.^.^.^.^.^.^.^.^.^.^.^.^.^.^.^.^.^.^.^.^.^.^.^.^.^.^.^.^.^.^.^.^.^.^.^.^.^.^.^.^.^.^.^.^.^.^.^.^.^.^.^.^.^.^.^.^.^.^.^.^.^.^.",
"^.^.^.^.^.^.^.^.^.^.^.^.^.^.^.^.^.^.^.^.^.^.^.^.^.^.^.^.^.^.^.^.^.^.^.^.^.^.^.^.^.^.^.^.^.^.^.^.^.^.^.^.^.^.^.^.^.^.^.^.^.^.^.^.",
"^.^.^.^.^.^.^.^.^.^.^.^.^.^.^.^.^.^.^.^.^.^.^.^.^.^.^.^.^.^.^.^.^.^.^.^.^.^.^.^.^.^.^.^.^.^.^.^.^.^.^.^.^.^.^.^.^.^.^.^.^.^.^.^.",
"^.^.^.^.^.^.^.^.^.^.^.^.^.^.^.^.^.^.^.^.^.^.^.^.^.^.^.^.^.^.^.^.^.^.^.^.^.^.^.^.^.^.^.^.^.^.^.^.^.^.^.^.^.^.^.^.^.^.^.^.^.^.^.^.",
"^.^.^.^.^.^.^.^.^.^.^.^.^.^.^.^.^.^.^.^.^.^.^.^.^.^.^.^.^.^.^.^.^.^.^.^.^.^.^.^.^.^.^.^.^.^.^.^.^.^.^.^.^.^.^.^.^.^.^.^.^.^.^.^.",
"^.^.^.^.^.^.^.^.^.^.^.^.^.^.^.^.^.^.^.^.^.^.^.^.^.^.^.^.^.^.^.^.^.^.^.^.^.^.^.^.^.^.^.^.^.^.^.^.^.^.^.^.^.^.^.^.^.^.^.^.^.^.^.^.",
"^.^.^.^.^.^.^.^.^.^.^.^.^.^.^.^.^.^.^.^.^.^.^.^.^.^.^.^.^.^.^.^.^.^.^.^.^.^.^.^.^.^.^.^.^.^.^.^.^.^.^.^.^.^.^.^.^.^.^.^.^.^.^.^.",
"^.^.^.^.^.^.^.^.^.^.^.^.^.^.^.^.^.^.^.^.^.^.^.^.^.^.^.^.^.^.^.^.^.^.^.^.^.^.^.^.^.^.^.^.^.^.^.^.^.^.^.^.^.^.^.^.^.^.^.^.^.^.^.^.",
"^.^.^.^.^.^.^.^.^.^.^.^.^.^.^.^.^.^.^.^.^.^.^.^.^.^.^.^.^.^.^.^.^.^.^.^.^.^.^.^.^.^.^.^.^.^.^.^.^.^.^.^.^.^.^.^.^.^.^.^.^.^.^.^.",
"^.^.^.^.^.^.^.^.^.^.^.^.^.^.^.^.^.^.^.^.^.^.^.^.^.^.^.^.^.^.^.^.^.^.^.^.^.^.^.^.^.^.^.^.^.^.^.^.^.^.^.^.^.^.^.^.^.^.^.^.^.^.^.^.",
"^.^.^.^.^.^.^.^.^.^.^.^.^.^.^.^.^.^.^.^.^.^.^.^.^.^.^.^.^.^.^.^.^.^.^.^.^.^.^.^.^.^.^.^.^.^.^.^.^.^.^.^.^.^.^.^.^.^.^.^.^.^.^.^.",
"^.^.^.^.^.^.^.^.^.^.^.^.^.^.^.^.^.^.^.^.^.^.^.^.^.^.^.^.^.^.^.^.^.^.^.^.^.^.^.^.^.^.^.^.^.^.^.^.^.^.^.^.^.^.^.^.^.^.^.^.^.^.^.^.",
"^.^.^.^.^.^.^.^.^.^.^.^.^.^.^.^.^.^.^.^.^.^.^.^.^.^.^.^.                    ^.^.^.^.^.^.^.^.^.^.^.^.^.^.^.^.^.^.^.^.^.^.^.^.^.^.",
"^.^.^.^.^.^.^.^.^.^.^.^.^.^.^.^.^.^.^.^.^.^.^.^.^.^.^.^.o # O O O O O O O o ^.^.^.^.^.^.^.^.^.^.^.^.^.^.^.^.^.^.^.^.^.^.^.^.^.^.",
"^.^.^.^.^.^.^.^.^.^.^.^.^.^.^.^.^.^.^.^.^.^.^.^.^.^.  O 2 p 3 3 p 3 3 3 p > X   ^.^.^.^.^.^.^.^.^.^.^.^.^.^.^.^.^.^.^.^.^.^.^.^.",
"^.^.^.^.^.^.^.^.^.^.^.^.^.^.^.^.^.^.^.^.^.^.^.^.^.^.o : b / B m a h l l l p : $ ^.^.^.^.^.^.^.^.^.^.^.^.^.^.^.^.^.^.^.^.^.^.^.^.",
"^.^.^.^.^.^.^.^.^.^.^.^.^.^.^.^.^.^.^.^.^.^.^.^.  O 2 b  . ./ N h a l m B Y ` L $   ^.^.^.^.^.^.^.^.^.^.^.^.^.^.^.^.^.^.^.^.^.^.",
"^.^.^.^.^.^.^.^.^.^.^.^.^.^.^.^.^.^.^.^.^.^.^.^.o - h O.4.4./ B m l l N T  .w.[ 4 $ ^.^.^.^.^.^.^.^.^.^.^.^.^.^.^.^.^.^.^.^.^.^.",
"^.^.^.^.^.^.^.^.^.^.^.^.^.^.^.^.^.^.^.^.^.^.  o > p N / 4.4./ B m h N T  .5.8.5.[ L &   ^.^.^.^.^.^.^.^.^.^.^.^.^.^.^.^.^.^.^.^.",
"^.^.^.^.^.^.^.^.^.^.^.^.^.^.^.^.^.^.^.^.^.^.  o 3 m B / 4.4./ B m N T } 5.8.8.i.i.' &   ^.^.^.^.^.^.^.^.^.^.^.^.^.^.^.^.^.^.^.^.",
"^.^.^.^.^.^.^.^.^.^.^.^.^.^.^.^.^.^.^.^.^.^.  O 3 m B / 4.4./ C B ~ ,.t.8.8.8.8.i.' &   ^.^.^.^.^.^.^.^.^.^.^.^.^.^.^.^.^.^.^.^.",
"^.^.^.^.^.^.^.^.^.^.^.^.^.^.^.^.^.^.^.^.^.^.  O 3 N ~ } 5.4./ C / %.s.g.s.8.8.8.i.' &   ^.^.^.^.^.^.^.^.^.^.^.^.^.^.^.^.^.^.^.^.",
"^.^.^.^.^.^.^.^.^.^.^.^.^.^.^.^.^.^.^.^.^.^.  # p ~  .5.i.e./ / e.d.j.j.f.i.8.8.8.' &   ^.^.^.^.^.^.^.^.^.^.^.^.^.^.^.^.^.^.^.^.",
"^.^.^.^.^.^.^.^.^.^.^.^.^.^.^.^.^.^.^.^.^.^.  O z } w.f.j.t./ O.a.C.C.j.N.g.f.i.i.' &   ^.^.^.^.^.^.^.^.^.^.^.^.^.^.^.^.^.^.^.^.",
"^.^.^.^.^.^.^.^.^.^.^.^.^.^.^.^.^.^.^.^.^.^.  $ U w.s.g.N.a.O.O.d.C.C.j.C.C.g.f.i._ &   ^.^.^.^.^.^.^.^.^.^.^.^.^.^.^.^.^.^.^.^.",
"^.^.^.^.^.^.^.^.^.^.^.^.^.^.^.^.^.^.^.^.^.^.  * [ 8.3.[ -.-.) $.e.d.j.h.6.*.*.3.8.] &   ^.^.^.^.^.^.^.^.^.^.^.^.^.^.^.^.^.^.^.^.",
"^.^.^.^.^.^.^.^.^.^.^.^.^.^.^.^.^.^.^.^.^.^.  * [ 3.q $ $ q -.r.,.<.h.7.q $ @ q 3.[ *   ^.^.^.^.^.^.^.^.^.^.^.^.^.^.^.^.^.^.^.^.",
"^.^.^.^.^.^.^.^.^.^.^.^.^.^.^.^.^.^.^.^.^.^.  * *.7.P 1 , K 7.d.O.O.a.7.L * 6 i 7.*.*   ^.^.^.^.^.^.^.^.^.^.^.^.^.^.^.^.^.^.^.^.",
"^.^.^.^.^.^.^.^.^.^.^.^.^.^.^.^.^.^.^.^.^.^.  * *.C.E.T.B.M.N.a.O.O.a.N.M.B.Y.T.C.] *   ^.^.^.^.^.^.^.^.^.^.^.^.^.^.^.^.^.^.^.^.",
"^.^.^.^.^.^.^.^.^.^.^.^.^.^.^.^.^.^.^.^.^.^.  * *.D.!.~.Q.U.A.d.$.$.e.l.F.Q.~.!.D.*.*   ^.^.^.^.^.^.^.^.^.^.^.^.^.^.^.^.^.^.^.^.",
"^.^.^.^.^.^.^.^.^.^.^.^.^.^.^.^.^.^.^.^.^.^.  * -.Z.D.Y.D.A.C.j.d.r.$.<.l.F.Y.Y.Z.3.*   ^.^.^.^.^.^.^.^.^.^.^.^.^.^.^.^.^.^.^.^.",
"^.^.^.^.^.^.^.^.^.^.^.^.^.^.^.^.^.^.^.^.^.^.  * -.N.V.N.N.j.V.C.C.d.,.$.e.s.N.C.N.-.*   ^.^.^.^.^.^.^.^.^.^.^.^.^.^.^.^.^.^.^.^.",
"^.^.^.^.^.^.^.^.^.^.^.^.^.^.^.^.^.^.^.^.^.^.  * [ g.N.V.N.z.V.V.C.j.d.e.$.,.d.N.g.' *   ^.^.^.^.^.^.^.^.^.^.^.^.^.^.^.^.^.^.^.^.",
"^.^.^.^.^.^.^.^.^.^.^.^.^.^.^.^.^.^.^.^.^.^.  % E 7.f.V.S.Z.C.V.Z.Z.C.h.q.1.y.a.6.E &   ^.^.^.^.^.^.^.^.^.^.^.^.^.^.^.^.^.^.^.^.",
"^.^.^.^.^.^.^.^.^.^.^.^.^.^.^.^.^.^.^.^.^.^.  # e | 7.V.W.W.Z.Z.W.W.Z.Z.L.J.1.) ( t %   ^.^.^.^.^.^.^.^.^.^.^.^.^.^.^.^.^.^.^.^.",
"^.^.^.^.^.^.^.^.^.^.^.^.^.^.^.^.^.^.^.^.^.^.  O 7 R | s.L.W.K.L.P.P.K.K.I.n.+.V S 9 .   ^.^.^.^.^.^.^.^.^.^.^.^.^.^.^.^.^.^.^.^.",
"^.^.^.^.^.^.^.^.^.^.^.^.^.^.^.^.^.^.^.^.^.^.  O 3 V S =.i.S.W.P.v.v.I.I.b.@.G S S 9 O   ^.^.^.^.^.^.^.^.^.^.^.^.^.^.^.^.^.^.^.^.",
"^.^.^.^.^.^.^.^.^.^.^.^.^.^.^.^.^.^.^.^.^.^.  O 3 h c R { i.T.G.c.c.m.m.o.a c D D 9 O   ^.^.^.^.^.^.^.^.^.^.^.^.^.^.^.^.^.^.^.^.",
"^.^.^.^.^.^.^.^.^.^.^.^.^.^.^.^.^.^.^.^.^.^.  O > l h c v ] i.u...g c.o.B h Z S D 9 %   ^.^.^.^.^.^.^.^.^.^.^.^.^.^.^.^.^.^.^.^.",
"^.^.^.^.^.^.^.^.^.^.^.^.^.^.^.^.^.^.^.^.^.^.  # c G m h j A [  .J d d H S W A D D 9 .   ^.^.^.^.^.^.^.^.^.^.^.^.^.^.^.^.^.^.^.^.",
"^.^.^.^.^.^.^.^.^.^.^.^.^.^.^.^.^.^.^.^.^.^.  * =.r.G h j 0 v v c h h F 6.6.! A A 8 O   ^.^.^.^.^.^.^.^.^.^.^.^.^.^.^.^.^.^.^.^.",
"^.^.^.^.^.^.^.^.^.^.^.^.^.^.^.^.^.^.^.^.^.^.  * -.p.,.F Z 0 0 0 0 y i =.p.d.&.A A 8 O   ^.^.^.^.^.^.^.^.^.^.^.^.^.^.^.^.^.^.^.^.",
"^.^.^.^.^.^.^.^.^.^.^.^.^.^.^.^.^.^.^.^.^.^.  # u :.a.9.A 8 9 9 9 i -.p.j.p.! A D 9 O   ^.^.^.^.^.^.^.^.^.^.^.^.^.^.^.^.^.^.^.^.",
"^.^.^.^.^.^.^.^.^.^.^.^.^.^.^.^.^.^.^.^.^.^.  . 7 &.p.e.A 7 7 7 8 D 7.j.p.>.D A D 9 O   ^.^.^.^.^.^.^.^.^.^.^.^.^.^.^.^.^.^.^.^.",
"^.^.^.^.^.^.^.^.^.^.^.^.^.^.^.^.^.^.^.^.^.^.  O 9 D &.Q y 7 9 8 7 A 7.p.! A A A D 9 O   ^.^.^.^.^.^.^.^.^.^.^.^.^.^.^.^.^.^.^.^.",
"^.^.^.^.^.^.^.^.^.^.^.^.^.^.^.^.^.^.^.^.^.^.  % 9 S S u 9 7 7 7 < i -.=.y 8 y A D 9 O   ^.^.^.^.^.^.^.^.^.^.^.^.^.^.^.^.^.^.^.^.",
"^.^.^.^.^.^.^.^.^.^.^.^.^.^.^.^.^.^.^.^.^.^.  O 9 A S y 8 < < 5 5 9 e t 7 7 u A D 9 O   ^.^.^.^.^.^.^.^.^.^.^.^.^.^.^.^.^.^.^.^.",
"^.^.^.^.^.^.^.^.^.^.^.^.^.^.^.^.^.^.^.^.^.^.  O 9 A A Z n e e e e e e e e y A A S 9 O   ^.^.^.^.^.^.^.^.^.^.^.^.^.^.^.^.^.^.^.^.",
"^.^.^.^.^.^.^.^.^.^.^.^.^.^.^.^.^.^.^.^.^.^.  O 9 D D D ^ ^ ^ } } ^ ^ ^ ^ ( A D A 9 O   ^.^.^.^.^.^.^.^.^.^.^.^.^.^.^.^.^.^.^.^.",
"^.^.^.^.^.^.^.^.^.^.^.^.^.^.^.^.^.^.^.^.^.^.  % i &.&.=.%.0.%.%.%.%.%.%.%.,.=.&.&.i %   ^.^.^.^.^.^.^.^.^.^.^.^.^.^.^.^.^.^.^.^.",
"^.^.^.^.^.^.^.^.^.^.^.^.^.^.^.^.^.^.^.^.^.^.  * -.x.z.a.0.%.%.%.%.%.%.%.%.0.a.h.x.-.*   ^.^.^.^.^.^.^.^.^.^.^.^.^.^.^.^.^.^.^.^.",
"^.^.^.^.^.^.^.^.^.^.^.^.^.^.^.^.^.^.^.^.^.^.  = &.p.j.k.0.%.%.^ U U $.0.0.y.l.z.p.&.*   ^.^.^.^.^.^.^.^.^.^.^.^.^.^.^.^.^.^.^.^.",
"^.^.^.^.^.^.^.^.^.^.^.^.^.^.^.^.^.^.^.^.^.^.^.^.& w { r.%.%.%.U , < } y.y.u.k.>.w * ^.^.^.^.^.^.^.^.^.^.^.^.^.^.^.^.^.^.^.^.^.^.",
"^.^.^.^.^.^.^.^.^.^.^.^.^.^.^.^.^.^.^.^.^.^.^.^.  % U 0.%.%.O.x # @ A } r.u.y.( &   ^.^.^.^.^.^.^.^.^.^.^.^.^.^.^.^.^.^.^.^.^.^.",
"^.^.^.^.^.^.^.^.^.^.^.^.^.^.^.^.^.^.^.^.^.^.^.^.  $ U <.0.#.X.f ^.^.$ 4 | i.i.] &   ^.^.^.^.^.^.^.^.^.^.^.^.^.^.^.^.^.^.^.^.^.^.",
"^.^.^.^.^.^.^.^.^.^.^.^.^.^.^.^.^.^.^.^.^.^.^.^.  % b ;.%.~ a s ^.^.  % ' f.f.[ &   ^.^.^.^.^.^.^.^.^.^.^.^.^.^.^.^.^.^.^.^.^.^.",
"^.^.^.^.^.^.^.^.^.^.^.^.^.^.^.^.^.^.^.^.^.^.^.^.  % y &.! A ; + ^.^.  & -.N.N.*.*   ^.^.^.^.^.^.^.^.^.^.^.^.^.^.^.^.^.^.^.^.^.^.",
"^.^.^.^.^.^.^.^.^.^.^.^.^.^.^.^.^.^.^.^.^.^.^.^.  O Z &.&.u %   ^.^.  & P 3.6.P &   ^.^.^.^.^.^.^.^.^.^.^.^.^.^.^.^.^.^.^.^.^.^.",
"^.^.^.^.^.^.^.^.^.^.^.^.^.^.^.^.^.^.^.^.^.^.^.^.  % D 2.2.D %   ^.^.^.^.* * * * ^.^.^.^.^.^.^.^.^.^.^.^.^.^.^.^.^.^.^.^.^.^.^.^.",
"^.^.^.^.^.^.^.^.^.^.^.^.^.^.^.^.^.^.^.^.^.^.^.^.  % D :.2.D %   ^.^.^.^.        ^.^.^.^.^.^.^.^.^.^.^.^.^.^.^.^.^.^.^.^.^.^.^.^.",
"^.^.^.^.^.^.^.^.^.^.^.^.^.^.^.^.^.^.^.^.^.^.^.^.  . = 5 5 = .   ^.^.^.^.        ^.^.^.^.^.^.^.^.^.^.^.^.^.^.^.^.^.^.^.^.^.^.^.^.",
"^.^.^.^.^.^.^.^.^.^.^.^.^.^.^.^.^.^.^.^.^.^.^.^.^.^.^.^.^.^.^.^.^.^.^.^.^.^.^.^.^.^.^.^.^.^.^.^.^.^.^.^.^.^.^.^.^.^.^.^.^.^.^.^.",
"^.^.^.^.^.^.^.^.^.^.^.^.^.^.^.^.^.^.^.^.^.^.^.^.^.^.^.^.^.^.^.^.^.^.^.^.^.^.^.^.^.^.^.^.^.^.^.^.^.^.^.^.^.^.^.^.^.^.^.^.^.^.^.^.",
"^.^.^.^.^.^.^.^.^.^.^.^.^.^.^.^.^.^.^.^.^.^.^.^.^.^.^.^.^.^.^.^.^.^.^.^.^.^.^.^.^.^.^.^.^.^.^.^.^.^.^.^.^.^.^.^.^.^.^.^.^.^.^.^."
};
