/* XPM */
static char *result[] = {
/* columns rows colors chars-per-pixel */
"64 64 176 2 ",
"   c #000000",
".  c #0A0707",
"X  c #0A0807",
"o  c #0E0C0B",
"O  c #130705",
"+  c #110907",
"@  c #120C0A",
"#  c #1E0A04",
"$  c #14130E",
"%  c #18160F",
"&  c #14180F",
"*  c #141411",
"=  c #181611",
"-  c #161B12",
";  c #1A1C15",
":  c #1C1F18",
">  c #290F08",
",  c #241610",
"<  c #231C15",
"1  c #231B19",
"2  c #301A14",
"3  c #1E221A",
"4  c #222316",
"5  c #23261D",
"6  c #2A231D",
"7  c #27291F",
"8  c #36231A",
"9  c #3D221B",
"0  c #28311F",
"q  c #292320",
"w  c #2D2922",
"e  c #312623",
"r  c #332A26",
"t  c #342C28",
"y  c #3A2F2A",
"u  c #2B3124",
"i  c #2E3428",
"p  c #343020",
"a  c #393126",
"s  c #333E27",
"d  c #37352B",
"f  c #3B322C",
"g  c #3B382E",
"h  c #3A3331",
"j  c #3D3A32",
"k  c #561F10",
"l  c #43291F",
"z  c #5E2B1E",
"x  c #5E2212",
"c  c #672614",
"v  c #682614",
"b  c #6C2C1B",
"n  c #7F311B",
"m  c #462E26",
"M  c #4B2F25",
"N  c #532E24",
"B  c #453527",
"V  c #44332C",
"C  c #4C342B",
"Z  c #433A2E",
"A  c #4C3C2A",
"S  c #553126",
"D  c #553629",
"F  c #593629",
"G  c #5A3B2B",
"H  c #423732",
"J  c #443B34",
"K  c #483C36",
"L  c #553E31",
"P  c #663B26",
"I  c #38442C",
"U  c #3D4132",
"Y  c #4B442E",
"T  c #56402E",
"R  c #5A422F",
"E  c #454036",
"W  c #4B4432",
"Q  c #424B32",
"!  c #4D4B35",
"~  c #4B443C",
"^  c #454D3B",
"/  c #4E4F3E",
"(  c #5D4532",
")  c #554D36",
"_  c #5D4A35",
"`  c #524B3A",
"'  c #5B4B38",
"]  c #465537",
"[  c #475638",
"{  c #4C543C",
"}  c #4C5A3D",
"|  c #4C5035",
" . c #5C543B",
".. c #5D5A3D",
"X. c #51563D",
"o. c #794026",
"O. c #77442E",
"+. c #78452F",
"@. c #604A37",
"#. c #654C39",
"$. c #62533D",
"%. c #645C3E",
"&. c #4B4240",
"*. c #534D42",
"=. c #4C5642",
"-. c #4D5A40",
";. c #535543",
":. c #535C45",
">. c #5B5C49",
",. c #5C5642",
"<. c #635740",
"1. c #655D41",
"2. c #6B5D43",
"3. c #536144",
"4. c #5E6644",
"5. c #5E6A46",
"6. c #5A634C",
"7. c #5D6B4D",
"8. c #566349",
"9. c #5E734B",
"0. c #5D6951",
"q. c #696144",
"w. c #616D47",
"e. c #66644A",
"r. c #69654B",
"t. c #636C4B",
"y. c #6D694C",
"u. c #656145",
"i. c #716B4C",
"p. c #61744D",
"a. c #616752",
"s. c #6C6056",
"d. c #636B52",
"f. c #6B6E53",
"g. c #716954",
"h. c #647452",
"j. c #6C7355",
"k. c #667954",
"l. c #697B56",
"z. c #6B765A",
"x. c #6D7D5D",
"c. c #737D57",
"v. c #707D5D",
"b. c #727B61",
"n. c #82432A",
"m. c #895E41",
"M. c #8B6243",
"N. c #8B7959",
"B. c #927655",
"V. c #6B824C",
"C. c #6F815D",
"Z. c #748653",
"A. c #71815E",
"S. c #738362",
"D. c #788765",
"F. c #778A60",
"G. c #7A8A65",
"H. c #7C8B69",
"J. c #7D9267",
"K. c #8E825D",
"L. c #81985D",
"P. c #878160",
"I. c #848D69",
"U. c #878D69",
"Y. c #938B67",
"T. c #948F69",
"R. c #83916C",
"E. c #88906D",
"W. c #839C60",
"Q. c #94906A",
"!. c #899073",
"~. c #8E9A73",
"^. c #95AC6F",
"/. c #A1AB87",
"(. c #A9B689",
"). c None",
/* pixels */
").).).).).).).).).).).).).).).).).).).).).).).).).).).).).).).).).).).).).).).).).).).).).).).).).).).).).).).).).).).).).).).).",
").).).).).).).).).).).).).).).).).).).).).).).).).).).).).).).).).).).).).).).).).).).).).).).).).).).).).).).).).).).).).).).).",
").).).).).).).).).).).).).).).).).).).).).).).).).).).).).).).).).).).).).).).).).).).).).).).).).).).).).).).).).).).).).).).).",
").).).).).).).).).).).).).).).).).).).).).).).).).).).).).).).).).).).).).).).).).).).).).).).).).).).).).).).).).).).).).).).).",
").).).).).).).).).).).).).).).).).).).).).).).).).).).).).).).).).).).).).).).).).).).).).).).).).).).).).).).).).).).).).).).).",
").).).).).).).).).).).).).).).).).).).).).).).).).).).).).).).).).).).).).).).).).).).).).).).).).).).).).).).).).).).).).).).).",
").).).).).).).).).).).).).).).).).).).).).).).).).).).).).).).).).).).).).).).).).).).).).).).).).).).).).).).).).).).).).).).).",
").).).).).).).).).).).).).).).).).).).).).).).).).).).).).).).).).).).).).).).).).).).).).).).).).).).).).).).).).).).).).).).).",
").).).).).).).).).).).).).).).).).).).).).).).).).).).).).).).).).).).).).).).).).).).).).).).).).).).).).).).).).).).).).).).).",
").).).).).).).).).).).).).).).).).).).).).).).).).).).).).).).).).).).).).).).).).).).).).).).).).).).).).).).).).).).).).).).).",
").).).).).).).).).).).).).).).).).).).).).).).).).).).).).).                    ).).).).).).).).).).).).).).).).).).).).).).).).",
").).).).).).).).).).).).).).).).).).).).).).).).).).).).).).@ # @ @ O @ @ O @ + ).).).).).).).).).).).).).).).).).).).).).).).).",
").).).).).).).).).).).).).).).).).).).).).).).).).).).).  @ 8 l l 2 2 l l 2 9 2 +   ).).).).).).).).).).).).).).).).).).).).).).",
").).).).).).).).).).).).).).).).).).).).).).).).).).).).O < Y ( F F N N S S S m 4 & ).).).).).).).).).).).).).).).).).).).).).).",
").).).).).).).).).).).).).).).).).).).).).).).).).).  @ 8 A ....@.S S N z N F T ! I &   ).).).).).).).).).).).).).).).).).).).).",
").).).).).).).).).).).).).).).).).).).).).).).).).).+ , B _ 5.4._ F S N N S R  .w.} 0 & ).).).).).).).).).).).).).).).).).).).).",
").).).).).).).).).).).).).).).).).).).).).).).).  + 2 l F @.4.4._ F N N D R ..5.9.9.} I -   ).).).).).).).).).).).).).).).).).).",
").).).).).).).).).).).).).).).).).).).).).).).).  @ 9 S F _ 4.4._ F S S (  .5.9.9.p.p.[ -   ).).).).).).).).).).).).).).).).).).",
").).).).).).).).).).).).).).).).).).).).).).).).  + l S F _ 4.4._ F F ( ,.t.9.9.9.9.p.[ -   ).).).).).).).).).).).).).).).).).).",
").).).).).).).).).).).).).).).).).).).).).).).).  O 9 F R  .w.u._ R @.<.h.l.h.9.9.9.p.] -   ).).).).).).).).).).).).).).).).).).",
").).).).).).).).).).).).).).).).).).).).).).).).  @ l R ..5.h.e._ _ e.j.x.x.k.h.9.p.p.[ -   ).).).).).).).).).).).).).).).).).).",
").).).).).).).).).).).).).).).).).).).).).).).).  $ B $.w.k.l.t._ _ j.S.S.x.x.l.p.p.p.[ -   ).).).).).).).).).).).).).).).).).).",
").).).).).).).).).).).).).).).).).).).).).).).).  - Q w.k.l.C.j.@.' f.S.A.A.C.C.l.l.p.[ -   ).).).).).).).).).).).).).).).).).).",
").).).).).).).).).).).).).).).).).).).).).).).).  - [ 9.3.-.-.:. .$.r.j.x.z.7.-.} 3.9.[ -   ).).).).).).).).).).).).).).).).).).",
").).).).).).).).).).).).).).).).).).).).).).).).  ; } 3.u & & u >.r.$.<.c.7.i * & u 3.} 3   ).).).).).).).).).).).).).).).).).).",
").).).).).).).).).).).).).).).).).).).).).).).).  ; -.7.U w 3 s 7.j.@.@.j.7.s 4 w U 6.-.;   ).).).).).).).).).).).).).).).).).).",
").).).).).).).).).).).).).).).).).).).).).).).).  ; -.S.!.E.Z.V.A.j.@.@.j.C.V.Z.E.!.S.-.-   ).).).).).).).).).).).).).).).).).).",
").).).).).).).).).).).).).).).).).).).).).).).).  ; -.H./.(.^.W.A.j.%.$.e.c.L.^.(./.D.-.;   ).).).).).).).).).).).).).).).).).).",
").).).).).).).).).).).).).).).).).).).).).).).).  ; 3.D.R.R.H.F.S.x.j.r.$.%.c.J.R.R.D.:.;   ).).).).).).).).).).).).).).).).).).",
").).).).).).).).).).).).).).).).).).).).).).).).  ; -.C.A.C.A.x.A.A.S.j.$.$.e.j.x.A.A.:.3   ).).).).).).).).).).).).).).).).).).",
").).).).).).).).).).).).).).).).).).).).).).).).  - } l.x.x.A.A.A.A.b.x.j.r.$.$.f.A.V.} -   ).).).).).).).).).).).).).).).).).).",
").).).).).).).).).).).).).).).).).).).).).).).).  - Q 7.l.A.D.D.S.A.D.G.D.z.q.2.f.h.7.U -   ).).).).).).).).).).).).).).).).).).",
").).).).).).).).).).).).).).).).).).).).).).).).  $ d ;.w.Z.E.~.D.D.~.~.G.S.E.K.2.' ` f $   ).).).).).).).).).).).).).).).).).).",
").).).).).).).).).).).).).).).).).).).).).).).).  @ e K ;.h.U.~.I.I.Y.Y.I.I.T.N.#.C K r o   ).).).).).).).).).).).).).).).).).).",
").).).).).).).).).).).).).).).).).).).).).).).).  @ 2 D J { p.G.~.T.m.M.T.T.M.O.D H J t o   ).).).).).).).).).).).).).).).).).).",
").).).).).).).).).).).).).).).).).).).).).).).).  @ B L C Z { h.R.P.n.n.B.B.O.z M h H y : o ).).).).).).).).).).).).).).).).).).",
").).).).).).).).).).).).).).).).).).).).).).).).  ; ;.y.L M V / h.i.P n n.+.F M y H H H h q o   ).).).).).).).).).).).).).).).).",
").).).).).).).).).).).).).).).).).).).).).).).).  ; ;.f.$.L V j X.%.P b b S m y f V H K K y o   ).).).).).).).).).).).).).).).).",
").).).).).).).).).).).).).).).).).).).).).).).).  o j >.f.a.K V Z Z C M M m V y y h H K K t o   ).).).).).).).).).).).).).).).).",
").).).).).).).).).).).).).).).).).).).).).).).).  o r *.d.0.~ y f f f f y j J J j h H K K t o   ).).).).).).).).).).).).).).).).",
").).).).).).).).).).).).).).).).).).).).).).).).  @ t ~ *.~ H f f y f y f J 6.8.J y H J K t @   ).).).).).).).).).).).).).).).).",
").).).).).).).).).).).).).).).).).).).).).).).).  @ q f H j y y y y y V J ;.z.0.g 6 w f H t @   ).).).).).).).).).).).).).).).).",
").).).).).).).).).).).).).).).).).).).).).).).).).).o : t H y t r r r H ;.h.x.8.5 X o ; h t o   ).).).).).).).).).).).).).).).).",
").).).).).).).).).).).).).).).).).).).).).).).).).).  o t H y t r e e E 0.x.d.] =     @ t y : o ).).).).).).).).).).).).).).).).",
").).).).).).).).).).).).).).).).).).).).).).).).).).  o t K H y a r r J t.h.` t @     @ t J h q @   ).).).).).).).).).).).).).).",
").).).).).).).).).).).).).).).).).).).).).).).).).).  * j *.*.~ f e e g ;.;.g 1 X     o t K K t o   ).).).).).).).).).).).).).).",
").).).).).).).).).).).).).).).).).).).).).).).).).).  ; =.b.v.e.g 6 q e d a w ; X     $ t K K t @   ).).).).).).).).).).).).).).",
").).).).).).).).).).).).).).).).).).).).).).).).).).  ; >.S.S.d.W a y a a f f r 1 o   * j ;.*.j *   ).).).).).).).).).).).).).).",
").).).).).).).).).).).).).).).).).).).).).).).).).).  - ) y.y.u. .) ) ) )  .) ) ! a @ ; ;.b.b.;.;   ).).).).).).).).).).).).).).",
").).).).).).).).).).).).).).).).).).).).).).).).).).  = Y %.%.%.%.%.%.%.%.1.%.q.q.Y % * ^ 0.0.=.;   ).).).).).).).).).).).).).).",
").).).).).).).).).).).).).).).).).).).).).).).).).).  % Y %.<.<.%.%.%.%.%.%.1.1.1.Y - . - 3 3 ; ).).).).).).).).).).).).).).).).",
").).).).).).).).).).).).).).).).).).).).).).).).).).  = ! q.q.2.q.%.Y Y  .%.%.%.1.Y *           ).).).).).).).).).).).).).).).).",
").).).).).).).).).).).).).).).).).).).).).).).).).).  ; ` i.i.i.y. .4 4 Y %.%.%.1.Y %   ).).).).).).).).).).).).).).).).).).).).",
").).).).).).).).).).).).).).).).).).).).).).).).).).  = ` g.g.r...E % @ p ! $.%.q.Y %   ).).).).).).).).).).).).).).).).).).).).",
").).).).).).).).).).).).).).).).).).).).).).).).).).  = &.s.s.*.w % ).).@ 4 | 1.1.Y %   ).).).).).).).).).).).).).).).).).).).).",
").).).).).).).).).).).).).).).).).).).).).).).).).).  * h &.&.h *   ).).  % ! q.y.! ;   ).).).).).).).).).).).).).).).).).).).).",
").).).).).).).).).).).).).).).).).).).).).).).).).).).).* * * o ).).).).  - { z.l.=.-   ).).).).).).).).).).).).).).).).).).).).",
").).).).).).).).).).).).).).).).).).).).).).).).).).).).  . O # ).).).).  ; 8.S.S.8.;   ).).).).).).).).).).).).).).).).).).).).",
").).).).).).).).).).).).).).).).).).).).).).).).).).).).).).x x ).).).).  3 6.D.D.6.3   ).).).).).).).).).).).).).).).).).).).).",
").).).).).).).).).).).).).).).).).).).).).).).).).).).).).).v c ).).).).  ; =.z.z.=.;   ).).).).).).).).).).).).).).).).).).).).",
").).).).).).).).).).).).).).).).).).).).).).).).).).).).).).> > ).).).).  o 5 i i q o   ).).).).).).).).).).).).).).).).).).).).",
").).).).).).).).).).).).).).).).).).).).).).).).).).).).).).).).).).).).).).).).).).).).).).).).).).).).).).).).).).).).).).).).",
").).).).).).).).).).).).).).).).).).).).).).).).).).).).).).).).).).).).).).).).).).).).).).).).).).).).).).).).).).).).).).).).",
").).).).).).).).).).).).).).).).).).).).).).).).).).).).).).).).).).).).).).).).).).).).).).).).).).).).).).).).).).).).).).).)."
};
