/* XPM */
static char *result[] = {
/* columns rows colors chars-per-pixel */
"64 64 176 2 ",
"   c #000000",
".  c #0D0C0A",
"X  c #100706",
"o  c #110907",
"O  c #1B0904",
"+  c #120C0A",
"@  c #1C0703",
"#  c #14130E",
"$  c #14180F",
"%  c #141511",
"&  c #1A1612",
"*  c #161B12",
"=  c #1A1C15",
"-  c #1C1F18",
";  c #251611",
":  c #241B15",
">  c #221C18",
",  c #2D1C18",
"<  c #301A14",
"1  c #1C2019",
"2  c #222316",
"3  c #22261D",
"4  c #29261A",
"5  c #27291F",
"6  c #36231A",
"7  c #3D221A",
"8  c #28311F",
"9  c #2D2420",
"0  c #2B2922",
"q  c #322723",
"w  c #332A26",
"e  c #352C28",
"r  c #3A2E2A",
"t  c #2C3124",
"y  c #2E3428",
"u  c #343020",
"i  c #3A3127",
"p  c #333E27",
"a  c #353329",
"s  c #3C332D",
"d  c #3C382E",
"f  c #3F3530",
"g  c #3E3A32",
"h  c #4A1D11",
"j  c #43291F",
"k  c #5E2211",
"l  c #5D291C",
"z  c #602212",
"x  c #6C2B1A",
"c  c #7F311B",
"v  c #452D24",
"b  c #4B2D24",
"n  c #422F29",
"m  c #532E24",
"M  c #5E2E22",
"N  c #453527",
"B  c #43352E",
"V  c #4C352B",
"C  c #413E2F",
"Z  c #4C3C2A",
"A  c #553126",
"S  c #553629",
"D  c #593629",
"F  c #5A3B2B",
"G  c #423731",
"H  c #443B34",
"J  c #483C35",
"K  c #493D38",
"L  c #513D33",
"P  c #673524",
"I  c #38442C",
"U  c #3D4132",
"Y  c #4B442E",
"T  c #56402E",
"R  c #5A422F",
"E  c #454137",
"W  c #4B4233",
"Q  c #424B32",
"!  c #4D4933",
"~  c #4B483D",
"^  c #5D4532",
"/  c #554D36",
"(  c #5D4A35",
")  c #544D39",
"_  c #584636",
"`  c #465537",
"'  c #475638",
"]  c #4B543C",
"[  c #4C5A3D",
"{  c #4C5035",
"}  c #5C543A",
"|  c #5D5A3D",
" . c #52573D",
".. c #794026",
"X. c #77442E",
"o. c #78452E",
"O. c #604A37",
"+. c #654C39",
"@. c #62533D",
"#. c #645C3E",
"$. c #534D43",
"%. c #534541",
"&. c #4D5441",
"*. c #4D5A40",
"=. c #545242",
"-. c #5A5442",
";. c #535C45",
":. c #5E5E47",
">. c #634B44",
",. c #635740",
"<. c #655C41",
"1. c #6B5D44",
"2. c #6A5F56",
"3. c #536144",
"4. c #5E6644",
"5. c #5E6A46",
"6. c #5B634C",
"7. c #5D6B4C",
"8. c #5E734B",
"9. c #5C6850",
"0. c #676347",
"q. c #6B6146",
"w. c #616D47",
"e. c #66644B",
"r. c #69654A",
"t. c #636C4B",
"y. c #6C684D",
"u. c #716B4C",
"i. c #62744D",
"p. c #626752",
"a. c #6A6F53",
"s. c #706853",
"d. c #647451",
"f. c #6C7355",
"g. c #667954",
"h. c #697B56",
"j. c #6C775C",
"k. c #6D7D5C",
"l. c #737D57",
"z. c #717B5E",
"x. c #737154",
"c. c #707A60",
"v. c #822E18",
"b. c #87321B",
"n. c #82432A",
"m. c #895E41",
"M. c #8B6243",
"N. c #8B7959",
"B. c #927655",
"V. c #6B824C",
"C. c #6F815D",
"Z. c #748653",
"A. c #71815E",
"S. c #738362",
"D. c #788765",
"F. c #778A60",
"G. c #7A8A65",
"H. c #7C8B69",
"J. c #7D9267",
"K. c #8E825D",
"L. c #81985D",
"P. c #878160",
"I. c #848D69",
"U. c #878D69",
"Y. c #938B67",
"T. c #948F69",
"R. c #83916C",
"E. c #88906D",
"W. c #839C60",
"Q. c #94906A",
"!. c #899073",
"~. c #8E9A73",
"^. c #95AC6F",
"/. c #A1AB87",
"(. c #A9B689",
"). c None",
/* pixels */
").).).).).).).).).).).).).).).).).).).).).).).).).).).).).).).).).).).).).).).).).).).).).).).).).).).).).).).).).).).).).).).).",
").).).).).).).).).).).).).).).).).).).).).).).).).).).).).).).).).).).).).).).).).).).).).).).).).).).).).).).).).).).).).).).).",
").).).).).).).).).).).).).).).).).).).).).).).).).).).).).).).).).).).).).).).).).).).).).).).).).).).).).).).).).).).).).).).).",
").).).).).).).).).).).).).).).).).).).).).).).).).).).).).).).).).).).).).).).).).).).).).).).).).).).).).).).).).).).).).).).).",
").).).).).).).).).).).).).).).).).).).).).).).).).).).).).).).).).).).).).).).).).).).).).).).).).).).).).).).).).).).).).).).).",
").).).).).).).).).).).).).).).).).).).).).).).).).).).).).).).).).).).).).).).).).).).).).).).).).).).).).).).).).).).).).).).).",
").).).).).).).).).).).).).).).).).).).).).).).).).).).).).).).).).).).).).).).).).).).).).).).).).).).).).).).).).).).).).).).).",
").).).).).).).).).).).).).).).).).).).).).).).).).).).).).).).).).).).).).).).).).).).).).).).).).).).).).).).).).).).).).).).).",
").).).).).).).).).).).).).).).).).).).).).).).).).).).).).).).).).).).).).).).).).).).).).).).).).).).).).).).).).).).).).).).).",
").).).).).).).).).).).).).).).).).).).).).).).).).).).).).).).).).).).).).).).).).).).).).).).).).).).).).).).).).).).).).).).).",
").).).).).).).).).).).).).).).).).).).).).).).).).).).).).).).).).).).).).).).).).).).).).).).).).).).).).).).).).).).).).).).).",
").).).).).).).).).).).).).).).).).).).).).).).).).).).).).).).).).).).).).).).).).).).).).).).).).).).).).).).).).).).).).).).).",
").).).).).).).).).).).).).).).).).).).).).).).).).).).).).).).).).).).).).).).).).).).).).).).).).).).).).).).).).).).).).).).).",
").).).).).).).).).).).).).).).).).).).).).).).).).).).).).).).).).).).).).).).).).).).).).).).).).).).).).).).).).).).).).).).).",
").).).).).).).).).).).).).).).).).).).).).).).).).).).).).).                    ).).).).).).).).).).).).).).).).).).).).).).).).",
").).).).).).).).).).).).).).).).).).).).).).).).).).).).).).+ + + + + O + + + o ).).).).).).).).).).).).).).).).).).).).).).).).",
").).).).).).).).).).).).).).).).).).).).).).).).).).).).  + 6 j 7 7 7 7 7 7 7 < X   ).).).).).).).).).).).).).).).).).).).).).).",
").).).).).).).).).).).).).).).).).).).).).).).).).).).).o , Z ( D A m m m m A v 2 $ ).).).).).).).).).).).).).).).).).).).).).).",
").).).).).).).).).).).).).).).).).).).).).).).).).).  X 6 Z | | ^ A m m m m S T ! I $   ).).).).).).).).).).).).).).).).).).).).",
").).).).).).).).).).).).).).).).).).).).).).).).).).X ; b ( 4.5.( F A m A A ^ } 5.3.8 $ ).).).).).).).).).).).).).).).).).).).).",
").).).).).).).).).).).).).).).).).).).).).).).).  + < j S ( 4.4.( S A A S ^ } 5.8.5.[ I *   ).).).).).).).).).).).).).).).).).).",
").).).).).).).).).).).).).).).).).).).).).).).).  + j m D ( 4.4.( S A S _ } 5.8.8.i.i.' *   ).).).).).).).).).).).).).).).).).).",
").).).).).).).).).).).).).).).).).).).).).).).).  + 7 A D ( 4.4.^ F S R <.t.i.8.8.8.i.' *   ).).).).).).).).).).).).).).).).).).",
").).).).).).).).).).).).).).).).).).).).).).).).  + 7 S R } 5.e.( R ^ #.g.V.i.8.8.8.8.' *   ).).).).).).).).).).).).).).).).).).",
").).).).).).).).).).).).).).).).).).).).).).).).  + j R | 5.d.t.^ ( e.f.k.k.g.d.8.8.8.' *   ).).).).).).).).).).).).).).).).).).",
").).).).).).).).).).).).).).).).).).).).).).).).  # N @.w.g.h.t.( O.f.S.S.k.k.g.g.8.i.' *   ).).).).).).).).).).).).).).).).).).",
").).).).).).).).).).).).).).).).).).).).).).).).  $ Q w.d.h.k.a.O.O.f.S.A.A.A.k.h.g.i.' *   ).).).).).).).).).).).).).).).).).).",
").).).).).).).).).).).).).).).).).).).).).).).).  * ' i.3.*.;.;.} @.r.f.c.h.6.;.*.;.8.' *   ).).).).).).).).).).).).).).).).).).",
").).).).).).).).).).).).).).).).).).).).).).).).  = [ 3.t $ * t ;.y.,.<.j.7.y % $ 0 3.[ =   ).).).).).).).).).).).).).).).).).).",
").).).).).).).).).).).).).).).).).).).).).).).).  = ;.6.U 5 2 p p.a.O.O.f.7.I 1 5 E 7.[ =   ).).).).).).).).).).).).).).).).).).",
").).).).).).).).).).).).).).).).).).).).).).).).  = [ S.!.U.Z.V.A.f.( ( a.C.V.Z.E.!.S.[ =   ).).).).).).).).).).).).).).).).).).",
").).).).).).).).).).).).).).).).).).).).).).).).  = [ H./.(.^.W.Z.f.<.@.0.l.L.^.(./.H.[ =   ).).).).).).).).).).).).).).).).).).",
").).).).).).).).).).).).).).).).).).).).).).).).  * 3.F.R.R.J.Z.S.k.f.e.,.<.l.J.R.R.D.3.-   ).).).).).).).).).).).).).).).).).).",
").).).).).).).).).).).).).).).).).).).).).).).).  1 *.C.A.S.c.C.z.S.A.f.,.} e.f.k.C.A.*.-   ).).).).).).).).).).).).).).).).).).",
").).).).).).).).).).).).).).).).).).).).).).).).  * [ C.C.c.A.z.A.A.c.k.f.r.@.,.f.k.C.[ *   ).).).).).).).).).).).).).).).).).).",
").).).).).).).).).).).).).).).).).).).).).).).).  * U 7.h.C.G.G.S.S.G.H.S.j.1.1.y.d.5.U %   ).).).).).).).).).).).).).).).).).).",
").).).).).).).).).).).).).).).).).).).).).).).).  # a =.7.A.E.~.D.D.~.~.D.S.E.N.1.( %.s %   ).).).).).).).).).).).).).).).).).).",
").).).).).).).).).).).).).).).).).).).).).).).).  + q W  .d.E.~.I.I.Y.T.U.U.Q.N.+.V J e .   ).).).).).).).).).).).).).).).).).).",
").).).).).).).).).).).).).).).).).).).).).).).).  + 7 V Z ] i.G.~.T.m.m.T.T.M.o.S G G e .   ).).).).).).).).).).).).).).).).).).",
").).).).).).).).).).).).).).).).).).).).).).).).  + 7 b n G ] t.R.K.n.n.B.B.X.M n f G e %   ).).).).).).).).).).).).).).).).).).",
").).).).).).).).).).).).).).).).).).).).).).).).  + < m n s C ] d.u...b.n.o.D v i s H e %   ).).).).).).).).).).).).).).).).).).",
").).).).).).).).).).).).).).).).).).).).).).).).  # V _ B r r H ] } P x x P L E s B G e .   ).).).).).).).).).).).).).).).).).).",
").).).).).).).).).).).).).).).).).).).).).).).).  = =.p.H w r s H H N N b J 6.6.H r G e +   ).).).).).).).).).).).).).).).).).).",
").).).).).).).).).).).).).).).).).).).).).).).).  = ;.p.E r r r i r i f H $.6.;.a 9 f r - . ).).).).).).).).).).).).).).).).).).",
").).).).).).).).).).).).).).).).).).).).).).).).  % g $.H B r r w w w g 3.6.~ i & & r G f 9 .   ).).).).).).).).).).).).).).).).",
").).).).).).).).).).).).).).).).).).).).).).).).  . w H H G w q q q q d ;.;.s >   . e K K w %   ).).).).).).).).).).).).).).).).",
").).).).).).).).).).).).).).).).).).).).).).).).  + e K K f w 4 9 9 9 q s i q - . . w H K e .   ).).).).).).).).).).).).).).).).",
").).).).).).).).).).).).).).).).).).).).).).).).  + e G H G s i i i i i i i i q - > r H H e .   ).).).).).).).).).).).).).).).).",
").).).).).).).).).).).).).).).).).).).).).).).).  + e G H K ) ) } / } / / } / / ! W H H H w +   ).).).).).).).).).).).).).).).).",
").).).).).).).).).).).).).).).).).).).).).).).).  % H $.$.$.,.#.#.#.#.#.#.<.#.q.<.,.-.$.$.g %   ).).).).).).).).).).).).).).).).",
").).).).).).).).).).).).).).).).).).).).).).).).  = ;.c.j.f.0.#.#.#.#.} #.#.#.#.<.r.f.c.c.;.=   ).).).).).).).).).).).).).).).).",
").).).).).).).).).).).).).).).).).).).).).).).).  = &.a.z.l.r.1.#.| Y Y } #.#.#.<.<.6.9.9.&.=   ).).).).).).).).).).).).).).).).",
").).).).).).).).).).).).).).).).).).).).).).).).).).- a :.f.u.y.u. .4 2 Y #.#.#.<./ u 1 1 1 ).).).).).).).).).).).).).).).).).).",
").).).).).).).).).).).).).).).).).).).).).).).).).).  & ) s.s.2.-.Y # + u Y } #.#.Y #       ).).).).).).).).).).).).).).).).).).",
").).).).).).).).).).).).).).).).).).).).).).).).).).  & %.2.2.$.0 # ).).+ 4 / #.0.Y %   ).).).).).).).).).).).).).).).).).).).).",
").).).).).).).).).).).).).).).).).).).).).).).).).).  & K >.%.r ; @ ).).  $ ! r.0.! &   ).).).).).).).).).).).).).).).).).).).).",
").).).).).).).).).).).).).).).).).).).).).).).).).).).).P M , ; h z ).).  = ] j.h.&.*   ).).).).).).).).).).).).).).).).).).).).",
").).).).).).).).).).).).).).).).).).).).).).).).).).).).v.k O O z b.).).  = 3.S.S.;.=   ).).).).).).).).).).).).).).).).).).).).",
").).).).).).).).).).).).).).).).).).).).).).).).).).).).).).).).).).).).  1 6.H.H.6.-   ).).).).).).).).).).).).).).).).).).).).",
").).).).).).).).).).).).).).).).).).).).).).).).).).).).).).).).).).).).  * &.j.j.&.=   ).).).).).).).).).).).).).).).).).).).).",
").).).).).).).).).).).).).).).).).).).).).).).).).).).).).).).).).).).).  . 3 y y 0 .   ).).).).).).).).).).).).).).).).).).).).",
").).).).).).).).).).).).).).).).).).).).).).).).).).).).).).).).).).).).).).).).).).).).).).).).).).).).).).).).).).).).).).).).",
").).).).).).).).).).).).).).).).).).).).).).).).).).).).).).).).).).).).).).).).).).).).).).).).).).).).).).).).).).).).).).).).",
").).).).).).).).).).).).).).).).).).).).).).).).).).).).).).).).).).).).).).).).).).).).).).).).).).).).).).).).).).).).).).).)."
};
