/* XPM */
static char *result[] = {
/* columns rows colors chars-per-pixel */
"64 64 184 2 ",
"   c #000000",
".  c #0B0706",
"X  c #0C0807",
"o  c #0D0B0A",
"O  c #120604",
"+  c #110907",
"@  c #1B0A05",
"#  c #120C09",
"$  c #1D0F0A",
"%  c #14130E",
"&  c #19170F",
"*  c #14180F",
"=  c #141411",
"-  c #191612",
";  c #161B12",
":  c #1A1C15",
">  c #1D1D19",
",  c #22130E",
"<  c #251E15",
"1  c #2C1A13",
"2  c #251E1B",
"3  c #241610",
"4  c #301A14",
"5  c #1D2119",
"6  c #222316",
"7  c #27231C",
"8  c #29241C",
"9  c #27291F",
"0  c #2C291E",
"q  c #36231A",
"w  c #3D231B",
"e  c #28311F",
"r  c #272720",
"t  c #2A2422",
"y  c #312722",
"u  c #332A26",
"i  c #362D28",
"p  c #392F2B",
"a  c #2C3124",
"s  c #3B3725",
"d  c #333E27",
"f  c #343028",
"g  c #3C322C",
"h  c #3E392F",
"j  c #3D3531",
"k  c #3E3A31",
"l  c #48190D",
"z  c #4E1F12",
"x  c #43251D",
"c  c #43291F",
"v  c #592010",
"b  c #592819",
"n  c #632413",
"m  c #6F301D",
"M  c #7E301A",
"N  c #442B21",
"B  c #4D2D23",
"V  c #532E24",
"C  c #41362C",
"Z  c #4A322B",
"A  c #443E2D",
"S  c #4C3D2B",
"D  c #483625",
"F  c #553126",
"G  c #543428",
"H  c #593629",
"J  c #553B2E",
"K  c #5A3B2B",
"L  c #5D3220",
"P  c #443631",
"I  c #493631",
"U  c #443B34",
"Y  c #483C36",
"T  c #443C39",
"R  c #513D30",
"E  c #602D20",
"W  c #773D25",
"Q  c #38442C",
"!  c #37442C",
"~  c #3D4132",
"^  c #4A442E",
"/  c #5A422F",
"(  c #56402E",
")  c #464C33",
"_  c #4E4831",
"`  c #474238",
"'  c #4A423C",
"]  c #4D4A3B",
"[  c #484B36",
"{  c #5D4532",
"}  c #524C34",
"|  c #5D4A35",
" . c #584F38",
".. c #465537",
"X. c #475638",
"o. c #4A533D",
"O. c #4C5A3D",
"+. c #4C5035",
"@. c #53533E",
"#. c #5C543B",
"$. c #5C5A3D",
"%. c #515E3F",
"&. c #79452F",
"*. c #77452F",
"=. c #604A37",
"-. c #684E3B",
";. c #704A30",
":. c #794B31",
">. c #62533D",
",. c #635B3E",
"<. c #6A553A",
"1. c #544B43",
"2. c #4D5A40",
"3. c #555245",
"4. c #5C5641",
"5. c #535B45",
"6. c #5A5A45",
"7. c #5E534F",
"8. c #5B5C4A",
"9. c #625540",
"0. c #655D41",
"q. c #6B5E44",
"w. c #635D48",
"e. c #665A55",
"r. c #536144",
"t. c #5E6644",
"y. c #5E6A46",
"u. c #5B674D",
"i. c #5D6B4D",
"p. c #5E734B",
"a. c #5D6950",
"s. c #6A6144",
"d. c #66644A",
"f. c #69644A",
"g. c #636C4B",
"h. c #6B694E",
"j. c #616D47",
"k. c #716A4C",
"l. c #62744D",
"z. c #646E54",
"x. c #6C6E53",
"c. c #756D52",
"v. c #647452",
"b. c #6C7355",
"n. c #667954",
"m. c #697B56",
"M. c #6F7658",
"N. c #6D7D5C",
"B. c #777051",
"V. c #737D57",
"C. c #707D5D",
"Z. c #737C62",
"A. c #813F27",
"S. c #82442A",
"D. c #895E41",
"F. c #8B6243",
"G. c #8C7A5A",
"H. c #927655",
"J. c #6B824C",
"K. c #6F825D",
"L. c #748653",
"P. c #70815E",
"I. c #738362",
"U. c #788765",
"Y. c #778A60",
"T. c #7A8A65",
"R. c #7D8C69",
"E. c #7D9267",
"W. c #8E815C",
"Q. c #81985D",
"!. c #848D69",
"~. c #878966",
"^. c #938B67",
"/. c #948F69",
"(. c #83916C",
"). c #88906D",
"_. c #839C60",
"`. c #94906A",
"'. c #899073",
"]. c #8E9A73",
"[. c #95AC6F",
"{. c #A1AB87",
"}. c #A9B689",
"|. c None",
/* pixels */
"|.|.|.|.|.|.|.|.|.|.|.|.|.|.|.|.|.|.|.|.|.|.|.|.|.|.|.|.|.|.|.|.|.|.|.|.|.|.|.|.|.|.|.|.|.|.|.|.|.|.|.|.|.|.|.|.|.|.|.|.|.|.|.|.",
"|.|.|.|.|.|.|.|.|.|.|.|.|.|.|.|.|.|.|.|.|.|.|.|.|.|.|.|.|.|.|.|.|.|.|.|.|.|.|.|.|.|.|.|.|.|.|.|.|.|.|.|.|.|.|.|.|.|.|.|.|.|.|.|.",
"|.|.|.|.|.|.|.|.|.|.|.|.|.|.|.|.|.|.|.|.|.|.|.|.|.|.|.|.|.|.|.|.|.|.|.|.|.|.|.|.|.|.|.|.|.|.|.|.|.|.|.|.|.|.|.|.|.|.|.|.|.|.|.|.",
"|.|.|.|.|.|.|.|.|.|.|.|.|.|.|.|.|.|.|.|.|.|.|.|.|.|.|.|.|.|.|.|.|.|.|.|.|.|.|.|.|.|.|.|.|.|.|.|.|.|.|.|.|.|.|.|.|.|.|.|.|.|.|.|.",
"|.|.|.|.|.|.|.|.|.|.|.|.|.|.|.|.|.|.|.|.|.|.|.|.|.|.|.|.|.|.|.|.|.|.|.|.|.|.|.|.|.|.|.|.|.|.|.|.|.|.|.|.|.|.|.|.|.|.|.|.|.|.|.|.",
"|.|.|.|.|.|.|.|.|.|.|.|.|.|.|.|.|.|.|.|.|.|.|.|.|.|.|.|.|.|.|.|.|.|.|.|.|.|.|.|.|.|.|.|.|.|.|.|.|.|.|.|.|.|.|.|.|.|.|.|.|.|.|.|.",
"|.|.|.|.|.|.|.|.|.|.|.|.|.|.|.|.|.|.|.|.|.|.|.|.|.|.|.|.|.|.|.|.|.|.|.|.|.|.|.|.|.|.|.|.|.|.|.|.|.|.|.|.|.|.|.|.|.|.|.|.|.|.|.|.",
"|.|.|.|.|.|.|.|.|.|.|.|.|.|.|.|.|.|.|.|.|.|.|.|.|.|.|.|.|.|.|.|.|.|.|.|.|.|.|.|.|.|.|.|.|.|.|.|.|.|.|.|.|.|.|.|.|.|.|.|.|.|.|.|.",
"|.|.|.|.|.|.|.|.|.|.|.|.|.|.|.|.|.|.|.|.|.|.|.|.|.|.|.|.|.|.|.|.|.|.|.|.|.|.|.|.|.|.|.|.|.|.|.|.|.|.|.|.|.|.|.|.|.|.|.|.|.|.|.|.",
"|.|.|.|.|.|.|.|.|.|.|.|.|.|.|.|.|.|.|.|.|.|.|.|.|.|.|.|.|.|.|.|.|.|.|.|.|.|.|.|.|.|.|.|.|.|.|.|.|.|.|.|.|.|.|.|.|.|.|.|.|.|.|.|.",
"|.|.|.|.|.|.|.|.|.|.|.|.|.|.|.|.|.|.|.|.|.|.|.|.|.|.|.|.|.|.|.|.|.|.|.|.|.|.|.|.|.|.|.|.|.|.|.|.|.|.|.|.|.|.|.|.|.|.|.|.|.|.|.|.",
"|.|.|.|.|.|.|.|.|.|.|.|.|.|.|.|.|.|.|.|.|.|.|.|.|.|.|.|.|.|.|.|.|.|.|.|.|.|.|.|.|.|.|.|.|.|.|.|.|.|.|.|.|.|.|.|.|.|.|.|.|.|.|.|.",
"|.|.|.|.|.|.|.|.|.|.|.|.|.|.|.|.|.|.|.|.|.|.|.|.|.|.|.|.                    |.|.|.|.|.|.|.|.|.|.|.|.|.|.|.|.|.|.|.|.|.|.|.|.|.|.",
"|.|.|.|.|.|.|.|.|.|.|.|.|.|.|.|.|.|.|.|.|.|.|.|.|.|.|.|.# $ # # # # + O # + |.|.|.|.|.|.|.|.|.|.|.|.|.|.|.|.|.|.|.|.|.|.|.|.|.|.",
"|.|.|.|.|.|.|.|.|.|.|.|.|.|.|.|.|.|.|.|.|.|.|.|.|.|.  # q c w q w w w x w 4 O   |.|.|.|.|.|.|.|.|.|.|.|.|.|.|.|.|.|.|.|.|.|.|.|.",
"|.|.|.|.|.|.|.|.|.|.|.|.|.|.|.|.|.|.|.|.|.|.|.|.|.|.# < S / H F V V V V F N 6 ; |.|.|.|.|.|.|.|.|.|.|.|.|.|.|.|.|.|.|.|.|.|.|.|.",
"|.|.|.|.|.|.|.|.|.|.|.|.|.|.|.|.|.|.|.|.|.|.|.|.  # q S $.$./ K F F b F H ( +.! ;   |.|.|.|.|.|.|.|.|.|.|.|.|.|.|.|.|.|.|.|.|.|.",
"|.|.|.|.|.|.|.|.|.|.|.|.|.|.|.|.|.|.|.|.|.|.|.|.+ 3 B | t.t.| K F B B H / #.p.O.e % |.|.|.|.|.|.|.|.|.|.|.|.|.|.|.|.|.|.|.|.|.|.",
"|.|.|.|.|.|.|.|.|.|.|.|.|.|.|.|.|.|.|.|.|.|.  + 4 c H | t.t.| K F B H / $.y.l.y.O.! ;   |.|.|.|.|.|.|.|.|.|.|.|.|.|.|.|.|.|.|.|.",
"|.|.|.|.|.|.|.|.|.|.|.|.|.|.|.|.|.|.|.|.|.|.  # w F H | t.t.| H F H / #.y.p.p.p.l.X.;   |.|.|.|.|.|.|.|.|.|.|.|.|.|.|.|.|.|.|.|.",
"|.|.|.|.|.|.|.|.|.|.|.|.|.|.|.|.|.|.|.|.|.|.  # w F H | t.t.| K H { 6.g.p.p.p.p.l.X.5   |.|.|.|.|.|.|.|.|.|.|.|.|.|.|.|.|.|.|.|.",
"|.|.|.|.|.|.|.|.|.|.|.|.|.|.|.|.|.|.|.|.|.|.  # w G / #.y.j.| K { 9.v.m.v.p.p.p.p.X.;   |.|.|.|.|.|.|.|.|.|.|.|.|.|.|.|.|.|.|.|.",
"|.|.|.|.|.|.|.|.|.|.|.|.|.|.|.|.|.|.|.|.|.|.  # c { $.y.v.d.| { d.M.C.N.n.l.p.p.l...;   |.|.|.|.|.|.|.|.|.|.|.|.|.|.|.|.|.|.|.|.",
"|.|.|.|.|.|.|.|.|.|.|.|.|.|.|.|.|.|.|.|.|.|.  % D #.g.n.m.g.=.=.v.I.P.N.K.m.n.l.l...;   |.|.|.|.|.|.|.|.|.|.|.|.|.|.|.|.|.|.|.|.",
"|.|.|.|.|.|.|.|.|.|.|.|.|.|.|.|.|.|.|.|.|.|.  & ) j.n.m.K.x.| =.x.I.I.N.I.P.m.n.l...;   |.|.|.|.|.|.|.|.|.|.|.|.|.|.|.|.|.|.|.|.",
"|.|.|.|.|.|.|.|.|.|.|.|.|.|.|.|.|.|.|.|.|.|.  ; X.p.r.2.5.5.#.>.f.M.N.M.u.2.2.r.p.O.;   |.|.|.|.|.|.|.|.|.|.|.|.|.|.|.|.|.|.|.|.",
"|.|.|.|.|.|.|.|.|.|.|.|.|.|.|.|.|.|.|.|.|.|.  : O.r.a % ; a 5.h.>.0.M.i.a * = a r.O.:   |.|.|.|.|.|.|.|.|.|.|.|.|.|.|.|.|.|.|.|.",
"|.|.|.|.|.|.|.|.|.|.|.|.|.|.|.|.|.|.|.|.|.|.  : 2.u.~ 9 6 d i.b.=.=.b.i.! 5 r k u.2.:   |.|.|.|.|.|.|.|.|.|.|.|.|.|.|.|.|.|.|.|.",
"|.|.|.|.|.|.|.|.|.|.|.|.|.|.|.|.|.|.|.|.|.|.  : 2.I.'.).L.J.K.x.=.{ x.P.J.L.(.).P.O.:   |.|.|.|.|.|.|.|.|.|.|.|.|.|.|.|.|.|.|.|.",
"|.|.|.|.|.|.|.|.|.|.|.|.|.|.|.|.|.|.|.|.|.|.  : O.R.{.}.[._.Y.b.0.>.d.V.E.[.}.{.R.2.:   |.|.|.|.|.|.|.|.|.|.|.|.|.|.|.|.|.|.|.|.",
"|.|.|.|.|.|.|.|.|.|.|.|.|.|.|.|.|.|.|.|.|.|.  : r.U.(.(.R.Y.I.N.b.f.>.,.P.E.(.(.U.r.:   |.|.|.|.|.|.|.|.|.|.|.|.|.|.|.|.|.|.|.|.",
"|.|.|.|.|.|.|.|.|.|.|.|.|.|.|.|.|.|.|.|.|.|.  : 5.K.K.N.K.N.P.P.P.b.,.>.d.b.K.K.P.5.:   |.|.|.|.|.|.|.|.|.|.|.|.|.|.|.|.|.|.|.|.",
"|.|.|.|.|.|.|.|.|.|.|.|.|.|.|.|.|.|.|.|.|.|.  ; X.m.K.P.N.C.P.P.P.N.b.d.9.9.b.P.m.O.;   |.|.|.|.|.|.|.|.|.|.|.|.|.|.|.|.|.|.|.|.",
"|.|.|.|.|.|.|.|.|.|.|.|.|.|.|.|.|.|.|.|.|.|.O < ) i.n.P.U.U.I.I.U.T.I.M.q.q.h.z.%.! ;   |.|.|.|.|.|.|.|.|.|.|.|.|.|.|.|.|.|.|.|.",
"|.|.|.|.|.|.|.|.|.|.|.|.|.|.|.|.|.|.|.|.  + 4 p ^ @.i.P.].].Y.U.].].T.U.~.~.q.S 7 * |.|.|.|.|.|.|.|.|.|.|.|.|.|.|.|.|.|.|.|.|.|.",
"|.|.|.|.|.|.|.|.|.|.|.|.|.|.|.|.|.|.|.|.X , x G I ` @.l.).].(.~.^.^.!.!./.H.-.u #   |.|.|.|.|.|.|.|.|.|.|.|.|.|.|.|.|.|.|.|.|.|.",
"|.|.|.|.|.|.|.|.|.|.|.|.|.|.|.|.|.|.  O 4 x B V I U U ] l.T.].^.D.D./.`.F.&.K u o   |.|.|.|.|.|.|.|.|.|.|.|.|.|.|.|.|.|.|.|.|.|.",
"|.|.|.|.|.|.|.|.|.|.|.|.|.|.|.|.|.|.; 0 N V V Z P P g k @.l.).W.S.A.H.H.&.b u 2 o   |.|.|.|.|.|.|.|.|.|.|.|.|.|.|.|.|.|.|.|.|.|.",
"|.|.|.|.|.|.|.|.|.|.|.|.|.|.|.|.  > 2.6.J V Z P P g g g P o.l.k.W A.A.&.H u , . |.|.|.|.|.|.|.|.|.|.|.|.|.|.|.|.|.|.|.|.|.|.|.|.",
"|.|.|.|.|.|.|.|.|.|.|.|.|.|.|.|.  : 5.x.9.R g i p g g g p A o.$.*.W m E Z t o   |.|.|.|.|.|.|.|.|.|.|.|.|.|.|.|.|.|.|.|.|.|.|.|.",
"|.|.|.|.|.|.|.|.|.|.|.|.|.|.|.|.  = k 8.x.7.r = y g C p C g k ] q.q.J Z P u o       |.|.|.|.|.|.|.|.|.|.|.|.|.|.|.|.|.|.|.|.|.|.",
"|.|.|.|.|.|.|.|.|.|.|.|.|.|.|.|.  o u 1.z.5.: X 8 p p p p g U 3.v.z.' j T i > o o o |.|.|.|.|.|.|.|.|.|.|.|.|.|.|.|.|.|.|.|.|.|.",
"|.|.|.|.|.|.|.|.|.|.|.|.|.|.|.|.  % u Y 1.k = . 8 p u u u P 5.z.N.z.] U T P i u u t #   |.|.|.|.|.|.|.|.|.|.|.|.|.|.|.|.|.|.|.|.",
"|.|.|.|.|.|.|.|.|.|.|.|.|.|.|.|.  o u T T u o . 1 u u u u U a.m.z.5.k u u f 1.3.3.k =   |.|.|.|.|.|.|.|.|.|.|.|.|.|.|.|.|.|.|.|.",
"|.|.|.|.|.|.|.|.|.|.|.|.|.|.|.|.  o u Y T i o X < u i u y U g.v.] f : o o r 8.Z.Z.5.>   |.|.|.|.|.|.|.|.|.|.|.|.|.|.|.|.|.|.|.|.",
"|.|.|.|.|.|.|.|.|.|.|.|.|.|.|.|.o > p U j 2 o o 7 u u u u h 5.5.j 2 X     : 2.a.u.2.>   |.|.|.|.|.|.|.|.|.|.|.|.|.|.|.|.|.|.|.|.",
"|.|.|.|.|.|.|.|.|.|.|.|.|.|.  % t g U p > o   X 7 u u y y i h h i < X   |.|.> 5 > > |.|.|.|.|.|.|.|.|.|.|.|.|.|.|.|.|.|.|.|.|.|.",
"|.|.|.|.|.|.|.|.|.|.|.|.|.|.  o i Y T u o     o y C C C C C C C h u < % |.|.        |.|.|.|.|.|.|.|.|.|.|.|.|.|.|.|.|.|.|.|.|.|.",
"|.|.|.|.|.|.|.|.|.|.|.|.|.|.  % u T T u o     % A #. . . . . . . . .} s %   |.|.|.|.|.|.|.|.|.|.|.|.|.|.|.|.|.|.|.|.|.|.|.|.|.|.",
"|.|.|.|.|.|.|.|.|.|.|.|.|.|.  % k 1.3.k =     & _ s.s.,.0.,.,.,.0.0.0.} 8 % |.|.|.|.|.|.|.|.|.|.|.|.|.|.|.|.|.|.|.|.|.|.|.|.|.|.",
"|.|.|.|.|.|.|.|.|.|.|.|.|.|.  > 3.Z.Z.5.>     - _ 0.0.,.,.,.,.#.,.0.0.,.} s #   |.|.|.|.|.|.|.|.|.|.|.|.|.|.|.|.|.|.|.|.|.|.|.|.",
"|.|.|.|.|.|.|.|.|.|.|.|.|.|.  > 2.a.u.2.>     % s } ,.,.,.,.#.$.,.,.,.,.s.} 0 = |.|.|.|.|.|.|.|.|.|.|.|.|.|.|.|.|.|.|.|.|.|.|.|.",
"|.|.|.|.|.|.|.|.|.|.|.|.|.|.|.|.> 5 5 > |.|.|.|.% 8 _ 0.0.0.,.,.,.#.,.,.0.,.#.A -   |.|.|.|.|.|.|.|.|.|.|.|.|.|.|.|.|.|.|.|.|.|.",
"|.|.|.|.|.|.|.|.|.|.|.|.|.|.|.|.        |.|.|.|.& 0  .q.s.,._ ^ ^ ^  .,.,.f.c.@.-   |.|.|.|.|.|.|.|.|.|.|.|.|.|.|.|.|.|.|.|.|.|.",
"|.|.|.|.|.|.|.|.|.|.|.|.|.|.|.|.|.|.|.|.|.|.  : A #.f.h.k.#.0 % % 6 ^ ,.q.c.c.@.:   |.|.|.|.|.|.|.|.|.|.|.|.|.|.|.|.|.|.|.|.|.|.",
"|.|.|.|.|.|.|.|.|.|.|.|.|.|.|.|.|.|.|.|.|.|.  = _ h.f.w.4.U 1 O   $ D <.k.x.4.^ -   |.|.|.|.|.|.|.|.|.|.|.|.|.|.|.|.|.|.|.|.|.|.",
"|.|.|.|.|.|.|.|.|.|.|.|.|.|.|.|.|.|.|.|.|.|.  = k 1.1.U 7 1 v l O @ b ;.B.u.a = |.|.|.|.|.|.|.|.|.|.|.|.|.|.|.|.|.|.|.|.|.|.|.|.",
"|.|.|.|.|.|.|.|.|.|.|.|.|.|.|.|.|.|.|.|.|.|.  = j 1.1.j o . v n @ @ l m #.) ;   |.|.|.|.|.|.|.|.|.|.|.|.|.|.|.|.|.|.|.|.|.|.|.|.",
"|.|.|.|.|.|.|.|.|.|.|.|.|.|.|.|.|.|.|.|.|.|.  - 1.e.e.' =   |.|.|.|.@ & : > |.|.|.|.|.|.|.|.|.|.|.|.|.|.|.|.|.|.|.|.|.|.|.|.|.|.",
"|.|.|.|.|.|.|.|.|.|.|.|.|.|.|.|.|.|.|.|.|.|.  = j 7.e.T =   |.|.|.|.        |.|.|.|.|.|.|.|.|.|.|.|.|.|.|.|.|.|.|.|.|.|.|.|.|.|.",
"|.|.|.|.|.|.|.|.|.|.|.|.|.|.|.|.|.|.|.|.|.|.  o > t t > X   |.|.|.|.        |.|.|.|.|.|.|.|.|.|.|.|.|.|.|.|.|.|.|.|.|.|.|.|.|.|.",
"|.|.|.|.|.|.|.|.|.|.|.|.|.|.|.|.|.|.|.|.|.|.|.|.|.|.|.|.|.|.|.|.|.|.|.|.|.|.|.|.|.|.|.|.|.|.|.|.|.|.|.|.|.|.|.|.|.|.|.|.|.|.|.|.",
"|.|.|.|.|.|.|.|.|.|.|.|.|.|.|.|.|.|.|.|.|.|.|.|.|.|.|.|.|.|.|.|.|.|.|.|.|.|.|.|.|.|.|.|.|.|.|.|.|.|.|.|.|.|.|.|.|.|.|.|.|.|.|.|.",
"|.|.|.|.|.|.|.|.|.|.|.|.|.|.|.|.|.|.|.|.|.|.|.|.|.|.|.|.|.|.|.|.|.|.|.|.|.|.|.|.|.|.|.|.|.|.|.|.|.|.|.|.|.|.|.|.|.|.|.|.|.|.|.|."
};
