/* XPM */
static char *_61710911286[] = {
/* columns rows colors chars-per-pixel */
"64 64 178 2 ",
"   c None",
".  c #000000",
"X  c #090605",
"o  c #0A0807",
"O  c #0E0B0B",
"+  c #100907",
"@  c #120C0A",
"#  c #180804",
"$  c #0F120D",
"%  c #14130D",
"&  c #18160F",
"*  c #13180F",
"=  c #161311",
"-  c #161A12",
";  c #1A1C16",
":  c #1F1B1A",
">  c #1C1716",
",  c #2D1009",
"<  c #231B15",
"1  c #231C19",
"2  c #371F1A",
"3  c #1D2119",
"4  c #24241B",
"5  c #2A221E",
"6  c #24281A",
"7  c #2B2A1C",
"8  c #362219",
"9  c #3D231B",
"0  c #342F1F",
"q  c #28301F",
"w  c #2B2421",
"e  c #272820",
"r  c #2A2B23",
"t  c #332A25",
"y  c #382F26",
"u  c #352C28",
"i  c #392F2B",
"p  c #2C3325",
"a  c #363121",
"s  c #393325",
"d  c #3C3826",
"f  c #36302D",
"g  c #3C312C",
"h  c #3D382F",
"j  c #333E27",
"k  c #3E3A31",
"l  c #561F10",
"z  c #422A1F",
"x  c #5F2B1E",
"c  c #6C2C1B",
"v  c #702916",
"b  c #7F311B",
"n  c #452D24",
"m  c #4B2F26",
"M  c #522E24",
"N  c #4B3224",
"B  c #43322B",
"V  c #4A3429",
"C  c #443E2A",
"Z  c #4C3C2A",
"A  c #463626",
"S  c #553126",
"D  c #563528",
"F  c #593729",
"G  c #55392B",
"H  c #5B3A2B",
"J  c #423632",
"K  c #453B34",
"L  c #483C37",
"P  c #453D39",
"I  c #493D38",
"U  c #663B26",
"Y  c #37432B",
"T  c #39442D",
"R  c #47412E",
"E  c #4B432E",
"W  c #5C422F",
"Q  c #474336",
"!  c #4B4532",
"~  c #424B35",
"^  c #4E4933",
"/  c #4B443B",
"(  c #564033",
")  c #5D4633",
"_  c #524B34",
"`  c #5D4935",
"'  c #544B3F",
"]  c #465537",
"[  c #475638",
"{  c #4A553C",
"}  c #4D5A3D",
"|  c #50563D",
" . c #5C543A",
".. c #5D5A3D",
"X. c #794026",
"o. c #77442E",
"O. c #78452F",
"+. c #604B36",
"@. c #624C39",
"#. c #61553D",
"$. c #635B3E",
"%. c #67533A",
"&. c #656F3E",
"*. c #4E4540",
"=. c #534B43",
"-. c #574D49",
";. c #4F5C42",
":. c #565246",
">. c #535D46",
",. c #5E534E",
"<. c #565C49",
"1. c #645740",
"2. c #645C41",
"3. c #6C5E44",
"4. c #605550",
"5. c #546245",
"6. c #5C6644",
"7. c #5D6A46",
"8. c #5B634C",
"9. c #5C694D",
"0. c #5E734A",
"q. c #5D6950",
"w. c #656145",
"e. c #696245",
"r. c #65644B",
"t. c #6D664C",
"y. c #646C4B",
"u. c #6B694C",
"i. c #616C47",
"p. c #736E49",
"a. c #61754C",
"s. c #656C52",
"d. c #6A6E52",
"f. c #647551",
"g. c #6B7254",
"h. c #667954",
"j. c #697A56",
"k. c #6D755D",
"l. c #6C7C5B",
"z. c #737658",
"x. c #757C5C",
"c. c #717953",
"v. c #737C61",
"b. c #85311A",
"n. c #82432A",
"m. c #895E41",
"M. c #8B6243",
"N. c #8B7959",
"B. c #927655",
"V. c #6B814C",
"C. c #6F815D",
"Z. c #758854",
"A. c #71815E",
"S. c #7D8A53",
"D. c #738361",
"F. c #788765",
"G. c #778B61",
"H. c #7A8A64",
"J. c #7A8B68",
"K. c #7E9267",
"L. c #8E825D",
"P. c #878161",
"I. c #838D67",
"U. c #888967",
"Y. c #848B6B",
"T. c #948B67",
"R. c #938E69",
"E. c #83916D",
"W. c #8A936F",
"Q. c #839C60",
"!. c #95916B",
"~. c #8E9A72",
"^. c #8D9671",
"/. c #909C73",
"(. c #95AC6F",
"). c #95AE70",
"_. c #A2AD89",
"`. c #A9B78A",
/* pixels */
"                                                                                                                                ",
"                                                                                                                                ",
"                                                                                                                                ",
"                                                                                                                                ",
"                                                                                                                                ",
"                                                                                                                                ",
"                                                                                                                                ",
"                                                                                                                                ",
"                                                                                                                                ",
"                                                                                                                                ",
"                                        . . . . . . . . . .                                                                     ",
"                                        @ @ @ # @ # @ @ % @                                                                     ",
"                                    . @ 8 n 9 9 9 z z n z 8 # .                                                                 ",
"                                    @ < N G S M M S G U ) E 6 *                                                                 ",
"                                . @ 8 N H H S M M M F ) ..6.} Y - .                                                             ",
"                                + < Z ) W H S M M S )  .0.0.a.;.7 -                                                             ",
"                            . @ 8 Z  ...) F S S S W ..7.7.0.0.7.} Y - .                                                         ",
"                            . % A #.i.6.` F S D ) ..7.0.0.0.0.a.a.[ - .                                                         ",
"                            . - ~ i.a.6.` F D W <.s.0.0.0.0.0.a.a.[ - .                                                         ",
"                            . - ] a.a.i.) W ) $.s.h.f.a.0.0.0.0.a.] - .                                                         ",
"                            . - ] a.h.r.` ) r.j.l.l.h.f.f.f.0.a.a.] - .                                                         ",
"                            . - [ h.l.y.` +.g.D.D.A.l.l.l.h.f.a.a.] 3 .                                                         ",
"                            . ; } C.A.d.` ` g.A.D.D.D.C.v.l.h.f.a.] * .                                                         ",
"                            . $ T ;.>.<. .1.u.u.8.;.>.>.>.9.f.j.h.] - .                                                         ",
"                            . X $ - - r >.u.$.E 7 - - - - p q.C.h.[ - .                                                         ",
"                            . O 4 e 3 Y 9.g.@.S 7 6 r e : p q.j.6.Y - .                                                         ",
"                            . 4 k.W.Z.V.C.g.+.) &.Z.W.Y.q.q.l.9.p *                                                             ",
"                            . r Y.`.).Q.G.d.` %.S.).`._.E.A.D.>.3 .                                                             ",
"                            . 3 9.Y.K.G.D.g.+.+.c.J.W.K.F.D.D.5.; .                                                             ",
"                            . ; { j.l.A.A.g.1.#.r.d.d.d.v.D.C.>.; .                                                             ",
"                            . ; ;.j.l.v.C.l.k.r.#.+.) 1.g.A.j.[ - .                                                             ",
"                            . - } l.J.F.D.D.J.x.2.@.%.3.d.s.9.~ 4 O                                                             ",
"                            . - [ A.~.~.F.F.~.^.x.x.Y.N.3.` Q J f 7 O .                                                         ",
"                            . - Y 7.I./.E.I.T.T.Y.Y.!.B.@.V B h J i > O                                                         ",
"                                * q 7.H.~.T.M.M.R.!.M.O.G B i B J J g e O .                                                     ",
"                                . % T f.E.L.n.n.B.B.O.M m f J J J I I i @ .                                                     ",
"                                . O a { a.p.X.b.n.o.G B B h J J J L L u O .                                                     ",
"                                . O 8 K |  .U c c c m i i h J J L J i w @ .                                                     ",
"                                . O 2 V K K V m m n g g g B K K L f : O                                                         ",
"                                O 1 Z G J i g g g g g g i g J L K u $ .                                                         ",
"                            . O 5 P r.r.P g g f g g g g i B J L K t O .                                                         ",
"                            . O t =.s.8.k w i i g g y g K Q K L I i O .                                                         ",
"                            . @ t / =.P > = w i t t u K <.8./ K K u $ .                                                         ",
"                            O > i k i w O X < w t t t B <.8./ K J u @ .                                                         ",
"                        . O w f J i > O     o = 5 t t g / / I J i w O .                                                         ",
"                        O > i I L i O .     . X 1 t t i / =.=./ g 1 o .                                                         ",
"                    . O 1 i J K L u @ .     . X < 5 5 h <.v.l.8.h > X .                                                         ",
"                    . = k ,.=./ h e O .     & 1 t y y Q s.D.A.s.Q t > %                                                         ",
"                    . ; >.v.v.<.5 O     . & A E _ _ _  .2.u.u.w. ._ E 0 = .                                                     ",
"                    . ; { q.q.*.; .     . & I &.$.$. .$.$.$.$.$.$.$.$.R % .                                                     ",
"                        ; 3 3 3         . & E w.$. . . .$.$.$.$.$.$.$.A % .                                                     ",
"                        . . . .         . & E 2.$.$. . .$.2.3.e.3.&.>.^ r -                                                     ",
"                                        . % ^ $.$.$. .$.e.t.u.t.t.t.i.7.5.T : .                                                 ",
"                                        % 7 _ $.&.` E C _ ..e.r.t.2.} 5.j.5.3 .                                                 ",
"                                    . & d _ $.3.#.^ 4 % = 7 _ $.$.^ 6 p q.5.; .                                                 ",
"                                    . % R 2.:. .E d % . . @ y C C 0 @ - T ~ ; .                                                 ",
"                                    . $ f =.=.J 4 %         % % % %     - ;                                                     ",
"                                    > w K =.*.f @ .         . . . .     . .                                                     ",
"                                . > k -.4.,.=.f O # l b.                                                                        ",
"                                . = P 4.,.-.P w O # l v                                                                         ",
"                                . o : w w 4 : = X X ,                                                                           ",
"                                                                                                                                ",
"                                                                                                                                ",
"                                                                                                                                "
};
