/* XPM */
static char *result[] = {
/* columns rows colors chars-per-pixel */
"64 64 176 2 ",
"   c #000000",
".  c #090605",
"X  c #0E0C0B",
"o  c #120D0A",
"O  c #180804",
"+  c #0F120D",
"@  c #14140D",
"#  c #18160F",
"$  c #13180F",
"%  c #151311",
"&  c #1B1714",
"*  c #161A12",
"=  c #1A1B15",
"-  c #1F1B1A",
";  c #2D1009",
":  c #241B15",
">  c #251D1A",
",  c #1E2119",
"<  c #25241B",
"1  c #29221E",
"2  c #242819",
"3  c #2C2B1B",
"4  c #362219",
"5  c #3D231B",
"6  c #342F1F",
"7  c #3D2B1F",
"8  c #28301F",
"9  c #2C2522",
"0  c #272820",
"q  c #2A2B23",
"w  c #302723",
"e  c #342B26",
"r  c #352C28",
"t  c #392F2B",
"y  c #2C3325",
"u  c #3A3326",
"i  c #3D3826",
"p  c #36302D",
"a  c #3C312C",
"s  c #3E3A2F",
"d  c #333E27",
"f  c #3E3A31",
"g  c #561F10",
"h  c #422A1F",
"j  c #5F2B1E",
"k  c #6C2C1B",
"l  c #702916",
"z  c #7F311B",
"x  c #452D24",
"c  c #4B2F27",
"v  c #522E24",
"b  c #4B3224",
"n  c #43322B",
"m  c #4C3429",
"M  c #4C3C2A",
"N  c #463626",
"B  c #553126",
"V  c #563528",
"C  c #593729",
"Z  c #54392B",
"A  c #5B3A2B",
"S  c #413631",
"D  c #453B35",
"F  c #483C37",
"G  c #453D39",
"H  c #493D38",
"J  c #553F33",
"K  c #683B26",
"L  c #36422A",
"P  c #38432D",
"I  c #3F4936",
"U  c #45432E",
"Y  c #4B432F",
"T  c #5C422F",
"R  c #474137",
"E  c #4C4532",
"W  c #434C35",
"Q  c #4F4831",
"!  c #4C453B",
"~  c #4E483D",
"^  c #5D4633",
"/  c #524B35",
"(  c #5D4935",
")  c #544E3D",
"_  c #465537",
"`  c #475539",
"'  c #49563B",
"]  c #4D5A3D",
"[  c #5D543A",
"{  c #5D5A3D",
"}  c #77442E",
"|  c #78452F",
" . c #794126",
".. c #604B36",
"X. c #624C39",
"o. c #61553D",
"O. c #635B3E",
"+. c #67533A",
"@. c #656F3E",
"#. c #4E4540",
"$. c #534B43",
"%. c #574D49",
"&. c #4F5C42",
"*. c #565246",
"=. c #545D46",
"-. c #5E534E",
";. c #5A5B45",
":. c #645740",
">. c #655C41",
",. c #6A5E43",
"<. c #605550",
"1. c #536245",
"2. c #5D6644",
"3. c #5C6A46",
"4. c #5B644C",
"5. c #5C6A4C",
"6. c #5E734A",
"7. c #5D6950",
"8. c #646144",
"9. c #696246",
"0. c #65644B",
"q. c #6C674B",
"w. c #656C4D",
"e. c #6D694E",
"r. c #616C47",
"t. c #716B4C",
"y. c #61754C",
"u. c #656C52",
"i. c #6A6E52",
"p. c #647551",
"a. c #6C7254",
"s. c #667954",
"d. c #697A56",
"f. c #6C745D",
"g. c #6C7C5B",
"h. c #707657",
"j. c #737658",
"k. c #747D5E",
"l. c #717953",
"z. c #737C61",
"x. c #84311A",
"c. c #82432A",
"v. c #895E41",
"b. c #8B6243",
"n. c #8B7959",
"m. c #927655",
"M. c #6B814C",
"N. c #6F815D",
"B. c #758854",
"V. c #71815E",
"C. c #7D8A53",
"Z. c #738361",
"A. c #788765",
"S. c #778B61",
"D. c #7B8A64",
"F. c #7A8B68",
"G. c #7E9267",
"H. c #8E825D",
"J. c #878161",
"K. c #838D67",
"L. c #888967",
"P. c #848B6B",
"I. c #948B67",
"U. c #938E69",
"Y. c #82916C",
"T. c #8A936F",
"R. c #839C60",
"E. c #95916B",
"W. c #8E9A72",
"Q. c #8D9671",
"!. c #909C73",
"~. c #95AC6F",
"^. c #95AE70",
"/. c #A2AD89",
"(. c #A9B78A",
"). c None",
/* pixels */
").).).).).).).).).).).).).).).).).).).).).).).).).).).).).).).).).).).).).).).).).).).).).).).).).).).).).).).).).).).).).).).).",
").).).).).).).).).).).).).).).).).).).).).).).).).).).).).).).).).).).).).).).).).).).).).).).).).).).).).).).).).).).).).).).).",
").).).).).).).).).).).).).).).).).).).).).).).).).).).).).).).).).).).).).).).).).).).).).).).).).).).).).).).).).).).).).).).).",
").).).).).).).).).).).).).).).).).).).).).).).).).).).).).).).).).).).).).).).).).).).).).).).).).).).).).).).).).).).).).).).).",
").).).).).).).).).).).).).).).).).).).).).).).).).).).).).).).).).).).).).).).).).).).).).).).).).).).).).).).).).).).).).).).).",
").).).).).).).).).).).).).).).).).).).).).).).).).).).).).).).).).).).).).).).).).).).).).).).).).).).).).).).).).).).).).).).).",
").).).).).).).).).).).).).).).).).).).).).).).).).).).).).).).).).).).).).).).).).).).).).).).).).).).).).).).).).).).).).).).).",
").).).).).).).).).).).).).).).).).).).).).).).).).).).).).).).).).).).).).).).).).).).).).).).).).).).).).).).).).).).).).).).).",
").).).).).).).).).).).).).).).).).).).).).).).).).).).).).).).).).).).).).).).).).).).).).).).).).).).).).).).).).).).).).).).).",
").).).).).).).).).).).).).).).).).).).).).).).).).).).).).).).).).).).).).).).).).).).).).).).).).).).).).).).).).).).).).).).).",
").).).).).).).).).).).).).).).).).).).).).).).).).).).).).).).).).).).).).).).).).).).).).).).).).).).).).).).).).).).).).).).).",
").).).).).).).).).).).).).).).).).).).).).).).).).).).).).).).).).).).).).).).).).).).).).).).).).).).).).).).).).).).).).).).).",
").).).).).).).).).).).).).).).).).).                    ).).).).).).).).).).).).).).).).).).).).).).).).).).).).).).).).).).).).",
").).).).).).).).).).).).).).).).).).o o o o o O o @ o o ).).).).).).).).).).).).).).).).).).).).).).).).).).).).).).).).).).).).",
").).).).).).).).).).).).).).).).  o 4 h h 5 h 5 h h x 5 o   ).).).).).).).).).).).).).).).).).).).).).).).).).).).).).).).).).).",
").).).).).).).).).).).).).).).).O : b A v v v B A T ..M 2 $ ).).).).).).).).).).).).).).).).).).).).).).).).).).).).).).).).).).",
").).).).).).).).).).).).).).  o 4 b Z A B h B B B ( O.2.] L $   ).).).).).).).).).).).).).).).).).).).).).).).).).).).).).).).).",
").).).).).).).).).).).).).).O : M ( T C B B v B T [ 3.y.y.] 8 $ ).).).).).).).).).).).).).).).).).).).).).).).).).).).).).).).).",
").).).).).).).).).).).).  o 4 M [ { ( C B B B T { 3.6.6.y.3.] L *   ).).).).).).).).).).).).).).).).).).).).).).).).).).).).).).",
").).).).).).).).).).).).  @ N o.3.3.( C B C T o.3.6.6.6.6.y.y.] *   ).).).).).).).).).).).).).).).).).).).).).).).).).).).).).).",
").).).).).).).).).).).).  # W y.y.2.( A B T >.w.6.6.6.6.6.y.y.` *   ).).).).).).).).).).).).).).).).).).).).).).).).).).).).).).",
").).).).).).).).).).).).  * _ y.y.2.( A ( O.p.s.p.6.6.6.6.6.6.` *   ).).).).).).).).).).).).).).).).).).).).).).).).).).).).).).",
").).).).).).).).).).).).  * ` 6.s.0.( ( 0.a.g.g.s.p.p.p.6.6.6.` *   ).).).).).).).).).).).).).).).).).).).).).).).).).).).).).).",
").).).).).).).).).).).).  * ` s.g.w.( ( a.Z.Z.z.N.g.g.d.s.y.6._ *   ).).).).).).).).).).).).).).).).).).).).).).).).).).).).).).",
").).).).).).).).).).).).  = &.g.V.i...( i.Z.Z.Z.Z.N.V.g.s.s.y._ *   ).).).).).).).).).).).).).).).).).).).).).).).).).).).).).).",
").).).).).).).).).).).).  $ P &.1.=.[ o.q.i.4.=.=.=.1.4.p.d.p.` *   ).).).).).).).).).).).).).).).).).).).).).).).).).).).).).).",
").).).).).).).).).).).).  . + * * y ;.e.O.Y < * * * * y 5.N.s.` *   ).).).).).).).).).).).).).).).).).).).).).).).).).).).).).).",
").).).).).).).).).).).).  . < 0 < d 7.a.X.b 3 2 q 0 - y 7.d.1.P #   ).).).).).).).).).).).).).).).).).).).).).).).).).).).).).).",
").).).).).).).).).).).).  < f.T.B.M.V.a...( @.B.T.F.u.7.f.5.y * ).).).).).).).).).).).).).).).).).).).).).).).).).).).).).).).).",
").).).).).).).).).).).).  q P.(.~.R.V.i.( +.C.^.(./.G.Z.Z.=.=   ).).).).).).).).).).).).).).).).).).).).).).).).).).).).).).).).",
").).).).).).).).).).).).  , 5.P.D.S.Z.a.( ..l.G.T.G.A.Z.Z.=.=   ).).).).).).).).).).).).).).).).).).).).).).).).).).).).).).).).",
").).).).).).).).).).).).  = &.d.g.Z.V.a.O.o.q.i.u.f.z.V.N.=.=   ).).).).).).).).).).).).).).).).).).).).).).).).).).).).).).).).",
").).).).).).).).).).).).  = ] d.g.z.N.k.a.0.X...( :.a.Z.M.' =       ).).).).).).).).).).).).).).).).).).).).).).).).).).).).).).",
").).).).).).).).).).).).  = ] N.A.A.Z.Z.F.z.,.X.+.,.i.u.5.W , X @ X ).).).).).).).).).).).).).).).).).).).).).).).).).).).).).).",
").).).).).).).).).).).).  * ` N.W.W.A.A.!.Q.j.j.L.n.,.( E f e 9 e 9 .   ).).).).).).).).).).).).).).).).).).).).).).).).).).).).",
").).).).).).).).).).).).  $ L 3.K.!.P.P.U.U.P.T.E.n.X.m n a a S D t - X ).).).).).).).).).).).).).).).).).).).).).).).).).).).).",
").).).).).).).).).).).).).).% y 3.D.W.U.b.b.E.E.b.K A n a a a a D S t 0 X   ).).).).).).).).).).).).).).).).).).).).).).).).).).",
").).).).).).).).).).).).).).  % L 3.Y.H.c.c.m.m.| B c S a a a S S F H t o   ).).).).).).).).).).).).).).).).).).).).).).).).).).",
").).).).).).).).).).).).).).).).$ 8 3.t.K x.c.K C n t t a n f S F F H r o   ).).).).).).).).).).).).).).).).).).).).).).).).).).",
").).).).).).).).).).).).).).).).  $ U [ K k z j n a a n a a S F D f p 9 X   ).).).).).).).).).).).).).).).).).).).).).).).).).).",
").).).).).).).).).).).).).).).).  o e Z m m c x n t a a a n S F F t & X ).).).).).).).).).).).).).).).).).).).).).).).).).).).).",
").).).).).).).).).).).).).).).).X < m J m a p a a a a t a a S F D e X   ).).).).).).).).).).).).).).).).).).).).).).).).).).).).",
").).).).).).).).).).).).).).  X < D 0.0.! t a a a a a a t a D D F r +   ).).).).).).).).).).).).).).).).).).).).).).).).).).).).",
").).).).).).).).).).).).).).  + e $.u.4.f 9 r t a t a i F R F F F r +   ).).).).).).).).).).).).).).).).).).).).).).).).).).).).",
").).).).).).).).).).).).).).  X e ! $.D : % 9 r r e e S ;.4.! D F e o   ).).).).).).).).).).).).).).).).).).).).).).).).).).).).",
").).).).).).).).).).).).).).X & t S p 1 X . & > w w w S =.4.! D S 9 X   ).).).).).).).).).).).).).).).).).).).).).).).).).).).).",
").).).).).).).).).).).).  X 0 t D t - X ).).. % > 9 9 r F ! F S a 1 X   ).).).).).).).).).).).).).).).).).).).).).).).).).).).).",
").).).).).).).).).).).).X & t F F e X   ).).@ : w u u s ! $.$.~ D e : @ ).).).).).).).).).).).).).).).).).).).).).).).).).).).).",
").).).).).).).).).).  X 1 t S D F r X     % n Y / / / [ u.f.g.u.;.( / i @       ).).).).).).).).).).).).).).).).).).).).).).).).",
").).).).).).).).).).  % f *.*.! a 1 X     % E @.O.o.o.8.a.k.k.h.9.:.@./ 3 = = * ).).).).).).).).).).).).).).).).).).).).).).).).",
").).).).).).).).).).  = &.z.z.=.0 X ).).  # Q 9.O.o.[ { 8.0.q.9.8.O.>.{ ] ] &.I *   ).).).).).).).).).).).).).).).).).).).).).).",
").).).).).).).).).).  , &.7.7.$.=   ).).  # Y O.o.{ [ [ O.>.>.,.9.9.O.{ ' 1.f.=.=   ).).).).).).).).).).).).).).).).).).).).).).",
").).).).).).).).).).).).* , , = ).).).).  # Y >.O.O.[ { 9.q.t.t.t.q.O.Y 2 y 5.1.,   ).).).).).).).).).).).).).).).).).).).).).).",
").).).).).).).).).).).).        ).).).).@ 3 / >.O.[ Y Y / ) ) ) ) / Y 6 X * W W =   ).).).).).).).).).).).).).).).).).).).).).).",
").).).).).).).).).).).).).).).).).).  @ i / o.:.O.Q 2 @ # = = = & & # @ ).).* = ).).).).).).).).).).).).).).).).).).).).).).).).",
").).).).).).).).).).).).).).).).).).  @ Y O.;.[ Q u o                   ).).    ).).).).).).).).).).).).).).).).).).).).).).).).",
").).).).).).).).).).).).).).).).).).  + p $.$.S < @ ).).).).).).).).).).).).).).).).).).).).).).).).).).).).).).).).).).).).).).",
").).).).).).).).).).).).).).).).).).& 9 G $.#.p o   ).).).).).).).).).).).).).).).).).).).).).).).).).).).).).).).).).).).).).).",
").).).).).).).).).).).).).).).).  % f %.<.-.#.p X O j z ).).).).).).).).).).).).).).).).).).).).).).).).).).).).).).).).).).).).",
").).).).).).).).).).).).).).).).  % G <.-.%.G e X O g l ).).).).).).).).).).).).).).).).).).).).).).).).).).).).).).).).).).).).",
").).).).).).).).).).).).).).).).  . - q 0 1 - % . . ; ).).).).).).).).).).).).).).).).).).).).).).).).).).).).).).).).).).).).).",
").).).).).).).).).).).).).).).).).).).).).).).).).).).).).).).).).).).).).).).).).).).).).).).).).).).).).).).).).).).).).).).).",
").).).).).).).).).).).).).).).).).).).).).).).).).).).).).).).).).).).).).).).).).).).).).).).).).).).).).).).).).).).).).).).).",
").).).).).).).).).).).).).).).).).).).).).).).).).).).).).).).).).).).).).).).).).).).).).).).).).).).).).).).).).).).).).).).)."
};
