/* XPM */
static char *result[] = {
/* columns rows colors chars-per-pixel */
"64 64 187 2 ",
"   c #000000",
".  c #0E0C0B",
"X  c #080605",
"o  c #1D0904",
"O  c #120D0A",
"+  c #140401",
"@  c #0F120D",
"#  c #14140E",
"$  c #19160F",
"%  c #13180F",
"&  c #151311",
"*  c #161A12",
"=  c #1A1C16",
"-  c #1D1D19",
";  c #1D1715",
":  c #27170E",
">  c #281712",
",  c #261B13",
"<  c #251D1A",
"1  c #1D2119",
"2  c #25241B",
"3  c #29231E",
"4  c #242819",
"5  c #2C291B",
"6  c #362219",
"7  c #3D231B",
"8  c #342F1F",
"9  c #28301F",
"0  c #272720",
"q  c #2C2421",
"w  c #272820",
"e  c #2A2C22",
"r  c #312723",
"t  c #332A26",
"y  c #382F26",
"u  c #352C28",
"i  c #392F2B",
"p  c #2C3324",
"a  c #3B3423",
"s  c #3D3826",
"d  c #3C322C",
"f  c #373C2A",
"g  c #3E3530",
"h  c #3E3A31",
"j  c #4B1E10",
"k  c #561E10",
"l  c #422A1F",
"z  c #5D2010",
"x  c #5C2A1D",
"c  c #6C2C1B",
"v  c #602313",
"b  c #6F341E",
"n  c #7F311B",
"m  c #452D24",
"M  c #4B2F26",
"N  c #522E24",
"B  c #4B3224",
"V  c #42312B",
"C  c #433D2B",
"Z  c #4C3C2A",
"A  c #493528",
"S  c #553126",
"D  c #563528",
"F  c #593729",
"G  c #543A2A",
"H  c #5B3A2B",
"J  c #423632",
"K  c #453B35",
"L  c #4A3C35",
"P  c #453D39",
"I  c #493D38",
"U  c #6E3C28",
"Y  c #36422A",
"T  c #38432D",
"R  c #47402E",
"E  c #4C442F",
"W  c #5C422F",
"Q  c #4C4632",
"!  c #424B36",
"~  c #4E4933",
"^  c #4B453A",
"/  c #574737",
"(  c #5D4633",
")  c #524B34",
"_  c #5D4935",
"`  c #544C3C",
"'  c #584F38",
"]  c #465537",
"[  c #475638",
"{  c #4A563B",
"}  c #4D5A3D",
"|  c #585237",
" . c #515238",
".. c #5D543A",
"X. c #5D5A3E",
"o. c #6B422B",
"O. c #794026",
"+. c #77442E",
"@. c #78452F",
"#. c #604B36",
"$. c #624C39",
"%. c #665237",
"&. c #62553D",
"*. c #635B3E",
"=. c #69523D",
"-. c #656F3E",
";. c #4C4440",
":. c #524A43",
">. c #574D49",
",. c #495340",
"<. c #4F5C42",
"1. c #575244",
"2. c #5F5740",
"3. c #535C46",
"4. c #5E534E",
"5. c #575D49",
"6. c #645740",
"7. c #645C41",
"8. c #6C5E44",
"9. c #605550",
"0. c #546245",
"q. c #5C6644",
"w. c #5C6A46",
"e. c #556149",
"r. c #5B644C",
"t. c #5C6A4C",
"y. c #5E734A",
"u. c #5D6950",
"i. c #656244",
"p. c #696042",
"a. c #686846",
"s. c #66654A",
"d. c #6C664B",
"f. c #656D4D",
"g. c #6C6A4E",
"h. c #616C47",
"j. c #736D48",
"k. c #61754C",
"l. c #646C52",
"z. c #6A6E52",
"x. c #726F54",
"c. c #647551",
"v. c #6B7254",
"b. c #667954",
"n. c #687A56",
"m. c #6C745D",
"M. c #6C7C5B",
"N. c #737658",
"B. c #747B5C",
"V. c #737655",
"C. c #737C62",
"Z. c #85311A",
"A. c #82422A",
"S. c #895E41",
"D. c #8B6243",
"F. c #8B7959",
"G. c #927655",
"H. c #6B814C",
"J. c #6F815D",
"K. c #758854",
"L. c #71815E",
"P. c #7D8A53",
"I. c #738361",
"U. c #788565",
"Y. c #778B61",
"T. c #7B8A64",
"R. c #7A8B68",
"E. c #7E9267",
"W. c #8E815C",
"Q. c #878161",
"!. c #828D67",
"~. c #888967",
"^. c #848B6B",
"/. c #948B67",
"(. c #938E69",
"). c #82916D",
"_. c #8A936F",
"`. c #839C60",
"'. c #95916B",
"]. c #8E9A72",
"[. c #8D9671",
"{. c #909C73",
"}. c #95AC6F",
"|. c #95AE70",
" X c #A2AD89",
".X c #A9B78A",
"XX c None",
/* pixels */
"XXXXXXXXXXXXXXXXXXXXXXXXXXXXXXXXXXXXXXXXXXXXXXXXXXXXXXXXXXXXXXXXXXXXXXXXXXXXXXXXXXXXXXXXXXXXXXXXXXXXXXXXXXXXXXXXXXXXXXXXXXXXXXXX",
"XXXXXXXXXXXXXXXXXXXXXXXXXXXXXXXXXXXXXXXXXXXXXXXXXXXXXXXXXXXXXXXXXXXXXXXXXXXXXXXXXXXXXXXXXXXXXXXXXXXXXXXXXXXXXXXXXXXXXXXXXXXXXXXX",
"XXXXXXXXXXXXXXXXXXXXXXXXXXXXXXXXXXXXXXXXXXXXXXXXXXXXXXXXXXXXXXXXXXXXXXXXXXXXXXXXXXXXXXXXXXXXXXXXXXXXXXXXXXXXXXXXXXXXXXXXXXXXXXXX",
"XXXXXXXXXXXXXXXXXXXXXXXXXXXXXXXXXXXXXXXXXXXXXXXXXXXXXXXXXXXXXXXXXXXXXXXXXXXXXXXXXXXXXXXXXXXXXXXXXXXXXXXXXXXXXXXXXXXXXXXXXXXXXXXX",
"XXXXXXXXXXXXXXXXXXXXXXXXXXXXXXXXXXXXXXXXXXXXXXXXXXXXXXXXXXXXXXXXXXXXXXXXXXXXXXXXXXXXXXXXXXXXXXXXXXXXXXXXXXXXXXXXXXXXXXXXXXXXXXXX",
"XXXXXXXXXXXXXXXXXXXXXXXXXXXXXXXXXXXXXXXXXXXXXXXXXXXXXXXXXXXXXXXXXXXXXXXXXXXXXXXXXXXXXXXXXXXXXXXXXXXXXXXXXXXXXXXXXXXXXXXXXXXXXXXX",
"XXXXXXXXXXXXXXXXXXXXXXXXXXXXXXXXXXXXXXXXXXXXXXXXXXXXXXXXXXXXXXXXXXXXXXXXXXXXXXXXXXXXXXXXXXXXXXXXXXXXXXXXXXXXXXXXXXXXXXXXXXXXXXXX",
"XXXXXXXXXXXXXXXXXXXXXXXXXXXXXXXXXXXXXXXXXXXXXXXXXXXXXXXXXXXXXXXXXXXXXXXXXXXXXXXXXXXXXXXXXXXXXXXXXXXXXXXXXXXXXXXXXXXXXXXXXXXXXXXX",
"XXXXXXXXXXXXXXXXXXXXXXXXXXXXXXXXXXXXXXXXXXXXXXXXXXXXXXXXXXXXXXXXXXXXXXXXXXXXXXXXXXXXXXXXXXXXXXXXXXXXXXXXXXXXXXXXXXXXXXXXXXXXXXXX",
"XXXXXXXXXXXXXXXXXXXXXXXXXXXXXXXXXXXXXXXXXXXXXXXXXXXXXXXXXXXXXXXXXXXXXXXXXXXXXXXXXXXXXXXXXXXXXXXXXXXXXXXXXXXXXXXXXXXXXXXXXXXXXXXX",
"XXXXXXXXXXXXXXXXXXXXXXXXXXXXXXXXXXXXXXXXXXXXXXXXXXXXXXXXXXXXXXXXXXXXXXXXXXXXXXXXXXXXXXXXXXXXXXXXXXXXXXXXXXXXXXXXXXXXXXXXXXXXXXXX",
"XXXXXXXXXXXXXXXXXXXXXXXXXXXXXXXXXXXXXXXXXXXXXXXXXXXXXXXXXXXXXXXXXXXXXXXXXXXXXXXXXXXXXXXXXXXXXXXXXXXXXXXXXXXXXXXXXXXXXXXXXXXXXXXX",
"XXXXXXXXXXXXXXXXXXXXXXXXXXXXXXXXXXXXXXXXXXXXXXXXXXXXXXXXXXXXXXXXXXXXXXXXXXXXXXXXXXXXXXXXXXXXXXXXXXXXXXXXXXXXXXXXXXXXXXXXXXXXXXXX",
"XXXXXXXXXXXXXXXXXXXXXXXXXXXXXXXXXXXXXXXXXXXXXXXXXXXXXXXXXXXXXXXXXXXXXXXXXXXXXXXXXXXXXXXXXXXXXXXXXXXXXXXXXXXXXXXXXXXXXXXXXXXXXXXX",
"XXXXXXXXXXXXXXXXXXXXXXXXXXXXXXXXXXXX                    XXXXXXXXXXXXXXXXXXXXXXXXXXXXXXXXXXXXXXXXXXXXXXXXXXXXXXXXXXXXXXXXXXXXXXXX",
"XXXXXXXXXXXXXXXXXXXXXXXXXXXXXXXXXXXXO O O O o O O O # O XXXXXXXXXXXXXXXXXXXXXXXXXXXXXXXXXXXXXXXXXXXXXXXXXXXXXXXXXXXXXXXXXXXXXXXX",
"XXXXXXXXXXXXXXXXXXXXXXXXXXXXXXXX  O 6 m 7 7 7 7 l l B 6 +   XXXXXXXXXXXXXXXXXXXXXXXXXXXXXXXXXXXXXXXXXXXXXXXXXXXXXXXXXXXXXXXXXXXX",
"XXXXXXXXXXXXXXXXXXXXXXXXXXXXXXXXO , B H D N N S H W #.Z 4 % XXXXXXXXXXXXXXXXXXXXXXXXXXXXXXXXXXXXXXXXXXXXXXXXXXXXXXXXXXXXXXXXXXXX",
"XXXXXXXXXXXXXXXXXXXXXXXXXXXX  O 6 B F H S N N N F ( X.q.} T %   XXXXXXXXXXXXXXXXXXXXXXXXXXXXXXXXXXXXXXXXXXXXXXXXXXXXXXXXXXXXXXXX",
"XXXXXXXXXXXXXXXXXXXXXXXXXXXXO , A _ W F S N N D W ..q.k.k.} 9 % XXXXXXXXXXXXXXXXXXXXXXXXXXXXXXXXXXXXXXXXXXXXXXXXXXXXXXXXXXXXXXXX",
"XXXXXXXXXXXXXXXXXXXXXXXX  O 6 Z X.*._ F N N D W X.w.w.k.y.y.} T *   XXXXXXXXXXXXXXXXXXXXXXXXXXXXXXXXXXXXXXXXXXXXXXXXXXXXXXXXXXXX",
"XXXXXXXXXXXXXXXXXXXXXXXX  # A &.w.w._ F S D W ..w.y.k.y.y.k.k.[ *   XXXXXXXXXXXXXXXXXXXXXXXXXXXXXXXXXXXXXXXXXXXXXXXXXXXXXXXXXXXX",
"XXXXXXXXXXXXXXXXXXXXXXXX  % ] h.y.q._ F D ( 7.f.k.y.y.y.y.k.k.[ *   XXXXXXXXXXXXXXXXXXXXXXXXXXXXXXXXXXXXXXXXXXXXXXXXXXXXXXXXXXXX",
"XXXXXXXXXXXXXXXXXXXXXXXX  * [ k.k.q._ H ( 6.c.b.k.k.k.y.y.y.y.[ *   XXXXXXXXXXXXXXXXXXXXXXXXXXXXXXXXXXXXXXXXXXXXXXXXXXXXXXXXXXXX",
"XXXXXXXXXXXXXXXXXXXXXXXX  * [ k.b.h.( ( s.v.M.M.b.c.c.c.y.y.c.[ *   XXXXXXXXXXXXXXXXXXXXXXXXXXXXXXXXXXXXXXXXXXXXXXXXXXXXXXXXXXXX",
"XXXXXXXXXXXXXXXXXXXXXXXX  = [ b.J.f._ #.v.I.I.C.M.M.M.n.c.y.y.[ *   XXXXXXXXXXXXXXXXXXXXXXXXXXXXXXXXXXXXXXXXXXXXXXXXXXXXXXXXXXXX",
"XXXXXXXXXXXXXXXXXXXXXXXX  = <.M.L.z.#.#.v.I.I.L.I.J.I.M.b.b.y.[ *   XXXXXXXXXXXXXXXXXXXXXXXXXXXXXXXXXXXXXXXXXXXXXXXXXXXXXXXXXXXX",
"XXXXXXXXXXXXXXXXXXXXXXXX  @ Y <.3.5.' 6.s.f.r.3.3.3.3.r.b.b.b.[ *   XXXXXXXXXXXXXXXXXXXXXXXXXXXXXXXXXXXXXXXXXXXXXXXXXXXXXXXXXXXX",
"XXXXXXXXXXXXXXXXXXXXXXXX  X @ & * e 5.g.7.E 5 * * * * p r.J.b.[ *   XXXXXXXXXXXXXXXXXXXXXXXXXXXXXXXXXXXXXXXXXXXXXXXXXXXXXXXXXXXX",
"XXXXXXXXXXXXXXXXXXXXXXXX  . < e 4 f u.v.$.B 5 4 e w - p u.n.0.Y %   XXXXXXXXXXXXXXXXXXXXXXXXXXXXXXXXXXXXXXXXXXXXXXXXXXXXXXXXXXXX",
"XXXXXXXXXXXXXXXXXXXXXXXX  2 m._.K.H.J.z.$._ -.K.).^.l.u.M.r.p * XXXXXXXXXXXXXXXXXXXXXXXXXXXXXXXXXXXXXXXXXXXXXXXXXXXXXXXXXXXXXXXX",
"XXXXXXXXXXXXXXXXXXXXXXXX  e ^..X|.`.K.v.#.%.P.|..X X).I.I.3.=   XXXXXXXXXXXXXXXXXXXXXXXXXXXXXXXXXXXXXXXXXXXXXXXXXXXXXXXXXXXXXXXX",
"XXXXXXXXXXXXXXXXXXXXXXXX  1 u.!.T.Y.I.z._ $.V.E.).).U.I.I.e.=       XXXXXXXXXXXXXXXXXXXXXXXXXXXXXXXXXXXXXXXXXXXXXXXXXXXXXXXXXXXX",
"XXXXXXXXXXXXXXXXXXXXXXXX  * } M.L.J.I.v.7.&.s.z.z.v.M.I.J.e.2 . . O XXXXXXXXXXXXXXXXXXXXXXXXXXXXXXXXXXXXXXXXXXXXXXXXXXXXXXXXXXXX",
"XXXXXXXXXXXXXXXXXXXXXXXX  = } n.M.I.M.M.v.s.6.( _ 6.v.J.n.0.f r t 0 .   XXXXXXXXXXXXXXXXXXXXXXXXXXXXXXXXXXXXXXXXXXXXXXXXXXXXXXXX",
"XXXXXXXXXXXXXXXXXXXXXXXX  * } J.T.U.U.U.R.C.7.$.=.8.g.z.w.} J J K d ; . XXXXXXXXXXXXXXXXXXXXXXXXXXXXXXXXXXXXXXXXXXXXXXXXXXXXXXXX",
"XXXXXXXXXXXXXXXXXXXXXXXX  * [ L.[.[.T.T.].[.C.N.~.Q.8.' Q J g g K K i q .   XXXXXXXXXXXXXXXXXXXXXXXXXXXXXXXXXXXXXXXXXXXXXXXXXXXX",
"XXXXXXXXXXXXXXXXXXXXXXXX  * Y w.!.].).!.(.(.~.^.'.F.$.M V V d d J P P u O   XXXXXXXXXXXXXXXXXXXXXXXXXXXXXXXXXXXXXXXXXXXXXXXXXXXX",
"XXXXXXXXXXXXXXXXXXXXXXXXXXXX@ p w.T.{./.S.D.'.'.D.U G V i i i d J I P u O   XXXXXXXXXXXXXXXXXXXXXXXXXXXXXXXXXXXXXXXXXXXXXXXXXXXX",
"XXXXXXXXXXXXXXXXXXXXXXXXXXXX  & Y w.!.W.A.A.G.G.A.N m g d d d g K J i q .   XXXXXXXXXXXXXXXXXXXXXXXXXXXXXXXXXXXXXXXXXXXXXXXXXXXX",
"XXXXXXXXXXXXXXXXXXXXXXXXXXXXXXXX@ p w.g.O.n A.@.F m d d d V J K K i ; . XXXXXXXXXXXXXXXXXXXXXXXXXXXXXXXXXXXXXXXXXXXXXXXXXXXXXXXX",
"XXXXXXXXXXXXXXXXXXXXXXXXXXXXXXXX  * { a.o.c c c m d d d d d K K K u .   XXXXXXXXXXXXXXXXXXXXXXXXXXXXXXXXXXXXXXXXXXXXXXXXXXXXXXXX",
"XXXXXXXXXXXXXXXXXXXXXXXXXXXXXXXX  1 e.v./ B m V i d d d i d J K K u .   XXXXXXXXXXXXXXXXXXXXXXXXXXXXXXXXXXXXXXXXXXXXXXXXXXXXXXXX",
"XXXXXXXXXXXXXXXXXXXXXXXXXXXXXXXX. 2 5.u.h q u d d d d d K ^ P L K u #   XXXXXXXXXXXXXXXXXXXXXXXXXXXXXXXXXXXXXXXXXXXXXXXXXXXXXXXX",
"XXXXXXXXXXXXXXXXXXXXXXXXXXXX  . 0 h ^ K ; & 0 u y t t K 5.r.^ K K u O   XXXXXXXXXXXXXXXXXXXXXXXXXXXXXXXXXXXXXXXXXXXXXXXXXXXXXXXX",
"XXXXXXXXXXXXXXXXXXXXXXXXXXXX  O u I I u # X , < r r r d 1.5.^ K K u .   XXXXXXXXXXXXXXXXXXXXXXXXXXXXXXXXXXXXXXXXXXXXXXXXXXXXXXXX",
"XXXXXXXXXXXXXXXXXXXXXXXXXXXX  . u K P J XXXXX . < q q t d h K K K u .   XXXXXXXXXXXXXXXXXXXXXXXXXXXXXXXXXXXXXXXXXXXXXXXXXXXXXXXX",
"XXXXXXXXXXXXXXXXXXXXXXXXXXXX. ; i J i t XXXX# - r a d y e t g K I J 2 # XXXXXXXXXXXXXXXXXXXXXXXXXXXXXXXXXXXXXXXXXXXXXXXXXXXXXXXX",
"XXXXXXXXXXXXXXXXXXXXXXXX  . 3 i J u - .   # s ~ ) ' ' / J d J Q / ' ) s &   XXXXXXXXXXXXXXXXXXXXXXXXXXXXXXXXXXXXXXXXXXXXXXXXXXXX",
"XXXXXXXXXXXXXXXXXXXXXXXX  & h 1.1.h &     $ Q p.-.&.*.X.1.:.:.1.6.-.p.E $   XXXXXXXXXXXXXXXXXXXXXXXXXXXXXXXXXXXXXXXXXXXXXXXXXXXX",
"XXXXXXXXXXXXXXXXXXXXXXXX  = 3.C.C.3.=     $ Q p.*.X...7.z.m.m.z.s.7.p.E $   XXXXXXXXXXXXXXXXXXXXXXXXXXXXXXXXXXXXXXXXXXXXXXXXXXXX",
"XXXXXXXXXXXXXXXXXXXXXXXX  = ,.u.u.,.-     $ E 7.*.....7.N.U.U.B.d.8.i. .e * XXXXXXXXXXXXXXXXXXXXXXXXXXXXXXXXXXXXXXXXXXXXXXXXXXXX",
"XXXXXXXXXXXXXXXXXXXXXXXXXXXX- 1 1 - XXXX  # E *.*.....*.g.N.N.x.g.d.f.w.e.T 1   XXXXXXXXXXXXXXXXXXXXXXXXXXXXXXXXXXXXXXXXXXXXXXXX",
"XXXXXXXXXXXXXXXXXXXXXXXXXXXX        XXXX# 5 ) 8.*.| E Z ~ X.7.d.d.i.[ 0.n.e.1   XXXXXXXXXXXXXXXXXXXXXXXXXXXXXXXXXXXXXXXXXXXXXXXX",
"XXXXXXXXXXXXXXXXXXXXXXXXXXXXXXXXXXXX  # s ) X.7.*.~ 4 # & 3 ) *.7.~ 4 p u.e.=   XXXXXXXXXXXXXXXXXXXXXXXXXXXXXXXXXXXXXXXXXXXXXXXX",
"XXXXXXXXXXXXXXXXXXXXXXXXXXXXXXXXXXXX  $ R 6.6.&.%.G $   + : a C R 8 O * T ! =   XXXXXXXXXXXXXXXXXXXXXXXXXXXXXXXXXXXXXXXXXXXXXXXX",
"XXXXXXXXXXXXXXXXXXXXXXXXXXXXXXXXXXXX  . g :.;.( U b XXXXk l : $ # # XXXX* * XXXXXXXXXXXXXXXXXXXXXXXXXXXXXXXXXXXXXXXXXXXXXXXXXXXX",
"XXXXXXXXXXXXXXXXXXXXXXXXXXXXXXXXXXXX; q P :.;.L x v XXXXZ.z o       XXXX    XXXXXXXXXXXXXXXXXXXXXXXXXXXXXXXXXXXXXXXXXXXXXXXXXXXX",
"XXXXXXXXXXXXXXXXXXXXXXXXXXXXXXXX  & h >.4.4.:.g : o XXXXXXXXXXXXXXXXXXXXXXXXXXXXXXXXXXXXXXXXXXXXXXXXXXXXXXXXXXXXXXXXXXXXXXXXXXXX",
"XXXXXXXXXXXXXXXXXXXXXXXXXXXXXXXX  & P 4.4.:.P r .   XXXXXXXXXXXXXXXXXXXXXXXXXXXXXXXXXXXXXXXXXXXXXXXXXXXXXXXXXXXXXXXXXXXXXXXXXXXX",
"XXXXXXXXXXXXXXXXXXXXXXXXXXXXXXXX  . - q q 3 - & X   XXXXXXXXXXXXXXXXXXXXXXXXXXXXXXXXXXXXXXXXXXXXXXXXXXXXXXXXXXXXXXXXXXXXXXXXXXXX",
"XXXXXXXXXXXXXXXXXXXXXXXXXXXXXXXXXXXXXXXXXXXXXXXXXXXXXXXXXXXXXXXXXXXXXXXXXXXXXXXXXXXXXXXXXXXXXXXXXXXXXXXXXXXXXXXXXXXXXXXXXXXXXXXX",
"XXXXXXXXXXXXXXXXXXXXXXXXXXXXXXXXXXXXXXXXXXXXXXXXXXXXXXXXXXXXXXXXXXXXXXXXXXXXXXXXXXXXXXXXXXXXXXXXXXXXXXXXXXXXXXXXXXXXXXXXXXXXXXXX",
"XXXXXXXXXXXXXXXXXXXXXXXXXXXXXXXXXXXXXXXXXXXXXXXXXXXXXXXXXXXXXXXXXXXXXXXXXXXXXXXXXXXXXXXXXXXXXXXXXXXXXXXXXXXXXXXXXXXXXXXXXXXXXXXX"
};
