/* XPM */
static char *result[] = {
/* columns rows colors chars-per-pixel */
"64 64 182 2 ",
"   c #000000",
".  c #0F0706",
"X  c #0F0806",
"o  c #0D0B0A",
"O  c #100706",
"+  c #120906",
"@  c #110D0A",
"#  c #0F120D",
"$  c #14130D",
"%  c #12180F",
"&  c #151411",
"*  c #1B1712",
"=  c #161A12",
"-  c #191C15",
";  c #1F1B1A",
":  c #22130F",
">  c #211D16",
",  c #2F1A14",
"<  c #301B14",
"1  c #1D2019",
"2  c #242317",
"3  c #24221B",
"4  c #2A271D",
"5  c #222919",
"6  c #2D2A19",
"7  c #36211A",
"8  c #3D221A",
"9  c #342F1F",
"0  c #262220",
"q  c #2A2522",
"w  c #272820",
"e  c #2C2B23",
"r  c #332A25",
"t  c #352C28",
"y  c #3A2E2A",
"u  c #2C3325",
"i  c #353020",
"p  c #333E27",
"a  c #37302D",
"s  c #3C322C",
"d  c #3F392F",
"f  c #3F3531",
"g  c #3E3932",
"h  c #4E1D12",
"j  c #43251D",
"k  c #42291F",
"l  c #602D1F",
"z  c #6B2C1B",
"x  c #7F311B",
"c  c #452C23",
"v  c #4B2D24",
"b  c #442F29",
"n  c #532E24",
"m  c #453527",
"M  c #463827",
"N  c #41352B",
"B  c #4A332B",
"V  c #433F2F",
"C  c #4C3424",
"Z  c #553126",
"A  c #563629",
"S  c #593629",
"D  c #5B3B2C",
"F  c #423530",
"G  c #443B34",
"H  c #453D39",
"J  c #5B3F31",
"K  c #533E31",
"L  c #602E20",
"P  c #693C27",
"I  c #38442D",
"U  c #37442C",
"Y  c #4B432E",
"T  c #56412E",
"R  c #5B412F",
"E  c #464137",
"W  c #4C4533",
"Q  c #464C33",
"!  c #4D4833",
"~  c #474239",
"^  c #4C443B",
"/  c #4B4E3A",
"(  c #454D3A",
")  c #5C4531",
"_  c #544E36",
"`  c #5E4A34",
"'  c #524B3C",
"]  c #584F38",
"[  c #544334",
"{  c #465537",
"}  c #4C5136",
"|  c #475738",
" . c #4C543C",
".. c #4C5B3E",
"X. c #56513A",
"o. c #5C533B",
"O. c #5D5B3D",
"+. c #6F422C",
"@. c #794026",
"#. c #79462F",
"$. c #604C37",
"%. c #614C39",
"&. c #61543E",
"*. c #635B3E",
"=. c #655337",
"-. c #656E3E",
";. c #4E4540",
":. c #524B43",
">. c #564C48",
",. c #4E5B41",
"<. c #4D5541",
"1. c #545445",
"2. c #535D45",
"3. c #5D5941",
"4. c #5E534E",
"5. c #5B5949",
"6. c #5F5450",
"7. c #665740",
"8. c #665E42",
"9. c #6E5D45",
"0. c #5E6744",
"q. c #5E6A46",
"w. c #5A664C",
"e. c #5C6A4C",
"r. c #546444",
"t. c #5F724A",
"y. c #5C6850",
"u. c #656043",
"i. c #696245",
"p. c #616A47",
"a. c #66634B",
"s. c #6C654B",
"d. c #646C4C",
"f. c #6C6A4D",
"g. c #726B4A",
"h. c #62744E",
"j. c #616651",
"k. c #646B52",
"l. c #6A6E53",
"z. c #647652",
"x. c #6B7355",
"c. c #667953",
"v. c #697B56",
"b. c #6E745B",
"n. c #677858",
"m. c #6D7D5C",
"M. c #707657",
"N. c #727953",
"B. c #717A60",
"V. c #82432A",
"C. c #895E41",
"Z. c #8B6244",
"A. c #877657",
"S. c #917856",
"D. c #937553",
"F. c #6B814C",
"G. c #6F815D",
"H. c #70815E",
"J. c #788854",
"K. c #738361",
"L. c #788765",
"P. c #778B60",
"I. c #7A8A65",
"U. c #7D9266",
"Y. c #8E825D",
"T. c #888261",
"R. c #838B6B",
"E. c #878D69",
"W. c #938B67",
"Q. c #948F6A",
"!. c #83916B",
"~. c #88916D",
"^. c #839C60",
"/. c #95906B",
"(. c #8E9A73",
"). c #8B9470",
"_. c #94AB6E",
"`. c #96AF71",
"'. c #A2AC88",
"]. c #A8B588",
"[. c #AAB88A",
"{. c None",
/* pixels */
"{.{.{.{.{.{.{.{.{.{.{.{.{.{.{.{.{.{.{.{.{.{.{.{.{.{.{.{.{.{.{.{.{.{.{.{.{.{.{.{.{.{.{.{.{.{.{.{.{.{.{.{.{.{.{.{.{.{.{.{.{.{.{.{.",
"{.{.{.{.{.{.{.{.{.{.{.{.{.{.{.{.{.{.{.{.{.{.{.{.{.{.{.{.{.{.{.{.{.{.{.{.{.{.{.{.{.{.{.{.{.{.{.{.{.{.{.{.{.{.{.{.{.{.{.{.{.{.{.{.",
"{.{.{.{.{.{.{.{.{.{.{.{.{.{.{.{.{.{.{.{.{.{.{.{.{.{.{.{.{.{.{.{.{.{.{.{.{.{.{.{.{.{.{.{.{.{.{.{.{.{.{.{.{.{.{.{.{.{.{.{.{.{.{.{.",
"{.{.{.{.{.{.{.{.{.{.{.{.{.{.{.{.{.{.{.{.{.{.{.{.{.{.{.{.{.{.{.{.{.{.{.{.{.{.{.{.{.{.{.{.{.{.{.{.{.{.{.{.{.{.{.{.{.{.{.{.{.{.{.{.",
"{.{.{.{.{.{.{.{.{.{.{.{.{.{.{.{.{.{.{.{.{.{.{.{.{.{.{.{.{.{.{.{.{.{.{.{.{.{.{.{.{.{.{.{.{.{.{.{.{.{.{.{.{.{.{.{.{.{.{.{.{.{.{.{.",
"{.{.{.{.{.{.{.{.{.{.{.{.{.{.{.{.{.{.{.{.{.{.{.{.{.{.{.{.{.{.{.{.{.{.{.{.{.{.{.{.{.{.{.{.{.{.{.{.{.{.{.{.{.{.{.{.{.{.{.{.{.{.{.{.",
"{.{.{.{.{.{.{.{.{.{.{.{.{.{.{.{.{.{.{.{.{.{.{.{.{.{.{.{.{.{.{.{.{.{.{.{.{.{.{.{.{.{.{.{.{.{.{.{.{.{.{.{.{.{.{.{.{.{.{.{.{.{.{.{.",
"{.{.{.{.{.{.{.{.{.{.{.{.{.{.{.{.{.{.{.{.{.{.{.{.{.{.{.{.{.{.{.{.{.{.{.{.{.{.{.{.{.{.{.{.{.{.{.{.{.{.{.{.{.{.{.{.{.{.{.{.{.{.{.{.",
"{.{.{.{.{.{.{.{.{.{.{.{.{.{.{.{.{.{.{.{.{.{.{.{.{.{.{.{.{.{.{.{.{.{.{.{.{.{.{.{.{.{.{.{.{.{.{.{.{.{.{.{.{.{.{.{.{.{.{.{.{.{.{.{.",
"{.{.{.{.{.{.{.{.{.{.{.{.{.{.{.{.{.{.{.{.{.{.{.{.{.{.{.{.{.{.{.{.{.{.{.{.{.{.{.{.{.{.{.{.{.{.{.{.{.{.{.{.{.{.{.{.{.{.{.{.{.{.{.{.",
"{.{.{.{.{.{.{.{.{.{.{.{.{.{.{.{.{.{.{.{.{.{.{.{.{.{.{.{.{.{.                    {.{.{.{.{.{.{.{.{.{.{.{.{.{.{.{.{.{.{.{.{.{.{.{.",
"{.{.{.{.{.{.{.{.{.{.{.{.{.{.{.{.{.{.{.{.{.{.{.{.{.{.{.{.{.{.% % $ @ @ + @ @ @ + {.{.{.{.{.{.{.{.{.{.{.{.{.{.{.{.{.{.{.{.{.{.{.{.",
"{.{.{.{.{.{.{.{.{.{.{.{.{.{.{.{.{.{.{.{.{.{.{.{.{.{.{.{.  % I { C c 8 8 8 8 8 < +   {.{.{.{.{.{.{.{.{.{.{.{.{.{.{.{.{.{.{.{.{.{.",
"{.{.{.{.{.{.{.{.{.{.{.{.{.{.{.{.{.{.{.{.{.{.{.{.{.{.{.{.+ 2 } u.$.S Z n n n Z k 2 % {.{.{.{.{.{.{.{.{.{.{.{.{.{.{.{.{.{.{.{.{.{.",
"{.{.{.{.{.{.{.{.{.{.{.{.{.{.{.{.{.{.{.{.{.{.{.{.{.{.  + < k T ` R D Z n n Z Z T / I %   {.{.{.{.{.{.{.{.{.{.{.{.{.{.{.{.{.{.{.{.",
"{.{.{.{.{.{.{.{.{.{.{.{.{.{.{.{.{.{.{.{.{.{.{.{.{.{.+ : j Z S R R R A Z n n S ` p...u $ {.{.{.{.{.{.{.{.{.{.{.{.{.{.{.{.{.{.{.{.",
"{.{.{.{.{.{.{.{.{.{.{.{.{.{.{.{.{.{.{.{.{.{.{.{.  + < j v Z S R O.O.) A n n A ` 0.t...U =   {.{.{.{.{.{.{.{.{.{.{.{.{.{.{.{.{.{.",
"{.{.{.{.{.{.{.{.{.{.{.{.{.{.{.{.{.{.{.{.{.{.{.{.  @ 8 Z n S R o.q.0.` S Z A ) o.q.h.h.| =   {.{.{.{.{.{.{.{.{.{.{.{.{.{.{.{.{.{.",
"{.{.{.{.{.{.{.{.{.{.{.{.{.{.{.{.{.{.{.{.{.{.{.{.  + 8 Z S R O.q.t.0.) S S ) 8.d.t.t.h.| =   {.{.{.{.{.{.{.{.{.{.{.{.{.{.{.{.{.{.",
"{.{.{.{.{.{.{.{.{.{.{.{.{.{.{.{.{.{.{.{.{.{.{.{.  + j S R o.p.h.t.q.&.` ) ` d.n.h.t.h.| =   {.{.{.{.{.{.{.{.{.{.{.{.{.{.{.{.{.{.",
"{.{.{.{.{.{.{.{.{.{.{.{.{.{.{.{.{.{.{.{.{.{.{.{.  @ j R O.q.z.c.z.z.z.a.$.` l.G.F.z.h.| =   {.{.{.{.{.{.{.{.{.{.{.{.{.{.{.{.{.{.",
"{.{.{.{.{.{.{.{.{.{.{.{.{.{.{.{.{.{.{.{.{.{.{.{.  $ M &.q.z.n.n.m.G.K.l.$.` l.B.G.v.z.| =   {.{.{.{.{.{.{.{.{.{.{.{.{.{.{.{.{.{.",
"{.{.{.{.{.{.{.{.{.{.{.{.{.{.{.{.{.{.{.{.{.{.{.{.  = Q p.z.c.m.K.K.K.K.x.$.` x.K.K.K.G.,.=   {.{.{.{.{.{.{.{.{.{.{.{.{.{.{.{.{.{.",
"{.{.{.{.{.{.{.{.{.{.{.{.{.{.{.{.{.{.{.{.{.{.{.{.  = | c.n.z.e.2.2.2.2.2.o.&.a.k.w.,.,.U =   {.{.{.{.{.{.{.{.{.{.{.{.{.{.{.{.{.{.",
"{.{.{.{.{.{.{.{.{.{.{.{.{.{.{.{.{.{.{.{.{.{.{.{.  = | c.G.w.u = = = % u 2.f.7.Y 4 % = #     {.{.{.{.{.{.{.{.{.{.{.{.{.{.{.{.{.{.",
"{.{.{.{.{.{.{.{.{.{.{.{.{.{.{.{.{.{.{.{.{.{.{.{.  = U r.n.y.u 1 w e 5 p d.x.$.C 9 5 e 3 o   {.{.{.{.{.{.{.{.{.{.{.{.{.{.{.{.{.{.",
"{.{.{.{.{.{.{.{.{.{.{.{.{.{.{.{.{.{.{.{.{.{.{.{.{.{.% u y.n.e.k.R.~.J.c.m.l.$.` p.J.).b.3   {.{.{.{.{.{.{.{.{.{.{.{.{.{.{.{.{.{.",
"{.{.{.{.{.{.{.{.{.{.{.{.{.{.{.{.{.{.{.{.{.{.{.{.{.{.  - r.K.K.R.'.]._.^.J.l.$.=.J.`.].R.e   {.{.{.{.{.{.{.{.{.{.{.{.{.{.{.{.{.{.",
"{.{.{.{.{.{.{.{.{.{.{.{.{.{.{.{.{.{.{.{.{.{.{.{.{.{.  - r.K.K.L.!.~.U.P.K.l.` %.N.U.!.k.1   {.{.{.{.{.{.{.{.{.{.{.{.{.{.{.{.{.{.",
"{.{.{.{.{.{.{.{.{.{.{.{.{.{.{.{.{.{.{.{.{.{.{.{.{.{.  - ,.K.H.H.m.m.m.m.K.x.7.&.a.x.x.| -   {.{.{.{.{.{.{.{.{.{.{.{.{.{.{.{.{.{.",
"{.{.{.{.{.{.{.{.{.{.{.{.{.{.{.{.{.{.{.{.{.{.{.{.{.{.  = | v.G.H.H.B.m.K.m.m.b.a.&.&.k.,.-   {.{.{.{.{.{.{.{.{.{.{.{.{.{.{.{.{.{.",
"{.{.{.{.{.{.{.{.{.{.{.{.{.{.{.{.{.{.{.{.{.{.{.{.{.{.o 3 ( e.c.H.L.L.K.K.I.I.P.b.i.9.f.} =   {.{.{.{.{.{.{.{.{.{.{.{.{.{.{.{.{.{.",
"{.{.{.{.{.{.{.{.{.{.{.{.{.{.{.{.{.{.{.{.{.{.{.{.  o q y g / q.H.(.(.K.I.(.(.I.K.Q.T.9.M &   {.{.{.{.{.{.{.{.{.{.{.{.{.{.{.{.{.{.",
"{.{.{.{.{.{.{.{.{.{.{.{.{.{.{.{.{.{.{.{.{.{.{.{.+ : y H s G } z.!.(.!.E.W.W.R.E./.A.) < @   {.{.{.{.{.{.{.{.{.{.{.{.{.{.{.{.{.{.",
"{.{.{.{.{.{.{.{.{.{.{.{.{.{.{.{.{.{.{.{.{.{.  @ , y F G s s F  .z.P.(.W.C.C.Q./.Z.P < @ {.{.{.{.{.{.{.{.{.{.{.{.{.{.{.{.{.{.{.{.",
"{.{.{.{.{.{.{.{.{.{.{.{.{.{.{.{.{.{.{.{.{.{.  + < n B F N s y f  .z.~.Y.V.V.D.S.#.h +   {.{.{.{.{.{.{.{.{.{.{.{.{.{.{.{.{.{.{.{.",
"{.{.{.{.{.{.{.{.{.{.{.{.{.{.{.{.{.{.{.{.{.{.  @ j n n B N y s f V ' h.g.@.x V.#.S 7 @   {.{.{.{.{.{.{.{.{.{.{.{.{.{.{.{.{.{.{.{.",
"{.{.{.{.{.{.{.{.{.{.{.{.{.{.{.{.{.{.{.{.{.{.  $ B J n v b y s s y V ..o.P z z Z B q o   {.{.{.{.{.{.{.{.{.{.{.{.{.{.{.{.{.{.{.{.",
"{.{.{.{.{.{.{.{.{.{.{.{.{.{.{.{.{.{.{.{.{.{.  - 1.s.J v b s s s y s G V B B v B G r @   {.{.{.{.{.{.{.{.{.{.{.{.{.{.{.{.{.{.{.{.",
"{.{.{.{.{.{.{.{.{.{.{.{.{.{.{.{.{.{.{.{.{.{.  - 1.l.&.K N s y y s s y y b v y N G t #   {.{.{.{.{.{.{.{.{.{.{.{.{.{.{.{.{.{.{.{.",
"{.{.{.{.{.{.{.{.{.{.{.{.{.{.{.{.{.{.{.{.{.{.  $ f 5.l.j.H y y N s s y b L L B f G t o   {.{.{.{.{.{.{.{.{.{.{.{.{.{.{.{.{.{.{.{.",
"{.{.{.{.{.{.{.{.{.{.{.{.{.{.{.{.{.{.{.{.{.{.  @ r :.k.j.H y y y y s H [ +.P B F G t #   {.{.{.{.{.{.{.{.{.{.{.{.{.{.{.{.{.{.{.{.",
"{.{.{.{.{.{.{.{.{.{.{.{.{.{.{.{.{.{.{.{.{.{.  @ r H :.^ N r t r r V 2.d.f.8.^ G H t #   {.{.{.{.{.{.{.{.{.{.{.{.{.{.{.{.{.{.{.{.",
"{.{.{.{.{.{.{.{.{.{.{.{.{.{.{.{.{.{.{.{.{.{.  # r H G F y r r r r G e.b.w.1.H G H t @   {.{.{.{.{.{.{.{.{.{.{.{.{.{.{.{.{.{.{.{.",
"{.{.{.{.{.{.{.{.{.{.{.{.{.{.{.{.{.{.{.{.{.{.  # r H H F t r r r r G d.w.u 3 y H G t o   {.{.{.{.{.{.{.{.{.{.{.{.{.{.{.{.{.{.{.{.",
"{.{.{.{.{.{.{.{.{.{.{.{.{.{.{.{.{.{.{.{.{.{.  @ r G G N t r r r r d 2.( % o r H G t @   {.{.{.{.{.{.{.{.{.{.{.{.{.{.{.{.{.{.{.{.",
"{.{.{.{.{.{.{.{.{.{.{.{.{.{.{.{.{.{.{.{.{.{.  @ t H G N t r r r r t d u o o r G H r @   {.{.{.{.{.{.{.{.{.{.{.{.{.{.{.{.{.{.{.{.",
"{.{.{.{.{.{.{.{.{.{.{.{.{.{.{.{.{.{.{.{.{.{.  & g :.>.^ V N N N s N N r * 3 E 1.>.F &   {.{.{.{.{.{.{.{.{.{.{.{.{.{.{.{.{.{.{.{.",
"{.{.{.{.{.{.{.{.{.{.{.{.{.{.{.{.{.{.{.{.{.{.  - 1.B.B.k.O.] ] o.] o.] ] ! X.k.B.m.1.-   {.{.{.{.{.{.{.{.{.{.{.{.{.{.{.{.{.{.{.{.",
"{.{.{.{.{.{.{.{.{.{.{.{.{.{.{.{.{.{.{.{.{.{.  - r.K.B.M.s.*.*.*.*.*.*.*.8.u.w.e.y. .;   {.{.{.{.{.{.{.{.{.{.{.{.{.{.{.{.{.{.{.{.",
"{.{.{.{.{.{.{.{.{.{.{.{.{.{.{.{.{.{.{.{.{.{.  & Q i.s.s.8.*.8.*.o.*.*.*.9._ r 1 1 - {.{.{.{.{.{.{.{.{.{.{.{.{.{.{.{.{.{.{.{.{.{.",
"{.{.{.{.{.{.{.{.{.{.{.{.{.{.{.{.{.{.{.{.{.{.  $ 9 Y o.*.8.i.u.8.*.O.*.u.i.! %       {.{.{.{.{.{.{.{.{.{.{.{.{.{.{.{.{.{.{.{.{.{.",
"{.{.{.{.{.{.{.{.{.{.{.{.{.{.{.{.{.{.{.{.{.{.{.{.$ 2 Y *.s.s.s.s.i.i.*.i.f._ =   {.{.{.{.{.{.{.{.{.{.{.{.{.{.{.{.{.{.{.{.{.{.{.{.",
"{.{.{.{.{.{.{.{.{.{.{.{.{.{.{.{.{.{.{.{.{.{.{.{.  @ 9 ! 8.s.s.f.s.s.9.*.o.G *   {.{.{.{.{.{.{.{.{.{.{.{.{.{.{.{.{.{.{.{.{.{.{.{.",
"{.{.{.{.{.{.{.{.{.{.{.{.{.{.{.{.{.{.{.{.{.{.{.{.{.{.@ 2 ! 8.i.9.7.-.*.Y 4 & {.{.{.{.{.{.{.{.{.{.{.{.{.{.{.{.{.{.{.{.{.{.{.{.{.{.",
"{.{.{.{.{.{.{.{.{.{.{.{.{.{.{.{.{.{.{.{.{.{.{.{.{.{.  $ 9 Y o.o.o.] Y 9 $   {.{.{.{.{.{.{.{.{.{.{.{.{.{.{.{.{.{.{.{.{.{.{.{.{.{.",
"{.{.{.{.{.{.{.{.{.{.{.{.{.{.{.{.{.{.{.{.{.{.{.{.{.{.{.{.$ 3 G ;.:.F > @ {.{.{.{.{.{.{.{.{.{.{.{.{.{.{.{.{.{.{.{.{.{.{.{.{.{.{.{.",
"{.{.{.{.{.{.{.{.{.{.{.{.{.{.{.{.{.{.{.{.{.{.{.{.{.{.{.{.  o a ;.:.H 0 & {.{.{.{.{.{.{.{.{.{.{.{.{.{.{.{.{.{.{.{.{.{.{.{.{.{.{.{.",
"{.{.{.{.{.{.{.{.{.{.{.{.{.{.{.{.{.{.{.{.{.{.{.{.{.{.{.{.  o y :.4.4.>.g &   {.{.{.{.{.{.{.{.{.{.{.{.{.{.{.{.{.{.{.{.{.{.{.{.{.{.",
"{.{.{.{.{.{.{.{.{.{.{.{.{.{.{.{.{.{.{.{.{.{.{.{.{.{.{.{.  @ t H >.4.4.H &   {.{.{.{.{.{.{.{.{.{.{.{.{.{.{.{.{.{.{.{.{.{.{.{.{.{.",
"{.{.{.{.{.{.{.{.{.{.{.{.{.{.{.{.{.{.{.{.{.{.{.{.{.{.{.{.  o # ; 0 q q ; o   {.{.{.{.{.{.{.{.{.{.{.{.{.{.{.{.{.{.{.{.{.{.{.{.{.{.",
"{.{.{.{.{.{.{.{.{.{.{.{.{.{.{.{.{.{.{.{.{.{.{.{.{.{.{.{.{.{.{.{.{.{.{.{.{.{.{.{.{.{.{.{.{.{.{.{.{.{.{.{.{.{.{.{.{.{.{.{.{.{.{.{.",
"{.{.{.{.{.{.{.{.{.{.{.{.{.{.{.{.{.{.{.{.{.{.{.{.{.{.{.{.{.{.{.{.{.{.{.{.{.{.{.{.{.{.{.{.{.{.{.{.{.{.{.{.{.{.{.{.{.{.{.{.{.{.{.{.",
"{.{.{.{.{.{.{.{.{.{.{.{.{.{.{.{.{.{.{.{.{.{.{.{.{.{.{.{.{.{.{.{.{.{.{.{.{.{.{.{.{.{.{.{.{.{.{.{.{.{.{.{.{.{.{.{.{.{.{.{.{.{.{.{."
};
