/* XPM */
static char *result[] = {
/* columns rows colors chars-per-pixel */
"64 64 178 2 ",
"   c #000000",
".  c #0F0706",
"X  c #0F0806",
"o  c #0E0C0B",
"O  c #150603",
"+  c #120907",
"@  c #120C0A",
"#  c #0F120D",
"$  c #14130D",
"%  c #12180F",
"&  c #151312",
"*  c #1B1713",
"=  c #161A11",
"-  c #191C15",
";  c #1F1B1A",
":  c #22130F",
">  c #36190F",
",  c #2F1A14",
"<  c #301B14",
"1  c #1F2119",
"2  c #242317",
"3  c #24221B",
"4  c #222919",
"5  c #2C291B",
"6  c #29261D",
"7  c #342018",
"8  c #3D221A",
"9  c #2B2421",
"0  c #272820",
"q  c #2B2B23",
"w  c #312723",
"e  c #332A26",
"r  c #3C2821",
"t  c #352C29",
"y  c #3A2F2A",
"u  c #2B3324",
"i  c #353120",
"p  c #3A3127",
"a  c #333E27",
"s  c #36322B",
"d  c #3C322C",
"f  c #3D392E",
"g  c #3D3931",
"h  c #47160A",
"j  c #43251D",
"k  c #42291F",
"l  c #502215",
"z  c #5F2E1E",
"x  c #622F1F",
"c  c #6F2E1D",
"v  c #7F321C",
"b  c #442C22",
"n  c #4C2B22",
"m  c #412F29",
"M  c #532E24",
"N  c #453527",
"B  c #463827",
"V  c #43352B",
"C  c #4C332B",
"Z  c #443D2E",
"A  c #4A382B",
"S  c #4C3424",
"D  c #553126",
"F  c #553629",
"G  c #593629",
"H  c #523A2F",
"J  c #5B3B2C",
"K  c #423631",
"L  c #433B33",
"P  c #493B35",
"I  c #453D39",
"U  c #483D38",
"Y  c #523B31",
"T  c #5B3F31",
"R  c #632F21",
"E  c #6C3B26",
"W  c #663725",
"Q  c #39442D",
"!  c #37442C",
"~  c #4D422F",
"^  c #42412B",
"/  c #56412E",
"(  c #5B412F",
")  c #464036",
"_  c #4B4434",
"`  c #454D33",
"'  c #4F4832",
"]  c #4C4D3C",
"[  c #5C4531",
"{  c #564E37",
"}  c #5E4A34",
"|  c #554D3A",
" . c #554734",
".. c #465537",
"X. c #4C5136",
"o. c #475639",
"O. c #4C543B",
"+. c #4C5B3D",
"@. c #5C543A",
"#. c #5D5B3D",
"$. c #794026",
"%. c #604C37",
"&. c #614C39",
"*. c #61553E",
"=. c #635B3E",
"-. c #655337",
";. c #50613F",
":. c #656E3E",
">. c #4E4540",
",. c #534B44",
"<. c #574D49",
"1. c #4E5B41",
"2. c #545343",
"3. c #535C45",
"4. c #5E534E",
"5. c #5E5C49",
"6. c #645540",
"7. c #645D41",
"8. c #6E5D45",
"9. c #605550",
"0. c #5E6744",
"q. c #5E6A46",
"w. c #5B644C",
"e. c #5C6B4B",
"r. c #556347",
"t. c #5F724A",
"y. c #666244",
"u. c #6A6246",
"i. c #616A47",
"p. c #66634B",
"a. c #6C664B",
"s. c #636C4B",
"d. c #6D694D",
"f. c #736E49",
"g. c #62744E",
"h. c #616651",
"j. c #646D53",
"k. c #6A6E53",
"l. c #647652",
"z. c #6B7355",
"x. c #667953",
"c. c #697B56",
"v. c #6E755C",
"b. c #6D7D5C",
"n. c #737656",
"m. c #717B60",
"M. c #83432A",
"N. c #895E41",
"B. c #8C6344",
"V. c #8B7555",
"C. c #947554",
"Z. c #6B814C",
"A. c #6F815D",
"S. c #70815E",
"D. c #788854",
"F. c #738362",
"G. c #788765",
"H. c #778B60",
"J. c #7A8A65",
"K. c #7D9266",
"L. c #8E825D",
"P. c #888261",
"I. c #838B6B",
"U. c #878D69",
"Y. c #938B67",
"T. c #928E69",
"R. c #83916B",
"E. c #88916D",
"W. c #839C60",
"Q. c #96916B",
"!. c #8E9A73",
"~. c #8B9470",
"^. c #94AB6E",
"/. c #96AF71",
"(. c #A2AC88",
"). c #A8B588",
"_. c #AAB88A",
"`. c None",
/* pixels */
"`.`.`.`.`.`.`.`.`.`.`.`.`.`.`.`.`.`.`.`.`.`.`.`.`.`.`.`.`.`.`.`.`.`.`.`.`.`.`.`.`.`.`.`.`.`.`.`.`.`.`.`.`.`.`.`.`.`.`.`.`.`.`.`.",
"`.`.`.`.`.`.`.`.`.`.`.`.`.`.`.`.`.`.`.`.`.`.`.`.`.`.`.`.`.`.`.`.`.`.`.`.`.`.`.`.`.`.`.`.`.`.`.`.`.`.`.`.`.`.`.`.`.`.`.`.`.`.`.`.",
"`.`.`.`.`.`.`.`.`.`.`.`.`.`.`.`.`.`.`.`.`.`.`.`.`.`.`.`.`.`.`.`.`.`.`.`.`.`.`.`.`.`.`.`.`.`.`.`.`.`.`.`.`.`.`.`.`.`.`.`.`.`.`.`.",
"`.`.`.`.`.`.`.`.`.`.`.`.`.`.`.`.`.`.`.`.`.`.`.`.`.`.`.`.`.`.`.`.`.`.`.`.`.`.`.`.`.`.`.`.`.`.`.`.`.`.`.`.`.`.`.`.`.`.`.`.`.`.`.`.",
"`.`.`.`.`.`.`.`.`.`.`.`.`.`.`.`.`.`.`.`.`.`.`.`.`.`.`.`.`.`.`.`.`.`.`.`.`.`.`.`.`.`.`.`.`.`.`.`.`.`.`.`.`.`.`.`.`.`.`.`.`.`.`.`.",
"`.`.`.`.`.`.`.`.`.`.`.`.`.`.`.`.`.`.`.`.`.`.`.`.`.`.`.`.`.`.`.`.`.`.`.`.`.`.`.`.`.`.`.`.`.`.`.`.`.`.`.`.`.`.`.`.`.`.`.`.`.`.`.`.",
"`.`.`.`.`.`.`.`.`.`.`.`.`.`.`.`.`.`.`.`.`.`.`.`.`.`.`.`.`.`.`.`.`.`.`.`.`.`.`.`.`.`.`.`.`.`.`.`.`.`.`.`.`.`.`.`.`.`.`.`.`.`.`.`.",
"`.`.`.`.`.`.`.`.`.`.`.`.`.`.`.`.`.`.`.`.`.`.`.`.`.`.`.`.`.`.`.`.`.`.`.`.`.`.`.`.`.`.`.`.`.`.`.`.`.`.`.`.`.`.`.`.`.`.`.`.`.`.`.`.",
"`.`.`.`.`.`.`.`.`.`.`.`.`.`.`.`.`.`.`.`.`.`.`.`.`.`.`.`.`.`.`.`.`.`.`.`.`.`.`.`.`.`.`.`.`.`.`.`.`.`.`.`.`.`.`.`.`.`.`.`.`.`.`.`.",
"`.`.`.`.`.`.`.`.`.`.`.`.`.`.`.`.`.`.`.`.`.`.`.`.`.`.`.`.`.`.`.`.`.`.`.`.`.`.`.`.`.`.`.`.`.`.`.`.`.`.`.`.`.`.`.`.`.`.`.`.`.`.`.`.",
"`.`.`.`.`.`.`.`.`.`.`.`.`.`.`.`.`.`.`.`.`.`.`.`.`.`.`.`.`.`.`.`.`.`.`.`.`.`.`.`.`.`.`.`.`.`.`.`.`.`.`.`.`.`.`.`.`.`.`.`.`.`.`.`.",
"`.`.`.`.`.`.`.`.`.`.`.`.`.`.`.`.`.`.`.`.`.`.`.`.`.`.`.`.`.`.`.`.`.`.`.`.`.`.`.`.`.`.`.`.`.`.`.`.`.`.`.`.`.`.`.`.`.`.`.`.`.`.`.`.",
"`.`.`.`.`.`.`.`.`.`.`.`.`.`.`.`.`.`.`.`.`.`.`.`.`.`.`.`.`.`.`.`.                    `.`.`.`.`.`.`.`.`.`.`.`.`.`.`.`.`.`.`.`.`.`.",
"`.`.`.`.`.`.`.`.`.`.`.`.`.`.`.`.`.`.`.`.`.`.`.`.`.`.`.`.`.`.`.`.= = $ @ @ @ + O @ + `.`.`.`.`.`.`.`.`.`.`.`.`.`.`.`.`.`.`.`.`.`.",
"`.`.`.`.`.`.`.`.`.`.`.`.`.`.`.`.`.`.`.`.`.`.`.`.`.`.`.`.`.`.  = ! ` B k j 8 8 8 8 < +   `.`.`.`.`.`.`.`.`.`.`.`.`.`.`.`.`.`.`.`.",
"`.`.`.`.`.`.`.`.`.`.`.`.`.`.`.`.`.`.`.`.`.`.`.`.`.`.`.`.`.`.X , X.y.} G D M M M D b 2 % `.`.`.`.`.`.`.`.`.`.`.`.`.`.`.`.`.`.`.`.",
"`.`.`.`.`.`.`.`.`.`.`.`.`.`.`.`.`.`.`.`.`.`.`.`.`.`.`.`.  + < b / [ ( G D M M D G / X.! %   `.`.`.`.`.`.`.`.`.`.`.`.`.`.`.`.`.`.",
"`.`.`.`.`.`.`.`.`.`.`.`.`.`.`.`.`.`.`.`.`.`.`.`.`.`.`.`.+ : k D G ( } ( D M n M G } i.+.u % `.`.`.`.`.`.`.`.`.`.`.`.`.`.`.`.`.`.",
"`.`.`.`.`.`.`.`.`.`.`.`.`.`.`.`.`.`.`.`.`.`.`.`.`.`.  + < j n D G ( ;.=.( G D D G } 0.t.+.! =   `.`.`.`.`.`.`.`.`.`.`.`.`.`.`.`.",
"`.`.`.`.`.`.`.`.`.`.`.`.`.`.`.`.`.`.`.`.`.`.`.`.`.`.  @ 8 D M F ( *.q.0.} F D F ( @.q.g.g...=   `.`.`.`.`.`.`.`.`.`.`.`.`.`.`.`.",
"`.`.`.`.`.`.`.`.`.`.`.`.`.`.`.`.`.`.`.`.`.`.`.`.`.`.  O 8 M G [ #.q.t.;.} F G [ ;.s.g.g.g...=   `.`.`.`.`.`.`.`.`.`.`.`.`.`.`.`.",
"`.`.`.`.`.`.`.`.`.`.`.`.`.`.`.`.`.`.`.`.`.`.`.`.`.`.  @ 8 F [ @.i.g.g.s.6.[ J &.d.c.g.g.g...1   `.`.`.`.`.`.`.`.`.`.`.`.`.`.`.`.",
"`.`.`.`.`.`.`.`.`.`.`.`.`.`.`.`.`.`.`.`.`.`.`.`.`.`.  O k [ #.q.g.x.x.x.z.y.} } k.b.x.g.g...=   `.`.`.`.`.`.`.`.`.`.`.`.`.`.`.`.",
"`.`.`.`.`.`.`.`.`.`.`.`.`.`.`.`.`.`.`.`.`.`.`.`.`.`.  $ N *.q.l.c.c.c.A.F.z.%.} k.F.A.c.x.o.=   `.`.`.`.`.`.`.`.`.`.`.`.`.`.`.`.",
"`.`.`.`.`.`.`.`.`.`.`.`.`.`.`.`.`.`.`.`.`.`.`.`.`.`.  = ` q.g.c.b.S.F.F.F.z.} } k.F.S.A.b.+.-   `.`.`.`.`.`.`.`.`.`.`.`.`.`.`.`.",
"`.`.`.`.`.`.`.`.`.`.`.`.`.`.`.`.`.`.`.`.`.`.`.`.`.`.  = o.x.c.l.q.3.3.3.3.3.@.6.a.j.w.3.1.! =   `.`.`.`.`.`.`.`.`.`.`.`.`.`.`.`.",
"`.`.`.`.`.`.`.`.`.`.`.`.`.`.`.`.`.`.`.`.`.`.`.`.`.`.  = o.x.b.e.u - = = - q 3.k.=./ 6 - = #     `.`.`.`.`.`.`.`.`.`.`.`.`.`.`.`.",
"`.`.`.`.`.`.`.`.`.`.`.`.`.`.`.`.`.`.`.`.`.`.`.`.`.`.  = ! r.c.w.u ; 0 q 4 a e.z.&.S 5 4 q 3 o   `.`.`.`.`.`.`.`.`.`.`.`.`.`.`.`.",
"`.`.`.`.`.`.`.`.`.`.`.`.`.`.`.`.`.`.`.`.`.`.`.`.`.`.`.`.% u e.b.w.j.I.E.D.x.A.z.&.[ :.D.~.v.3   `.`.`.`.`.`.`.`.`.`.`.`.`.`.`.`.",
"`.`.`.`.`.`.`.`.`.`.`.`.`.`.`.`.`.`.`.`.`.`.`.`.`.`.`.`.  - 3.F.F.I.(._.^.W.D.d.} -.D./.).I.q   `.`.`.`.`.`.`.`.`.`.`.`.`.`.`.`.",
"`.`.`.`.`.`.`.`.`.`.`.`.`.`.`.`.`.`.`.`.`.`.`.`.`.`.`.`.  - r.F.F.G.K.R.J.H.F.z.%.%.z.K.I.h.2   `.`.`.`.`.`.`.`.`.`.`.`.`.`.`.`.",
"`.`.`.`.`.`.`.`.`.`.`.`.`.`.`.`.`.`.`.`.`.`.`.`.`.`.`.`.  - 3.A.F.m.A.b.A.F.F.z.7.*.p.z.x.1.-   `.`.`.`.`.`.`.`.`.`.`.`.`.`.`.`.",
"`.`.`.`.`.`.`.`.`.`.`.`.`.`.`.`.`.`.`.`.`.`.`.`.`.`.      = +.c.A.A.A.b.b.F.b.b.z.p.*.*.d.1.-   `.`.`.`.`.`.`.`.`.`.`.`.`.`.`.`.",
"`.`.`.`.`.`.`.`.`.`.`.`.`.`.`.`.`.`.`.`.`.`.`.`.`.`.o o o 1 ` q.x.F.J.J.F.F.G.G.F.z.a.8.s.] *   `.`.`.`.`.`.`.`.`.`.`.`.`.`.`.`.",
"`.`.`.`.`.`.`.`.`.`.`.`.`.`.`.`.`.`.`.`.`.`.`.`.  o 9 e 9 e f ] w.A.~.!.G.G.!.!.J.G.E.P.8.B $   `.`.`.`.`.`.`.`.`.`.`.`.`.`.`.`.",
"`.`.`.`.`.`.`.`.`.`.`.`.`.`.`.`.`.`.`.`.`.`.`.`.+ * d L K d y I 1.j.R.!.R.I.Y.T.I.U.Q.V.[ < @   `.`.`.`.`.`.`.`.`.`.`.`.`.`.`.`.",
"`.`.`.`.`.`.`.`.`.`.`.`.`.`.`.`.`.`.`.`.`.`.  + < b K K d d y d L ] s.J.!.Y.N.B.Q.Q.B.E , @ `.`.`.`.`.`.`.`.`.`.`.`.`.`.`.`.`.`.",
"`.`.`.`.`.`.`.`.`.`.`.`.`.`.`.`.`.`.`.`.`.`.  + 8 M H K V y d y p Z O.l.R.L.M.M.C.C.E h O   `.`.`.`.`.`.`.`.`.`.`.`.`.`.`.`.`.`.",
"`.`.`.`.`.`.`.`.`.`.`.`.`.`.`.`.`.`.`.`.`.`.  + > M M m V y d d d d Z O.l.f.E v M.E > O `.`.`.`.`.`.`.`.`.`.`.`.`.`.`.`.`.`.`.`.",
"`.`.`.`.`.`.`.`.`.`.`.`.`.`.`.`.`.`.`.`.`.`.  & C T F n m d d y d y d Z O.@.E c c l O   `.`.`.`.`.`.`.`.`.`.`.`.`.`.`.`.`.`.`.`.",
"`.`.`.`.`.`.`.`.`.`.`.`.`.`.`.`.`.`.`.`.`.`.  ; 2.p.T n m d d d d d y d f Z A C F r @   `.`.`.`.`.`.`.`.`.`.`.`.`.`.`.`.`.`.`.`.",
"`.`.`.`.`.`.`.`.`.`.`.`.`.`.`.`.`.`.`.`.`.`.  - 3.k.6.Y K d d d d d d K I I f d L e #   `.`.`.`.`.`.`.`.`.`.`.`.`.`.`.`.`.`.`.`.",
"`.`.`.`.`.`.`.`.`.`.`.`.`.`.`.`.`.`.`.`.`.`.  & g 5.k.p.) d y d d d y I 5.w.) d L t o   `.`.`.`.`.`.`.`.`.`.`.`.`.`.`.`.`.`.`.`.",
"`.`.`.`.`.`.`.`.`.`.`.`.`.`.`.`.`.`.`.`.`.`.o * t >.h.w.I y y y p d I ] h.w.) d y 9 #   `.`.`.`.`.`.`.`.`.`.`.`.`.`.`.`.`.`.`.`.",
"`.`.`.`.`.`.`.`.`.`.`.`.`.`.`.`.`.`.`.`.  o 9 s K I I L s t t t e Z 5.w.] L L t * o `.`.`.`.`.`.`.`.`.`.`.`.`.`.`.`.`.`.`.`.`.`.",
"`.`.`.`.`.`.`.`.`.`.`.`.`.`.`.`.`.`.`.`.  @ t U U d t w w w w e 9 f 3.2.A b K t o   `.`.`.`.`.`.`.`.`.`.`.`.`.`.`.`.`.`.`.`.`.`.",
"`.`.`.`.`.`.`.`.`.`.`.`.`.`.`.`.`.`.`.`.  # t U U K s 7 w 5 9 7 9 e s N z R H e o   `.`.`.`.`.`.`.`.`.`.`.`.`.`.`.`.`.`.`.`.`.`.",
"`.`.`.`.`.`.`.`.`.`.`.`.`.`.`.`.`.`.`.`.  @ t L L K Z d d p p p p p p N x R Y e &   `.`.`.`.`.`.`.`.`.`.`.`.`.`.`.`.`.`.`.`.`.`.",
"`.`.`.`.`.`.`.`.`.`.`.`.`.`.`.`.`.`.`.`.  @ e L K U | { @.{ } { { { {  .Y H L e @   `.`.`.`.`.`.`.`.`.`.`.`.`.`.`.`.`.`.`.`.`.`.",
"`.`.`.`.`.`.`.`.`.`.`.`.`.`.`.`.`.`.`.`.  = g ,.,.2.7.7.=.u.=.=.=.=.=.7.2.,.<.g =   `.`.`.`.`.`.`.`.`.`.`.`.`.`.`.`.`.`.`.`.`.`.",
"`.`.`.`.`.`.`.`.`.`.`.`.`.`.`.`.`.`.`.`.  - 3.m.v.k.u.7.=.=.7.=.@.*.=.u.j.v.m.2.=   `.`.`.`.`.`.`.`.`.`.`.`.`.`.`.`.`.`.`.`.`.`.",
"`.`.`.`.`.`.`.`.`.`.`.`.`.`.`.`.`.`.`.`.  - r.F.F.b.u.=.7.7.u.7.=.=.=.a.b.m.j.o.-   `.`.`.`.`.`.`.`.`.`.`.`.`.`.`.`.`.`.`.`.`.`.",
"`.`.`.`.`.`.`.`.`.`.`.`.`.`.`.`.`.`.`.`.  % o.x.c.g.=.=.u.a.d.a.a.u.y.u.n.5.s - `.`.`.`.`.`.`.`.`.`.`.`.`.`.`.`.`.`.`.`.`.`.`.`.",
"`.`.`.`.`.`.`.`.`.`.`.`.`.`.`.`.`.`.`.`.  1 o.t.+.` ^ ' 7.a.a.a.a.7.{ ' | Z %   `.`.`.`.`.`.`.`.`.`.`.`.`.`.`.`.`.`.`.`.`.`.`.`.",
"`.`.`.`.`.`.`.`.`.`.`.`.`.`.`.`.`.`.`.`.  1 o.r.u % $ 2 ' 7.y.u.u.{ 5 % * & `.`.`.`.`.`.`.`.`.`.`.`.`.`.`.`.`.`.`.`.`.`.`.`.`.`.",
"`.`.`.`.`.`.`.`.`.`.`.`.`.`.`.`.`.`.`.`.  % Q Q %     $ i ~ @.@.*.Z $       `.`.`.`.`.`.`.`.`.`.`.`.`.`.`.`.`.`.`.`.`.`.`.`.`.`.",
"`.`.`.`.`.`.`.`.`.`.`.`.`.`.`.`.`.`.`.`.`.`.= = `.`.`.`.@ 3 L >.| d o   `.`.`.`.`.`.`.`.`.`.`.`.`.`.`.`.`.`.`.`.`.`.`.`.`.`.`.`.",
"`.`.`.`.`.`.`.`.`.`.`.`.`.`.`.`.`.`.`.`.`.`.    `.`.`.`.  o y >.,.I 9 & `.`.`.`.`.`.`.`.`.`.`.`.`.`.`.`.`.`.`.`.`.`.`.`.`.`.`.`.",
"`.`.`.`.`.`.`.`.`.`.`.`.`.`.`.`.`.`.`.`.`.`.`.`.`.`.`.`.  # s ,.4.4.<.I &   `.`.`.`.`.`.`.`.`.`.`.`.`.`.`.`.`.`.`.`.`.`.`.`.`.`.",
"`.`.`.`.`.`.`.`.`.`.`.`.`.`.`.`.`.`.`.`.`.`.`.`.`.`.`.`.  o e I ,.4.4.I &   `.`.`.`.`.`.`.`.`.`.`.`.`.`.`.`.`.`.`.`.`.`.`.`.`.`.",
"`.`.`.`.`.`.`.`.`.`.`.`.`.`.`.`.`.`.`.`.`.`.`.`.`.`.`.`.  . & ; 9 9 9 ; o   `.`.`.`.`.`.`.`.`.`.`.`.`.`.`.`.`.`.`.`.`.`.`.`.`.`.",
"`.`.`.`.`.`.`.`.`.`.`.`.`.`.`.`.`.`.`.`.`.`.`.`.`.`.`.`.`.`.`.`.`.`.`.`.`.`.`.`.`.`.`.`.`.`.`.`.`.`.`.`.`.`.`.`.`.`.`.`.`.`.`.`.",
"`.`.`.`.`.`.`.`.`.`.`.`.`.`.`.`.`.`.`.`.`.`.`.`.`.`.`.`.`.`.`.`.`.`.`.`.`.`.`.`.`.`.`.`.`.`.`.`.`.`.`.`.`.`.`.`.`.`.`.`.`.`.`.`.",
"`.`.`.`.`.`.`.`.`.`.`.`.`.`.`.`.`.`.`.`.`.`.`.`.`.`.`.`.`.`.`.`.`.`.`.`.`.`.`.`.`.`.`.`.`.`.`.`.`.`.`.`.`.`.`.`.`.`.`.`.`.`.`.`."
};
