/* XPM */
static char *result[] = {
/* columns rows colors chars-per-pixel */
"64 64 189 2 ",
"   c #000000",
".  c #0F0706",
"X  c #0F0806",
"o  c #0E0C0B",
"O  c #140604",
"+  c #180602",
"@  c #120907",
"#  c #120D0A",
"$  c #0F120D",
"%  c #14130D",
"&  c #12180F",
"*  c #141512",
"=  c #161A12",
"-  c #191B15",
";  c #1D1C19",
":  c #191513",
">  c #22130F",
",  c #281711",
"<  c #211D16",
"1  c #2F1A14",
"2  c #301B14",
"3  c #1E211A",
"4  c #242317",
"5  c #25241C",
"6  c #28281A",
"7  c #312016",
"8  c #352118",
"9  c #3D221A",
"0  c #342F1F",
"q  c #2B2421",
"w  c #272820",
"e  c #2B2B23",
"r  c #262321",
"t  c #302622",
"y  c #332A25",
"u  c #342C28",
"i  c #392E2A",
"p  c #3B2721",
"a  c #2C3324",
"s  c #2F3628",
"d  c #363121",
"f  c #3A3226",
"g  c #35322C",
"h  c #3C322C",
"j  c #3D392E",
"k  c #333E27",
"l  c #3F3530",
"z  c #3E3A32",
"x  c #48170B",
"c  c #4F1F13",
"v  c #43251D",
"b  c #42291F",
"n  c #5E2D1B",
"m  c #60301D",
"M  c #70301E",
"N  c #7E301A",
"B  c #452C21",
"V  c #4C2B22",
"C  c #412F29",
"Z  c #522E24",
"A  c #463827",
"S  c #44352B",
"D  c #4B332B",
"F  c #453E2B",
"G  c #493525",
"H  c #553126",
"J  c #563629",
"K  c #593629",
"L  c #5B3A2B",
"P  c #423631",
"I  c #443B34",
"U  c #493B35",
"Y  c #453D39",
"T  c #493D38",
"R  c #553F31",
"E  c #5A3E30",
"W  c #603C2F",
"Q  c #663624",
"!  c #783F25",
"~  c #763B25",
"^  c #38442D",
"/  c #37442C",
"(  c #3B4432",
")  c #4C432F",
"_  c #56412E",
"`  c #5B412F",
"'  c #434030",
"]  c #4D4731",
"[  c #474D33",
"{  c #4D443C",
"}  c #444D3A",
"|  c #4C4D39",
" . c #4E4832",
".. c #5C4431",
"X. c #524C36",
"o. c #5E4A34",
"O. c #554D3A",
"+. c #5D4E3C",
"@. c #465537",
"#. c #4C5136",
"$. c #475738",
"%. c #4C543C",
"&. c #4D5C3E",
"*. c #5D543B",
"=. c #5D5B3D",
"-. c #76442A",
";. c #604C37",
":. c #614C39",
">. c #7A4730",
",. c #704A30",
"<. c #7B4831",
"1. c #665237",
"2. c #61543D",
"3. c #6D573B",
"4. c #635B3E",
"5. c #656E3E",
"6. c #4F4540",
"7. c #524B43",
"8. c #564D49",
"9. c #4E5B41",
"0. c #495340",
"q. c #555143",
"w. c #535B45",
"e. c #5E534E",
"r. c #5F5550",
"t. c #665740",
"y. c #645D42",
"u. c #6B5E44",
"i. c #556345",
"p. c #5E6744",
"a. c #5E6A46",
"s. c #556249",
"d. c #5B644B",
"f. c #5C6A4C",
"g. c #5F724A",
"h. c #5D6951",
"j. c #646143",
"k. c #696145",
"l. c #616A47",
"z. c #67634A",
"x. c #6C654B",
"c. c #636C4B",
"v. c #6C694C",
"b. c #736D48",
"n. c #62744E",
"m. c #666650",
"M. c #646C52",
"N. c #6A6F53",
"B. c #726F54",
"V. c #657552",
"C. c #6B7355",
"Z. c #667A53",
"A. c #697A56",
"S. c #6C745B",
"D. c #6D7D5C",
"F. c #737957",
"G. c #727B61",
"H. c #813F27",
"J. c #82432A",
"K. c #895E41",
"L. c #8B6244",
"P. c #877657",
"I. c #927857",
"U. c #937553",
"Y. c #6B814C",
"T. c #6F815D",
"R. c #71815E",
"E. c #788854",
"W. c #738361",
"Q. c #788765",
"!. c #778B60",
"~. c #7A8A65",
"^. c #7D9266",
"/. c #8E815C",
"(. c #838B6B",
"). c #878966",
"_. c #938B67",
"`. c #948F69",
"'. c #83916B",
"]. c #869767",
"[. c #95906B",
"{. c #8E9A73",
"}. c #8B9470",
"|. c #94AB6E",
" X c #96AF71",
".X c #A2AC88",
"XX c #A8B588",
"oX c #AAB88A",
"OX c None",
/* pixels */
"OXOXOXOXOXOXOXOXOXOXOXOXOXOXOXOXOXOXOXOXOXOXOXOXOXOXOXOXOXOXOXOXOXOXOXOXOXOXOXOXOXOXOXOXOXOXOXOXOXOXOXOXOXOXOXOXOXOXOXOXOXOXOXOX",
"OXOXOXOXOXOXOXOXOXOXOXOXOXOXOXOXOXOXOXOXOXOXOXOXOXOXOXOXOXOXOXOXOXOXOXOXOXOXOXOXOXOXOXOXOXOXOXOXOXOXOXOXOXOXOXOXOXOXOXOXOXOXOXOX",
"OXOXOXOXOXOXOXOXOXOXOXOXOXOXOXOXOXOXOXOXOXOXOXOXOXOXOXOXOXOXOXOXOXOXOXOXOXOXOXOXOXOXOXOXOXOXOXOXOXOXOXOXOXOXOXOXOXOXOXOXOXOXOXOX",
"OXOXOXOXOXOXOXOXOXOXOXOXOXOXOXOXOXOXOXOXOXOXOXOXOXOXOXOXOXOXOXOXOXOXOXOXOXOXOXOXOXOXOXOXOXOXOXOXOXOXOXOXOXOXOXOXOXOXOXOXOXOXOXOX",
"OXOXOXOXOXOXOXOXOXOXOXOXOXOXOXOXOXOXOXOXOXOXOXOXOXOXOXOXOXOXOXOXOXOXOXOXOXOXOXOXOXOXOXOXOXOXOXOXOXOXOXOXOXOXOXOXOXOXOXOXOXOXOXOX",
"OXOXOXOXOXOXOXOXOXOXOXOXOXOXOXOXOXOXOXOXOXOXOXOXOXOXOXOXOXOXOXOXOXOXOXOXOXOXOXOXOXOXOXOXOXOXOXOXOXOXOXOXOXOXOXOXOXOXOXOXOXOXOXOX",
"OXOXOXOXOXOXOXOXOXOXOXOXOXOXOXOXOXOXOXOXOXOXOXOXOXOXOXOXOXOXOXOXOXOXOXOXOXOXOXOXOXOXOXOXOXOXOXOXOXOXOXOXOXOXOXOXOXOXOXOXOXOXOXOX",
"OXOXOXOXOXOXOXOXOXOXOXOXOXOXOXOXOXOXOXOXOXOXOXOXOXOXOXOXOXOXOXOXOXOXOXOXOXOXOXOXOXOXOXOXOXOXOXOXOXOXOXOXOXOXOXOXOXOXOXOXOXOXOXOX",
"OXOXOXOXOXOXOXOXOXOXOXOXOXOXOXOXOXOXOXOXOXOXOXOXOXOXOXOXOXOXOXOXOXOXOXOXOXOXOXOXOXOXOXOXOXOXOXOXOXOXOXOXOXOXOXOXOXOXOXOXOXOXOXOX",
"OXOXOXOXOXOXOXOXOXOXOXOXOXOXOXOXOXOXOXOXOXOXOXOXOXOXOXOXOXOXOXOXOXOXOXOXOXOXOXOXOXOXOXOXOXOXOXOXOXOXOXOXOXOXOXOXOXOXOXOXOXOXOXOX",
"OXOXOXOXOXOXOXOXOXOXOXOXOXOXOXOXOXOXOXOXOXOXOXOXOXOXOXOXOXOXOXOXOXOXOXOXOXOXOXOXOXOXOXOXOXOXOXOXOXOXOXOXOXOXOXOXOXOXOXOXOXOXOXOX",
"OXOXOXOXOXOXOXOXOXOXOXOXOXOXOXOXOXOXOXOXOXOXOXOXOXOXOXOXOXOXOXOXOXOXOXOXOXOXOXOXOXOXOXOXOXOXOXOXOXOXOXOXOXOXOXOXOXOXOXOXOXOXOXOX",
"OXOXOXOXOXOXOXOXOXOXOXOXOXOXOXOXOXOXOXOXOXOXOXOXOXOXOXOXOXOXOXOX                    OXOXOXOXOXOXOXOXOXOXOXOXOXOXOXOXOXOXOXOXOXOX",
"OXOXOXOXOXOXOXOXOXOXOXOXOXOXOXOXOXOXOXOXOXOXOXOXOXOXOXOXOXOXOXOX= = % # @ # @ @ @ @ OXOXOXOXOXOXOXOXOXOXOXOXOXOXOXOXOXOXOXOXOXOX",
"OXOXOXOXOXOXOXOXOXOXOXOXOXOXOXOXOXOXOXOXOXOXOXOXOXOXOXOXOXOX  * / [ A b v 9 9 v 9 2 .   OXOXOXOXOXOXOXOXOXOXOXOXOXOXOXOXOXOXOXOX",
"OXOXOXOXOXOXOXOXOXOXOXOXOXOXOXOXOXOXOXOXOXOXOXOXOXOXOXOXOXOX@ 4 #.j.o.K H Z Z Z H B 4 * OXOXOXOXOXOXOXOXOXOXOXOXOXOXOXOXOXOXOXOX",
"OXOXOXOXOXOXOXOXOXOXOXOXOXOXOXOXOXOXOXOXOXOXOXOXOXOXOXOX  @ 2 B _ o.` L H Z Z H K _ #./ &   OXOXOXOXOXOXOXOXOXOXOXOXOXOXOXOXOXOX",
"OXOXOXOXOXOXOXOXOXOXOXOXOXOXOXOXOXOXOXOXOXOXOXOXOXOXOXOX@ > v H K _ ..` J Z V Z K o.a.&.a & OXOXOXOXOXOXOXOXOXOXOXOXOXOXOXOXOXOX",
"OXOXOXOXOXOXOXOXOXOXOXOXOXOXOXOXOXOXOXOXOXOXOXOXOXOX  @ 2 v V H K ` =.=.` J Z H K o.a.g.&./ =   OXOXOXOXOXOXOXOXOXOXOXOXOXOXOXOX",
"OXOXOXOXOXOXOXOXOXOXOXOXOXOXOXOXOXOXOXOXOXOXOXOXOXOX  # 9 H Z J ` *.a.p.o.K H J ` *.a.g.n.$.=   OXOXOXOXOXOXOXOXOXOXOXOXOXOXOXOX",
"OXOXOXOXOXOXOXOXOXOXOXOXOXOXOXOXOXOXOXOXOXOXOXOXOXOX  @ 9 H J ` =.a.g.p.o.K K ..5.f.g.g.n.$.=   OXOXOXOXOXOXOXOXOXOXOXOXOXOXOXOX",
"OXOXOXOXOXOXOXOXOXOXOXOXOXOXOXOXOXOXOXOXOXOXOXOXOXOX  @ 9 J ` *.l.n.g.a.2...L +.z.A.n.n.n.$.&   OXOXOXOXOXOXOXOXOXOXOXOXOXOXOXOX",
"OXOXOXOXOXOXOXOXOXOXOXOXOXOXOXOXOXOXOXOXOXOXOXOXOXOX  @ b ` =.a.n.Z.Z.Z.C.z.o.o.N.D.A.V.n.$.=   OXOXOXOXOXOXOXOXOXOXOXOXOXOXOXOX",
"OXOXOXOXOXOXOXOXOXOXOXOXOXOXOXOXOXOXOXOXOXOXOXOXOXOX  % A 2.a.V.A.D.A.D.W.C.o.o.C.W.D.A.Z.$.=   OXOXOXOXOXOXOXOXOXOXOXOXOXOXOXOX",
"OXOXOXOXOXOXOXOXOXOXOXOXOXOXOXOXOXOXOXOXOXOXOXOXOXOX  = [ a.V.A.D.R.R.W.W.C.o.o.N.W.W.R.D.&.-   OXOXOXOXOXOXOXOXOXOXOXOXOXOXOXOX",
"OXOXOXOXOXOXOXOXOXOXOXOXOXOXOXOXOXOXOXOXOXOXOXOXOXOX  = $.Z.A.V.d.w.w.i.s.w.+.t.v.m.s.w.9.^ *   OXOXOXOXOXOXOXOXOXOXOXOXOXOXOXOX",
"OXOXOXOXOXOXOXOXOXOXOXOXOXOXOXOXOXOXOXOXOXOXOXOXOXOX  = $.Z.T.d.a = = = * a w.v.t.] 6 = = $     OXOXOXOXOXOXOXOXOXOXOXOXOXOXOXOX",
"OXOXOXOXOXOXOXOXOXOXOXOXOXOXOXOXOXOXOXOXOXOXOXOXOXOX  & / i.A.h.a 3 w e 4 / h.C.1.G 6 6 e 5 o   OXOXOXOXOXOXOXOXOXOXOXOXOXOXOXOX",
"OXOXOXOXOXOXOXOXOXOXOXOXOXOXOXOXOXOXOXOXOXOXOXOXOXOXOXOX& a f.A.h.M.(.}.E.Y.E.V.;.o.5.E.}.S.5   OXOXOXOXOXOXOXOXOXOXOXOXOXOXOXOX",
"OXOXOXOXOXOXOXOXOXOXOXOXOXOXOXOXOXOXOXOXOXOXOXOXOXOXOXOX  - i.W.R.(..XXX|.^.R.N.o.1.E. XXX(.e   OXOXOXOXOXOXOXOXOXOXOXOXOXOXOXOX",
"OXOXOXOXOXOXOXOXOXOXOXOXOXOXOXOXOXOXOXOXOXOXOXOXOXOX      - s.W.W.Q.'.'.^.!.!.N.o.;.F.~.(.h.3   OXOXOXOXOXOXOXOXOXOXOXOXOXOXOXOX",
"OXOXOXOXOXOXOXOXOXOXOXOXOXOXOXOXOXOXOXOXOXOXOXOXOXOX# o o 5 s.T.W.D.D.D.R.G.D.A.t.2.z.C.A.9.-   OXOXOXOXOXOXOXOXOXOXOXOXOXOXOXOX",
"OXOXOXOXOXOXOXOXOXOXOXOXOXOXOXOXOXOXOXOXOXOXOXOX  # q y t j s.A.D.R.D.D.W.D.G.D.C.v.:.2.m.9.-   OXOXOXOXOXOXOXOXOXOXOXOXOXOXOXOX",
"OXOXOXOXOXOXOXOXOXOXOXOXOXOXOXOXOXOXOXOXOXOXOXOX  $ u I S ' %.f.A.R.Q.Q.W.W.~.~.W.S.x.u.v.#.-   OXOXOXOXOXOXOXOXOXOXOXOXOXOXOXOX",
"OXOXOXOXOXOXOXOXOXOXOXOXOXOXOXOXOXOXOXOXOXOXOXOX  $ u U I I I | d.T.}.{.Q.Q.{.{.~.Q._.).u.S %   OXOXOXOXOXOXOXOXOXOXOXOXOXOXOXOX",
"OXOXOXOXOXOXOXOXOXOXOXOXOXOXOXOXOXOXOXOXOXOXOXOX  # y U I I i I %.V.].{.'.(._.`.(.(.`.P...8 @   OXOXOXOXOXOXOXOXOXOXOXOXOXOXOXOX",
"OXOXOXOXOXOXOXOXOXOXOXOXOXOXOXOXOXOXOXOXOXOXOXOX  # p D Y P h i I O.n.~.{._.K.L.`.`.L.Q 2 @ OXOXOXOXOXOXOXOXOXOXOXOXOXOXOXOXOXOX",
"OXOXOXOXOXOXOXOXOXOXOXOXOXOXOXOXOXOXOXOXOXOXOXOX  @ 2 Z D P P i i F %.n.'./.J.H.I.I.<.c @   OXOXOXOXOXOXOXOXOXOXOXOXOXOXOXOXOXOX",
"OXOXOXOXOXOXOXOXOXOXOXOXOXOXOXOXOXOXOXOXOXOXOXOX  @ v Z Z D C l h h j %.V.b.! N H.<.E p #   OXOXOXOXOXOXOXOXOXOXOXOXOXOXOXOXOXOX",
"OXOXOXOXOXOXOXOXOXOXOXOXOXOXOXOXOXOXOXOXOXOXOXOX  % D W J V C i h h i I %.=.,.~ M m R u #   OXOXOXOXOXOXOXOXOXOXOXOXOXOXOXOXOXOX",
"OXOXOXOXOXOXOXOXOXOXOXOXOXOXOXOXOXOXOXOXOXOXOXOX  - w.v.` V C i h h i l z | z.u._ S I u o   OXOXOXOXOXOXOXOXOXOXOXOXOXOXOXOXOXOX",
"OXOXOXOXOXOXOXOXOXOXOXOXOXOXOXOXOXOXOXOXOXOXOXOX  3 0.r.O.R F h i i i h I q.C.h.z y l i ; o OXOXOXOXOXOXOXOXOXOXOXOXOXOXOXOXOXOX",
"OXOXOXOXOXOXOXOXOXOXOXOXOXOXOXOXOXOXOXOXOXOXOXOXOXOX- g d.m.{ P f u u I w.M.D.s.r : u I h q $   OXOXOXOXOXOXOXOXOXOXOXOXOXOXOXOX",
"OXOXOXOXOXOXOXOXOXOXOXOXOXOXOXOXOXOXOXOXOXOXOXOXOXOX  = w.m.7.P i t t I h.A.f.( % o y T T i o   OXOXOXOXOXOXOXOXOXOXOXOXOXOXOXOX",
"OXOXOXOXOXOXOXOXOXOXOXOXOXOXOXOXOXOXOXOXOXOXOXOXOXOX  * z 7.T P i t t I c.f.s %   o y T T u o   OXOXOXOXOXOXOXOXOXOXOXOXOXOXOXOX",
"OXOXOXOXOXOXOXOXOXOXOXOXOXOXOXOXOXOXOXOXOXOXOXOXOXOX  o y T I P i t t j w.} &     $ u T T y $   OXOXOXOXOXOXOXOXOXOXOXOXOXOXOXOX",
"OXOXOXOXOXOXOXOXOXOXOXOXOXOXOXOXOXOXOXOXOXOXOXOXOXOX  o u I I j y q q y h e o     # i T T u #   OXOXOXOXOXOXOXOXOXOXOXOXOXOXOXOX",
"OXOXOXOXOXOXOXOXOXOXOXOXOXOXOXOXOXOXOXOXOXOXOXOXOXOX% < i I I I f f f i f t < %   $ u Y I y o   OXOXOXOXOXOXOXOXOXOXOXOXOXOXOXOX",
"OXOXOXOXOXOXOXOXOXOXOXOXOXOXOXOXOXOXOXOXOXOXOXOX  % d F I I P T X.O.X.X.O.X. .d # o y I I y #   OXOXOXOXOXOXOXOXOXOXOXOXOXOXOXOX",
"OXOXOXOXOXOXOXOXOXOXOXOXOXOXOXOXOXOXOXOXOXOXOXOX  * F *.q.7.7.q.t.3.5.4.4.j.k.] * $ z 8.q.z *   OXOXOXOXOXOXOXOXOXOXOXOXOXOXOXOX",
"OXOXOXOXOXOXOXOXOXOXOXOXOXOXOXOXOXOXOXOXOXOXOXOX  % F y.N.S.S.N.z.4.2.*.4.5.u.] * - w.G.G.w.-   OXOXOXOXOXOXOXOXOXOXOXOXOXOXOXOX",
"OXOXOXOXOXOXOXOXOXOXOXOXOXOXOXOXOXOXOXOXOXOXOXOX  % d X.N.G.Q.F.x.4.4.2.2.u.k. .% * } h.h.0.;   OXOXOXOXOXOXOXOXOXOXOXOXOXOXOXOX",
"OXOXOXOXOXOXOXOXOXOXOXOXOXOXOXOXOXOXOXOXOXOXOXOXOXOX% 5 X.v.B.B.v.x.x.k.y.k.v.O.:   - 3 3 - OXOXOXOXOXOXOXOXOXOXOXOXOXOXOXOXOXOX",
"OXOXOXOXOXOXOXOXOXOXOXOXOXOXOXOXOXOXOXOXOXOXOXOXOXOX  # 0 ] y.v.v.v.v.k.3.1.*.F -           OXOXOXOXOXOXOXOXOXOXOXOXOXOXOXOXOXOX",
"OXOXOXOXOXOXOXOXOXOXOXOXOXOXOXOXOXOXOXOXOXOXOXOXOXOXOXOXo 4 ] 4.y.k.u.3.-.m 7 * OXOXOXOXOXOXOXOXOXOXOXOXOXOXOXOXOXOXOXOXOXOXOXOX",
"OXOXOXOXOXOXOXOXOXOXOXOXOXOXOXOXOXOXOXOXOXOXOXOXOXOXOXOX  % d ) *.2.2.;.n x +   OXOXOXOXOXOXOXOXOXOXOXOXOXOXOXOXOXOXOXOXOXOXOXOX",
"OXOXOXOXOXOXOXOXOXOXOXOXOXOXOXOXOXOXOXOXOXOXOXOXOXOXOXOXOXOX# < I { 6.P , + OXOXOXOXOXOXOXOXOXOXOXOXOXOXOXOXOXOXOXOXOXOXOXOXOXOX",
"OXOXOXOXOXOXOXOXOXOXOXOXOXOXOXOXOXOXOXOXOXOXOXOXOXOXOXOXOXOX  $ g 6.6.Y q * OXOXOXOXOXOXOXOXOXOXOXOXOXOXOXOXOXOXOXOXOXOXOXOXOXOX",
"OXOXOXOXOXOXOXOXOXOXOXOXOXOXOXOXOXOXOXOXOXOXOXOXOXOXOXOXOXOX  $ h 7.r.r.8.z :   OXOXOXOXOXOXOXOXOXOXOXOXOXOXOXOXOXOXOXOXOXOXOXOX",
"OXOXOXOXOXOXOXOXOXOXOXOXOXOXOXOXOXOXOXOXOXOXOXOXOXOXOXOXOXOX  o e Y 8.e.r.Y *   OXOXOXOXOXOXOXOXOXOXOXOXOXOXOXOXOXOXOXOXOXOXOXOX",
"OXOXOXOXOXOXOXOXOXOXOXOXOXOXOXOXOXOXOXOXOXOXOXOXOXOXOXOXOXOX  . * ; r q q ; o   OXOXOXOXOXOXOXOXOXOXOXOXOXOXOXOXOXOXOXOXOXOXOXOX",
"OXOXOXOXOXOXOXOXOXOXOXOXOXOXOXOXOXOXOXOXOXOXOXOXOXOXOXOXOXOXOXOXOXOXOXOXOXOXOXOXOXOXOXOXOXOXOXOXOXOXOXOXOXOXOXOXOXOXOXOXOXOXOXOX",
"OXOXOXOXOXOXOXOXOXOXOXOXOXOXOXOXOXOXOXOXOXOXOXOXOXOXOXOXOXOXOXOXOXOXOXOXOXOXOXOXOXOXOXOXOXOXOXOXOXOXOXOXOXOXOXOXOXOXOXOXOXOXOXOX",
"OXOXOXOXOXOXOXOXOXOXOXOXOXOXOXOXOXOXOXOXOXOXOXOXOXOXOXOXOXOXOXOXOXOXOXOXOXOXOXOXOXOXOXOXOXOXOXOXOXOXOXOXOXOXOXOXOXOXOXOXOXOXOXOX"
};
