/* XPM */
static char *result[] = {
/* columns rows colors chars-per-pixel */
"64 64 182 2 ",
"   c #000000",
".  c #0F0706",
"X  c #0F0806",
"o  c #0E0C0B",
"O  c #100706",
"+  c #120906",
"@  c #120C0A",
"#  c #1A0602",
"$  c #0F120D",
"%  c #14130D",
"&  c #1A150E",
"*  c #12180F",
"=  c #151410",
"-  c #191514",
";  c #161A12",
":  c #1A1B15",
">  c #1B1F18",
",  c #22130F",
"<  c #2F1C14",
"1  c #211D15",
"2  c #301B14",
"3  c #1E2119",
"4  c #242317",
"5  c #23231C",
"6  c #29251D",
"7  c #23291C",
"8  c #2B2A1C",
"9  c #36211A",
"0  c #3D221B",
"q  c #262220",
"w  c #2A2321",
"e  c #272820",
"r  c #2B2C23",
"t  c #332A25",
"y  c #352C28",
"u  c #3B2E2A",
"i  c #2C3224",
"p  c #2F3528",
"a  c #353020",
"s  c #333E27",
"d  c #3D3927",
"f  c #303629",
"g  c #3C322C",
"h  c #3F392F",
"j  c #383829",
"k  c #3F3632",
"l  c #3E3A32",
"z  c #5D1F0F",
"x  c #4E1D12",
"c  c #43251D",
"v  c #42291F",
"b  c #5D2D1B",
"n  c #6C2B1A",
"m  c #6E331E",
"M  c #7F311B",
"N  c #462C22",
"B  c #4B2D24",
"V  c #412F29",
"C  c #532E24",
"Z  c #463827",
"A  c #43342B",
"S  c #49322A",
"D  c #443D2A",
"F  c #493525",
"G  c #543126",
"H  c #563629",
"J  c #593629",
"K  c #5B3A2B",
"L  c #533E29",
"P  c #423631",
"I  c #433B33",
"U  c #4C3A33",
"Y  c #493E38",
"T  c #543F32",
"R  c #602E20",
"E  c #683B26",
"W  c #713F27",
"Q  c #38442D",
"!  c #37442C",
"~  c #3B4432",
"^  c #4B432F",
"/  c #56412E",
"(  c #5B412F",
")  c #464137",
"_  c #4C4532",
"`  c #464C33",
"'  c #4F4A34",
"]  c #4B443B",
"[  c #454E3A",
"{  c #4C4B3B",
"}  c #5C4531",
"|  c #544B35",
" . c #5E4A34",
".. c #554D3A",
"X. c #465537",
"o. c #4C5136",
"O. c #475738",
"+. c #4B543C",
"@. c #4C5B3E",
"#. c #5D553B",
"$. c #5D5A3D",
"%. c #794026",
"&. c #79462F",
"*. c #614C36",
"=. c #614C39",
"-. c #685236",
";. c #62543D",
":. c #635B3E",
">. c #655337",
",. c #656E3E",
"<. c #4E4541",
"1. c #514B42",
"2. c #4E5A42",
"3. c #565345",
"4. c #5B5441",
"5. c #535C45",
"6. c #5C5A42",
"7. c #5B5C4A",
"8. c #665740",
"9. c #655D41",
"0. c #6C5E43",
"q. c #5E6744",
"w. c #5E6A46",
"e. c #5A654B",
"r. c #5C6A4C",
"t. c #566447",
"y. c #5F724A",
"u. c #5E6B51",
"i. c #646144",
"p. c #696346",
"a. c #616A47",
"s. c #66634B",
"d. c #6B654B",
"f. c #636C4B",
"g. c #6C694C",
"h. c #726C4B",
"j. c #62744E",
"k. c #616651",
"l. c #646B53",
"z. c #6B6E53",
"x. c #647453",
"c. c #6C7355",
"v. c #667953",
"b. c #697B56",
"n. c #6C755B",
"m. c #6D7D5C",
"M. c #707657",
"N. c #727A57",
"B. c #737E61",
"V. c #82432A",
"C. c #895E41",
"Z. c #8B6244",
"A. c #877657",
"S. c #917856",
"D. c #937553",
"F. c #6B814C",
"G. c #6F815D",
"H. c #70815E",
"J. c #788854",
"K. c #738362",
"L. c #788765",
"P. c #778B60",
"I. c #7A8A65",
"U. c #7D9266",
"Y. c #8E825D",
"T. c #888261",
"R. c #838B6B",
"E. c #878D69",
"W. c #938B67",
"Q. c #948F6A",
"!. c #83916B",
"~. c #88916D",
"^. c #839C60",
"/. c #95906B",
"(. c #8E9A73",
"). c #8B9470",
"_. c #94AB6E",
"`. c #96AF71",
"'. c #A2AC88",
"]. c #A8B588",
"[. c #AAB88A",
"{. c None",
/* pixels */
"{.{.{.{.{.{.{.{.{.{.{.{.{.{.{.{.{.{.{.{.{.{.{.{.{.{.{.{.{.{.{.{.{.{.{.{.{.{.{.{.{.{.{.{.{.{.{.{.{.{.{.{.{.{.{.{.{.{.{.{.{.{.{.{.",
"{.{.{.{.{.{.{.{.{.{.{.{.{.{.{.{.{.{.{.{.{.{.{.{.{.{.{.{.{.{.{.{.{.{.{.{.{.{.{.{.{.{.{.{.{.{.{.{.{.{.{.{.{.{.{.{.{.{.{.{.{.{.{.{.",
"{.{.{.{.{.{.{.{.{.{.{.{.{.{.{.{.{.{.{.{.{.{.{.{.{.{.{.{.{.{.{.{.{.{.{.{.{.{.{.{.{.{.{.{.{.{.{.{.{.{.{.{.{.{.{.{.{.{.{.{.{.{.{.{.",
"{.{.{.{.{.{.{.{.{.{.{.{.{.{.{.{.{.{.{.{.{.{.{.{.{.{.{.{.{.{.{.{.{.{.{.{.{.{.{.{.{.{.{.{.{.{.{.{.{.{.{.{.{.{.{.{.{.{.{.{.{.{.{.{.",
"{.{.{.{.{.{.{.{.{.{.{.{.{.{.{.{.{.{.{.{.{.{.{.{.{.{.{.{.{.{.{.{.{.{.{.{.{.{.{.{.{.{.{.{.{.{.{.{.{.{.{.{.{.{.{.{.{.{.{.{.{.{.{.{.",
"{.{.{.{.{.{.{.{.{.{.{.{.{.{.{.{.{.{.{.{.{.{.{.{.{.{.{.{.{.{.{.{.{.{.{.{.{.{.{.{.{.{.{.{.{.{.{.{.{.{.{.{.{.{.{.{.{.{.{.{.{.{.{.{.",
"{.{.{.{.{.{.{.{.{.{.{.{.{.{.{.{.{.{.{.{.{.{.{.{.{.{.{.{.{.{.{.{.{.{.{.{.{.{.{.{.{.{.{.{.{.{.{.{.{.{.{.{.{.{.{.{.{.{.{.{.{.{.{.{.",
"{.{.{.{.{.{.{.{.{.{.{.{.{.{.{.{.{.{.{.{.{.{.{.{.{.{.{.{.{.{.{.{.{.{.{.{.{.{.{.{.{.{.{.{.{.{.{.{.{.{.{.{.{.{.{.{.{.{.{.{.{.{.{.{.",
"{.{.{.{.{.{.{.{.{.{.{.{.{.{.{.{.{.{.{.{.{.{.{.{.{.{.{.{.{.{.{.{.{.{.{.{.{.{.{.{.{.{.{.{.{.{.{.{.{.{.{.{.{.{.{.{.{.{.{.{.{.{.{.{.",
"{.{.{.{.{.{.{.{.{.{.{.{.{.{.{.{.{.{.{.{.{.{.{.{.{.{.{.{.{.{.{.{.{.{.{.{.{.{.{.{.{.{.{.{.{.{.{.{.{.{.{.{.{.{.{.{.{.{.{.{.{.{.{.{.",
"{.{.{.{.{.{.{.{.{.{.{.{.{.{.{.{.{.{.{.{.{.{.{.{.{.{.{.{.{.{.{.{.{.{.                    {.{.{.{.{.{.{.{.{.{.{.{.{.{.{.{.{.{.{.{.",
"{.{.{.{.{.{.{.{.{.{.{.{.{.{.{.{.{.{.{.{.{.{.{.{.{.{.{.{.{.{.{.{.{.{.; ; & @ @ @ @ + @ + {.{.{.{.{.{.{.{.{.{.{.{.{.{.{.{.{.{.{.{.",
"{.{.{.{.{.{.{.{.{.{.{.{.{.{.{.{.{.{.{.{.{.{.{.{.{.{.{.{.{.{.{.{.  ; ! ` Z N 0 0 c 0 0 2 +   {.{.{.{.{.{.{.{.{.{.{.{.{.{.{.{.{.{.",
"{.{.{.{.{.{.{.{.{.{.{.{.{.{.{.{.{.{.{.{.{.{.{.{.{.{.{.{.{.{.{.{.X 4 ' ,. .J G C C C G v 4 * {.{.{.{.{.{.{.{.{.{.{.{.{.{.{.{.{.{.",
"{.{.{.{.{.{.{.{.{.{.{.{.{.{.{.{.{.{.{.{.{.{.{.{.{.{.{.{.{.{.  O < N /  .K J G B C C J / ' ! *   {.{.{.{.{.{.{.{.{.{.{.{.{.{.{.{.",
"{.{.{.{.{.{.{.{.{.{.{.{.{.{.{.{.{.{.{.{.{.{.{.{.{.{.{.{.{.{.O , c G J K  .} H C C C J  .a.@.i * {.{.{.{.{.{.{.{.{.{.{.{.{.{.{.{.",
"{.{.{.{.{.{.{.{.{.{.{.{.{.{.{.{.{.{.{.{.{.{.{.{.{.{.{.{.  @ 2 c v G H } $.$./ J C C J  .q.y.@.! ;   {.{.{.{.{.{.{.{.{.{.{.{.{.{.",
"{.{.{.{.{.{.{.{.{.{.{.{.{.{.{.{.{.{.{.{.{.{.{.{.{.{.{.{.  + 0 C G H } #.w.q. .J G J } $.q.j.j.O.;   {.{.{.{.{.{.{.{.{.{.{.{.{.{.",
"{.{.{.{.{.{.{.{.{.{.{.{.{.{.{.{.{.{.{.{.{.{.{.{.{.{.{.{.  + c G J ( $.w.y.q.} J J } 6.f.y.y.j.O.;   {.{.{.{.{.{.{.{.{.{.{.{.{.{.",
"{.{.{.{.{.{.{.{.{.{.{.{.{.{.{.{.{.{.{.{.{.{.{.{.{.{.{.{.  @ 0 J ( ;.y.y.y.w.;.*.K  .f.F.v.y.j.X.;   {.{.{.{.{.{.{.{.{.{.{.{.{.{.",
"{.{.{.{.{.{.{.{.{.{.{.{.{.{.{.{.{.{.{.{.{.{.{.{.{.{.{.{.  + v ( #.w.j.v.x.x.c.s. . .c.m.b.x.j.X.;   {.{.{.{.{.{.{.{.{.{.{.{.{.{.",
"{.{.{.{.{.{.{.{.{.{.{.{.{.{.{.{.{.{.{.{.{.{.{.{.{.{.{.{.  % Z #.a.v.b.b.b.m.K.c. .=.z.K.m.b.v.O.:   {.{.{.{.{.{.{.{.{.{.{.{.{.{.",
"{.{.{.{.{.{.{.{.{.{.{.{.{.{.{.{.{.{.{.{.{.{.{.{.{.{.{.{.  ; ` a.x.b.G.K.K.K.K.c. . .z.K.K.H.m.2.;   {.{.{.{.{.{.{.{.{.{.{.{.{.{.",
"{.{.{.{.{.{.{.{.{.{.{.{.{.{.{.{.{.{.{.{.{.{.{.{.{.{.{.{.  : O.v.b.x.t.5.5.t.5.5.4.8.s.l.t.5.2.Q *   {.{.{.{.{.{.{.{.{.{.{.{.{.{.",
"{.{.{.{.{.{.{.{.{.{.{.{.{.{.{.{.{.{.{.{.{.{.{.{.{.{.{.{.  ; O.v.G.e.p ; ; ; ; r 5.g.0./ 7 - - $     {.{.{.{.{.{.{.{.{.{.{.{.{.{.",
"{.{.{.{.{.{.{.{.{.{.{.{.{.{.{.{.{.{.{.{.{.{.{.{.{.{.{.{.  ; ! t.b.r.p > q r 3 s u.c.=.F 8 7 r 5 o   {.{.{.{.{.{.{.{.{.{.{.{.{.{.",
"{.{.{.{.{.{.{.{.{.{.{.{.{.{.{.{.{.{.{.{.{.{.{.{.{.{.{.{.{.{.* i r.m.e.l.R.!.J.F.G.z. . .,.J.~.n.7   {.{.{.{.{.{.{.{.{.{.{.{.{.{.",
"{.{.{.{.{.{.{.{.{.{.{.{.{.{.{.{.{.{.{.{.{.{.{.{.{.{.{.{.{.{.  : 5.K.K.!.'.].`.^.P.z. .>.J.`.[.E.r   {.{.{.{.{.{.{.{.{.{.{.{.{.{.",
"{.{.{.{.{.{.{.{.{.{.{.{.{.{.{.{.{.{.{.{.{.{.{.{.{.{.{.{.{.{.  : 5.K.K.L.U.!.U.L.K.z. .=.N.U.R.r.3   {.{.{.{.{.{.{.{.{.{.{.{.{.{.",
"{.{.{.{.{.{.{.{.{.{.{.{.{.{.{.{.{.{.{.{.{.{.{.{.{.{.{.{.{.{.  : 2.K.K.m.B.m.m.K.K.c.8.#.s.c.b.@.:   {.{.{.{.{.{.{.{.{.{.{.{.{.{.",
"{.{.{.{.{.{.{.{.{.{.{.{.{.{.{.{.{.{.{.{.{.{.{.{.{.{.{.{.{.{.  ; @.b.m.K.m.m.B.G.B.m.c.d.;.;.f.2.:   {.{.{.{.{.{.{.{.{.{.{.{.{.{.",
"{.{.{.{.{.{.{.{.{.{.{.{.{.{.{.{.{.{.{.{.{.{.{.{.{.{.{.{.{.{.o 4 ~ r.b.K.I.L.K.K.I.I.K.n.0.0.d.+.;   {.{.{.{.{.{.{.{.{.{.{.{.{.{.",
"{.{.{.{.{.{.{.{.{.{.{.{.{.{.{.{.{.{.{.{.{.{.{.{.{.{.{.{.  @ w g I +.q.H.(.(.L.L.(.(.L.K.~.T.0.Z @   {.{.{.{.{.{.{.{.{.{.{.{.{.{.",
"{.{.{.{.{.{.{.{.{.{.{.{.{.{.{.{.{.{.{.{.{.{.{.{.{.{.{.{.o - u S g h +.j.E.(.!.E.W.Q.R.E./.A.} 9 @   {.{.{.{.{.{.{.{.{.{.{.{.{.{.",
"{.{.{.{.{.{.{.{.{.{.{.{.{.{.{.{.{.{.{.{.{.{.{.{.{.{.  o w u S S A g l +.x.J.(.W.C.C.Q.Q.Z.W 2 @ {.{.{.{.{.{.{.{.{.{.{.{.{.{.{.{.",
"{.{.{.{.{.{.{.{.{.{.{.{.{.{.{.{.{.{.{.{.{.{.{.{.{.{.  @ y U S B V g u I +.j.!.Y.V.V.D.D.&.x #   {.{.{.{.{.{.{.{.{.{.{.{.{.{.{.{.",
"{.{.{.{.{.{.{.{.{.{.{.{.{.{.{.{.{.{.{.{.{.{.{.{.{.{.  o y U C B V g g g I +.x.h.W M V.&.J 9 @   {.{.{.{.{.{.{.{.{.{.{.{.{.{.{.{.",
"{.{.{.{.{.{.{.{.{.{.{.{.{.{.{.{.{.{.{.{.{.{.{.{.{.{.  o w g T T S V u g g I +.#.E n n R S t o   {.{.{.{.{.{.{.{.{.{.{.{.{.{.{.{.",
"{.{.{.{.{.{.{.{.{.{.{.{.{.{.{.{.{.{.{.{.{.{.{.{.{.{.{.{.o e 7.s.T B u g g g D I S S S S P y o   {.{.{.{.{.{.{.{.{.{.{.{.{.{.{.{.",
"{.{.{.{.{.{.{.{.{.{.{.{.{.{.{.{.{.{.{.{.{.{.{.{.{.{.{.{.  - 5.l.8.T A g g g g A I Y k k P y o   {.{.{.{.{.{.{.{.{.{.{.{.{.{.{.{.",
"{.{.{.{.{.{.{.{.{.{.{.{.{.{.{.{.{.{.{.{.{.{.{.{.{.{.{.{.  % l 7.l.k.Y u u u u I e.e.) g I y o   {.{.{.{.{.{.{.{.{.{.{.{.{.{.{.{.",
"{.{.{.{.{.{.{.{.{.{.{.{.{.{.{.{.{.{.{.{.{.{.{.{.{.{.{.{.  o y <.k.k.] u u h I 3.n.u.l t P y > o {.{.{.{.{.{.{.{.{.{.{.{.{.{.{.{.",
"{.{.{.{.{.{.{.{.{.{.{.{.{.{.{.{.{.{.{.{.{.{.{.{.{.{.{.{.  @ y Y 1.] g t t l 3.x.B.t.7 - y P k w @   {.{.{.{.{.{.{.{.{.{.{.{.{.{.",
"{.{.{.{.{.{.{.{.{.{.{.{.{.{.{.{.{.{.{.{.{.{.{.{.{.{.{.{.  @ y Y I P y t t I u.v.e.~ % @ t Y Y y @   {.{.{.{.{.{.{.{.{.{.{.{.{.{.",
"{.{.{.{.{.{.{.{.{.{.{.{.{.{.{.{.{.{.{.{.{.{.{.{.{.{.{.{.  o y Y U k u t t I l.r.p $   @ y ] Y y o   {.{.{.{.{.{.{.{.{.{.{.{.{.{.",
"{.{.{.{.{.{.{.{.{.{.{.{.{.{.{.{.{.{.{.{.{.{.{.{.{.{.{.{.  o t P P P u t t h 5.` ;     @ w g P u : o {.{.{.{.{.{.{.{.{.{.{.{.{.{.",
"{.{.{.{.{.{.{.{.{.{.{.{.{.{.{.{.{.{.{.{.{.{.{.{.{.{.{.{.  o 6 g P I P k t u h t o   {.{.o - y P u w @   {.{.{.{.{.{.{.{.{.{.{.{.",
"{.{.{.{.{.{.{.{.{.{.{.{.{.{.{.{.{.{.{.{.{.{.{.{.{.{.{.{.% : a I <.1.1.{ I d g t > % {.{.  = l 3.3.l =   {.{.{.{.{.{.{.{.{.{.{.{.",
"{.{.{.{.{.{.{.{.{.{.{.{.{.{.{.{.{.{.{.{.{.{.{.{.{.{.  = a ^ | $.z.n.n.z.#.| | | ' d %     ; 2.B.B.2.:   {.{.{.{.{.{.{.{.{.{.{.{.",
"{.{.{.{.{.{.{.{.{.{.{.{.{.{.{.{.{.{.{.{.{.{.{.{.{.{.  = D :.:.p.n.B.B.c.i.#.:.:.:.' &     3 1.u.u.1.>   {.{.{.{.{.{.{.{.{.{.{.{.",
"{.{.{.{.{.{.{.{.{.{.{.{.{.{.{.{.{.{.{.{.{.{.{.{.{.{.  = D :.9.9.p.g.d.9.:.#.:.:.p.^ -   {.{.3 3 3 > {.{.{.{.{.{.{.{.{.{.{.{.{.{.",
"{.{.{.{.{.{.{.{.{.{.{.{.{.{.{.{.{.{.{.{.{.{.{.{.{.{.  % a _ 6.0.p.i.,.:.#.#.#.:.,.^ =   {.{.        {.{.{.{.{.{.{.{.{.{.{.{.{.{.",
"{.{.{.{.{.{.{.{.{.{.{.{.{.{.{.{.{.{.{.{.{.{.{.{.{.{.{.{.@ 6 ..h.d.d.h.p.$.| #.:.8.^ %   {.{.{.{.{.{.{.{.{.{.{.{.{.{.{.{.{.{.{.{.",
"{.{.{.{.{.{.{.{.{.{.{.{.{.{.{.{.{.{.{.{.{.{.{.{.{.{.{.{.o 5 ..d.d.p.4... . .:.:.0.' 6 % {.{.{.{.{.{.{.{.{.{.{.{.{.{.{.{.{.{.{.{.",
"{.{.{.{.{.{.{.{.{.{.{.{.{.{.{.{.{.{.{.{.{.{.{.{.{.{.  o w l ] 3.6.| 8 2 b %.-.:.:.:.| d %   {.{.{.{.{.{.{.{.{.{.{.{.{.{.{.{.{.{.",
"{.{.{.{.{.{.{.{.{.{.{.{.{.{.{.{.{.{.{.{.{.{.{.{.{.{.  = l <.P k Z a @ # z m / ' $.p.d.' -   {.{.{.{.{.{.{.{.{.{.{.{.{.{.{.{.{.{.",
"{.{.{.{.{.{.{.{.{.{.{.{.{.{.{.{.{.{.{.{.{.{.{.{.{.{.  - <.1.q @ % % {.{.{.{.& 8 5.n.m.5.:   {.{.{.{.{.{.{.{.{.{.{.{.{.{.{.{.{.{.",
"{.{.{.{.{.{.{.{.{.{.{.{.{.{.{.{.{.{.{.{.{.{.{.{.{.{.  - I I -       {.{.{.{.  : 2.K.K.u.f : {.{.{.{.{.{.{.{.{.{.{.{.{.{.{.{.{.{.",
"{.{.{.{.{.{.{.{.{.{.{.{.{.{.{.{.{.{.{.{.{.{.{.{.{.{.{.{.- - {.{.{.{.{.{.{.{.  : 2.K.L.K.x.1.>   {.{.{.{.{.{.{.{.{.{.{.{.{.{.{.{.",
"{.{.{.{.{.{.{.{.{.{.{.{.{.{.{.{.{.{.{.{.{.{.{.{.{.{.{.{.    {.{.{.{.{.{.{.{.  ; X.u.l.n.m.2.;   {.{.{.{.{.{.{.{.{.{.{.{.{.{.{.{.",
"{.{.{.{.{.{.{.{.{.{.{.{.{.{.{.{.{.{.{.{.{.{.{.{.{.{.{.{.    {.{.{.{.{.{.{.{.  o 3 i i p p e o   {.{.{.{.{.{.{.{.{.{.{.{.{.{.{.{.",
"{.{.{.{.{.{.{.{.{.{.{.{.{.{.{.{.{.{.{.{.{.{.{.{.{.{.{.{.{.{.{.{.{.{.{.{.{.{.{.{.{.{.{.{.{.{.{.{.{.{.{.{.{.{.{.{.{.{.{.{.{.{.{.{.",
"{.{.{.{.{.{.{.{.{.{.{.{.{.{.{.{.{.{.{.{.{.{.{.{.{.{.{.{.{.{.{.{.{.{.{.{.{.{.{.{.{.{.{.{.{.{.{.{.{.{.{.{.{.{.{.{.{.{.{.{.{.{.{.{.",
"{.{.{.{.{.{.{.{.{.{.{.{.{.{.{.{.{.{.{.{.{.{.{.{.{.{.{.{.{.{.{.{.{.{.{.{.{.{.{.{.{.{.{.{.{.{.{.{.{.{.{.{.{.{.{.{.{.{.{.{.{.{.{.{."
};
