/* XPM */
static char *result[] = {
/* columns rows colors chars-per-pixel */
"64 64 183 2 ",
"   c #000000",
".  c #0C0605",
"X  c #0D0807",
"o  c #0D0B0A",
"O  c #120605",
"+  c #120906",
"@  c #190804",
"#  c #120C09",
"$  c #0F120D",
"%  c #14130D",
"&  c #18160F",
"*  c #12180F",
"=  c #151411",
"-  c #191614",
";  c #151A12",
":  c #1A1C15",
">  c #1A1F18",
",  c #2D1008",
"<  c #22130F",
"1  c #201411",
"2  c #201A16",
"3  c #2F1A14",
"4  c #231E18",
"5  c #301B14",
"6  c #1D2119",
"7  c #242317",
"8  c #24231C",
"9  c #29231E",
"0  c #23291C",
"q  c #2C2A1C",
"w  c #36211A",
"e  c #3D221B",
"r  c #34301F",
"t  c #2B2422",
"y  c #272820",
"u  c #2A2B22",
"i  c #322924",
"p  c #392E26",
"a  c #352C28",
"s  c #392F2B",
"d  c #2C3325",
"f  c #2E3428",
"g  c #363121",
"h  c #3B3625",
"j  c #313629",
"k  c #3C322D",
"l  c #3D382F",
"z  c #363A28",
"x  c #3E3631",
"c  c #3E3A32",
"v  c #531E0F",
"b  c #4E1D12",
"n  c #571E10",
"m  c #42251D",
"M  c #42291F",
"N  c #6C2B1A",
"B  c #702916",
"V  c #7F311B",
"C  c #452C21",
"Z  c #4C2D24",
"A  c #532E24",
"S  c #463827",
"D  c #44332A",
"F  c #49322A",
"G  c #453F2A",
"H  c #493525",
"J  c #553126",
"K  c #563629",
"L  c #593629",
"P  c #5B3A2B",
"I  c #423632",
"U  c #433B33",
"Y  c #493C37",
"T  c #493D38",
"R  c #5A3E30",
"E  c #602E20",
"W  c #683B26",
"Q  c #38442D",
"!  c #37442C",
"~  c #3F4936",
"^  c #4B432E",
"/  c #46412D",
"(  c #56412E",
")  c #5B412F",
"_  c #464136",
"`  c #4C4632",
"'  c #464C33",
"]  c #4F4A34",
"[  c #4A433A",
"{  c #444D3A",
"}  c #4B4E3A",
"|  c #5C4432",
" . c #524B34",
".. c #5E4A34",
"X. c #51493F",
"o. c #594838",
"O. c #465537",
"+. c #4C5136",
"@. c #475738",
"#. c #4B533C",
"$. c #4C5B3E",
"%. c #5D553A",
"&. c #5D5A3D",
"*. c #794026",
"=. c #79462F",
"-. c #604C37",
";. c #614C39",
":. c #61543D",
">. c #635A3E",
",. c #655337",
"<. c #656E3E",
"1. c #4E4541",
"2. c #534C42",
"3. c #495340",
"4. c #4E5B43",
"5. c #555244",
"6. c #535C45",
"7. c #5F5A42",
"8. c #585E4A",
"9. c #665740",
"0. c #655D41",
"q. c #6C5E43",
"w. c #675F48",
"e. c #5E6744",
"r. c #5E6A46",
"t. c #5B644C",
"y. c #5C6A4C",
"u. c #566447",
"i. c #5F724A",
"p. c #5E6B51",
"a. c #656044",
"s. c #696245",
"d. c #616A47",
"f. c #67634A",
"g. c #6C664B",
"h. c #636C4B",
"j. c #6B694B",
"k. c #736E49",
"l. c #62744E",
"z. c #676751",
"x. c #646C52",
"c. c #6A6E52",
"v. c #647453",
"b. c #6B7355",
"n. c #667953",
"m. c #697B56",
"M. c #6B745A",
"N. c #677858",
"B. c #6D7C5C",
"V. c #727A57",
"C. c #737C61",
"Z. c #85311A",
"A. c #82432A",
"S. c #895E41",
"D. c #8B6244",
"F. c #877657",
"G. c #917856",
"H. c #937553",
"J. c #6B814C",
"K. c #6F815D",
"L. c #70815E",
"P. c #788854",
"I. c #738362",
"U. c #788765",
"Y. c #778B60",
"T. c #7A8A65",
"R. c #7D9266",
"E. c #8E825D",
"W. c #838B6B",
"Q. c #878966",
"!. c #938B67",
"~. c #948F6A",
"^. c #83916B",
"/. c #869767",
"(. c #95906B",
"). c #8E9A73",
"_. c #8B9470",
"`. c #94AB6E",
"'. c #96AF71",
"]. c #A2AC88",
"[. c #A8B588",
"{. c #AAB88A",
"}. c None",
/* pixels */
"}.}.}.}.}.}.}.}.}.}.}.}.}.}.}.}.}.}.}.}.}.}.}.}.}.}.}.}.}.}.}.}.}.}.}.}.}.}.}.}.}.}.}.}.}.}.}.}.}.}.}.}.}.}.}.}.}.}.}.}.}.}.}.}.",
"}.}.}.}.}.}.}.}.}.}.}.}.}.}.}.}.}.}.}.}.}.}.}.}.}.}.}.}.}.}.}.}.}.}.}.}.}.}.}.}.}.}.}.}.}.}.}.}.}.}.}.}.}.}.}.}.}.}.}.}.}.}.}.}.",
"}.}.}.}.}.}.}.}.}.}.}.}.}.}.}.}.}.}.}.}.}.}.}.}.}.}.}.}.}.}.}.}.}.}.}.}.}.}.}.}.}.}.}.}.}.}.}.}.}.}.}.}.}.}.}.}.}.}.}.}.}.}.}.}.",
"}.}.}.}.}.}.}.}.}.}.}.}.}.}.}.}.}.}.}.}.}.}.}.}.}.}.}.}.}.}.}.}.}.}.}.}.}.}.}.}.}.}.}.}.}.}.}.}.}.}.}.}.}.}.}.}.}.}.}.}.}.}.}.}.",
"}.}.}.}.}.}.}.}.}.}.}.}.}.}.}.}.}.}.}.}.}.}.}.}.}.}.}.}.}.}.}.}.}.}.}.}.}.}.}.}.}.}.}.}.}.}.}.}.}.}.}.}.}.}.}.}.}.}.}.}.}.}.}.}.",
"}.}.}.}.}.}.}.}.}.}.}.}.}.}.}.}.}.}.}.}.}.}.}.}.}.}.}.}.}.}.}.}.}.}.}.}.}.}.}.}.}.}.}.}.}.}.}.}.}.}.}.}.}.}.}.}.}.}.}.}.}.}.}.}.",
"}.}.}.}.}.}.}.}.}.}.}.}.}.}.}.}.}.}.}.}.}.}.}.}.}.}.}.}.}.}.}.}.}.}.}.}.}.}.}.}.}.}.}.}.}.}.}.}.}.}.}.}.}.}.}.}.}.}.}.}.}.}.}.}.",
"}.}.}.}.}.}.}.}.}.}.}.}.}.}.}.}.}.}.}.}.}.}.}.}.}.}.}.}.}.}.}.}.}.}.}.}.}.}.}.}.}.}.}.}.}.}.}.}.}.}.}.}.}.}.}.}.}.}.}.}.}.}.}.}.",
"}.}.}.}.}.}.}.}.}.}.}.}.}.}.}.}.}.}.}.}.}.}.}.}.}.}.}.}.}.}.}.}.}.}.}.}.}.}.}.}.}.}.}.}.}.}.}.}.}.}.}.}.}.}.}.}.}.}.}.}.}.}.}.}.",
"}.}.}.}.}.}.}.}.}.}.}.}.}.}.}.}.}.}.}.}.}.}.}.}.}.}.}.}.}.}.}.}.}.}.}.}.}.}.}.}.}.}.}.}.}.}.}.}.}.}.}.}.}.}.}.}.}.}.}.}.}.}.}.}.",
"}.}.}.}.}.}.}.}.}.}.}.}.}.}.}.}.}.}.}.}.}.}.}.}.}.}.                    }.}.}.}.}.}.}.}.}.}.}.}.}.}.}.}.}.}.}.}.}.}.}.}.}.}.}.}.",
"}.}.}.}.}.}.}.}.}.}.}.}.}.}.}.}.}.}.}.}.}.}.}.}.}.}.; ; % # # + # # # + }.}.}.}.}.}.}.}.}.}.}.}.}.}.}.}.}.}.}.}.}.}.}.}.}.}.}.}.",
"}.}.}.}.}.}.}.}.}.}.}.}.}.}.}.}.}.}.}.}.}.}.}.}.  ; Q ' S M e e e e e 5 +   }.}.}.}.}.}.}.}.}.}.}.}.}.}.}.}.}.}.}.}.}.}.}.}.}.}.",
"}.}.}.}.}.}.}.}.}.}.}.}.}.}.}.}.}.}.}.}.}.}.}.}.+ 7 ] <.-.P J A A A J M 7 * }.}.}.}.}.}.}.}.}.}.}.}.}.}.}.}.}.}.}.}.}.}.}.}.}.}.",
"}.}.}.}.}.}.}.}.}.}.}.}.}.}.}.}.}.}.}.}.}.}.  + 3 C R | ) L J A A A L ( } ! *   }.}.}.}.}.}.}.}.}.}.}.}.}.}.}.}.}.}.}.}.}.}.}.}.",
"}.}.}.}.}.}.}.}.}.}.}.}.}.}.}.}.}.}.}.}.}.}.X 1 m K L P | ( K A A A L ..d.$.d % }.}.}.}.}.}.}.}.}.}.}.}.}.}.}.}.}.}.}.}.}.}.}.}.",
"}.}.}.}.}.}.}.}.}.}.}.}.}.}.}.}.}.}.}.}.  + 5 m Z J L | &.&.| K A A L ..e.i.$.! ;   }.}.}.}.}.}.}.}.}.}.}.}.}.}.}.}.}.}.}.}.}.}.",
"}.}.}.}.}.}.}.}.}.}.}.}.}.}.}.}.}.}.}.}.  # e A A K ) %.r.e...L J K | %.r.l.l.@.;   }.}.}.}.}.}.}.}.}.}.}.}.}.}.}.}.}.}.}.}.}.}.",
"}.}.}.}.}.}.}.}.}.}.}.}.}.}.}.}.}.}.}.}.  # e J K ) &.r.i.r...L K | 0.h.i.i.l.O.;   }.}.}.}.}.}.}.}.}.}.}.}.}.}.}.}.}.}.}.}.}.}.",
"}.}.}.}.}.}.}.}.}.}.}.}.}.}.}.}.}.}.}.}.  # e L | %.r.i.i.r.%...R ..l.m.l.i.l.@.;   }.}.}.}.}.}.}.}.}.}.}.}.}.}.}.}.}.}.}.}.}.}.",
"}.}.}.}.}.}.}.}.}.}.}.}.}.}.}.}.}.}.}.}.  @ C | &.r.v.n.v.v.b.f.-.;.c.B.n.v.l.@.;   }.}.}.}.}.}.}.}.}.}.}.}.}.}.}.}.}.}.}.}.}.}.",
"}.}.}.}.}.}.}.}.}.}.}.}.}.}.}.}.}.}.}.}.  % H %.r.v.m.m.B.B.I.b.-...c.I.B.m.n.@.;   }.}.}.}.}.}.}.}.}.}.}.}.}.}.}.}.}.}.}.}.}.}.",
"}.}.}.}.}.}.}.}.}.}.}.}.}.}.}.}.}.}.}.}.  ; ' d.v.n.B.K.L.L.I.b.;...c.I.I.K.m.$.6   }.}.}.}.}.}.}.}.}.}.}.}.}.}.}.}.}.}.}.}.}.}.",
"}.}.}.}.}.}.}.}.}.}.}.}.}.}.}.}.}.}.}.}.  ; O.n.m.v.t.u.6.u.6.6.%.:.f.x.u.6.6.! *   }.}.}.}.}.}.}.}.}.}.}.}.}.}.}.}.}.}.}.}.}.}.",
"}.}.}.}.}.}.}.}.}.}.}.}.}.}.}.}.}.}.}.}.  ; @.n.K.y.d ; ; ; ; u 6.j.>.R 8 ; * * .   }.}.}.}.}.}.}.}.}.}.}.}.}.}.}.}.}.}.}.}.}.}.",
"}.}.}.}.}.}.}.}.}.}.}.}.}.}.}.}.}.}.}.}.  ; ! u.m.y.d > y y 6 ! x.b.-.H q 0 u 7 o   }.}.}.}.}.}.}.}.}.}.}.}.}.}.}.}.}.}.}.}.}.}.",
"}.}.}.}.}.}.}.}.}.}.}.}.}.}.}.}.}.}.}.}.}.}.* d p.N.y.x.T._.P.J.K.c.;...d.P._.M.8   }.}.}.}.}.}.}.}.}.}.}.}.}.}.}.}.}.}.}.}.}.}.",
"}.}.}.}.}.}.}.}.}.}.}.}.}.}.}.}.}.}.}.}.}.}.  : 6.I.I.^.].[.`./.Y.c...,.P.'.{.W.u   }.}.}.}.}.}.}.}.}.}.}.}.}.}.}.}.}.}.}.}.}.}.",
"}.}.}.}.}.}.}.}.}.}.}.}.}.}.}.}.}.}.}.}.}.}.  : 6.I.I.I.W.^.R.Y.I.c.-.-.V.^.^.y.6   }.}.}.}.}.}.}.}.}.}.}.}.}.}.}.}.}.}.}.}.}.}.",
"}.}.}.}.}.}.}.}.}.}.}.}.}.}.}.}.}.}.}.}.}.}.  : 4.I.I.I.B.I.B.I.K.b.9.:.s.b.m.#.:   }.}.}.}.}.}.}.}.}.}.}.}.}.}.}.}.}.}.}.}.}.}.",
"}.}.}.}.}.}.}.}.}.}.}.}.}.}.}.}.}.}.}.}.}.}.  ; $.n.K.K.K.B.I.B.I.B.M.g.:.:.h.4.:   }.}.}.}.}.}.}.}.}.}.}.}.}.}.}.}.}.}.}.}.}.}.",
"}.}.}.}.}.}.}.}.}.}.}.}.}.}.}.}.}.}.}.}.}.}.o 7 { y.n.K.U.U.I.I.T.T.I.M.q.q.j.} ;   }.}.}.}.}.}.}.}.}.}.}.}.}.}.}.}.}.}.}.}.}.}.",
"}.}.}.}.}.}.}.}.}.}.}.}.}.}.}.}.}.}.}.}.  o t s c #.r.L.).).U.T.).).T.U.Q.E.q.S %   }.}.}.}.}.}.}.}.}.}.}.}.}.}.}.}.}.}.}.}.}.}.",
"}.}.}.}.}.}.}.}.}.}.}.}.}.}.}.}.}.}.}.}.O < s U k D #.l./.).W.Q.!.!.W.W.(.F.| w #   }.}.}.}.}.}.}.}.}.}.}.}.}.}.}.}.}.}.}.}.}.}.",
"}.}.}.}.}.}.}.}.}.}.}.}.}.}.}.}.}.}.  # 3 C Z F D k U #.h.T.).!.S.S.!.(.D.W 5 # }.}.}.}.}.}.}.}.}.}.}.}.}.}.}.}.}.}.}.}.}.}.}.}.",
"}.}.}.}.}.}.}.}.}.}.}.}.}.}.}.}.}.}.  # F R J Z D k k D #.v./.E.=.A.H.G.=.b @   }.}.}.}.}.}.}.}.}.}.}.}.}.}.}.}.}.}.}.}.}.}.}.}.",
"}.}.}.}.}.}.}.}.}.}.}.}.}.}.}.}.}.}.  : 5.g.R Z D I k k l #.l.k.W Z.A.=.L w #   }.}.}.}.}.}.}.}.}.}.}.}.}.}.}.}.}.}.}.}.}.}.}.}.",
"}.}.}.}.}.}.}.}.}.}.}.}.}.}.}.}.}.}.  > 3.t.%.R T I k k k U #.%.W N N E F t o   }.}.}.}.}.}.}.}.}.}.}.}.}.}.}.}.}.}.}.}.}.}.}.}.",
"}.}.}.}.}.}.}.}.}.}.}.}.}.}.}.}.}.}.}.}.> j 8.c.X.I k s s D U U F A Z F I a o   }.}.}.}.}.}.}.}.}.}.}.}.}.}.}.}.}.}.}.}.}.}.}.}.",
"}.}.}.}.}.}.}.}.}.}.}.}.}.}.}.}.}.}.}.}.  - 6.z.1.I I k k s k l T _ x x U s > # }.}.}.}.}.}.}.}.}.}.}.}.}.}.}.}.}.}.}.}.}.}.}.}.",
"}.}.}.}.}.}.}.}.}.}.}.}.}.}.}.}.}.}.}.}.  = c 2.T I x s k s s U t.t._ x I I k t o   }.}.}.}.}.}.}.}.}.}.}.}.}.}.}.}.}.}.}.}.}.}.",
"}.}.}.}.}.}.}.}.}.}.}.}.}.}.}.}.}.}.}.}.  # a U Y I s s s I U 5.M.p.c t x Y T a o   }.}.}.}.}.}.}.}.}.}.}.}.}.}.}.}.}.}.}.}.}.}.",
"}.}.}.}.}.}.}.}.}.}.}.}.}.}.}.}.}.}.}.}.  o a U Y I s i i D 6.v.B.u.8 - a T T a $   }.}.}.}.}.}.}.}.}.}.}.}.}.}.}.}.}.}.}.}.}.}.",
"}.}.}.}.}.}.}.}.}.}.}.}.}.}.}.}.}.}.}.}.  o i I U I s a i U x.N.t.~ ; o t k U a - o }.}.}.}.}.}.}.}.}.}.}.}.}.}.}.}.}.}.}.}.}.}.",
"}.}.}.}.}.}.}.}.}.}.}.}.}.}.}.}.}.}.}.}.  o t s I U I s i _ p.t.f ; }.}.o : a U x 9 o   }.}.}.}.}.}.}.}.}.}.}.}.}.}.}.}.}.}.}.}.",
"}.}.}.}.}.}.}.}.}.}.}.}.}.}.}.}.}.}.}.}.  o 4 s [ 2.2.[ s k 6.{ =   }.}.  # a T T s - o }.}.}.}.}.}.}.}.}.}.}.}.}.}.}.}.}.}.}.}.",
"}.}.}.}.}.}.}.}.}.}.}.}.}.}.}.}.}.}.}.}.  . 2 x t.C.M.t.k u k q o   }.}.  # a Y Y I a t o   }.}.}.}.}.}.}.}.}.}.}.}.}.}.}.}.}.}.",
"}.}.}.}.}.}.}.}.}.}.}.}.}.}.}.}.}.}.}.}.% - i [ c.C.U.x._ h p q : & }.}.  o t x [ 5.5.U =   }.}.}.}.}.}.}.}.}.}.}.}.}.}.}.}.}.}.",
"}.}.}.}.}.}.}.}.}.}.}.}.}.}.}.}.}.}.  = g /  .&.s.j.j.a.%. . . . .h &   }.}.X y 8.C.C.6.:   }.}.}.}.}.}.}.}.}.}.}.}.}.}.}.}.}.}.",
"}.}.}.}.}.}.}.}.}.}.}.}.}.}.}.}.}.}.  = G >.>.0.>.>.>.&.&.,.>.>.0.^ &   }.}.  > 3.p.p.#.>   }.}.}.}.}.}.}.}.}.}.}.}.}.}.}.}.}.}.",
"}.}.}.}.}.}.}.}.}.}.}.}.}.}.}.}.}.}.  = G %.0.>.>.>.>.%.%.%.>.>.s.^ &   }.}.}.}.- > 6 > }.}.}.}.}.}.}.}.}.}.}.}.}.}.}.}.}.}.}.}.",
"}.}.}.}.}.}.}.}.}.}.}.}.}.}.}.}.}.}.o 4 G %.9.s.s.a.0.>.%.%.%.>.>.^ ;   }.}.}.}.        }.}.}.}.}.}.}.}.}.}.}.}.}.}.}.}.}.}.}.}.",
"}.}.}.}.}.}.}.}.}.}.}.}.}.}.}.}.  $ t x [ 5.w.j.g.g.j.f.>.%.%.>.a.^ &   }.}.}.}.}.}.}.}.}.}.}.}.}.}.}.}.}.}.}.}.}.}.}.}.}.}.}.}.",
"}.}.}.}.}.}.}.}.}.}.}.}.}.}.}.}.  = U 1.I U 9.g.g.s.%. ./ / %.>.>. .q & }.}.}.}.}.}.}.}.}.}.}.}.}.}.}.}.}.}.}.}.}.}.}.}.}.}.}.}.",
"}.}.}.}.}.}.}.}.}.}.}.}.}.}.}.}.  - 1.1.4 4 ` >.0. .q - % 7  .>.>.&. .h %   }.}.}.}.}.}.}.}.}.}.}.}.}.}.}.}.}.}.}.}.}.}.}.}.}.}.",
"}.}.}.}.}.}.}.}.}.}.}.}.}.}.}.}.  - U c = % r G G g #     % h  .>.s.j.] ;   }.}.}.}.}.}.}.}.}.}.}.}.}.}.}.}.}.}.}.}.}.}.}.}.}.}.",
"}.}.}.}.}.}.}.}.}.}.}.}.}.}.}.}.}.}.- - }.}.% % % % }.}.}.}.% u 6.m.B.4.;   }.}.}.}.}.}.}.}.}.}.}.}.}.}.}.}.}.}.}.}.}.}.}.}.}.}.",
"}.}.}.}.}.}.}.}.}.}.}.}.}.}.}.}.}.}.    }.}.        }.}.}.}.  ; 6.L.U.p.j > }.}.}.}.}.}.}.}.}.}.}.}.}.}.}.}.}.}.}.}.}.}.}.}.}.}.",
"}.}.}.}.}.}.}.}.}.}.}.}.}.}.}.}.}.}.}.}.}.}.}.}.}.}.}.}.Z.n O ; 6.I.I.I.x.3.>   }.}.}.}.}.}.}.}.}.}.}.}.}.}.}.}.}.}.}.}.}.}.}.}.",
"}.}.}.}.}.}.}.}.}.}.}.}.}.}.}.}.}.}.}.}.}.}.}.}.}.}.}.}.B v @ = O.p.v.M.B.4.:   }.}.}.}.}.}.}.}.}.}.}.}.}.}.}.}.}.}.}.}.}.}.}.}.",
"}.}.}.}.}.}.}.}.}.}.}.}.}.}.}.}.}.}.}.}.}.}.}.}.}.}.}.}.}., . o 6 d f j j y o   }.}.}.}.}.}.}.}.}.}.}.}.}.}.}.}.}.}.}.}.}.}.}.}.",
"}.}.}.}.}.}.}.}.}.}.}.}.}.}.}.}.}.}.}.}.}.}.}.}.}.}.}.}.}.}.}.}.}.}.}.}.}.}.}.}.}.}.}.}.}.}.}.}.}.}.}.}.}.}.}.}.}.}.}.}.}.}.}.}.",
"}.}.}.}.}.}.}.}.}.}.}.}.}.}.}.}.}.}.}.}.}.}.}.}.}.}.}.}.}.}.}.}.}.}.}.}.}.}.}.}.}.}.}.}.}.}.}.}.}.}.}.}.}.}.}.}.}.}.}.}.}.}.}.}.",
"}.}.}.}.}.}.}.}.}.}.}.}.}.}.}.}.}.}.}.}.}.}.}.}.}.}.}.}.}.}.}.}.}.}.}.}.}.}.}.}.}.}.}.}.}.}.}.}.}.}.}.}.}.}.}.}.}.}.}.}.}.}.}.}."
};
