/* XPM */
static char *result[] = {
/* columns rows colors chars-per-pixel */
"64 64 185 2 ",
"   c #000000",
".  c #0E0604",
"X  c #0F0806",
"o  c #0D0B0A",
"O  c #140604",
"+  c #120907",
"@  c #190804",
"#  c #120C0A",
"$  c #0F120D",
"%  c #14130D",
"&  c #18160F",
"*  c #12180F",
"=  c #151311",
"-  c #191614",
";  c #161A12",
":  c #1A1B15",
">  c #1A1F18",
",  c #2D1008",
"<  c #22130F",
"1  c #36190F",
"2  c #201411",
"3  c #221E17",
"4  c #2F1A14",
"5  c #301B14",
"6  c #1E2119",
"7  c #242317",
"8  c #25241C",
"9  c #29231D",
"0  c #23291C",
"q  c #2C2B1C",
"w  c #342018",
"e  c #3D221B",
"r  c #34301F",
"t  c #262120",
"y  c #2B2421",
"u  c #272820",
"i  c #2B2C23",
"p  c #312724",
"a  c #332A25",
"s  c #3B2E27",
"d  c #352C29",
"f  c #392F2B",
"g  c #3C2721",
"h  c #2C3224",
"j  c #2E3428",
"k  c #333027",
"l  c #3A3425",
"z  c #3D3826",
"x  c #34342A",
"c  c #3C322D",
"v  c #3E382E",
"b  c #333C2A",
"n  c #3F3530",
"m  c #3E3A32",
"M  c #47160A",
"N  c #531E0F",
"B  c #571E10",
"V  c #42251D",
"C  c #42291F",
"Z  c #502115",
"A  c #6F2E1D",
"S  c #702916",
"D  c #7F321C",
"F  c #452C21",
"G  c #4C2C23",
"H  c #532E24",
"J  c #463827",
"K  c #44342B",
"L  c #4B322A",
"P  c #473728",
"I  c #553126",
"U  c #553629",
"Y  c #593629",
"T  c #5B3A2B",
"R  c #423632",
"E  c #433B33",
"W  c #493B36",
"Q  c #493D38",
"!  c #5A3E30",
"~  c #6C3B26",
"^  c #663B26",
"/  c #38442D",
"(  c #37442C",
")  c #4A432E",
"_  c #47412D",
"`  c #56412E",
"'  c #5B412F",
"]  c #474137",
"[  c #4D4731",
"{  c #464D33",
"}  c #4E4A32",
"|  c #4B443B",
" . c #4C4D3B",
".. c #434E3A",
"X. c #5C4432",
"o. c #524B34",
"O. c #5E4A34",
"+. c #534E3D",
"@. c #594838",
"#. c #465537",
"$. c #4C5136",
"%. c #47553A",
"&. c #4B533C",
"*. c #4D5B3E",
"=. c #50503F",
"-. c #5D543A",
";. c #5D5A3D",
":. c #794026",
">. c #604C37",
",. c #614C39",
"<. c #61553D",
"1. c #635B3E",
"2. c #655337",
"3. c #656E3E",
"4. c #4E4541",
"5. c #524C42",
"6. c #4E5B43",
"7. c #495340",
"8. c #545344",
"9. c #535C45",
"0. c #5E5B41",
"q. c #565C49",
"w. c #665740",
"e. c #655D41",
"r. c #6B5E43",
"t. c #5E6744",
"y. c #5E6A46",
"u. c #5B644B",
"i. c #5C6A4C",
"p. c #546444",
"a. c #5F724A",
"s. c #5E6B51",
"d. c #636042",
"f. c #696245",
"g. c #616A47",
"h. c #676449",
"j. c #6B654A",
"k. c #636C4B",
"l. c #6C694C",
"z. c #716A4C",
"x. c #62744E",
"c. c #676751",
"v. c #656B53",
"b. c #6A6E52",
"n. c #647553",
"m. c #6C7355",
"M. c #667953",
"N. c #697B56",
"B. c #6C755B",
"V. c #6D7D5C",
"C. c #707657",
"Z. c #737D5D",
"A. c #727953",
"S. c #737C61",
"D. c #84311A",
"F. c #83432A",
"G. c #895E41",
"H. c #8C6344",
"J. c #8B7555",
"K. c #947554",
"L. c #6B814C",
"P. c #6F815D",
"I. c #70815E",
"U. c #788854",
"Y. c #738362",
"T. c #788765",
"R. c #778B60",
"E. c #7A8A65",
"W. c #7D9266",
"Q. c #8E825D",
"!. c #838B6B",
"~. c #878966",
"^. c #938B67",
"/. c #928E69",
"(. c #83916B",
"). c #869767",
"_. c #96916B",
"`. c #8E9A73",
"'. c #8B9470",
"]. c #94AB6E",
"[. c #96AF71",
"{. c #A2AC88",
"}. c #A8B588",
"|. c #AAB88A",
" X c None",
/* pixels */
" X X X X X X X X X X X X X X X X X X X X X X X X X X X X X X X X X X X X X X X X X X X X X X X X X X X X X X X X X X X X X X X X",
" X X X X X X X X X X X X X X X X X X X X X X X X X X X X X X X X X X X X X X X X X X X X X X X X X X X X X X X X X X X X X X X X",
" X X X X X X X X X X X X X X X X X X X X X X X X X X X X X X X X X X X X X X X X X X X X X X X X X X X X X X X X X X X X X X X X",
" X X X X X X X X X X X X X X X X X X X X X X X X X X X X X X X X X X X X X X X X X X X X X X X X X X X X X X X X X X X X X X X X",
" X X X X X X X X X X X X X X X X X X X X X X X X X X X X X X X X X X X X X X X X X X X X X X X X X X X X X X X X X X X X X X X X",
" X X X X X X X X X X X X X X X X X X X X X X X X X X X X X X X X X X X X X X X X X X X X X X X X X X X X X X X X X X X X X X X X",
" X X X X X X X X X X X X X X X X X X X X X X X X X X X X X X X X X X X X X X X X X X X X X X X X X X X X X X X X X X X X X X X X",
" X X X X X X X X X X X X X X X X X X X X X X X X X X X X X X X X X X X X X X X X X X X X X X X X X X X X X X X X X X X X X X X X",
" X X X X X X X X X X X X X X X X X X X X X X X X X X X X X X X X X X X X X X X X X X X X X X X X X X X X X X X X X X X X X X X X",
" X X X X X X X X X X X X X X X X X X X X X X X X X X X X X X X X X X X X X X X X X X X X X X X X X X X X X X X X X X X X X X X X",
" X X X X X X X X X X X X X X X X X X X X X X X X X X X X X X X X X X X X X X X X X X X X X X X X X X X X X X X X X X X X X X X X",
" X X X X X X X X X X X X X X X X X X X X X X X X X X X X X X X X X X X X X X X X X X X X X X X X X X X X X X X X X X X X X X X X",
" X X X X X X X X X X X X X X X X X X X X X X X X X X X X X X X X X X X X                     X X X X X X X X X X X X X X X X X X",
" X X X X X X X X X X X X X X X X X X X X X X X X X X X X X X X X X X X X; ; & # # + # @ # +  X X X X X X X X X X X X X X X X X X",
" X X X X X X X X X X X X X X X X X X X X X X X X X X X X X X X X X X  ; ( { K C V e e e e 5 O    X X X X X X X X X X X X X X X X",
" X X X X X X X X X X X X X X X X X X X X X X X X X X X X X X X X X XX 7 $.3.X.Y I H H H I F 3 *  X X X X X X X X X X X X X X X X",
" X X X X X X X X X X X X X X X X X X X X X X X X X X X X X X X X  X 5 F ` O.X.Y I G H H Y ` $.( *    X X X X X X X X X X X X X X",
" X X X X X X X X X X X X X X X X X X X X X X X X X X X X X X X X+ < V I Y T X.X.U H H I Y O.y.*.h *  X X X X X X X X X X X X X X",
" X X X X X X X X X X X X X X X X X X X X X X X X X X X X X X  + 4 V F I Y X.0.;.` Y H H Y O.y.a.*.( ;    X X X X X X X X X X X X",
" X X X X X X X X X X X X X X X X X X X X X X X X X X X X X X  # e I I Y ' -.y.y.O.Y I Y ' -.y.a.x.%.;    X X X X X X X X X X X X",
" X X X X X X X X X X X X X X X X X X X X X X X X X X X X X X  # e I I X.;.y.a.t.O.Y Y X.0.k.a.a.x.#.*    X X X X X X X X X X X X",
" X X X X X X X X X X X X X X X X X X X X X X X X X X X X X X  @ e Y X.-.y.x.a.y.;.X.' O.v.N.n.x.x.#.6    X X X X X X X X X X X X",
" X X X X X X X X X X X X X X X X X X X X X X X X X X X X X X  # C ' ;.y.x.M.n.n.m.f.O.>.b.V.M.M.x.#.*    X X X X X X X X X X X X",
" X X X X X X X X X X X X X X X X X X X X X X X X X X X X X X  % J -.y.n.M.N.V.V.Y.m.>.O.b.I.P.N.M.*.;    X X X X X X X X X X X X",
" X X X X X X X X X X X X X X X X X X X X X X X X X X X X X X  ; { g.n.M.V.I.Y.Y.Y.C.>.>.b.Y.P.P.V.*.6    X X X X X X X X X X X X",
" X X X X X X X X X X X X X X X X X X X X X X X X X X X X X X  ; #.M.N.n.u.9.p.6.9.9.O.<.l.v.u.9.6.( *    X X X X X X X X X X X X",
" X X X X X X X X X X X X X X X X X X X X X X X X X X X X X X  ; #.N.I.i.h - ; ; ; h 9.b.<.` q * ; $      X X X X X X X X X X X X",
" X X X X X X X X X X X X X X X X X X X X X X X X X X X X X X  ; ( p.N.y.j > u i 0 b i.m.,.L q 0 u 8 o    X X X X X X X X X X X X",
" X X X X X X X X X X X X X X X X X X X X X X X X X X X X X X X X* h s.N.u.v.E.'.U.L.P.v.>.O.3.U.'.B.8    X X X X X X X X X X X X",
" X X X X X X X X X X X X X X X X X X X X X X X X X X X X X X X X  > 6.Y.Y.W.{.|.].).U.m.O.2.U.[.|.!.i    X X X X X X X X X X X X",
" X X X X X X X X X X X X X X X X X X X X X X X X X X X X X X X X  > q.Y.Y.Y.!.(.W.R.Y.b.O.>.A.W.(.s.6    X X X X X X X X X X X X",
" X X X X X X X X X X X X X X X X X X X X X X X X X X X X X X X X  > 6.Y.Y.Y.S.S.V.P.Y.m.w.<.h.m.N.7.:    X X X X X X X X X X X X",
" X X X X X X X X X X X X X X X X X X X X X X X X X X X X X X      ; %.N.P.I.P.I.V.Z.I.Z.B.h.<.<.v.*.:    X X X X X X X X X X X X",
" X X X X X X X X X X X X X X X X X X X X X X X X X X X X X Xo # o 6 { y.N.P.T.T.Y.Y.T.T.Y.B.r.e.j. .;    X X X X X X X X X X X X",
" X X X X X X X X X X X X X X X X X X X X X X X X X X X X  o t a p a m  .y.I.`.`.R.T.`.`.E.Y./.~.f.P %    X X X X X X X X X X X X",
" X X X X X X X X X X X X X X X X X X X X X X X X X X X X+ 2 s W K c f m &.x.(.`.!.!.^.^.!.(._.J.>.5 #    X X X X X X X X X X X X",
" X X X X X X X X X X X X X X X X X X X X X X X X X X  # 4 V G L K c c c E $.x.E.`.^.G.H./._.H.~ 1 #  X X X X X X X X X X X X X X",
" X X X X X X X X X X X X X X X X X X X X X X X X X X  # L >.H G K c c s f E =.x.).Q.F.F.K.K.~ M O    X X X X X X X X X X X X X X",
" X X X X X X X X X X X X X X X X X X X X X X X X X X  > 8.l.! G K R c c c c E $.n.z.~ D F.~ 1 @  X X X X X X X X X X X X X X X X",
" X X X X X X X X X X X X X X X X X X X X X X X X X X  > 7.u.@.@.Q R c c c c c E 8.0.~ A A N #    X X X X X X X X X X X X X X X X",
" X X X X X X X X X X X X X X X X X X X X X X X X X X X X: x q.c.+.R K c c c s c m E P L L g #    X X X X X X X X X X X X X X X X",
" X X X X X X X X X X X X X X X X X X X X X X X X X X X X  : 9.v.4.R R f c c c K ] ] n K E f : #  X X X X X X X X X X X X X X X X",
" X X X X X X X X X X X X X X X X X X X X X X X X X X X X  = m 5.| R c f c c f ] u.u.] c R m f y #    X X X X X X X X X X X X X X",
" X X X X X X X X X X X X X X X X X X X X X X X X X X X X  o a E W R c f c c E  .u.q.c a n Q Q d #    X X X X X X X X X X X X X X",
" X X X X X X X X X X X X X X X X X X X X X X X X X X X X  # s E W R f a g E q.u. .x = - x W Q d o    X X X X X X X X X X X X X X",
" X X X X X X X X X X X X X X X X X X X X X X X X X X X X  o y E R R c d y v 9.8.f - . o t n R f : o  X X X X X X X X X X X X X X",
" X X X X X X X X X X X X X X X X X X X X X X X X X X X X  o 9 c R E R c a a c i = .  X Xo : f R n t o    X X X X X X X X X X X X",
" X X X X X X X X X X X X X X X X X X X X X X X X X X X X% 3 a E 4.5.5.| v l s q : &  X X  # d Q W f - o  X X X X X X X X X X X X",
" X X X X X X X X X X X X X X X X X X X X X X X X      = z } o.e.v.B.B.c.;.o.o.o.} z %     # d E W R f t o    X X X X X X X X X X",
" X X X X X X X X X X X X X X X X X X X X X X X X# $ # 8 o.f.1.f.C.Z.S.m.d.2.<.1.e.} &     # t n | 8.8.E =    X X X X X X X X X X",
" X X X X X X X X X X X X X X X X X X X X X X  o y c c E -.w.e.e.j.l.j.3.;.-.-.1.e.) -    X Xo u q.S.S.8.:    X X X X X X X X X X",
" X X X X X X X X X X X X X X X X X X X X X X  = m 4.m E -.1.f.e.d.e.d.<.-.-.<.1.f.) =    X X  : 7.s.s.7.>    X X X X X X X X X X",
" X X X X X X X X X X X X X X X X X X X X X X  - 4.5.t 3 ] w.z.z.z.z.z.r.1.-.-.1.1.) &    X X X X: 6 6 >  X X X X X X X X X X X X",
" X X X X X X X X X X X X X X X X X X X X X X  - m m - $ a [ o.+.+.=.+.o._ ) -.1.1.o.q %  X X X X         X X X X X X X X X X X X",
" X X X X X X X X X X X X X X X X X X X X X X X X- -  X X% % ; : : ; : - % 7 [ 1.3.<.o.z %    X X X X X X X X X X X X X X X X X X",
" X X X X X X X X X X X X X X X X X X X X X X X X     X X                  % l o.;.f.l.} -    X X X X X X X X X X X X X X X X X X",
" X X X X X X X X X X X X X X X X X X X X X X X X X X X X X X X X X X X X X X% q 9.B.V.9.;    X X X X X X X X X X X X X X X X X X",
" X X X X X X X X X X X X X X X X X X X X X X X X X X X X X X X X X X X X X X  : 6.Y.Y.s.b :  X X X X X X X X X X X X X X X X X X",
" X X X X X X X X X X X X X X X X X X X X X X X X X X X X X X X X X X X XD.B @ ; 6.Y.T.Y.n.7.>    X X X X X X X X X X X X X X X X",
" X X X X X X X X X X X X X X X X X X X X X X X X X X X X X X X X X X X XS B @ = ..s.n.B.B.6.-    X X X X X X X X X X X X X X X X",
" X X X X X X X X X X X X X X X X X X X X X X X X X X X X X X X X X X X X X, . o 6 h h j x 0 o    X X X X X X X X X X X X X X X X",
" X X X X X X X X X X X X X X X X X X X X X X X X X X X X X X X X X X X X X X X X X X X X X X X X X X X X X X X X X X X X X X X X",
" X X X X X X X X X X X X X X X X X X X X X X X X X X X X X X X X X X X X X X X X X X X X X X X X X X X X X X X X X X X X X X X X",
" X X X X X X X X X X X X X X X X X X X X X X X X X X X X X X X X X X X X X X X X X X X X X X X X X X X X X X X X X X X X X X X X"
};
