/* XPM */
static char *result[] = {
/* columns rows colors chars-per-pixel */
"64 64 129 2 ",
"   c #000000",
".  c #090707",
"X  c #0A0807",
"o  c #0C0A09",
"O  c #130705",
"+  c #110807",
"@  c #1E0A04",
"#  c #120C09",
"$  c #13140E",
"%  c #18160F",
"&  c #151512",
"*  c #1A1614",
"=  c #161B12",
"-  c #181C14",
";  c #1C1F18",
":  c #290F08",
">  c #251E1B",
",  c #301914",
"<  c #252217",
"1  c #25241B",
"2  c #29231D",
"3  c #362219",
"4  c #3D221A",
"5  c #342F1F",
"6  c #28301F",
"7  c #2E2622",
"8  c #2F2D23",
"9  c #312723",
"0  c #342A25",
"q  c #372D28",
"w  c #392E29",
"e  c #2E3428",
"r  c #353020",
"t  c #383323",
"y  c #3D322C",
"u  c #3F392F",
"i  c #3D3735",
"p  c #3F3933",
"a  c #561F10",
"s  c #432A1F",
"d  c #5E2212",
"f  c #672614",
"g  c #682614",
"h  c #542F24",
"j  c #463626",
"k  c #413B2D",
"l  c #4C3F2C",
"z  c #553025",
"x  c #583427",
"c  c #563528",
"v  c #593629",
"b  c #573C2C",
"n  c #5A3A2B",
"m  c #403630",
"M  c #433E33",
"N  c #493E34",
"B  c #37432B",
"V  c #38432C",
"C  c #3C4533",
"Z  c #3F4931",
"A  c #4B452E",
"S  c #5A422F",
"D  c #474137",
"F  c #4D4632",
"G  c #4C4933",
"H  c #4D453D",
"J  c #444C39",
"K  c #554332",
"L  c #5C4432",
"P  c #554D35",
"I  c #5E4A35",
"U  c #504F3F",
"Y  c #465537",
"T  c #475638",
"R  c #4A563A",
"E  c #4C5B3D",
"W  c #5D543A",
"Q  c #55583C",
"!  c #5D5A3D",
"~  c #604A37",
"^  c #624D39",
"/  c #61543D",
"(  c #645B3E",
")  c #4F4643",
"_  c #504743",
"`  c #524945",
"'  c #4E5341",
"]  c #4D5A40",
"[  c #555342",
"{  c #535D46",
"}  c #5A5F4A",
"|  c #635740",
" . c #655C41",
".. c #685F44",
"X. c #62574E",
"o. c #675C4D",
"O. c #6A5F54",
"+. c #576444",
"@. c #5C6442",
"#. c #5C6C46",
"$. c #5C634B",
"%. c #5F694F",
"&. c #5E734B",
"*. c #5F6350",
"=. c #676347",
"-. c #686042",
";. c #626947",
":. c #626748",
">. c #69664A",
",. c #656B4C",
"<. c #6A684A",
"1. c #61754D",
"2. c #606451",
"3. c #656E55",
"4. c #6A6F51",
"5. c #6E625D",
"6. c #657453",
"7. c #6C7355",
"8. c #677854",
"9. c #697A57",
"0. c #6A765B",
"q. c #6D7D5B",
"w. c #747E5F",
"e. c #6F805E",
"r. c #70805F",
"t. c #738363",
"y. c #778867",
"u. c #798869",
"i. c None",
/* pixels */
"i.i.i.i.i.i.i.i.i.i.i.i.i.i.i.i.i.i.i.i.i.i.i.i.i.i.i.i.i.i.i.i.i.i.i.i.i.i.i.i.i.i.i.i.i.i.i.i.i.i.i.i.i.i.i.i.i.i.i.i.i.i.i.i.",
"i.i.i.i.i.i.i.i.i.i.i.i.i.i.i.i.i.i.i.i.i.i.i.i.i.i.i.i.i.i.i.i.i.i.i.i.i.i.i.i.i.i.i.i.i.i.i.i.i.i.i.i.i.i.i.i.i.i.i.i.i.i.i.i.",
"i.i.i.i.i.i.i.i.i.i.i.i.i.i.i.i.i.i.i.i.i.i.i.i.i.i.i.i.i.i.i.i.i.i.i.i.i.i.i.i.i.i.i.i.i.i.i.i.i.i.i.i.i.i.i.i.i.i.i.i.i.i.i.i.",
"i.i.i.i.i.i.i.i.i.i.i.i.i.i.i.i.i.i.i.i.i.i.i.i.i.i.i.i.i.i.i.i.i.i.i.i.i.i.i.i.i.i.i.i.i.i.i.i.i.i.i.i.i.i.i.i.i.i.i.i.i.i.i.i.",
"i.i.i.i.i.i.i.i.i.i.i.i.i.i.i.i.i.i.i.i.i.i.i.i.i.i.i.i.i.i.i.i.i.i.i.i.i.i.i.i.i.i.i.i.i.i.i.i.i.i.i.i.i.i.i.i.i.i.i.i.i.i.i.i.",
"i.i.i.i.i.i.i.i.i.i.i.i.i.i.i.i.i.i.i.i.i.i.i.i.i.i.i.i.i.i.i.i.i.i.i.i.i.i.i.i.i.i.i.i.i.i.i.i.i.i.i.i.i.i.i.i.i.i.i.i.i.i.i.i.",
"i.i.i.i.i.i.i.i.i.i.i.i.i.i.i.i.i.i.i.i.i.i.i.i.i.i.i.i.i.i.i.i.i.i.i.i.i.i.i.i.i.i.i.i.i.i.i.i.i.i.i.i.i.i.i.i.i.i.i.i.i.i.i.i.",
"i.i.i.i.i.i.i.i.i.i.i.i.i.i.i.i.i.i.i.i.i.i.i.i.i.i.i.i.i.i.i.i.i.i.i.i.i.i.i.i.i.i.i.i.i.i.i.i.i.i.i.i.i.i.i.i.i.i.i.i.i.i.i.i.",
"i.i.i.i.i.i.i.i.i.i.i.i.i.i.i.i.i.i.i.i.i.i.i.i.i.i.i.i.i.i.i.i.i.i.i.i.i.i.i.i.i.i.i.i.i.i.i.i.i.i.i.i.i.i.i.i.i.i.i.i.i.i.i.i.",
"i.i.i.i.i.i.i.i.i.i.i.i.i.i.i.i.i.i.i.i.i.i.i.i.i.i.i.i.i.i.i.i.i.i.i.i.i.i.i.i.i.i.i.i.i.i.i.i.i.i.i.i.i.i.i.i.i.i.i.i.i.i.i.i.",
"i.i.i.i.i.i.i.i.i.i.i.i.i.i.i.i.i.i.i.i.i.i.                    i.i.i.i.i.i.i.i.i.i.i.i.i.i.i.i.i.i.i.i.i.i.i.i.i.i.i.i.i.i.i.i.",
"i.i.i.i.i.i.i.i.i.i.i.i.i.i.i.i.i.i.i.i.i.i.# $ # # O # # # # O i.i.i.i.i.i.i.i.i.i.i.i.i.i.i.i.i.i.i.i.i.i.i.i.i.i.i.i.i.i.i.i.",
"i.i.i.i.i.i.i.i.i.i.i.i.i.i.i.i.i.i.i.i.  + 3 s s , s s 4 4 , , +   i.i.i.i.i.i.i.i.i.i.i.i.i.i.i.i.i.i.i.i.i.i.i.i.i.i.i.i.i.i.",
"i.i.i.i.i.i.i.i.i.i.i.i.i.i.i.i.i.i.i.i.$ 2 A L v h h h h x n l 1 $ i.i.i.i.i.i.i.i.i.i.i.i.i.i.i.i.i.i.i.i.i.i.i.i.i.i.i.i.i.i.",
"i.i.i.i.i.i.i.i.i.i.i.i.i.i.i.i.i.i.  = B E @.! L v h h x S ! +.E B =   i.i.i.i.i.i.i.i.i.i.i.i.i.i.i.i.i.i.i.i.i.i.i.i.i.i.i.i.",
"i.i.i.i.i.i.i.i.i.i.i.i.i.i.i.i.i.i.$ 6 E 1.1.@.I v z h S W #.1.1.E 6 $ i.i.i.i.i.i.i.i.i.i.i.i.i.i.i.i.i.i.i.i.i.i.i.i.i.i.i.i.",
"i.i.i.i.i.i.i.i.i.i.i.i.i.i.i.i.  = V E #.&.&.#.I b v L ! #.&.&.1.#.E B =   i.i.i.i.i.i.i.i.i.i.i.i.i.i.i.i.i.i.i.i.i.i.i.i.i.i.",
"i.i.i.i.i.i.i.i.i.i.i.i.i.i.i.i.  = T 1.1.&.1.@.I b L W ;.&.&.&.&.1.1.T =   i.i.i.i.i.i.i.i.i.i.i.i.i.i.i.i.i.i.i.i.i.i.i.i.i.i.",
"i.i.i.i.i.i.i.i.i.i.i.i.i.i.i.i.  = T 1.1.&.&.@.L L  .3.6.6.&.&.&.&.1.T =   i.i.i.i.i.i.i.i.i.i.i.i.i.i.i.i.i.i.i.i.i.i.i.i.i.i.",
"i.i.i.i.i.i.i.i.i.i.i.i.i.i.i.i.  = Y 1.&.1.1.@.I I ,.q.9.8.1.&.&.&.1.Y =   i.i.i.i.i.i.i.i.i.i.i.i.i.i.i.i.i.i.i.i.i.i.i.i.i.i.",
"i.i.i.i.i.i.i.i.i.i.i.i.i.i.i.i.  = Y 1.&.1.6.;.I I 4.q.r.q.8.6.&.1.1.T =   i.i.i.i.i.i.i.i.i.i.i.i.i.i.i.i.i.i.i.i.i.i.i.i.i.i.",
"i.i.i.i.i.i.i.i.i.i.i.i.i.i.i.i.  = Y 1.1.1.9.,.I ^ 4.t.t.q.9.8.1.1.1.Y =   i.i.i.i.i.i.i.i.i.i.i.i.i.i.i.i.i.i.i.i.i.i.i.i.i.i.",
"i.i.i.i.i.i.i.i.i.i.i.i.i.i.i.i.  = Y 1.6.8.q.7.I I 4.t.r.r.q.q.8.6.1.Y =   i.i.i.i.i.i.i.i.i.i.i.i.i.i.i.i.i.i.i.i.i.i.i.i.i.i.",
"i.i.i.i.i.i.i.i.i.i.i.i.i.i.i.i.  = T 6.9.9.7.=./ | 7.r.r.r.t.q.9.9.6.T =   i.i.i.i.i.i.i.i.i.i.i.i.i.i.i.i.i.i.i.i.i.i.i.i.i.i.",
"i.i.i.i.i.i.i.i.i.i.i.i.i.i.i.i.  - E 9.q.7.| ^ >.7.w.q.t.q.t.r.e.e.9.E -   i.i.i.i.i.i.i.i.i.i.i.i.i.i.i.i.i.i.i.i.i.i.i.i.i.i.",
"i.i.i.i.i.i.i.i.i.i.i.i.i.i.i.i.  - ] 9.7.>.| | 0.t.t.t.t.t.e.r.r.r.q.] -   i.i.i.i.i.i.i.i.i.i.i.i.i.i.i.i.i.i.i.i.i.i.i.i.i.i.",
"i.i.i.i.i.i.i.i.i.i.i.i.i.i.i.i.  - E 4.| / >.7.w.y.y.t.t.t.w.t.r.e.q.E -   i.i.i.i.i.i.i.i.i.i.i.i.i.i.i.i.i.i.i.i.i.i.i.i.i.i.",
"i.i.i.i.i.i.i.i.i.i.i.i.i.i.i.i.  - ] ,.^ ^ 4.t.y.u.y.u.u.t.r.q.r.e.9.E -   i.i.i.i.i.i.i.i.i.i.i.i.i.i.i.i.i.i.i.i.i.i.i.i.i.i.",
"i.i.i.i.i.i.i.i.i.i.i.i.i.i.i.i.  - ] ,.I I 4.t.y.u.u.u.u.u.t.t.r.r.q.] -   i.i.i.i.i.i.i.i.i.i.i.i.i.i.i.i.i.i.i.i.i.i.i.i.i.i.",
"i.i.i.i.i.i.i.i.i.i.i.i.i.i.i.i.  - E ,.I ^ 7.q.0.3.7.3.3.0.q.e.r.e.9.E =   i.i.i.i.i.i.i.i.i.i.i.i.i.i.i.i.i.i.i.i.i.i.i.i.i.i.",
"i.i.i.i.i.i.i.i.i.i.i.i.i.i.i.i.  = E ;.I ^ 7.8.' M M M M ` 6.w.e.9.6.T =   i.i.i.i.i.i.i.i.i.i.i.i.i.i.i.i.i.i.i.i.i.i.i.i.i.i.",
"i.i.i.i.i.i.i.i.i.i.i.i.i.i.i.i.  = Z Q K K o.{ i 9 9 0 9 i { 3.%.+.+.Z $   i.i.i.i.i.i.i.i.i.i.i.i.i.i.i.i.i.i.i.i.i.i.i.i.i.i.",
"i.i.i.i.i.i.i.i.i.i.i.i.i.i.i.i.  # 0 k w m M k q 0 0 0 9 w p M k D M 8 #   i.i.i.i.i.i.i.i.i.i.i.i.i.i.i.i.i.i.i.i.i.i.i.i.i.i.",
"i.i.i.i.i.i.i.i.i.i.i.i.i.i.i.i.  o < 0 0 9 0 0 0 0 0 0 q 0 9 0 9 9 0 > o   i.i.i.i.i.i.i.i.i.i.i.i.i.i.i.i.i.i.i.i.i.i.i.i.i.i.",
"i.i.i.i.i.i.i.i.i.i.i.i.i.i.i.i.  o > 0 0 0 0 0 0 0 q 9 0 0 9 0 0 9 0 < o   i.i.i.i.i.i.i.i.i.i.i.i.i.i.i.i.i.i.i.i.i.i.i.i.i.i.",
"i.i.i.i.i.i.i.i.i.i.i.i.i.i.i.i.X $ 2 0 0 0 r 0 0 0 0 0 0 0 q 0 0 q q < o   i.i.i.i.i.i.i.i.i.i.i.i.i.i.i.i.i.i.i.i.i.i.i.i.i.i.",
"i.i.i.i.i.i.i.i.i.i.i.i.i.i.  . * > 0 q 0 0 0 0 0 0 0 0 0 q 9 0 0 0 q > o   i.i.i.i.i.i.i.i.i.i.i.i.i.i.i.i.i.i.i.i.i.i.i.i.i.i.",
"i.i.i.i.i.i.i.i.i.i.i.i.i.i.  o > 0 0 0 0 0 0 0 0 0 0 0 9 q 0 0 0 q 9 2 o   i.i.i.i.i.i.i.i.i.i.i.i.i.i.i.i.i.i.i.i.i.i.i.i.i.i.",
"i.i.i.i.i.i.i.i.i.i.i.i.i.i.  o > 0 0 9 0 0 0 0 0 0 0 q q 9 9 q 0 0 9 > o   i.i.i.i.i.i.i.i.i.i.i.i.i.i.i.i.i.i.i.i.i.i.i.i.i.i.",
"i.i.i.i.i.i.i.i.i.i.i.i.i.i.  X > 9 9 9 0 0 0 0 0 0 0 0 9 9 q 0 0 0 9 > o   i.i.i.i.i.i.i.i.i.i.i.i.i.i.i.i.i.i.i.i.i.i.i.i.i.i.",
"i.i.i.i.i.i.i.i.i.i.i.i.i.i.  o > 9 9 9 7 9 9 0 0 0 0 0 0 0 0 9 9 9 9 > o   i.i.i.i.i.i.i.i.i.i.i.i.i.i.i.i.i.i.i.i.i.i.i.i.i.i.",
"i.i.i.i.i.i.i.i.i.i.i.i.i.i.  o > 7 2 > > > 9 w q q q w k m y 0 9 2 2 * o   i.i.i.i.i.i.i.i.i.i.i.i.i.i.i.i.i.i.i.i.i.i.i.i.i.i.",
"i.i.i.i.i.i.i.i.i.i.i.i.i.i.  . > > & . . & 7 y w w q M } } M w 9 > & . i.i.i.i.i.i.i.i.i.i.i.i.i.i.i.i.i.i.i.i.i.i.i.i.i.i.i.i.",
"i.i.i.i.i.i.i.i.i.i.i.i.i.i.o & 7 > .     o 7 y w i M [ :.} D w 0 > X   i.i.i.i.i.i.i.i.i.i.i.i.i.i.i.i.i.i.i.i.i.i.i.i.i.i.i.i.",
"i.i.i.i.i.i.i.i.i.i.i.i.  . * 7 7 > o     # 7 y w M } *.[ M m w q > o   i.i.i.i.i.i.i.i.i.i.i.i.i.i.i.i.i.i.i.i.i.i.i.i.i.i.i.i.",
"i.i.i.i.i.i.i.i.i.i.i.i.  . > 9 9 > o     o 7 m ) [ 0.0.[ N m w 9 > o   i.i.i.i.i.i.i.i.i.i.i.i.i.i.i.i.i.i.i.i.i.i.i.i.i.i.i.i.",
"i.i.i.i.i.i.i.i.i.i.i.i.  o > 8 9 > o     o 9 ) 2.0.t.t.0.2.H y q > o   i.i.i.i.i.i.i.i.i.i.i.i.i.i.i.i.i.i.i.i.i.i.i.i.i.i.i.i.",
"i.i.i.i.i.i.i.i.i.i.i.i.  o 8 p M 8 o . # < u [ 7.w.w.w.w.7.[ N m 2 o   i.i.i.i.i.i.i.i.i.i.i.i.i.i.i.i.i.i.i.i.i.i.i.i.i.i.i.i.",
"i.i.i.i.i.i.i.i.i.i.i.i.  & J %.%.J = o t P W ! =.<.>.=.,.=.! W W k $   i.i.i.i.i.i.i.i.i.i.i.i.i.i.i.i.i.i.i.i.i.i.i.i.i.i.i.i.",
"i.i.i.i.i.i.i.i.i.i.i.i.  = C { ] C $ $ G -.-.( ( ( ( ( ( (  . .( A %   i.i.i.i.i.i.i.i.i.i.i.i.i.i.i.i.i.i.i.i.i.i.i.i.i.i.i.i.",
"i.i.i.i.i.i.i.i.i.i.i.i.i.i.= - - & . % A -.( ( ( W ( W ( ( ( ( -.A %   i.i.i.i.i.i.i.i.i.i.i.i.i.i.i.i.i.i.i.i.i.i.i.i.i.i.i.i.",
"i.i.i.i.i.i.i.i.i.i.i.i.i.i.          % F -.( ( ( W A A W  . . ...F &   i.i.i.i.i.i.i.i.i.i.i.i.i.i.i.i.i.i.i.i.i.i.i.i.i.i.i.i.",
"i.i.i.i.i.i.i.i.i.i.i.i.i.i.i.i.i.i.  % A ( ! ! / A < < A ( o.5.5.H &   i.i.i.i.i.i.i.i.i.i.i.i.i.i.i.i.i.i.i.i.i.i.i.i.i.i.i.i.",
"i.i.i.i.i.i.i.i.i.i.i.i.i.i.i.i.i.i.  % A ( / I A 5 $ o 0 F X.5.5.H *   i.i.i.i.i.i.i.i.i.i.i.i.i.i.i.i.i.i.i.i.i.i.i.i.i.i.i.i.",
"i.i.i.i.i.i.i.i.i.i.i.i.i.i.i.i.i.i.  % A -. .G < $ i.i.# 2 ` 5.5._ *   i.i.i.i.i.i.i.i.i.i.i.i.i.i.i.i.i.i.i.i.i.i.i.i.i.i.i.i.",
"i.i.i.i.i.i.i.i.i.i.i.i.i.i.i.i.i.i.  % G =.>.J =   i.i.  & p ` ` m *   i.i.i.i.i.i.i.i.i.i.i.i.i.i.i.i.i.i.i.i.i.i.i.i.i.i.i.i.",
"i.i.i.i.i.i.i.i.i.i.i.i.i.i.i.i.i.i.  - E 7.0.] -   i.i.i.i.& & * & i.i.i.i.i.i.i.i.i.i.i.i.i.i.i.i.i.i.i.i.i.i.i.i.i.i.i.i.i.i.",
"i.i.i.i.i.i.i.i.i.i.i.i.i.i.i.i.i.i.  ; { t.t.{ ;   i.i.i.i.@ O     i.i.i.i.i.i.i.i.i.i.i.i.i.i.i.i.i.i.i.i.i.i.i.i.i.i.i.i.i.i.",
"i.i.i.i.i.i.i.i.i.i.i.i.i.i.i.i.i.i.  ; $.u.u.$.;   i.i.i.i.f a i.i.i.i.i.i.i.i.i.i.i.i.i.i.i.i.i.i.i.i.i.i.i.i.i.i.i.i.i.i.i.i.",
"i.i.i.i.i.i.i.i.i.i.i.i.i.i.i.i.i.i.  - ] 0.0.] -   i.i.i.i.g g i.i.i.i.i.i.i.i.i.i.i.i.i.i.i.i.i.i.i.i.i.i.i.i.i.i.i.i.i.i.i.i.",
"i.i.i.i.i.i.i.i.i.i.i.i.i.i.i.i.i.i.  o 1 e e 7 o   i.i.i.i.: : i.i.i.i.i.i.i.i.i.i.i.i.i.i.i.i.i.i.i.i.i.i.i.i.i.i.i.i.i.i.i.i.",
"i.i.i.i.i.i.i.i.i.i.i.i.i.i.i.i.i.i.i.i.i.i.i.i.i.i.i.i.i.i.i.i.i.i.i.i.i.i.i.i.i.i.i.i.i.i.i.i.i.i.i.i.i.i.i.i.i.i.i.i.i.i.i.i.",
"i.i.i.i.i.i.i.i.i.i.i.i.i.i.i.i.i.i.i.i.i.i.i.i.i.i.i.i.i.i.i.i.i.i.i.i.i.i.i.i.i.i.i.i.i.i.i.i.i.i.i.i.i.i.i.i.i.i.i.i.i.i.i.i.",
"i.i.i.i.i.i.i.i.i.i.i.i.i.i.i.i.i.i.i.i.i.i.i.i.i.i.i.i.i.i.i.i.i.i.i.i.i.i.i.i.i.i.i.i.i.i.i.i.i.i.i.i.i.i.i.i.i.i.i.i.i.i.i.i."
};
