/* XPM */
static char *result[] = {
/* columns rows colors chars-per-pixel */
"64 64 179 2 ",
"   c #000000",
".  c #0A0605",
"X  c #0E0B0A",
"o  c #190703",
"O  c #1A0904",
"+  c #130C0A",
"@  c #0F120D",
"#  c #13140D",
"$  c #18160F",
"%  c #13180F",
"&  c #161510",
"*  c #191612",
"=  c #161A11",
"-  c #1A1B15",
";  c #1F1C1A",
":  c #240D07",
">  c #241B14",
",  c #2A1814",
"<  c #241C1A",
"1  c #301710",
"2  c #1E2119",
"3  c #24231A",
"4  c #2A241D",
"5  c #25291C",
"6  c #2C2A1D",
"7  c #242116",
"8  c #362219",
"9  c #3D231B",
"0  c #28301F",
"q  c #262420",
"w  c #292320",
"e  c #272820",
"r  c #2B2A22",
"t  c #332925",
"y  c #362D29",
"u  c #392F2A",
"i  c #2C3325",
"p  c #3B3725",
"a  c #333E27",
"s  c #37302D",
"d  c #3C322C",
"f  c #3D392E",
"g  c #3F3530",
"h  c #3F3E32",
"j  c #4A190C",
"k  c #501C0E",
"l  c #422A1F",
"z  c #5E2B1E",
"x  c #6E2E1D",
"c  c #7E311B",
"v  c #452D24",
"b  c #522E24",
"n  c #4B3224",
"m  c #42342B",
"M  c #4D3329",
"N  c #433D2B",
"B  c #4C3C2A",
"V  c #463626",
"C  c #553126",
"Z  c #55352A",
"A  c #593729",
"S  c #55392B",
"D  c #5B3A2B",
"F  c #413632",
"G  c #453B35",
"H  c #483C37",
"J  c #473F3B",
"K  c #602F22",
"L  c #683725",
"P  c #36422A",
"I  c #38432D",
"U  c #47412F",
"Y  c #4B442E",
"T  c #5C422F",
"R  c #4C4631",
"E  c #4D4932",
"W  c #4B463B",
"Q  c #464C32",
"!  c #5D4633",
"~  c #524C34",
"^  c #5D4935",
"/  c #534C3B",
"(  c #584F38",
")  c #465537",
"_  c #495437",
"`  c #475638",
"'  c #49563B",
"]  c #4C5A3C",
"[  c #565039",
"{  c #5C533A",
"}  c #51583F",
"|  c #5E5A3D",
" . c #77442E",
".. c #78452F",
"X. c #7A4126",
"o. c #604B36",
"O. c #624C39",
"+. c #62553D",
"@. c #635B3E",
"#. c #67533A",
"$. c #656F3E",
"%. c #4E4540",
"&. c #524B43",
"*. c #544C48",
"=. c #4F5C42",
"-. c #535142",
";. c #5C5741",
":. c #545C45",
">. c #585E4A",
",. c #5E5450",
"<. c #614740",
"1. c #634B43",
"2. c #645740",
"3. c #655D41",
"4. c #6C5E44",
"5. c #5C6645",
"6. c #5C6A46",
"7. c #556248",
"8. c #5A664C",
"9. c #5D6A4D",
"0. c #546344",
"q. c #5E734A",
"w. c #5F6A50",
"e. c #696244",
"r. c #616C47",
"t. c #66654A",
"y. c #6B644A",
"u. c #656C4D",
"i. c #6E694D",
"p. c #666644",
"a. c #716A4D",
"s. c #61754C",
"d. c #636C52",
"f. c #6A6E52",
"g. c #647452",
"h. c #6B7254",
"j. c #667953",
"k. c #687A56",
"l. c #6B735B",
"z. c #6D7C5B",
"x. c #737658",
"c. c #757C5C",
"v. c #717953",
"b. c #717A60",
"n. c #83432A",
"m. c #895E41",
"M. c #8B6243",
"N. c #8B7959",
"B. c #927655",
"V. c #6B814C",
"C. c #6F815D",
"Z. c #758854",
"A. c #71815E",
"S. c #7D8A53",
"D. c #738361",
"F. c #788765",
"G. c #778B61",
"H. c #7B8A64",
"J. c #7A8B68",
"K. c #7E9267",
"L. c #8F835D",
"P. c #878161",
"I. c #838D67",
"U. c #888967",
"Y. c #848B6B",
"T. c #948B67",
"R. c #938E69",
"E. c #82916C",
"W. c #8A936F",
"Q. c #839C60",
"!. c #95916B",
"~. c #8D9671",
"^. c #8E9A72",
"/. c #909C73",
"(. c #95AC6F",
"). c #95AE70",
"_. c #A2AD89",
"`. c #A9B78A",
"'. c None",
/* pixels */
"'.'.'.'.'.'.'.'.'.'.'.'.'.'.'.'.'.'.'.'.'.'.'.'.'.'.'.'.'.'.'.'.'.'.'.'.'.'.'.'.'.'.'.'.'.'.'.'.'.'.'.'.'.'.'.'.'.'.'.'.'.'.'.'.",
"'.'.'.'.'.'.'.'.'.'.'.'.'.'.'.'.'.'.'.'.'.'.'.'.'.'.'.'.'.'.'.'.'.'.'.'.'.'.'.'.'.'.'.'.'.'.'.'.'.'.'.'.'.'.'.'.'.'.'.'.'.'.'.'.",
"'.'.'.'.'.'.'.'.'.'.'.'.'.'.'.'.'.'.'.'.'.'.'.'.'.'.'.'.'.'.'.'.'.'.'.'.'.'.'.'.'.'.'.'.'.'.'.'.'.'.'.'.'.'.'.'.'.'.'.'.'.'.'.'.",
"'.'.'.'.'.'.'.'.'.'.'.'.'.'.'.'.'.'.'.'.'.'.'.'.'.'.'.'.'.'.'.'.'.'.'.'.'.'.'.'.'.'.'.'.'.'.'.'.'.'.'.'.'.'.'.'.'.'.'.'.'.'.'.'.",
"'.'.'.'.'.'.'.'.'.'.'.'.'.'.'.'.'.'.'.'.'.'.'.'.'.'.'.'.'.'.'.'.'.'.'.'.'.'.'.'.'.'.'.'.'.'.'.'.'.'.'.'.'.'.'.'.'.'.'.'.'.'.'.'.",
"'.'.'.'.'.'.'.'.'.'.'.'.'.'.'.'.'.'.'.'.'.'.'.'.'.'.'.'.'.'.'.'.'.'.'.'.'.'.'.'.'.'.'.'.'.'.'.'.'.'.'.'.'.'.'.'.'.'.'.'.'.'.'.'.",
"'.'.'.'.'.'.'.'.'.'.'.'.'.'.'.'.'.'.'.'.'.'.'.'.'.'.'.'.'.'.'.'.'.'.'.'.'.'.'.'.'.'.'.'.'.'.'.'.'.'.'.'.'.'.'.'.'.'.'.'.'.'.'.'.",
"'.'.'.'.'.'.'.'.'.'.'.'.'.'.'.'.'.'.'.'.'.'.'.'.'.'.'.'.'.'.'.'.'.'.'.'.'.'.'.'.'.'.'.'.'.'.'.'.'.'.'.'.'.'.'.'.'.'.'.'.'.'.'.'.",
"'.'.'.'.'.'.'.'.'.'.'.'.'.'.'.'.'.'.'.'.'.'.'.'.'.'.'.'.'.'.'.'.'.'.'.'.'.'.'.'.'.'.'.'.'.'.'.'.'.'.'.'.'.'.'.'.'.'.'.'.'.'.'.'.",
"'.'.'.'.'.'.'.'.'.'.'.'.'.'.'.'.'.'.'.'.'.'.'.'.'.'.'.'.'.'.'.'.'.'.'.'.'.'.'.'.'.'.'.'.'.'.'.'.'.'.'.'.'.'.'.'.'.'.'.'.'.'.'.'.",
"'.'.'.'.'.'.'.'.'.'.'.'.'.'.'.'.'.'.'.'.'.'.'.'.'.'.                    '.'.'.'.'.'.'.'.'.'.'.'.'.'.'.'.'.'.'.'.'.'.'.'.'.'.'.'.",
"'.'.'.'.'.'.'.'.'.'.'.'.'.'.'.'.'.'.'.'.'.'.'.'.'.'.+ + + + + + + + + + '.'.'.'.'.'.'.'.'.'.'.'.'.'.'.'.'.'.'.'.'.'.'.'.'.'.'.'.",
"'.'.'.'.'.'.'.'.'.'.'.'.'.'.'.'.'.'.'.'.'.'.'.'.  + 8 l 9 9 9 9 l n l 8 O   '.'.'.'.'.'.'.'.'.'.'.'.'.'.'.'.'.'.'.'.'.'.'.'.'.'.",
"'.'.'.'.'.'.'.'.'.'.'.'.'.'.'.'.'.'.'.'.'.'.'.'.+ , n D C b b C D T ! Y 5 % '.'.'.'.'.'.'.'.'.'.'.'.'.'.'.'.'.'.'.'.'.'.'.'.'.'.",
"'.'.'.'.'.'.'.'.'.'.'.'.'.'.'.'.'.'.'.'.'.'.  + 8 n S D C b b b A ! @.5.] P %   '.'.'.'.'.'.'.'.'.'.'.'.'.'.'.'.'.'.'.'.'.'.'.'.",
"'.'.'.'.'.'.'.'.'.'.'.'.'.'.'.'.'.'.'.'.'.'.+ > B ^ T D b b b A T { 5.s.s.} 0 % '.'.'.'.'.'.'.'.'.'.'.'.'.'.'.'.'.'.'.'.'.'.'.'.",
"'.'.'.'.'.'.'.'.'.'.'.'.'.'.'.'.'.'.'.'.  + 1 S | | ^ A b b C T | 6.q.q.q.q.] P =   '.'.'.'.'.'.'.'.'.'.'.'.'.'.'.'.'.'.'.'.'.'.",
"'.'.'.'.'.'.'.'.'.'.'.'.'.'.'.'.'.'.'.'.  # V @.r.5.^ A C A ! { 6.q.q.q.q.s.s.] =   '.'.'.'.'.'.'.'.'.'.'.'.'.'.'.'.'.'.'.'.'.'.",
"'.'.'.'.'.'.'.'.'.'.'.'.'.'.'.'.'.'.'.'.  % Q 6.s.5.^ D A ! ;.u.s.q.q.q.q.q.s.` =   '.'.'.'.'.'.'.'.'.'.'.'.'.'.'.'.'.'.'.'.'.'.",
"'.'.'.'.'.'.'.'.'.'.'.'.'.'.'.'.'.'.'.'.  2 ` s.s.6.^ D ! @.g.k.s.s.s.q.q.q.q.) =   '.'.'.'.'.'.'.'.'.'.'.'.'.'.'.'.'.'.'.'.'.'.",
"'.'.'.'.'.'.'.'.'.'.'.'.'.'.'.'.'.'.'.'.  = ` s.j.t.^ ^ t.h.z.z.g.g.g.s.s.q.s.` =   '.'.'.'.'.'.'.'.'.'.'.'.'.'.'.'.'.'.'.'.'.'.",
"'.'.'.'.'.'.'.'.'.'.'.'.'.'.'.'.'.'.'.'.  = ] j.z.u.^ ^ h.D.D.A.z.z.z.k.s.s.s.` =   '.'.'.'.'.'.'.'.'.'.'.'.'.'.'.'.'.'.'.'.'.'.",
"'.'.'.'.'.'.'.'.'.'.'.'.'.'.'.'.'.'.'.'.  = ] C.C.h.o.O.h.D.D.A.D.A.A.z.k.g.s.) =   '.'.'.'.'.'.'.'.'.'.'.'.'.'.'.'.'.'.'.'.'.'.",
"'.'.'.'.'.'.'.'.'.'.'.'.'.'.'.'.'.'.'.'.  & P =.:.;.{ +.t.d.8.:.:.:.7.8.g.k.j.` =   '.'.'.'.'.'.'.'.'.'.'.'.'.'.'.'.'.'.'.'.'.'.",
"'.'.'.'.'.'.'.'.'.'.'.'.'.'.'.'.'.'.'.'.  . @ = = i :.i.2.Y 4 = = = = i 9.C.j.` =   '.'.'.'.'.'.'.'.'.'.'.'.'.'.'.'.'.'.'.'.'.'.",
"'.'.'.'.'.'.'.'.'.'.'.'.'.'.'.'.'.'.'.'.  X 2 r 2 P w.h.O.n 6 5 r e - s w.k.0.I =   '.'.'.'.'.'.'.'.'.'.'.'.'.'.'.'.'.'.'.'.'.'.",
"'.'.'.'.'.'.'.'.'.'.'.'.'.'.'.'.'.'.'.'.  3 l.W.Z.V.C.h.^ ^ $.Z.W.J.d.8.k.8.i % '.'.'.'.'.'.'.'.'.'.'.'.'.'.'.'.'.'.'.'.'.'.'.'.",
"'.'.'.'.'.'.'.'.'.'.'.'.'.'.'.'.'.'.'.'.  r Y.`.).Q.A.f.^ #.S.).`._.E.D.D.7.-   '.'.'.'.'.'.'.'.'.'.'.'.'.'.'.'.'.'.'.'.'.'.'.'.",
"'.'.'.'.'.'.'.'.'.'.'.'.'.'.'.'.'.'.'.'.  2 9.Y.K.Z.A.f.o.O.x.K.E.E.F.D.D.7.-       '.'.'.'.'.'.'.'.'.'.'.'.'.'.'.'.'.'.'.'.'.'.",
"'.'.'.'.'.'.'.'.'.'.'.'.'.'.'.'.'.'.'.'.  - =.k.C.D.D.l.2.+.y.f.d.h.z.D.C.8.e X X X '.'.'.'.'.'.'.'.'.'.'.'.'.'.'.'.'.'.'.'.'.'.",
"'.'.'.'.'.'.'.'.'.'.'.'.'.'.'.'.'.'.'.'.  = ] k.b.C.C.z.h.t.+.^ ^ 2.h.C.k.7.h y y 4 X   '.'.'.'.'.'.'.'.'.'.'.'.'.'.'.'.'.'.'.'.",
"'.'.'.'.'.'.'.'.'.'.'.'.'.'.'.'.'.'.'.'.  - =.z.F.J.D.D.J.c.3.O.2.4.i.d.5.=.W H H d - X '.'.'.'.'.'.'.'.'.'.'.'.'.'.'.'.'.'.'.'.",
"'.'.'.'.'.'.'.'.'.'.'.'.'.'.'.'.'.'.'.'.  = ` C.~.^.F.J.^.~.x.x.U.N.4.^ W G G H H g s w X   '.'.'.'.'.'.'.'.'.'.'.'.'.'.'.'.'.'.",
"'.'.'.'.'.'.'.'.'.'.'.'.'.'.'.'.'.'.'.'.  % P 6.I./.E.I.T.R.Y.W.!.N.O.M m u F H H H H s * X '.'.'.'.'.'.'.'.'.'.'.'.'.'.'.'.'.'.",
"'.'.'.'.'.'.'.'.'.'.'.'.'.'.'.'.'.'.'.'.'.'.# i 6.S.^.R.m.M.T.R.M...S u u g F H H H H F s w +   '.'.'.'.'.'.'.'.'.'.'.'.'.'.'.'.",
"'.'.'.'.'.'.'.'.'.'.'.'.'.'.'.'.'.'.'.'.'.'.  # P 9.Y.L.n.n.B.B...K v g d d F g y y F H H s * X '.'.'.'.'.'.'.'.'.'.'.'.'.'.'.'.",
"'.'.'.'.'.'.'.'.'.'.'.'.'.'.'.'.'.'.'.'.'.'.'.'.@ i 6.a.c c n...A v u d d m g t * * u H J F u w @   '.'.'.'.'.'.'.'.'.'.'.'.'.'.",
"'.'.'.'.'.'.'.'.'.'.'.'.'.'.'.'.'.'.'.'.'.'.'.'.  % P _ L L L K v d d d u d u t * - s H J F d 4 +   '.'.'.'.'.'.'.'.'.'.'.'.'.'.",
"'.'.'.'.'.'.'.'.'.'.'.'.'.'.'.'.'.'.'.'.'.'.'.'.'.'.% 7 m Z M v g u d d u u F g y u F H H u ; X '.'.'.'.'.'.'.'.'.'.'.'.'.'.'.'.",
"'.'.'.'.'.'.'.'.'.'.'.'.'.'.'.'.'.'.'.'.'.'.'.'.'.'.  X w y g g u u d d H W / *.-.W d t y w X   '.'.'.'.'.'.'.'.'.'.'.'.'.'.'.'.",
"'.'.'.'.'.'.'.'.'.'.'.'.'.'.'.'.'.'.'.'.'.'.'.'.'.'.'.'.X - y F u t y F :.d.l.b.b.>.e X X + '.'.'.'.'.'.'.'.'.'.'.'.'.'.'.'.'.'.",
"'.'.'.'.'.'.'.'.'.'.'.'.'.'.'.'.'.'.'.'.'.'.'.'.'.'.'.'.  + y F u y t G w.z.l.d.d.-.-       '.'.'.'.'.'.'.'.'.'.'.'.'.'.'.'.'.'.",
"'.'.'.'.'.'.'.'.'.'.'.'.'.'.'.'.'.'.'.'.'.'.'.'.'.'.'.'.  @ y F y t t N w.d.' f e - '.'.'.'.'.'.'.'.'.'.'.'.'.'.'.'.'.'.'.'.'.'.",
"'.'.'.'.'.'.'.'.'.'.'.'.'.'.'.'.'.'.'.'.'.'.'.'.'.'.'.'.  . w y t t t f :.:.m < .   '.'.'.'.'.'.'.'.'.'.'.'.'.'.'.'.'.'.'.'.'.'.",
"'.'.'.'.'.'.'.'.'.'.'.'.'.'.'.'.'.'.'.'.'.'.'.'.'.'.'.'.    . * w t t y f f y < X   '.'.'.'.'.'.'.'.'.'.'.'.'.'.'.'.'.'.'.'.'.'.",
"'.'.'.'.'.'.'.'.'.'.'.'.'.'.'.'.'.'.'.'.'.'.'.'.'.'.'.'.$ $ # > y m m f f m m t X   '.'.'.'.'.'.'.'.'.'.'.'.'.'.'.'.'.'.'.'.'.'.",
"'.'.'.'.'.'.'.'.'.'.'.'.'.'.'.'.'.'.'.'.'.'.'.'.'.'.  # p E E E ( { ( ( ( ^ ( N #   '.'.'.'.'.'.'.'.'.'.'.'.'.'.'.'.'.'.'.'.'.'.",
"'.'.'.'.'.'.'.'.'.'.'.'.'.'.'.'.'.'.'.'.'.'.'.'.'.'.# 4 ~ e.@.e.@.@.@.@.@.$.3.~ 4 # '.'.'.'.'.'.'.'.'.'.'.'.'.'.'.'.'.'.'.'.'.'.",
"'.'.'.'.'.'.'.'.'.'.'.'.'.'.'.'.'.'.'.'.'.'.'.'.  # p ( @.@.@.3.@.@.+.+.@.@.@.@.( p #   '.'.'.'.'.'.'.'.'.'.'.'.'.'.'.'.'.'.'.'.",
"'.'.'.'.'.'.'.'.'.'.'.'.'.'.'.'.'.'.'.'.'.'.'.'.  $ Y @.3.@.@.@.@.@.{ { @.@.@.3.@.R $   '.'.'.'.'.'.'.'.'.'.'.'.'.'.'.'.'.'.'.'.",
"'.'.'.'.'.'.'.'.'.'.'.'.'.'.'.'.'.'.'.'.'.'.'.'.  $ Y e.3.3.3.2.@.@.| | @.@.3.3.e.Y $   '.'.'.'.'.'.'.'.'.'.'.'.'.'.'.'.'.'.'.'.",
"'.'.'.'.'.'.'.'.'.'.'.'.'.'.'.'.'.'.'.'.'.'.'.'.  $ E e.e.e.3.3.@.( Y Y | e.3.e.e.E $   '.'.'.'.'.'.'.'.'.'.'.'.'.'.'.'.'.'.'.'.",
"'.'.'.'.'.'.'.'.'.'.'.'.'.'.'.'.'.'.'.'.'.'.'.'.  - / a.a.i.i.e.@.Y 7 6 { a.i.a.a.~ &   '.'.'.'.'.'.'.'.'.'.'.'.'.'.'.'.'.'.'.'.",
"'.'.'.'.'.'.'.'.'.'.'.'.'.'.'.'.'.'.'.'.'.'.'.'.  $ N ;.y.i.i.y.@.N + + f ;.t.a.a.{ 6 # '.'.'.'.'.'.'.'.'.'.'.'.'.'.'.'.'.'.'.'.",
"'.'.'.'.'.'.'.'.'.'.'.'.'.'.'.'.'.'.'.'.'.'.'.'.'.'.& 6 / e.e.e.$.Y #   + r [ e.e.@.~ p #   '.'.'.'.'.'.'.'.'.'.'.'.'.'.'.'.'.'.",
"'.'.'.'.'.'.'.'.'.'.'.'.'.'.'.'.'.'.'.'.'.'.'.'.'.'.  # p ~ { { +.U $     # p ( | p.t.E =   '.'.'.'.'.'.'.'.'.'.'.'.'.'.'.'.'.'.",
"'.'.'.'.'.'.'.'.'.'.'.'.'.'.'.'.'.'.'.'.'.'.'.'.'.'.'.'.# < F / %.d @   '.'.& e ] s.u._ =   '.'.'.'.'.'.'.'.'.'.'.'.'.'.'.'.'.'.",
"'.'.'.'.'.'.'.'.'.'.'.'.'.'.'.'.'.'.'.'.'.'.'.'.'.'.'.'.o , G &.%.d &   '.'.  & I ] ] I =   '.'.'.'.'.'.'.'.'.'.'.'.'.'.'.'.'.'.",
"'.'.'.'.'.'.'.'.'.'.'.'.'.'.'.'.'.'.'.'.'.'.'.'.'.'.  : j C 1.,.&.s X   '.'.'.'.= = = = '.'.'.'.'.'.'.'.'.'.'.'.'.'.'.'.'.'.'.'.",
"'.'.'.'.'.'.'.'.'.'.'.'.'.'.'.'.'.'.'.'.'.'.'.'.'.'.  o k L <.*.W r X   '.'.'.'.        '.'.'.'.'.'.'.'.'.'.'.'.'.'.'.'.'.'.'.'.",
"'.'.'.'.'.'.'.'.'.'.'.'.'.'.'.'.'.'.'.'.'.'.'.'.'.'.  . : 1 4 q ; & .   '.'.'.'.        '.'.'.'.'.'.'.'.'.'.'.'.'.'.'.'.'.'.'.'.",
"'.'.'.'.'.'.'.'.'.'.'.'.'.'.'.'.'.'.'.'.'.'.'.'.'.'.'.'.'.'.'.'.'.'.'.'.'.'.'.'.'.'.'.'.'.'.'.'.'.'.'.'.'.'.'.'.'.'.'.'.'.'.'.'.",
"'.'.'.'.'.'.'.'.'.'.'.'.'.'.'.'.'.'.'.'.'.'.'.'.'.'.'.'.'.'.'.'.'.'.'.'.'.'.'.'.'.'.'.'.'.'.'.'.'.'.'.'.'.'.'.'.'.'.'.'.'.'.'.'.",
"'.'.'.'.'.'.'.'.'.'.'.'.'.'.'.'.'.'.'.'.'.'.'.'.'.'.'.'.'.'.'.'.'.'.'.'.'.'.'.'.'.'.'.'.'.'.'.'.'.'.'.'.'.'.'.'.'.'.'.'.'.'.'.'."
};
