/* XPM */
static char *result[] = {
/* columns rows colors chars-per-pixel */
"64 64 129 2 ",
"   c #000000",
".  c #0A0606",
"X  c #0A0807",
"o  c #0D0B0A",
"O  c #100706",
"+  c #110807",
"@  c #1C0905",
"#  c #120D0B",
"$  c #14140E",
"%  c #18160F",
"&  c #161411",
"*  c #1A1714",
"=  c #161A11",
"-  c #1A1C15",
";  c #1E1A19",
":  c #240D07",
">  c #2D1109",
",  c #291D12",
"<  c #251E1A",
"1  c #301914",
"2  c #1E2119",
"3  c #25231C",
"4  c #2A221D",
"5  c #2B291D",
"6  c #362219",
"7  c #3D221A",
"8  c #28301F",
"9  c #2B2421",
"0  c #2E2A22",
"q  c #302622",
"w  c #342A25",
"e  c #352D28",
"r  c #392F2A",
"t  c #363222",
"y  c #3B3625",
"u  c #3C3826",
"i  c #3C322D",
"p  c #3C392E",
"a  c #3D3632",
"s  c #3E3A31",
"d  c #511E10",
"f  c #4D2112",
"g  c #432A1F",
"h  c #632413",
"j  c #6D2816",
"k  c #542F24",
"l  c #463626",
"z  c #44362C",
"x  c #433F2F",
"c  c #4D3F2D",
"v  c #553025",
"b  c #583427",
"n  c #563528",
"m  c #593629",
"M  c #573C2C",
"N  c #5A3A2B",
"B  c #413632",
"V  c #443B34",
"C  c #483D37",
"Z  c #443C39",
"A  c #493D38",
"S  c #37432B",
"D  c #39432C",
"F  c #3E4733",
"G  c #47412F",
"H  c #4B452F",
"J  c #5A422F",
"K  c #454136",
"L  c #4C4631",
"P  c #404A35",
"I  c #4B4B32",
"U  c #49423B",
"Y  c #4F4E3F",
"T  c #5C4432",
"R  c #524C35",
"E  c #5D4935",
"W  c #534D3D",
"Q  c #465537",
"!  c #495337",
"~  c #475638",
"^  c #48543B",
"/  c #4C5B3C",
"(  c #54513D",
")  c #5B533C",
"_  c #5E5A3D",
"`  c #64543F",
"'  c #61593D",
"]  c #524C42",
"[  c #4E5A41",
"{  c #555345",
"}  c #5C5641",
"|  c #525A45",
" . c #5E534F",
".. c #5A5F4A",
"X. c #625740",
"o. c #665D41",
"O. c #685F41",
"+. c #665A56",
"@. c #556147",
"#. c #5C6442",
"$. c #5C6C46",
"%. c #5C654D",
"&. c #5E734B",
"*. c #5D6950",
"=. c #676645",
"-. c #696144",
";. c #656349",
":. c #6B654B",
">. c #646B4C",
",. c #6E684D",
"<. c #70694F",
"1. c #61754D",
"2. c #636C53",
"3. c #6B6D52",
"4. c #726C51",
"5. c #657353",
"6. c #6B7456",
"7. c #677855",
"8. c #697A57",
"9. c #697558",
"0. c #6D7D5B",
"q. c #717054",
"w. c #727B5C",
"e. c #727C61",
"r. c #6F805E",
"t. c #70815F",
"y. c #738362",
"u. c #798969",
"i. c None",
/* pixels */
"i.i.i.i.i.i.i.i.i.i.i.i.i.i.i.i.i.i.i.i.i.i.i.i.i.i.i.i.i.i.i.i.i.i.i.i.i.i.i.i.i.i.i.i.i.i.i.i.i.i.i.i.i.i.i.i.i.i.i.i.i.i.i.i.",
"i.i.i.i.i.i.i.i.i.i.i.i.i.i.i.i.i.i.i.i.i.i.i.i.i.i.i.i.i.i.i.i.i.i.i.i.i.i.i.i.i.i.i.i.i.i.i.i.i.i.i.i.i.i.i.i.i.i.i.i.i.i.i.i.",
"i.i.i.i.i.i.i.i.i.i.i.i.i.i.i.i.i.i.i.i.i.i.i.i.i.i.i.i.i.i.i.i.i.i.i.i.i.i.i.i.i.i.i.i.i.i.i.i.i.i.i.i.i.i.i.i.i.i.i.i.i.i.i.i.",
"i.i.i.i.i.i.i.i.i.i.i.i.i.i.i.i.i.i.i.i.i.i.i.i.i.i.i.i.i.i.i.i.i.i.i.i.i.i.i.i.i.i.i.i.i.i.i.i.i.i.i.i.i.i.i.i.i.i.i.i.i.i.i.i.",
"i.i.i.i.i.i.i.i.i.i.i.i.i.i.i.i.i.i.i.i.i.i.i.i.i.i.i.i.i.i.i.i.i.i.i.i.i.i.i.i.i.i.i.i.i.i.i.i.i.i.i.i.i.i.i.i.i.i.i.i.i.i.i.i.",
"i.i.i.i.i.i.i.i.i.i.i.i.i.i.i.i.i.i.i.i.i.i.i.i.i.i.i.i.i.i.i.i.i.i.i.i.i.i.i.i.i.i.i.i.i.i.i.i.i.i.i.i.i.i.i.i.i.i.i.i.i.i.i.i.",
"i.i.i.i.i.i.i.i.i.i.i.i.i.i.i.i.i.i.i.i.i.i.i.i.i.i.i.i.i.i.i.i.i.i.i.i.i.i.i.i.i.i.i.i.i.i.i.i.i.i.i.i.i.i.i.i.i.i.i.i.i.i.i.i.",
"i.i.i.i.i.i.i.i.i.i.i.i.i.i.i.i.i.i.i.i.i.i.i.i.i.i.i.i.i.i.i.i.i.i.i.i.i.i.i.i.i.i.i.i.i.i.i.i.i.i.i.i.i.i.i.i.i.i.i.i.i.i.i.i.",
"i.i.i.i.i.i.i.i.i.i.i.i.i.i.i.i.i.i.i.i.i.i.i.i.i.i.i.i.i.i.i.i.i.i.i.i.i.i.i.i.i.i.i.i.i.i.i.i.i.i.i.i.i.i.i.i.i.i.i.i.i.i.i.i.",
"i.i.i.i.i.i.i.i.i.i.i.i.i.i.i.i.i.i.i.i.i.i.i.i.i.i.i.i.i.i.i.i.i.i.i.i.i.i.i.i.i.i.i.i.i.i.i.i.i.i.i.i.i.i.i.i.i.i.i.i.i.i.i.i.",
"i.i.i.i.i.i.i.i.i.i.i.i.i.i.i.i.i.i.i.i.i.i.                    i.i.i.i.i.i.i.i.i.i.i.i.i.i.i.i.i.i.i.i.i.i.i.i.i.i.i.i.i.i.i.i.",
"i.i.i.i.i.i.i.i.i.i.i.i.i.i.i.i.i.i.i.i.i.i.$ # # @ # + + # + O i.i.i.i.i.i.i.i.i.i.i.i.i.i.i.i.i.i.i.i.i.i.i.i.i.i.i.i.i.i.i.i.",
"i.i.i.i.i.i.i.i.i.i.i.i.i.i.i.i.i.i.i.i.  + 6 g g 7 7 7 7 7 7 1 +   i.i.i.i.i.i.i.i.i.i.i.i.i.i.i.i.i.i.i.i.i.i.i.i.i.i.i.i.i.i.",
"i.i.i.i.i.i.i.i.i.i.i.i.i.i.i.i.i.i.i.i.$ 3 H E m k k k k b M l 3 $ i.i.i.i.i.i.i.i.i.i.i.i.i.i.i.i.i.i.i.i.i.i.i.i.i.i.i.i.i.i.",
"i.i.i.i.i.i.i.i.i.i.i.i.i.i.i.i.i.i.  = S / #._ T n k k b J ) #./ D $   i.i.i.i.i.i.i.i.i.i.i.i.i.i.i.i.i.i.i.i.i.i.i.i.i.i.i.i.",
"i.i.i.i.i.i.i.i.i.i.i.i.i.i.i.i.i.i.$ 8 / 1.1.#.E m v n J ) $.1.1./ 8 = i.i.i.i.i.i.i.i.i.i.i.i.i.i.i.i.i.i.i.i.i.i.i.i.i.i.i.i.",
"i.i.i.i.i.i.i.i.i.i.i.i.i.i.i.i.  = D / &.&.&.$.E m m T _ $.&.&.&.&./ D =   i.i.i.i.i.i.i.i.i.i.i.i.i.i.i.i.i.i.i.i.i.i.i.i.i.i.",
"i.i.i.i.i.i.i.i.i.i.i.i.i.i.i.i.  = ~ 1.&.&.&.#.E M T ) $.1.&.&.&.1.1.~ =   i.i.i.i.i.i.i.i.i.i.i.i.i.i.i.i.i.i.i.i.i.i.i.i.i.i.",
"i.i.i.i.i.i.i.i.i.i.i.i.i.i.i.i.  = ~ 1.&.&.&.#.E E o.2.5.5.1.&.&.&.1.~ =   i.i.i.i.i.i.i.i.i.i.i.i.i.i.i.i.i.i.i.i.i.i.i.i.i.i.",
"i.i.i.i.i.i.i.i.i.i.i.i.i.i.i.i.  = Q 1.&.&.&.=.E E >.0.8.7.1.&.&.&.1.Q =   i.i.i.i.i.i.i.i.i.i.i.i.i.i.i.i.i.i.i.i.i.i.i.i.i.i.",
"i.i.i.i.i.i.i.i.i.i.i.i.i.i.i.i.  = Q 1.&.&.1.>.E E 4.0.0.0.7.1.&.&.1.Q =   i.i.i.i.i.i.i.i.i.i.i.i.i.i.i.i.i.i.i.i.i.i.i.i.i.i.",
"i.i.i.i.i.i.i.i.i.i.i.i.i.i.i.i.  = Q 1.1.7.8.>.E E q.y.y.w.8.8.1.1.1.Q =   i.i.i.i.i.i.i.i.i.i.i.i.i.i.i.i.i.i.i.i.i.i.i.i.i.i.",
"i.i.i.i.i.i.i.i.i.i.i.i.i.i.i.i.  = Q 1.5.7.0.3.E E 2.t.t.t.r.0.8.1.1.Q =   i.i.i.i.i.i.i.i.i.i.i.i.i.i.i.i.i.i.i.i.i.i.i.i.i.i.",
"i.i.i.i.i.i.i.i.i.i.i.i.i.i.i.i.  = ~ 7.8.9.6.>.X.o.6.y.y.y.t.r.0.8.7.~ =   i.i.i.i.i.i.i.i.i.i.i.i.i.i.i.i.i.i.i.i.i.i.i.i.i.i.",
"i.i.i.i.i.i.i.i.i.i.i.i.i.i.i.i.  = ~ 0.r.6.X.` <.e.e.u.y.y.e.t.r.0.7./ -   i.i.i.i.i.i.i.i.i.i.i.i.i.i.i.i.i.i.i.i.i.i.i.i.i.i.",
"i.i.i.i.i.i.i.i.i.i.i.i.i.i.i.i.  2 [ 7.6.,.` o.w.u.u.u.u.u.y.t.y.t.0.[ -   i.i.i.i.i.i.i.i.i.i.i.i.i.i.i.i.i.i.i.i.i.i.i.i.i.i.",
"i.i.i.i.i.i.i.i.i.i.i.i.i.i.i.i.  - [ 5.X.X.:.0.u.u.u.u.u.u.u.y.t.t.r./ -   i.i.i.i.i.i.i.i.i.i.i.i.i.i.i.i.i.i.i.i.i.i.i.i.i.i.",
"i.i.i.i.i.i.i.i.i.i.i.i.i.i.i.i.  - / >.M z ^ *.2.2.6.2.9.2.@.@.@.@.@.F =   i.i.i.i.i.i.i.i.i.i.i.i.i.i.i.i.i.i.i.i.i.i.i.i.i.i.",
"i.i.i.i.i.i.i.i.i.i.i.i.i.i.i.i.  - | @.5 $ * 3 a Z C K K p 3 - - - = = i.i.i.i.i.i.i.i.i.i.i.i.i.i.i.i.i.i.i.i.i.i.i.i.i.i.i.i.",
"i.i.i.i.i.i.i.i.i.i.i.i.i.i.i.i.  - P P 2 X X # 4 w q w w < # . X . . . i.i.i.i.i.i.i.i.i.i.i.i.i.i.i.i.i.i.i.i.i.i.i.i.i.i.i.i.",
"i.i.i.i.i.i.i.i.i.i.i.i.i.i.i.i.i.i.= 2 0 q 4 4 5 w q w w q 4 < < < < < X   i.i.i.i.i.i.i.i.i.i.i.i.i.i.i.i.i.i.i.i.i.i.i.i.i.i.",
"i.i.i.i.i.i.i.i.i.i.i.i.i.i.i.i.i.i.  # w V r w w w w w w w w w w e e 4 & o i.i.i.i.i.i.i.i.i.i.i.i.i.i.i.i.i.i.i.i.i.i.i.i.i.i.",
"i.i.i.i.i.i.i.i.i.i.i.i.i.i.i.i.i.i.  # r B r w 7 w w w w w w w w e w w q < X   i.i.i.i.i.i.i.i.i.i.i.i.i.i.i.i.i.i.i.i.i.i.i.i.",
"i.i.i.i.i.i.i.i.i.i.i.i.i.i.i.i.i.i.  # e B i e t w w w w w w w w w w e i w * X i.i.i.i.i.i.i.i.i.i.i.i.i.i.i.i.i.i.i.i.i.i.i.i.",
"i.i.i.i.i.i.i.i.i.i.i.i.i.i.i.i.i.i.  # e A Z z e e w w w w w w w w w e i i w < X   i.i.i.i.i.i.i.i.i.i.i.i.i.i.i.i.i.i.i.i.i.i.",
"i.i.i.i.i.i.i.i.i.i.i.i.i.i.i.i.i.i.  X 4 r B B r w w w w w w w w w w w r i i w ; o i.i.i.i.i.i.i.i.i.i.i.i.i.i.i.i.i.i.i.i.i.i.",
"i.i.i.i.i.i.i.i.i.i.i.i.i.i.i.i.i.i.    X ; r B r w w w w w w w w w w w i z B B r 9 o   i.i.i.i.i.i.i.i.i.i.i.i.i.i.i.i.i.i.i.i.",
"i.i.i.i.i.i.i.i.i.i.i.i.i.i.i.i.i.i.# # o * r B i e w w w w w e p p r q 9 w B C Z e #   i.i.i.i.i.i.i.i.i.i.i.i.i.i.i.i.i.i.i.i.",
"i.i.i.i.i.i.i.i.i.i.i.i.i.i.i.i.  o 9 e e e B V V i e w w w w p | | s 4 & ; r C C e #   i.i.i.i.i.i.i.i.i.i.i.i.i.i.i.i.i.i.i.i.",
"i.i.i.i.i.i.i.i.i.i.i.i.i.i.i.i.  & s { { ] A V V z i w w w w K >.2.Z < X X < i Z e o   i.i.i.i.i.i.i.i.i.i.i.i.i.i.i.i.i.i.i.i.",
"i.i.i.i.i.i.i.i.i.i.i.i.i.i.i.i.  ; | e.e.*.] Z V V i r r r e K 2.3.U 4 o   X ; a e o   i.i.i.i.i.i.i.i.i.i.i.i.i.i.i.i.i.i.i.i.",
"i.i.i.i.i.i.i.i.i.i.i.i.i.i.i.i.  - [ *.*.{ a w e e r i r z Z ] %.%.K 9 #     # e r ; o i.i.i.i.i.i.i.i.i.i.i.i.i.i.i.i.i.i.i.i.",
"i.i.i.i.i.i.i.i.i.i.i.i.i.i.i.i.i.i.2 2 2 ; & o o * w i r K %.%.Y K B 9 o     o w V a 9 o   i.i.i.i.i.i.i.i.i.i.i.i.i.i.i.i.i.i.",
"i.i.i.i.i.i.i.i.i.i.i.i.i.i.i.i.i.i.              o 4 B Z { 6.9.{ Z z 9 o     # e C Z w #   i.i.i.i.i.i.i.i.i.i.i.i.i.i.i.i.i.i.",
"i.i.i.i.i.i.i.i.i.i.i.i.i.i.i.i.i.i.i.i.i.i.i.i.  X 4 K %.7.0.r.9...Z 5 +     $ e C A e #   i.i.i.i.i.i.i.i.i.i.i.i.i.i.i.i.i.i.",
"i.i.i.i.i.i.i.i.i.i.i.i.i.i.i.i.i.i.i.i.i.i.i.i.* 3 i W 2.w.w.w.w.2.( e #     o 9 a B r ; o i.i.i.i.i.i.i.i.i.i.i.i.i.i.i.i.i.i.",
"i.i.i.i.i.i.i.i.i.i.i.i.i.i.i.i.i.i.i.i.i.i.  * Z ) X.O.4.4.q.4.q.4.:.L *   i.i.X * e B e 9 o   i.i.i.i.i.i.i.i.i.i.i.i.i.i.i.i.",
"i.i.i.i.i.i.i.i.i.i.i.i.i.i.i.i.i.i.i.i.i.i.$ 0 } q.4.4.<.3.<.<.<.<.4.( *   i.i.  & s { { Z &   i.i.i.i.i.i.i.i.i.i.i.i.i.i.i.i.",
"i.i.i.i.i.i.i.i.i.i.i.i.i.i.i.i.i.i.i.i.  $ u R :.<.<.<.<.<.<.<.,.4.4.( *   i.i.  & | y.e.| ;   i.i.i.i.i.i.i.i.i.i.i.i.i.i.i.i.",
"i.i.i.i.i.i.i.i.i.i.i.i.i.i.i.i.i.i.i.i.$ 5 R -.<.<.<.<.<.<.<.<.4.:.} G *   i.i.  - [ *.*.^ -   i.i.i.i.i.i.i.i.i.i.i.i.i.i.i.i.",
"i.i.i.i.i.i.i.i.i.i.i.i.i.i.i.i.i.i.  $ y R ' -.<.<.q.<.-.-.<.<.4.} w % i.i.i.i.i.i.; 2 2 - i.i.i.i.i.i.i.i.i.i.i.i.i.i.i.i.i.i.",
"i.i.i.i.i.i.i.i.i.i.i.i.i.i.i.i.i.i.  % H O.' -.:.:.) ) ' O.:.<.4.I &   i.i.i.i.i.i.        i.i.i.i.i.i.i.i.i.i.i.i.i.i.i.i.i.i.",
"i.i.i.i.i.i.i.i.i.i.i.i.i.i.i.i.i.i.  % L O.O.O.' ) 5 5 R -.-.-.-.L $   i.i.i.i.i.i.i.i.i.i.i.i.i.i.i.i.i.i.i.i.i.i.i.i.i.i.i.i.",
"i.i.i.i.i.i.i.i.i.i.i.i.i.i.i.i.i.i.  % L -.' -.' H $ o t R ' O.O.R 5 $ i.i.i.i.i.i.i.i.i.i.i.i.i.i.i.i.i.i.i.i.i.i.i.i.i.i.i.i.",
"i.i.i.i.i.i.i.i.i.i.i.i.i.i.i.i.i.i.  % L O.-.' O.H %   # 5 R ' O.) R y &   i.i.i.i.i.i.i.i.i.i.i.i.i.i.i.i.i.i.i.i.i.i.i.i.i.i.",
"i.i.i.i.i.i.i.i.i.i.i.i.i.i.i.i.i.i.  % u R ' =.=.I %     $ y R ) X.X.H *   i.i.i.i.i.i.i.i.i.i.i.i.i.i.i.i.i.i.i.i.i.i.i.i.i.i.",
"i.i.i.i.i.i.i.i.i.i.i.i.i.i.i.i.i.i.i.i.$ 5 / 1.5.! =   i.i.& < V W ] r #   i.i.i.i.i.i.i.i.i.i.i.i.i.i.i.i.i.i.i.i.i.i.i.i.i.i.",
"i.i.i.i.i.i.i.i.i.i.i.i.i.i.i.i.i.i.i.i.  $ D ~ ~ D , @ i.i.  & a ] ] a &   i.i.i.i.i.i.i.i.i.i.i.i.i.i.i.i.i.i.i.i.i.i.i.i.i.i.",
"i.i.i.i.i.i.i.i.i.i.i.i.i.i.i.i.i.i.i.i.i.i.= = = , f h i.i.  & A +.+.] *   i.i.i.i.i.i.i.i.i.i.i.i.i.i.i.i.i.i.i.i.i.i.i.i.i.i.",
"i.i.i.i.i.i.i.i.i.i.i.i.i.i.i.i.i.i.i.i.i.i.      @ d j i.i.  & Z  . .Z &   i.i.i.i.i.i.i.i.i.i.i.i.i.i.i.i.i.i.i.i.i.i.i.i.i.i.",
"i.i.i.i.i.i.i.i.i.i.i.i.i.i.i.i.i.i.i.i.i.i.      . : > i.i.  o ; 9 9 ; X   i.i.i.i.i.i.i.i.i.i.i.i.i.i.i.i.i.i.i.i.i.i.i.i.i.i.",
"i.i.i.i.i.i.i.i.i.i.i.i.i.i.i.i.i.i.i.i.i.i.i.i.i.i.i.i.i.i.i.i.i.i.i.i.i.i.i.i.i.i.i.i.i.i.i.i.i.i.i.i.i.i.i.i.i.i.i.i.i.i.i.i.",
"i.i.i.i.i.i.i.i.i.i.i.i.i.i.i.i.i.i.i.i.i.i.i.i.i.i.i.i.i.i.i.i.i.i.i.i.i.i.i.i.i.i.i.i.i.i.i.i.i.i.i.i.i.i.i.i.i.i.i.i.i.i.i.i.",
"i.i.i.i.i.i.i.i.i.i.i.i.i.i.i.i.i.i.i.i.i.i.i.i.i.i.i.i.i.i.i.i.i.i.i.i.i.i.i.i.i.i.i.i.i.i.i.i.i.i.i.i.i.i.i.i.i.i.i.i.i.i.i.i."
};
