/* XPM */
static char *result[] = {
/* columns rows colors chars-per-pixel */
"64 64 182 2 ",
"   c #000000",
".  c #0F0706",
"X  c #0F0806",
"o  c #0E0C0B",
"O  c #100706",
"+  c #120906",
"@  c #120C0A",
"#  c #0F120D",
"$  c #14130D",
"%  c #13180F",
"&  c #151312",
"*  c #1B1713",
"=  c #161A11",
"-  c #191D15",
";  c #1F1B1A",
":  c #22130F",
">  c #2F1A14",
",  c #301B14",
"<  c #1E2119",
"1  c #242317",
"2  c #23221B",
"3  c #29261D",
"4  c #252A1B",
"5  c #2C291B",
"6  c #36211A",
"7  c #3D221A",
"8  c #2B2421",
"9  c #272820",
"0  c #2B2B23",
"q  c #312723",
"w  c #332A25",
"e  c #392F26",
"r  c #362C28",
"t  c #3B2F2A",
"y  c #2C3224",
"u  c #303225",
"i  c #3A3127",
"p  c #333E27",
"a  c #37312C",
"s  c #3C322C",
"d  c #3D382F",
"f  c #3E3430",
"g  c #3D3A32",
"h  c #4E1D12",
"j  c #43251D",
"k  c #42291F",
"l  c #602D1F",
"z  c #6B2C1B",
"x  c #7F311B",
"c  c #452C23",
"v  c #4B2D24",
"b  c #442F29",
"n  c #532E24",
"m  c #453527",
"M  c #463827",
"N  c #43342B",
"B  c #4A332B",
"V  c #453F2E",
"C  c #4C3424",
"Z  c #553126",
"A  c #563629",
"S  c #593629",
"D  c #5B3B2C",
"F  c #423631",
"G  c #433B33",
"H  c #483C37",
"J  c #453D39",
"K  c #483E38",
"L  c #5B3F31",
"P  c #533E31",
"I  c #602E20",
"U  c #693C27",
"Y  c #39442D",
"T  c #37442C",
"R  c #4D422F",
"E  c #43412B",
"W  c #56412E",
"Q  c #5B412F",
"!  c #464036",
"~  c #4C4532",
"^  c #464D33",
"/  c #4C4A33",
"(  c #4C453B",
")  c #4C4B3B",
"_  c #5C4531",
"`  c #564E37",
"'  c #5E4A34",
"]  c #544C3A",
"[  c #584F38",
"{  c #544334",
"}  c #465537",
"|  c #4C5136",
" . c #475738",
".. c #4B543C",
"X. c #4C5B3D",
"o. c #54533B",
"O. c #5D543B",
"+. c #5D5B3D",
"@. c #6E422C",
"#. c #794026",
"$. c #79462F",
"%. c #604C37",
"&. c #614C39",
"*. c #61553E",
"=. c #645C3E",
"-. c #655337",
";. c #656E3E",
":. c #4E4540",
">. c #534B44",
",. c #574D49",
"<. c #4E5B41",
"1. c #545443",
"2. c #5B5740",
"3. c #535C46",
"4. c #5D5941",
"5. c #5E534E",
"6. c #5C594A",
"7. c #645540",
"8. c #655D42",
"9. c #6E5D45",
"0. c #605550",
"q. c #5E6744",
"w. c #5E6A46",
"e. c #5B654C",
"r. c #5D6A4C",
"t. c #546444",
"y. c #5F724A",
"u. c #666043",
"i. c #696245",
"p. c #616A47",
"a. c #66634B",
"s. c #6C664B",
"d. c #646C4C",
"f. c #6D6A4D",
"g. c #726B4A",
"h. c #62744E",
"j. c #616651",
"k. c #646D53",
"l. c #6B6E53",
"z. c #657553",
"x. c #6C7355",
"c. c #667953",
"v. c #697B56",
"b. c #6E735A",
"n. c #6D7C5C",
"m. c #717657",
"M. c #727953",
"N. c #707A60",
"B. c #82432A",
"V. c #895E41",
"C. c #8B6244",
"Z. c #877657",
"A. c #917856",
"S. c #937553",
"D. c #6B814C",
"F. c #6F815D",
"G. c #768955",
"H. c #70815E",
"J. c #798853",
"K. c #738361",
"L. c #788765",
"P. c #778B60",
"I. c #7A8A65",
"U. c #7D9266",
"Y. c #8E825D",
"T. c #888261",
"R. c #838B6B",
"E. c #878D69",
"W. c #938B67",
"Q. c #948F6A",
"!. c #83916B",
"~. c #88916D",
"^. c #839C60",
"/. c #95906B",
"(. c #8E9A73",
"). c #8B9470",
"_. c #94AB6E",
"`. c #96AF71",
"'. c #A2AC88",
"]. c #A8B588",
"[. c #AAB88A",
"{. c None",
/* pixels */
"{.{.{.{.{.{.{.{.{.{.{.{.{.{.{.{.{.{.{.{.{.{.{.{.{.{.{.{.{.{.{.{.{.{.{.{.{.{.{.{.{.{.{.{.{.{.{.{.{.{.{.{.{.{.{.{.{.{.{.{.{.{.{.{.",
"{.{.{.{.{.{.{.{.{.{.{.{.{.{.{.{.{.{.{.{.{.{.{.{.{.{.{.{.{.{.{.{.{.{.{.{.{.{.{.{.{.{.{.{.{.{.{.{.{.{.{.{.{.{.{.{.{.{.{.{.{.{.{.{.",
"{.{.{.{.{.{.{.{.{.{.{.{.{.{.{.{.{.{.{.{.{.{.{.{.{.{.{.{.{.{.{.{.{.{.{.{.{.{.{.{.{.{.{.{.{.{.{.{.{.{.{.{.{.{.{.{.{.{.{.{.{.{.{.{.",
"{.{.{.{.{.{.{.{.{.{.{.{.{.{.{.{.{.{.{.{.{.{.{.{.{.{.{.{.{.{.{.{.{.{.{.{.{.{.{.{.{.{.{.{.{.{.{.{.{.{.{.{.{.{.{.{.{.{.{.{.{.{.{.{.",
"{.{.{.{.{.{.{.{.{.{.{.{.{.{.{.{.{.{.{.{.{.{.{.{.{.{.{.{.{.{.{.{.{.{.{.{.{.{.{.{.{.{.{.{.{.{.{.{.{.{.{.{.{.{.{.{.{.{.{.{.{.{.{.{.",
"{.{.{.{.{.{.{.{.{.{.{.{.{.{.{.{.{.{.{.{.{.{.{.{.{.{.{.{.{.{.{.{.{.{.{.{.{.{.{.{.{.{.{.{.{.{.{.{.{.{.{.{.{.{.{.{.{.{.{.{.{.{.{.{.",
"{.{.{.{.{.{.{.{.{.{.{.{.{.{.{.{.{.{.{.{.{.{.{.{.{.{.{.{.{.{.{.{.{.{.{.{.{.{.{.{.{.{.{.{.{.{.{.{.{.{.{.{.{.{.{.{.{.{.{.{.{.{.{.{.",
"{.{.{.{.{.{.{.{.{.{.{.{.{.{.{.{.{.{.{.{.{.{.{.{.{.{.{.{.{.{.{.{.{.{.{.{.{.{.{.{.{.{.{.{.{.{.{.{.{.{.{.{.{.{.{.{.{.{.{.{.{.{.{.{.",
"{.{.{.{.{.{.{.{.{.{.{.{.{.{.{.{.{.{.{.{.{.{.{.{.{.{.{.{.{.{.{.{.{.{.{.{.{.{.{.{.{.{.{.{.{.{.{.{.{.{.{.{.{.{.{.{.{.{.{.{.{.{.{.{.",
"{.{.{.{.{.{.{.{.{.{.{.{.{.{.{.{.{.{.{.{.{.{.{.{.{.{.{.{.{.{.{.{.{.{.{.{.{.{.{.{.{.{.{.{.{.{.{.{.{.{.{.{.{.{.{.{.{.{.{.{.{.{.{.{.",
"{.{.{.{.{.{.{.{.{.{.{.{.{.{.{.{.{.{.{.{.{.{.{.{.{.{.{.{.{.{.                    {.{.{.{.{.{.{.{.{.{.{.{.{.{.{.{.{.{.{.{.{.{.{.{.",
"{.{.{.{.{.{.{.{.{.{.{.{.{.{.{.{.{.{.{.{.{.{.{.{.{.{.{.{.{.{.= % $ @ @ @ + @ + + {.{.{.{.{.{.{.{.{.{.{.{.{.{.{.{.{.{.{.{.{.{.{.{.",
"{.{.{.{.{.{.{.{.{.{.{.{.{.{.{.{.{.{.{.{.{.{.{.{.{.{.{.{.  = T ^ M k 7 7 7 7 7 , +   {.{.{.{.{.{.{.{.{.{.{.{.{.{.{.{.{.{.{.{.{.{.",
"{.{.{.{.{.{.{.{.{.{.{.{.{.{.{.{.{.{.{.{.{.{.{.{.{.{.{.{.+ 1 | u.%.D Z n n Z S k 1 % {.{.{.{.{.{.{.{.{.{.{.{.{.{.{.{.{.{.{.{.{.{.",
"{.{.{.{.{.{.{.{.{.{.{.{.{.{.{.{.{.{.{.{.{.{.{.{.{.{.  X , k W ' U A Z v n n S W / Y =   {.{.{.{.{.{.{.{.{.{.{.{.{.{.{.{.{.{.{.{.",
"{.{.{.{.{.{.{.{.{.{.{.{.{.{.{.{.{.{.{.{.{.{.{.{.{.{.+ : j Z S Q _ _ A Z n n S ' p.X.y % {.{.{.{.{.{.{.{.{.{.{.{.{.{.{.{.{.{.{.{.",
"{.{.{.{.{.{.{.{.{.{.{.{.{.{.{.{.{.{.{.{.{.{.{.{.  + , j v Z S _ +.+._ A n n S ' w.y.X.T =   {.{.{.{.{.{.{.{.{.{.{.{.{.{.{.{.{.{.",
"{.{.{.{.{.{.{.{.{.{.{.{.{.{.{.{.{.{.{.{.{.{.{.{.  @ j n n S Q O.w.w._ S Z A _ O.w.h.h. .=   {.{.{.{.{.{.{.{.{.{.{.{.{.{.{.{.{.{.",
"{.{.{.{.{.{.{.{.{.{.{.{.{.{.{.{.{.{.{.{.{.{.{.{.  + 7 n S Q O.w.y.q.' S S _ 8.d.y.y.h. .=   {.{.{.{.{.{.{.{.{.{.{.{.{.{.{.{.{.{.",
"{.{.{.{.{.{.{.{.{.{.{.{.{.{.{.{.{.{.{.{.{.{.{.{.  @ 7 A Q O.w.h.y.w.*.' L ' d.v.h.y.h. .=   {.{.{.{.{.{.{.{.{.{.{.{.{.{.{.{.{.{.",
"{.{.{.{.{.{.{.{.{.{.{.{.{.{.{.{.{.{.{.{.{.{.{.{.  @ k _ +.r.h.z.c.c.x.a._ %.l.n.c.c.h. .=   {.{.{.{.{.{.{.{.{.{.{.{.{.{.{.{.{.{.",
"{.{.{.{.{.{.{.{.{.{.{.{.{.{.{.{.{.{.{.{.{.{.{.{.  $ M -.r.z.v.n.v.n.K.x.%.%.l.n.F.v.c. .=   {.{.{.{.{.{.{.{.{.{.{.{.{.{.{.{.{.{.",
"{.{.{.{.{.{.{.{.{.{.{.{.{.{.{.{.{.{.{.{.{.{.{.{.  = ^ r.y.c.F.F.K.K.K.x.%.%.x.H.K.H.v.<.=   {.{.{.{.{.{.{.{.{.{.{.{.{.{.{.{.{.{.",
"{.{.{.{.{.{.{.{.{.{.{.{.{.{.{.{.{.{.{.{.{.{.{.{.  =  .c.v.z.r.3.3.3.t.1.O.*.a.k.e.3.<.Y =   {.{.{.{.{.{.{.{.{.{.{.{.{.{.{.{.{.{.",
"{.{.{.{.{.{.{.{.{.{.{.{.{.{.{.{.{.{.{.{.{.{.{.{.  =  .c.F.e.y = = = = y 3.f.8.P 5 = = #     {.{.{.{.{.{.{.{.{.{.{.{.{.{.{.{.{.{.",
"{.{.{.{.{.{.{.{.{.{.{.{.{.{.{.{.{.{.{.{.{.{.{.{.  = T t.v.r.y < 9 9 1 p r.x.%.C 5 4 0 2 #   {.{.{.{.{.{.{.{.{.{.{.{.{.{.{.{.{.{.",
"{.{.{.{.{.{.{.{.{.{.{.{.{.{.{.{.{.{.{.{.{.{.{.{.{.{.% y e.n.e.k.R.~.G.D.F.x.' ' i.G.).b.2   {.{.{.{.{.{.{.{.{.{.{.{.{.{.{.{.{.{.",
"{.{.{.{.{.{.{.{.{.{.{.{.{.{.{.{.{.{.{.{.{.{.{.{.{.{.  - 3.K.K.R.'.].`.U.G.l.' -.J.`.].R.0   {.{.{.{.{.{.{.{.{.{.{.{.{.{.{.{.{.{.",
"{.{.{.{.{.{.{.{.{.{.{.{.{.{.{.{.{.{.{.{.{.{.{.{.{.{.  - t.K.K.L.U.!.U.P.K.l.' ' M.U.R.r.<   {.{.{.{.{.{.{.{.{.{.{.{.{.{.{.{.{.{.",
"{.{.{.{.{.{.{.{.{.{.{.{.{.{.{.{.{.{.{.{.{.{.{.{.{.{.  - <.K.K.F.N.F.N.F.K.x.8.*.a.x.v.X.-   {.{.{.{.{.{.{.{.{.{.{.{.{.{.{.{.{.{.",
"{.{.{.{.{.{.{.{.{.{.{.{.{.{.{.{.{.{.{.{.{.{.{.{.{.{.  = ..c.F.K.K.n.N.K.n.n.x.a.*.*.k.<.=   {.{.{.{.{.{.{.{.{.{.{.{.{.{.{.{.{.{.",
"{.{.{.{.{.{.{.{.{.{.{.{.{.{.{.{.{.{.{.{.{.{.{.{.{.{.o 2 ^ r.c.H.I.L.K.K.I.I.L.b.i.9.s.| =   {.{.{.{.{.{.{.{.{.{.{.{.{.{.{.{.{.{.",
"{.{.{.{.{.{.{.{.{.{.{.{.{.{.{.{.{.{.{.{.{.{.{.{.  o 8 t d ) w.H.(.(.L.L.(.(.I.H.Q.T.9.m $   {.{.{.{.{.{.{.{.{.{.{.{.{.{.{.{.{.{.",
"{.{.{.{.{.{.{.{.{.{.{.{.{.{.{.{.{.{.{.{.{.{.{.{.O * t H s V ..h.R.(.!.E.W.W.E.E./.Z._ 6 +   {.{.{.{.{.{.{.{.{.{.{.{.{.{.{.{.{.{.",
"{.{.{.{.{.{.{.{.{.{.{.{.{.{.{.{.{.{.{.{.{.{.  + , c G F s s G ) h.I.(.W.V.V.Q./.C.U , @ {.{.{.{.{.{.{.{.{.{.{.{.{.{.{.{.{.{.{.{.",
"{.{.{.{.{.{.{.{.{.{.{.{.{.{.{.{.{.{.{.{.{.{.  + , n B G N s t G ..z.!.Y.$.B.S.A.$.h +   {.{.{.{.{.{.{.{.{.{.{.{.{.{.{.{.{.{.{.{.",
"{.{.{.{.{.{.{.{.{.{.{.{.{.{.{.{.{.{.{.{.{.{.  @ j n n B s t t f G | z.g.#.x B.$.D 6 o   {.{.{.{.{.{.{.{.{.{.{.{.{.{.{.{.{.{.{.{.",
"{.{.{.{.{.{.{.{.{.{.{.{.{.{.{.{.{.{.{.{.{.{.  & N L Z v b s s s s G ..O.U z z l B 8 o   {.{.{.{.{.{.{.{.{.{.{.{.{.{.{.{.{.{.{.{.",
"{.{.{.{.{.{.{.{.{.{.{.{.{.{.{.{.{.{.{.{.{.{.  - 1.9.L v b t s t s s G V B v v B F w o   {.{.{.{.{.{.{.{.{.{.{.{.{.{.{.{.{.{.{.{.",
"{.{.{.{.{.{.{.{.{.{.{.{.{.{.{.{.{.{.{.{.{.{.  - 3.l.7.P F s s s s s t t m b N s H r #   {.{.{.{.{.{.{.{.{.{.{.{.{.{.{.{.{.{.{.{.",
"{.{.{.{.{.{.{.{.{.{.{.{.{.{.{.{.{.{.{.{.{.{.  & g 6.l.a.! s s i s s t b I I v F H w #   {.{.{.{.{.{.{.{.{.{.{.{.{.{.{.{.{.{.{.{.",
"{.{.{.{.{.{.{.{.{.{.{.{.{.{.{.{.{.{.{.{.{.{.o * r :.j.j.! t t t t s G { @.U B f r 8 o   {.{.{.{.{.{.{.{.{.{.{.{.{.{.{.{.{.{.{.{.",
"{.{.{.{.{.{.{.{.{.{.{.{.{.{.{.{.{.{.{.{.  o 8 t F G ! G s w w r w G 3.d.l.8.( r ; o {.{.{.{.{.{.{.{.{.{.{.{.{.{.{.{.{.{.{.{.{.{.",
"{.{.{.{.{.{.{.{.{.{.{.{.{.{.{.{.{.{.{.{.  @ r J K s r q w w w w w G j.n.z.e.:.w o   {.{.{.{.{.{.{.{.{.{.{.{.{.{.{.{.{.{.{.{.{.{.",
"{.{.{.{.{.{.{.{.{.{.{.{.{.{.{.{.{.{.{.{.  o r J H F r w w w w w w ! d.z.1.:.J w o   {.{.{.{.{.{.{.{.{.{.{.{.{.{.{.{.{.{.{.{.{.{.",
"{.{.{.{.{.{.{.{.{.{.{.{.{.{.{.{.{.{.{.{.  @ w H G F t q w q w q 0 i 3.3.( G G r @   {.{.{.{.{.{.{.{.{.{.{.{.{.{.{.{.{.{.{.{.{.{.",
"{.{.{.{.{.{.{.{.{.{.{.{.{.{.{.{.{.{.{.{.  o r H G F r q 8 8 3 6 3 w s d F G G w o   {.{.{.{.{.{.{.{.{.{.{.{.{.{.{.{.{.{.{.{.{.{.",
"{.{.{.{.{.{.{.{.{.{.{.{.{.{.{.{.{.{.{.{.  & g >.>.) G N i i i i i i e s ( >.,.g &   {.{.{.{.{.{.{.{.{.{.{.{.{.{.{.{.{.{.{.{.{.{.",
"{.{.{.{.{.{.{.{.{.{.{.{.{.{.{.{.{.{.{.{.  - 1.N.N.k.4.] [ [ ` [ [ ` [ +.j.N.N.3.-   {.{.{.{.{.{.{.{.{.{.{.{.{.{.{.{.{.{.{.{.{.{.",
"{.{.{.{.{.{.{.{.{.{.{.{.{.{.{.{.{.{.{.{.  - <.k.b.x.i.8.=.i.=.=.=.=.=.i.b.n.k...-   {.{.{.{.{.{.{.{.{.{.{.{.{.{.{.{.{.{.{.{.{.{.",
"{.{.{.{.{.{.{.{.{.{.{.{.{.{.{.{.{.{.{.{.{.{.- y | u.u.=.=.=.=.=.O.O.=.8.s.o.u - {.{.{.{.{.{.{.{.{.{.{.{.{.{.{.{.{.{.{.{.{.{.{.{.",
"{.{.{.{.{.{.{.{.{.{.{.{.{.{.{.{.{.{.{.{.{.{.  $ E +.=.=.=.i.8.8.*.=.=.i.i./ $   {.{.{.{.{.{.{.{.{.{.{.{.{.{.{.{.{.{.{.{.{.{.{.{.",
"{.{.{.{.{.{.{.{.{.{.{.{.{.{.{.{.{.{.{.{.{.{.  = } q.+.=.i.f.g.s.s.i.i.i.g.] *   {.{.{.{.{.{.{.{.{.{.{.{.{.{.{.{.{.{.{.{.{.{.{.{.",
"{.{.{.{.{.{.{.{.{.{.{.{.{.{.{.{.{.{.{.{.{.{.  -  .w./ R 8.s.s.f.f.8.` ~ o.G *   {.{.{.{.{.{.{.{.{.{.{.{.{.{.{.{.{.{.{.{.{.{.{.{.",
"{.{.{.{.{.{.{.{.{.{.{.{.{.{.{.{.{.{.{.{.{.{.  =  .t.4 1 R =.i.i.i.` 5 * = * {.{.{.{.{.{.{.{.{.{.{.{.{.{.{.{.{.{.{.{.{.{.{.{.{.{.",
"{.{.{.{.{.{.{.{.{.{.{.{.{.{.{.{.{.{.{.{.{.{.  = Y Y $ # u R [ *.O.V $       {.{.{.{.{.{.{.{.{.{.{.{.{.{.{.{.{.{.{.{.{.{.{.{.{.{.",
"{.{.{.{.{.{.{.{.{.{.{.{.{.{.{.{.{.{.{.{.{.{.{.{.= = {.{.@ 2 G :.] s o   {.{.{.{.{.{.{.{.{.{.{.{.{.{.{.{.{.{.{.{.{.{.{.{.{.{.{.{.",
"{.{.{.{.{.{.{.{.{.{.{.{.{.{.{.{.{.{.{.{.{.{.{.{.    {.{.  o a :.>.J 8 & {.{.{.{.{.{.{.{.{.{.{.{.{.{.{.{.{.{.{.{.{.{.{.{.{.{.{.{.",
"{.{.{.{.{.{.{.{.{.{.{.{.{.{.{.{.{.{.{.{.{.{.{.{.{.{.{.{.  @ a >.5.5.,.G *   {.{.{.{.{.{.{.{.{.{.{.{.{.{.{.{.{.{.{.{.{.{.{.{.{.{.",
"{.{.{.{.{.{.{.{.{.{.{.{.{.{.{.{.{.{.{.{.{.{.{.{.{.{.{.{.  o w J >.5.5.J &   {.{.{.{.{.{.{.{.{.{.{.{.{.{.{.{.{.{.{.{.{.{.{.{.{.{.",
"{.{.{.{.{.{.{.{.{.{.{.{.{.{.{.{.{.{.{.{.{.{.{.{.{.{.{.{.  o & ; 8 8 8 ; o   {.{.{.{.{.{.{.{.{.{.{.{.{.{.{.{.{.{.{.{.{.{.{.{.{.{.",
"{.{.{.{.{.{.{.{.{.{.{.{.{.{.{.{.{.{.{.{.{.{.{.{.{.{.{.{.{.{.{.{.{.{.{.{.{.{.{.{.{.{.{.{.{.{.{.{.{.{.{.{.{.{.{.{.{.{.{.{.{.{.{.{.",
"{.{.{.{.{.{.{.{.{.{.{.{.{.{.{.{.{.{.{.{.{.{.{.{.{.{.{.{.{.{.{.{.{.{.{.{.{.{.{.{.{.{.{.{.{.{.{.{.{.{.{.{.{.{.{.{.{.{.{.{.{.{.{.{.",
"{.{.{.{.{.{.{.{.{.{.{.{.{.{.{.{.{.{.{.{.{.{.{.{.{.{.{.{.{.{.{.{.{.{.{.{.{.{.{.{.{.{.{.{.{.{.{.{.{.{.{.{.{.{.{.{.{.{.{.{.{.{.{.{."
};
