/* XPM */
static char *result[] = {
/* columns rows colors chars-per-pixel */
"64 64 181 2 ",
"   c #000000",
".  c #0F0706",
"X  c #0F0806",
"o  c #0D0C0A",
"O  c #150603",
"+  c #120907",
"@  c #120C0A",
"#  c #0F120D",
"$  c #14130E",
"%  c #12180F",
"&  c #161412",
"*  c #1B1712",
"=  c #161A11",
"-  c #191D15",
";  c #1E1C19",
":  c #22130F",
">  c #36190F",
",  c #2F1A14",
"<  c #301B14",
"1  c #1D2119",
"2  c #242217",
"3  c #24231C",
"4  c #242A1A",
"5  c #2C291B",
"6  c #29261D",
"7  c #342018",
"8  c #3D221A",
"9  c #2B2421",
"0  c #272820",
"q  c #2B2B23",
"w  c #312723",
"e  c #342B26",
"r  c #3C2821",
"t  c #342B28",
"y  c #3A2E2A",
"u  c #2C3324",
"i  c #3A3127",
"p  c #37312C",
"a  c #3C322C",
"s  c #3B392D",
"d  c #323827",
"f  c #3F3530",
"g  c #3D3931",
"h  c #47160A",
"j  c #43251D",
"k  c #42291F",
"l  c #502215",
"z  c #5F2D1E",
"x  c #6E2D1D",
"c  c #7F321C",
"v  c #442B22",
"b  c #4C2B22",
"n  c #412F29",
"m  c #532E24",
"M  c #453527",
"N  c #4A3325",
"B  c #463827",
"V  c #44352B",
"C  c #4C332B",
"Z  c #4A382B",
"A  c #453F2E",
"S  c #553126",
"D  c #553629",
"F  c #593629",
"G  c #5B3B2C",
"H  c #433630",
"J  c #443B34",
"K  c #4B3E35",
"L  c #453D39",
"P  c #523C31",
"I  c #5B3F31",
"U  c #612D20",
"Y  c #6C3B26",
"T  c #693622",
"R  c #39442D",
"E  c #37442C",
"W  c #4C432F",
"Q  c #56412E",
"!  c #5B412F",
"~  c #464236",
"^  c #4B4434",
"/  c #474D33",
"(  c #4C4932",
")  c #4A433B",
"_  c #4C4D3B",
"`  c #5C4531",
"'  c #554D37",
"]  c #5E4A35",
"[  c #554D3A",
"{  c #534434",
"}  c #465537",
"|  c #4C5136",
" . c #475738",
".. c #4C543B",
"X. c #4D5C3D",
"o. c #5D543B",
"O. c #5D5B3D",
"+. c #694029",
"@. c #784026",
"#. c #614C37",
"$. c #614C39",
"%. c #665237",
"&. c #61543E",
"*. c #645C3E",
"=. c #656E3E",
"-. c #4E4540",
";. c #524B43",
":. c #574D49",
">. c #4E5B41",
",. c #545343",
"<. c #5C5741",
"1. c #545C45",
"2. c #5F5940",
"3. c #5E534E",
"4. c #5A5C4A",
"5. c #665740",
"6. c #655D42",
"7. c #6E5D45",
"8. c #605550",
"9. c #556345",
"0. c #5C6745",
"q. c #5E6A46",
"w. c #556149",
"e. c #5B654C",
"r. c #5C6A4B",
"t. c #5F724A",
"y. c #5B6850",
"u. c #656244",
"i. c #696145",
"p. c #616A47",
"a. c #66634B",
"s. c #6C654B",
"d. c #646C4B",
"f. c #6E694C",
"g. c #736C48",
"h. c #62744E",
"j. c #616651",
"k. c #636B52",
"l. c #6A6E53",
"z. c #657552",
"x. c #6B7355",
"c. c #667A53",
"v. c #697A56",
"b. c #6E755C",
"n. c #6D7D5C",
"m. c #707557",
"M. c #70795F",
"N. c #727953",
"B. c #717A60",
"V. c #83432A",
"C. c #895E41",
"Z. c #8C6344",
"A. c #8B7555",
"S. c #947554",
"D. c #6B814C",
"F. c #6F815D",
"G. c #71815E",
"H. c #788854",
"J. c #738361",
"K. c #788765",
"L. c #778B60",
"P. c #7A8A65",
"I. c #7D9266",
"U. c #8E815C",
"Y. c #888261",
"T. c #838B6B",
"R. c #878D69",
"E. c #938B67",
"W. c #928E69",
"Q. c #83916B",
"!. c #88916D",
"~. c #839C60",
"^. c #96916B",
"/. c #8E9A73",
"(. c #8B9470",
"). c #94AB6E",
"_. c #96AF71",
"`. c #A2AC88",
"'. c #A8B588",
"]. c #AAB88A",
"[. c None",
/* pixels */
"[.[.[.[.[.[.[.[.[.[.[.[.[.[.[.[.[.[.[.[.[.[.[.[.[.[.[.[.[.[.[.[.[.[.[.[.[.[.[.[.[.[.[.[.[.[.[.[.[.[.[.[.[.[.[.[.[.[.[.[.[.[.[.[.",
"[.[.[.[.[.[.[.[.[.[.[.[.[.[.[.[.[.[.[.[.[.[.[.[.[.[.[.[.[.[.[.[.[.[.[.[.[.[.[.[.[.[.[.[.[.[.[.[.[.[.[.[.[.[.[.[.[.[.[.[.[.[.[.[.",
"[.[.[.[.[.[.[.[.[.[.[.[.[.[.[.[.[.[.[.[.[.[.[.[.[.[.[.[.[.[.[.[.[.[.[.[.[.[.[.[.[.[.[.[.[.[.[.[.[.[.[.[.[.[.[.[.[.[.[.[.[.[.[.[.",
"[.[.[.[.[.[.[.[.[.[.[.[.[.[.[.[.[.[.[.[.[.[.[.[.[.[.[.[.[.[.[.[.[.[.[.[.[.[.[.[.[.[.[.[.[.[.[.[.[.[.[.[.[.[.[.[.[.[.[.[.[.[.[.[.",
"[.[.[.[.[.[.[.[.[.[.[.[.[.[.[.[.[.[.[.[.[.[.[.[.[.[.[.[.[.[.[.[.[.[.[.[.[.[.[.[.[.[.[.[.[.[.[.[.[.[.[.[.[.[.[.[.[.[.[.[.[.[.[.[.",
"[.[.[.[.[.[.[.[.[.[.[.[.[.[.[.[.[.[.[.[.[.[.[.[.[.[.[.[.[.[.[.[.[.[.[.[.[.[.[.[.[.[.[.[.[.[.[.[.[.[.[.[.[.[.[.[.[.[.[.[.[.[.[.[.",
"[.[.[.[.[.[.[.[.[.[.[.[.[.[.[.[.[.[.[.[.[.[.[.[.[.[.[.[.[.[.[.[.[.[.[.[.[.[.[.[.[.[.[.[.[.[.[.[.[.[.[.[.[.[.[.[.[.[.[.[.[.[.[.[.",
"[.[.[.[.[.[.[.[.[.[.[.[.[.[.[.[.[.[.[.[.[.[.[.[.[.[.[.[.[.[.[.[.[.[.[.[.[.[.[.[.[.[.[.[.[.[.[.[.[.[.[.[.[.[.[.[.[.[.[.[.[.[.[.[.",
"[.[.[.[.[.[.[.[.[.[.[.[.[.[.[.[.[.[.[.[.[.[.[.[.[.[.[.[.[.[.[.[.[.[.[.[.[.[.[.[.[.[.[.[.[.[.[.[.[.[.[.[.[.[.[.[.[.[.[.[.[.[.[.[.",
"[.[.[.[.[.[.[.[.[.[.[.[.[.[.[.[.[.[.[.[.[.[.[.[.[.[.[.[.[.[.[.[.[.[.[.[.[.[.[.[.[.[.[.[.[.[.[.[.[.[.[.[.[.[.[.[.[.[.[.[.[.[.[.[.",
"[.[.[.[.[.[.[.[.[.[.[.[.[.[.[.[.[.[.[.[.[.[.[.[.[.[.[.[.[.[.[.[.[.[.[.[.[.[.[.[.[.[.[.[.[.[.[.[.[.[.[.[.[.[.[.[.[.[.[.[.[.[.[.[.",
"[.[.[.[.[.[.[.[.[.[.[.[.[.[.[.[.[.[.[.[.[.[.[.[.[.[.[.[.[.[.[.[.[.[.[.[.[.[.[.[.[.[.[.[.[.[.[.[.[.[.[.[.[.[.[.[.[.[.[.[.[.[.[.[.",
"[.[.[.[.[.[.[.[.[.[.[.[.[.[.[.[.[.[.[.[.[.[.[.[.[.[.[.[.[.[.[.[.[.[.[.[.[.[.[.[.[.[.[.[.[.[.[.[.[.[.[.[.[.[.[.[.[.[.[.[.[.[.[.[.",
"[.[.[.[.[.[.[.[.[.[.[.[.[.[.[.[.[.[.[.[.[.[.[.[.[.[.[.[.[.[.[.[.[.[.[.[.[.[.[.[.[.[.[.[.[.[.[.[.[.[.[.[.[.[.[.[.[.[.[.[.[.[.[.[.",
"[.[.[.[.[.[.[.[.[.[.[.[.[.[.[.[.[.[.[.[.[.[.[.[.[.[.[.[.[.[.[.[.                    [.[.[.[.[.[.[.[.[.[.[.[.[.[.[.[.[.[.[.[.[.[.",
"[.[.[.[.[.[.[.[.[.[.[.[.[.[.[.[.[.[.[.[.[.[.[.[.[.[.[.[.[.[.[.[.= = $ @ + @ + @ + + [.[.[.[.[.[.[.[.[.[.[.[.[.[.[.[.[.[.[.[.[.[.",
"[.[.[.[.[.[.[.[.[.[.[.[.[.[.[.[.[.[.[.[.[.[.[.[.[.[.[.[.[.[.  = E / B 8 8 8 8 8 8 < X   [.[.[.[.[.[.[.[.[.[.[.[.[.[.[.[.[.[.[.[.",
"[.[.[.[.[.[.[.[.[.[.[.[.[.[.[.[.[.[.[.[.[.[.[.[.[.[.[.[.[.[.+ 2 _ =.] G S m m m S k 2 % [.[.[.[.[.[.[.[.[.[.[.[.[.[.[.[.[.[.[.[.",
"[.[.[.[.[.[.[.[.[.[.[.[.[.[.[.[.[.[.[.[.[.[.[.[.[.[.[.[.  X , v Q ` ! G S z m S F ! | E %   [.[.[.[.[.[.[.[.[.[.[.[.[.[.[.[.[.[.",
"[.[.[.[.[.[.[.[.[.[.[.[.[.[.[.[.[.[.[.[.[.[.[.[.[.[.[.[.+ : j S F G ` ` D b b m F ] p.X.u % [.[.[.[.[.[.[.[.[.[.[.[.[.[.[.[.[.[.",
"[.[.[.[.[.[.[.[.[.[.[.[.[.[.[.[.[.[.[.[.[.[.[.[.[.[.  + < j b S F ` O.O.` S S S F ] 0.q.X.R %   [.[.[.[.[.[.[.[.[.[.[.[.[.[.[.[.",
"[.[.[.[.[.[.[.[.[.[.[.[.[.[.[.[.[.[.[.[.[.[.[.[.[.[.  + 8 m m D ! O.q.0.] F S D ` o.q.t.h. .1   [.[.[.[.[.[.[.[.[.[.[.[.[.[.[.[.",
"[.[.[.[.[.[.[.[.[.[.[.[.[.[.[.[.[.[.[.[.[.[.[.[.[.[.  + 8 S F ! O.q.t.0.` F F ` 0.d.t.t.h. .=   [.[.[.[.[.[.[.[.[.[.[.[.[.[.[.[.",
"[.[.[.[.[.[.[.[.[.[.[.[.[.[.[.[.[.[.[.[.[.[.[.[.[.[.  + j F ` o.q.h.h.p.&.#.G #.d.v.c.h.h.} =   [.[.[.[.[.[.[.[.[.[.[.[.[.[.[.[.",
"[.[.[.[.[.[.[.[.[.[.[.[.[.[.[.[.[.[.[.[.[.[.[.[.[.[.  @ v ` o.q.h.z.z.z.z.a.` #.k.n.v.z.h.} =   [.[.[.[.[.[.[.[.[.[.[.[.[.[.[.[.",
"[.[.[.[.[.[.[.[.[.[.[.[.[.[.[.[.[.[.[.[.[.[.[.[.[.[.  $ B o.q.z.v.n.n.F.J.l.#.#.x.G.n.v.z. .=   [.[.[.[.[.[.[.[.[.[.[.[.[.[.[.[.",
"[.[.[.[.[.[.[.[.[.[.[.[.[.[.[.[.[.[.[.[.[.[.[.[.[.[.  * / p.z.v.F.F.F.F.J.l.#.] x.G.G.F.F.X.-   [.[.[.[.[.[.[.[.[.[.[.[.[.[.[.[.",
"[.[.[.[.[.[.[.[.[.[.[.[.[.[.[.[.[.[.[.[.[.[.[.[.[.[.  =  .z.v.z.e.w.1.w.1.4.[ 5.f.d.e.1.>.R &   [.[.[.[.[.[.[.[.[.[.[.[.[.[.[.[.",
"[.[.[.[.[.[.[.[.[.[.[.[.[.[.[.[.[.[.[.[.[.[.[.[.[.[.  =  .c.n.e.u = & - - u 1.f.*.P 6 = = # .   [.[.[.[.[.[.[.[.[.[.[.[.[.[.[.[.",
"[.[.[.[.[.[.[.[.[.[.[.[.[.[.[.[.[.[.[.[.[.[.[.[.[.[.  = E 9.v.r.u - 0 q 4 d r.x.#.N 5 4 q 1 o   [.[.[.[.[.[.[.[.[.[.[.[.[.[.[.[.",
"[.[.[.[.[.[.[.[.[.[.[.[.[.[.[.[.[.[.[.[.[.[.[.[.[.[.[.[.% u r.v.y.k.P.(.H.D.G.x.#.] p.H.(.b.6   [.[.[.[.[.[.[.[.[.[.[.[.[.[.[.[.",
"[.[.[.[.[.[.[.[.[.[.[.[.[.[.[.[.[.[.[.[.[.[.[.[.[.[.[.[.  - w.J.J.Q.`.'.).~.L.f.#.%.H._.'.T.q   [.[.[.[.[.[.[.[.[.[.[.[.[.[.[.[.",
"[.[.[.[.[.[.[.[.[.[.[.[.[.[.[.[.[.[.[.[.[.[.[.[.[.[.      - 9.J.J.K.I.!.I.K.J.z.] #.N.I.Q.r.1   [.[.[.[.[.[.[.[.[.[.[.[.[.[.[.[.",
"[.[.[.[.[.[.[.[.[.[.[.[.[.[.[.[.[.[.[.[.[.[.[.[.[.[.o @ o 3 9.G.J.G.n.G.B.J.J.x.6.&.a.x.x.>.-   [.[.[.[.[.[.[.[.[.[.[.[.[.[.[.[.",
"[.[.[.[.[.[.[.[.[.[.[.[.[.[.[.[.[.[.[.[.[.[.[.[.  o 9 q 9 s 9.v.n.G.n.B.B.J.n.n.x.s.&.&.k.>.-   [.[.[.[.[.[.[.[.[.[.[.[.[.[.[.[.",
"[.[.[.[.[.[.[.[.[.[.[.[.[.[.[.[.[.[.[.[.[.[.[.[.+ * a J H J X.q.c.G.K.K.J.J.K.K.J.b.7.7.s.| =   [.[.[.[.[.[.[.[.[.[.[.[.[.[.[.[.",
"[.[.[.[.[.[.[.[.[.[.[.[.[.[.[.[.[.[.[.[.[.[.  + < v H H H a J _ q.G././.K.K././.P.J.!.Y.i.Z &   [.[.[.[.[.[.[.[.[.[.[.[.[.[.[.[.",
"[.[.[.[.[.[.[.[.[.[.[.[.[.[.[.[.[.[.[.[.[.[.  @ 8 S C J a y a s ..h.Q./.I.T.E.W.T.T.^.A.` < +   [.[.[.[.[.[.[.[.[.[.[.[.[.[.[.[.",
"[.[.[.[.[.[.[.[.[.[.[.[.[.[.[.[.[.[.[.[.[.[.  + < m m C V y a a A _ f.P./.^.C.C.^.^.Z.Y < + [.[.[.[.[.[.[.[.[.[.[.[.[.[.[.[.[.[.",
"[.[.[.[.[.[.[.[.[.[.[.[.[.[.[.[.[.[.[.[.[.[.  & Z I m b n y a y y A ..h.!.Y.@.V.S.S.Y h O   [.[.[.[.[.[.[.[.[.[.[.[.[.[.[.[.[.[.",
"[.[.[.[.[.[.[.[.[.[.[.[.[.[.[.[.[.[.[.[.[.[.  ; ,.a.` b y y a a y a J ..z.g.@.c V.Y > O [.[.[.[.[.[.[.[.[.[.[.[.[.[.[.[.[.[.[.[.",
"[.[.[.[.[.[.[.[.[.[.[.[.[.[.[.[.[.[.[.[.[.[.  ; ,.l.5.P H y a a a y y ~ 0.u.+.x x l +   [.[.[.[.[.[.[.[.[.[.[.[.[.[.[.[.[.[.[.[.",
"[.[.[.[.[.[.[.[.[.[.[.[.[.[.[.[.[.[.[.[.[.[.  $ f 4.x.8.) a y a a a y ~ k.d.{ C D r @   [.[.[.[.[.[.[.[.[.[.[.[.[.[.[.[.[.[.[.[.",
"[.[.[.[.[.[.[.[.[.[.[.[.[.[.[.[.[.[.[.[.[.[.  o t ;.k.j.L y y y y a J _ e.4.L H J t @   [.[.[.[.[.[.[.[.[.[.[.[.[.[.[.[.[.[.[.[.",
"[.[.[.[.[.[.[.[.[.[.[.[.[.[.[.[.[.[.[.[.[.[.  @ t K ;.) a y e e e J 4.w._ J H J L t #   [.[.[.[.[.[.[.[.[.[.[.[.[.[.[.[.[.[.[.[.",
"[.[.[.[.[.[.[.[.[.[.[.[.[.[.[.[.[.[.[.[.[.[.  @ t J J H y w w w w s 1.,.Z v H J L t @   [.[.[.[.[.[.[.[.[.[.[.[.[.[.[.[.[.[.[.[.",
"[.[.[.[.[.[.[.[.[.[.[.[.[.[.[.[.[.[.[.[.[.[.  # t J J a w 6 6 w 6 w p B z U C L J t @   [.[.[.[.[.[.[.[.[.[.[.[.[.[.[.[.[.[.[.[.",
"[.[.[.[.[.[.[.[.[.[.[.[.[.[.[.[.[.[.[.[.[.[.  @ e L K H V i i i i i i N T Y P J J t @   [.[.[.[.[.[.[.[.[.[.[.[.[.[.[.[.[.[.[.[.",
"[.[.[.[.[.[.[.[.[.[.[.[.[.[.[.[.[.[.[.[.[.[.  @ t J J L ' ' ' ' ' ' ' ] %.#.K J J t @   [.[.[.[.[.[.[.[.[.[.[.[.[.[.[.[.[.[.[.[.",
"[.[.[.[.[.[.[.[.[.[.[.[.[.[.[.[.[.[.[.[.[.[.  $ g ;.;.,.&.i.u.*.*.*.*.i.*.&.,.:.,.g &   [.[.[.[.[.[.[.[.[.[.[.[.[.[.[.[.[.[.[.[.",
"[.[.[.[.[.[.[.[.[.[.[.[.[.[.[.[.[.[.[.[.[.[.  - ,.M.b.x.u.*.*.*.*.o.*.*.*.u.l.B.B.,.-   [.[.[.[.[.[.[.[.[.[.[.[.[.[.[.[.[.[.[.[.",
"[.[.[.[.[.[.[.[.[.[.[.[.[.[.[.[.[.[.[.[.[.[.  1 w.J.J.m.i.7.6.6.O.*.*.*.i.a.e.r.y.>.-   [.[.[.[.[.[.[.[.[.[.[.[.[.[.[.[.[.[.[.[.",
"[.[.[.[.[.[.[.[.[.[.[.[.[.[.[.[.[.[.[.[.[.[.  = X.z.d.i.i.f.f.f.i.i.6.i.f.<.u ; - ; [.[.[.[.[.[.[.[.[.[.[.[.[.[.[.[.[.[.[.[.[.[.",
"[.[.[.[.[.[.[.[.[.[.[.[.[.[.[.[.[.[.[.[.[.[.  - } 0./ W *.f.f.f.f.i.' { ' J *       [.[.[.[.[.[.[.[.[.[.[.[.[.[.[.[.[.[.[.[.[.[.",
"[.[.[.[.[.[.[.[.[.[.[.[.[.[.[.[.[.[.[.[.[.[.  =  .X.5 2 ( 6.i.u.i.' 5 % * = [.[.[.[.[.[.[.[.[.[.[.[.[.[.[.[.[.[.[.[.[.[.[.[.[.[.",
"[.[.[.[.[.[.[.[.[.[.[.[.[.[.[.[.[.[.[.[.[.[.  = R R % # 5 { ' &.o.W $       [.[.[.[.[.[.[.[.[.[.[.[.[.[.[.[.[.[.[.[.[.[.[.[.[.[.",
"[.[.[.[.[.[.[.[.[.[.[.[.[.[.[.[.[.[.[.[.[.[.[.[.& - [.[.% : J ;.;.a #   [.[.[.[.[.[.[.[.[.[.[.[.[.[.[.[.[.[.[.[.[.[.[.[.[.[.[.[.",
"[.[.[.[.[.[.[.[.[.[.[.[.[.[.[.[.[.[.[.[.[.[.[.[.    [.[.  # y -.;.J 9 & [.[.[.[.[.[.[.[.[.[.[.[.[.[.[.[.[.[.[.[.[.[.[.[.[.[.[.[.",
"[.[.[.[.[.[.[.[.[.[.[.[.[.[.[.[.[.[.[.[.[.[.[.[.[.[.[.[.  # y -.3.3.:.g &   [.[.[.[.[.[.[.[.[.[.[.[.[.[.[.[.[.[.[.[.[.[.[.[.[.[.",
"[.[.[.[.[.[.[.[.[.[.[.[.[.[.[.[.[.[.[.[.[.[.[.[.[.[.[.[.  o t L :.3.3.L &   [.[.[.[.[.[.[.[.[.[.[.[.[.[.[.[.[.[.[.[.[.[.[.[.[.[.",
"[.[.[.[.[.[.[.[.[.[.[.[.[.[.[.[.[.[.[.[.[.[.[.[.[.[.[.[.  o & ; 9 9 9 ; o   [.[.[.[.[.[.[.[.[.[.[.[.[.[.[.[.[.[.[.[.[.[.[.[.[.[.",
"[.[.[.[.[.[.[.[.[.[.[.[.[.[.[.[.[.[.[.[.[.[.[.[.[.[.[.[.[.[.[.[.[.[.[.[.[.[.[.[.[.[.[.[.[.[.[.[.[.[.[.[.[.[.[.[.[.[.[.[.[.[.[.[.",
"[.[.[.[.[.[.[.[.[.[.[.[.[.[.[.[.[.[.[.[.[.[.[.[.[.[.[.[.[.[.[.[.[.[.[.[.[.[.[.[.[.[.[.[.[.[.[.[.[.[.[.[.[.[.[.[.[.[.[.[.[.[.[.[.",
"[.[.[.[.[.[.[.[.[.[.[.[.[.[.[.[.[.[.[.[.[.[.[.[.[.[.[.[.[.[.[.[.[.[.[.[.[.[.[.[.[.[.[.[.[.[.[.[.[.[.[.[.[.[.[.[.[.[.[.[.[.[.[.[."
};
