/* XPM */
static char *_81710911301[] = {
/* columns rows colors chars-per-pixel */
"64 64 195 2 ",
"   c None",
".  c #000000",
"X  c #0F0806",
"o  c #0E0C0B",
"O  c #0B0907",
"+  c #150603",
"@  c #120907",
"#  c #120C09",
"$  c #1D0804",
"%  c #0F120D",
"&  c #14130E",
"*  c #19160F",
"=  c #12180F",
"-  c #161412",
";  c #1A1614",
":  c #151A12",
">  c #1A1B15",
",  c #1C1F18",
"<  c #25150E",
"1  c #36190F",
"2  c #221F18",
"3  c #2F1A14",
"4  c #301B14",
"5  c #1D2119",
"6  c #242317",
"7  c #24231B",
"8  c #29251E",
"9  c #23291C",
"0  c #2C291B",
"q  c #322319",
"w  c #3D221B",
"e  c #34301F",
"r  c #2B2320",
"t  c #272820",
"y  c #2B2C22",
"u  c #272221",
"i  c #312722",
"p  c #332A26",
"a  c #382F26",
"s  c #352D29",
"d  c #3A2E2A",
"f  c #3C2721",
"g  c #2C3224",
"h  c #2E3428",
"j  c #333027",
"k  c #3B3425",
"l  c #333429",
"z  c #3B322C",
"x  c #3B392D",
"c  c #363A28",
"v  c #3F3430",
"b  c #3E3A33",
"n  c #47160A",
"m  c #5C1E0F",
"M  c #4B1E10",
"N  c #561E10",
"B  c #43251D",
"V  c #42291F",
"C  c #502115",
"Z  c #6F2E1D",
"A  c #602313",
"S  c #6E321D",
"D  c #7F321C",
"F  c #462C22",
"G  c #4C2C23",
"H  c #412F29",
"J  c #532E24",
"K  c #463827",
"L  c #43342C",
"P  c #4B322A",
"I  c #433D2B",
"U  c #493525",
"Y  c #543126",
"T  c #553629",
"R  c #593629",
"E  c #5B3A2B",
"W  c #533E29",
"Q  c #413632",
"!  c #483731",
"~  c #433B33",
"^  c #4A3C35",
"/  c #493D38",
"(  c #443C39",
")  c #543F32",
"_  c #6C3B26",
"`  c #603623",
"'  c #38442D",
"]  c #37442C",
"[  c #4B442F",
"{  c #46402D",
"}  c #56412E",
"|  c #5B412F",
" . c #464236",
".. c #4C4632",
"X. c #474D33",
"o. c #4E4934",
"O. c #4B423A",
"+. c #4C4D3A",
"@. c #434D39",
"#. c #5C4531",
"$. c #534B34",
"%. c #5E4A34",
"&. c #554F3B",
"*. c #554535",
"=. c #465537",
"-. c #4C5136",
";. c #475738",
":. c #4C543C",
">. c #4D5C3E",
",. c #585237",
"<. c #5D543A",
"1. c #5D5A3D",
"2. c #6A412A",
"3. c #784026",
"4. c #74472D",
"5. c #604C37",
"6. c #614C39",
"7. c #62543E",
"8. c #635B3E",
"9. c #675438",
"0. c #656E3E",
"q. c #514A42",
"w. c #584E4A",
"e. c #4E5A42",
"r. c #495340",
"t. c #555243",
"y. c #5C5442",
"u. c #545C45",
"i. c #5A5A48",
"p. c #665740",
"a. c #645D41",
"s. c #6C5E43",
"d. c #675F48",
"f. c #625652",
"g. c #556345",
"h. c #5C6745",
"j. c #5E6A46",
"k. c #546048",
"l. c #5B654C",
"z. c #5C6A4B",
"x. c #5F724A",
"c. c #5E6B51",
"v. c #646343",
"b. c #6A6244",
"n. c #616A47",
"m. c #66644B",
"M. c #6A654A",
"N. c #646C4C",
"B. c #6B694B",
"V. c #726B4C",
"C. c #62744E",
"Z. c #636B52",
"A. c #6B6E53",
"S. c #616651",
"D. c #726F54",
"F. c #647553",
"G. c #6B7355",
"H. c #667A53",
"J. c #697A56",
"K. c #6C745B",
"L. c #6D7D5C",
"P. c #737659",
"I. c #737757",
"U. c #737C62",
"Y. c #85311A",
"T. c #83432A",
"R. c #895E41",
"E. c #8C6344",
"W. c #8B7555",
"Q. c #947554",
"!. c #6B814C",
"~. c #6F815D",
"^. c #71815E",
"/. c #788854",
"(. c #6E8160",
"). c #738362",
"_. c #788565",
"`. c #778B60",
"'. c #7A8A65",
"]. c #7D9266",
"[. c #8E815C",
"{. c #838B6B",
"}. c #878966",
"|. c #938B67",
" X c #928E69",
".X c #83916B",
"XX c #869767",
"oX c #96916B",
"OX c #8E9A73",
"+X c #8B9470",
"@X c #94AB6E",
"#X c #96AF71",
"$X c #A2AC88",
"%X c #A8B588",
"&X c #AAB88A",
/* pixels */
"                                                                                                                                ",
"                                                                                                                                ",
"                                                                                                                                ",
"                                                                                                                                ",
"                                                                                                                                ",
"                                                                                                                                ",
"                                                                                                                                ",
"                                                                                                                                ",
"                                                                                                                                ",
"                                                                                                                                ",
"                                                                                                                                ",
"                                                                                                                                ",
"                                                                                                                                ",
"                                                                                                                                ",
"                                                                        . . . . . . . . . .                                     ",
"                                                                        : : & # # # # $ # @                                     ",
"                                                                    . = ] X.K V w w w w w 4 X .                                 ",
"                                                                    @ 6 +.0.%.R T C J J Y F 6 =                                 ",
"                                                                . @ 4 V } %.| E Y Y J Y R } -.] = .                             ",
"                                                                X < B Y R E #.| T Y J Y R %.j.>.g -                             ",
"                                                            . @ 3 B G Y R %.1.1.} Y Y Y T %.h.j.>.] = .                         ",
"                                                            . @ w J J T | ,.j.h.%.R Y T #.<.j.C.C.;.5 .                         ",
"                                                            . # w J R | 1.j.x.h.%.R R | a.N.x.x.C.;.= .                         ",
"                                                            . @ w R #.<.j.C.C.n.<.5.E <.N.J.F.C.x.;.: .                         ",
"                                                            . # V #.1.j.C.F.F.H.G.d.#.%.A.L.H.F.C.;.: .                         ",
"                                                            . & U 7.j.H.J.J.L.L.).G.6.6.G.~.~.J.H.;.: .                         ",
"                                                            . : X.n.F.J.L.~.^.).).G.6.6.A.).^.~.L.>.> .                         ",
"                                                            . : =.C.J.F.l.g.u.u.g.t.<.8.M.Z.l.u.e.' = .                         ",
"                                                            . : ;.H.~.l.h : : : = g u.B.8.[ 0 : : % . .                         ",
"                                                            . : ] g.J.c.h > t y 5 ] z.G.6.Y 0 9 y 7 o .                         ",
"                                                                - g c.J.c.Z.{..X/.!.^.A.6.#.n./.+XK.7 .                         ",
"                                                                . : u.).(.{.$X&X@XXX/.A.%.9./.#X&X{.y .                         ",
"                                                            . . . 5 u.).).).{..X].'.).A.%.6.I.]..Xc., .                         ",
"                                                            o # o 9 g.~.).).L.(.L.).(.G.p.7.m.A.H.e.> .                         ",
"                                                        . o r p r x g.H.L.U.(.L.L.L.L.L.H.m.7.p.N.>.> .                         ",
"                                                        # > s ! L ~ >.z.H.).'.'.).).'.'.).P.d.s.B.+.: .                         ",
"                                                    . o r d P P L z ~ +.z.^.+XOX'.'.OXOX_._. X}.s.K & .                         ",
"                                                    . % s ^ J G H z z ~ :.C.XXOX.X}.|.|.{.{.oXW.#.q # .                         ",
"                                                    . % s ! Y G H z d z ~ :.N.'.OX|.R.R.|.oXE._ 4 #                             ",
"                                                    . o u v ) ) P d z z d I &.C..X[.T.T.Q.W._ n + .                             ",
"                                                        o t i.d.) F H d z z I :.F.V.3.Y.T._ 4 $                                 ",
"                                                        . > u.A.7.) L z z d d ~ l.v.2.Z Z M # .                                 ",
"                                                        . - b i.A.m.O.d z d d  .N.Z.*.P T f # .                                 ",
"                                                        . o y q.Z.S. .d z z ~ t.l.u.c p v d > o                                 ",
"                                                        . # p O.q.O.L p p ~ u.i.+.d ; ; d ~ v u # .                             ",
"                                                        . o p ~ ( v s i i z u.u.s ; . & d / / s # .                             ",
"                                                        . o p / ( v p 8 r p z p - O     Q ( / p o .                             ",
"                                                        & 8 L O.^ v s p a z k 0 > &     p z Q d > o                             ",
"                                                    . & k $.,.&.^ ~ z ~ *.&.$.*.o.k & . o > s Q d 8 o .                         ",
"                                                    . * [ b.b.1.t.q.q.t.8.8.8.0.b.*.: . . & b w.w.~ - .                         ",
"                                                    . & ..b.8.m.A.K.K.A.8.<.7.8.0.[ * . . > u.U.U.u.: .                         ",
"                                                    - 8 o.p.a.B.P._.).I.v.,.<.8.p.[ & . . , r.c.c.r., .                         ",
"                                                . : b q.q.w.b.V.D.P.P.V.p.<.8.8.a.[ & .     , 5 , >                             ",
"                                                . ; q.f.( ~ y.B.B.d.t.o.I [ ,.8.8.$.0 &     . . . .                             ",
"                                                . ; q.w.u 2 ..8.8.$.0 - & 6 [ 8.8.1.$.k - .                                     ",
"                                                . ; ( Q - # p { { f < + . * E 9.0.M.B.o.; .                                     ",
"                                                    ; -     & & & < C N     S 4.M.L.L.u.: .                                     ",
"                                                    . .     . . . $ A Y.    m ` m.(.).c.c >                                     ",
"                                                                            $ 0 u.(._.).F.r.> .                                 ",
"                                                                            . & @.c.F.K.K.e.> .                                 ",
"                                                                            . O 5 g g h h t o .                                 ",
"                                                                                                                                ",
"                                                                                                                                ",
"                                                                                                                                "
};
