/* XPM */
static char *result[] = {
/* columns rows colors chars-per-pixel */
"64 64 188 2 ",
"   c #000000",
".  c #0F0806",
"X  c #0E0C0B",
"o  c #0F0706",
"O  c #130604",
"+  c #120907",
"@  c #120D0A",
"#  c #190C07",
"$  c #0F120D",
"%  c #14130D",
"&  c #12180F",
"*  c #151511",
"=  c #191614",
"-  c #161A12",
";  c #191C15",
":  c #1A1F18",
">  c #25150F",
",  c #27180F",
"<  c #2E1B13",
"1  c #211E17",
"2  c #301B14",
"3  c #1E221A",
"4  c #242317",
"5  c #24241C",
"6  c #2A261D",
"7  c #23291C",
"8  c #2C291C",
"9  c #352118",
"0  c #3D221A",
"q  c #2B2421",
"w  c #272820",
"e  c #2A2B22",
"r  c #302622",
"t  c #332925",
"y  c #342C28",
"u  c #392E2A",
"i  c #3B2721",
"p  c #2B3225",
"a  c #2F3528",
"s  c #353020",
"d  c #393225",
"f  c #313629",
"g  c #3C322C",
"h  c #3D392E",
"j  c #333C2A",
"k  c #3F3530",
"l  c #3E3A32",
"z  c #4D1F12",
"x  c #571F10",
"c  c #581F10",
"v  c #43251D",
"b  c #42291F",
"n  c #5B2E1B",
"m  c #70301E",
"M  c #7E301A",
"N  c #452C21",
"B  c #4C2B22",
"V  c #412F29",
"C  c #522E24",
"Z  c #463827",
"A  c #44352B",
"S  c #4B332B",
"D  c #443E29",
"F  c #493525",
"G  c #553126",
"H  c #563629",
"J  c #593629",
"K  c #5B3A2B",
"L  c #423631",
"P  c #443B34",
"I  c #493B35",
"U  c #493D38",
"Y  c #553F31",
"T  c #5A3E30",
"R  c #643828",
"E  c #773D25",
"W  c #38442D",
"Q  c #37442C",
"!  c #3B4432",
"~  c #4B442E",
"^  c #46412D",
"/  c #56412E",
"(  c #5B412F",
")  c #4A4330",
"_  c #474D33",
"`  c #4F4A34",
"'  c #4D443C",
"]  c #444E3B",
"[  c #4C4D39",
"{  c #524730",
"}  c #5C4431",
"|  c #534B35",
" . c #5E4A34",
".. c #564F3A",
"X. c #5D4E3C",
"o. c #465537",
"O. c #4C5136",
"+. c #475738",
"@. c #4C543C",
"#. c #4D5C3E",
"$. c #5D553A",
"%. c #5D5A3D",
"&. c #54523A",
"*. c #77492F",
"=. c #614C36",
"-. c #614C39",
";. c #7A4730",
":. c #704A30",
">. c #7B4831",
",. c #61553D",
"<. c #625A3E",
"1. c #695539",
"2. c #7A5338",
"3. c #656E3E",
"4. c #4D4440",
"5. c #514B42",
"6. c #4E5A42",
"7. c #495340",
"8. c #555243",
"9. c #535B45",
"0. c #5C5A44",
"q. c #665740",
"w. c #645D41",
"e. c #6B5E44",
"r. c #556345",
"t. c #5E6744",
"y. c #5E6A46",
"u. c #556249",
"i. c #5B644B",
"p. c #5C6A4C",
"a. c #5F724A",
"s. c #5E6C52",
"d. c #636042",
"f. c #6A6346",
"g. c #616A47",
"h. c #67634A",
"j. c #6B654A",
"k. c #636C4B",
"l. c #6B6A4E",
"z. c #726C4C",
"x. c #62744E",
"c. c #666650",
"v. c #636C52",
"b. c #6A6E53",
"n. c #726F54",
"m. c #657553",
"M. c #6B7355",
"N. c #667A53",
"B. c #697A56",
"V. c #6B745B",
"C. c #6D7D5C",
"Z. c #747356",
"A. c #787657",
"S. c #737757",
"D. c #727B61",
"F. c #88321B",
"G. c #813F27",
"H. c #82432A",
"J. c #895E41",
"K. c #8B6244",
"L. c #877657",
"P. c #927857",
"I. c #937553",
"U. c #6B814C",
"Y. c #6F815D",
"T. c #71815E",
"R. c #788854",
"E. c #738361",
"W. c #788565",
"Q. c #778B60",
"!. c #7A8A65",
"~. c #7D9266",
"^. c #8E815C",
"/. c #838B6B",
"(. c #878966",
"). c #938B67",
"_. c #948F69",
"`. c #83916B",
"'. c #869767",
"]. c #95906B",
"[. c #8E9A73",
"{. c #8B9470",
"}. c #94AB6E",
"|. c #96AF71",
" X c #A2AC88",
".X c #A8B588",
"XX c #AAB88A",
"oX c None",
/* pixels */
"oXoXoXoXoXoXoXoXoXoXoXoXoXoXoXoXoXoXoXoXoXoXoXoXoXoXoXoXoXoXoXoXoXoXoXoXoXoXoXoXoXoXoXoXoXoXoXoXoXoXoXoXoXoXoXoXoXoXoXoXoXoXoXoX",
"oXoXoXoXoXoXoXoXoXoXoXoXoXoXoXoXoXoXoXoXoXoXoXoXoXoXoXoXoXoXoXoXoXoXoXoXoXoXoXoXoXoXoXoXoXoXoXoXoXoXoXoXoXoXoXoXoXoXoXoXoXoXoXoX",
"oXoXoXoXoXoXoXoXoXoXoXoXoXoXoXoXoXoXoXoXoXoXoXoXoXoXoXoXoXoXoXoXoXoXoXoXoXoXoXoXoXoXoXoXoXoXoXoXoXoXoXoXoXoXoXoXoXoXoXoXoXoXoXoX",
"oXoXoXoXoXoXoXoXoXoXoXoXoXoXoXoXoXoXoXoXoXoXoXoXoXoXoXoXoXoXoXoXoXoXoXoXoXoXoXoXoXoXoXoXoXoXoXoXoXoXoXoXoXoXoXoXoXoXoXoXoXoXoXoX",
"oXoXoXoXoXoXoXoXoXoXoXoXoXoXoXoXoXoXoXoXoXoXoXoXoXoXoXoXoXoXoXoXoXoXoXoXoXoXoXoXoXoXoXoXoXoXoXoXoXoXoXoXoXoXoXoXoXoXoXoXoXoXoXoX",
"oXoXoXoXoXoXoXoXoXoXoXoXoXoXoXoXoXoXoXoXoXoXoXoXoXoXoXoXoXoXoXoXoXoXoXoXoXoXoXoXoXoXoXoXoXoXoXoXoXoXoXoXoXoXoXoXoXoXoXoXoXoXoXoX",
"oXoXoXoXoXoXoXoXoXoXoXoXoXoXoXoXoXoXoXoXoXoXoXoXoXoXoXoXoXoXoXoXoXoXoXoXoXoXoXoXoXoXoXoXoXoXoXoXoXoXoXoXoXoXoXoXoXoXoXoXoXoXoXoX",
"oXoXoXoXoXoXoXoXoXoXoXoXoXoXoXoXoXoXoXoXoXoXoXoXoXoXoXoXoXoXoXoXoXoXoXoXoXoXoXoXoXoXoXoXoXoXoXoXoXoXoXoXoXoXoXoXoXoXoXoXoXoXoXoX",
"oXoXoXoXoXoXoXoXoXoXoXoXoXoXoXoXoXoXoXoXoXoXoXoXoXoXoXoXoXoXoXoXoXoXoXoXoXoXoXoXoXoXoXoXoXoXoXoXoXoXoXoXoXoXoXoXoXoXoXoXoXoXoXoX",
"oXoXoXoXoXoXoXoXoXoXoXoXoXoXoXoXoXoXoXoXoXoXoXoXoXoXoXoXoXoXoXoXoXoXoXoXoXoXoXoXoXoXoXoXoXoXoXoXoXoXoXoXoXoXoXoXoXoXoXoXoXoXoXoX",
"oXoXoXoXoXoXoXoXoXoXoXoXoXoXoXoXoXoXoXoXoXoXoXoXoXoXoXoXoXoXoXoXoXoXoXoXoXoXoXoXoXoXoXoXoXoXoXoXoXoXoXoXoXoXoXoXoXoXoXoXoXoXoXoX",
"oXoXoXoXoXoXoXoXoXoXoXoXoXoXoXoXoXoXoXoXoXoXoXoXoXoXoXoXoXoXoXoXoXoXoXoXoXoXoXoXoXoXoXoXoXoXoXoXoXoXoXoXoXoXoXoXoXoXoXoXoXoXoXoX",
"oXoXoXoXoXoXoXoXoXoXoXoXoXoXoXoXoXoXoXoXoXoXoXoXoXoXoXoXoXoXoXoX                    oXoXoXoXoXoXoXoXoXoXoXoXoXoXoXoXoXoXoXoXoXoX",
"oXoXoXoXoXoXoXoXoXoXoXoXoXoXoXoXoXoXoXoXoXoXoXoXoXoXoXoXoXoXoXoX- - % @ # + + + @ + oXoXoXoXoXoXoXoXoXoXoXoXoXoXoXoXoXoXoXoXoXoX",
"oXoXoXoXoXoXoXoXoXoXoXoXoXoXoXoXoXoXoXoXoXoXoXoXoXoXoXoXoXoX  - W _ Z b 0 0 0 v 0 2 +   oXoXoXoXoXoXoXoXoXoXoXoXoXoXoXoXoXoXoXoX",
"oXoXoXoXoXoXoXoXoXoXoXoXoXoXoXoXoXoXoXoXoXoXoXoXoXoXoXoXoXoXo 4 O.d. .K G C C C G N 1 & oXoXoXoXoXoXoXoXoXoXoXoXoXoXoXoXoXoXoXoX",
"oXoXoXoXoXoXoXoXoXoXoXoXoXoXoXoXoXoXoXoXoXoXoXoXoXoXoXoX  + 2 N /  .( K G C B G J / O.Q &   oXoXoXoXoXoXoXoXoXoXoXoXoXoXoXoXoXoX",
"oXoXoXoXoXoXoXoXoXoXoXoXoXoXoXoXoXoXoXoXoXoXoXoXoXoXoXoX. > v G J K  ./ H C C G J  .t.#.p & oXoXoXoXoXoXoXoXoXoXoXoXoXoXoXoXoXoX",
"oXoXoXoXoXoXoXoXoXoXoXoXoXoXoXoXoXoXoXoXoXoXoXoXoXoX  + < N B C J } %.%./ H C C J  .t.a.#.Q -   oXoXoXoXoXoXoXoXoXoXoXoXoXoXoXoX",
"oXoXoXoXoXoXoXoXoXoXoXoXoXoXoXoXoXoXoXoXoXoXoXoXoXoX  @ 0 C C G / $.y.t. .J G J ( $.y.x.x.+.-   oXoXoXoXoXoXoXoXoXoXoXoXoXoXoXoX",
"oXoXoXoXoXoXoXoXoXoXoXoXoXoXoXoXoXoXoXoXoXoXoXoXoXoX  + 0 G J ( %.y.a.t.} J J } d.k.a.a.x.+.-   oXoXoXoXoXoXoXoXoXoXoXoXoXoXoXoX",
"oXoXoXoXoXoXoXoXoXoXoXoXoXoXoXoXoXoXoXoXoXoXoXoXoXoX  + 0 J } $.g.x.a.y.,. .T -.k.N.x.x.x.+.&   oXoXoXoXoXoXoXoXoXoXoXoXoXoXoXoX",
"oXoXoXoXoXoXoXoXoXoXoXoXoXoXoXoXoXoXoXoXoXoXoXoXoXoX  # b ( %.y.x.N.N.N.M.h. . .b.C.N.N.x.+.-   oXoXoXoXoXoXoXoXoXoXoXoXoXoXoXoX",
"oXoXoXoXoXoXoXoXoXoXoXoXoXoXoXoXoXoXoXoXoXoXoXoXoXoX  % Z $.g.m.B.C.B.C.E.M. . .M.T.Y.B.N.+.-   oXoXoXoXoXoXoXoXoXoXoXoXoXoXoXoX",
"oXoXoXoXoXoXoXoXoXoXoXoXoXoXoXoXoXoXoXoXoXoXoXoXoXoX  - _ g.x.B.C.E.E.E.E.M. . .M.T.E.Y.C.#.;   oXoXoXoXoXoXoXoXoXoXoXoXoXoXoXoX",
"oXoXoXoXoXoXoXoXoXoXoXoXoXoXoXoXoXoXoXoXoXoXoXoXoXoX  - +.N.B.m.p.9.9.9.u.9.X.q.j.v.i.9.6.W &   oXoXoXoXoXoXoXoXoXoXoXoXoXoXoXoX",
"oXoXoXoXoXoXoXoXoXoXoXoXoXoXoXoXoXoXoXoXoXoXoXoXoXoX  - +.N.C.p.p - - - - p 9.l.<.Y 6 - - $     oXoXoXoXoXoXoXoXoXoXoXoXoXoXoXoX",
"oXoXoXoXoXoXoXoXoXoXoXoXoXoXoXoXoXoXoXoXoXoXoXoXoXoX  & W u.B.p.a ; w e 4 j s.M.=.F 8 7 e 5 X   oXoXoXoXoXoXoXoXoXoXoXoXoXoXoXoX",
"oXoXoXoXoXoXoXoXoXoXoXoXoXoXoXoXoXoXoXoXoXoXoXoXoXoXoXoX& p p.B.s.v./.`.R.U.Y.x. . .3.R.{.V.5   oXoXoXoXoXoXoXoXoXoXoXoXoXoXoXoX",
"oXoXoXoXoXoXoXoXoXoXoXoXoXoXoXoXoXoXoXoXoXoXoXoXoXoXoXoX  ; 9.E.E.`. XXX}.'.R.b. .1.R.|..X/.e   oXoXoXoXoXoXoXoXoXoXoXoXoXoXoXoX",
"oXoXoXoXoXoXoXoXoXoXoXoXoXoXoXoXoXoXoXoXoXoXoXoXoXoX      ; u.E.E.E./.`.!.Q.W.M. .=.S.~./.v.3   oXoXoXoXoXoXoXoXoXoXoXoXoXoXoXoX",
"oXoXoXoXoXoXoXoXoXoXoXoXoXoXoXoXoXoXoXoXoXoXoXoXoXoX@ X X 7 u.T.T.D.T.C.T.T.Y.M.q.,.h.M.B.7.;   oXoXoXoXoXoXoXoXoXoXoXoXoXoXoXoX",
"oXoXoXoXoXoXoXoXoXoXoXoXoXoXoXoXoXoXoXoXoXoXoXoX  X q y q h r.N.Y.T.C.C.T.C.E.C.M.j.,.q.v.#.;   oXoXoXoXoXoXoXoXoXoXoXoXoXoXoXoX",
"oXoXoXoXoXoXoXoXoXoXoXoXoXoXoXoXoXoXoXoXoXoXoXoX  X y P L ^ @.p.m.T.!.W.E.E.!.!.W.V.e.e.h.[ =   oXoXoXoXoXoXoXoXoXoXoXoXoXoXoXoX",
"oXoXoXoXoXoXoXoXoXoXoXoXoXoXoXoXoXoXoXoXoXoXoXoX  @ y I P P I [ p.Y.[.[.W.!.[.[.!.W._.(.e.Z %   oXoXoXoXoXoXoXoXoXoXoXoXoXoXoXoX",
"oXoXoXoXoXoXoXoXoXoXoXoXoXoXoXoXoXoXoXoXoXoXoXoX  @ t I U L g P @.m.`.[././.).)././._.L.} 9 +   oXoXoXoXoXoXoXoXoXoXoXoXoXoXoXoX",
"oXoXoXoXoXoXoXoXoXoXoXoXoXoXoXoXoXoXoXoXoXoXoXoX  @ 0 S P L k u P [ x.!.[.).J.K.].].K.R 2 @ oXoXoXoXoXoXoXoXoXoXoXoXoXoXoXoXoXoX",
"oXoXoXoXoXoXoXoXoXoXoXoXoXoXoXoXoXoXoXoXoXoXoXoX  @ 2 G S L k u u D &.m.`.^.H.G.P.P.>.z #   oXoXoXoXoXoXoXoXoXoXoXoXoXoXoXoXoXoX",
"oXoXoXoXoXoXoXoXoXoXoXoXoXoXoXoXoXoXoXoXoXoXoXoX  + N C C S A g g g l @.x.z.*.M G.H.T i @   oXoXoXoXoXoXoXoXoXoXoXoXoXoXoXoXoXoX",
"oXoXoXoXoXoXoXoXoXoXoXoXoXoXoXoXoXoXoXoXoXoXoXoX  @ S T G B V g g g g D @.%.*.m m n Y y X   oXoXoXoXoXoXoXoXoXoXoXoXoXoXoXoXoXoX",
"oXoXoXoXoXoXoXoXoXoXoXoXoXoXoXoXoXoXoXoXoXoXoXoX  : 8.j.T B V g g g g g l [ f.e.Y S L y $   oXoXoXoXoXoXoXoXoXoXoXoXoXoXoXoXoXoX",
"oXoXoXoXoXoXoXoXoXoXoXoXoXoXoXoXoXoXoXoXoXoXoXoX  : 7.i.X.Y L g u u g g l 8.V.s.l t k u = X oXoXoXoXoXoXoXoXoXoXoXoXoXoXoXoXoXoX",
"oXoXoXoXoXoXoXoXoXoXoXoXoXoXoXoXoXoXoXoXoXoXoXoXoXoX; f i.c.4.k u y y l 8.m.C.u.5 = y P g q X   oXoXoXoXoXoXoXoXoXoXoXoXoXoXoXoX",
"oXoXoXoXoXoXoXoXoXoXoXoXoXoXoXoXoXoXoXoXoXoXoXoXoXoX  - 9.c.5.L u t r P s.B.p.! $ X y U U y $   oXoXoXoXoXoXoXoXoXoXoXoXoXoXoXoX",
"oXoXoXoXoXoXoXoXoXoXoXoXoXoXoXoXoXoXoXoXoXoXoXoXoXoX  * l 5.' L u r y P k.p.p &   @ y P U y $   oXoXoXoXoXoXoXoXoXoXoXoXoXoXoXoX",
"oXoXoXoXoXoXoXoXoXoXoXoXoXoXoXoXoXoXoXoXoXoXoXoXoXoX  X t P P k y 9 q k 9.] *     * y U U y @   oXoXoXoXoXoXoXoXoXoXoXoXoXoXoXoX",
"oXoXoXoXoXoXoXoXoXoXoXoXoXoXoXoXoXoXoXoXoXoXoXoXoXoX  X y P I k y q q t d e X     * y U I y @   oXoXoXoXoXoXoXoXoXoXoXoXoXoXoXoX",
"oXoXoXoXoXoXoXoXoXoXoXoXoXoXoXoXoXoXoXoXoXoXoXoXoXoX* 1 u P I L g d d d y r 1 %   @ y P P y @   oXoXoXoXoXoXoXoXoXoXoXoXoXoXoXoX",
"oXoXoXoXoXoXoXoXoXoXoXoXoXoXoXoXoXoXoXoXoXoXoXoX  * d ) U P P U | ..| { | | ` d @ X y U P y @   oXoXoXoXoXoXoXoXoXoXoXoXoXoXoXoX",
"oXoXoXoXoXoXoXoXoXoXoXoXoXoXoXoXoXoXoXoXoXoXoXoX  = ) w.5.5.5.5.<.<.<.%.<.<.<.{ * $ l 8.5.l *   oXoXoXoXoXoXoXoXoXoXoXoXoXoXoXoX",
"oXoXoXoXoXoXoXoXoXoXoXoXoXoXoXoXoXoXoXoXoXoXoXoX  % ~ h.b.V.V.b.3.,.$.$.<.<.w.~ * = 8.D.D.9.;   oXoXoXoXoXoXoXoXoXoXoXoXoXoXoXoX",
"oXoXoXoXoXoXoXoXoXoXoXoXoXoXoXoXoXoXoXoXoXoXoXoX  % s &.V.W.!.S.j.,.$.$.,.<.w.~ % * ] s.s.7.:   oXoXoXoXoXoXoXoXoXoXoXoXoXoXoXoX",
"oXoXoXoXoXoXoXoXoXoXoXoXoXoXoXoXoXoXoXoXoXoXoXoXoXoXX 8 0.S.S.n.l.e.0.$.%.<.<.) %   - 3 3 : oXoXoXoXoXoXoXoXoXoXoXoXoXoXoXoXoXoX",
"oXoXoXoXoXoXoXoXoXoXoXoXoXoXoXoXoXoXoXoXoXoXoXoXoXoXX 5 ..j.j.w.$.| ^ ~ $.<.3.{ 8 @         oXoXoXoXoXoXoXoXoXoXoXoXoXoXoXoXoXoX",
"oXoXoXoXoXoXoXoXoXoXoXoXoXoXoXoXoXoXoXoXoXoXoXoX  X q k ..q.q.` 8 * % 4 / <.3.<.| d %   oXoXoXoXoXoXoXoXoXoXoXoXoXoXoXoXoXoXoXoX",
"oXoXoXoXoXoXoXoXoXoXoXoXoXoXoXoXoXoXoXoXoXoXoXoX  * P 5.) D ^ s @   O > d / =.1.f.[ =   oXoXoXoXoXoXoXoXoXoXoXoXoXoXoXoXoXoXoXoX",
"oXoXoXoXoXoXoXoXoXoXoXoXoXoXoXoXoXoXoXoXoXoXoXoX  = 4.5.6 % % % oXoXc z > , n ;.n.9.-   oXoXoXoXoXoXoXoXoXoXoXoXoXoXoXoXoXoXoXoX",
"oXoXoXoXoXoXoXoXoXoXoXoXoXoXoXoXoXoXoXoXoXoXoXoX  = P P *       oXoXF.n O # n 2.S.s.j ; oXoXoXoXoXoXoXoXoXoXoXoXoXoXoXoXoXoXoXoX",
"oXoXoXoXoXoXoXoXoXoXoXoXoXoXoXoXoXoXoXoXoXoXoXoXoXoX= = oXoXoXoXoXoXoXoX  = | Z.E.D.m.7.:   oXoXoXoXoXoXoXoXoXoXoXoXoXoXoXoXoXoX",
"oXoXoXoXoXoXoXoXoXoXoXoXoXoXoXoXoXoXoXoXoXoXoXoXoXoX    oXoXoXoXoXoXoXoX  - ] k.V.V.V.6.=   oXoXoXoXoXoXoXoXoXoXoXoXoXoXoXoXoXoX",
"oXoXoXoXoXoXoXoXoXoXoXoXoXoXoXoXoXoXoXoXoXoXoXoXoXoX    oXoXoXoXoXoXoXoX  X 3 p p a f 7 X   oXoXoXoXoXoXoXoXoXoXoXoXoXoXoXoXoXoX",
"oXoXoXoXoXoXoXoXoXoXoXoXoXoXoXoXoXoXoXoXoXoXoXoXoXoXoXoXoXoXoXoXoXoXoXoXoXoXoXoXoXoXoXoXoXoXoXoXoXoXoXoXoXoXoXoXoXoXoXoXoXoXoXoX",
"oXoXoXoXoXoXoXoXoXoXoXoXoXoXoXoXoXoXoXoXoXoXoXoXoXoXoXoXoXoXoXoXoXoXoXoXoXoXoXoXoXoXoXoXoXoXoXoXoXoXoXoXoXoXoXoXoXoXoXoXoXoXoXoX",
"oXoXoXoXoXoXoXoXoXoXoXoXoXoXoXoXoXoXoXoXoXoXoXoXoXoXoXoXoXoXoXoXoXoXoXoXoXoXoXoXoXoXoXoXoXoXoXoXoXoXoXoXoXoXoXoXoXoXoXoXoXoXoXoX"
};
