/* XPM */
static char *result[] = {
/* columns rows colors chars-per-pixel */
"64 64 181 2 ",
"   c #000000",
".  c #0E0C0B",
"X  c #130C0A",
"o  c #1D0F09",
"O  c #1A0B07",
"+  c #0F120D",
"@  c #13140D",
"#  c #13180F",
"$  c #161411",
"%  c #191613",
"&  c #161A11",
"*  c #1B1A15",
"=  c #1F1C1A",
"-  c #261B13",
";  c #1E2119",
":  c #24231B",
">  c #29241E",
",  c #25291C",
"<  c #2C2A1D",
"1  c #242116",
"2  c #362219",
"3  c #3D231B",
"4  c #28301F",
"5  c #262220",
"6  c #2A2422",
"7  c #272820",
"8  c #2B2B23",
"9  c #332925",
"0  c #3D2821",
"q  c #352D29",
"w  c #3A2F2A",
"e  c #322723",
"r  c #2C3324",
"t  c #3B3625",
"y  c #37302D",
"u  c #3C322C",
"i  c #3D3A2E",
"p  c #333E27",
"a  c #3E3530",
"s  c #3F3B33",
"d  c #422A1F",
"f  c #5E2B1E",
"g  c #532215",
"h  c #70311E",
"j  c #7E301A",
"k  c #452D24",
"l  c #462F28",
"z  c #522E24",
"x  c #4B3224",
"c  c #40322B",
"v  c #433C2D",
"b  c #4C3C2A",
"n  c #493528",
"m  c #553126",
"M  c #5D3220",
"N  c #563528",
"B  c #593729",
"V  c #55392B",
"C  c #5B3A2B",
"Z  c #413632",
"A  c #453B35",
"S  c #483C36",
"D  c #453D39",
"F  c #483E38",
"G  c #513931",
"H  c #663224",
"J  c #773D27",
"K  c #793F26",
"L  c #36432A",
"P  c #38432D",
"I  c #47412F",
"U  c #4B442E",
"Y  c #5C422F",
"T  c #474137",
"R  c #4B4534",
"E  c #4E4B35",
"W  c #4C4339",
"Q  c #4D4A3D",
"!  c #464C32",
"~  c #574032",
"^  c #5D4633",
"/  c #524B34",
"(  c #5D4935",
")  c #544C3A",
"_  c #584F3A",
"`  c #465537",
"'  c #495437",
"]  c #475638",
"[  c #49573A",
"{  c #4C5A3C",
"}  c #565039",
"|  c #5B533B",
" . c #51583F",
".. c #5D5B3D",
"X. c #545336",
"o. c #74432E",
"O. c #78452F",
"+. c #604B36",
"@. c #6E4A30",
"#. c #624C39",
"$. c #62553D",
"%. c #645B3E",
"&. c #67533A",
"*. c #656F3E",
"=. c #4E4540",
"-. c #534B44",
";. c #564C48",
":. c #4F5C42",
">. c #525343",
",. c #5C5641",
"<. c #545D46",
"1. c #5E534E",
"2. c #595F4A",
"3. c #5F5450",
"4. c #645740",
"5. c #645C42",
"6. c #6E5E45",
"7. c #5C6645",
"8. c #5C6A46",
"9. c #556248",
"0. c #5B644C",
"q. c #5C6A4D",
"w. c #546344",
"e. c #5E734A",
"r. c #666244",
"t. c #6A6245",
"y. c #616C47",
"u. c #65654B",
"i. c #6C654B",
"p. c #656C4D",
"a. c #6D694D",
"s. c #716A4D",
"d. c #61754C",
"f. c #616751",
"g. c #656C52",
"h. c #6A6E52",
"j. c #647551",
"k. c #6B7254",
"l. c #667953",
"z. c #687A56",
"x. c #6D745D",
"c. c #6C7C5B",
"v. c #737658",
"b. c #757C5C",
"n. c #717953",
"m. c #813F27",
"M. c #82442A",
"N. c #895E41",
"B. c #8B6243",
"V. c #8B7959",
"C. c #927655",
"Z. c #6B814C",
"A. c #6F815D",
"S. c #758854",
"D. c #71815E",
"F. c #7D8A53",
"G. c #738361",
"H. c #788765",
"J. c #778B61",
"K. c #7B8A64",
"L. c #7A8B68",
"P. c #7E9267",
"I. c #8F825D",
"U. c #878161",
"Y. c #838D67",
"T. c #888967",
"R. c #848B6B",
"E. c #948B67",
"W. c #938E69",
"Q. c #82916C",
"!. c #8A936F",
"~. c #839C60",
"^. c #95916B",
"/. c #8D9671",
"(. c #8E9A72",
"). c #909C73",
"_. c #95AC6F",
"`. c #95AE70",
"'. c #A2AD89",
"]. c #A9B78A",
"[. c None",
/* pixels */
"[.[.[.[.[.[.[.[.[.[.[.[.[.[.[.[.[.[.[.[.[.[.[.[.[.[.[.[.[.[.[.[.[.[.[.[.[.[.[.[.[.[.[.[.[.[.[.[.[.[.[.[.[.[.[.[.[.[.[.[.[.[.[.[.",
"[.[.[.[.[.[.[.[.[.[.[.[.[.[.[.[.[.[.[.[.[.[.[.[.[.[.[.[.[.[.[.[.[.[.[.[.[.[.[.[.[.[.[.[.[.[.[.[.[.[.[.[.[.[.[.[.[.[.[.[.[.[.[.[.",
"[.[.[.[.[.[.[.[.[.[.[.[.[.[.[.[.[.[.[.[.[.[.[.[.[.[.[.[.[.[.[.[.[.[.[.[.[.[.[.[.[.[.[.[.[.[.[.[.[.[.[.[.[.[.[.[.[.[.[.[.[.[.[.[.",
"[.[.[.[.[.[.[.[.[.[.[.[.[.[.[.[.[.[.[.[.[.[.[.[.[.[.[.[.[.[.[.[.[.[.[.[.[.[.[.[.[.[.[.[.[.[.[.[.[.[.[.[.[.[.[.[.[.[.[.[.[.[.[.[.",
"[.[.[.[.[.[.[.[.[.[.[.[.[.[.[.[.[.[.[.[.[.[.[.[.[.[.[.[.[.[.[.[.[.[.[.[.[.[.[.[.[.[.[.[.[.[.[.[.[.[.[.[.[.[.[.[.[.[.[.[.[.[.[.[.",
"[.[.[.[.[.[.[.[.[.[.[.[.[.[.[.[.[.[.[.[.[.[.[.[.[.[.[.[.[.[.[.[.[.[.[.[.[.[.[.[.[.[.[.[.[.[.[.[.[.[.[.[.[.[.[.[.[.[.[.[.[.[.[.[.",
"[.[.[.[.[.[.[.[.[.[.[.[.[.[.[.[.[.[.[.[.[.[.[.[.[.[.[.[.[.[.[.[.[.[.[.[.[.[.[.[.[.[.[.[.[.[.[.[.[.[.[.[.[.[.[.[.[.[.[.[.[.[.[.[.",
"[.[.[.[.[.[.[.[.[.[.[.[.[.[.[.[.[.[.[.[.[.[.[.[.[.[.[.[.[.[.[.[.[.[.[.[.[.[.[.[.[.[.[.[.[.[.[.[.[.[.[.[.[.[.[.[.[.[.[.[.[.[.[.[.",
"[.[.[.[.[.[.[.[.[.[.[.[.[.[.[.[.[.[.[.[.[.[.[.[.[.[.[.[.[.[.[.[.[.[.[.[.[.[.[.[.[.[.[.[.[.[.[.[.[.[.[.[.[.[.[.[.[.[.[.[.[.[.[.[.",
"[.[.[.[.[.[.[.[.[.[.[.[.[.[.[.[.[.[.[.[.[.[.[.[.[.[.[.[.[.[.[.[.[.[.[.[.[.[.[.[.[.[.[.[.[.[.[.[.[.[.[.[.[.[.[.[.[.[.[.[.[.[.[.[.",
"[.[.[.[.[.[.[.[.[.[.[.[.[.[.[.[.[.[.[.[.[.[.[.[.[.[.[.[.[.[.[.[.[.[.[.[.[.[.[.[.[.[.[.[.[.[.[.[.[.[.[.[.[.[.[.[.[.[.[.[.[.[.[.[.",
"[.[.[.[.[.[.[.[.[.[.[.[.[.[.[.[.[.[.[.[.[.[.[.[.[.[.[.[.[.[.[.[.[.[.[.[.[.[.[.[.[.[.[.[.[.[.[.[.[.[.[.[.[.[.[.[.[.[.[.[.[.[.[.[.",
"[.[.[.[.[.[.[.[.[.[.[.[.[.[.[.[.[.[.[.[.[.[.[.[.[.[.[.[.[.[.[.[.[.[.[.[.[.[.[.[.[.[.[.[.[.[.[.[.[.[.[.[.[.[.[.[.[.[.[.[.[.[.[.[.",
"[.[.[.[.[.[.[.[.[.[.[.[.[.[.[.[.[.[.[.[.[.[.[.[.[.[.[.[.[.[.[.[.[.[.[.[.[.[.[.[.[.[.[.[.[.[.[.[.[.[.[.[.[.[.[.[.[.[.[.[.[.[.[.[.",
"[.[.[.[.[.[.[.[.[.[.[.[.[.[.[.[.[.[.[.[.[.[.[.[.[.[.                    [.[.[.[.[.[.[.[.[.[.[.[.[.[.[.[.[.[.[.[.[.[.[.[.[.[.[.[.",
"[.[.[.[.[.[.[.[.[.[.[.[.[.[.[.[.[.[.[.[.[.[.[.[.[.[.X X X X X X X o X X [.[.[.[.[.[.[.[.[.[.[.[.[.[.[.[.[.[.[.[.[.[.[.[.[.[.[.[.",
"[.[.[.[.[.[.[.[.[.[.[.[.[.[.[.[.[.[.[.[.[.[.[.[.  X 2 d d 3 3 3 k k d 2 X   [.[.[.[.[.[.[.[.[.[.[.[.[.[.[.[.[.[.[.[.[.[.[.[.[.[.",
"[.[.[.[.[.[.[.[.[.[.[.[.[.[.[.[.[.[.[.[.[.[.[.[.X - x B m z z m C H +.b , # [.[.[.[.[.[.[.[.[.[.[.[.[.[.[.[.[.[.[.[.[.[.[.[.[.[.",
"[.[.[.[.[.[.[.[.[.[.[.[.[.[.[.[.[.[.[.[.[.[.  X 2 x V C m z z z B ^ *.w.{ L #   [.[.[.[.[.[.[.[.[.[.[.[.[.[.[.[.[.[.[.[.[.[.[.[.",
"[.[.[.[.[.[.[.[.[.[.[.[.[.[.[.[.[.[.[.[.[.[.X - b ( Y B m z z N Y | 8.d.d. .4 # [.[.[.[.[.[.[.[.[.[.[.[.[.[.[.[.[.[.[.[.[.[.[.[.",
"[.[.[.[.[.[.[.[.[.[.[.[.[.[.[.[.[.[.[.[.  X 2 b ....^ B m z N Y ..8.e.e.d.8.{ L &   [.[.[.[.[.[.[.[.[.[.[.[.[.[.[.[.[.[.[.[.[.[.",
"[.[.[.[.[.[.[.[.[.[.[.[.[.[.[.[.[.[.[.[.  @ n $.y.7.( B m N Y | 8.e.e.e.e.e.d.{ &   [.[.[.[.[.[.[.[.[.[.[.[.[.[.[.[.[.[.[.[.[.[.",
"[.[.[.[.[.[.[.[.[.[.[.[.[.[.[.[.[.[.[.[.  # ! y.d.7.( C N ^ 2.p.e.e.e.e.e.d.d.] &   [.[.[.[.[.[.[.[.[.[.[.[.[.[.[.[.[.[.[.[.[.[.",
"[.[.[.[.[.[.[.[.[.[.[.[.[.[.[.[.[.[.[.[.  # ` d.d.7.( C +.$.g.l.d.d.e.e.e.e.d.` &   [.[.[.[.[.[.[.[.[.[.[.[.[.[.[.[.[.[.[.[.[.[.",
"[.[.[.[.[.[.[.[.[.[.[.[.[.[.[.[.[.[.[.[.  & [ j.j.8.( ( r.k.c.c.l.j.j.j.e.e.d.] &   [.[.[.[.[.[.[.[.[.[.[.[.[.[.[.[.[.[.[.[.[.[.",
"[.[.[.[.[.[.[.[.[.[.[.[.[.[.[.[.[.[.[.[.  & [ l.A.p.( +.k.G.G.G.c.c.c.l.j.e.e.] &   [.[.[.[.[.[.[.[.[.[.[.[.[.[.[.[.[.[.[.[.[.[.",
"[.[.[.[.[.[.[.[.[.[.[.[.[.[.[.[.[.[.[.[.  * :.c.G.k.+.( k.G.G.G.D.D.D.A.l.l.j.` &   [.[.[.[.[.[.[.[.[.[.[.[.[.[.[.[.[.[.[.[.[.[.",
"[.[.[.[.[.[.[.[.[.[.[.[.[.[.[.[.[.[.[.[.  + L :.<.,._ 4.i.p.0.w.w.<.<.0.j.z.j.] &   [.[.[.[.[.[.[.[.[.[.[.[.[.[.[.[.[.[.[.[.[.[.",
"[.[.[.[.[.[.[.[.[.[.[.[.[.[.[.[.[.[.[.[.  . + & & 8 <.a.4.~ , # & & * r 0.c.l.] &   [.[.[.[.[.[.[.[.[.[.[.[.[.[.[.[.[.[.[.[.[.[.",
"[.[.[.[.[.[.[.[.[.[.[.[.[.[.[.[.[.[.[.[.  . - 8 ; L e.k.#.x < , 8 7 = r q.c.w.P &   [.[.[.[.[.[.[.[.[.[.[.[.[.[.[.[.[.[.[.[.[.[.",
"[.[.[.[.[.[.[.[.[.[.[.[.[.[.[.[.[.[.[.[.  : x.!.S.Z.A.k.( ( *.S.Q.L.g.0.c.q.r # [.[.[.[.[.[.[.[.[.[.[.[.[.[.[.[.[.[.[.[.[.[.[.[.",
"[.[.[.[.[.[.[.[.[.[.[.[.[.[.[.[.[.[.[.[.  8 R.].`.~.D.k.( &.F.`.].'.P.G.G.9.&   [.[.[.[.[.[.[.[.[.[.[.[.[.[.[.[.[.[.[.[.[.[.[.[.",
"[.[.[.[.[.[.[.[.[.[.[.[.[.[.[.[.[.[.[.[.  = q.Q.K.J.G.k.( +.n.Q./.P.H.G.G.<.&       [.[.[.[.[.[.[.[.[.[.[.[.[.[.[.[.[.[.[.[.[.[.",
"[.[.[.[.[.[.[.[.[.[.[.[.[.[.[.[.[.[.[.[.  * { z.A.A.G.k.4.4.r.h.g.x.c.G.G.9.7 . . X [.[.[.[.[.[.[.[.[.[.[.[.[.[.[.[.[.[.[.[.[.[.",
"[.[.[.[.[.[.[.[.[.[.[.[.[.[.[.[.[.[.[.[.  * { c.c.G.b.c.x.u.$.+.( 4.x.A.l.7.s q q 5 .   [.[.[.[.[.[.[.[.[.[.[.[.[.[.[.[.[.[.[.[.",
"[.[.[.[.[.[.[.[.[.[.[.[.[.[.[.[.[.[.[.[.  & [ A.H.H.G.G.L.b.5.+.4.6.i.g.8.>.W D A w = X [.[.[.[.[.[.[.[.[.[.[.[.[.[.[.[.[.[.[.[.",
"[.[.[.[.[.[.[.[.[.[.[.[.[.[.[.[.[.[.[.[.  & [ D.(.(.H.H.(./.b.v.R.V.6.( R T A A A Z w 5 .   [.[.[.[.[.[.[.[.[.[.[.[.[.[.[.[.[.[.",
"[.[.[.[.[.[.[.[.[.[.[.[.[.[.[.[.[.[.[.[.  # L 8.Y.(.Q.Y.W.W.R.R.^.V.#.n u u Z A A S D w * . [.[.[.[.[.[.[.[.[.[.[.[.[.[.[.[.[.[.",
"[.[.[.[.[.[.[.[.[.[.[.[.[.[.[.[.[.[.[.[.[.[.# 4 8.K.).E.N.B.W.W.B.O.V u u c Z S A S S Z w 5 .   [.[.[.[.[.[.[.[.[.[.[.[.[.[.[.[.",
"[.[.[.[.[.[.[.[.[.[.[.[.[.[.[.[.[.[.[.[.[.[.  @ L 8.Q.I.M.m.C.C.O.f l u u u Z u q w Z S D w = X [.[.[.[.[.[.[.[.[.[.[.[.[.[.[.[.",
"[.[.[.[.[.[.[.[.[.[.[.[.[.[.[.[.[.[.[.[.[.[.[.[.@ r 8.s.O.j M.O.C l w w u u u 9 % % q S D Z u 6 .   [.[.[.[.[.[.[.[.[.[.[.[.[.[.",
"[.[.[.[.[.[.[.[.[.[.[.[.[.[.[.[.[.[.[.[.[.[.[.[.  @ L X.@.K h f l u a u u c T i * * q S D Z u 5 .   [.[.[.[.[.[.[.[.[.[.[.[.[.[.",
"[.[.[.[.[.[.[.[.[.[.[.[.[.[.[.[.[.[.[.[.[.[.[.[.[.[.@ r 2.i.~ l w a w w w A 0.2.A q Z S S w = . [.[.[.[.[.[.[.[.[.[.[.[.[.[.[.[.",
"[.[.[.[.[.[.[.[.[.[.[.[.[.[.[.[.[.[.[.[.[.[.[.[.[.[.  * | a./ w w w w c A >.0.u.=.Z w q q 5 .   [.[.[.[.[.[.[.[.[.[.[.[.[.[.[.[.",
"[.[.[.[.[.[.[.[.[.[.[.[.[.[.[.[.[.[.[.[.[.[.[.[.[.[.  o M o.G Z w 9 9 A <.0.>.Q D w * . X . [.[.[.[.[.[.[.[.[.[.[.[.[.[.[.[.[.[.",
"[.[.[.[.[.[.[.[.[.[.[.[.[.[.[.[.[.[.[.[.[.[.[.[.[.[.  O g H G Z w e 9 i >.0.>.-.-.s @       [.[.[.[.[.[.[.[.[.[.[.[.[.[.[.[.[.[.",
"[.[.[.[.[.[.[.[.[.[.[.[.[.[.[.[.[.[.[.[.[.[.[.[.[.[.  X 0 G A c w 9 9 q i Q f.x.x.>.*   [.[.[.[.[.[.[.[.[.[.[.[.[.[.[.[.[.[.[.[.",
"[.[.[.[.[.[.[.[.[.[.[.[.[.[.[.[.[.[.[.[.[.[.[.[.[.[.  . 9 A W S c c c c t W g.H.H.<.;   [.[.[.[.[.[.[.[.[.[.[.[.[.[.[.[.[.[.[.[.",
"[.[.[.[.[.[.[.[.[.[.[.[.[.[.[.[.[.[.[.[.[.[.[.[.[.[.  . 9 T | ..| } } _ } | r.a.a./ *   [.[.[.[.[.[.[.[.[.[.[.[.[.[.[.[.[.[.[.[.",
"[.[.[.[.[.[.[.[.[.[.[.[.[.[.[.[.[.[.[.[.[.[.[.[.[.[.@ : c ) $.5.%.%.%.%.%.%.%.5.%.U @   [.[.[.[.[.[.[.[.[.[.[.[.[.[.[.[.[.[.[.[.",
"[.[.[.[.[.[.[.[.[.[.[.[.[.[.[.[.[.[.[.[.[.[.[.[.  @ t / _ | %.%.%.%.%...%.%.%.%.%.U %   [.[.[.[.[.[.[.[.[.[.[.[.[.[.[.[.[.[.[.[.",
"[.[.[.[.[.[.[.[.[.[.[.[.[.[.[.[.[.[.[.[.[.[.[.[.  % / i.t.t.t.5.%.| U U %.t.5.6.t.E %   [.[.[.[.[.[.[.[.[.[.[.[.[.[.[.[.[.[.[.[.",
"[.[.[.[.[.[.[.[.[.[.[.[.[.[.[.[.[.[.[.[.[.[.[.[.  * ) s.s.a.i.i.%.U 1 , | a.a.a.s.) $   [.[.[.[.[.[.[.[.[.[.[.[.[.[.[.[.[.[.[.[.",
"[.[.[.[.[.[.[.[.[.[.[.[.[.[.[.[.[.[.[.[.[.[.[.[.  % v ,.i.s.a.t.%.b + X i ,.i.s.s.} < @ [.[.[.[.[.[.[.[.[.[.[.[.[.[.[.[.[.[.[.[.",
"[.[.[.[.[.[.[.[.[.[.[.[.[.[.[.[.[.[.[.[.[.[.[.[.[.[.$ < ) t.t.6.%.U @   @ < } t.t.%./ t @   [.[.[.[.[.[.[.[.[.[.[.[.[.[.[.[.[.[.",
"[.[.[.[.[.[.[.[.[.[.[.[.[.[.[.[.[.[.[.[.[.[.[.[.[.[.  @ t R | ..%.U %     @ t X...r.t.E %   [.[.[.[.[.[.[.[.[.[.[.[.[.[.[.[.[.[.",
"[.[.[.[.[.[.[.[.[.[.[.[.[.[.[.[.[.[.[.[.[.[.[.[.[.[.[.[.+ - Z =.) u $   [.[.$ < { d.d.' *   [.[.[.[.[.[.[.[.[.[.[.[.[.[.[.[.[.[.",
"[.[.[.[.[.[.[.[.[.[.[.[.[.[.[.[.[.[.[.[.[.[.[.[.[.[.[.[.$ 5 D -.=.y +   [.[.  $ P { { L #   [.[.[.[.[.[.[.[.[.[.[.[.[.[.[.[.[.[.",
"[.[.[.[.[.[.[.[.[.[.[.[.[.[.[.[.[.[.[.[.[.[.[.[.[.[.  $ s ;.3.3.-.y +   [.[.[.[.& & & & [.[.[.[.[.[.[.[.[.[.[.[.[.[.[.[.[.[.[.[.",
"[.[.[.[.[.[.[.[.[.[.[.[.[.[.[.[.[.[.[.[.[.[.[.[.[.[.  $ D 3.3.;.D 8 .   [.[.[.[.        [.[.[.[.[.[.[.[.[.[.[.[.[.[.[.[.[.[.[.[.",
"[.[.[.[.[.[.[.[.[.[.[.[.[.[.[.[.[.[.[.[.[.[.[.[.[.[.  . = 8 6 5 - $     [.[.[.[.        [.[.[.[.[.[.[.[.[.[.[.[.[.[.[.[.[.[.[.[.",
"[.[.[.[.[.[.[.[.[.[.[.[.[.[.[.[.[.[.[.[.[.[.[.[.[.[.[.[.[.[.[.[.[.[.[.[.[.[.[.[.[.[.[.[.[.[.[.[.[.[.[.[.[.[.[.[.[.[.[.[.[.[.[.[.",
"[.[.[.[.[.[.[.[.[.[.[.[.[.[.[.[.[.[.[.[.[.[.[.[.[.[.[.[.[.[.[.[.[.[.[.[.[.[.[.[.[.[.[.[.[.[.[.[.[.[.[.[.[.[.[.[.[.[.[.[.[.[.[.[.",
"[.[.[.[.[.[.[.[.[.[.[.[.[.[.[.[.[.[.[.[.[.[.[.[.[.[.[.[.[.[.[.[.[.[.[.[.[.[.[.[.[.[.[.[.[.[.[.[.[.[.[.[.[.[.[.[.[.[.[.[.[.[.[.[."
};
