/* XPM */
static char *result[] = {
/* columns rows colors chars-per-pixel */
"64 64 181 2 ",
"   c #000000",
".  c #0E0C0B",
"X  c #130D0A",
"o  c #1A0B06",
"O  c #0F120D",
"+  c #13140D",
"@  c #18150E",
"#  c #13180F",
"$  c #161411",
"%  c #191613",
"&  c #161A11",
"*  c #1B1B15",
"=  c #1F1C1A",
"-  c #261B13",
";  c #2F1E13",
":  c #1E2119",
">  c #24241C",
",  c #29231E",
"<  c #25291C",
"1  c #2C2A1D",
"2  c #242116",
"3  c #362219",
"4  c #3D231B",
"5  c #28301F",
"6  c #262220",
"7  c #2A2422",
"8  c #272820",
"9  c #2B2B23",
"0  c #332924",
"q  c #352C29",
"w  c #392F2A",
"e  c #2C3324",
"r  c #3B3625",
"t  c #333E27",
"y  c #3B3826",
"u  c #37302D",
"i  c #3C322C",
"p  c #3C392D",
"a  c #3F3430",
"s  c #3E3B33",
"d  c #422A1F",
"f  c #5D2B1C",
"g  c #70301E",
"h  c #7E301A",
"j  c #452D24",
"k  c #462F28",
"l  c #522E24",
"z  c #4B3224",
"x  c #40322B",
"c  c #443D2D",
"v  c #4C3C2A",
"b  c #493528",
"n  c #553126",
"m  c #563528",
"M  c #593729",
"N  c #533A2A",
"B  c #5B3A2B",
"V  c #413732",
"C  c #453B35",
"Z  c #483C37",
"A  c #463E39",
"S  c #483E38",
"D  c #793E27",
"F  c #36432A",
"G  c #38432D",
"H  c #47412F",
"J  c #4B442E",
"K  c #5C422F",
"L  c #464136",
"P  c #4C4433",
"I  c #4E4A33",
"U  c #4B453B",
"Y  c #4F4C3F",
"T  c #464C32",
"R  c #574032",
"E  c #5D4633",
"W  c #534B34",
"Q  c #5D4935",
"!  c #534C3C",
"~  c #584F38",
"^  c #465537",
"/  c #495437",
"(  c #475638",
")  c #49563B",
"_  c #4C5A3C",
"`  c #565039",
"'  c #5B523B",
"]  c #51583F",
"[  c #5D5B3D",
"{  c #545336",
"}  c #76442D",
"|  c #79462F",
" . c #614B35",
".. c #6E4930",
"X. c #624C39",
"o. c #62553D",
"O. c #6B553D",
"+. c #635B3E",
"@. c #655337",
"#. c #725C3F",
"$. c #656F3E",
"%. c #4E4540",
"&. c #534B44",
"*. c #564C48",
"=. c #4F5C42",
"-. c #535543",
";. c #5C5741",
":. c #535C46",
">. c #5E534E",
",. c #595C49",
"<. c #5F5450",
"1. c #645740",
"2. c #655D41",
"3. c #6E5E45",
"4. c #735E45",
"5. c #5C6645",
"6. c #5C6A46",
"7. c #556248",
"8. c #5B644C",
"9. c #5D6A4D",
"0. c #546344",
"q. c #5E734A",
"w. c #5F6B52",
"e. c #696244",
"r. c #616C47",
"t. c #65654B",
"y. c #6A6449",
"u. c #656C4D",
"i. c #6E694E",
"p. c #666644",
"a. c #766046",
"s. c #70644B",
"d. c #726A4D",
"f. c #61754C",
"g. c #636C53",
"h. c #6A6E52",
"j. c #647453",
"k. c #6B7254",
"l. c #667953",
"z. c #687A56",
"x. c #6E745D",
"c. c #6C7C5B",
"v. c #737658",
"b. c #737B5D",
"n. c #717953",
"m. c #813F27",
"M. c #82442A",
"N. c #895E41",
"B. c #8B6243",
"V. c #8B7959",
"C. c #927655",
"Z. c #6B814C",
"A. c #6F815D",
"S. c #758854",
"D. c #71815E",
"F. c #7D8A53",
"G. c #738361",
"H. c #788765",
"J. c #778B61",
"K. c #7B8A64",
"L. c #7A8B68",
"P. c #7E9267",
"I. c #8F825D",
"U. c #878161",
"Y. c #838D67",
"T. c #888967",
"R. c #848B6B",
"E. c #948B67",
"W. c #938E69",
"Q. c #82916C",
"!. c #8A936F",
"~. c #839C60",
"^. c #95916B",
"/. c #8D9671",
"(. c #8E9A72",
"). c #909C73",
"_. c #95AC6F",
"`. c #95AE70",
"'. c #A2AD89",
"]. c #A9B78A",
"[. c None",
/* pixels */
"[.[.[.[.[.[.[.[.[.[.[.[.[.[.[.[.[.[.[.[.[.[.[.[.[.[.[.[.[.[.[.[.[.[.[.[.[.[.[.[.[.[.[.[.[.[.[.[.[.[.[.[.[.[.[.[.[.[.[.[.[.[.[.[.",
"[.[.[.[.[.[.[.[.[.[.[.[.[.[.[.[.[.[.[.[.[.[.[.[.[.[.[.[.[.[.[.[.[.[.[.[.[.[.[.[.[.[.[.[.[.[.[.[.[.[.[.[.[.[.[.[.[.[.[.[.[.[.[.[.",
"[.[.[.[.[.[.[.[.[.[.[.[.[.[.[.[.[.[.[.[.[.[.[.[.[.[.[.[.[.[.[.[.[.[.[.[.[.[.[.[.[.[.[.[.[.[.[.[.[.[.[.[.[.[.[.[.[.[.[.[.[.[.[.[.",
"[.[.[.[.[.[.[.[.[.[.[.[.[.[.[.[.[.[.[.[.[.[.[.[.[.[.[.[.[.[.[.[.[.[.[.[.[.[.[.[.[.[.[.[.[.[.[.[.[.[.[.[.[.[.[.[.[.[.[.[.[.[.[.[.",
"[.[.[.[.[.[.[.[.[.[.[.[.[.[.[.[.[.[.[.[.[.[.[.[.[.[.[.[.[.[.[.[.[.[.[.[.[.[.[.[.[.[.[.[.[.[.[.[.[.[.[.[.[.[.[.[.[.[.[.[.[.[.[.[.",
"[.[.[.[.[.[.[.[.[.[.[.[.[.[.[.[.[.[.[.[.[.[.[.[.[.[.[.[.[.[.[.[.[.[.[.[.[.[.[.[.[.[.[.[.[.[.[.[.[.[.[.[.[.[.[.[.[.[.[.[.[.[.[.[.",
"[.[.[.[.[.[.[.[.[.[.[.[.[.[.[.[.[.[.[.[.[.[.[.[.[.[.[.[.[.[.[.[.[.[.[.[.[.[.[.[.[.[.[.[.[.[.[.[.[.[.[.[.[.[.[.[.[.[.[.[.[.[.[.[.",
"[.[.[.[.[.[.[.[.[.[.[.[.[.[.[.[.[.[.[.[.[.[.[.[.[.[.[.[.[.[.[.[.[.[.[.[.[.[.[.[.[.[.[.[.[.[.[.[.[.[.[.[.[.[.[.[.[.[.[.[.[.[.[.[.",
"[.[.[.[.[.[.[.[.[.[.[.[.[.[.[.[.[.[.[.[.[.[.[.[.[.[.[.[.[.[.[.[.[.[.[.[.[.[.[.[.[.[.[.[.[.[.[.[.[.[.[.[.[.[.[.[.[.[.[.[.[.[.[.[.",
"[.[.[.[.[.[.[.[.[.[.[.[.[.[.[.[.[.[.[.[.[.[.[.[.[.[.[.[.[.[.[.[.[.[.[.[.[.[.[.[.[.[.[.[.[.[.[.[.[.[.[.[.[.[.[.[.[.[.[.[.[.[.[.[.",
"[.[.[.[.[.[.[.[.[.[.[.[.[.[.[.[.[.[.[.[.[.[.[.[.[.[.[.[.[.[.[.[.[.[.[.[.[.[.[.[.[.[.[.[.[.[.[.[.[.[.[.[.[.[.[.[.[.[.[.[.[.[.[.[.",
"[.[.[.[.[.[.[.[.[.[.[.[.[.[.[.[.[.[.[.[.[.[.[.[.[.[.[.[.[.[.[.[.[.[.[.[.[.[.[.[.[.[.[.[.[.[.[.[.[.[.[.[.[.[.[.[.[.[.[.[.[.[.[.[.",
"[.[.[.[.[.[.[.[.[.[.[.[.[.[.[.[.[.[.[.[.[.[.[.[.[.[.                    [.[.[.[.[.[.[.[.[.[.[.[.[.[.[.[.[.[.[.[.[.[.[.[.[.[.[.[.",
"[.[.[.[.[.[.[.[.[.[.[.[.[.[.[.[.[.[.[.[.[.[.[.[.[.[.X X X X X o X X X X [.[.[.[.[.[.[.[.[.[.[.[.[.[.[.[.[.[.[.[.[.[.[.[.[.[.[.[.",
"[.[.[.[.[.[.[.[.[.[.[.[.[.[.[.[.[.[.[.[.[.[.[.[.  X 4 d d 4 3 4 d j d 4 X   [.[.[.[.[.[.[.[.[.[.[.[.[.[.[.[.[.[.[.[.[.[.[.[.[.[.",
"[.[.[.[.[.[.[.[.[.[.[.[.[.[.[.[.[.[.[.[.[.[.[.[.X - b B n l l n B K  .N < # [.[.[.[.[.[.[.[.[.[.[.[.[.[.[.[.[.[.[.[.[.[.[.[.[.[.",
"[.[.[.[.[.[.[.[.[.[.[.[.[.[.[.[.[.[.[.[.[.[.  X 3 z N M n n l n M K [ 5._ G #   [.[.[.[.[.[.[.[.[.[.[.[.[.[.[.[.[.[.[.[.[.[.[.[.",
"[.[.[.[.[.[.[.[.[.[.[.[.[.[.[.[.[.[.[.[.[.[.X - v Q K M z f l m K [ 6.q.f._ 5 # [.[.[.[.[.[.[.[.[.[.[.[.[.[.[.[.[.[.[.[.[.[.[.[.",
"[.[.[.[.[.[.[.[.[.[.[.[.[.[.[.[.[.[.[.[.  o 3 v [ [ Q M n l n K [ 6.q.q.q.q.=.G &   [.[.[.[.[.[.[.[.[.[.[.[.[.[.[.[.[.[.[.[.[.[.",
"[.[.[.[.[.[.[.[.[.[.[.[.[.[.[.[.[.[.[.[.  + b ' r.5.Q M n m E ' 6.q.q.q.q.q.f.) &   [.[.[.[.[.[.[.[.[.[.[.[.[.[.[.[.[.[.[.[.[.[.",
"[.[.[.[.[.[.[.[.[.[.[.[.[.[.[.[.[.[.[.[.  & T r.f.5.Q B m E ,.u.f.q.q.q.q.f.f.( &   [.[.[.[.[.[.[.[.[.[.[.[.[.[.[.[.[.[.[.[.[.[.",
"[.[.[.[.[.[.[.[.[.[.[.[.[.[.[.[.[.[.[.[.  & ( f.f.5.Q B  .o.k.z.f.f.f.f.q.q.q.( &   [.[.[.[.[.[.[.[.[.[.[.[.[.[.[.[.[.[.[.[.[.[.",
"[.[.[.[.[.[.[.[.[.[.[.[.[.[.[.[.[.[.[.[.  & ^ f.j.t.Q Q e.k.c.c.l.j.f.f.f.q.f.^ &   [.[.[.[.[.[.[.[.[.[.[.[.[.[.[.[.[.[.[.[.[.[.",
"[.[.[.[.[.[.[.[.[.[.[.[.[.[.[.[.[.[.[.[.  & ) l.c.u.Q Q k.G.G.D.c.c.c.z.f.f.f.^ &   [.[.[.[.[.[.[.[.[.[.[.[.[.[.[.[.[.[.[.[.[.[.",
"[.[.[.[.[.[.[.[.[.[.[.[.[.[.[.[.[.[.[.[.  * =.c.D.h.Q Q h.G.G.G.D.D.D.c.z.j.j.( &   [.[.[.[.[.[.[.[.[.[.[.[.[.[.[.[.[.[.[.[.[.[.",
"[.[.[.[.[.[.[.[.[.[.[.[.[.[.[.[.[.[.[.[.  & F =.:.:.' 1.y.h.8.:.:.:.7.9.j.z.j.( &   [.[.[.[.[.[.[.[.[.[.[.[.[.[.[.[.[.[.[.[.[.[.",
"[.[.[.[.[.[.[.[.[.[.[.[.[.[.[.[.[.[.[.[.    O & & e ,.i.+.J , & & & & e 9.A.l.( &   [.[.[.[.[.[.[.[.[.[.[.[.[.[.[.[.[.[.[.[.[.[.",
"[.[.[.[.[.[.[.[.[.[.[.[.[.[.[.[.[.[.[.[.  . > 8 2 F 9.k. .z 1 < 9 8 * e 9.z.0.G &   [.[.[.[.[.[.[.[.[.[.[.[.[.[.[.[.[.[.[.[.[.[.",
"[.[.[.[.[.[.[.[.[.[.[.[.[.[.[.[.[.[.[.[.  < x./.S.Z.A.h.Q Q $.S.!.R.w.8.z.9.e O [.[.[.[.[.[.[.[.[.[.[.[.[.[.[.[.[.[.[.[.[.[.[.[.",
"[.[.[.[.[.[.[.[.[.[.[.[.[.[.[.[.[.[.[.[.  9 R.].`.~.J.h.Q @.F.`.].'.Q.G.G.7.*   [.[.[.[.[.[.[.[.[.[.[.[.[.[.[.[.[.[.[.[.[.[.[.[.",
"[.[.[.[.[.[.[.[.[.[.[.[.[.[.[.[.[.[.[.[.  : 9.R.K.J.G.k. .X.n.P.Q.P.H.G.G.7.*       [.[.[.[.[.[.[.[.[.[.[.[.[.[.[.[.[.[.[.[.[.[.",
"[.[.[.[.[.[.[.[.[.[.[.[.[.[.[.[.[.[.[.[.  * _ z.A.A.D.k.1.o.t.h.g.x.c.G.A.8.< . . X [.[.[.[.[.[.[.[.[.[.[.[.[.[.[.[.[.[.[.[.[.[.",
"[.[.[.[.[.[.[.[.[.[.[.[.[.[.[.[.[.[.[.[.  * _ z.G.c.b.c.x.y.o.Q Q 1.k.G.z.5.s q q 6 .   [.[.[.[.[.[.[.[.[.[.[.[.[.[.[.[.[.[.[.[.",
"[.[.[.[.[.[.[.[.[.[.[.[.[.[.[.[.[.[.[.[.  & _ A.H.L.G.G.L.b.2.X.O.3.h.g.5.-.U C Z w = . [.[.[.[.[.[.[.[.[.[.[.[.[.[.[.[.[.[.[.[.",
"[.[.[.[.[.[.[.[.[.[.[.[.[.[.[.[.[.[.[.[.  & ( D././.H.H.(./.b.v.T.U.3.Q P L C C Z V u 6 .   [.[.[.[.[.[.[.[.[.[.[.[.[.[.[.[.[.[.",
"[.[.[.[.[.[.[.[.[.[.[.[.[.[.[.[.[.[.[.[.  # F 6.Y.).Q.Y.E.W.R./.W.V.X.b w a V C Z Z Z u * . [.[.[.[.[.[.[.[.[.[.[.[.[.[.[.[.[.[.",
"[.[.[.[.[.[.[.[.[.[.[.[.[.[.[.[.[.[.[.[.[.[.# e 6.K.(.W.M.B.^.^.N.} N k i i V Z Z Z Z a w 7 .   [.[.[.[.[.[.[.[.[.[.[.[.[.[.[.[.",
"[.[.[.[.[.[.[.[.[.[.[.[.[.[.[.[.[.[.[.[.[.[.  # F 6.Y.I.m.m.C.C.| l k i i i V x w w a Z Z w * . [.[.[.[.[.[.[.[.[.[.[.[.[.[.[.[.",
"[.[.[.[.[.[.[.[.[.[.[.[.[.[.[.[.[.[.[.[.[.[.[.[.# e 6.d.D m.M.| M k w i i i a 0 % % w Z Z V w 7 .   [.[.[.[.[.[.[.[.[.[.[.[.[.[.",
"[.[.[.[.[.[.[.[.[.[.[.[.[.[.[.[.[.[.[.[.[.[.[.[.  # G { ..D g n k w i i i a L i % * w Z A V i 7 X   [.[.[.[.[.[.[.[.[.[.[.[.[.[.",
"[.[.[.[.[.[.[.[.[.[.[.[.[.[.[.[.[.[.[.[.[.[.[.[.[.[.# e 2.d.N k k i i w w L 7.,.s w a A A i * . [.[.[.[.[.[.[.[.[.[.[.[.[.[.[.[.",
"[.[.[.[.[.[.[.[.[.[.[.[.[.[.[.[.[.[.[.[.[.[.[.[.[.[.  & -.g.U a w w w a C &.t.8.&.V w q q 7 .   [.[.[.[.[.[.[.[.[.[.[.[.[.[.[.[.",
"[.[.[.[.[.[.[.[.[.[.[.[.[.[.[.[.[.[.[.[.[.[.[.[.[.[.  $ s &.A a w 0 q V :.8.-.U A w * . X . [.[.[.[.[.[.[.[.[.[.[.[.[.[.[.[.[.[.",
"[.[.[.[.[.[.[.[.[.[.[.[.[.[.[.[.[.[.[.[.[.[.[.[.[.[.  . 6 w a V w 0 0 C w.k.,.&.&.s $       [.[.[.[.[.[.[.[.[.[.[.[.[.[.[.[.[.[.",
"[.[.[.[.[.[.[.[.[.[.[.[.[.[.[.[.[.[.[.[.[.[.[.[.[.[.[.[.. * u V w 0 1 C u.c.x.b.x.:.*   [.[.[.[.[.[.[.[.[.[.[.[.[.[.[.[.[.[.[.[.",
"[.[.[.[.[.[.[.[.[.[.[.[.[.[.[.[.[.[.[.[.[.[.[.[.[.[.[.[.  . q V w 0 0 p -.w.g.j.w.) *   [.[.[.[.[.[.[.[.[.[.[.[.[.[.[.[.[.[.[.[.",
"[.[.[.[.[.[.[.[.[.[.[.[.[.[.[.[.[.[.[.[.[.[.[.[.[.[.[.[.  X 0 V q 0 0 q p L L p 6 * [.[.[.[.[.[.[.[.[.[.[.[.[.[.[.[.[.[.[.[.[.[.",
"[.[.[.[.[.[.[.[.[.[.[.[.[.[.[.[.[.[.[.[.[.[.[.[.[.[.[.[.  X i P c i x i i x y 0 * + [.[.[.[.[.[.[.[.[.[.[.[.[.[.[.[.[.[.[.[.[.[.",
"[.[.[.[.[.[.[.[.[.[.[.[.[.[.[.[.[.[.[.[.[.[.[.[.[.[.      @ H o.' ` ~ W ' ` ~ W I y @   [.[.[.[.[.[.[.[.[.[.[.[.[.[.[.[.[.[.[.[.",
"[.[.[.[.[.[.[.[.[.[.[.[.[.[.[.[.[.[.[.[.[.[.[.[.[.[.+ @ o ; I +.e.+.+.+.+.+.+.e.e.P @   [.[.[.[.[.[.[.[.[.[.[.[.[.[.[.[.[.[.[.[.",
"[.[.[.[.[.[.[.[.[.[.[.[.[.[.[.[.[.[.[.[.[.[.[.[.  @ y N f f  .2.+.+.+.+.+.+.2.2.+.J @   [.[.[.[.[.[.[.[.[.[.[.[.[.[.[.[.[.[.[.[.",
"[.[.[.[.[.[.[.[.[.[.[.[.[.[.[.[.[.[.[.[.[.[.[.[.  % I #.| | O.2.+.' J J +.e.2.3.e.I @   [.[.[.[.[.[.[.[.[.[.[.[.[.[.[.[.[.[.[.[.",
"[.[.[.[.[.[.[.[.[.[.[.[.[.[.[.[.[.[.[.[.[.[.[.[.  % ! d.4.4.s.y.+.J 2 < ' d.d.i.d.! %   [.[.[.[.[.[.[.[.[.[.[.[.[.[.[.[.[.[.[.[.",
"[.[.[.[.[.[.[.[.[.[.[.[.[.[.[.[.[.[.[.[.[.[.[.[.  % c ;.y.d.d.y.+.v X + p ;.y.i.d.` 1 + [.[.[.[.[.[.[.[.[.[.[.[.[.[.[.[.[.[.[.[.",
"[.[.[.[.[.[.[.[.[.[.[.[.[.[.[.[.[.[.[.[.[.[.[.[.[.[.& 1 ` e.e.2.$.J +   + 1 ` e.e.+.W y @   [.[.[.[.[.[.[.[.[.[.[.[.[.[.[.[.[.[.",
"[.[.[.[.[.[.[.[.[.[.[.[.[.[.[.[.[.[.[.[.[.[.[.[.[.[.  + r W ` 1.1.H @     + y W [ p.p.I %   [.[.[.[.[.[.[.[.[.[.[.[.[.[.[.[.[.[.",
"[.[.[.[.[.[.[.[.[.[.[.[.[.[.[.[.[.[.[.[.[.[.[.[.[.[.[.[.+ 2 V &.U a O   [.[.$ < _ f.f./ &   [.[.[.[.[.[.[.[.[.[.[.[.[.[.[.[.[.[.",
"[.[.[.[.[.[.[.[.[.[.[.[.[.[.[.[.[.[.[.[.[.[.[.[.[.[.[.[.$ 6 A %.%.w $   [.[.  & G ) _ G &   [.[.[.[.[.[.[.[.[.[.[.[.[.[.[.[.[.[.",
"[.[.[.[.[.[.[.[.[.[.[.[.[.[.[.[.[.[.[.[.[.[.[.[.[.[.  % a *.<.<.&.u .   [.[.[.[.& & & & [.[.[.[.[.[.[.[.[.[.[.[.[.[.[.[.[.[.[.[.",
"[.[.[.[.[.[.[.[.[.[.[.[.[.[.[.[.[.[.[.[.[.[.[.[.[.[.  $ A <.<.*.A 0 .   [.[.[.[.        [.[.[.[.[.[.[.[.[.[.[.[.[.[.[.[.[.[.[.[.",
"[.[.[.[.[.[.[.[.[.[.[.[.[.[.[.[.[.[.[.[.[.[.[.[.[.[.  . = 7 7 6 = %     [.[.[.[.        [.[.[.[.[.[.[.[.[.[.[.[.[.[.[.[.[.[.[.[.",
"[.[.[.[.[.[.[.[.[.[.[.[.[.[.[.[.[.[.[.[.[.[.[.[.[.[.[.[.[.[.[.[.[.[.[.[.[.[.[.[.[.[.[.[.[.[.[.[.[.[.[.[.[.[.[.[.[.[.[.[.[.[.[.[.",
"[.[.[.[.[.[.[.[.[.[.[.[.[.[.[.[.[.[.[.[.[.[.[.[.[.[.[.[.[.[.[.[.[.[.[.[.[.[.[.[.[.[.[.[.[.[.[.[.[.[.[.[.[.[.[.[.[.[.[.[.[.[.[.[.",
"[.[.[.[.[.[.[.[.[.[.[.[.[.[.[.[.[.[.[.[.[.[.[.[.[.[.[.[.[.[.[.[.[.[.[.[.[.[.[.[.[.[.[.[.[.[.[.[.[.[.[.[.[.[.[.[.[.[.[.[.[.[.[.[."
};
