/* XPM */
static char *result[] = {
/* columns rows colors chars-per-pixel */
"64 64 185 2 ",
"   c #000000",
".  c #0E0C0B",
"X  c #130D0A",
"o  c #1C0904",
"O  c #0F120D",
"+  c #13140E",
"@  c #18160F",
"#  c #13180F",
"$  c #151411",
"%  c #191613",
"&  c #161A11",
"*  c #1B1B15",
"=  c #1F1C1A",
"-  c #27170E",
";  c #261B13",
":  c #2A1A13",
">  c #2E1E19",
",  c #1E2119",
"<  c #24251C",
"1  c #29241E",
"2  c #25291C",
"3  c #2C2A1D",
"4  c #242116",
"5  c #362219",
"6  c #3D231B",
"7  c #28301F",
"8  c #242120",
"9  c #2A2422",
"0  c #272820",
"q  c #2B2B23",
"w  c #332924",
"e  c #352C29",
"r  c #392F2A",
"t  c #2C3324",
"y  c #3C3625",
"u  c #37312E",
"i  c #3C322C",
"p  c #3C392D",
"a  c #333E27",
"s  c #3F3430",
"d  c #3E3C32",
"f  c #4C1F12",
"g  c #422A1F",
"h  c #5E2C1C",
"j  c #612313",
"k  c #70301E",
"l  c #7E301A",
"z  c #452D24",
"x  c #462F28",
"c  c #522E24",
"v  c #4B3224",
"b  c #40322B",
"n  c #443E2D",
"m  c #4C3C2A",
"M  c #493528",
"N  c #553126",
"B  c #563528",
"V  c #593729",
"C  c #55392B",
"Z  c #5B3A2B",
"A  c #423732",
"S  c #453B35",
"D  c #483C37",
"F  c #463E3A",
"G  c #483E38",
"H  c #603023",
"J  c #793E27",
"K  c #703D2B",
"L  c #36432A",
"P  c #38432D",
"I  c #47412F",
"U  c #4B442F",
"Y  c #5C422F",
"T  c #464136",
"R  c #4C4433",
"E  c #4E4932",
"W  c #4B453B",
"Q  c #4F4C3F",
"!  c #464C32",
"~  c #574032",
"^  c #5D4633",
"/  c #534C34",
"(  c #5D4935",
")  c #5B4439",
"_  c #534E39",
"`  c #584F38",
"'  c #465537",
"]  c #475638",
"[  c #49563B",
"{  c #4C5A3C",
"}  c #495437",
"|  c #565039",
" . c #5B533B",
".. c #51583F",
"X. c #5D5B3D",
"o. c #545336",
"O. c #77442E",
"+. c #78452F",
"@. c #614C35",
"#. c #6E4930",
"$. c #624C39",
"%. c #62553D",
"&. c #69533B",
"*. c #635B3E",
"=. c #655337",
"-. c #656F3E",
";. c #554741",
":. c #534D43",
">. c #594B46",
",. c #4F5C42",
"<. c #535543",
"1. c #5C5741",
"2. c #535C46",
"3. c #5D544F",
"4. c #595C49",
"5. c #684F47",
"6. c #645740",
"7. c #655D41",
"8. c #6E5E45",
"9. c #695149",
"0. c #5C6645",
"q. c #5C6A46",
"w. c #556248",
"e. c #5B644C",
"r. c #5D6A4D",
"t. c #546344",
"y. c #5E734A",
"u. c #5F6B52",
"i. c #676344",
"p. c #6A6245",
"a. c #65654B",
"s. c #6B654A",
"d. c #656C4D",
"f. c #6E694E",
"g. c #616C47",
"h. c #716A4D",
"j. c #70644B",
"k. c #61754C",
"l. c #636C53",
"z. c #6A6E52",
"x. c #647453",
"c. c #6B7254",
"v. c #667953",
"b. c #687A56",
"n. c #6E745D",
"m. c #6C7C5B",
"M. c #737658",
"N. c #737B5D",
"B. c #717953",
"V. c #813F27",
"C. c #82442A",
"Z. c #895E41",
"A. c #8B6243",
"S. c #8B7959",
"D. c #927655",
"F. c #6B814C",
"G. c #6F815D",
"H. c #758854",
"J. c #71815E",
"K. c #7D8A53",
"L. c #738361",
"P. c #788765",
"I. c #778B61",
"U. c #7B8A64",
"Y. c #7A8B68",
"T. c #7E9267",
"R. c #8F825D",
"E. c #878161",
"W. c #838D67",
"Q. c #888967",
"!. c #848B6B",
"~. c #948B67",
"^. c #938E69",
"/. c #82916C",
"(. c #8A936F",
"). c #839C60",
"_. c #95916B",
"`. c #8E9A72",
"'. c #8D9671",
"]. c #909C73",
"[. c #95AC6F",
"{. c #95AE70",
"}. c #A2AD89",
"|. c #A9B78A",
" X c None",
/* pixels */
" X X X X X X X X X X X X X X X X X X X X X X X X X X X X X X X X X X X X X X X X X X X X X X X X X X X X X X X X X X X X X X X X",
" X X X X X X X X X X X X X X X X X X X X X X X X X X X X X X X X X X X X X X X X X X X X X X X X X X X X X X X X X X X X X X X X",
" X X X X X X X X X X X X X X X X X X X X X X X X X X X X X X X X X X X X X X X X X X X X X X X X X X X X X X X X X X X X X X X X",
" X X X X X X X X X X X X X X X X X X X X X X X X X X X X X X X X X X X X X X X X X X X X X X X X X X X X X X X X X X X X X X X X",
" X X X X X X X X X X X X X X X X X X X X X X X X X X X X X X X X X X X X X X X X X X X X X X X X X X X X X X X X X X X X X X X X",
" X X X X X X X X X X X X X X X X X X X X X X X X X X X X X X X X X X X X X X X X X X X X X X X X X X X X X X X X X X X X X X X X",
" X X X X X X X X X X X X X X X X X X X X X X X X X X X X X X X X X X X X X X X X X X X X X X X X X X X X X X X X X X X X X X X X",
" X X X X X X X X X X X X X X X X X X X X X X X X X X X X X X X X X X X X X X X X X X X X X X X X X X X X X X X X X X X X X X X X",
" X X X X X X X X X X X X X X X X X X X X X X X X X X X X X X X X X X X X X X X X X X X X X X X X X X X X X X X X X X X X X X X X",
" X X X X X X X X X X X X X X X X X X X X X X X X X X X X X X X X X X X X X X X X X X X X X X X X X X X X X X X X X X X X X X X X",
" X X X X X X X X X X X X X X X X X X X X X X X X X X X X X X X X X X X X X X X X X X X X X X X X X X X X X X X X X X X X X X X X",
" X X X X X X X X X X X X X X X X X X X X X X X X X X X X X X X X X X X X X X X X X X X X X X X X X X X X X X X X X X X X X X X X",
" X X X X X X X X X X X X X X X X X X X X X X X X X X                     X X X X X X X X X X X X X X X X X X X X X X X X X X X X",
" X X X X X X X X X X X X X X X X X X X X X X X X X XX X X X X X X X + X  X X X X X X X X X X X X X X X X X X X X X X X X X X X X",
" X X X X X X X X X X X X X X X X X X X X X X X X  X 5 z g 6 6 6 g z g 5 X    X X X X X X X X X X X X X X X X X X X X X X X X X X",
" X X X X X X X X X X X X X X X X X X X X X X X XX : v Z N c c N Z Y @.C 1 #  X X X X X X X X X X X X X X X X X X X X X X X X X X",
" X X X X X X X X X X X X X X X X X X X X X X  X 5 v V Z B h c N V ^ X.0.{ P #    X X X X X X X X X X X X X X X X X X X X X X X X",
" X X X X X X X X X X X X X X X X X X X X X XX ; m ( Y V v v c B Y  .q.y.k.{ 7 #  X X X X X X X X X X X X X X X X X X X X X X X X",
" X X X X X X X X X X X X X X X X X X X X  X 5 m X.X.^ V c c N Y X.q.y.y.k.y.,.P &    X X X X X X X X X X X X X X X X X X X X X X",
" X X X X X X X X X X X X X X X X X X X X  + M  .q.0.( V N B ^  .q.y.y.y.y.y.k.] &    X X X X X X X X X X X X X X X X X X X X X X",
" X X X X X X X X X X X X X X X X X X X X  & ! g.k.0.( Z B ^ 1.d.k.y.y.y.y.y.k.] &    X X X X X X X X X X X X X X X X X X X X X X",
" X X X X X X X X X X X X X X X X X X X X  & ] k.k.0.( Z ( 6.c.b.k.k.y.k.y.k.k.] &    X X X X X X X X X X X X X X X X X X X X X X",
" X X X X X X X X X X X X X X X X X X X X  & ] k.v.a.( ^ a.c.m.m.b.k.k.k.k.y.y.] &    X X X X X X X X X X X X X X X X X X X X X X",
" X X X X X X X X X X X X X X X X X X X X  & { v.m.d.( @.c.L.L.L.m.m.m.b.k.k.k.] &    X X X X X X X X X X X X X X X X X X X X X X",
" X X X X X X X X X X X X X X X X X X X X  * ,.m.J.z.( ( z.L.L.L.L.J.J.G.b.x.y.] &    X X X X X X X X X X X X X X X X X X X X X X",
" X X X X X X X X X X X X X X X X X X X X  & L ,.2.2. .6.s.d.e.2.2.2.2.r.x.b.v.] &    X X X X X X X X X X X X X X X X X X X X X X",
" X X X X X X X X X X X X X X X X X X X X    O $ & t 4.f.*.U 1 & & & & t e.G.b.] &    X X X X X X X X X X X X X X X X X X X X X X",
" X X X X X X X X X X X X X X X X X X X X  . < q < L r.c.$.v 3 < q 0 = t r.b.t.L &    X X X X X X X X X X X X X X X X X X X X X X",
" X X X X X X X X X X X X X X X X X X X X  < n.(.H.F.H.c.( ( -.H.(.!.u.r.b.r.t $  X X X X X X X X X X X X X X X X X X X X X X X X",
" X X X X X X X X X X X X X X X X X X X X  q !.|.[.).J.z.( =.K.{.|.}./.L.L.w.*    X X X X X X X X X X X X X X X X X X X X X X X X",
" X X X X X X X X X X X X X X X X X X X X  , r.!.U.I.L.c.( $.B.T./.T.P.L.L.w.*        X X X X X X X X X X X X X X X X X X X X X X",
" X X X X X X X X X X X X X X X X X X X X  * { b.m.G.L.c.6.6.a.z.l.n.m.L.G.w.0 . . X  X X X X X X X X X X X X X X X X X X X X X X",
" X X X X X X X X X X X X X X X X X X X X  * { b.m.m.L.N.c.s.%.( ^ 6.c.G.G.t.d e e 9 .    X X X X X X X X X X X X X X X X X X X X",
" X X X X X X X X X X X X X X X X X X X X  & { G.Y.P.L.L.Y.N.7.$.6.8.f.l.q.{ W D D r % .  X X X X X X X X X X X X X X X X X X X X",
" X X X X X X X X X X X X X X X X X X X X  & ] J.`.`.P.P.`.'.N.M.Q.E.8.) R D S S S A r 9 X    X X X X X X X X X X X X X X X X X X",
" X X X X X X X X X X X X X X X X X X X X  # L q.W.]./.!.~.^./.(.^.S.$.B i i A S S D D u = .  X X X X X X X X X X X X X X X X X X",
" X X X X X X X X X X X X X X X X X X X X X X# t 0.U.`.^.C.A._._.A.O.C r r b S S D S S A r 9 .    X X X X X X X X X X X X X X X X",
" X X X X X X X X X X X X X X X X X X X X X X  # L q.W.R.V.V.D.D.+.h x s i i A s r r A S D r * .  X X X X X X X X X X X X X X X X",
" X X X X X X X X X X X X X X X X X X X X X X X X# t q.h.J V.C.+.V x b r i i i w % % e D D A r 9 .    X X X X X X X X X X X X X X",
" X X X X X X X X X X X X X X X X X X X X X X X X  # P o.#.J k N x r r i i s T i = % r D F A i 9 X    X X X X X X X X X X X X X X",
" X X X X X X X X X X X X X X X X X X X X X X X X X X$ t 7.s.Z x r A r r u T e.4.d e A F D u * X  X X X X X X X X X X X X X X X X",
" X X X X X X X X X X X X X X X X X X X X X X X X X X  * 2.l.W r r r r A S :.e.a.;.s e e e 9 .    X X X X X X X X X X X X X X X X",
" X X X X X X X X X X X X X X X X X X X X X X X X X X  $ d :.F s r w w A 2.4.<.W G e = . X .  X X X X X X X X X X X X X X X X X X",
" X X X X X X X X X X X X X X X X X X X X X X X X X X  . 8 r A A r w w S u.c.4.:.:.d +        X X X X X X X X X X X X X X X X X X",
" X X X X X X X X X X X X X X X X X X X X X X X X X X X X. * u A r w w S r.m.n.N.N.2.*    X X X X X X X X X X X X X X X X X X X X",
" X X X X X X X X X X X X X X X X X X X X X X X X X X X X  . w A r w w p <.d.l.x.u.:.=    X X X X X X X X X X X X X X X X X X X X",
" X X X X X X X X X X X X X X X X X X X X X X X X X X X X  X e A r w w e i S T p , *  X X X X X X X X X X X X X X X X X X X X X X",
" X X X X X X X X X X X X X X X X X X X X X X X X X X X X  X i R n i b y p p y w * #  X X X X X X X X X X X X X X X X X X X X X X",
" X X X X X X X X X X X X X X X X X X X X X X X X X X      + n %.` ( ` ` ` `  ./ E y @    X X X X X X X X X X X X X X X X X X X X",
" X X X X X X X X X X X X X X X X X X X X X X X X X X+ & @ 1 / *.7.-.*.*.*.*.*.p.7.U @    X X X X X X X X X X X X X X X X X X X X",
" X X X X X X X X X X X X X X X X X X X X X X X X  + y U U / X.*.7.*.%.X.*.*.6.7.p.U @    X X X X X X X X X X X X X X X X X X X X",
" X X X X X X X X X X X X X X X X X X X X X X X X  @ / s.p.p.p.7.*. .U U *.p.p.p.p.E @    X X X X X X X X X X X X X X X X X X X X",
" X X X X X X X X X X X X X X X X X X X X X X X X  % _ f.h.h.f.p.*.I 4 1  .h.f.f.j._ &    X X X X X X X X X X X X X X X X X X X X",
" X X X X X X X X X X X X X X X X X X X X X X X X  % n 1.s.h.f.p.*.n X + p 1.s.s.h. .3 +  X X X X X X X X X X X X X X X X X X X X",
" X X X X X X X X X X X X X X X X X X X X X X X X X X& 3 _ p.p.p.*.U +   + 3 | p.i.7./ y @    X X X X X X X X X X X X X X X X X X",
" X X X X X X X X X X X X X X X X X X X X X X X X X Xo - y ~ @.&.*.I @     + y / X.i.p.E &    X X X X X X X X X X X X X X X X X X",
" X X X X X X X X X X X X X X X X X X X X X X X X X Xj f - : h K ^ s O    X X$ 3 { k.k.} &    X X X X X X X X X X X X X X X X X X",
" X X X X X X X X X X X X X X X X X X X X X X X X X Xj f : > N K ) u $    X X  $ P { } P &    X X X X X X X X X X X X X X X X X X",
" X X X X X X X X X X X X X X X X X X X X X X X X X Xo : A >.9.5.;.u O    X X X X& & * &  X X X X X X X X X X X X X X X X X X X X",
" X X X X X X X X X X X X X X X X X X X X X X X X X X  $ F 3.3.>.F q .    X X X X         X X X X X X X X X X X X X X X X X X X X",
" X X X X X X X X X X X X X X X X X X X X X X X X X X  . = q q 8 = %      X X X X         X X X X X X X X X X X X X X X X X X X X",
" X X X X X X X X X X X X X X X X X X X X X X X X X X X X X X X X X X X X X X X X X X X X X X X X X X X X X X X X X X X X X X X X",
" X X X X X X X X X X X X X X X X X X X X X X X X X X X X X X X X X X X X X X X X X X X X X X X X X X X X X X X X X X X X X X X X",
" X X X X X X X X X X X X X X X X X X X X X X X X X X X X X X X X X X X X X X X X X X X X X X X X X X X X X X X X X X X X X X X X"
};
