/* XPM */
static char *result[] = {
/* columns rows colors chars-per-pixel */
"64 64 176 2 ",
"   c #000000",
".  c #0E0C0B",
"X  c #130C0A",
"o  c #0F120D",
"O  c #13140E",
"+  c #13180F",
"@  c #161411",
"#  c #191613",
"$  c #161A11",
"%  c #1A1B15",
"&  c #1F1C1A",
"*  c #261B13",
"=  c #1E2119",
"-  c #24231B",
";  c #29241E",
":  c #25291C",
">  c #2C2A1D",
",  c #242116",
"<  c #362219",
"1  c #3D231B",
"2  c #28301F",
"3  c #262220",
"4  c #2A2422",
"5  c #272820",
"6  c #2B2B23",
"7  c #332A26",
"8  c #362D29",
"9  c #3A2F2A",
"0  c #322723",
"q  c #2C3324",
"w  c #3B3625",
"e  c #333E27",
"r  c #37302D",
"t  c #3C322C",
"y  c #3D3A2E",
"u  c #3F3430",
"i  c #3E3B32",
"p  c #422A1F",
"a  c #5E2B1E",
"s  c #70301E",
"d  c #7E301A",
"f  c #452D24",
"g  c #462F28",
"h  c #522E24",
"j  c #463626",
"k  c #4B3224",
"l  c #40322B",
"z  c #433C2D",
"x  c #4C3C2A",
"c  c #4B3429",
"v  c #553126",
"b  c #563528",
"n  c #593729",
"m  c #55392B",
"M  c #5B3A2B",
"N  c #413632",
"B  c #453B35",
"V  c #483D37",
"C  c #463E39",
"Z  c #483E38",
"A  c #793E27",
"S  c #36432A",
"D  c #38432D",
"F  c #47412F",
"G  c #4B442E",
"H  c #5C422F",
"J  c #474137",
"K  c #4B4534",
"L  c #4E4B35",
"P  c #4B433A",
"I  c #4D4A3D",
"U  c #464C32",
"Y  c #574032",
"T  c #5D4633",
"R  c #524B34",
"E  c #5D4935",
"W  c #544C3A",
"Q  c #584F3A",
"!  c #465537",
"~  c #495437",
"^  c #475638",
"/  c #49573A",
"(  c #4C5A3C",
")  c #565039",
"_  c #5B533B",
"`  c #51583F",
"'  c #5D5B3D",
"]  c #545336",
"[  c #77442E",
"{  c #78452F",
"}  c #604B36",
"|  c #6E4930",
" . c #624C39",
".. c #62553D",
"X. c #645B3E",
"o. c #67533A",
"O. c #656F3E",
"+. c #4E4540",
"@. c #4F4A40",
"#. c #534B44",
"$. c #564C48",
"%. c #4F5C42",
"&. c #525343",
"*. c #5C5741",
"=. c #545D46",
"-. c #5E534E",
";. c #595F4A",
":. c #5F5450",
">. c #645740",
",. c #645C42",
"<. c #6E5E45",
"1. c #5C6645",
"2. c #5C6A46",
"3. c #556248",
"4. c #5B644C",
"5. c #5C6A4D",
"6. c #546344",
"7. c #5E734A",
"8. c #666244",
"9. c #6A6245",
"0. c #616C47",
"q. c #65654B",
"w. c #6B654A",
"e. c #656C4D",
"r. c #6D694D",
"t. c #716A4D",
"y. c #70644B",
"u. c #61754C",
"i. c #616751",
"p. c #646B52",
"a. c #6A6E52",
"s. c #647551",
"d. c #6B7254",
"f. c #667953",
"g. c #687A56",
"h. c #6D745D",
"j. c #6C7C5B",
"k. c #737658",
"l. c #757C5C",
"z. c #717953",
"x. c #813F27",
"c. c #82442A",
"v. c #895E41",
"b. c #8B6243",
"n. c #8B7959",
"m. c #927655",
"M. c #6B814C",
"N. c #6F815D",
"B. c #758854",
"V. c #71815E",
"C. c #7D8A53",
"Z. c #738361",
"A. c #788765",
"S. c #778B61",
"D. c #7B8A64",
"F. c #7A8B68",
"G. c #7E9267",
"H. c #8F825D",
"J. c #878161",
"K. c #838D67",
"L. c #888967",
"P. c #848B6B",
"I. c #948B67",
"U. c #938E69",
"Y. c #82916C",
"T. c #8A936F",
"R. c #839C60",
"E. c #95916B",
"W. c #8D9671",
"Q. c #8E9A72",
"!. c #909C73",
"~. c #95AC6F",
"^. c #95AE70",
"/. c #A2AD89",
"(. c #A9B78A",
"). c None",
/* pixels */
").).).).).).).).).).).).).).).).).).).).).).).).).).).).).).).).).).).).).).).).).).).).).).).).).).).).).).).).).).).).).).).).",
").).).).).).).).).).).).).).).).).).).).).).).).).).).).).).).).).).).).).).).).).).).).).).).).).).).).).).).).).).).).).).).).",
").).).).).).).).).).).).).).).).).).).).).).).).).).).).).).).).).).).).).).).).).).).).).).).).).).).).).).).).).).).).).).).).",
").).).).).).).).).).).).).).).).).).).).).).).).).).).).).).).).).).).).).).).).).).).).).).).).).).).).).).).).).).).).).).).).",
").).).).).).).).).).).).).).).).).).).).).).).).).).).).).).).).).).).).).).).).).).).).).).).).).).).).).).).).).).).).).).).).",
").).).).).).).).).).).).).).).).).).).).).).).).).).).).).).).).).).).).).).).).).).).).).).).).).).).).).).).).).).).).).).).).",
").).).).).).).).).).).).).).).).).).).).).).).).).).).).).).).).).).).).).).).).).).).).).).).).).).).).).).).).).).).).).).).).",
").).).).).).).).).).).).).).).).).).).).).).).).).).).).).).).).).).).).).).).).).).).).).).).).).).).).).).).).).).).).).).).).",
").).).).).).).).).).).).).).).).).).).).).).).).).).).).).).).).).).).).).).).).).).).).).).).).).).).).).).).).).).).).).).).).",
").).).).).).).).).).).).).).).).).).).).).).).).).).).).).).).).).).).).).).).).).).).).).).).).).).).).).).).).).).).).).).).).",
").).).).).).).).).).).).).).).).).).).).).).).).).).).).).).).).).).).).).).).).).).).).).).).).).).).).).).).).).).).).).).).).",
").).).).).).).).).).).).).).).).).).).).).).).).).).).).).).).).).).).).).).).).).).).).).).).).).).).).).).).).).).).).).).).).",
").).).).).).).).).).).).).).).).).).).).).).).).).).).).).).).).).).).).).).).).).).).).).).).).).).).).).).).).).).).).).).).).",
").).).).).).).).).).).).).).).).).).).).).).).).).).).).).).).).).).).).).).).).).).).).).).).).).).).).).).).).).).).).).).).).",
").).).).).).).).).).).).).).).).).).).).).).).).).).                    ).).).).).).).).).).).).).).).).).).).).).).).).).).).).",
").).).).).).).).).).).).).).).).).).).).).).).).).).X X X X X X X X X X ).).).).).).).).).).).).).).).).).).).).).).).).).).).).",
").).).).).).).).).).).).).).).).).).).).).).).).  X < p 1 1 1 1 p p f < X   ).).).).).).).).).).).).).).).).).).).).).).).).).).",
").).).).).).).).).).).).).).).).).).).).).).).).X * k M v h h v M H } z : + ).).).).).).).).).).).).).).).).).).).).).).).).).).",
").).).).).).).).).).).).).).).).).).).).).).  X < k n M v h h v n T O.' ( S +   ).).).).).).).).).).).).).).).).).).).).).).).).",
").).).).).).).).).).).).).).).).).).).).).).X * x E H m v h h b H ..2.u.u.` 2 + ).).).).).).).).).).).).).).).).).).).).).).).).",
").).).).).).).).).).).).).).).).).).).).  X < x ' ' E n v h b T ' 2.0.7.u.7.( D $   ).).).).).).).).).).).).).).).).).).).).).).",
").).).).).).).).).).).).).).).).).).).).  O j ..0.1.E n v b Y _ 1.7.7.7.7.7.u.^ $   ).).).).).).).).).).).).).).).).).).).).).).",
").).).).).).).).).).).).).).).).).).).).  + U 0.u.1.E M b T *.e.7.7.7.7.7.u.u.^ $   ).).).).).).).).).).).).).).).).).).).).).).",
").).).).).).).).).).).).).).).).).).).).  $ ! u.u.1.E M E ..d.g.u.u.7.u.7.7.u.^ $   ).).).).).).).).).).).).).).).).).).).).).).",
").).).).).).).).).).).).).).).).).).).).  $ ^ u.f.0.E T 8.d.j.j.f.s.s.s.7.7.u.^ +   ).).).).).).).).).).).).).).).).).).).).).).",
").).).).).).).).).).).).).).).).).).).).  % / f.j.e.E } d.Z.Z.V.j.j.g.g.s.u.u.^ %   ).).).).).).).).).).).).).).).).).).).).).).",
").).).).).).).).).).).).).).).).).).).).  % %.j.Z.a.E } d.Z.Z.V.V.V.V.N.g.f.u.^ $   ).).).).).).).).).).).).).).).).).).).).).).",
").).).).).).).).).).).).).).).).).).).).  @ e %.=.=.Q >.r.e.4.6.6.=.=.4.s.g.s.^ %   ).).).).).).).).).).).).).).).).).).).).).).",
").).).).).).).).).).).).).).).).).).).).    o $ $ 6 =.r.>.Y : + $ $ % q 4.j.g.^ $   ).).).).).).).).).).).).).).).).).).).).).).",
").).).).).).).).).).).).).).).).).).).).  X - 5 : e 5.h. .k > : 6 5 = q 5.g.6.D %   ).).).).).).).).).).).).).).).).).).).).).).",
").).).).).).).).).).).).).).).).).).).).  - h.W.B.M.V.d.E E O.B.Y.P.p.4.g.5.q + ).).).).).).).).).).).).).).).).).).).).).).).).",
").).).).).).).).).).).).).).).).).).).).  6 P.(.~.R.B.a.E o.C.^.(./.G.Z.Z.3.%   ).).).).).).).).).).).).).).).).).).).).).).).).",
").).).).).).).).).).).).).).).).).).).).  & 5.Y.G.S.Z.d.E  .z.F.Y.G.A.Z.Z.3.%       ).).).).).).).).).).).).).).).).).).).).).).",
").).).).).).).).).).).).).).).).).).).).  % ( g.j.V.V.d.,...w.a.p.h.j.Z.Z.3.5 . . X ).).).).).).).).).).).).).).).).).).).).).).",
").).).).).).).).).).).).).).).).).).).).  % ( j.j.V.Z.h.d.w...} E >.h.j.g.3.i 8 8 3 .   ).).).).).).).).).).).).).).).).).).).).",
").).).).).).).).).).).).).).).).).).).).  $ / N.A.F.Z.Z.F.l.,.} >.<.r.p.2.` P C V 9 % . ).).).).).).).).).).).).).).).).).).).).",
").).).).).).).).).).).).).).).).).).).).  $ / N.Q.Q.A.A.Q.W.l.k.L.J.<.E K B B V V N 9 3 .   ).).).).).).).).).).).).).).).).).).",
").).).).).).).).).).).).).).).).).).).).  + D 2.K.Q.Y.K.U.U.K.Y.E.n. .c t t N B B V V 9 % . ).).).).).).).).).).).).).).).).).).",
").).).).).).).).).).).).).).).).).).).).).).+ 2 2.D.!.I.c.m.E.E.b.{ b l t t B B V V V N 9 3 .   ).).).).).).).).).).).).).).).).",
").).).).).).).).).).).).).).).).).).).).).).  o S 2.Y.H.c.x.m.m.[ a g t t l N t 8 9 N B Z 9 & X ).).).).).).).).).).).).).).).).",
").).).).).).).).).).).).).).).).).).).).).).).).O q 2.t.[ d c.{ n g 9 t t t t 7 # % 9 B V N r 4 .   ).).).).).).).).).).).).).).",
").).).).).).).).).).).).).).).).).).).).).).).).  @ S ] | [ s a g r 9 t t t J t % # 9 B C N t 4 o   ).).).).).).).).).).).).).).",
").).).).).).).).).).).).).).).).).).).).).).).).).).o q X.y.Y g 9 t t 9 r J 4.=.B 8 N V V 9 & . ).).).).).).).).).).).).).).).).",
").).).).).).).).).).).).).).).).).).).).).).).).).).  % %.i.P r 9 9 t l B #.i.i.I N 9 8 8 3 .   ).).).).).).).).).).).).).).).).",
").).).).).).).).).).).).).).).).).).).).).).).).).).  @ i #.V N 9 8 7 z =.4.&.W Z 9 % . X . ).).).).).).).).).).).).).).).).).).",
").).).).).).).).).).).).).).).).).).).).).).).).).).  X 7 B B N 8 0 7 y =.4.&.#.#.i @       ).).).).).).).).).).).).).).).).).).",
").).).).).).).).).).).).).).).).).).).).).).).).).).  . 7 B V l 8 7 7 8 t I i.h.h.=.%   ).).).).).).).).).).).).).).).).).).).).",
").).).).).).).).).).).).).).).).).).).).).).).).).).  X 7 V Z Z c t l l t K a.Z.Z.=.%   ).).).).).).).).).).).).).).).).).).).).",
").).).).).).).).).).).).).).).).).).).).).).).).).).  . 7 Z Q ' _ Q Q _ ] _ 8.r.r.] #   ).).).).).).).).).).).).).).).).).).).).",
").).).).).).).).).).).).).).).).).).).).).).).).).).@ - t W ..,.X.X.X.X.X.X.X.,.X.G O   ).).).).).).).).).).).).).).).).).).).).",
").).).).).).).).).).).).).).).).).).).).).).).).  O w R _ ' X.X.X.X.X._ X.X.X.X.X.G #   ).).).).).).).).).).).).).).).).).).).).",
").).).).).).).).).).).).).).).).).).).).).).).).  @ R w.9.9.,.,.X._ G G ' 9.<.9.9.L #   ).).).).).).).).).).).).).).).).).).).).",
").).).).).).).).).).).).).).).).).).).).).).).).  % W t.t.r.r.w.X.G , : _ t.r.r.t.R @   ).).).).).).).).).).).).).).).).).).).).",
").).).).).).).).).).).).).).).).).).).).).).).).  # z *.w.t.r.9.X.z O X y *.w.y.r._ > O ).).).).).).).).).).).).).).).).).).).).",
").).).).).).).).).).).).).).).).).).).).).).).).).).@ > W 9.<.<.X.G O   O > ] 9.9.X.R w O   ).).).).).).).).).).).).).).).).).).",
").).).).).).).).).).).).).).).).).).).).).).).).).).  O w R ) ' X.G #     O w ] ' 8.w.K #   ).).).).).).).).).).).).).).).).).).",
").).).).).).).).).).).).).).).).).).).).).).).).).).).).o * i W W t @   ).).O > ( u.u.~ #   ).).).).).).).).).).).).).).).).).).",
").).).).).).).).).).).).).).).).).).).).).).).).).).).).@ 3 B #.+.r o   ).).  @ D / ( D +   ).).).).).).).).).).).).).).).).).).",
").).).).).).).).).).).).).).).).).).).).).).).).).).  @ i $.:.-.#.r o   ).).).).$ $ % $ ).).).).).).).).).).).).).).).).).).).).",
").).).).).).).).).).).).).).).).).).).).).).).).).).  @ C :.:.$.C 7 .   ).).).).        ).).).).).).).).).).).).).).).).).).).).",
").).).).).).).).).).).).).).).).).).).).).).).).).).  . & 4 4 3 & #     ).).).).        ).).).).).).).).).).).).).).).).).).).).",
").).).).).).).).).).).).).).).).).).).).).).).).).).).).).).).).).).).).).).).).).).).).).).).).).).).).).).).).).).).).).).).).",
").).).).).).).).).).).).).).).).).).).).).).).).).).).).).).).).).).).).).).).).).).).).).).).).).).).).).).).).).).).).).).).).",
").).).).).).).).).).).).).).).).).).).).).).).).).).).).).).).).).).).).).).).).).).).).).).).).).).).).).).).).).).).).).).).)."
};
