/* XPM */
static char *result[] = {
/* columns rows colors chars-per-pixel */
"64 64 177 2 ",
"   c #050502",
".  c #090704",
"X  c #0A0805",
"o  c #0E0D0A",
"O  c #130E0C",
"+  c #16110D",
"@  c #19120F",
"#  c #161413",
"$  c #1B1512",
"%  c #171816",
"&  c #1D1913",
"*  c #171919",
"=  c #1B1B1A",
"-  c #221A17",
";  c #251D1A",
":  c #291E1A",
">  c #1E201F",
",  c #262019",
"<  c #2C221D",
"1  c #32231F",
"2  c #1F2020",
"3  c #2F2220",
"4  c #25292A",
"5  c #2A2D2F",
"6  c #272825",
"7  c #332622",
"8  c #352925",
"9  c #3A2A26",
"0  c #342C2B",
"q  c #3B2D2A",
"w  c #382723",
"e  c #3D322C",
"r  c #373127",
"t  c #2B2F30",
"y  c #2B3134",
"u  c #2C3539",
"i  c #3D3432",
"p  c #363B3E",
"a  c #3E3B3A",
"s  c #422E2A",
"d  c #44322D",
"f  c #49332E",
"g  c #453531",
"h  c #4A3531",
"j  c #453B34",
"k  c #4C3934",
"l  c #443C3B",
"z  c #483C3A",
"x  c #533B36",
"c  c #553E39",
"v  c #583F3B",
"b  c #4B4336",
"n  c #4B413A",
"m  c #484F3F",
"M  c #54413B",
"N  c #5A423D",
"B  c #65433E",
"V  c #353E44",
"C  c #383E41",
"Z  c #354046",
"A  c #3C4145",
"S  c #3D464D",
"D  c #3D484F",
"F  c #40474E",
"G  c #4F4A41",
"H  c #5E4641",
"J  c #524C44",
"K  c #5C4B44",
"L  c #5F4F49",
"P  c #574641",
"I  c #545045",
"U  c #5B5B4C",
"Y  c #57524A",
"T  c #434C52",
"R  c #475056",
"E  c #485257",
"W  c #45545D",
"Q  c #4B545B",
"!  c #52575C",
"~  c #614641",
"^  c #634A45",
"/  c #6B4E48",
"(  c #6A4A45",
")  c #714F4A",
"_  c #62524C",
"`  c #71554E",
"'  c #695954",
"]  c #755751",
"[  c #765952",
"{  c #785B54",
"}  c #755F59",
"|  c #5B624D",
" . c #5E6650",
".. c #61614F",
"X. c #636C56",
"o. c #6E615C",
"O. c #656753",
"+. c #71645B",
"@. c #6A725B",
"#. c #667059",
"$. c #485761",
"%. c #4D5A63",
"&. c #525E66",
"*. c #5D5F60",
"=. c #525F68",
"-. c #55626A",
";. c #58656D",
":. c #62686A",
">. c #6E7162",
",. c #747C67",
"<. c #666D70",
"1. c #8F5855",
"2. c #905956",
"3. c #81645A",
"4. c #88635B",
"5. c #8B6B62",
"6. c #95746A",
"7. c #9B766C",
"8. c #9B796E",
"9. c #9F7F73",
"0. c #A56964",
"q. c #AF726C",
"w. c #A37D72",
"e. c #7F8168",
"r. c #9F8B7B",
"t. c #9C8476",
"y. c #A48074",
"u. c #A88276",
"i. c #AB8679",
"p. c #A18F7F",
"a. c #AE8A7D",
"s. c #B28B7E",
"d. c #B18278",
"f. c #998F87",
"g. c #9C928B",
"h. c #B38D80",
"j. c #B88E81",
"k. c #A49283",
"l. c #AC9686",
"z. c #A79C8F",
"x. c #BE9285",
"c. c #AB9D91",
"v. c #B09F92",
"b. c #B3A295",
"n. c #B5A69A",
"m. c #B9AA9E",
"M. c #B3AA9F",
"N. c #B8ACA0",
"B. c #C1978A",
"V. c #C2988B",
"C. c #CB9E8F",
"Z. c #C69689",
"A. c #CE9F91",
"S. c #C69D90",
"D. c #C6AB98",
"F. c #CBA897",
"G. c #D2A596",
"H. c #D1A897",
"J. c #D7A798",
"K. c #D5A999",
"L. c #DAAA9B",
"P. c #C4B19C",
"I. c #C7B4A0",
"U. c #C9B7A4",
"Y. c #CFBCA9",
"T. c #D1BEAC",
"R. c #E4B4A4",
"E. c #E7B8A7",
"W. c #E8B8A7",
"Q. c #EABAA9",
"!. c #D6C5B4",
"~. c #D8C8B7",
"^. c #DCCBBB",
"/. c #D8C5B3",
"(. c #DFCFC0",
"). c #E0D0C1",
"_. c None",
/* pixels */
"_._._._._._._._._._._._._._._._._._._._._._._._._._._._._._._._._._._._._._._._._._._._._._._._._._._._._._._._._._._._._._._._.",
"_._._._._._._._._._._._._._._._._._._._._._._._._._._._._._._._._._._._._._._._._._._._._._._._._._._._._._._._._._._._._._._._.",
"_._._._._._._._._._._._._._._._._._._._._._._._._._._._._._._._._._._._._._._._._._._._._._._._._._._._._._._._._._._._._._._._.",
"_._._._._._._._._._._._._._._._._._._._._._._._._._._._._._._._._._._._._._._._._._._._._._._._._._._._._._._._._._._._._._._._.",
"_._._._._._._._._._._._._._._._._._._._._._._._._._._._._._._._._._._._._._._._._._._._._._._._._._._._._._._._._._._._._._._._.",
"_._._._._._._._._._._._._._._._._._._._._._._._._._._._._._._._._._._._._._._._._._._._._._._._._._._._._._._._._._._._._._._._.",
"_._._._._._._._._._._._._._._._._._._._._._._._._._._._._._._._._._._._._._._._._._._._._._._._._._._._._._._._._._._._._._._._.",
"_._._._._._._._._._._._._._._._._._._._._._._._._._._._._._._._._._._._._._._._._._._._._._._._._._._._._._._._._._._._._._._._.",
"_._._._._._._._._._._._._._._._._._._._._._._._._._._._._._._._._._._._._._._._._._._._._._._._._._._._._._._._._._._._._._._._.",
"_._._._._._._._._._._._._._._._._._._._._._._._._._._._._._._._._._._._._._._._._._._._._._._._._._._._._._._._._._._._._._._._.",
"_._._._._._._._._._._._._._._._._._._._._._._._._._._._._._.X X _._.X X X X _._._._._._._._._._._._._._._._._._._._._._._._._._.",
"_._._._._._._._._._._._._._._._._._._._._._._._._._._._._._.@ $ _._.@ & $ @ _._._._._._._._._._._._._._._._._._._._._._._._._._.",
"_._._._._._._._._._._._._._._._._._._._._._._._._._.X X   # 1 1 @ @ 1 s w 1 @ X X X _._._._._._._._._._._._._._._._._._._._._._.",
"_._._._._._._._._._._._._._._._._._._._._._._._._._.& & & 3 f d : ; s c x f : $ $ @ _._._._._._._._._._._._._._._._._._._._._._.",
"_._._._._._._._._._._._._._._._._._._._._._._._.X $ w g k c N c s s c ~ B c h s 9 1 @ X X X _._._._._._._._._._._._._._._._._._.",
"_._._._._._._._._._._._._._._._._._._._._._._._.X $ w k H / ^ ~ c c ~ ^ ^ ^ N N x f : @ $ & _._._._._._._._._._._._._._._._._._.",
"_._._._._._._._._._._._._._._._._._._._._._._._._._.$ < c / ^ ^ H H ^ ^ ^ ^ ^ H ~ v s 9 s w $ . _._._._._._._._._._._._._._._._.",
"_._._._._._._._._._._._._._._._._._._._._._._._._._.@ < c ^ ^ ^ ^ ^ ^ ^ ^ ^ ^ ^ ^ ~ x x v s - . _._._._._._._._._._._._._._._._.",
"_._._._._._._._._._._._._._._._._._._._._._._._.X $ w k P ^ ^ ^ ^ ^ ^ ^ ^ ^ ^ ^ ^ ~ v c v s - . _._._._._._._._._._._._._._._._.",
"_._._._._._._._._._._._._._._._._._._._._._._._.X & f N N H H H ^ ^ ^ ^ ^ ^ ^ ^ ^ ~ N v N s $ . _._._._._._._._._._._._._._._._.",
"_._._._._._._._._._._._._._._._._._._._._._._._.. & k N M k x M H ^ ^ ^ ^ ^ ^ ^ ^ ^ ^ H v f $ . _._._._._._._._._._._._._._._._.",
"_._._._._._._._._._._._._._._._._._._._._._._._.+ 1 x / B B h k H ^ H H ^ ^ ^ ^ ^ ^ ~ P c f : @ _._._._._._._._._._._._._._._._.",
"_._._._._._._._._._._._._._._._._._._._._._.X @ 1 f B +.u.7.B k P H c x H ^ ^ ^ ^ ~ H c x f s 1 $ X _._._._._._._._._._._._._._.",
"_._._._._._._._._._._._._._._._._._._._._._.X @ 1 s M 4.s.Z.4.( ^ ^ / / ^ ^ ^ ^ ^ ~ H x h f s 1 @ X _._._._._._._._._._._._._._.",
"_._._._._._._._._._._._._._._._._._._._._._._._.@ < k 3.x.H.x.7.` ] w.w.] ~ ~ ^ ^ ^ ~ N x 9 - @ _._._._._._._._._._._._._._._._.",
"_._._._._._._._._._._._._._._._._._._._._._._._.  ; H 5.8.s.C.B.6.5.8.8.5.] / H H ~ ~ ~ c s : $ _._._._._._._._._._._._._._._._.",
"_._._._._._._._._._._._._._._._._._._._._._._._.  8 5.8.N N a.G.A.w.P P 8.w.{ P x x H H v x g 9 & X _._._._._._._._._._._._._._.",
"_._._._._._._._._._._._._._._._._._._._._._._._.O k i.y.9 8 y.R.Q.h.q q w.Z.6.] ( ~ ^ ^ v x h w $ X _._._._._._._._._._._._._._.",
"_._._._._._._._._._._._._._._._._._._._._._.X @ 1 ( s.u.d d a.Q.Q.h.g s w.G.B.w.0.2./ ~ v g : & _._._._._._._._._._._._._._._._.",
"_._._._._._._._._._._._._._._._._._._._._._.X @ < ~ s.x.[ [ x.Q.Q.x.[ ] h.J.J.A.q.2./ H N s $   _._._._._._._._._._._._._._._._.",
"_._._._._._._._._._._._._._._._._._._._._._._._.+ f u.G.B.B.L.E.Q.L.V.x.S.J.J.Z.2.~ B v v g $ X _._._._._._._._._._._._._._._._.",
"_._._._._._._._._._._._._._._._._._._._._._._._.  8 3.s.L.E.E.R.R.Q.Q.R.L.A.x.0./ x x x g w & X _._._._._._._._._._._._._._._._.",
"_._._._._._._._._._._._._._._._._._._._._._._._._._.7 ^ h.R.R.R.R.R.R.R.L.B.5./ N c v g 3 $ _._._._._._._._._._._._._._._._._._.",
"_._._._._._._._._._._._._._._._._._._._._._._._._._.  7 3.h.G.R.R.Y.R.G.h.5.^ x x x g w $ . _._._._._._._._._._._._._._._._._._.",
"_._._._._._._._._._._._._._._._._._._._._._._._._._._._.7 K a.L.J.L.L.a.^ q h x c g : $ _._._._._._._._._._._._._._._._._._._._.",
"_._._._._._._._._._._._._._._._._._._._._._._._._._._._.X d 9.K.G.G.J.w.e & k H c q $ X _._._._._._._._._._._._._._._._._._._._.",
"_._._._._._._._._._._._._._._._._._._._._._._._._._.X O - c r.D.D.D.D.t.n r U ..n 7 O X _._._._._._._._._._._._._._._._._._._._.",
"_._._._._._._._._._._._._._._._._._._._._._._._._._.X O : L k.U.U.U.P.r.L n X.X.n : + X _._._._._._._._._._._._._._._._._._._._.",
"_._._._._._._._._._._._._._._._._._._._._._._._._._.X O : _ v.~.!.!.U.k._ G X.X.b < + X _._._._._._._._._._._._._._._._._._._._.",
"_._._._._._._._._._._._._._._._._._._._._._._._._._.$ - 3 _ n.(.(.!.Y.l.' I @.#.z 3 & + _._._._._._._._._._._._._._._._._._._._.",
"_._._._._._._._._._._._._._._._._._._._._._._._.. # 0 q 0 _ n.(.^.^.~.n.' Y ,.,.z 7 3 ; + X _._._._._._._._._._._._._._._._._._.",
"_._._._._._._._._._._._._._._._._._._._._._._._.. & i z q _ v.~.^.(.(.M.' J >.,.Y j g 7 + X _._._._._._._._._._._._._._._._._._.",
"_._._._._._._._._._._._._._._._._._._._._._._._.X & q z q K k.Y.^.^.(.m.} G J U X.U G q $ X _._._._._._._._._._._._._._._._._._.",
"_._._._._._._._._._._._._._._._._._._._._._._._.# ; i j q K k.Y.!.^.(.m.+.z j J #.#.J i ; # _._._._._._._._._._._._._._._._._._.",
"_._._._._._._._._._._._._._._._._._._._._._.X $ 6 e q q 8 _ b./.Y.Y.^.m.o.j q z  .X.J j i 8 # X _._._._._._._._._._._._._._._._.",
"_._._._._._._._._._._._._._._._._._._._._._.X ; K ' z w 8 L f.N.z.z.N.g.' g q j U @.+.+.} P ; X _._._._._._._._._._._._._._._._.",
"_._._._._._._._._._._._._._._._._._._._._._.  0 8.i.K 8 w z ! <.:.:.:.*.l q w j | e.l.V.x.5.8 X _._._._._._._._._._._._._._._._.",
"_._._._._._._._._._._._._._._._._._._._._._.  d 6.6.c < < 0 S W W W W T p i i a G X.t.s.i.3.r   _._._._._._._._._._._._._._._._.",
"_._._._._._._._._._._._._._._._._._._._._._._._.e r - + + 6 F &.=.&.=.Q R F D C 4 < r d e 9 _._._._._._._._._._._._._._._._._._.",
"_._._._._._._._._._._._._._._._._._._._._._._._.  X X   . > R -.E E -.-.Q W W Z =           _._._._._._._._._._._._._._._._._._.",
"_._._._._._._._._._._._._._._._._._._._._._._._._._._._.. > E Q t 5 E ;.;.&.W Z =   _._._._._._._._._._._._._._._._._._._._._._.",
"_._._._._._._._._._._._._._._._._._._._._._._._._._._._.X = C A 4 5 W ;.;.Q D y = + _._._._._._._._._._._._._._._._._._._._._._.",
"_._._._._._._._._._._._._._._._._._._._._._._._._._._._.X + % 4 A Q -.-.%.D 4 > , - + X _._._._._._._._._._._._._._._._._._._._.",
"_._._._._._._._._._._._._._._._._._._._._._._._._._._._.X o % y W ;.-.Q D y # + 1 8 $ X _._._._._._._._._._._._._._._._._._._._.",
"_._._._._._._._._._._._._._._._._._._._._._._._._._._._.X = p Q -.;.! D 4 # X & e e & X _._._._._._._._._._._._._._._._._._._._.",
"_._._._._._._._._._._._._._._._._._._._._._._._._._._._.. = A ! ! Q W Z % X X > e r $ X _._._._._._._._._._._._._._._._._._._._.",
"_._._._._._._._._._._._._._._._._._._._._._._._._._._._.. # 0 j i a T Z * X _._.& $ O o _._._._._._._._._._._._._._._._._._._._.",
"_._._._._._._._._._._._._._._._._._._._._._._._._._._._.& , 1 9 8 r p u * X _._.X X X X _._._._._._._._._._._._._._._._._._._._.",
"_._._._._._._._._._._._._._._._._._._._._._._._._._.X & r b b j q < ; * _._._._._._._._._._._._._._._._._._._._._._._._._._._._.",
"_._._._._._._._._._._._._._._._._._._._._._._._._._.X & e b b b 9 ; O   _._._._._._._._._._._._._._._._._._._._._._._._._._._._.",
"_._._._._._._._._._._._._._._._._._._._._._._._._._._.# ; < , , & @ o _._._._._._._._._._._._._._._._._._._._._._._._._._._._._.",
"_._._._._._._._._._._._._._._._._._._._._._._._._._._._._._._._._._._._._._._._._._._._._._._._._._._._._._._._._._._._._._._._.",
"_._._._._._._._._._._._._._._._._._._._._._._._._._._._._._._._._._._._._._._._._._._._._._._._._._._._._._._._._._._._._._._._.",
"_._._._._._._._._._._._._._._._._._._._._._._._._._._._._._._._._._._._._._._._._._._._._._._._._._._._._._._._._._._._._._._._."
};
